<?xml version="1.0" encoding="utf-8"?>
<!-- Generator: Adobe Illustrator 25.0.1, SVG Export Plug-In . SVG Version: 6.00 Build 0)  -->
<svg version="1.1" id="Layer_1" xmlns="http://www.w3.org/2000/svg" xmlns:xlink="http://www.w3.org/1999/xlink" x="0px" y="0px"
	 viewBox="0 0 100 100" style="enable-background:new 0 0 100 100;" xml:space="preserve">
<style type="text/css">
	.st0{fill:#003755;}
</style>
<g>
	<path class="st0" d="M48.3,27.2c1.4-0.9,2.8-1.7,4.2-2.5c-1.1-1.9-2.2-3.9-3.4-5.7c-1.8-2.5-5.7-2.2-7.2,0.5c-1.7,3-3.4,6-5.2,9
		c-0.7,1.3-2.1,1.9-3.4,1.6c-2.2-0.4-3.4-2.8-2.3-4.7c1.8-3.2,3.5-6.4,5.5-9.6c4.3-6.9,14.4-6.7,18.5,0.2c0.9,1.6,1.9,3.2,2.8,4.8
		c0.1,0.2,0.2,0.3,0.3,0.5c1.4-0.8,2.7-1.6,4.2-2.5c0,5.5,0,10.8,0,16.2C57.6,32.4,53,29.8,48.3,27.2z"/>
	<path class="st0" d="M20.2,44.4c-1.5-0.8-2.9-1.7-4.4-2.6c4.7-2.8,9.4-5.5,14.2-8.2c0,5.5,0,10.9,0,16.3c-1.4-0.8-2.7-1.5-4-2.3
		c-0.1,0.1-0.2,0.3-0.3,0.4c-0.9,1.5-1.8,3.1-2.7,4.6c-1.7,3.1,0.3,6.6,3.8,6.7c3.4,0,6.7,0,10.1,0c2.5,0,4,2.7,2.8,4.8
		c-0.6,1-1.5,1.6-2.6,1.6c-3.7,0-7.4,0.1-11,0c-8-0.3-12.7-9.2-8.7-16.2c0.9-1.6,1.8-3.1,2.7-4.7C20,44.8,20.1,44.6,20.2,44.4z"/>
	<path class="st0" d="M58.7,65.9c0,1.6,0,3,0,4.7c-4.6-2.7-9.1-5.3-13.7-7.9c4.6-2.6,9.1-5.2,13.6-7.8c0,1.6,0,3,0,4.5
		c0.1,0.1,0.1,0.1,0.2,0.1c2.2,0,4.3,0.1,6.5,0c3.2-0.2,5.1-3.7,3.5-6.5c-1.6-2.9-3.4-5.8-5-8.8c-1.2-2.1-0.2-4.5,2.1-5
		c1.4-0.3,2.7,0.3,3.5,1.7c1.7,2.9,3.4,5.9,5.1,8.9c1.8,3.1,2,6.4,0.5,9.7c-1.9,4.2-5.3,6.4-9.9,6.5c-1.9,0.1-3.8,0-5.7,0
		C59.2,65.9,59,65.9,58.7,65.9z"/>
</g>
<g>
	<path class="st0" d="M46.2,51.8h-3.3V39.3c-1.2,1.1-2.6,2-4.3,2.5v-3c0.9-0.3,1.8-0.8,2.8-1.6c1-0.8,1.7-1.7,2.1-2.8h2.7V51.8z"/>
</g>
<g>
	<path class="st0" d="M31.1,84.8v-8.5h2.8c1,0,1.7,0,2,0.1c0.5,0.1,0.9,0.4,1.2,0.8c0.3,0.4,0.5,1,0.5,1.7c0,0.5-0.1,1-0.3,1.3
		c-0.2,0.4-0.4,0.6-0.7,0.8c-0.3,0.2-0.6,0.3-0.9,0.4c-0.4,0.1-1,0.1-1.8,0.1h-1.1v3.2H31.1z M32.9,77.7v2.4h0.9
		c0.7,0,1.1,0,1.4-0.1c0.2-0.1,0.4-0.2,0.5-0.4c0.1-0.2,0.2-0.4,0.2-0.7c0-0.3-0.1-0.6-0.3-0.8c-0.2-0.2-0.4-0.3-0.7-0.4
		c-0.2,0-0.6-0.1-1.2-0.1H32.9z"/>
	<path class="st0" d="M39.1,84.8v-8.5h6.3v1.4h-4.6v1.9h4.3V81h-4.3v2.3h4.8v1.4H39.1z"/>
	<path class="st0" d="M49,84.8v-7.1h-2.5v-1.4h6.8v1.4h-2.5v7.1H49z"/>
	<path class="st0" d="M54.3,84.8v-8.5h6.3v1.4h-4.6v1.9h4.3V81h-4.3v2.3h4.8v1.4H54.3z"/>
</g>
</svg>
