<?xml version="1.0" encoding="utf-8"?>
<!-- Generator: Adobe Illustrator 25.0.1, SVG Export Plug-In . SVG Version: 6.00 Build 0)  -->
<svg version="1.1" id="Layer_1" xmlns="http://www.w3.org/2000/svg" xmlns:xlink="http://www.w3.org/1999/xlink" x="0px" y="0px"
	 viewBox="0 0 100 100" style="enable-background:new 0 0 100 100;" xml:space="preserve">
<style type="text/css">
	.st0{fill:#003755;}
</style>
<g>
	<path class="st0" d="M51.4,26.7c1.4-0.8,2.7-1.6,4.1-2.4c-1.1-1.9-2.1-3.7-3.3-5.5c-1.7-2.5-5.5-2.2-7,0.5c-1.7,2.9-3.3,5.8-5,8.7
		c-0.7,1.2-2,1.8-3.3,1.6c-2.1-0.4-3.3-2.7-2.2-4.6c1.7-3.1,3.4-6.2,5.3-9.3c4.1-6.7,13.9-6.5,18,0.2c0.9,1.5,1.8,3.1,2.7,4.6
		c0.1,0.2,0.2,0.3,0.3,0.5c1.3-0.8,2.6-1.6,4.1-2.4c0,5.3,0,10.5,0,15.7C60.5,31.8,56,29.3,51.4,26.7z"/>
	<path class="st0" d="M24.2,43.4c-1.4-0.8-2.8-1.6-4.3-2.5c4.6-2.7,9.1-5.3,13.7-8c0,5.3,0,10.5,0,15.8c-1.3-0.8-2.6-1.5-3.9-2.2
		c-0.1,0.1-0.2,0.2-0.3,0.4c-0.9,1.5-1.7,3-2.6,4.5c-1.7,3,0.3,6.4,3.7,6.4c3.2,0,6.5,0,9.7,0c2.4,0,3.9,2.6,2.7,4.7
		c-0.6,1-1.4,1.6-2.5,1.6c-3.6,0-7.1,0.1-10.7,0c-7.7-0.3-12.3-9-8.5-15.7c0.9-1.5,1.7-3,2.6-4.5C24,43.7,24.1,43.6,24.2,43.4z"/>
	<path class="st0" d="M61.5,64.2c0,1.5,0,3,0,4.5c-4.4-2.6-8.8-5.1-13.2-7.7c4.4-2.5,8.8-5,13.2-7.6c0,1.5,0,2.9,0,4.3
		c0.1,0.1,0.1,0.1,0.2,0.1c2.1,0,4.2,0.1,6.3,0c3.1-0.2,4.9-3.6,3.4-6.3c-1.6-2.8-3.3-5.7-4.9-8.5c-1.2-2-0.2-4.4,2-4.8
		c1.3-0.3,2.7,0.3,3.4,1.6c1.7,2.9,3.3,5.7,4.9,8.6c1.7,3,1.9,6.2,0.5,9.4c-1.9,4.1-5.1,6.2-9.6,6.3c-1.8,0.1-3.7,0-5.5,0
		C62,64.2,61.8,64.2,61.5,64.2z"/>
</g>
<g>
	<path class="st0" d="M52,47.6v3H40.7c0.1-1.1,0.5-2.2,1.1-3.2c0.6-1,1.8-2.4,3.6-4c1.5-1.4,2.3-2.3,2.7-2.8c0.4-0.7,0.7-1.3,0.7-2
		c0-0.7-0.2-1.3-0.6-1.7c-0.4-0.4-0.9-0.6-1.6-0.6c-0.7,0-1.2,0.2-1.6,0.6c-0.4,0.4-0.6,1.1-0.7,2l-3.2-0.3c0.2-1.8,0.8-3,1.8-3.8
		c1-0.8,2.3-1.2,3.8-1.2c1.7,0,3,0.4,3.9,1.3c0.9,0.9,1.4,2,1.4,3.3c0,0.8-0.1,1.5-0.4,2.2s-0.7,1.4-1.3,2.1
		c-0.4,0.5-1.1,1.2-2.1,2.1c-1,0.9-1.7,1.6-1.9,1.9c-0.3,0.3-0.5,0.6-0.7,0.9H52z"/>
</g>
<g>
	<path class="st0" d="M33.9,82.5v-8.3h1.7v3.3h3.3v-3.3h1.7v8.3h-1.7v-3.6h-3.3v3.6H33.9z"/>
	<path class="st0" d="M42.2,74.3h3.1c0.7,0,1.2,0.1,1.6,0.2c0.5,0.1,0.9,0.4,1.2,0.8c0.3,0.4,0.6,0.8,0.8,1.3c0.2,0.5,0.3,1.2,0.3,2
		c0,0.7-0.1,1.3-0.3,1.8c-0.2,0.6-0.5,1.1-0.9,1.5c-0.3,0.3-0.7,0.5-1.2,0.7c-0.4,0.1-0.9,0.2-1.5,0.2h-3.1V74.3z M43.9,75.7v5.5
		h1.2c0.5,0,0.8,0,1-0.1c0.3-0.1,0.5-0.2,0.7-0.3c0.2-0.2,0.3-0.4,0.4-0.8c0.1-0.4,0.2-0.9,0.2-1.5s-0.1-1.1-0.2-1.5
		c-0.1-0.3-0.3-0.6-0.5-0.8c-0.2-0.2-0.5-0.3-0.8-0.4c-0.2-0.1-0.7-0.1-1.4-0.1H43.9z"/>
	<path class="st0" d="M50.6,82.5v-8.3h2.7c1,0,1.7,0,2,0.1c0.5,0.1,0.9,0.4,1.2,0.8s0.5,1,0.5,1.6c0,0.5-0.1,0.9-0.3,1.3
		c-0.2,0.3-0.4,0.6-0.7,0.8c-0.3,0.2-0.6,0.3-0.9,0.4c-0.4,0.1-1,0.1-1.7,0.1h-1.1v3.1H50.6z M52.2,75.7V78h0.9c0.7,0,1.1,0,1.3-0.1
		c0.2-0.1,0.4-0.2,0.5-0.4c0.1-0.2,0.2-0.4,0.2-0.6c0-0.3-0.1-0.5-0.3-0.7c-0.2-0.2-0.4-0.3-0.7-0.4c-0.2,0-0.6-0.1-1.2-0.1H52.2z"
		/>
	<path class="st0" d="M58.3,82.5v-8.3h6.1v1.4h-4.5v1.8h4.2v1.4h-4.2v2.3h4.6v1.4H58.3z"/>
</g>
</svg>
