<?xml version="1.0" encoding="utf-8"?>
<!-- Generator: Adobe Illustrator 25.0.1, SVG Export Plug-In . SVG Version: 6.00 Build 0)  -->
<svg version="1.1" id="Layer_1" xmlns="http://www.w3.org/2000/svg" xmlns:xlink="http://www.w3.org/1999/xlink" x="0px" y="0px"
	 viewBox="0 0 100 100" style="enable-background:new 0 0 100 100;" xml:space="preserve">
<style type="text/css">
	.st0{fill:#003755;}
</style>
<g>
	<path class="st0" d="M52.5,27.2c1.5-0.9,2.9-1.7,4.4-2.6c-1.2-2-2.3-4.1-3.6-6c-1.8-2.7-6-2.4-7.6,0.5c-1.8,3.2-3.6,6.3-5.4,9.5
		c-0.8,1.3-2.2,2-3.6,1.7c-2.3-0.4-3.6-2.9-2.4-5C36.1,22,38,18.6,40,15.3c4.5-7.3,15.1-7.1,19.5,0.2c1,1.7,2,3.3,2.9,5
		c0.1,0.2,0.2,0.3,0.3,0.5c1.5-0.9,2.9-1.7,4.4-2.6c0,5.7,0,11.4,0,17C62.4,32.8,57.5,30,52.5,27.2z"/>
	<path class="st0" d="M22.9,45.4c-1.5-0.9-3-1.8-4.7-2.7c5-2.9,9.9-5.7,14.9-8.7c0,5.8,0,11.4,0,17.2c-1.4-0.8-2.8-1.6-4.3-2.4
		c-0.1,0.1-0.2,0.3-0.3,0.4c-0.9,1.6-1.9,3.2-2.8,4.9c-1.8,3.2,0.3,7,4,7c3.5,0,7.1,0,10.6,0c2.7,0,4.3,2.8,2.9,5.1
		c-0.6,1.1-1.5,1.7-2.8,1.7c-3.9,0-7.8,0.1-11.6,0c-8.4-0.4-13.4-9.7-9.2-17.1c0.9-1.6,1.9-3.3,2.8-4.9
		C22.7,45.8,22.8,45.6,22.9,45.4z"/>
	<path class="st0" d="M63.5,68c0,1.7,0,3.2,0,4.9c-4.8-2.8-9.5-5.5-14.4-8.3c4.8-2.8,9.5-5.5,14.4-8.3c0,1.6,0,3.2,0,4.7
		c0.1,0.1,0.1,0.1,0.2,0.1c2.3,0,4.6,0.1,6.8,0c3.4-0.2,5.3-3.9,3.7-6.8c-1.7-3.1-3.5-6.2-5.3-9.2c-1.3-2.2-0.2-4.8,2.2-5.3
		c1.5-0.3,2.9,0.4,3.7,1.8c1.8,3.1,3.6,6.2,5.4,9.3c1.8,3.3,2.1,6.8,0.5,10.2c-2,4.4-5.5,6.7-10.4,6.9c-2,0.1-4,0-6,0
		C64,68,63.8,68,63.5,68z"/>
</g>
<g>
	<path class="st0" d="M41.2,48.4l3.4-0.4c0.1,0.9,0.4,1.5,0.9,2c0.5,0.5,1,0.7,1.7,0.7c0.7,0,1.3-0.3,1.8-0.8
		c0.5-0.5,0.7-1.3,0.7-2.2c0-0.9-0.2-1.6-0.7-2.1c-0.5-0.5-1.1-0.8-1.7-0.8c-0.4,0-1,0.1-1.6,0.3l0.4-2.9c0.9,0,1.7-0.2,2.2-0.6
		s0.7-1,0.7-1.7c0-0.6-0.2-1.1-0.5-1.5c-0.4-0.4-0.9-0.5-1.5-0.5c-0.6,0-1.1,0.2-1.5,0.6c-0.4,0.4-0.7,1-0.8,1.8l-3.2-0.5
		c0.2-1.1,0.6-2,1-2.6c0.5-0.7,1.1-1.2,1.9-1.6c0.8-0.4,1.7-0.6,2.7-0.6c1.7,0,3.1,0.5,4.1,1.6c0.9,0.9,1.3,1.9,1.3,3
		c0,1.6-0.9,2.9-2.6,3.8c1,0.2,1.9,0.7,2.5,1.5s0.9,1.7,0.9,2.8c0,1.6-0.6,3-1.8,4.1c-1.2,1.1-2.6,1.7-4.4,1.7c-1.7,0-3-0.5-4.1-1.4
		C42,51.1,41.4,49.9,41.2,48.4z"/>
</g>
<g>
	<path class="st0" d="M37.9,87.9v-9h2.9c1.1,0,1.8,0,2.2,0.1c0.5,0.1,0.9,0.4,1.3,0.9s0.5,1,0.5,1.8c0,0.6-0.1,1-0.3,1.4
		c-0.2,0.4-0.5,0.7-0.8,0.9c-0.3,0.2-0.6,0.4-0.9,0.4c-0.4,0.1-1.1,0.1-1.9,0.1h-1.2v3.4H37.9z M39.8,80.5V83h1c0.7,0,1.2,0,1.4-0.1
		s0.4-0.2,0.6-0.4c0.1-0.2,0.2-0.4,0.2-0.7c0-0.3-0.1-0.6-0.3-0.8s-0.4-0.3-0.7-0.4c-0.2,0-0.7-0.1-1.3-0.1H39.8z"/>
	<path class="st0" d="M48.6,87.9l-3.2-9h2l2.3,6.7l2.2-6.7h1.9l-3.2,9H48.6z"/>
	<path class="st0" d="M60.5,84.6l1.8,0.6c-0.3,1-0.7,1.7-1.3,2.2c-0.6,0.5-1.4,0.7-2.4,0.7c-1.2,0-2.2-0.4-2.9-1.2
		c-0.8-0.8-1.2-1.9-1.2-3.3c0-1.5,0.4-2.7,1.2-3.5c0.8-0.8,1.8-1.2,3-1.2c1.1,0,2,0.3,2.7,1c0.4,0.4,0.7,0.9,0.9,1.7l-1.8,0.4
		c-0.1-0.5-0.3-0.8-0.7-1.1c-0.3-0.3-0.7-0.4-1.2-0.4c-0.7,0-1.2,0.2-1.6,0.7s-0.6,1.3-0.6,2.3c0,1.1,0.2,1.9,0.6,2.4
		s0.9,0.7,1.6,0.7c0.5,0,0.9-0.2,1.2-0.5S60.3,85.3,60.5,84.6z"/>
</g>
</svg>
