<?xml version="1.0" encoding="utf-8"?>
<!-- Generator: Adobe Illustrator 25.0.1, SVG Export Plug-In . SVG Version: 6.00 Build 0)  -->
<svg version="1.1" id="Layer_1" xmlns="http://www.w3.org/2000/svg" xmlns:xlink="http://www.w3.org/1999/xlink" x="0px" y="0px"
	 viewBox="0 0 100 100" style="enable-background:new 0 0 100 100;" xml:space="preserve">
<style type="text/css">
	.st0{fill:#003755;}
</style>
<g>
	<path class="st0" d="M53,28.1c1.5-0.9,2.9-1.7,4.3-2.6c-1.2-2-2.2-4-3.5-5.8c-1.8-2.6-5.8-2.3-7.5,0.5c-1.8,3.1-3.5,6.2-5.3,9.3
		c-0.7,1.3-2.1,1.9-3.5,1.7c-2.3-0.4-3.5-2.8-2.4-4.9c1.8-3.3,3.6-6.6,5.6-9.9c4.4-7.1,14.8-6.9,19.1,0.2c1,1.6,1.9,3.3,2.9,4.9
		c0.1,0.2,0.2,0.3,0.3,0.5c1.4-0.8,2.8-1.7,4.3-2.6c0,5.6,0,11.1,0,16.6C62.7,33.6,57.9,30.9,53,28.1z"/>
	<path class="st0" d="M24.1,45.9c-1.5-0.9-3-1.7-4.5-2.6c4.9-2.8,9.7-5.6,14.6-8.5c0,5.7,0,11.2,0,16.8c-1.4-0.8-2.8-1.6-4.2-2.4
		c-0.1,0.1-0.2,0.3-0.3,0.4c-0.9,1.6-1.8,3.2-2.7,4.8c-1.8,3.2,0.3,6.8,3.9,6.8c3.5,0,6.9,0,10.4,0c2.6,0,4.2,2.8,2.9,5
		c-0.6,1-1.5,1.7-2.7,1.7c-3.8,0-7.6,0.1-11.4,0c-8.2-0.4-13.1-9.5-9-16.7c0.9-1.6,1.9-3.2,2.8-4.8C23.9,46.3,24,46.1,24.1,45.9z"/>
	<path class="st0" d="M63.7,68c0,1.6,0,3.1,0,4.8c-4.7-2.7-9.3-5.4-14.1-8.2c4.7-2.7,9.3-5.4,14-8.1c0,1.6,0,3.1,0,4.6
		c0.1,0.1,0.1,0.1,0.2,0.1c2.2,0,4.5,0.1,6.7,0c3.3-0.2,5.2-3.8,3.6-6.7c-1.7-3-3.5-6-5.2-9c-1.2-2.1-0.2-4.6,2.1-5.1
		c1.4-0.3,2.8,0.3,3.6,1.7c1.8,3,3.5,6.1,5.3,9.1c1.8,3.2,2,6.6,0.5,10c-2,4.3-5.4,6.5-10.2,6.7c-1.9,0.1-3.9,0-5.9,0
		C64.2,68,64,68,63.7,68z"/>
</g>
<g>
	<path class="st0" d="M48.8,53.5V50h-7.3v-3l7.7-11.3h2.9v11.3h2.2v3h-2.2v3.6H48.8z M48.8,46.9v-6.1l-4.1,6.1H48.8z"/>
</g>
<g>
	<path class="st0" d="M35.1,87.5v-8.7h1.8V86h4.4v1.5H35.1z"/>
	<path class="st0" d="M42.5,78.7h3.2c0.7,0,1.3,0.1,1.7,0.2c0.5,0.2,1,0.4,1.3,0.8c0.4,0.4,0.6,0.9,0.8,1.4c0.2,0.6,0.3,1.3,0.3,2.1
		c0,0.7-0.1,1.3-0.3,1.9c-0.2,0.6-0.5,1.2-0.9,1.6c-0.3,0.3-0.7,0.5-1.2,0.7c-0.4,0.1-0.9,0.2-1.6,0.2h-3.3V78.7z M44.3,80.2V86h1.3
		c0.5,0,0.9,0,1.1-0.1c0.3-0.1,0.5-0.2,0.7-0.4c0.2-0.2,0.3-0.5,0.5-0.8c0.1-0.4,0.2-0.9,0.2-1.6c0-0.7-0.1-1.2-0.2-1.6
		c-0.1-0.4-0.3-0.6-0.5-0.9c-0.2-0.2-0.5-0.3-0.8-0.4c-0.2-0.1-0.7-0.1-1.5-0.1H44.3z"/>
	<path class="st0" d="M51.4,87.5v-8.8h2.8c1.1,0,1.8,0,2.1,0.1c0.5,0.1,0.9,0.4,1.3,0.9c0.3,0.4,0.5,1,0.5,1.7c0,0.5-0.1,1-0.3,1.4
		c-0.2,0.4-0.4,0.7-0.7,0.9c-0.3,0.2-0.6,0.3-0.9,0.4c-0.4,0.1-1,0.1-1.8,0.1h-1.2v3.3H51.4z M53.2,80.2v2.5h1c0.7,0,1.2,0,1.4-0.1
		c0.2-0.1,0.4-0.2,0.6-0.4c0.1-0.2,0.2-0.4,0.2-0.7c0-0.3-0.1-0.6-0.3-0.8c-0.2-0.2-0.4-0.3-0.7-0.4c-0.2,0-0.6-0.1-1.3-0.1H53.2z"
		/>
	<path class="st0" d="M59.6,87.5v-8.8h6.5v1.5h-4.7v1.9h4.4v1.5h-4.4V86h4.9v1.5H59.6z"/>
</g>
</svg>
