<?xml version="1.0" encoding="utf-8"?>
<!-- Generator: Adobe Illustrator 25.0.1, SVG Export Plug-In . SVG Version: 6.00 Build 0)  -->
<svg version="1.1" id="Layer_1" xmlns="http://www.w3.org/2000/svg" xmlns:xlink="http://www.w3.org/1999/xlink" x="0px" y="0px"
	 viewBox="0 0 100 100" style="enable-background:new 0 0 100 100;" xml:space="preserve">
<style type="text/css">
	.st0{fill:#003755;}
</style>
<g>
	<path class="st0" d="M53.1,25.7c1.6-0.9,3-1.8,4.5-2.7c-1.2-2.1-2.3-4.2-3.7-6.1c-1.9-2.7-6.1-2.4-7.8,0.5
		c-1.9,3.2-3.7,6.5-5.6,9.7c-0.8,1.4-2.2,2-3.7,1.8c-2.4-0.4-3.7-3-2.5-5.1c1.9-3.5,3.8-7,5.9-10.3c4.6-7.4,15.5-7.3,20,0.3
		c1,1.7,2,3.4,3,5.1c0.1,0.2,0.2,0.3,0.3,0.5c1.5-0.9,2.9-1.7,4.5-2.7c0,5.9,0,11.6,0,17.4C63.3,31.4,58.3,28.6,53.1,25.7z"/>
	<path class="st0" d="M22.8,44.4c-1.6-0.9-3.1-1.8-4.8-2.8c5.1-3,10.1-5.9,15.3-8.9c0,5.9,0,11.7,0,17.6c-1.5-0.8-2.9-1.7-4.4-2.5
		c-0.1,0.1-0.2,0.3-0.3,0.4c-1,1.7-1.9,3.3-2.9,5c-1.9,3.3,0.3,7.2,4.1,7.2c3.6,0,7.2,0,10.8,0c2.7,0,4.4,2.9,3,5.2
		c-0.6,1.1-1.6,1.7-2.8,1.7c-4,0-7.9,0.1-11.9,0c-8.6-0.4-13.7-10-9.4-17.5c1-1.7,1.9-3.4,2.9-5C22.7,44.7,22.7,44.6,22.8,44.4z"/>
	<path class="st0" d="M64.4,67.5c0,1.7,0,3.3,0,5c-4.9-2.9-9.8-5.7-14.7-8.5c4.9-2.8,9.8-5.6,14.7-8.5c0,1.7,0,3.3,0,4.8
		c0.1,0.1,0.1,0.1,0.2,0.1c2.3,0,4.7,0.1,7,0c3.4-0.2,5.5-4,3.7-7c-1.8-3.2-3.6-6.3-5.4-9.4c-1.3-2.3-0.2-4.9,2.2-5.4
		c1.5-0.3,3,0.4,3.8,1.8c1.8,3.2,3.7,6.3,5.5,9.6c1.9,3.4,2.1,7,0.5,10.5c-2.1,4.5-5.7,6.9-10.6,7c-2,0.1-4.1,0-6.1,0
		C64.9,67.5,64.7,67.5,64.4,67.5z"/>
</g>
<g>
	<path class="st0" d="M41.7,47.5l3.6-0.4c0.1,0.8,0.4,1.4,0.9,1.9s1.1,0.7,1.7,0.7c0.7,0,1.4-0.3,1.9-0.9c0.5-0.6,0.8-1.5,0.8-2.8
		c0-1.1-0.3-2-0.8-2.6c-0.5-0.6-1.2-0.9-2-0.9c-1,0-2,0.5-2.8,1.4l-2.9-0.4l1.8-9.7h9.5v3.4h-6.8l-0.6,3.2c0.8-0.4,1.6-0.6,2.5-0.6
		c1.6,0,2.9,0.6,4,1.7c1.1,1.2,1.7,2.7,1.7,4.5c0,1.5-0.4,2.9-1.3,4.1c-1.2,1.7-2.9,2.5-5.1,2.5c-1.7,0-3.1-0.5-4.2-1.4
		C42.6,50.4,42,49.1,41.7,47.5z"/>
</g>
<g>
	<path class="st0" d="M43,87.9v-9.2h3c1.1,0,1.9,0,2.2,0.1c0.5,0.1,1,0.4,1.3,0.9c0.4,0.5,0.5,1.1,0.5,1.8c0,0.6-0.1,1-0.3,1.4
		c-0.2,0.4-0.5,0.7-0.8,0.9s-0.6,0.4-1,0.4c-0.4,0.1-1.1,0.1-1.9,0.1h-1.2v3.5H43z M44.9,80.3v2.6h1c0.7,0,1.2,0,1.5-0.1
		c0.2-0.1,0.4-0.2,0.6-0.5c0.1-0.2,0.2-0.4,0.2-0.7c0-0.3-0.1-0.6-0.3-0.8c-0.2-0.2-0.4-0.4-0.7-0.4c-0.2,0-0.7-0.1-1.3-0.1H44.9z"
		/>
	<path class="st0" d="M51.6,87.9v-9.2h3c1.1,0,1.9,0,2.2,0.1c0.5,0.1,1,0.4,1.3,0.9s0.5,1.1,0.5,1.8c0,0.6-0.1,1-0.3,1.4
		c-0.2,0.4-0.5,0.7-0.8,0.9s-0.6,0.4-1,0.4c-0.4,0.1-1.1,0.1-1.9,0.1h-1.2v3.5H51.6z M53.4,80.3v2.6h1c0.7,0,1.2,0,1.5-0.1
		c0.2-0.1,0.4-0.2,0.6-0.5c0.1-0.2,0.2-0.4,0.2-0.7c0-0.3-0.1-0.6-0.3-0.8c-0.2-0.2-0.4-0.4-0.7-0.4c-0.2,0-0.7-0.1-1.3-0.1H53.4z"
		/>
</g>
</svg>
