<?xml version="1.0" encoding="utf-8"?>
<!-- Generator: Adobe Illustrator 25.0.1, SVG Export Plug-In . SVG Version: 6.00 Build 0)  -->
<svg version="1.1" id="Layer_1" xmlns="http://www.w3.org/2000/svg" xmlns:xlink="http://www.w3.org/1999/xlink" x="0px" y="0px"
	 viewBox="0 0 100 100" style="enable-background:new 0 0 100 100;" xml:space="preserve">
<style type="text/css">
	.st0{fill:#003755;}
</style>
<g>
	<path class="st0" d="M52.4,29.2c1.5-0.9,2.8-1.7,4.2-2.5c-1.2-1.9-2.2-3.9-3.4-5.7c-1.8-2.5-5.7-2.3-7.3,0.5
		c-1.8,3-3.5,6.1-5.2,9.1c-0.7,1.3-2.1,1.9-3.4,1.7c-2.2-0.4-3.4-2.8-2.3-4.8c1.8-3.2,3.6-6.5,5.5-9.6c4.3-6.9,14.5-6.8,18.6,0.2
		c0.9,1.6,1.9,3.2,2.8,4.8c0.1,0.2,0.2,0.3,0.3,0.5c1.4-0.8,2.7-1.6,4.2-2.5c0,5.5,0,10.8,0,16.3C61.9,34.5,57.2,31.9,52.4,29.2z"/>
	<path class="st0" d="M24.2,46.6c-1.5-0.9-2.9-1.7-4.4-2.6c4.8-2.8,9.5-5.5,14.2-8.3c0,5.5,0,10.9,0,16.4c-1.4-0.8-2.7-1.5-4.1-2.3
		c-0.1,0.1-0.2,0.3-0.3,0.4c-0.9,1.6-1.8,3.1-2.7,4.7c-1.7,3.1,0.3,6.7,3.9,6.7c3.4,0,6.7,0,10.1,0c2.5,0,4.1,2.7,2.8,4.9
		c-0.6,1-1.5,1.6-2.6,1.6c-3.7,0-7.4,0.1-11.1,0c-8-0.3-12.8-9.3-8.8-16.3c0.9-1.6,1.8-3.1,2.7-4.7C24,46.9,24.1,46.8,24.2,46.6z"/>
	<path class="st0" d="M62.9,68.2c0,1.6,0,3.1,0,4.7c-4.6-2.7-9.1-5.3-13.7-8c4.6-2.6,9.1-5.2,13.7-7.9c0,1.6,0,3.1,0,4.5
		c0.1,0.1,0.1,0.1,0.2,0.1c2.2,0,4.4,0.1,6.5,0c3.2-0.2,5.1-3.7,3.5-6.5c-1.7-3-3.4-5.9-5.1-8.8c-1.2-2.1-0.2-4.5,2.1-5
		c1.4-0.3,2.8,0.3,3.5,1.7c1.7,3,3.5,5.9,5.1,8.9c1.8,3.2,2,6.5,0.5,9.8c-1.9,4.2-5.3,6.4-9.9,6.5c-1.9,0.1-3.8,0-5.7,0
		C63.4,68.2,63.2,68.2,62.9,68.2z"/>
</g>
<g>
	<path class="st0" d="M53.1,40.9l-3.2,0.4c-0.1-0.7-0.3-1.2-0.6-1.5c-0.3-0.3-0.8-0.5-1.3-0.5c-0.7,0-1.3,0.3-1.8,1
		c-0.5,0.6-0.8,2-0.9,4c0.8-1,1.9-1.5,3.1-1.5c1.4,0,2.6,0.5,3.6,1.6c1,1.1,1.5,2.4,1.5,4.1c0,1.8-0.5,3.2-1.6,4.3
		c-1,1.1-2.4,1.6-4,1.6c-1.8,0-3.2-0.7-4.3-2.1c-1.1-1.4-1.7-3.6-1.7-6.7c0-3.2,0.6-5.5,1.8-6.9c1.2-1.4,2.7-2.1,4.6-2.1
		c1.3,0,2.4,0.4,3.3,1.1C52.3,38.4,52.8,39.5,53.1,40.9z M45.5,48.2c0,1.1,0.2,1.9,0.7,2.5c0.5,0.6,1.1,0.9,1.7,0.9
		c0.6,0,1.1-0.2,1.5-0.7c0.4-0.5,0.6-1.3,0.6-2.4c0-1.1-0.2-2-0.7-2.5c-0.4-0.5-1-0.8-1.7-0.8c-0.6,0-1.2,0.3-1.6,0.8
		C45.7,46.4,45.5,47.2,45.5,48.2z"/>
</g>
<g>
	<path class="st0" d="M42.9,87.2v-8.6h2.8c1.1,0,1.7,0,2.1,0.1c0.5,0.1,0.9,0.4,1.2,0.8c0.3,0.4,0.5,1,0.5,1.7c0,0.5-0.1,1-0.3,1.3
		c-0.2,0.4-0.4,0.6-0.7,0.8c-0.3,0.2-0.6,0.3-0.9,0.4c-0.4,0.1-1,0.1-1.8,0.1h-1.1v3.2H42.9z M44.6,80.1v2.4h0.9
		c0.7,0,1.1,0,1.4-0.1s0.4-0.2,0.5-0.4c0.1-0.2,0.2-0.4,0.2-0.7c0-0.3-0.1-0.6-0.3-0.8c-0.2-0.2-0.4-0.3-0.7-0.4
		c-0.2,0-0.6-0.1-1.2-0.1H44.6z"/>
	<path class="st0" d="M50.4,84.4l1.7-0.2c0.1,0.6,0.3,1,0.6,1.2c0.3,0.3,0.7,0.4,1.3,0.4c0.6,0,1-0.1,1.3-0.4
		c0.3-0.2,0.4-0.5,0.4-0.8c0-0.2-0.1-0.4-0.2-0.5c-0.1-0.1-0.3-0.3-0.6-0.4c-0.2-0.1-0.7-0.2-1.4-0.4c-0.9-0.2-1.6-0.5-2-0.9
		c-0.5-0.5-0.8-1-0.8-1.7c0-0.4,0.1-0.8,0.4-1.2c0.2-0.4,0.6-0.7,1.1-0.9c0.5-0.2,1-0.3,1.7-0.3c1.1,0,1.9,0.2,2.4,0.7
		c0.5,0.5,0.8,1.1,0.9,1.9l-1.7,0.1c-0.1-0.4-0.2-0.8-0.5-1c-0.2-0.2-0.6-0.3-1.1-0.3c-0.5,0-0.9,0.1-1.2,0.3
		c-0.2,0.1-0.3,0.3-0.3,0.5c0,0.2,0.1,0.4,0.3,0.5c0.2,0.2,0.8,0.4,1.6,0.6c0.8,0.2,1.5,0.4,1.9,0.6c0.4,0.2,0.7,0.5,0.9,0.9
		c0.2,0.4,0.3,0.8,0.3,1.4c0,0.5-0.1,1-0.4,1.4c-0.3,0.4-0.7,0.7-1.2,1c-0.5,0.2-1.1,0.3-1.9,0.3c-1.1,0-1.9-0.3-2.5-0.8
		C50.9,86.1,50.6,85.4,50.4,84.4z"/>
</g>
</svg>
