<?xml version="1.0" encoding="utf-8"?>
<!-- Generator: Adobe Illustrator 25.0.1, SVG Export Plug-In . SVG Version: 6.00 Build 0)  -->
<svg version="1.1" id="Layer_1" xmlns="http://www.w3.org/2000/svg" xmlns:xlink="http://www.w3.org/1999/xlink" x="0px" y="0px"
	 viewBox="0 0 100 100" style="enable-background:new 0 0 100 100;" xml:space="preserve">
<style type="text/css">
	.st0{fill:#003755;}
</style>
<g>
	<path class="st0" d="M52.1,29.3c1.4-0.8,2.7-1.6,4.1-2.4c-1.1-1.9-2.1-3.8-3.3-5.5c-1.7-2.5-5.5-2.2-7.1,0.5
		c-1.7,2.9-3.4,5.9-5.1,8.8c-0.7,1.2-2,1.8-3.3,1.6c-2.2-0.4-3.3-2.7-2.3-4.6c1.7-3.1,3.5-6.3,5.4-9.4c4.2-6.8,14.1-6.6,18.2,0.2
		c0.9,1.5,1.8,3.1,2.7,4.7c0.1,0.2,0.2,0.3,0.3,0.5c1.4-0.8,2.7-1.6,4.1-2.4c0,5.3,0,10.6,0,15.8C61.3,34.5,56.8,31.9,52.1,29.3z"/>
	<path class="st0" d="M24.6,46.2c-1.4-0.8-2.8-1.6-4.3-2.5c4.6-2.7,9.2-5.3,13.9-8c0,5.4,0,10.6,0,16c-1.3-0.8-2.6-1.5-4-2.3
		c-0.1,0.1-0.2,0.2-0.3,0.4c-0.9,1.5-1.8,3-2.6,4.5c-1.7,3,0.3,6.5,3.8,6.5c3.3,0,6.6,0,9.8,0c2.5,0,4,2.6,2.7,4.7
		c-0.6,1-1.4,1.6-2.6,1.6c-3.6,0-7.2,0.1-10.8,0c-7.8-0.3-12.5-9.1-8.6-15.9c0.9-1.5,1.8-3.1,2.6-4.6C24.4,46.6,24.5,46.4,24.6,46.2
		z"/>
	<path class="st0" d="M62.3,67.2c0,1.5,0,3,0,4.6c-4.5-2.6-8.9-5.1-13.4-7.8c4.5-2.6,8.9-5.1,13.4-7.7c0,1.5,0,3,0,4.4
		c0.1,0.1,0.1,0.1,0.2,0.1c2.1,0,4.2,0.1,6.4,0c3.1-0.2,4.9-3.6,3.4-6.4c-1.6-2.9-3.3-5.7-4.9-8.6c-1.2-2-0.2-4.4,2-4.9
		c1.4-0.3,2.7,0.3,3.5,1.7c1.7,2.9,3.4,5.8,5,8.7c1.7,3.1,1.9,6.3,0.5,9.5c-1.9,4.1-5.2,6.2-9.7,6.4c-1.9,0.1-3.7,0-5.6,0
		C62.8,67.2,62.6,67.2,62.3,67.2z"/>
</g>
<g>
	<path class="st0" d="M42.8,39.7v-3H54v2.4c-0.9,0.9-1.9,2.2-2.8,3.9c-0.9,1.7-1.7,3.5-2.2,5.4c-0.5,1.9-0.7,3.6-0.7,5.1h-3.1
		c0.1-2.3,0.5-4.7,1.5-7.2c0.9-2.4,2.1-4.6,3.7-6.5H42.8z"/>
</g>
<g>
	<path class="st0" d="M29.8,81.6c0-0.9,0.1-1.6,0.4-2.1c0.2-0.4,0.4-0.8,0.8-1.1c0.3-0.3,0.7-0.6,1.1-0.8c0.5-0.2,1.1-0.3,1.8-0.3
		c1.2,0,2.2,0.4,3,1.1c0.7,0.8,1.1,1.8,1.1,3.2c0,1.4-0.4,2.4-1.1,3.2c-0.7,0.8-1.7,1.1-2.9,1.1c-1.2,0-2.2-0.4-3-1.1
		C30.2,84,29.8,83,29.8,81.6z M31.5,81.6c0,0.9,0.2,1.7,0.7,2.2c0.4,0.5,1,0.7,1.7,0.7s1.2-0.2,1.7-0.7c0.4-0.5,0.6-1.2,0.6-2.2
		c0-1-0.2-1.7-0.6-2.1c-0.4-0.5-1-0.7-1.7-0.7c-0.7,0-1.3,0.2-1.7,0.7C31.8,79.9,31.5,80.6,31.5,81.6z"/>
	<path class="st0" d="M41.1,85.8v-6.9h-2.5v-1.4h6.6v1.4h-2.5v6.9H41.1z"/>
	<path class="st0" d="M46.4,85.8v-8.4h1.7v3.3h3.3v-3.3h1.7v8.4h-1.7v-3.7h-3.3v3.7H46.4z"/>
	<path class="st0" d="M54.8,85.8v-8.4H61v1.4h-4.5v1.9h4.2v1.4h-4.2v2.3h4.7v1.4H54.8z"/>
	<path class="st0" d="M62.6,85.8v-8.4h3.6c0.9,0,1.5,0.1,1.9,0.2c0.4,0.2,0.7,0.4,1,0.8c0.2,0.4,0.4,0.8,0.4,1.3
		c0,0.6-0.2,1.1-0.6,1.6c-0.4,0.4-0.9,0.7-1.7,0.8c0.4,0.2,0.7,0.4,0.9,0.7c0.2,0.3,0.6,0.7,1,1.4l1,1.6h-2l-1.2-1.8
		c-0.4-0.7-0.7-1.1-0.9-1.2c-0.2-0.2-0.3-0.3-0.5-0.3c-0.2-0.1-0.5-0.1-0.9-0.1h-0.3v3.5H62.6z M64.3,80.9h1.2c0.8,0,1.3,0,1.5-0.1
		c0.2-0.1,0.4-0.2,0.5-0.4c0.1-0.2,0.2-0.4,0.2-0.6c0-0.3-0.1-0.5-0.2-0.7c-0.2-0.2-0.4-0.3-0.6-0.3c-0.1,0-0.5,0-1.2,0h-1.3V80.9z"
		/>
</g>
</svg>
