<?xml version="1.0" encoding="utf-8"?>
<!-- Generator: Adobe Illustrator 25.0.1, SVG Export Plug-In . SVG Version: 6.00 Build 0)  -->
<svg version="1.1" id="Layer_1" xmlns="http://www.w3.org/2000/svg" xmlns:xlink="http://www.w3.org/1999/xlink" x="0px" y="0px"
	 viewBox="0 0 300 300" style="enable-background:new 0 0 300 300;" xml:space="preserve">
<style type="text/css">
	.st0{fill:none;stroke:#003755;stroke-width:3.6236;stroke-miterlimit:10;}
</style>
<g>
	<path class="st0" d="M83.9,91h8.1v32.7l21.8,23.2v114.3c0,1-0.2,2-0.6,2.9l-0.6,1.4c-1.2,2.6-3.7,4.2-6.5,4.2H42.1
		c-1.3,0-2.5-0.4-3.4-1.2l0,0c-1.4-1.1-2.2-2.8-2.1-4.6l6-110.3c0,0-9.4,1.8-6.1-7.2c3.3-9,20.3-55.5,20.3-55.5h3.8V79h22.8L83.9,91
		z"/>
	<path class="st0" d="M42.6,153.7c0,0,25.7-16.9,53.5,0"/>
	<polyline class="st0" points="91.9,105.2 137.8,105.2 153.1,122.5 	"/>
	<path class="st0" d="M191.5,60.2v15.4c0,0-39.3,23.8-39.3,54.9s-0.1,118-0.1,118"/>
	<path class="st0" d="M162.4,102.5c0,0-24.6-24.6-19-39.9s35.7-6,34.6,23.2"/>
	<path class="st0" d="M152.2,154.4c0,0,40.4,15.1,108.6,1.9"/>
	<path class="st0" d="M152.2,232.6c0,0,54.5,23.3,108.4,0"/>
	<path class="st0" d="M37.5,248.5c0,0,32.4,9.3,75.8,0h38.9c0,0,1.4,15.2,52.7,14.3c51.2-0.9,55.8-17.6,55.8-17.6s0.7-85.4,0-125.2
		s-38.2-44.4-38.2-44.4V60.2h-30.8l-7.6-15.7h-45.1l-13.3,16.1H72.9v18.2"/>
	<line class="st0" x1="113.7" y1="222.1" x2="152.2" y2="222.1"/>
	<line class="st0" x1="191.5" y1="75.6" x2="222.4" y2="75.6"/>
	<path class="st0" d="M222.4,122.5c0,0-2.8-28.6,5.3-29.3c8.2-0.7,13,1.5,17.1,24.2c4.6,26-3.1,25.2-12.5,23.8
		C222.4,139.8,222.4,122.5,222.4,122.5z"/>
	<line class="st0" x1="60.6" y1="91" x2="83.9" y2="91"/>
	<polyline class="st0" points="77.5,60.7 77.5,44.5 122.5,44.5 122.5,60.2 	"/>
	<line class="st0" x1="89.4" y1="44.5" x2="89.4" y2="60.7"/>
	<line class="st0" x1="100" y1="44.5" x2="100" y2="60.7"/>
	<line class="st0" x1="110.7" y1="44.5" x2="110.7" y2="60.7"/>
</g>
</svg>
