<?xml version="1.0" encoding="utf-8"?>
<!-- Generator: Adobe Illustrator 25.0.1, SVG Export Plug-In . SVG Version: 6.00 Build 0)  -->
<svg version="1.1" id="Layer_1" xmlns="http://www.w3.org/2000/svg" xmlns:xlink="http://www.w3.org/1999/xlink" x="0px" y="0px"
	 viewBox="0 0 300 300" style="enable-background:new 0 0 300 300;" xml:space="preserve">
<style type="text/css">
	.st0{fill:none;stroke:#003755;stroke-width:3.6236;stroke-miterlimit:10;}
</style>
<g>
	<path class="st0" d="M39.5,208.1h19.4c0,0,6.6-15.9,26.9-15.1s134.9,17.8,144.8,19.9c9.9,2.1,21.5,12,14.9,21.9
		c0,0,18.2,13.7-2.9,22.8c0,0,5.4,14.5-17.4,15.7S96.1,261.6,85.4,260S55.6,239.7,56,231l-19.9-1.7c0,0-4-3.1-3.1-11.9
		S39.5,208.1,39.5,208.1z"/>
	<path class="st0" d="M36.1,229.4c0,0,13.5-5.8,3.4-21.3"/>
	<path class="st0" d="M113.2,195.8c0,0,23.1,40.5-9.8,66.5"/>
	<path class="st0" d="M214.4,210.2c0,0,21.2,30.4-5.1,62.7"/>
	<path class="st0" d="M78.3,192.9v-75.2c0,0,5.3-12.6,28.7-12.6s25.5,17.4,25.5,17.4"/>
	<path class="st0" d="M116.9,195.8v-28.4c0,0-0.6-16.4,14.9-19.3l1.2-48c0,0,0.6-7.3,14-8.8c13.5-1.5,14.6,9.1,14.6,9.1l1.2,48.6
		c0,0,13.7,6.7,13.5,24s-3.6,31-3.6,31"/>
	<path class="st0" d="M133,100.2c0,0,13.8,10.5,28.7,0.3"/>
	<path class="st0" d="M78.3,127.1c0,0,20.7,15.7,53.5,0"/>
	<path class="st0" d="M78.3,134.9c0,0,23.3,19.1,53.5,0"/>
	<path class="st0" d="M116.9,180.3c0,0-30.1-4.7-31.2,12.6"/>
	<path class="st0" d="M161.9,108.3c0,0,3.7-9.2,8.6-12.6l5.8-62.9c0,0,2.8-5.5,13.9-5.2c11.1,0.3,11.7,6.5,11.7,6.5v62.2
		c0,0,8,6.3,7.4,34.3s-2.5,78.4-2.5,78.4"/>
	<path class="st0" d="M175.8,38.7c0,0,12.3,6.2,26.2,0"/>
	<line class="st0" x1="174.6" y1="51.6" x2="183.7" y2="51.6"/>
	<line class="st0" x1="192.8" y1="51.6" x2="202" y2="51.6"/>
</g>
</svg>
