<?xml version="1.0" encoding="utf-8"?>
<!-- Generator: Adobe Illustrator 25.0.1, SVG Export Plug-In . SVG Version: 6.00 Build 0)  -->
<svg version="1.1" id="Layer_1" xmlns="http://www.w3.org/2000/svg" xmlns:xlink="http://www.w3.org/1999/xlink" x="0px" y="0px"
	 viewBox="0 0 300 300" style="enable-background:new 0 0 300 300;" xml:space="preserve">
<style type="text/css">
	.st0{fill:none;stroke:#003755;stroke-width:3.6236;stroke-miterlimit:10;}
</style>
<g>
	<polygon class="st0" points="31.7,137.3 152.3,137.3 152.3,245.6 123.9,259.4 31.7,226.7 	"/>
	<line class="st0" x1="123.9" y1="259.4" x2="123.9" y2="137.3"/>
	<polygon class="st0" points="42.3,151.7 111.1,154.7 111.1,235.8 44,215.7 	"/>
	<polyline class="st0" points="152.3,141.4 184.4,162.3 184.4,228.1 152.3,240.7 	"/>
	<path class="st0" d="M145.8,137.3l-1.3-74.5c0-1.7,0.2-3.4,0.6-5.1v0c2-8.7,9-15.5,17.8-17.1l43.3-7.7l46,20c0,0,12.1-2.6,12.9,5.5
		c0.8,8,0,124.2,0,124.2l-34,44.5h-11.6l-1.7-140.5c0,0-0.6-5.8,4.7-10.2C227.7,72,252.1,53,252.1,53"/>
	<path class="st0" d="M262.5,54.1c0,0-35.7,24.9-35.7,32.6c0,21.7,4.1,140.4,4.1,140.4"/>
	<path class="st0" d="M231.9,130.1c0,0,4.7-2.8,5.1,5.4s0.8,20.2-4,15.3"/>
	<path class="st0" d="M251,52.5c0,0-43.7,6.8-61.8,10.3s-12.9,28.4-12.6,48.5s2.2,47.3,2.2,47.3"/>
	<path class="st0" d="M232.8,68.1c0,0-20.1,2.3-33.4,4.7c-13.3,2.4-12.4,12.6-11.7,38.1s0,84.4,0,84.4l18.8-4.3
		c0,0-0.1-17.9,12.2-21"/>
	<path class="st0" d="M184.4,210l23.9-10.2c0,0,3.7,6.2,10.8,2.7"/>
	<line class="st0" x1="206.4" y1="191.1" x2="218" y2="188.9"/>
	<line class="st0" x1="187.9" y1="163.6" x2="218.5" y2="154.1"/>
	<path class="st0" d="M154.3,239.9c0,0-2.8,9.5,10.5,11.2s17.9-11.9,30.6-5.6c12.6,6.3,7.8,10.7,22.6,9.2"/>
	<path class="st0" d="M217.8,94.7c0,0-12.6,2.2-12.9,13.5c-0.2,11.3,7.7,14.6,13.1,14.6"/>
	<line class="st0" x1="187.9" y1="129.6" x2="212.2" y2="121.6"/>
	<line class="st0" x1="204.9" y1="108.2" x2="217.9" y2="108.2"/>
</g>
</svg>
