<?xml version="1.0" encoding="utf-8"?>
<!-- Generator: Adobe Illustrator 25.0.1, SVG Export Plug-In . SVG Version: 6.00 Build 0)  -->
<svg version="1.1" id="Layer_1" xmlns="http://www.w3.org/2000/svg" xmlns:xlink="http://www.w3.org/1999/xlink" x="0px" y="0px"
	 viewBox="0 0 300 300" style="enable-background:new 0 0 300 300;" xml:space="preserve">
<style type="text/css">
	.st0{fill:none;stroke:#003755;stroke-width:3.6236;stroke-miterlimit:10;}
</style>
<g>
	<path class="st0" d="M106.2,85.9c0,0-3.9-5.4-6-5.4V69.6H76v11.5c0,0-21.4,12.7-21.1,24.4s10.2,18.4,11.2,24.7s-6,82.1,1.2,97.4
		s14.5,12.6,38.9,13.2"/>
	<path class="st0" d="M167.1,233.6c32.2,10.7,53.6-2.5,53.6-2.5s1.8-96.4,3.3-104.3s6.9-19.3,2.4-26.5c-4.5-7.2-31.6-49.7-31.6-49.7
		V19h-22.6c0,0,1.8,27.1,0,32.2s-18.1,20.5-19.9,24.1s-3.6,19.6-1.2,26.2c2.4,6.6,18.1,20.5,18.1,28c0,5.3-1.3,69.9-2.1,107.9
		c-0.3,16.1-0.6,27.4-0.6,27.4s-9,7.5-29.8,8.4s-30.4-9.6-30.4-9.6s-2.1-125.1-3-160.3s33.5-52.1,33.5-52.1l21.6,17"/>
	<path class="st0" d="M206.9,142.6c0,0-3.5-9.5,1.7-21s6.5-21-3.1-18.7c-9.7,2.3-16.7,43.8-9,52.3
		C202.5,161.9,211.4,155.2,206.9,142.6z"/>
	<path class="st0" d="M150.2,97.3c0,0,6.2-5.9,59.6-2.1"/>
	<polyline class="st0" points="143.4,56.6 147.5,54.1 147.5,48 153.5,48 153.5,54.5 149.4,55.1 148.5,60.6 	"/>
	<path class="st0" d="M103.1,103.4c0,0,21.2-27.8,65.4,23.5"/>
	<path class="st0" d="M104.1,149.2c0,0,27,8,64.7,0"/>
	<path class="st0" d="M106.2,245.9c0,0,26.9,13.2,60.7,0"/>
</g>
</svg>
