<?xml version="1.0" encoding="utf-8"?>
<!-- Generator: Adobe Illustrator 25.0.1, SVG Export Plug-In . SVG Version: 6.00 Build 0)  -->
<svg version="1.1" id="Layer_1" xmlns="http://www.w3.org/2000/svg" xmlns:xlink="http://www.w3.org/1999/xlink" x="0px" y="0px"
	 viewBox="0 0 300 300" style="enable-background:new 0 0 300 300;" xml:space="preserve">
<style type="text/css">
	.st0{fill:none;stroke:#003755;stroke-width:3.6236;stroke-miterlimit:10;}
</style>
<g>
	<path class="st0" d="M103.5,41.9l2.7-16.7l99,8.3l-4.8,22h22.1l-19.9,20.2l-1.6,40.9L233.2,95c0,0,8.4-5.6,13.9,1.7
		c5.5,7.3,0,15.6,0,15.6l-168,128.1c0,0-15-3.2-12.6-20.9l30.8-25.7l-15.4-1.6V57.7L70.8,37.6L103.5,41.9z"/>
	<polyline class="st0" points="103.5,41.9 169.2,53.8 200.3,55.7 176.3,75.1 	"/>
	<polyline class="st0" points="81.9,57.7 176.3,75.1 202.5,75.8 	"/>
	<line class="st0" x1="97.3" y1="193.7" x2="200.9" y2="116.7"/>
	<polyline class="st0" points="169.2,53.8 176.3,75.1 176.3,135 	"/>
	<path class="st0" d="M81.9,206.6l15.4,19.9c0,0,17.8,9.7,15.9,54.8l139.2-113.1c0,0,9.3-6.4,2.6-23.8
		c-6.8-17.4-15.4-26.3-15.4-26.3"/>
	<path class="st0" d="M70.9,215.7c0,0,6.2,17.5,14.4,19.9"/>
</g>
</svg>
