<?xml version="1.0" encoding="utf-8"?>
<!-- Generator: Adobe Illustrator 25.0.1, SVG Export Plug-In . SVG Version: 6.00 Build 0)  -->
<svg version="1.1" id="Layer_1" xmlns="http://www.w3.org/2000/svg" xmlns:xlink="http://www.w3.org/1999/xlink" x="0px" y="0px"
	 viewBox="0 0 300 300" style="enable-background:new 0 0 300 300;" xml:space="preserve">
<style type="text/css">
	.st0{fill:none;stroke:#003755;stroke-width:3.6236;stroke-miterlimit:10;}
</style>
<g>
	<polygon class="st0" points="57,174.2 219.5,113.4 265.3,185.7 265.3,201 101,272.6 	"/>
	<line class="st0" x1="67.4" y1="197.4" x2="230.9" y2="131.3"/>
	<line class="st0" x1="87.5" y1="242.4" x2="256.8" y2="172.3"/>
	<line class="st0" x1="265.3" y1="185.7" x2="94.6" y2="258.3"/>
	<line class="st0" x1="114.5" y1="178.4" x2="135.5" y2="222"/>
	<line class="st0" x1="190.6" y1="148.4" x2="213.5" y2="190.3"/>
	<path class="st0" d="M205.5,141.6c0,0,35.3-1.3,33.6,38.1"/>
	<path class="st0" d="M90.5,188c0,0-11.6,37.3,22.5,43.8"/>
	<path class="st0" d="M122.1,194.1c0,0-8.2,3.3-6.3,9.4c1.9,6,11.6,3.9,11.6,3.9"/>
	<path class="st0" d="M199.3,164.4c0,0,6.9-4.6,9.5,0c4.6,8-3.3,10.3-3.3,10.3"/>
	<path class="st0" d="M122,149.9c-14.2-10-23.5-26.5-23.5-45.2c0-30.4,24.7-55.1,55.1-55.1s55.1,24.7,55.1,55.1
		c0,4.6-0.6,9.1-1.6,13.4"/>
	<circle class="st0" cx="153.2" cy="104.2" r="21"/>
	<path class="st0" d="M107.1,134.3c-16.7,4.8-35.4,1.6-49.9-10.2c-23.6-19.2-27.2-53.9-8-77.5s53.9-27.2,77.5-8
		c3.6,2.9,9.2,9.5,11.9,13"/>
	<path class="st0" d="M98.6,101c-6.7,2.5-14.5,1.4-20.5-3.4c-9-7.3-10.4-20.5-3-29.5c7.3-9,20.5-10.4,29.5-3
		c2.2,1.8,3.9,3.9,5.2,6.2"/>
	<circle class="st0" cx="152.8" cy="103.8" r="7"/>
	<circle class="st0" cx="90.7" cy="81.4" r="7"/>
</g>
</svg>
