<?xml version="1.0" encoding="utf-8"?>
<!-- Generator: Adobe Illustrator 25.0.1, SVG Export Plug-In . SVG Version: 6.00 Build 0)  -->
<svg version="1.1" id="Layer_1" xmlns="http://www.w3.org/2000/svg" xmlns:xlink="http://www.w3.org/1999/xlink" x="0px" y="0px"
	 viewBox="0 0 300 300" style="enable-background:new 0 0 300 300;" xml:space="preserve">
<style type="text/css">
	.st0{fill:none;stroke:#003755;stroke-width:3.6236;stroke-miterlimit:10;}
</style>
<g>
	<path class="st0" d="M55,60.3c0,0-9.5-15.1-3-20s16.4,10,16.4,10s16.4,1.5,19.4,13.6c3,12.1-13.8,21.7-21,19.4
		C59.6,81,54.3,75.1,55,60.3z"/>
	<path class="st0" d="M58.3,77.1c0,0-19.1,27.2-6.6,41.7s62.1-3.3,73.5-35.1S86.9,61.5,86.9,61.5"/>
	<path class="st0" d="M47.4,106.9c0,0-6.5,12.5,0,23s59.7,93.6,73.5,112.9s30.9,34.9,60.1,16.4s34.5-41.4,27.9-54.5
		S138.4,76.4,134.7,71.2c-3.6-5.3-11.3-5.1-11.3-5.1"/>
	<path class="st0" d="M51.9,136.9c0,0,29.4,8,60.9-12.8s24.8-48.3,24.8-48.3"/>
	<path class="st0" d="M44.5,121.7c0,0,22.2,19.4,57.4-2.3s28.7-51.8,28.7-51.8"/>
	<path class="st0" d="M152.5,102c0-30.8,25-54.7,55.8-54.7s55.8,25,55.8,55.8s-25,55.8-55.8,55.8c-10.5,0-20.3-2.9-28.7-7.9"/>
	<circle class="st0" cx="207.6" cy="102" r="21.3"/>
	<path class="st0" d="M95,60.4c7.8-20,26.9-34.5,49.7-35.5c20-0.8,37.9,9,48.4,24.4"/>
	<path class="st0" d="M129.9,66c3.9-4.7,9.8-7.8,16.5-7.8c7.4,0,13.9,3.7,17.7,9.4"/>
	<circle class="st0" cx="207.3" cy="102.5" r="7.2"/>
	<circle class="st0" cx="147" cy="77.8" r="7.2"/>
</g>
</svg>
