<?xml version="1.0" encoding="utf-8"?>
<!-- Generator: Adobe Illustrator 25.0.1, SVG Export Plug-In . SVG Version: 6.00 Build 0)  -->
<svg version="1.1" id="Layer_1" xmlns="http://www.w3.org/2000/svg" xmlns:xlink="http://www.w3.org/1999/xlink" x="0px" y="0px"
	 viewBox="0 0 349.7 333.5" style="enable-background:new 0 0 349.7 333.5;" xml:space="preserve">
<style type="text/css">
	.st0{fill-rule:evenodd;clip-rule:evenodd;fill:#3B5E00;}
	.st1{fill-rule:evenodd;clip-rule:evenodd;fill:url(#SVGID_1_);}
	.st2{opacity:0.7;}
	.st3{fill-rule:evenodd;clip-rule:evenodd;fill:#A1D800;}
	.st4{opacity:0.76;}
	.st5{fill-rule:evenodd;clip-rule:evenodd;fill:#FFEC72;}
	.st6{fill-rule:evenodd;clip-rule:evenodd;fill:#DEDDFA;}
	.st7{fill-rule:evenodd;clip-rule:evenodd;fill:#C2D200;}
	.st8{fill-rule:evenodd;clip-rule:evenodd;fill:#FFFFFF;}
	.st9{fill-rule:evenodd;clip-rule:evenodd;fill:url(#SVGID_2_);}
	.st10{fill-rule:evenodd;clip-rule:evenodd;fill:url(#SVGID_3_);}
	.st11{fill:#408B00;}
	.st12{opacity:0.2;fill-rule:evenodd;clip-rule:evenodd;fill:#3B5E00;enable-background:new    ;}
	.st13{fill-rule:evenodd;clip-rule:evenodd;fill:#E6E763;}
	.st14{opacity:0.29;fill-rule:evenodd;clip-rule:evenodd;fill:#3B5E00;enable-background:new    ;}
	.st15{fill-rule:evenodd;clip-rule:evenodd;fill:url(#SVGID_4_);}
	.st16{display:none;}
	.st17{display:inline;}
	.st18{fill-rule:evenodd;clip-rule:evenodd;fill:url(#SVGID_5_);}
	.st19{fill:url(#SVGID_6_);}
	.st20{opacity:0.52;fill-rule:evenodd;clip-rule:evenodd;fill:#FFFFFF;enable-background:new    ;}
	.st21{fill-rule:evenodd;clip-rule:evenodd;fill:url(#SVGID_7_);}
	.st22{fill:url(#SVGID_8_);}
	.st23{fill-rule:evenodd;clip-rule:evenodd;fill:url(#SVGID_9_);}
	.st24{fill:url(#SVGID_10_);}
	.st25{fill-rule:evenodd;clip-rule:evenodd;fill:url(#SVGID_11_);}
	.st26{fill:url(#SVGID_12_);}
	.st27{fill-rule:evenodd;clip-rule:evenodd;fill:url(#SVGID_13_);}
	.st28{fill:url(#SVGID_14_);}
	.st29{fill-rule:evenodd;clip-rule:evenodd;fill:url(#SVGID_15_);}
	.st30{fill:url(#SVGID_16_);}
	.st31{fill-rule:evenodd;clip-rule:evenodd;fill:url(#SVGID_17_);}
	.st32{fill:url(#SVGID_18_);}
	.st33{fill-rule:evenodd;clip-rule:evenodd;fill:url(#SVGID_19_);}
	.st34{fill:url(#SVGID_20_);}
	.st35{fill-rule:evenodd;clip-rule:evenodd;fill:url(#SVGID_21_);}
	.st36{fill:url(#SVGID_22_);}
</style>
<g id="earth">
	<path class="st0" d="M75.5,213.6c0,0,32.3,18.6,80.1,24.7c47.8,6.2,100,5.2,110.8,17.2s-11.2,40.2-11.2,40.2
		S109.7,255.8,75.5,213.6z"/>
	<g>
		<g>
			
				<radialGradient id="SVGID_1_" cx="131.4783" cy="571.5833" r="157.2964" gradientTransform="matrix(1 0 0 0.9638 0 -394.4895)" gradientUnits="userSpaceOnUse">
				<stop  offset="0" style="stop-color:#E7F7F7"/>
				<stop  offset="0.832" style="stop-color:#099DA8"/>
				<stop  offset="0.9749" style="stop-color:#10B5C9"/>
			</radialGradient>
			<path class="st1" d="M270.6,197c0,10.4-1.6,20.4-4.7,29.7c-12.5,38.5-48.7,66.3-91.4,66.3c-53.1,0-96.1-43-96.1-96.1
				c0-20.3,6.3-39.2,17.1-54.7c17.4-25,46.3-41.3,79-41.3c18.6,0,36,5.3,50.7,14.4c10.4,6.5,19.4,14.8,26.7,24.6
				C263.7,155.9,270.6,175.6,270.6,197z"/>
			<g class="st2">
				<path class="st3" d="M225.2,115.3c0,0.2-0.1,0.3-0.4,0.6c-0.4,0.4-0.9,0.6-1.3,1c-0.8,0.9-0.5,2.1-2,1.9c-0.6-0.1-1-0.4-1.6-0.6
					c-0.6-0.1-0.9,0.2-1.3,0.6c-0.8,0.7-1.7,1.7-2.1,2.6c-0.2,0.5-0.3,1.1-0.7,1.5c-0.7,0.8-1.8,1-2.7,1.6c-0.6,0.3-1.1,0.9-1.1,1.5
					c0,0.3,0.1,0.5,0,0.8c-0.1,0.5-0.3,0.9-0.3,1.4c0.1,1.4,1,3.6-0.4,4.6c-1.2,0.9-3,1.1-4.4,1.5c-1,0.2-2.1,0.7-3,1.1
					c-1,0.4-2.2,1.3-3.4,1.2c-0.9-0.1-1.4-0.8-1.9-1.4c0.1-0.3,0.4-0.5,0.7-0.7c-0.3-0.3-1.1-0.7-1.5-0.8c-0.8-0.1-2,0-2.6,0.3
					c-0.7,0.3-1.3,0.7-1.9,1.1c-0.4,0.2-1,0.3-1.4,0.5c-0.5,0.3-0.4,0.6-0.8,1c-0.3,0.4-0.7,0.6-0.9,1.1c-0.2,0.4-0.4,0.7-0.7,1
					c-0.1,0.1-0.4,0.4-0.5,0.5c-0.3,0.2-0.7,0.2-0.8,0.6c-0.3,0.9,0.3,1.3,1.1,1.1c0.8-0.1,1.8-1,2.7-0.6c0.7,0.3-0.2,1.2-0.4,1.6
					c-0.3,0.7-0.1,1.4-0.4,1.9c-0.4,0.7-1.1,1.1-1.4,1.9c-0.4,0.8-0.7,1.8-1,2.6c-0.3,0.7-0.5,1.4-1.2,1.8c-0.9,0.5-1.8,0.3-2.6,0.1
					c-1-0.2-1.9-0.3-2.9-0.3c-0.7,0-1.5-0.1-2.2,0c0,0.7-0.6,1.3-1.3,1.6c-1.1,0.5-2.3,0.6-3.4,1.3c-1.4,0.9-2.7,2-3.9,3.3
					c-1.1,1.2-2.8,2-4.5,1.6c-1.4-0.3-2.6-0.6-4-0.6c-1.7,0-3.3,0.9-4.9,1.4c-1.1,0.4-2.2,1.6-3,2.5c-0.7,0.8-1.8,2-2.8,2
					s-1.7,0.8-1.8,1.8c0,0.5,0.1,1,0,1.5c-0.3,1.1-1.4,1.9-1.9,2.9c-0.9,2,0,3.9,0.6,5.9c0.5,1.7,1.1,2.3,2.7,3.1
					c1.2,0.6,2.2,1.3,3,2.4c1,1.4,1.5,3.6,3.2,4.5c1.3,0.6,2.1,1.1,3.5,1.1c1,0,1.8,0.1,2.6-0.7c0.4-0.4,0.3-0.7,0.5-1.1
					c0.3-0.6,1.1-1,1.6-1.4c0.6-0.4,1.4-0.7,2-1.2c0.4-0.3,0.6-0.7,0.8-1.1c0.8-1.4,1.6-2.6,3.2-3.1c0.6-0.2,1-0.3,1.6-0.1
					s0.5,0.1,0.5,0.7c0,0.9,0.1,2,0,2.9c-0.1,0.4-0.2,1.1-0.5,1.3c-0.4,0.3-1.4,0.5-1.8,0.7c-1,0.3-3,0.8-2.6,2.2
					c0.2,1,0.8,2,1.9,2.2c1.5,0.3,2.8-1.2,4.4-1.1c1.5,0.1,1.2,1,1.3,2.2c0.2,2.5,1.9,4.3,2.7,6.5c0.3,0.7,0.8,1.8,0.5,2.6
					c-0.1,0.5-0.8,1.2-1.1,1.6c-0.7,1-1.6,2.1-2.7,2.7c-0.7,0.4-2.2,0.6-3,0.3c-0.9-0.3-1.7-1-2.4-1.7c-0.7-0.6-1.6-1-2.4-1.4
					s-1.3-0.2-2.1,0c-1.1,0.3-2.3,0.4-3.4,0.1c-1.2-0.3-1.7-1-2.6-1.9c-0.9-1-1.8-1.9-2.7-3c-0.7-0.9-1.5-2-2-3
					c-0.5-1.1-0.5-2.5-1.1-3.6c-0.7-1.2-2.5-0.1-3.5,0.3c-2.8,1.2-5.8,2.1-8.9,1.5c-1.4-0.3-2.1-1-3.3-1.6c-0.6-0.3-1.1-0.3-1.7-0.4
					c-1-0.2-1.9-0.6-3-0.9c-0.6-0.2-1.2-0.3-1.8-0.5c-0.8-0.3-1.5-0.8-2.2-1.3c-1.6-1.1-3.3-1.3-5.2-1.8c-1.9-0.6-3.6-2.2-5.1-3.4
					c-1.7-1.4-2.9-3-3.8-5c-0.5-1.1-0.7-2.3-1.3-3.4c-0.3-0.5-0.6-0.9-1-1.4c-0.7-1-1.2-1.9-1.9-2.9c-1-1.5-2.1-3-2.8-4.6
					c-0.9-1.9-1.2-3.7-1.5-5.7c-0.2-1.6-0.6-3.1-0.7-4.8c-0.1-1.4-0.7-3.8-2.4-4.4c-0.8,0.6-0.3,2.5-0.3,3.4c0,0.8-0.4,1.5-0.5,2.3
					c-0.2,1.2,0.3,2.3,0.8,3.3c0.4,0.9,0.9,1.8,1.2,2.7c0.3,0.9,0.1,1.7-0.3,2.6c-0.6,1.6-1.6,3.2-0.4,4.9c1,1.3,2.6,1.5,3.8,2.7
					c0.3,0.3,1,0.9,1,1.4c0,0.1-0.2,0.4-0.3,0.5c-0.2,0.4-0.2,0.7-0.2,1.1c0.2,1.5,1.4,2.7,1.4,4.3c0,1.9-4.8,0.1-5.7-0.3
					c-1.3-0.7-2.1-1.2-3.7-1.2c-1,0-2,0.3-2.9,0.5c-0.5,0.1-1.3,0.5-1.8,0.6c-0.7,0.1-1-0.3-1.4-0.9c-1-1.5-1.1-3-0.9-4.7
					c0.4-2.7,1.5-4.8,2.9-7.1c0.5-0.9,1-1.9,1.1-3c0.1-1.3-0.2-2.7-0.4-4c-0.2-1.3-0.2-2.6-0.2-3.9c0-1.4,0.5-2.5,1.1-3.7
					c0.5-1.2,1.3-2.5,0.6-3.7c-0.8-1.4-2.3-2.2-3.6-3.2c-0.1-0.1-0.2-0.2-0.4-0.3c17.4-25,46.3-41.3,79-41.3
					C193.2,100.9,210.5,106.2,225.2,115.3z"/>
				<path class="st3" d="M178.4,172.7c1-1,2.3-2.4,3.9-2.4c1.2-0.1,2.1,0.3,3.1,0.8c0.9,0.4,2,0.5,3,0.6c1.5,0.1,3.1,1.1,4,2.3
					c1,1.4,1.4,2,0.8,3.4c-0.4,0.9-0.3,1.7,0.3,2.5c0.7,0.9,1.6,1.6,2,2.6c0.2,0.6,0.4,1.7,0,2.2c-0.5,0.8-1.7,1.2-2.5,1.5
					c-1,0.4-1.8,0.7-2.9,0.5c-1.2-0.2-2.7-1-3.7-1.9c-0.7-0.7-1.8-1.5-2.2-2.3c-0.6-1-0.4-2.1-1.2-3.1s-2.1-1-3.2-1.6
					s-2.2-1.6-2.4-2.8C177.3,174.5,177.1,171.7,178.4,172.7z"/>
				<path class="st3" d="M194,167c-0.4,0.3-1.3,0.7-1.1,1.4c0.1,0.5,0.7,0.5,1.1,0.5c0.7,0,2.2,0.1,2.6-0.6c0.5-0.9-0.5-1.3-1-1.6
					c-0.8-0.4-1.3-0.4-1.9,0.3L194,167L194,167z"/>
				<path class="st3" d="M270.6,197c0,10.4-1.6,20.4-4.7,29.7c-0.6,0.3-1.2,0.1-1.5-0.7c-0.4-1.1-0.5-2.3-0.7-3.4
					c-0.3-1.4-0.6-2.7-1.1-4.1c-0.7-1.8-1.1-3.4-1.4-5.2c-0.2-1.5-0.1-3-0.1-4.6c0-2.4,0.2-4.7-0.5-6.9c-0.4-1.2-1.3-2.4-2.1-3.4
					s-1.3-2-2-3c-0.6-0.9-1.5-2.1-1.2-3.3c0.2-1.2,1.2-1.9,1.7-2.9c0.4-0.9,0.5-2,0.2-3c-0.2-0.8-0.7-1.4-0.9-2.2
					c-0.1-0.5-0.1-1.3,0-1.7c0.1-0.6,0.4-0.8-0.2-1.2c-1.1-0.8-2.1,0.4-3,0.9c-0.4,0.2-0.9,0.6-1.3,0.6c-0.6,0.1-0.6-0.6-0.9-1.1
					c-0.4-0.8-1-1.5-1.5-2.3s-1.2-1.1-1.9-1.7c-0.8-0.7-1.6-1-1.8-2.2c-0.2-0.8-0.2-1.9,0.3-2.5c1.6-2.5,3.4-5.1,3.9-8.1
					c0.3-1.6,0.5-3.2,0.3-4.9c-0.2-1.3-0.3-2.7-0.8-3.9c-1.1-2.6-2.6-5.4-1.8-8.2c0.4-1.4,1.2-2.5,1.9-3.9c0.7-1.3,1.7-2.5,2.4-3.9
					C263.7,155.9,270.6,175.6,270.6,197z"/>
				<path class="st3" d="M183.5,199.9c-0.8,0.9-2.2,2-2.4,3.2c-0.3,1.2,0.4,2.4,0.8,3.6c0.6,1.9-0.5,4.1,0.6,5.9
					c0.7,1,1.4,1.9,2,2.9s0.9,2.1,1,3.3c0.1,1.7-0.5,3.3-0.3,4.9c0.2,1.8,0.8,3.6,1.3,5.3c0.3,1,0.6,2.1,1.1,3.1
					c0.4,0.7,0.9,1.5,1.3,2.2c1,1.5,2.4,3.1,3.8,4.2c1.3,1.1,2.9,2.1,4.5,2.5c0.7,0.2,1.5,0.2,2.2,0.6c0.6,0.2,0.9,0.6,1.4,1
					c0.9,0.7,2,1.1,2.8,2c0.6,0.7,0.7,1.7,1,2.5c0.4,1,1.3,1.8,1.5,2.8c0.1,0.3,0.3,0.7,0.3,0.9c0,0.3-0.2,0.7-0.3,1
					c-0.7,2.4,1.6,3.8,2.4,5.8c0.4,1-0.1,1.7-0.3,2.7c-0.1,0.5,0,0.9,0,1.4c-0.1,0.7-0.3,1.3-0.3,2.1c0,0.8,0.2,1.7,0.4,2.4
					c0.2,0.8,0.2,1.8,0.4,2.6c0.4,2.2-1.6,3.5-1.6,5.6c0,1.1,0.1,2.3-0.1,3.4c-0.1,0.4-0.2,0.7-0.3,1.1c-0.2,0.7-0.5,0.9-1.1,1.3
					c-1,0.8-2.5,2.7-2,4c0.1,0.4,0.5,0.9,0.9,1c0.6,0.1,1.4,0,2,0c0.9,0,1.6-0.4,2.3-0.8c1-0.5,2-1,3.1-1.5s2.2-1,3.1-1.9
					c0.9-0.9,1.6-1.9,2.5-2.8c0.4-0.4,0.9-1,1.5-1.2c0.4-0.1,0.7-0.1,1.1-0.3c1.6-0.6,2.9-1.8,4.3-2.8c2-1.4,4.3-2.4,6.2-4
					c1.5-1.2,2.3-2.9,3.1-4.6s1.6-3.3,2.5-4.9c0.3-0.5,0.7-1.1,1-1.6s0.7-0.5,1.2-0.7c0.9-0.4,1.7-1,2.5-1.5
					c0.9-0.5,1.8-0.9,2.7-1.5c1.3-0.8,2.6-1.6,3.3-3c0.2-0.4,0.3-1,0.6-1.4c0.3-0.5,0.6-0.5,1.1-0.6c0.3-0.1,1-0.4,1.2-0.6
					c0.4-0.4,0.4-0.9,0.6-1.4c0.3-1.1,1.2-2.2,2.1-3c0.7-0.7,1.1-1.7,1.7-2.5c0.8-1.1,1.6-2.1,2.3-3.3c1.3-2.3,2.6-4.6,2.3-7.3
					c-0.2-1.6-0.7-2.9-1.7-4s-2.4-1.4-3.1-2.7c-0.9-1.6-1-3.5-1.7-5.2c-0.5-1.2-1.9-2-3-2.7c-0.9-0.6-2.1-0.7-3.2-0.5
					c-0.7,0.2-1.5,0.5-2.1,0s-1.1-1.2-1.7-1.6c-0.9-0.7-1.8-1.4-2.6-2.2c-0.8-0.7-1.3-1.8-2.2-2.5c-0.6-0.4-1-0.4-1.7-0.4
					c-1.1-0.1-2.5-0.6-3.4-1.1c-2.1-1-4-2.5-5.6-4.2c-1.5-1.6-2.7-3.3-4.4-4.7c-1.9-1.6-4.1-2.5-6.4-3.2c-2.5-0.9-5.1,0.4-7.6,0
					c-1.8-0.3-3.4-1.2-5.2-1.5c-2.6-0.5-5.1-0.2-7.6,0.8c-1.7,0.7-2.9,1.8-4.5,2.6c-1,0.5-2.3,1.2-3.5,1.1c-0.7,0-1.3-0.2-2-0.2
					s-1.2-0.1-1.8-0.2C183.6,199.3,181.9,199,183.5,199.9z"/>
			</g>
			<g class="st4">
				<path class="st5" d="M97.1,168.8c-0.6,0.7-1.5,1.9-1.2,2.9c0.2,0.7,0.8,1.4,1.6,1.6c0.6,0.2,1.5,0,2.1-0.2
					c0.4-0.1,0.7-0.3,1.2-0.3c0.6,0,0.7,0.2,1.1,0.5c0.2,0.1,0.3,0.1,0.5,0.2c0.2,0.2,0.3,0.4,0.6,0.6c0.5,0.3,1,0.3,1.6,0.3
					c1,0,2.2,0.4,3.2,0.2c0.6-0.1,0.8-0.7,0.7-1.3c-0.1-0.6-0.5-1-0.8-1.6c-0.2-0.4-0.4-0.8-0.7-1.2c-0.5-0.8-1.6-1.2-2.4-1.5
					c-0.9-0.3-1.5-0.5-1.5-1.5c0-0.7,0-1.5,0-2.2c0-0.5-0.1-1-0.2-1.5s0.2-0.6,0.3-0.9c0.1-0.3,0.2-0.6,0.3-0.9
					c0.2-0.4,0.4-0.7,0.4-1.1c0.1-1-0.2-2.1-0.6-3c-0.3-0.6-0.8-1.1-1-1.8s-0.2-1.4-0.2-2.2s0-1.4,0.4-2.1c0.2-0.5,0.5-1,0.5-1.6
					c0-0.4,0-1-0.1-1.4c-0.2-0.6-0.2-1.2-0.4-1.9c-0.2-1,0.2-2.2,1.2-2.6c0.4-0.2,1-0.2,1.4-0.1c0.3,0.1,0.6,0.3,0.9,0.5
					s0.6,0.3,0.8,0.6c0.7,0.9,0.7,2.2,1,3.2c0.5,1.7,1.9,2.4,3.4,3c0.8,0.3,1.5,0.8,2.3,1.1s1.7,0.6,2.4,1.1
					c0.5,0.4,0.8,0.9,0.9,1.6c0.1,0.9-0.4,1.7-0.8,2.4c-0.7,1.6-1.1,3.6-0.4,5.3c0.3,0.9,0.9,1.5,1.3,2.4s0.7,1.7,1.2,2.5
					c0.5,0.7,0.7,1.4,1.2,2.1c0.3,0.4,0.8,0.7,1.2,1c0.3,0.2,0.7,0.4,1.1,0.6c0.6,0.2,1.3,0.2,1.9,0.5c0.5,0.3,0.8,0.6,1.1,1
					c0.4,0.5,0.9,0.7,1.3,1.2c0.9,1,2.2,1.2,3.6,1.2c0.8,0,1.4-0.2,2.1-0.2s1.3-0.2,2-0.2c0.9,0,1.6,0.1,2.4,0.2
					c1.6,0.3,3.5,1.1,5.1,0.5c1.2-0.5,2.3-1.4,3-2.5c0.3-0.4,0.5-0.8,0.7-1.3c0.3-0.6,0.8-0.9,1.1-1.4s0.4-1.3,0.5-1.9
					c0.2-1,0.3-2,0.8-2.9c0.4-0.8,1.1-1.3,1.7-1.9c0.4-0.4,0.6-0.7,0.9-1.2c0.4-0.6,0.7-1.3,1.1-2c0.7-1.1,1.8-1.9,3-2.5
					c2.6-1.3,5.9-2,7.3-4.8c0.4-0.9,0.7-2,0.9-2.9c0.2-1,0.3-2.1,0.4-3.1c0-0.6,0-1.3,0-1.9c0-0.6,0.1-1.2-0.1-1.7
					c-0.2-0.6-0.8-1.3-1.2-1.7c-0.5-0.5-0.9-1-1.5-1.4c-0.4-0.3-0.9-0.5-1.3-0.7c-0.5-0.2-1-0.1-1.5-0.1c-0.7,0-1.1,0.1-1.7,0.5
					c-0.4,0.3-0.8,0.8-1.3,1c-0.6,0.3-1,0.2-1.6,0c-0.7-0.2-1.5-0.4-2.3-0.5s-1.5,0.2-2.2,0.5c-0.7,0.4-0.9,0.9-0.9,1.7s0,1.6,0,2.4
					c0,0.9,0.4,1.9,0.7,2.8c0.2,0.6,0.4,1.1,0.7,1.7c0.2,0.4,0.3,0.8,0.9,0.7c0.3-0.1,0.4-0.4,0.7-0.5c0.5-0.1,0.4,0,0.7,0.3
					c0.2,0.2,0.5,0.3,0.7,0.4c0.2,0.1,0.3,0.2,0.5,0.3c0.6,0.2,1.6,0.4,2.3,0.1c0.5-0.2,0.7-0.5,0.9-0.9c0.1-0.3,0-0.7,0.1-0.9
					c0.3-0.7,1.7-0.3,2,0.2c0.4,0.6-0.4,1.7-0.6,2.3c-0.1,0.6-0.2,1.1-0.6,1.6c-0.1,0.2-0.2,0.4-0.4,0.5c-0.3,0.4-0.5,0.3-0.9,0.5
					c-1,0.5-1.8,1.3-2.7,2c-0.7,0.6-1.2,1.1-2,1.3c-0.6,0.1-1.3,0.3-2,0.4c-0.8,0.2-1.6,0.4-2.4,0.8c-0.6,0.3-1.1,0.9-1.7,1.2
					c-0.7,0.2-1.6-0.1-2.2-0.4c-0.9-0.5-1.7-1.4-2.3-2.3c-0.5-0.7-1-1.2-1.3-2c-0.1-0.4-0.4-0.9-0.5-1.3c-0.1-0.4,0-0.8,0-1.2
					c0-0.5-0.1-1.1-0.4-1.6c-0.5-0.8-1.3-1-2.1-1.3c-1.6-0.5-3.1-1.4-3.6-3.2c-0.2-1-0.2-1.8,0-2.8c0.1-0.5,0.2-1,0.4-1.5
					c0.2-0.8,0.2-1.6,0.3-2.5c0.2-1.2,0-2.5,0.1-3.7c0.2-1.4,0.7-2.8,1.6-3.8s2-1.8,2.7-3c0.6-1.2,0.6-3,0.6-4.4s-0.2-2.9-0.5-4.3
					c-0.3-1.2-0.7-2.3-1.8-2.9c-0.4-0.2-1.1-0.5-1.6-0.5c-0.6,0-1.1,0.3-1.7,0.5c-0.7,0.2-1.2,0.2-2,0.1s-1.6-0.3-2.4-0.2
					c-0.9,0.1-1.7,0.6-2.4,1c-0.5,0.3-1,0.7-1.5,1.1c-0.8,0.6-1.7,1.2-2.5,1.8c-2.1,1.6-4.8,2.5-6.6,4.5c-0.7,0.8-1.2,1.6-1.8,2.5
					c-0.8,1.3-2.2,2.1-3.4,2.9c-1.1,0.7-2.1,1.6-3.1,2.4c-1.1,0.9-2,2-3.2,2.9c-1.1,0.9-2.5,1.9-3.1,3.3c-0.2,0.4-0.1,0.8-0.2,1.2
					c-0.1,0.3-0.2,0.5-0.2,0.8c0,0.2,0.1,0.3,0.2,0.5c0.1,0.6,0.1,1.1,0.3,1.7c0.1,0.3,0.1,0.5,0.2,0.8c0.1,0.4,0.4,0.8,0.6,1.2
					c0.2,0.5,0.4,1.2,0.4,1.8c0,0.5-0.3,1.1-0.4,1.6c-0.2,0.6-0.4,1.3-0.7,1.9c-0.4,1.1-0.4,2.3-0.6,3.5c-0.2,0.9,0,1.6,0.1,2.5
					c0.1,0.6,0.1,1.2,0.2,1.8c0.1,0.5-0.3,2.4,0.6,2.3c0.4-0.1,0.3-0.5,0.7-0.4c0.4,0.1,0.4,0.6,0.3,0.9c-0.1,0.7-0.1,1.4-0.1,2.2
					c0,0.4,0,0.8-0.6,0.7c-0.4,0-0.6-0.5-1-0.4c-0.5,0.1-0.7,0.9-0.9,1.3c-0.3,0.5-0.4,1.1-0.7,1.6c-0.2,0.4-0.6,0.7-0.9,1.1
					C96.3,169.6,96.2,170.1,97.1,168.8z"/>
				<path class="st5" d="M189.7,106.1c-0.4,0.4-1.1,1.1-1.7,1.3c-0.4,0.1-0.8,0-1.2,0c-1.5,0.1-2.9,0.4-4.4,0.5
					c-2.3,0.2-8.1,1.9-5.9,5.1c0.3,0.5,0.8,1,1.2,1.4c0.6,0.5,0.6,0.8,0.6,1.6c0,1.2,0.3,2.2,0.8,3.2c-0.8,0.9-2.3,1.1-2.8,2.4
					c-0.4,1.1-0.1,2.5-0.7,3.6c-0.6,1-1.3,1.6-1,2.9c0.2,0.8,1.3,1.3,1.6,2.1c0.3,1-0.3,1.7-1,2.2c-0.9,0.6-2,1-2.9,1.6
					c-1.1,0.7-1.7,1.9-2.2,3c-0.6,1.3-1.2,2.4-1.3,3.8c-0.1,0.6-0.2,1.5,0,2.1c0.3,1,1,1.2,1.8,0.8c0.5,0.6,1,1.1,1.4,1.9
					c0.4,0.9,0.6,1.2,1.5,0.8c0.8-0.4,1.7-0.2,2.6-0.3c1.1,0,2.7-0.3,3.7-0.9c1-0.6,1.8-1.5,3-2s2.6-0.7,2.7-2.3
					c0.1-1.1-0.3-2.3,0.3-3.2c0.8-1.2,2.3-1.5,3.4-2.2c0.7-0.4,1.5-0.7,2.2-1.1c0.6-0.4,1.2-0.9,1.8-1.2c1.2-0.6,2.1-1.1,3.4-0.6
					c0.9,0.4,1.9,0.8,2.9,1c1.6,0.4,3.5-0.3,4.8-1.2c1.2-0.8,1.3-2.8,1.6-4.1c0.4-1.6,1-3.2,1.9-4.5c1.1-1.7,2.8-2.7,4.1-4.2
					c1-1.1,2.3-2.4,3-3.7c2.4-4.4-5.5-5.3-8.1-5.6c-0.8-0.1-1.6-0.1-2.3-0.3c-1.2-0.2-2.4-0.7-3.6-1.1c-2-0.6-3.9-1.6-5.9-2.3
					c-1-0.3-2.2-0.5-3.3-0.5C190.4,106.1,189.5,106.1,189.7,106.1z"/>
				<path class="st6" d="M169.2,132c-0.5,0.8-0.7,1.6-1.6,2c-0.6,0.3-0.8,0-1.4-0.1s-1.5,0-1.8-0.6c-0.2-0.4-0.1-1.6,0-2
					c0.1-0.7,1.1-3.8,2.3-2.3c0.4,0.5,0.6,1.6,0.9,2.2c0.2,0.3,0.4,0.7,0.6,1c0.2,0.2,0.4,0.3,0.5,0.6L169.2,132z"/>
				<path class="st5" d="M184.3,202.1c-0.6,0.7-1.3,1.3-1.4,2.1c-0.1,0.6-0.2,0.9-0.3,1.5c0,1.1-0.2,2.5,0.2,3.5
					c0.4,0.9,0.8,1.8,0.8,2.8c0,1.3,1.1,2,2.1,2.8c0.3,0.2,0.5,0.2,0.6,0.6c0.1,0.2,0.2,0.7,0.2,1c0.2,0.8-0.3,1.4-0.5,2.2
					c-0.1,0.7,0,1.5,0,2.3c0,0.9,0.3,1.5,0.6,2.3c0.6,1.6,0.5,3.2,0.9,4.8c0.4,1.9,1.1,3.6,2.4,5c0.7,0.9,1.6,1.5,2.6,2.1
					c0.8,0.5,1.5,0.9,1.9,1.8c0.5,0.9,0.8,1.9,1.8,2.3c1.4,0.5,3,0.7,4.3,1.6c0.7,0.5,1.5,0.8,2.1,1.4c0.4,0.4,0.8,0.7,1.3,1
					c0.7,0.5,1.3,1,1.9,1.6c0.7,0.8,1.3,1.9,1.9,2.8c0.2,0.4,0.6,0.7,0.8,1.1c0.3,0.5,0,1-0.1,1.4c-0.3,1.3,0,2.5,1,3.3
					c0.5,0.4,0.8,0.6,1.2,1.1s0.8,0.9,1.2,1.4c0.6,0.9,1.1,2,1.3,3c0.2,0.9-0.2,1.8-0.4,2.7c-0.2,0.5-0.4,1.1-0.5,1.6
					c-0.2,0.7-0.1,1.4-0.1,2.1s-0.3,1.4-0.3,2.1s0,1.4,0,2c0,1.2-0.5,2.2-1,3.2c-0.2,0.5-0.5,0.9-0.6,1.4c-0.2,0.6-0.2,1.1-0.3,1.7
					c-0.1,0.5-0.6,1.6,0.2,1.7c0.6-0.5,0.9-1.2,1.4-1.8c0.6-0.7,1.5-1.3,2.2-1.9c2-1.5,4.7-2.4,5.9-4.8c0.6-1.3,0.5-2.4,0.3-3.7
					c-0.2-1.4,1.2-2.2,2.2-2.9c1.1-0.7,2.3-1,3.4-1.5c1.6-0.7,3.6-1.7,4.7-3.1c0.6-0.7,1.1-1.9,1.2-2.8c0.1-0.6,0-0.9,0.2-1.4
					c0.2-0.4,0.4-0.8,0.6-1.2c0.4-0.6,0.7-1.1,0.8-1.8c0.1-1-0.6-2.5-1.1-3.3c-0.8-1.2-1.5-2.1-2.7-3c-1.3-1-2.2-2.7-3.9-3
					c-0.9-0.2-2.5,0-3,0.9c-0.3,0.4-0.1,0.8-0.1,1.2c-0.1,0.7-0.6,0.7-1.1,1.1c-1.1,0.9-2.8,1.8-2.9,3.4c-0.1,1.6,1.7,2.1,3,2.2
					s2.3-0.7,3.4,0.1c0.8,0.6,1.4,1.6,1.5,2.6c0,0.4,0,0.5,0.2,0.9s0.4,0.4,0.6,0.9c0.4,1.5-1.4,2.4-2.4,3s-2.2,1.6-3.4,1.1
					c-1.6-0.7-2.7-2.4-3.8-3.6c-0.7-0.8-1.7-1.3-2.4-2.1c-0.9-1-1.2-2.2-1.7-3.5c-0.4-1.1-1-2-1-3.2c-0.1-2,1.8-3.5,2.8-5.2
					c0.6-1,0.8-1.5,0.7-2.6c0-0.9-0.1-1.4-0.5-2.2c-0.2-0.3-0.7-0.9-0.8-1.2c-0.1-0.6,0.4-1,0.6-1.5c0.8-1.5,0.9-3.5,0.4-5.1
					c-0.6-1.9-1.8-2.8-3.1-4.2c-0.7-0.7-0.8-1.7-1.2-2.6c-0.6-1.3-1.7-1.9-2.7-2.9c-0.7-0.6-1.4-1.5-0.9-2.4
					c0.7-1.3,2.6-1.7,3.7-2.4c1.2-0.8,2.3-2,3.2-3.1c0.7-0.9,0.7-2.1,0.3-3.2c-0.6-1.9-2.4-3-3.6-4.3c-0.7-0.7-1.1-1.5-1.7-2.2
					c-1.1-1.4-2.7-1.3-4.3-1.6c-1.3-0.2-2.6-0.9-3.9-0.9c-0.8,0-1.5,0.6-2.2,0.9c-1.7,0.8-3.2,1.3-5.1,1.4c-2,0.2-4,0.3-6,0.6
					c-1.1,0.1-2.2,0.3-3.3,0.5C184.4,202.1,183.6,202.4,184.3,202.1z"/>
				<path class="st6" d="M221.8,205.8c-0.7,0.2-1.3,0.6-1.7,1.1c0.2,0.8,0.7,1.3,1.3,1.9c0.8,0.8,1.2,2,2.1,2.8
					c0.9,0.8,2.8,1.1,3.3-0.4c0.3-1.2-1.2-2.3-1.6-3.2c-0.3-0.7-0.4-1.1-1-1.6c-0.2-0.2-0.2-0.4-0.6-0.5c-0.5-0.1-0.6,0.2-1.1,0.2
					L221.8,205.8z"/>
				<path class="st5" d="M252.8,142c-0.8,1.4-2.1,2.4-2.7,3.9c-0.5,1.1-1.2,2.7-0.6,3.9c0.4,1,0.7,2,0.9,3.1c0.2,1,0.6,1.8,1.1,2.7
					c0.5,1.1,0.2,2.4,0.5,3.6c0.3,1.4,0.9,2.9,0.9,4.3c0,1.2-0.9,2.5-1.3,3.6c-0.2,0.5-0.4,1-0.7,1.5c-0.2,0.4-0.6,0.8-0.8,1.2
					s-0.2,0.7-0.3,1.1c-0.1,0.5-0.5,0.8-0.5,1.3s0.3,1.1,0.5,1.6c0.3,0.7,0.7,2.3,1.4,2.7c0.3,0.2,0.8,0,1.1,0
					c0.5,0.1,0.8,0.3,1.3,0.5c0.4,0.2,0.8,0.4,1.3,0.3c0.5-0.1,0.9-0.5,1.5-0.6c1.1-0.2,1.6,0.5,2.2,1.4c0.7,1,1.3,2,2,3
					c0.5,0.7,1.4,1.2,2.2,0.6c1-0.7,0.8-2.2,0.8-3.3c0-1-0.2-1.5-0.5-2.5c-0.1-0.5-0.1-0.9-0.4-1.3c-0.4-0.6-0.6-1-0.8-1.7
					c-0.1-0.5-0.3-1-0.5-1.6c-0.1-0.5-0.5-0.8,0-1.2c0.3-0.2,0.7-0.3,1-0.1c1.3,0.6,1.3,2.7,1.4,3.8c0.3,1.7,0.7,3.3,0.9,5
					c0.1,0.8,0.1,1.6,0.1,2.4c0,1.3,0.2,2.4,0.6,3.7c0.4,1.4,1,3.5,2.1,4.6c0.6,0.6,1.4,1,1.9,0c0.3-0.7,0.4-1.8,0.3-2.5
					c0-0.3-0.2-0.5-0.3-0.8c-0.1-0.4,0-1.1,0-1.5c0-0.5-0.1-0.8-0.2-1.2c-0.1-0.5,0-0.9-0.1-1.3c-0.1-0.4-0.2-0.6-0.2-1.1
					c0-0.7-0.2-1-0.3-1.6c-0.1-0.4,0-0.7,0-1.1c-0.1-0.6-0.4-1.3-0.5-2c-0.3-1.3-0.9-2.5-1.2-3.8c-0.8-2.8-2.5-5.3-3.5-8.1
					c-0.4-1.1-0.6-3.2-1.6-4c-0.8-0.7-1.9-0.1-2.6,0.5c-0.6,0.5-0.9,1.1-1.8,0.8s-1.8-1.8-2.3-2.6c-0.4-0.7-0.6-1.5-0.9-2.3
					c-0.1-0.3-0.5-1.8-0.2-2c0.8-0.7,2.3,1.8,3.2,1.2c0.4-0.3,0.3-1.3,0.3-1.8c-0.1-0.9-0.3-2.1-0.6-2.9c-0.3-0.9-0.7-1.9-1.2-2.7
					c-0.6-1.1-0.9-2.1-1.3-3.2c-0.2-0.6-0.8-1.6-1.3-2c-0.3-0.2-0.6-0.2-0.9-0.4C252.1,143,252.2,142.6,252.8,142z"/>
				<path class="st6" d="M87.3,231.4c0.4,0.7,0.7,1.2,1,1.9c0.2,0.5,0.4,1.1,0.6,1.6c0.5,1.3,1.4,2.4,2.1,3.7
					c0.7,1.2,1.5,2.5,1.9,3.9c0.2,0.9,0.4,1.7,0.9,2.5c0.2,0.4,0.6,0.7,0.8,1.1c0.3,0.5,0.2,0.9,0.6,1.4c0.2,0.3,0.6,0.5,0.8,0.8
					c0.2,0.3,0.4,0.7,0.6,1c0.5,0.7,1.1,1.5,1.8,2.1c0.5,0.5,1.1,1,1.6,1.5c0.6,0.7,1.3,1.3,1.8,2c2,2.9,4.2,6,6.6,8.6
					c1.5,1.6,3,3.4,4.7,4.9c0.8,0.7,1.7,1.5,2.6,2.1c1,0.6,1.8,1.4,2.7,2.1c0.4,0.3,0.8,0.4,1.2,0.6c0.3,0.2,0.5,0.5,0.7,0.8
					c0.7,0.6,1.5,1,2.2,1.6c1.1,0.9,2.6,1.5,3.8,2.2c1.4,0.9,2.6,2.1,4,3c1.4,0.8,2.6,1.7,4,2.4c2,1,4.1,1.5,6.3,2.2
					c2.5,0.8,5.1,1.2,7.6,1.8c1.2,0.3,2.4,0.7,3.6,0.9c1.6,0.3,3.1,0.3,4.7,0.6c1.1,0.2,2.3,0.4,3.4,0.6c1.2,0.2,2.4,0.1,3.6,0.4
					c0.9,0.2,1.8,0.3,2.8,0.4c1.4,0.2,2.8,0.7,4.2,0.8c2,0.1,4.1,0.6,6.2,0.5c2.4,0,4.8,0,7.2,0c2.1,0,4.3-0.4,6.3-0.9
					c1.2-0.3,2.5-0.6,3.7-1c0.9-0.2,1.8-0.7,2.8-0.8c2.1-0.3,4.1-0.9,6.1-1.5c1.8-0.5,3.8-1,5.5-1.9c0.3-0.2,2.5-0.8,1.5-1.3
					c-0.4-0.2-0.8,0.2-1.1,0.2c-0.8,0.2-1.8,0.3-2.7,0.3c-0.5,0-0.9,0-1.4,0c-0.6,0-0.7-0.2-1.3-0.3c-0.5-0.1-1.1,0.2-1.6,0.4
					c-0.6,0.2-1.3,0.5-2,0.6c-2.7,0.6-5.4,0.3-8.1-0.4c-1.4-0.4-2.6-1-3.9-0.2c-0.6,0.4-1.3,1-1.6,1.7c-0.3,0.8,0.1,1.7-0.9,2.2
					c-0.4,0.2-0.9,0.2-1.3,0.2c-1.3-0.1-2.6-0.5-3.9-0.6c-1.7-0.1-3-0.3-4.7,0c-1.8,0.4-3.4,0.6-5.2,0.6c-1.7-0.1-3.5-0.8-4.6-2.1
					c-0.3-0.4-1-1.4-1-2c0-0.5,0.3-0.7,0.8-1c1.2-0.7,1.9,0.3,3.1,0.5c1.1,0.2,2.4,0,3.5,0s2,0.1,3.1,0.3c0.3,0,0.5,0.2,0.8,0.3
					c0.5,0.1,1.2,0,1.6,0c1,0,1.4-0.5,1.8-1.3c0.6-1.1,2-2.1,1.2-3.4c-0.7-1.1-1.8-2.4-3-3c-0.6-0.3-1.3-0.4-2-0.7
					c-0.6-0.3-1.2-0.7-1.7-1.2c-1.3-1.1-2-2.5-2.7-4.1c-0.9-1.7-1.8-3.5-2.9-5.1s-2-3.3-3.5-4.5c-2.4-2-5.5-2.5-8.4-2.5
					c-1.6,0-3.2,0.1-4.8-0.1c-1.8-0.2-3.6-0.5-5.5-0.5c-1.6,0-2.8-0.1-4.2,0.7c-1.6,0.9-1.8,2.8-2.1,4.5c-0.7,4.2,2.4,8.3,6.3,9.6
					c0.8,0.2,1.5,0.4,2.2,0.8c1.1,0.6,1.8,1.7,2.5,2.7c1.1,1.6,2.4,3.3,4.1,4.3c1.9,1.1,4.2,0.2,6-0.8c0.4-0.2,1.6-1,1.6-1.6
					c0-0.5-0.7-0.8-0.8-1.1c-0.1-0.2,0-0.6,0-0.8c-0.1-0.5-0.2-0.9-0.5-1.3c-0.4-0.6-0.9-1-1.6-1.2c-1.1-0.4-1.9-1-3.1-0.7
					c-0.7,0.2-1.5,0.6-1.3,1.4c0.3,1,2.6,1.4,2.2,2.5c-0.2,0.5-0.9,0.7-1.3,0.9c-0.7,0.4-1.2,0.3-1.9-0.2c-1.3-0.8-2.1-2.2-3.5-2.9
					c-1.2-0.6-1.9-1.5-2.9-2.4c-0.7-0.6-1.4-0.7-2.2-1c-0.7-0.3-1.4-0.7-2-1.2c-0.7-0.6-1.5-1.5-1.8-2.4c-0.2-0.5-0.2-0.9-0.2-1.4
					s-0.3-1.1-0.3-1.7c0-1.8,1.4-2.9,3.2-3c1.2,0,2.3,0.2,3.5,0.3c1.4,0.1,2.7,0,4,0.2c1.8,0.3,3.4,0.3,4.8,1.6
					c1.3,1.2,1.8,2.9,3.2,3.9c2.3,1.7,6,2.4,6.3,5.9c0.1,1.7-0.8,3.1-1.8,4.3c-0.6,0.7-1.2,1.3-1.6,2.1c-0.6,1.3-0.7,2.9-2,3.8
					c-2.1,1.5-5,0.2-7-0.7c-1.6-0.7-3.5-0.6-4.9-1.7s-2.7-2.6-3.8-4c-1.1-1.5-2.1-3.1-3.3-4.6c-1.1-1.4-2.5-2.5-3.8-3.8
					c-1.6-1.8-2.9-4-3.9-6.1c-1.2-2.5-2.8-4.6-4.8-6.5c-1.9-1.8-4-2.7-6.1-4c-0.7-0.5-1.6-0.3-2.4-0.4c-0.7-0.1-1.3-0.5-2-0.8
					c-0.9-0.4-1.8-0.8-2.7-1.4c-0.8-0.5-2.6-1.5-2.1-2.7c0.3-0.6,0.9-0.9,1.4-1.2c0.3-0.2,0.9-0.4,1.1-0.7c1.1-2-3.2-3.1-4.3-3.4
					c-2.6-0.8-5.8-1.8-7.5-4.1c-0.5-0.6-0.8-1.2-1-1.9c-0.4-1.4-0.9-2.4-1.9-3.4c-2.8-2.6-5.7-5.1-9-7.1c-1.7-1-3.3-2-4.7-3.4
					c-0.8-0.8-1.7-2.4-2.8-2.7c-0.6,0.3-0.5,1.7-0.6,2.2c0,1.4,0.3,2.7,0.6,4c0.3,1.2,0.5,2.3,0.7,3.5
					C86.4,231.9,87.7,233.4,87.3,231.4z"/>
				<path class="st6" d="M188.4,236.2c0.9,0.7,1.4,1.7,2.1,2.7c0.3,0.4,0.7,0.8,1.2,1.1c0.2,0.2,0.4,0.4,0.7,0.5
					c0.3,0.2,0.7,0.2,1.1,0.4c0.9,0.4,1.8,0.9,2.7,1.3c0.9,0.3,1.9,0.9,2.6,1.6c0.3,0.3,0.5,0.6,0.8,0.9c0.2,0.2,0.5,0.5,0.7,0.7
					c0.6,0.7,1,1.2,1.8,1.6c0.6,0.3,1.2,0.8,1.7,1.3c0.4,0.4,0.4,1,0.4,1.5c0,0.6,0.2,1.2,0.3,1.8c0.1,0.5,0,1.1,0,1.7
					c0,1.1,0.8,2.1,1.4,2.9c0.7,0.9,0.2,1.6,0.2,2.6c0,0.5-0.1,1,0,1.4c0,0.2,0.2,0.3,0.2,0.6c0,0.3,0,0.6,0,0.8
					c-0.1,0.4-0.3,0.7-0.4,1.1c-0.1,0.6,0.1,1,0.3,1.5c0.1,0.2,0.5,0.9,0.1,1.1c-0.3,0.1-1-0.7-1.1-0.9c-0.3-0.4-0.2-0.8-0.3-1.3
					c-0.1-0.2-0.1-0.3-0.1-0.6c0-0.3,0-0.5,0.1-0.8c0.2-1,0.2-2.6-0.9-3.1c-0.3-0.1-0.5,0-0.7-0.1c-0.3-0.1-0.6-0.2-0.9-0.2
					c-0.9-0.2-2-0.3-2.9-0.8c-0.8-0.4-0.8-1.3-0.3-2c0.1-0.2,0.4-0.4,0.6-0.5c0,0,0.3,0,0.3-0.1c0.1-0.2,0-0.3-0.1-0.5
					c-0.2-0.6-0.4-1.3-0.4-1.9s0.2-0.8,0.8-0.9c0.5-0.1,1-0.2,1.2-0.7c0.2-0.4,0.2-1.1,0-1.6c-0.3-1.1-1.2-2-1.8-3
					c-0.5-0.7-1.1-1-1.8-1.5c-0.2-0.2-0.6-0.4-0.8-0.6c-0.1-0.2-0.2-0.4-0.3-0.5c-0.5-0.4-1.4-0.6-2-0.6c-0.4,0-1,0.1-1.4,0
					c-0.5-0.2-0.7-0.6-1-0.9c-0.7-0.6-2-0.3-2.3-1.4c-0.2-0.5-0.2-1.1-0.3-1.7C189.5,238.4,189.2,237.8,188.4,236.2z"/>
				<path class="st6" d="M205.4,266.9c-0.2,0.7-0.7,1.3-1,2c-0.2,0.5,0.1,0.9,0.6,0.9s0.8-0.2,0.9-0.7c0.1-0.3,0-0.7-0.1-0.9
					c-0.1-0.2-0.3-0.3-0.4-0.5V266.9z"/>
				<path class="st6" d="M178.1,211.6c-0.7-0.5-1-0.8-1.5-1.4c-0.6-0.7-1.3-1.3-1.9-2.1c-0.9-1.1-0.5-2.4,0.5-3.3
					c0.9-0.9,2.2-1,3.3-0.4c1.3,0.7,1.7,2.8,1.8,4.1c0,0.3,0.1,0.6,0,0.9c-0.1,0.3-0.3,0.5-0.5,0.7
					C179.2,210.8,178.4,210.7,178.1,211.6z"/>
				<path class="st6" d="M184.8,202.2c-1.1,0.8-2.2,2.1-2,3.6c0.1,0.6,0.4,1.1,0.5,1.7c0.1,0.5,0,1.1,0,1.7c0,0.9,0.1,1.7,0.4,2.6
					c0.2,0.4,0.3,0.7,0.6,1c0.1,0.2,0.4,0.4,0.5,0.6c0.2,0.3,0.2,0.5,0.4,0.7c0.6,0.5,1.4,0.9,1.4,1.8c0,0.7-0.1,1.4-0.2,2.1
					c-0.2,1.1-0.2,2.3-0.2,3.5c0,0.7,0.4,1.5,0.7,2.2c0.1,0.3,0.3,0.8,0.6,1c0.4-0.4,0.1-1.2,0-1.6c-0.1-0.3,0-0.6,0-0.9
					c0-0.3-0.2-0.6-0.2-0.9c0-0.4,0.5-1.2,0.8-1.4c0.2-0.2,0.5-0.3,0.8-0.4c0.4-0.1,0.9-0.3,1.4-0.4c0.7-0.1,1.2-0.2,1.6-0.8
					c0.3-0.5,0.8-1.2,0.5-1.8c-0.4-0.8-1.5-0.4-2.2-0.3c-0.7,0.1-1.6-0.4-1.9-1c-0.3-0.7-0.2-1.6-0.5-2.3c-0.3-0.8-1.3-1.4-0.8-2.3
					c0.7-1.1,1.7-0.3,2.5,0.1c0.7,0.4,1.8,0.7,2.1-0.2c0.3-0.8-0.1-1.6-0.4-2.3c-0.2-0.5-1.1-1.4-0.9-1.8c0.2-0.4,1.2-0.8,1.6-1
					c0.6-0.4,1.2-0.6,1.4-1.3c0.1-0.4,0-0.5-0.3-0.7c-0.4-0.5-0.3-0.4-0.9-0.4c-0.5,0-0.9-0.2-1.4-0.2s-1-0.1-1.5-0.2
					c-0.8-0.2-1.6-0.6-2.3-0.9c-0.3-0.1-0.6-0.3-0.9-0.1C185.9,201.6,185,202.1,184.8,202.2z"/>
				<path class="st5" d="M163.6,195.4c-0.4,0.3-0.9,0.4-0.9,0.9c0,0.2,0,0.5,0,0.7c0,0.6,0.3,1,0.8,1.3c0.7,0.3,1.4,0.1,2.1,0
					c0.8-0.1,1.6-0.1,2.4-0.2c0.6-0.1,1.2-0.3,1.9-0.3c0.6-0.1,1.1,0.3,1.5,0.7c0.3,0.3,0.5,0.7,0.8,1.1c0.3,0.4,0.6,0.7,1,1
					s0.8,0.7,1.3,0.8c0.6,0.1,0.9,0,1.4-0.4c0.4-0.3,0.9-0.6,1.2-1.1c0.2-0.3,0.5-0.8,0.7-1.1c0.4-0.6,0.7-1.4,0.7-2.1
					c0-0.6,0-1-0.2-1.5c-0.2-0.6-0.5-1.1-0.8-1.7c-0.3-0.4-0.5-0.9-0.6-1.3c-0.1-0.6-0.2-1.1-0.5-1.6c-0.3-0.6-1-1.5-1.6-0.8
					c-1.3,1.4,1.7,4.1-0.5,4.9c-0.7,0.3-1.7,0.2-2,1.1c-0.3,1,0.8,1.6,1.2,2.4c0.2,0.3,0.3,0.6-0.3,0.5c-0.3-0.1-0.7-0.5-1-0.7
					c-0.7-0.3-1.8-0.6-2-1.4c-0.2-0.8,0.3-1.9-0.7-2.2c-0.4-0.1-0.9,0.2-1.3,0.5s-0.6,0.7-1.3,0.7c-0.6,0-0.8-0.1-1.3-0.5
					c-0.2-0.2-0.5-0.3-0.7-0.5s-0.4-0.4-0.6-0.6C163.5,193.2,163.2,195,163.6,195.4z"/>
				<path class="st6" d="M152.3,190.4c-0.9,0.7-1.3,1-1.4,2.1c-0.1,0.8,0.1,1.3,0.8,1.9c0.8,0.7,2.5,0.6,2.9-0.5
					c0.3-0.9,0.5-2.1-0.3-2.8c-0.3-0.2-0.8-0.5-1.1-0.6c-0.6-0.3-1-0.1-1.6,0.2L152.3,190.4z"/>
				<path class="st6" d="M156.6,199c0.3,0.4,0.5,0.9,0.7,1.3c0.3,0.4,0.7,0.8,1,1.2c0.4,0.5,1.1,1,1.8,0.9c0.4,0,0.7-0.3,0.8-0.7
					c0.1-0.5-0.4-0.8-0.7-1.1s-0.7-0.6-1.1-0.9c-0.3-0.2-0.6-0.5-0.9-0.7c-0.2-0.1-0.6-0.4-0.8-0.4c-0.4,0-0.5,0.6-0.4,0.9
					L156.6,199z"/>
				<path class="st6" d="M171.5,267.8c0,0.7,0.2,1.3,0.4,2c0.2,1,0.4,1.9,1.1,2.7c1,1.3,2.5,1.7,3.9,2c0.7,0.2,1.4,0.2,2,0.4
					c0.6,0.2,1.2,0.7,1.9,0.8c1.6,0.2,1.9-2.2,1.8-3.3c0-1.5-0.9-2.3-1.9-3.3c-1.3-1.3-2.6-2.2-4.4-2.7c-0.6-0.2-1.4-0.3-2-0.7
					c-0.8-0.5-1.2-1-1.8-1.7c-0.4-0.5-0.8-1.1-1.3-1.5c-0.3-0.3-0.7-0.2-0.9,0.1c-0.6,0.8,0,2.3,0.2,3.1c0.1,0.5,0.2,0.9,0.2,1.4
					C170.8,268.6,171.5,269.9,171.5,267.8z"/>
				<path class="st6" d="M184.8,270.5c-0.3,0.8-0.6,1.3-0.1,2.1c0.3,0.4,0.8,0.9,1.4,0.8c0.8-0.2,1.5-1.4,1.9-2
					c0.5-0.7,0.5-1.7-0.5-1.9c-0.4-0.1-0.9-0.1-1.3,0.1c-0.8,0.4-1.7,0.9-1.8,1.9L184.8,270.5z"/>
				<path class="st6" d="M205.3,271.6c-0.8,0.1-1.6,0.2-2.4,0.4c0,0.3-0.4,0.5-0.6,0.7c-0.2,0.3-0.4,0.7-0.6,1.1
					c-0.3,0.6-0.5,1.3-0.3,2c0.3,1.2,1.5,1.4,2.6,1.1c0.9-0.3,1.5-1.4,1.7-2.3c0.2-0.8,0.2-2.2-0.5-2.7L205.3,271.6z"/>
				<path class="st6" d="M203.8,193.3c0.6,0.3,1.3,0.6,1.9,1.1c0.4,0.3,0.7,0.7,1.1,0.9c1,0.5,2.2,0.4,3.3,0.3
					c1.3-0.2,2.5-0.4,3.7-0.9c0.8-0.4,1.8-0.7,2.7-0.6c1,0.1,1.8,0.7,2.6,1.2c1.1,0.8,2.3,1.6,3.2,2.6c0.9,0.9,1.6,1.9,2.5,2.7
					c0.6,0.5,1.2,0.7,1.8,1s1.2,0.4,1.6,0.8c0.6,0.6,0.8,1.2,1.2,1.9s1.2,1.4,1.9,1.8c0.7,0.5,1.7,0.6,2.5,0.6c0.3,0,0.7,0,1,0
					c0.5,0,1,0.1,1.5,0.2c0.4,0,0.8,0.3,1.2,0.1c0.2-0.1,0.5-0.3,0.6-0.5c0.5-0.5,0.4-1.3,0.6-1.9c0-0.2,0.2-0.3,0.1-0.5
					c-0.1-0.2-0.3-0.6-0.5-0.8c-0.4-0.6-1-0.7-1.6-1s-1.1-0.8-1.8-1.1c-0.4-0.2-0.8-0.3-1.2-0.4c-0.4-0.1-0.7-0.3-1.1,0
					c-0.6,0.4,0,0.8-0.1,1.4c0,0.2-0.2,0.4-0.3,0.6c-0.1,0.2-0.5,0.3-0.6,0.6c-0.2,0.5,0.5,1.2,0.8,1.4s0.7,0.3,1.1,0.4
					c0.3,0.1,0.8,0.3,1.1,0.2c0.2,0,0.5-0.2,0.5-0.4c0.1-0.2-0.1-0.5,0-0.7c0.1-0.1,0.6,0,0.7,0.1c0.3,0.1,0.5,0.3,0.5,0.6
					c0,1.2-2,0.9-2.7,0.9c-0.9,0-1.4-0.2-2.2-0.6c-0.8-0.4-1.2-0.9-1.8-1.5c-0.6-0.5-0.8-1.5-1-2.2c-0.1-0.4-0.2-0.8-0.5-1.1
					s-0.5-0.3-0.9-0.5c-1-0.4-2-1.1-2.7-1.9c-0.8-0.8-1.2-2-1.8-3c-0.3-0.5-0.6-1-0.9-1.6c-0.4-0.7-0.7-1.4-1.2-2.1
					c-0.9-1.2-2.1-1.6-3.5-1.3c-0.8,0.1-1.5,0.3-2.3,0.3c-0.6,0-0.9-0.2-1.4-0.6c-0.6-0.5-1.2-1-1.9-1.4c-0.7-0.5-1.4-1-2.3-1
					c-0.5,0-1.4-0.1-1.7,0.3c-0.5,0.5-0.5,1.4-0.4,2.1c0.1,0.8,0.4,1.5,0.6,2.2c0.1,0.3,0.2,0.7,0.1,1c-0.2,0.7-1,0.6-1.6,0.3
					c-0.1-0.1-0.3-0.2-0.5-0.3c-0.1-0.1-0.2-0.3-0.3-0.3c-0.2-0.1-0.8-0.1-1,0C204.6,192.4,204.6,192.5,203.8,193.3z"/>
				<path class="st6" d="M199.9,191.8c-0.7,0-1.3,0-2,0c-0.2,0-0.5,0-0.7,0c-0.1,0.1-0.3,0.3-0.5,0.4c-0.1,0.1-0.6,0.5-0.6,0.7
					c-0.1,0.7,2,0.9,2.4,0.8c0.5-0.1,1.7-0.7,1.7-1.3c0-0.7-0.7-0.8-1.3-0.8L199.9,191.8z"/>
				<path class="st6" d="M241.9,205.3c-0.8,0.3-1.4,0.4-1.8,1.2c-0.2,0.5-0.4,1-0.5,1.5c-0.2,0.7,0,1.1,0.4,1.7
					c0.2,0.3,0.5,0.8,0.8,1.1c0.4,0.3,0.9,0.2,1.4,0.2c0.4,0,0.9,0.1,1.3,0.2c1.2,0.3,2.3,0.7,3.5,0.9c0.9,0.1,2-0.7,2.2-1.6
					c0.1-0.4,0.1-0.9,0-1.3c-0.1-0.7-0.4-1.2-0.7-1.8c-0.5-1-1.2-1.7-2.3-2C245.4,205.1,243.8,204.5,241.9,205.3z"/>
				<path class="st6" d="M250.2,213.4c-0.1-0.3,0-0.6,0.2-0.8c0.8,0.1,1.5,0.8,1.3,1.7s-2,0.7-2-0.2L250.2,213.4z"/>
				<path class="st6" d="M245.1,165.8c-0.2,0.4-0.4,0.8-0.8,1.1c-0.5,0.5-1.3,0.7-1.9,1.1c-1,0.6-2,1.6-2.2,2.9
					c-0.2,1,0.6,2.4,1.6,2.7c0.9,0.2,1.8-0.6,2.4-1.1c0.6-0.6,1.1-1.2,1.6-1.9c0.4-0.5,0.9-1.2,1.1-1.8c0.2-0.7,0.3-1.3,0-2
					c-0.1-0.3-0.2-0.6-0.6-0.7C246,165.9,245.5,166,245.1,165.8z"/>
				<path class="st6" d="M244.4,162.7c-0.1-0.5-0.3-0.8-0.1-1.3c0.1-0.3,0.4-0.6,0.8-0.6c0.4,0.1,1,0.7,1.1,1.1
					c0.1,0.5,0,0.7-0.4,0.9c-0.3,0.2-1,0.3-1.1-0.2h-0.3V162.7z"/>
				<path class="st6" d="M242.4,179.2c-0.8,0.4-1.4,0.5-1.7,1.3c-0.2,0.5,0.1,0.8,0.5,1.2c0.7,0.7,1.9,1.1,2.8,0.3
					c0.3-0.2,0.3-0.3,0.3-0.7c0-0.3-0.1-0.8-0.2-1.1c-0.3-0.7-1.1-0.8-1.8-0.8L242.4,179.2z"/>
				<path class="st6" d="M256.3,204.6c-0.4,0.5-1.3,1.4-1.1,2.1c0.1,0.3,0.4,0.6,0.6,0.7c0.5,0.3,0.9-0.1,1.3-0.2
					c0.5-0.2,0.7-0.2,0.7-0.7c0-0.2,0-0.6,0-0.8c-0.1-0.7-0.6-0.8-1.2-0.9v-0.1h-0.3V204.6z"/>
				<path class="st6" d="M97.8,179.4c1.1-0.3,2-0.5,3.1-0.2c1,0.3,1.9,0.6,2.9,0.8c1.5,0.4,2.9,0.5,4.4,0.5c0.4,0,0.6,0,1-0.1
					c0.3-0.1,0.6-0.1,0.9-0.1c0.3-0.1,0.6-0.2,0.9-0.2c0.4,0,0.8,0,1.2-0.2c0.5-0.3,0.7-1.2,0.7-1.8c0-0.7-0.3-2.1,0.3-2.7
					c1-1,2.5,1.5,3,2c0.8,0.8,1.6,1.6,2.4,2.3c0.3,0.3,0.7,0.5,1,0.9s0.7,0.8,1,1.1c0.6,0.6,1.1,1.2,1.8,1.6
					c1.1,0.6,2.2,1.1,3.3,1.8c1,0.6,1.9,1,2.6,1.9c0.5,0.6,0.7,1.4,0.7,2.2c0,1-0.6,1.7-1.1,2.5c-0.4,0.7-0.8,1.3-1.2,2
					c-0.5,0.8-0.9,1.7-1.5,2.4c-1,1.2-2.1,2-3.6,2.5c-1.2,0.5-2.5,1-3.8,0.9c-1.2-0.1-2.5-0.7-3.6-1.3s-2.3-1-3.4-1.7
					c-1.4-0.9-2.1-2.2-2.4-3.8c-0.1-0.6,0-1.2,0-1.7c0-0.6-0.2-1.1-0.2-1.8c0-1.6-0.1-4,1.6-4.9c0.4-0.2,0.8-0.3,1.2-0.4
					c0.5,0,0.9,0.2,1.3,0.2c1.4,0.1,2.6-0.5,4-0.6c1.3-0.1,3.3,0.5,3.7,1.9c0.2,0.7,0.3,1.4,0.7,2.1c0.3,0.5,0.6,1,0.9,1.4
					c0.3,0.5,0.8,0.8,1.2,1.1c0.7,0.6,1.1,1,1.4,1.9c0.2,0.6,0.2,1.1,0,1.7c-0.6,1.4-2,1.9-3.3,2.3c-0.4,0.1-0.8,0.1-1.2,0.3
					c-0.5,0.2-1.1,0.5-1.6,0.6c-0.9,0.3-1.7,0.1-2.7-0.1c-0.6-0.1-1.8-0.5-2-1.2c-0.2-0.8,0.6-1.4,1.3-1.8c0.5-0.3,1.4-0.2,1.9-0.2
					c0.4,0,0.3,0,0.4,0.4c0,0.3,0,0.5,0,0.8c0.1,0.2,0.4,0.7,0.6,0.8c0.6,0.2,1-0.2,1.5-0.3c0.6-0.2,1.1-0.2,1.6-0.5
					s0.9-0.8,1.3-1.1c0.3-0.3,0.7-0.6,0.7-1.1c0.1-0.9-0.9-1.4-1.4-2s-1.1-1-1.3-1.8c-0.3-0.9-0.7-1.7-1.1-2.5
					c-0.6-1.1-2.1-1.7-3.2-1.8c-0.7-0.1-1.6,0.1-2.3,0.2c-0.5,0.1-0.8,0.1-1.3,0.1s-1,0-1.5,0.2c-0.8,0.3-1.2,1-1.3,1.8
					c-0.2,1-0.4,2.2-0.2,3.2c0.2,0.9,0.3,1.7,0.7,2.5c0.3,0.6,0.3,1.2,0.5,1.8c0.2,0.7,0.7,1.2,1.3,1.6c0.3,0.2,0.6,0.4,0.9,0.6
					c0.3,0.1,0.6,0.3,0.8,0.4c0.3,0.2,0.6,0.4,0.9,0.5c0.3,0.2,0.4,0.5,0.8,0.6c0.7,0.2,1.5,0.3,2.3,0.4c0.5,0.1,0.8,0.4,1.2,0.5
					c0.6,0.1,1.1-0.1,1.6-0.3c0.3-0.2,0.7-0.3,1-0.5c0.4-0.2,0.7-0.5,1.1-0.7s0.6-0.2,0.9-0.6c0.3-0.4,0.7-0.6,1.1-0.8
					c0.6-0.4,1.2-0.9,1.6-1.6c0.4-0.8,0.4-1.7,0.6-2.5s0.5-1.5,0.7-2.3c0.1-0.4,0.1-0.4-0.2-0.8c-0.3-0.4-0.5-0.6-0.8-0.8
					c-0.9-0.4-2-0.4-2.8-1.1c-1.1-1-2.2-2-3.3-3c-0.4-0.4-0.9-1-1.4-1.3c-0.6-0.3-1.3-0.1-2-0.1c-1.2,0-1.6-1.7-2.8-2.1
					c-1.1-0.4-2.1,0.6-2.9,1.3c-0.9,0.7-1.9,1.2-2.9,1.7c-0.5,0.3-1,0.6-1.5,0.8c-0.6,0.4-1.1,0.9-1.7,1.3c-0.7,0.4-1.6,0.5-2.4,0.6
					c-1.1,0.2-1.7,0-2.7-0.4c-0.6-0.2-1.1-0.6-1.7-0.8c-0.5-0.2-1.1-0.3-1.6-0.4c-0.6-0.1-1.1,0.1-1.6-0.3c-0.7-0.6-0.9-2.2-0.3-2.9
					c0.2-0.3,0.7-0.6,1-0.7C96.1,180.7,96.7,180.7,97.8,179.4z"/>
				<path class="st6" d="M94.6,178.2c0.3,0.6,0.3,0.6,0.2,1.1c-0.1,0.4-0.4,0.8-0.7,1.1c-0.3,0.5-0.7,0.9-0.9,1.4
					c-0.2,0.4-0.4,1-0.9,1.2c-0.4,0.2-1.3-0.1-1.6-0.3c-1.4-0.8-1.6-2.6-1.6-4c0-1.3,0.2-2.8,0.8-4c0.3-0.7,1-1.8,1.9-1.6
					c0.6,0.2,1,1.1,1.2,1.6c0.4,0.7,0.8,1.4,1,2.2c0.1,0.5,0,0.8,0.3,1.3c0.2,0.4,0.6,1,1.1,0.9L94.6,178.2z"/>
				<path class="st6" d="M92.1,168.6c-0.5-0.3-1.4-0.8-0.6-1.3c0.2-0.2,0.9-0.4,1.2-0.3c0.5,0.2,0.6,1.3,0,1.4L92.1,168.6z"/>
				<path class="st6" d="M130.7,188.4c-0.3,0.7-1.3,1.9-1,2.7c0.2,0.7,0.9,1,1.4,1.3c0.7,0.3,1.5,0.6,2.3,0.6c0.8-0.1,1.2-0.3,2,0
					c1.4,0.6,2.5,1.2,3.9,0.5c0.6-0.3,1.2-0.7,1.8-0.9c0.5-0.2,1.1-0.1,1.6-0.2c0.5-0.1,0.4-0.3,0-0.5s-0.9-0.3-1.3-0.4
					c-0.5-0.1-0.9-0.3-1.4-0.4c-0.4,0-0.7,0-1.1,0c-0.3,0-0.5-0.1-0.8-0.2c-0.8-0.1-1.5-0.4-2.2-0.7c-0.6-0.3-0.9-1-1.4-1.4
					c-0.6-0.4-1.2-0.6-1.9-0.8c-0.4-0.1-0.7-0.3-1.1-0.2C131.3,187.8,130.8,188.4,130.7,188.4z"/>
				<path class="st6" d="M144.7,191.8c0.6-0.2,1.2-0.6,1.7-0.3c0.2,0.1,0.5,0.3,0.6,0.4c0.2,0.3-0.2,0.9-0.4,1.1
					c-0.9,0.8-1.5,0.1-1.9-0.7L144.7,191.8L144.7,191.8z"/>
				<path class="st6" d="M155.9,163.3c-0.5,0.2-1,0.5-1.5,0.7c-0.4,0.2-0.7,0.2-1,0.5c-0.7,0.6-1.2,1-1.5,1.9
					c-0.2,0.6-0.3,1.2-0.5,1.8c-0.3,0.7-0.6,1.6-0.7,2.3c-0.1,1.3,0.2,3.1,1.4,3.8c0.4,0.2,0.6,0.3,1.2,0.3c0.3,0,0.3-0.1,0.6-0.2
					c0.3,0,0.6,0.1,0.8,0c0.2,0,0.3-0.2,0.4-0.2c0.2-0.1,0.6,0,0.8,0c0.6,0,1.1,0.1,1.6-0.3c0.7-0.5,1.2-1.1,1.7-1.8
					c0.3-0.5,0.6-1.3,0.4-1.9c-0.4-1.3-1.9-2.6-3.3-2.7c-0.7,0-1.4,0.3-1.9,0.7c-0.6,0.5-0.8,1.7-0.5,2.4c0.3,0.6,0.6,0.4,1,0.3
					c0.6-0.2,0.8,0.1,1.3,0.3c0.5,0.1,1.1-0.1,1-0.7c0-0.5-0.4-0.8-0.5-1.2c0.3-0.2,1,0.2,1.2,0.5s0.2,0.7,0.2,1.1
					c0,0.3-0.1,0.4-0.1,0.6c0,0.2,0,0.4-0.1,0.6c-0.1,0.2-0.3,0.6-0.5,0.7c-0.8,0.6-1.9,0.4-2.8,0.4c-0.6,0-1.1-0.2-1.6-0.2
					c-0.4,0-1-0.1-1.3-0.3c-0.8-0.5-0.7-2.2-0.3-2.9c0.3-0.7,0.8-1.6,0.9-2.3c0-0.5,0.1-0.9,0.3-1.2c0.3-0.4,0.9-0.8,1.4-1
					c0.2-0.1,0.5-0.1,0.6-0.2c0.3-0.1,0.4-0.5,0.5-0.7C155.2,164.1,155.8,163.6,155.9,163.3z"/>
				<path class="st6" d="M158.4,161.1c-0.1,0.1-2,0.9-0.9,1.3c0.5,0.1,1.4,0,1.9,0c1.1-0.2,2.8-0.6,3.5-1.6c0.8-1.1-0.5-2.5-1.6-2.3
					c-0.7,0.1-1.2,0.5-1.7,0.9c-0.3,0.2-0.7,0.5-1,0.7c-0.3,0.3-0.5,0.6-0.8,0.9L158.4,161.1z"/>
				<path class="st6" d="M157.7,175.3c-1.4,0.1-2.7,0.3-4.1,0c-0.8-0.1-1,0.5-0.9,1.1c0.1,1.8,1.8,2.9,3.1,3.9
					c0.6,0.4,1,1.1,1.8,0.9c0.8-0.2,0.9-1,1.1-1.6c0.2-0.8,0-1.5-0.3-2.2c-0.2-0.4-0.4-0.8-0.6-1.1s-0.6-0.5-0.7-0.8L157.7,175.3z"
					/>
				<path class="st6" d="M221.6,122.5c-0.8,0.3-7.8,2.4-5.7,4.2c0.7,0.6,2,0.8,2.8,1.1c0.6,0.2,0.8,0.4,1.3,0.8
					c-0.4,0.6-1.1,0.1-1.3,0.7c-0.2,0.5,0.3,1,0.7,1.2c0.9,0.6,2.2,0.9,3.2,1.4c0.3,0.2,0.8,0.6,1.1,0.6c0.6,0.1,1.4-0.1,2,0
					c2.4,0.4,4.9,0.6,7.3,1c0.6,0.1,1.5,0.7,2.1,0.3c0.4-0.3,0.3-0.8,0.7-1.1c0.8-0.8,2.4,0.1,3.2,0.4c0.9,0.4,1.3,1.1,1.8,1.9
					c0.9,1.5,2.3,2.8,2.3,4.6c0,0.7-0.5,1.2-0.7,1.8c-0.3,0.6-0.5,1.2-0.9,1.8c-0.7,1.2-1.2,2.6-1.7,4c-0.2,0.6-0.6,1.1-0.9,1.5
					c-0.5,0.7-0.8,0.6-1.5,0.6c-0.8,0-2.8-1-3.4,0c-0.3,0.5,0,0.9,0.5,1.1c0.2,0.1,0.5-0.1,0.7,0c0.4,0,0.5,0.2,0.8,0.3
					c1.2,0.3,2.2,0,3.2-0.6c0.8-0.5,1.4-1.3,2.2-1.7c0.5-0.2,0.9-0.5,1.4-0.8c0.4-0.3,0.7-0.7,1.2-1c1.2-0.8,2.5-0.7,3.6-1.8
					c1.1-1,1.6-2.2,1.3-3.7c-0.2-0.7-0.4-1.5-0.6-2.2c-0.2-0.6-0.8-1.1,0.3-1c0.3,0,1.2,0.8,1.4,1.1c0.3,0.4,0.4,1.2,1.1,1.3
					c0.4-0.8-0.4-1.6-1-2c-1-0.8-2-1.4-3-2.2c-1.1-1-1.8-2.4-2.7-3.6c-1.3-1.8-3-3.5-4.8-4.8c-0.7-0.5-1.5-1-2.2-1.6
					c-1.1-0.9-1.8-2.1-3-3c-1.6-1.2-3.5-1.7-5.5-2c-1.6-0.3-3.1,0-4.6,0.4C223.6,121.7,221,121.8,221.6,122.5z"/>
				<path class="st6" d="M214.1,129.7c0.4,0.4,0.6,0.9,0.8,1.5c-0.1,0.2-0.1,0.4,0,0.6c0.2,0.3,0.7,0.6,1,0.8
					c1.1,0.9,2.5,1.1,3.9,1.4c1,0.2,2.1,0.3,3,0.8c0.8,0.5,1.6,1.3,2.5,1.6c1.2,0.5,2.1,0.5,3.2,0.2c0.6-0.1,2.1-0.4,2.5,0.4
					c0.4,1.1-0.9,0.9-1.4,1c-0.3,0.1-0.5,0.3-0.9,0.4c-0.4,0.1-0.8,0-1.3,0.1c-2.7,0.7-5.4,1.3-8.3,1.3c-0.8,0-1.3,0.1-2.1,0.3
					c-1,0.2-1.9,0-2.8,0.3c-1.4,0.4-2.5,0.6-3.9,0.2c-1.1-0.3-2.2-0.6-2.5-1.9c-0.3-1,0-1.6,0.6-2.2c0.8-0.9,1.5-1.8,2.4-2.6
					c0.4-0.4,0.8-0.8,1.2-1.3C212.2,132.1,212.3,131.4,214.1,129.7z"/>
				<path class="st6" d="M193.9,141.5c-0.7,0.7-6.1,5.2-3,5.8c1.3,0.2,4,0.4,4.4-1.3c0.2-0.8,0-0.9,0.5-1.5c0.4-0.6,1-1.1,1.4-1.7
					c0.4-0.7,0.5-1.3-0.4-1.5c-1.1-0.4-1.8,0.6-2.9,0.6V141.5z"/>
				<path class="st6" d="M179.2,159.1c-0.8,0.2-4.4,0.4-4.6,2.2c-0.1,0.7,0.2,0.7,0.8,1c1.4,0.7,3.1,1.1,4.6,0.5
					c1.2-0.5,3-1.3,2.5-2.9c-0.6-1.6-2.2-1.4-3.5-1.4L179.2,159.1z"/>
				<path class="st6" d="M220.9,182.1c-0.6,1-1.5,2.7,0.4,2.9c0.8,0.1,1.8-0.8,2.1-1.5c0.2-0.5-0.1-1.4-0.5-1.8
					C222.2,181.1,221.1,181.3,220.9,182.1L220.9,182.1z"/>
				<path class="st6" d="M206.5,109.5c-0.7,0.5-1.8,1.6-2.7,2c-0.4,0.2-0.9,0.1-1.3,0.2c-0.4,0.1-0.7,0.4-1.1,0.6
					c-2.5,1-5.3,0.9-7.8,1.7c-1.4,0.5-2.6,0.8-3.5,2c-1,1.4-2.2,2.5-3.7,3.5c-2,1.4-3.7,3.1-4.9,5.3c-0.6,1.1-1.6,3.1,0.6,2.9
					c0.9-0.1,2.1-0.7,3.1-0.9c0.9-0.2,2.3-1.1,3.1-0.3c0.5,0.5,0.7,1.5,1.4,1.8c0.8,0.4,2.6,0,3.5-0.2c1-0.3,2-0.8,3.1-0.8
					c0.7,0,1.3,0,2,0c0.5,0,1-0.1,1.4,0c0.6,0.1,1,0.4,1.6,0.6c1.4,0.4,2.7,0.1,4.1-0.4c1.6-0.7,1.9-2,2.7-3.5
					c1-1.8,2.2-2.7,3.8-3.8c0.8-0.6,1.5-1.1,2.2-1.8s1.1-1.5,1.8-2.2s1.5-1.3,2.1-2.2c0.2-0.4,0.9-1.3,0.8-1.8
					c-0.1-0.6-1.1-0.9-1.5-1.1c-0.7-0.3-1.3-0.6-2.1-0.8c-1.7-0.4-3.4-0.9-5-1.4C208.8,108.6,206.5,107.4,206.5,109.5z"/>
				<path class="st6" d="M191.8,107c-1.1,0.4-2.2,0.8-3.3,1.2c-0.3,1.4-1.2,1.8,0.5,2.5c1.3,0.5,2.9,0.1,4.1-0.4
					c0.8-0.4,2.1-1.1,2-2.2c-0.1-0.8-1.6-2.1-2.2-1.1H191.8z"/>
				<path class="st5" d="M253.9,233.5c-0.7,3.1-1.9,5.9-4.3,8.1c-0.9,0.8-1.7,1.3-2.2,2.4c-0.6,1.3-0.8,2.6-1.2,4
					c-0.6,2.1-1.7,3.8-3.8,4.5c-2.2,0.7-5.7,0.3-7.3,2.2c-0.7,0.8-0.9,1.9-1,2.9c-0.2,1.3-0.2,2.7-0.5,4c-0.1,0.8-0.4,1.8-1.1,2.3
					c-0.5,0.4-1.2,0.4-1.7,0.7c-1,0.5-2.3,1.2-3.1,2c-1.2,1.2-2.1,2-3.9,2.1c0.6-0.5,1.3-1,1.7-1.6c0.5-0.8,0.7-1.8,1.2-2.5
					c0.9-1.2,2.7-1.3,3.7-2.4c0.6-0.6,0.9-2.5,0.8-3.2c-0.1-1.6-1-3.1-0.8-4.7c0.2-1.3,1.6-2.6,2.5-3.5c1-1,2.2-0.8,3.4-0.4
					c0.7,0.3,1.6,0.8,2.3,0.8c0.5,0,0.6-0.3,0.9-0.3c0.5-0.1,1.1,0,1.6,0c0.8-0.1,1.7-0.6,1.4-1.6c-0.2-0.6-0.7-0.7-1.1-1.1
					c-0.6-0.5-1-1.2-1.6-1.8c-1.6-1.6-4.3-2.9-3.1-5.6c0.5-1.2,1.6-1.8,2.4-2.7c1.5-1.5,0.7-3.4,1.1-5.3c0.8-4,5.8-6.1,9.5-4.5
					c1.4,0.6,2.8,1.1,3.6,2.4C253.9,231.3,254.4,233.2,253.9,233.5z"/>
				<path class="st6" d="M255,220.2c-0.4,1.5-0.8,2.9,0.7,4c0.7,0.5,1.4,0.5,2.2,0.1c0.5-0.3,1.3-0.9,1.4-1.5c0.1-0.2,0-0.9,0-1.1
					c-0.1-0.4-0.3-0.6-0.3-1c-0.1-0.5,0-1.1-0.1-1.6s-0.2-0.9-0.3-1.4c-0.1-0.9,0-1.6-0.8-2.2c-0.6-0.4-1.3-0.5-2-0.1
					c-2,1.1-1.5,3.7-1.1,5.5L255,220.2z"/>
			</g>
			<g>
				<path class="st7" d="M121,157.9c-1.4,1.9-1.9,2.9-1.6,5.2c0.2,1.8,1.2,2.9,2.2,4.3c1.7,2.5,2.7,4.5,6,4.5c2.6,0,5.9,0.5,8.4-0.1
					c1-0.3,2.2-1.2,3.2-1.6c1.1-0.5,2.1-0.7,3.4-1.1c1.2-0.3,3-1.7,2.7-3.1c-0.3-1.7-2-0.9-3.2-1.2c-2.7-0.8-4.3-3.7-5.6-5.8
					c-1.5-2.6-3.8-6-6.9-6.9C125,150.7,122.9,155.8,121,157.9z"/>
				<path class="st7" d="M186.8,205.8c-1.3,2.1-1.2,2.8-0.4,4.8c0.3,0.7,0.7,1.5,0.8,2.2c0.1,0.6,0.5,1.3,0.5,1.7
					c0.3,1.3,0.1,2.8,0.1,4.2s0.6,2.3,0.5,3.8c0,2.6,0.4,4.5,2.7,5.9c1.1,0.7,2.2,0.8,3.3,1.5c0.8,0.5,2.2,2,3.1,1.8
					c1.2-0.2,1.5-2.2,1-3.2c-0.2-0.4-0.7-0.8-1-1.2c-0.4-0.6-0.3-1-0.5-1.6s-0.3-1-0.6-1.6c-0.1-0.3-0.5-1.2-0.6-1.6
					c-0.3-1.3,0-3,0-4.3c0-2-0.3-3.1-1.2-4.9c-0.7-1.4-1.5-2.8-2-4.3c-0.6-1.7-1.1-3-2.7-3.8C189,204.8,187.6,204.2,186.8,205.8z"/>
				<path class="st7" d="M200.2,233.9c-0.7,1.1-0.6,1.3-0.2,2.4c0.3,0.9,0.6,1.5,1.5,1.9c0.4,0.3,0.9,0.3,1.4,0.3
					c0.6-0.1,0.7-0.3,0.5-0.9c0-0.2-0.2-0.2-0.3-0.4c-0.1-0.3,0-0.6-0.1-0.9c-0.2-0.5-0.5-1-0.8-1.5c-0.2-0.3-0.3-0.7-0.7-0.8
					s-1.3,0.1-1.4,0.6L200.2,233.9L200.2,233.9z"/>
				<path class="st7" d="M202.4,203.4c0.9,0.5,1.7,0.9,2.7,1.3c0.4,0.2,0.7,0.6,1.1,0.6c1.1,0.3,1.9-1.4,1.6-2.3
					c-0.3-1-1.5-1.6-2.4-1.9c-0.7-0.2-1.3-0.1-2,0.2c-1.2,0.5-0.9,1.1-0.7,2.1L202.4,203.4L202.4,203.4z"/>
				<path class="st6" d="M170.2,214.5c0,0.8-0.2,2,0.7,2.5c0.7,0.3,1.8-0.7,2.2-1.2c1.1-1.6-0.1-2.7-1.8-2.3c0,0.1,0,0.2-0.1,0.3
					L170.2,214.5z"/>
				<path class="st6" d="M93.7,237.8c1.1,2.3,1.2,4.8,2.1,7.2c1.2,3,3.4,5.3,5,8.2c0.7,1.4,1.3,2.6,2.1,3.9c0.9,1.4,1.9,2.7,2.9,4.1
					c1.8,2.4,3.8,4.5,6.2,6.4c2.2,1.8,4.8,3,7.2,4.4c1.2,0.7,2.3,1.6,3.6,2.2c1,0.4,2.2,0.6,3.3,1c1.3,0.5,2.7,1,4,1.6
					c1.4,0.7,2.7,1.7,4.2,2.4c1.5,0.7,2.9,0.7,3.7-0.8c0.7-1.4,0-1.8-0.7-3.2c-1-1.9-1.9-3.7-2.9-5.7c-1.1-2.3-2.7-4.2-3.9-6.4
					c-0.9-1.6-2.1-3.5-3.6-4.6c-0.8-0.6-1.6-1-2.4-1.5c-1-0.6-1.8-1.5-2.7-2.2c-1.7-1.3-3.7-1.9-5.7-2.5c-1.1-0.3-1.7-0.5-2.5-1.2
					c-0.5-0.4-1.5-1.1-1.7-1.8c-0.3-1.1,1.2-1.7,0.5-2.9c-0.7-1.3-2.3-2.2-3.5-2.9c-2.4-1.3-5.3-1.9-6.9-4.3c-0.7-1-1.5-1.9-2.3-2.8
					c-0.2-0.3-0.7-0.9-1.1-1c-0.5-0.1-0.4,0.1-0.8,0.2C96.1,236.2,95.5,237.3,93.7,237.8z"/>
				<path class="st6" d="M89.7,231.3c0,1,0.3,2.9,1.4,3.4c0.7,0.3,1-0.1,1.4-0.7c0.4-0.7,0.5-1.4,0.1-2c-0.5-0.9-0.9-1.4-1.9-1.4
					L89.7,231.3z"/>
				<path class="st7" d="M151.5,144c-0.8,0.3-1.5,0.8-1.9,1.5c0,0.1,0.1,0.3,0.1,0.4c-0.1,0.4-0.1,1.2,0.1,1.6
					c0.4,0.9,1.3,1.2,2.1,1.5c1.7,0.6,3.7,0.2,4.2-1.8c0.5-1.7-0.9-2.7-2.2-3.5c-0.8-0.5-2.5-0.6-2.8,0.6L151.5,144z"/>
				<path class="st7" d="M148.3,136.1c0.1,1.3,0.1,1.5,1.3,1.8c1,0.3,1.9,0.4,2.9,0.2c1.6-0.3,3.2-0.9,4.8-1
					c1.5-0.1,1.9,1.1,3.1,1.4c1.4,0.4,0.8-1.3,0.5-1.9c-0.5-1-1.1-1.5-2.1-2.1c-1.1-0.6-1.8-1.6-2.9-2.2c-3.2-1.8-6.9,0.7-6.5,4.4
					L148.3,136.1z"/>
				<path class="st7" d="M182.1,109.5c-0.6,0.8-1.6,2-1.5,3.1c0.1,0.7,0.4,1,0.8,1.5c0.4,0.7,0.7,1.5,1.1,2.3
					c0.4,0.9,0.5,2.5,1.2,3.2c0.8,0.8,3.2,0.3,4.2,0.3c1.4,0,3,0.1,4.3,0.6c1.2,0.5,2.2,1.2,3.6,1.2c0.8,0,1.7,0.1,2.5,0
					s1.4-0.5,2.1-0.9c1.6-0.8,3-1.7,4.6-2.4c1.3-0.6,2.5-1.7,3.8-2.5c1.3-0.7,2.8-1.5,4.3-1.8c1.3-0.3,4.5-0.8,2.8-2.8
					c-1.4-1.6-4.9-1.5-6.8-1.1c-3.5,0.7-6.9-0.2-10.3-0.8c-0.7-0.1-1.4-0.4-2.1-0.5c-0.8-0.2-1.5-0.1-2.3-0.1
					c-0.9-0.1-1.7-0.4-2.5-0.4s-1.5-0.1-2.2-0.3c-1.4-0.3-2.7,0.2-4,0.5c-0.5,0.1-1.3,0.1-1.7,0.5
					C183.4,109.6,183.4,110.2,182.1,109.5z"/>
				<path class="st7" d="M199.3,126.4c0.6-2,1.6-3.7,3.7-4.4c1.2-0.4,2.9-0.2,2.4,1.6c-0.2,0.7-0.8,1.3-1.3,1.8
					c-1.1,0.9-3,1.7-4.5,1.4L199.3,126.4z"/>
				<path class="st7" d="M260.4,165.6c-0.4,0.7-0.9,1.5,0.2,1.8c0.5,0.1,0.7-0.1,1.1-0.3c1.1-0.5,0.9-1.1,0.7-2.2
					c-0.2-0.7-0.4-1.5-1.2-1.8c-1.4-0.4-1.4,0.9-1.5,1.8L260.4,165.6z"/>
				<path class="st6" d="M244.2,151.2c-1.3,0.9-3,1.5-3.2,3.2c-0.1,1,1,2.7,1.6,3.4c0.6,0.8,1.4,1.4,2.4,1.7c0.8,0.3,1.8,1,2.7,0.6
					c2.6-1.1,0.6-4.7-0.1-6.4c-0.4-1.1-0.5-2.3-1.1-3.3c-0.8-1.4-1-0.2-1.9,0L244.2,151.2z"/>
				<path class="st6" d="M254.3,183.2c0.2,0.9,0.4,1.6,0.8,2.4c0.2,0.5,0.8,1.2,0.6,1.8s-0.9,1.3-1.4,1.7c-0.3,0.3-1,1-0.9,1.5
					c0,0.2,0.5,0.6,0.6,0.8c0.2,0.4,0.3,0.7,0.4,1.1c0.2,0.8,0.3,1.5,0.7,2.2c0.4,0.6,0.9,1,1.4,1.6c0.2,0.3,0.4,0.5,0.7,0.7
					c0.4,0.3,0.5,0.6,0.6,1.1c0.1,0.2,0.4,1.1-0.2,1c-0.1,0-0.3-0.4-0.4-0.4c-0.2-0.2-0.3-0.2-0.5-0.3c-1.2-0.7-2.5-1.2-3.5-2.2
					c-0.6-0.6-1.2-1.2-1.8-1.6c-0.3-0.2-0.8-0.3-1.1-0.6c-0.4-0.3-0.7-0.8-0.9-1.3c-0.3-0.6-0.5-1.4-0.4-2c0.2-0.7,0.8-1.2,0.9-1.9
					c0.1-0.6-0.2-1.5,0.1-2s1-0.8,1.4-1.2c0.5-0.7,0.7-1.6,1.2-2.3c0.2-0.3,0.5-0.5,0.9-0.5C253.8,182.7,254,182.9,254.3,183.2z"/>
				<path class="st6" d="M247.5,181.9c-0.4,0.7-0.8,1.2-0.4,2.1c0.2,0.5,0.7,0.8,1.2,1c0.4,0.2,0.5,0.2,0.9,0
					c0.2-0.2,0.7-0.4,0.8-0.7c0.2-0.3,0.2-1.8,0-2.1c-0.1-0.2-0.7-0.6-0.9-0.7c-0.3-0.1-1.4-0.1-1.2,0.5h-0.4L247.5,181.9
					L247.5,181.9z"/>
				<path class="st7" d="M210.1,199.7c0.5,0.8,1.1,1.7,1.9,2.2c0.4,0.3,1,0.3,1.4,0.5s0.7,0.3,1.2,0.4c0.7,0,1.4-0.3,2.1-0.4
					c0.7,0,1.6-0.2,1.7-1c0.2-0.8-0.7-1.3-1.3-1.5c-0.4-0.2-0.8-0.2-1.2-0.4s-0.8-0.3-1.3-0.5c-0.4-0.1-0.7-0.3-1.1-0.4
					c-0.4-0.1-0.8,0-1.2-0.1C211.7,198.5,210.6,198.4,210.1,199.7z"/>
				<path class="st7" d="M124.6,124.6c0-2.1-0.1-3.6,1.2-5.4c1-1.5,2.8-1.8,4.2-2.9c1.3-1,2.2-2.4,3.6-3.4c1-0.7,2.1-1,3.2-1.6
					c0.9-0.6,1.9-1,3-1.3c2-0.6,4.1-0.4,6.1-1c2.2-0.6,4.3-1.3,6.6-1.8c0.8-0.2,1.6-0.1,2.4-0.3c1-0.2,1.8-0.4,2.9-0.4
					s2.8-0.3,3.9,0.1c-0.1,0.5-1.1,0.8-1.5,0.9s-0.9,0-1.4,0.1c-0.3,0.1-0.4,0.3-0.7,0.4c-1.1,0.3-2.4-0.1-3.5,0.1
					c-1.2,0.2-2.5,0.3-3.7,0.6c-1.9,0.5-3.6,1.5-5.5,2.1c-1,0.3-2.1,0.5-3.1,0.8c-0.6,0.2-2.8,0.5-2.9,1.4c1.2,0.4,2.3-0.6,3.6-0.3
					c1.2,0.3,1.2,0.8,0.3,1.5c-1.3,0.9-2.1,2.3-3.2,3.5c-0.3,0.3-0.6,0.8-1.1,0.9s-1.1,0-1.6,0.2c-0.6,0.2-1.3,0.3-1.9,0.5
					c-0.8,0.3-1.2,0.8-1.9,1.3c-1.3,0.8-2.9,2.4-4.5,2.7C128,123.4,127.1,123.7,124.6,124.6z"/>
				<path class="st6" d="M164.8,105.6c0.7-0.3,2.9-1.7,4-0.9c0.6,0.4,0.4,1,0,1.3c-0.2,0.2-1.1,0.3-1.4,0.4
					c-0.7,0.1-1.2-0.1-1.8-0.4L164.8,105.6z"/>
			</g>
		</g>
		<path class="st8" d="M125.4,153.2c-2.5,0.7-2.4,11.3,2.7,13.7c5,2.5,8.9-2.6,8.9-6.9C137,155.6,128.7,152.3,125.4,153.2z"/>
	</g>
	<g>
		
			<radialGradient id="SVGID_2_" cx="164.9032" cy="344.8951" r="197.9577" gradientTransform="matrix(0.995 -9.965619e-02 9.965619e-02 0.995 -27.9574 -92.0824)" gradientUnits="userSpaceOnUse">
			<stop  offset="0" style="stop-color:#B1F000"/>
			<stop  offset="0.9944" style="stop-color:#6A9A00"/>
		</radialGradient>
		<path class="st9" d="M75.5,213.6c0,0,8.1,12.6,52,15.9c44,3.3,105.7-6.9,123.3,49.6c0,0-99.8-10.3-124.1-20.1
			C102.4,249,75.5,213.6,75.5,213.6z"/>
		
			<radialGradient id="SVGID_3_" cx="169.3039" cy="339.5322" r="79.9341" gradientTransform="matrix(0.995 -9.965619e-02 9.965619e-02 0.995 -27.9574 -92.0824)" gradientUnits="userSpaceOnUse">
			<stop  offset="0" style="stop-color:#C2D800"/>
			<stop  offset="0.9944" style="stop-color:#6A9A00"/>
		</radialGradient>
		<path class="st10" d="M285.6,295.8c0,0-11.2,1.2-23.5,2.1c-3.4,0.2-6.8,0.5-10.1,0.7c-0.5,0-1,0.1-1.4,0c-0.9,0.1-2,0.1-3.1,0.2
			h-0.1c-17.7,1.8-57.2,10.6-114.4-13.9c-35.5-15.2-51.8-54.8-56.3-67.4c-0.7-1.9-1-3.2-1.2-3.7c0-0.1,0-0.2,0-0.2
			c0.2,0.3,0.5,0.4,0.8,0.7c5.8,5.6,12.8,9.2,20.8,11.6c0.2,0.1,0.3,0.1,0.5,0.1c0.4,0.2,0.7,0.2,1,0.3c0.8,0.2,1.8,0.5,2.7,0.7
			c0.2,0.1,0.3,0.1,0.4,0.1s0.1,0,0.1,0l0,0c28.4,6.9,66.8,1.1,102.9,11.3c26.7,7.5,38.4,22.5,44,35.3c4.7,10.8,5,20,6.2,21.9
			c0.7,1.1,3.4,1.4,6.6,1c8.5-0.7,21.8-4.7,21.8-4.7L285.6,295.8z"/>
		<path class="st0" d="M285.6,295.8c0,0-18.1,1.9-33.7,2.8c1.1-3.8,0.3-14.9-3.1-24.6c4.7,10.8,5,20,6.2,21.9
			c2.7,3.9,28.5-3.7,28.5-3.7L285.6,295.8z"/>
		<g>
			<g>
				<path class="st11" d="M113.8,273.5c-14.6-20.1-19.7-48.1-19.7-48.4h0.4c0,0.3,5,28.1,19.6,48.2L113.8,273.5z"/>
			</g>
			<g>
				<path class="st11" d="M132.9,285.1c-19.3-28.5-20.5-55.5-20.6-55.8h0.4c0,0.3,1.2,27.1,20.5,55.6L132.9,285.1z"/>
			</g>
			<g>
				<path class="st11" d="M161,295.1c-14.9-18.9-24.4-62.9-24.5-63.4h0.4c0.1,0.4,9.7,44.3,24.4,63.2L161,295.1z"/>
			</g>
			<g>
				<path class="st11" d="M168,296.8c-13.9-20.2-19.8-64.8-19.9-65.1h0.4c0,0.5,6,44.8,19.8,65L168,296.8z"/>
			</g>
			<g>
				<path class="st11" d="M197,301.4c-8.7-16.1-23.1-67.8-23.2-68.3l0.4-0.1c0.1,0.5,14.6,52.2,23.2,68.3L197,301.4z"/>
			</g>
			<g>
				<path class="st11" d="M220.9,301.7c-4.9-14.6-11.5-61.1-11.6-61.6h0.4c0,0.5,6.7,47,11.6,61.5L220.9,301.7z"/>
			</g>
			<g>
				<path class="st11" d="M231.7,300.8c-3.5-16.2-0.1-48.3,0-48.6l0.4,0.1c-0.1,0.3-3.4,32.4,0,48.5H231.7z"/>
			</g>
			<g>
				<path class="st11" d="M243.4,299.6c-3-14.8-1.3-36.7-1.2-36.9l0.4,0.1c0,0.2-1.7,22.1,1.2,36.8H243.4z"/>
			</g>
		</g>
		<path class="st12" d="M178.3,233.7c0,0,6.4,40,26.2,68.1l16.6-0.2c0,0-9.1-39-11.6-61.6L178.3,233.7z"/>
		<path class="st12" d="M95.6,225.6c0,0,2.9,27.1,20.7,49.1c0,0,8,6.7,15.8,10c0,0-15.3-21-20.8-55.4L95.6,225.6z"/>
		<path class="st13" d="M125.2,230.6c0,0,29.3,0.8,45.9,2.7c21.5,2.5,52.3,6.8,69.2,26.8c0,0-13.4-19.6-46.6-24.8
			C160.6,230.2,125.2,230.6,125.2,230.6z"/>
		<path class="st14" d="M262,297.9c-3.4,0.2-6.8,0.5-10.1,0.7c-0.5,0-1,0.1-1.4,0c-0.9,0.1-2,0.1-3.1,0.2h-0.1
			c-17.7,1.8-57.2,10.6-114.4-13.9c-35.5-15.2-51.8-54.8-56.3-67.4c-0.7-1.9-1-3.2-1.2-3.7c0-0.1,0-0.2,0-0.2
			c0.2,0.3,0.5,0.4,0.8,0.7c0.3,0.4,0.8,0.6,1.1,1c6.6,5.8,14.7,9,19.7,10.6c0.2,0.1,0.3,0.1,0.5,0.1c0.4,0.2,0.7,0.2,1,0.3
			c1.1,0.4,2.1,0.6,2.7,0.7c0.2,0.1,0.3,0.1,0.4,0.1s0.1,0,0.1,0l0,0c0,0-4.2,10.8,8.6,31.5c12.8,20.7,76.7,42.9,107.6,38.9
			c30.9-3.9,30.9-23.8,30.9-23.8c4.7,10.8,5,20,6.2,21.9c0.7,1.1,3.4,1.4,6.6,1C261.8,297.2,261.9,297.6,262,297.9z"/>
		
			<radialGradient id="SVGID_4_" cx="162.327" cy="354.6534" r="206.1482" gradientTransform="matrix(0.995 -9.965619e-02 9.965619e-02 0.995 -27.9574 -92.0824)" gradientUnits="userSpaceOnUse">
			<stop  offset="0" style="stop-color:#B1F000"/>
			<stop  offset="0.9944" style="stop-color:#6A9A00"/>
		</radialGradient>
		<path class="st15" d="M247.3,298.8c-17.7,1.8-57.2,10.6-114.4-13.9c-35.5-15.2-51.8-54.8-56.3-67.4c3.5,9.8,13.6,38.6,45.3,59.8
			C163.5,305,224.8,301.9,247.3,298.8z"/>
		<path class="st13" d="M139,244c0,0,6.7,27,14.5,39C153.5,283,145.8,274.4,139,244z"/>
		<path class="st13" d="M174.7,237.5c0,0,8.4,33.2,18.6,56.6C193.4,294.2,179.4,265.1,174.7,237.5z"/>
		<path class="st13" d="M209.6,241.7c0,0,1.1,29.5,10.5,57.7C220.1,299.4,212.5,270.1,209.6,241.7z"/>
		<path class="st13" d="M122.9,269.4c0,0-11.5-27-11-39C111.8,230.4,110.4,245,122.9,269.4z"/>
	</g>
</g>
<g id="Bubbles" class="st16">
	<g class="st17">
		
			<radialGradient id="SVGID_5_" cx="293.9695" cy="63.9579" r="9.7256" gradientTransform="matrix(1 0 0 1.0148 0 14.5781)" gradientUnits="userSpaceOnUse">
			<stop  offset="0" style="stop-color:#F3F3F7"/>
			<stop  offset="0.5168" style="stop-color:#81ACE2"/>
			<stop  offset="0.8911" style="stop-color:#4B63D3"/>
		</radialGradient>
		<path class="st18" d="M300,74.3c0,3.7-3,6.7-6.7,6.7s-6.7-3-6.7-6.7s3-6.7,6.7-6.7C297,67.6,300,70.6,300,74.3z"/>
		<path class="st8" d="M287.2,72.1c0,0,1.7-4.3,5.9-4.3s6.3,3.5,6.3,3.5s-2.3-3.4-6.6-3C288.4,68.7,287.2,72.1,287.2,72.1z"/>
		<g>
			
				<linearGradient id="SVGID_6_" gradientUnits="userSpaceOnUse" x1="293.3" y1="185.4577" x2="293.3" y2="171.4381" gradientTransform="matrix(1 0 0 1 0 -104.1317)">
				<stop  offset="0" style="stop-color:#BFC2F4"/>
				<stop  offset="0.9944" style="stop-color:#4860C4"/>
			</linearGradient>
			<path class="st19" d="M293.3,81.3c-3.9,0-7-3.1-7-7s3.1-7,7-7s7,3.1,7,7S297.1,81.3,293.3,81.3z M293.3,67.9
				c-3.5,0-6.4,2.9-6.4,6.4s2.9,6.4,6.4,6.4s6.4-2.9,6.4-6.4S296.8,67.9,293.3,67.9z"/>
		</g>
		<path class="st20" d="M287.9,78.3c0,0,2.8-4,6.8-4c3.9,0,4.5,3.2,4.5,3.2S295,84.4,287.9,78.3z"/>
		<path class="st8" d="M293.5,67.6l0.4,1.5c0,0,2.4,0.3,3.8,1.2l-0.1-0.8C297.6,69.5,295.9,67.5,293.5,67.6z"/>
		<path class="st8" d="M295.1,80.3l-0.4-0.6c0,0,2.1-0.9,3.3-2.4l0.9,0.7C298.8,78,297.5,79.8,295.1,80.3z"/>
	</g>
	<g class="st17">
		
			<radialGradient id="SVGID_7_" cx="225.7482" cy="82.4629" r="5.8909" gradientTransform="matrix(1 0 0 1.0148 0 14.5781)" gradientUnits="userSpaceOnUse">
			<stop  offset="0" style="stop-color:#F3F3F7"/>
			<stop  offset="0.5168" style="stop-color:#81ACE2"/>
			<stop  offset="0.8911" style="stop-color:#4B63D3"/>
		</radialGradient>
		<path class="st21" d="M229.4,95.1c0,2.2-1.8,4.1-4.1,4.1c-2.2,0-4.1-1.8-4.1-4.1c0-2.2,1.8-4.1,4.1-4.1
			C227.6,91.1,229.4,92.9,229.4,95.1z"/>
		<path class="st8" d="M221.6,93.8c0,0,1-2.6,3.6-2.6c2.5,0,3.8,2.1,3.8,2.1s-1.4-2-4-1.8C222.4,91.7,221.6,93.8,221.6,93.8z"/>
		<g>
			
				<linearGradient id="SVGID_8_" gradientUnits="userSpaceOnUse" x1="225.3" y1="203.6317" x2="225.3" y2="194.9135" gradientTransform="matrix(1 0 0 1 0 -104.1317)">
				<stop  offset="0" style="stop-color:#BFC2F4"/>
				<stop  offset="0.9944" style="stop-color:#4860C4"/>
			</linearGradient>
			<path class="st22" d="M225.3,99.5c-2.4,0-4.4-2-4.4-4.4s2-4.4,4.4-4.4s4.4,2,4.4,4.4S227.7,99.5,225.3,99.5z M225.3,91.3
				c-2.1,0-3.8,1.7-3.8,3.8c0,2.1,1.7,3.8,3.8,3.8s3.8-1.7,3.8-3.8S227.4,91.3,225.3,91.3z"/>
		</g>
		<path class="st20" d="M222.1,97.6c0,0,1.7-2.4,4.1-2.4c2.4,0,2.7,2,2.7,2S226.4,101.2,222.1,97.6z"/>
		<path class="st8" d="M225.5,91.1l0.2,0.9c0,0,1.5,0.2,2.3,0.7v-0.5C228,92.2,226.9,91,225.5,91.1z"/>
		<path class="st8" d="M226.5,98.8l-0.3-0.4c0,0,1.2-0.6,2-1.4l0.5,0.4C228.7,97.4,227.9,98.5,226.5,98.8z"/>
	</g>
	<g class="st17">
		
			<radialGradient id="SVGID_9_" cx="43.0698" cy="304.0895" r="5.8909" gradientTransform="matrix(1 0 0 1.0148 0 14.5781)" gradientUnits="userSpaceOnUse">
			<stop  offset="0" style="stop-color:#F3F3F7"/>
			<stop  offset="0.5168" style="stop-color:#81ACE2"/>
			<stop  offset="0.8911" style="stop-color:#4B63D3"/>
		</radialGradient>
		<path class="st23" d="M46.7,320c0,2.2-1.8,4.1-4.1,4.1s-4.1-1.8-4.1-4.1c0-2.2,1.8-4.1,4.1-4.1S46.7,317.8,46.7,320z"/>
		<path class="st8" d="M39,318.7c0,0,1-2.6,3.6-2.6c2.5,0,3.8,2.1,3.8,2.1s-1.4-2-4-1.8C39.7,316.6,39,318.7,39,318.7z"/>
		<g>
			
				<linearGradient id="SVGID_10_" gradientUnits="userSpaceOnUse" x1="42.6" y1="428.5317" x2="42.6" y2="419.8135" gradientTransform="matrix(1 0 0 1 0 -104.1317)">
				<stop  offset="0" style="stop-color:#BFC2F4"/>
				<stop  offset="0.9944" style="stop-color:#4860C4"/>
			</linearGradient>
			<path class="st24" d="M42.6,324.4c-2.4,0-4.4-2-4.4-4.4s2-4.4,4.4-4.4s4.4,2,4.4,4.4S45,324.4,42.6,324.4z M42.6,316.2
				c-2.1,0-3.8,1.7-3.8,3.8c0,2.1,1.7,3.8,3.8,3.8s3.8-1.7,3.8-3.8C46.4,317.9,44.7,316.2,42.6,316.2z"/>
		</g>
		<path class="st20" d="M39.4,322.5c0,0,1.7-2.4,4.1-2.4s2.7,2,2.7,2S43.7,326.1,39.4,322.5z"/>
		<path class="st8" d="M42.8,316l0.2,0.9c0,0,1.5,0.2,2.3,0.7v-0.5C45.3,317.1,44.3,315.9,42.8,316z"/>
		<path class="st8" d="M43.8,323.7l-0.3-0.4c0,0,1.2-0.6,2-1.4l0.5,0.4C46,322.3,45.2,323.4,43.8,323.7z"/>
	</g>
	<g class="st17">
		
			<radialGradient id="SVGID_11_" cx="306.018" cy="130.2707" r="7.1502" gradientTransform="matrix(1 0 0 1.0148 0 14.5781)" gradientUnits="userSpaceOnUse">
			<stop  offset="0" style="stop-color:#F3F3F7"/>
			<stop  offset="0.5168" style="stop-color:#81ACE2"/>
			<stop  offset="0.8911" style="stop-color:#4B63D3"/>
		</radialGradient>
		<path class="st25" d="M310.4,143c0,2.7-2.2,4.9-4.9,4.9s-4.9-2.2-4.9-4.9s2.2-4.9,4.9-4.9C308.2,138,310.4,140.2,310.4,143z"/>
		<path class="st8" d="M301,141.3c0,0,1.3-3.1,4.3-3.1s4.6,2.6,4.6,2.6s-1.7-2.5-4.9-2.2C301.9,138.8,301,141.3,301,141.3z"/>
		<g>
			
				<linearGradient id="SVGID_12_" gradientUnits="userSpaceOnUse" x1="305.5" y1="252.3317" x2="305.5" y2="241.8723" gradientTransform="matrix(1 0 0 1 0 -104.1317)">
				<stop  offset="0" style="stop-color:#BFC2F4"/>
				<stop  offset="0.9944" style="stop-color:#4860C4"/>
			</linearGradient>
			<path class="st26" d="M305.5,148.2c-2.9,0-5.2-2.3-5.2-5.2s2.3-5.2,5.2-5.2s5.2,2.3,5.2,5.2S308.4,148.2,305.5,148.2z
				 M305.5,138.3c-2.6,0-4.7,2.1-4.7,4.7s2.1,4.7,4.7,4.7s4.7-2.1,4.7-4.7S308.1,138.3,305.5,138.3z"/>
		</g>
		<path class="st20" d="M301.5,145.9c0,0,2.1-3,5-3s3.3,2.4,3.3,2.4S306.8,150.4,301.5,145.9z"/>
		<path class="st8" d="M305.7,138l0.3,1.1c0,0,1.8,0.2,2.8,0.9l-0.1-0.6C308.7,139.4,307.5,138,305.7,138z"/>
		<path class="st8" d="M306.9,147.4l-0.3-0.5c0,0,1.5-0.7,2.4-1.7l0.6,0.5C309.6,145.7,308.6,147,306.9,147.4z"/>
	</g>
	<g class="st17">
		
			<radialGradient id="SVGID_13_" cx="290.4501" cy="198.4565" r="4.0631" gradientTransform="matrix(1 0 0 1.0148 0 14.5781)" gradientUnits="userSpaceOnUse">
			<stop  offset="0" style="stop-color:#F3F3F7"/>
			<stop  offset="0.5168" style="stop-color:#81ACE2"/>
			<stop  offset="0.8911" style="stop-color:#4B63D3"/>
		</radialGradient>
		<path class="st27" d="M293,213.8c0,1.6-1.3,2.8-2.8,2.8c-1.6,0-2.8-1.3-2.8-2.8c0-1.6,1.3-2.8,2.8-2.8S293,212.3,293,213.8z"/>
		<path class="st8" d="M287.6,212.9c0,0,0.7-1.8,2.5-1.8c1.7,0,2.6,1.5,2.6,1.5s-1-1.4-2.8-1.3C288.1,211.4,287.6,212.9,287.6,212.9
			z"/>
		<g>
			
				<linearGradient id="SVGID_14_" gradientUnits="userSpaceOnUse" x1="290.2" y1="321.0383" x2="290.2" y2="314.8471" gradientTransform="matrix(1 0 0 1 0 -104.1317)">
				<stop  offset="0" style="stop-color:#BFC2F4"/>
				<stop  offset="0.9944" style="stop-color:#4860C4"/>
			</linearGradient>
			<path class="st28" d="M290.2,216.9c-1.7,0-3.1-1.4-3.1-3.1c0-1.7,1.4-3.1,3.1-3.1s3.1,1.4,3.1,3.1S291.9,216.9,290.2,216.9z
				 M290.2,211.3c-1.4,0-2.5,1.1-2.5,2.5s1.1,2.5,2.5,2.5s2.5-1.1,2.5-2.5S291.5,211.3,290.2,211.3z"/>
		</g>
		<path class="st20" d="M287.9,215.5c0,0,1.2-1.7,2.8-1.7s1.9,1.3,1.9,1.3S290.9,218,287.9,215.5z"/>
		<path class="st8" d="M290.3,211l0.2,0.6c0,0,1,0.1,1.6,0.5v-0.3C292,211.8,291.3,211,290.3,211z"/>
		<path class="st8" d="M290.9,216.3l-0.2-0.3c0,0,0.9-0.4,1.4-1l0.4,0.3C292.5,215.3,291.9,216.1,290.9,216.3z"/>
	</g>
	<g class="st17">
		
			<radialGradient id="SVGID_15_" cx="24.2363" cy="292.5337" r="4.063" gradientTransform="matrix(1 0 0 1.0148 0 14.5781)" gradientUnits="userSpaceOnUse">
			<stop  offset="0" style="stop-color:#F3F3F7"/>
			<stop  offset="0.5168" style="stop-color:#81ACE2"/>
			<stop  offset="0.8911" style="stop-color:#4B63D3"/>
		</radialGradient>
		<path class="st29" d="M26.8,309.3c0,1.6-1.3,2.8-2.8,2.8s-2.8-1.3-2.8-2.8c0-1.6,1.3-2.8,2.8-2.8S26.8,307.7,26.8,309.3z"/>
		<path class="st8" d="M21.4,308.4c0,0,0.7-1.8,2.5-1.8s2.6,1.5,2.6,1.5s-1-1.4-2.8-1.3C21.9,306.9,21.4,308.4,21.4,308.4z"/>
		<g>
			
				<linearGradient id="SVGID_16_" gradientUnits="userSpaceOnUse" x1="23.9" y1="416.5102" x2="23.9" y2="410.319" gradientTransform="matrix(1 0 0 1 0 -104.1317)">
				<stop  offset="0" style="stop-color:#BFC2F4"/>
				<stop  offset="0.9944" style="stop-color:#4860C4"/>
			</linearGradient>
			<path class="st30" d="M23.9,312.4c-1.7,0-3.1-1.4-3.1-3.1s1.4-3.1,3.1-3.1s3.1,1.4,3.1,3.1S25.7,312.4,23.9,312.4z M23.9,306.8
				c-1.4,0-2.5,1.1-2.5,2.5s1.1,2.5,2.5,2.5s2.5-1.1,2.5-2.5C26.5,307.9,25.3,306.8,23.9,306.8z"/>
		</g>
		<path class="st20" d="M21.7,311c0,0,1.2-1.7,2.8-1.7s1.9,1.3,1.9,1.3S24.7,313.5,21.7,311z"/>
		<path class="st8" d="M24.1,306.5l0.2,0.6c0,0,1,0.1,1.6,0.5v-0.3C25.8,307.3,25.1,306.4,24.1,306.5z"/>
		<path class="st8" d="M24.7,311.8l-0.2-0.3c0,0,0.9-0.4,1.4-1l0.4,0.3C26.3,310.8,25.7,311.6,24.7,311.8z"/>
	</g>
	<g class="st17">
		
			<radialGradient id="SVGID_17_" cx="337.7838" cy="164.8769" r="3.7289" gradientTransform="matrix(1 0 0 1.0148 0 14.5781)" gradientUnits="userSpaceOnUse">
			<stop  offset="0" style="stop-color:#F3F3F7"/>
			<stop  offset="0.5168" style="stop-color:#81ACE2"/>
			<stop  offset="0.8911" style="stop-color:#4B63D3"/>
		</radialGradient>
		<path class="st31" d="M340.1,179.9c0,1.4-1.2,2.6-2.6,2.6s-2.6-1.2-2.6-2.6c0-1.4,1.2-2.6,2.6-2.6S340.1,178.5,340.1,179.9z"/>
		<path class="st8" d="M335.2,179.1c0,0,0.7-1.6,2.3-1.6s2.4,1.3,2.4,1.3s-0.9-1.3-2.5-1.2C335.6,177.7,335.2,179.1,335.2,179.1z"/>
		<g>
			
				<linearGradient id="SVGID_18_" gradientUnits="userSpaceOnUse" x1="337.5" y1="286.887" x2="337.5" y2="281.2049" gradientTransform="matrix(1 0 0 1 0 -104.1317)">
				<stop  offset="0" style="stop-color:#BFC2F4"/>
				<stop  offset="0.9944" style="stop-color:#4860C4"/>
			</linearGradient>
			<path class="st32" d="M337.5,182.7c-1.6,0-2.8-1.3-2.8-2.8s1.3-2.8,2.8-2.8c1.6,0,2.8,1.3,2.8,2.8S339.1,182.7,337.5,182.7z
				 M337.5,177.6c-1.3,0-2.3,1-2.3,2.3s1,2.3,2.3,2.3s2.3-1,2.3-2.3S338.8,177.6,337.5,177.6z"/>
		</g>
		<path class="st20" d="M335.5,181.5c0,0,1.1-1.5,2.6-1.5s1.7,1.2,1.7,1.2S338.2,183.8,335.5,181.5z"/>
		<path class="st8" d="M337.6,177.3l0.1,0.6c0,0,0.9,0.1,1.5,0.4V178C339.2,178.1,338.5,177.3,337.6,177.3z"/>
		<path class="st8" d="M338.2,182.2L338,182c0,0,0.8-0.4,1.3-0.9l0.3,0.3C339.7,181.3,339.2,182,338.2,182.2z"/>
	</g>
	<g class="st17">
		
			<radialGradient id="SVGID_19_" cx="46.1854" cy="124.3117" r="4.0631" gradientTransform="matrix(1 0 0 1.0148 0 14.5781)" gradientUnits="userSpaceOnUse">
			<stop  offset="0" style="stop-color:#F3F3F7"/>
			<stop  offset="0.5168" style="stop-color:#81ACE2"/>
			<stop  offset="0.8911" style="stop-color:#4B63D3"/>
		</radialGradient>
		<circle class="st33" cx="45.9" cy="138.6" r="2.8"/>
		<path class="st8" d="M43.4,137.6c0,0,0.7-1.8,2.5-1.8c1.7,0,2.6,1.5,2.6,1.5s-1-1.4-2.8-1.3C43.9,136.2,43.4,137.6,43.4,137.6z"/>
		<g>
			
				<linearGradient id="SVGID_20_" gradientUnits="userSpaceOnUse" x1="45.9" y1="245.7991" x2="45.9" y2="239.6072" gradientTransform="matrix(1 0 0 1 0 -104.1317)">
				<stop  offset="0" style="stop-color:#BFC2F4"/>
				<stop  offset="0.9944" style="stop-color:#4860C4"/>
			</linearGradient>
			<path class="st34" d="M45.9,141.7c-1.7,0-3.1-1.4-3.1-3.1c0-1.7,1.4-3.1,3.1-3.1s3.1,1.4,3.1,3.1S47.6,141.7,45.9,141.7z
				 M45.9,136c-1.4,0-2.5,1.1-2.5,2.5s1.1,2.5,2.5,2.5s2.5-1.1,2.5-2.5C48.4,137.2,47.3,136,45.9,136z"/>
		</g>
		<path class="st20" d="M43.6,140.3c0,0,1.2-1.7,2.8-1.7s1.9,1.3,1.9,1.3S46.6,142.8,43.6,140.3z"/>
		<path class="st8" d="M46,135.8l0.2,0.6c0,0,1,0.1,1.6,0.5v-0.3C47.7,136.5,47,135.7,46,135.8z"/>
		<path class="st8" d="M46.7,141.1l-0.2-0.3c0,0,0.9-0.4,1.4-1l0.4,0.3C48.2,140.1,47.7,140.9,46.7,141.1z"/>
	</g>
	<g class="st17">
		
			<radialGradient id="SVGID_21_" cx="26.6763" cy="138.052" r="6.4482" gradientTransform="matrix(1 0 0 1.0148 0 14.5781)" gradientUnits="userSpaceOnUse">
			<stop  offset="0" style="stop-color:#F3F3F7"/>
			<stop  offset="0.5168" style="stop-color:#81ACE2"/>
			<stop  offset="0.8911" style="stop-color:#4B63D3"/>
		</radialGradient>
		<circle class="st35" cx="26.2" cy="151.2" r="4.5"/>
		<path class="st8" d="M22.2,149.8c0,0,1.1-2.8,3.9-2.8s4.2,2.3,4.2,2.3s-1.5-2.2-4.4-2S22.2,149.8,22.2,149.8z"/>
		<g>
			
				<linearGradient id="SVGID_22_" gradientUnits="userSpaceOnUse" x1="26.2" y1="260.2931" x2="26.2" y2="250.4665" gradientTransform="matrix(1 0 0 1 0 -104.1317)">
				<stop  offset="0" style="stop-color:#BFC2F4"/>
				<stop  offset="0.9944" style="stop-color:#4860C4"/>
			</linearGradient>
			<path class="st36" d="M26.2,156.2c-2.7,0-4.9-2.2-4.9-4.9s2.2-4.9,4.9-4.9s4.9,2.2,4.9,4.9S28.9,156.2,26.2,156.2z M26.2,147.2
				c-2.2,0-4,1.8-4,4s1.8,4,4,4s4-1.8,4-4S28.4,147.2,26.2,147.2z"/>
		</g>
		<path class="st20" d="M22.6,153.9c0,0,1.9-2.7,4.5-2.7s3,2.1,3,2.1S27.4,157.9,22.6,153.9z"/>
		<path class="st8" d="M26.4,146.8l0.3,1c0,0,1.6,0.2,2.5,0.8v-0.5C29.1,148,28,146.7,26.4,146.8z"/>
		<path class="st8" d="M27.5,155.2l-0.3-0.4c0,0,1.4-0.6,2.2-1.6l0.6,0.5C29.9,153.7,29,154.9,27.5,155.2z"/>
	</g>
</g>
</svg>
