<?xml version="1.0" encoding="utf-8"?>
<!-- Generator: Adobe Illustrator 25.0.1, SVG Export Plug-In . SVG Version: 6.00 Build 0)  -->
<svg version="1.1" id="Layer_1" xmlns="http://www.w3.org/2000/svg" xmlns:xlink="http://www.w3.org/1999/xlink" x="0px" y="0px"
	 viewBox="0 0 349.7 333.5" style="enable-background:new 0 0 349.7 333.5;" xml:space="preserve">
<style type="text/css">
	.st0{fill-rule:evenodd;clip-rule:evenodd;fill:url(#SVGID_1_);}
	.st1{fill-rule:evenodd;clip-rule:evenodd;fill:#FFFFFF;}
	.st2{fill:url(#SVGID_2_);}
	.st3{opacity:0.52;fill-rule:evenodd;clip-rule:evenodd;fill:#FFFFFF;enable-background:new    ;}
	.st4{fill-rule:evenodd;clip-rule:evenodd;fill:url(#SVGID_3_);}
	.st5{fill:url(#SVGID_4_);}
	.st6{fill-rule:evenodd;clip-rule:evenodd;fill:url(#SVGID_5_);}
	.st7{fill:url(#SVGID_6_);}
	.st8{fill-rule:evenodd;clip-rule:evenodd;fill:url(#SVGID_7_);}
	.st9{fill:url(#SVGID_8_);}
	.st10{fill-rule:evenodd;clip-rule:evenodd;fill:url(#SVGID_9_);}
	.st11{fill:url(#SVGID_10_);}
	.st12{fill-rule:evenodd;clip-rule:evenodd;fill:url(#SVGID_11_);}
	.st13{fill:url(#SVGID_12_);}
	.st14{fill-rule:evenodd;clip-rule:evenodd;fill:url(#SVGID_13_);}
	.st15{fill:url(#SVGID_14_);}
	.st16{fill-rule:evenodd;clip-rule:evenodd;fill:url(#SVGID_15_);}
	.st17{fill:url(#SVGID_16_);}
	.st18{fill-rule:evenodd;clip-rule:evenodd;fill:url(#SVGID_17_);}
	.st19{fill:url(#SVGID_18_);}
	.st20{fill-rule:evenodd;clip-rule:evenodd;fill:url(#SVGID_19_);}
	.st21{fill:url(#SVGID_20_);}
	.st22{fill-rule:evenodd;clip-rule:evenodd;fill:url(#SVGID_21_);}
	.st23{fill:url(#SVGID_22_);}
	.st24{fill-rule:evenodd;clip-rule:evenodd;fill:url(#SVGID_23_);}
	.st25{fill:url(#SVGID_24_);}
	.st26{fill-rule:evenodd;clip-rule:evenodd;fill:url(#SVGID_25_);}
	.st27{fill:url(#SVGID_26_);}
	.st28{fill-rule:evenodd;clip-rule:evenodd;fill:url(#SVGID_27_);}
	.st29{fill:url(#SVGID_28_);}
</style>
<g>
	
		<radialGradient id="SVGID_1_" cx="26.6763" cy="147.9062" r="6.4482" fx="33.0169" fy="146.7332" gradientTransform="matrix(1 0 0 1.0148 0 14.5781)" gradientUnits="userSpaceOnUse">
		<stop  offset="0" style="stop-color:#F3F3F7"/>
		<stop  offset="0.5168" style="stop-color:#81ACE2"/>
		<stop  offset="0.8911" style="stop-color:#10B5C9"/>
	</radialGradient>
	<circle class="st0" cx="26.2" cy="161.2" r="4.5"/>
	<path class="st1" d="M22.2,159.8c0,0,1.1-2.8,3.9-2.8s4.2,2.3,4.2,2.3s-1.5-2.2-4.4-2S22.2,159.8,22.2,159.8z"/>
	<g>
		
			<linearGradient id="SVGID_2_" gradientUnits="userSpaceOnUse" x1="26.2" y1="270.2931" x2="26.2" y2="260.4665" gradientTransform="matrix(1 0 0 1 0 -104.1317)">
			<stop  offset="0" style="stop-color:#399AEA"/>
			<stop  offset="0.9944" style="stop-color:#10B5C9"/>
		</linearGradient>
		<path class="st2" d="M26.2,166.2c-2.7,0-4.9-2.2-4.9-4.9s2.2-4.9,4.9-4.9s4.9,2.2,4.9,4.9S28.9,166.2,26.2,166.2z M26.2,157.2
			c-2.2,0-4,1.8-4,4s1.8,4,4,4s4-1.8,4-4S28.4,157.2,26.2,157.2z"/>
	</g>
	<path class="st3" d="M22.6,163.9c0,0,1.9-2.7,4.5-2.7s3,2.1,3,2.1S27.4,167.9,22.6,163.9z"/>
	<path class="st1" d="M26.4,156.8l0.3,1c0,0,1.6,0.2,2.5,0.8v-0.5C29.1,158,28,156.7,26.4,156.8z"/>
	<path class="st1" d="M27.5,165.2l-0.3-0.4c0,0,1.4-0.6,2.2-1.6l0.6,0.5C29.9,163.7,29,164.9,27.5,165.2z"/>
</g>
<g>
	
		<radialGradient id="SVGID_3_" cx="47.6737" cy="131.8643" r="3.0225" fx="50.6458" fy="131.3145" gradientTransform="matrix(1 0 0 1.0148 0 14.5781)" gradientUnits="userSpaceOnUse">
		<stop  offset="0" style="stop-color:#F3F3F7"/>
		<stop  offset="0.5168" style="stop-color:#81ACE2"/>
		<stop  offset="0.8911" style="stop-color:#10B5C9"/>
	</radialGradient>
	<circle class="st4" cx="47.5" cy="146.8" r="2.1"/>
	<path class="st1" d="M45.6,146.1c0,0,0.5-1.3,1.8-1.3s2,1.1,2,1.1s-0.7-1-2.1-0.9C46,145,45.6,146.1,45.6,146.1z"/>
	<g>
		
			<linearGradient id="SVGID_4_" gradientUnits="userSpaceOnUse" x1="47.4505" y1="253.2233" x2="47.4505" y2="248.6172" gradientTransform="matrix(1 0 0 1 0 -104.1317)">
			<stop  offset="0" style="stop-color:#399AEA"/>
			<stop  offset="0.9944" style="stop-color:#10B5C9"/>
		</linearGradient>
		<path class="st5" d="M47.5,149.1c-1.3,0-2.3-1-2.3-2.3c0-1.3,1-2.3,2.3-2.3c1.3,0,2.3,1,2.3,2.3C49.7,148.1,48.7,149.1,47.5,149.1
			z M47.5,144.9c-1,0-1.9,0.8-1.9,1.9s0.8,1.9,1.9,1.9s1.9-0.8,1.9-1.9S48.5,144.9,47.5,144.9z"/>
	</g>
	<path class="st3" d="M45.8,148c0,0,0.9-1.3,2.1-1.3s1.4,1,1.4,1S48,149.9,45.8,148z"/>
	<path class="st1" d="M47.5,144.7l0.1,0.5c0,0,0.7,0.1,1.2,0.4v-0.2C48.8,145.3,48.3,144.7,47.5,144.7z"/>
	<path class="st1" d="M48.1,148.6l-0.1-0.2c0,0,0.7-0.3,1-0.7l0.3,0.2C49.2,147.9,48.8,148.5,48.1,148.6z"/>
</g>
<g>
	
		<radialGradient id="SVGID_5_" cx="225.7049" cy="91.8287" r="5.4821" fx="231.0956" fy="90.8314" gradientTransform="matrix(1 0 0 1.0148 0 14.5781)" gradientUnits="userSpaceOnUse">
		<stop  offset="0" style="stop-color:#F3F3F7"/>
		<stop  offset="0.5168" style="stop-color:#81ACE2"/>
		<stop  offset="0.8911" style="stop-color:#10B5C9"/>
	</radialGradient>
	<circle class="st6" cx="225.3" cy="104.8" r="3.8"/>
	<path class="st1" d="M221.9,103.6c0,0,0.9-2.4,3.3-2.4s3.6,2,3.6,2s-1.3-1.9-3.7-1.7C222.6,101.7,221.9,103.6,221.9,103.6z"/>
	<g>
		
			<linearGradient id="SVGID_6_" gradientUnits="userSpaceOnUse" x1="225.3" y1="213.1627" x2="225.3" y2="204.8083" gradientTransform="matrix(1 0 0 1 0 -104.1317)">
			<stop  offset="0" style="stop-color:#399AEA"/>
			<stop  offset="0.9944" style="stop-color:#10B5C9"/>
		</linearGradient>
		<path class="st7" d="M225.3,109.1c-2.3,0-4.2-1.9-4.2-4.2c0-2.3,1.9-4.2,4.2-4.2s4.2,1.9,4.2,4.2
			C229.5,107.2,227.6,109.1,225.3,109.1z M225.3,101.4c-1.9,0-3.4,1.5-3.4,3.4s1.5,3.4,3.4,3.4s3.4-1.5,3.4-3.4
			S227.2,101.4,225.3,101.4z"/>
	</g>
	<path class="st3" d="M222.2,107.1c0,0,1.6-2.3,3.8-2.3c2.2,0,2.6,1.8,2.6,1.8S226.3,110.5,222.2,107.1z"/>
	<path class="st1" d="M225.5,101.1l0.3,0.9c0,0,1.4,0.2,2.1,0.7v-0.4C227.8,102.1,226.8,101,225.5,101.1z"/>
	<path class="st1" d="M226.4,108.2l-0.3-0.3c0,0,1.2-0.5,1.9-1.4l0.5,0.4C228.4,106.9,227.7,108,226.4,108.2z"/>
</g>
<g>
	
		<radialGradient id="SVGID_7_" cx="297.2093" cy="76.8764" r="11.2489" fx="308.2705" fy="74.8301" gradientTransform="matrix(1 0 0 1.0148 0 14.5781)" gradientUnits="userSpaceOnUse">
		<stop  offset="0" style="stop-color:#F3F3F7"/>
		<stop  offset="0.5168" style="stop-color:#81ACE2"/>
		<stop  offset="0.8911" style="stop-color:#10B5C9"/>
	</radialGradient>
	<circle class="st8" cx="296.4" cy="86.5" r="7.9"/>
	<path class="st1" d="M289.4,84.1c0,0,1.9-4.9,6.8-4.9c4.9,0,7.3,4,7.3,4s-2.6-3.8-7.7-3.5C290.8,80.1,289.4,84.1,289.4,84.1z"/>
	<g>
		
			<linearGradient id="SVGID_8_" gradientUnits="userSpaceOnUse" x1="296.3784" y1="199.32" x2="296.3784" y2="182.1775" gradientTransform="matrix(1 0 0 1 0 -104.1317)">
			<stop  offset="0" style="stop-color:#399AEA"/>
			<stop  offset="0.9944" style="stop-color:#10B5C9"/>
		</linearGradient>
		<path class="st9" d="M296.4,95.3c-4.7,0-8.5-3.8-8.5-8.5s3.8-8.5,8.5-8.5s8.5,3.8,8.5,8.5S301.1,95.3,296.4,95.3z M296.4,79.6
			c-3.8,0-7,3.1-7,7c0,3.8,3.1,7,7,7s7-3.1,7-7C303.4,82.7,300.2,79.6,296.4,79.6z"/>
	</g>
	<path class="st3" d="M290.1,91.2c0,0,3.3-4.7,7.9-4.7c4.5,0,5.2,3.7,5.2,3.7S298.5,98.2,290.1,91.2z"/>
	<path class="st1" d="M296.7,78.9l0.5,1.7c0,0,2.8,0.3,4.4,1.4v-0.9C301.4,81,299.5,78.7,296.7,78.9z"/>
	<path class="st1" d="M298.6,93.5l-0.5-0.7c0,0,2.4-1,3.8-2.8l1,0.9C302.8,90.9,301.3,93,298.6,93.5z"/>
</g>
<g>
	
		<radialGradient id="SVGID_9_" cx="306.219" cy="128.0756" r="7.0262" fx="313.128" fy="126.7974" gradientTransform="matrix(1 0 0 1.0148 0 14.5781)" gradientUnits="userSpaceOnUse">
		<stop  offset="0" style="stop-color:#F3F3F7"/>
		<stop  offset="0.5168" style="stop-color:#81ACE2"/>
		<stop  offset="0.8911" style="stop-color:#10B5C9"/>
	</radialGradient>
	<circle class="st10" cx="305.7" cy="140.8" r="4.9"/>
	<path class="st1" d="M301.3,139.2c0,0,1.2-3.1,4.2-3.1c3.1,0,4.6,2.5,4.6,2.5s-1.6-2.4-4.8-2.2
		C302.2,136.7,301.3,139.2,301.3,139.2z"/>
	<g>
		
			<linearGradient id="SVGID_10_" gradientUnits="userSpaceOnUse" x1="305.7" y1="250.3024" x2="305.7" y2="239.595" gradientTransform="matrix(1 0 0 1 0 -104.1317)">
			<stop  offset="0" style="stop-color:#399AEA"/>
			<stop  offset="0.9944" style="stop-color:#10B5C9"/>
		</linearGradient>
		<path class="st11" d="M305.7,146.2c-2.9,0-5.3-2.4-5.3-5.3s2.4-5.3,5.3-5.3s5.3,2.4,5.3,5.3S308.6,146.2,305.7,146.2z
			 M305.7,136.4c-2.4,0-4.4,2-4.4,4.4c0,2.4,2,4.4,4.4,4.4s4.4-2,4.4-4.4C310.1,138.4,308.1,136.4,305.7,136.4z"/>
	</g>
	<path class="st3" d="M301.8,143.7c0,0,2.1-2.9,4.9-2.9s3.3,2.3,3.3,2.3S307,148.1,301.8,143.7z"/>
	<path class="st1" d="M305.9,136l0.3,1.1c0,0,1.7,0.2,2.7,0.9v-0.5C308.9,137.3,307.7,135.9,305.9,136z"/>
	<path class="st1" d="M307.1,145.1l-0.3-0.4c0,0,1.5-0.7,2.4-1.7l0.7,0.5C309.7,143.5,308.8,144.8,307.1,145.1z"/>
</g>
<g>
	
		<radialGradient id="SVGID_11_" cx="337.7676" cy="172.2794" r="3.6233" fx="341.3304" fy="171.6203" gradientTransform="matrix(1 0 0 1.0148 0 14.5781)" gradientUnits="userSpaceOnUse">
		<stop  offset="0" style="stop-color:#F3F3F7"/>
		<stop  offset="0.5168" style="stop-color:#81ACE2"/>
		<stop  offset="0.8911" style="stop-color:#10B5C9"/>
	</radialGradient>
	<circle class="st12" cx="337.5" cy="187.5" r="2.5"/>
	<path class="st1" d="M335.3,186.7c0,0,0.6-1.6,2.2-1.6s2.4,1.3,2.4,1.3s-0.8-1.2-2.5-1.1S335.3,186.7,335.3,186.7z"/>
	<g>
		
			<linearGradient id="SVGID_12_" gradientUnits="userSpaceOnUse" x1="337.5" y1="294.3752" x2="337.5" y2="288.8536" gradientTransform="matrix(1 0 0 1 0 -104.1317)">
			<stop  offset="0" style="stop-color:#399AEA"/>
			<stop  offset="0.9944" style="stop-color:#10B5C9"/>
		</linearGradient>
		<path class="st13" d="M337.5,190.3c-1.5,0-2.8-1.2-2.8-2.8c0-1.5,1.2-2.8,2.8-2.8s2.8,1.2,2.8,2.8
			C340.3,189,339,190.3,337.5,190.3z M337.5,185.2c-1.2,0-2.2,1-2.2,2.2s1,2.2,2.2,2.2s2.2-1,2.2-2.2S338.7,185.2,337.5,185.2z"/>
	</g>
	<path class="st3" d="M335.5,189c0,0,1.1-1.5,2.5-1.5c1.5,0,1.7,1.2,1.7,1.2S338.2,191.2,335.5,189z"/>
	<path class="st1" d="M337.6,185l0.2,0.6c0,0,0.9,0.1,1.4,0.4v-0.3C339.1,185.7,338.5,184.9,337.6,185z"/>
	<path class="st1" d="M338.2,189.7l-0.2-0.2c0,0,0.8-0.3,1.2-0.9l0.3,0.3C339.6,188.9,339.1,189.5,338.2,189.7z"/>
</g>
<g>
	
		<radialGradient id="SVGID_13_" cx="218.3434" cy="261.8166" r="8.7105" fx="226.9086" fy="260.2321" gradientTransform="matrix(1 0 0 1.0148 0 14.5781)" gradientUnits="userSpaceOnUse">
		<stop  offset="0" style="stop-color:#F3F3F7"/>
		<stop  offset="0.5168" style="stop-color:#81ACE2"/>
		<stop  offset="0.8911" style="stop-color:#10B5C9"/>
	</radialGradient>
	<circle class="st14" cx="217.7" cy="275.6" r="6.1"/>
	<path class="st1" d="M212.3,273.7c0,0,1.5-3.8,5.3-3.8c3.8,0,5.7,3.1,5.7,3.1s-2-3-5.9-2.7C213.4,270.6,212.3,273.7,212.3,273.7z"
		/>
	<g>
		
			<linearGradient id="SVGID_14_" gradientUnits="userSpaceOnUse" x1="217.7" y1="386.4115" x2="217.7" y2="373.1373" gradientTransform="matrix(1 0 0 1 0 -104.1317)">
			<stop  offset="0" style="stop-color:#399AEA"/>
			<stop  offset="0.9944" style="stop-color:#10B5C9"/>
		</linearGradient>
		<path class="st15" d="M217.7,282.3c-3.6,0-6.6-3-6.6-6.6s3-6.6,6.6-6.6c3.6,0,6.6,3,6.6,6.6S221.3,282.3,217.7,282.3z
			 M217.7,270.2c-3,0-5.4,2.4-5.4,5.4s2.4,5.4,5.4,5.4c3,0,5.4-2.4,5.4-5.4S220.7,270.2,217.7,270.2z"/>
	</g>
	<path class="st3" d="M212.8,279.2c0,0,2.6-3.6,6.1-3.6c3.5,0,4.1,2.8,4.1,2.8S219.3,284.6,212.8,279.2z"/>
	<path class="st1" d="M218,269.6l0.4,1.4c0,0,2.2,0.3,3.4,1.1v-0.7C221.6,271.3,220.1,269.5,218,269.6z"/>
	<path class="st1" d="M219.5,281l-0.4-0.5c0,0,1.9-0.8,3-2.2l0.8,0.7C222.7,279,221.5,280.6,219.5,281z"/>
</g>
<g>
	
		<radialGradient id="SVGID_15_" cx="208.1523" cy="231.5284" r="4.2688" fx="212.3499" fy="230.7519" gradientTransform="matrix(1 0 0 1.0148 0 14.5781)" gradientUnits="userSpaceOnUse">
		<stop  offset="0" style="stop-color:#F3F3F7"/>
		<stop  offset="0.5168" style="stop-color:#81ACE2"/>
		<stop  offset="0.8911" style="stop-color:#10B5C9"/>
	</radialGradient>
	<circle class="st16" cx="207.8" cy="247.2" r="3"/>
	<path class="st1" d="M205.2,246.3c0,0,0.7-1.9,2.6-1.9c1.9,0,2.8,1.5,2.8,1.5s-1-1.5-2.9-1.3S205.2,246.3,205.2,246.3z"/>
	<g>
		
			<linearGradient id="SVGID_16_" gradientUnits="userSpaceOnUse" x1="207.837" y1="354.6501" x2="207.837" y2="348.1446" gradientTransform="matrix(1 0 0 1 0 -104.1317)">
			<stop  offset="0" style="stop-color:#399AEA"/>
			<stop  offset="0.9944" style="stop-color:#10B5C9"/>
		</linearGradient>
		<path class="st17" d="M207.8,250.5c-1.8,0-3.2-1.5-3.2-3.2s1.5-3.2,3.2-3.2s3.2,1.5,3.2,3.2S209.6,250.5,207.8,250.5z
			 M207.8,244.6c-1.5,0-2.6,1.2-2.6,2.6c0,1.5,1.2,2.6,2.6,2.6s2.6-1.2,2.6-2.6C210.5,245.8,209.3,244.6,207.8,244.6z"/>
	</g>
	<path class="st3" d="M205.5,249c0,0,1.3-1.8,3-1.8c1.7,0,2,1.4,2,1.4S208.6,251.7,205.5,249z"/>
	<path class="st1" d="M208,244.3l0.2,0.7c0,0,1.1,0.1,1.7,0.5v-0.3C209.8,245.1,209,244.3,208,244.3z"/>
	<path class="st1" d="M208.7,249.9l-0.2-0.3c0,0,0.9-0.4,1.5-1.1l0.4,0.3C210.3,248.9,209.7,249.7,208.7,249.9z"/>
</g>
<g>
	
		<radialGradient id="SVGID_17_" cx="106.1813" cy="232.503" r="6.3904" fx="112.4651" fy="231.3405" gradientTransform="matrix(1 0 0 1.0148 0 14.5781)" gradientUnits="userSpaceOnUse">
		<stop  offset="0" style="stop-color:#F3F3F7"/>
		<stop  offset="0.5168" style="stop-color:#81ACE2"/>
		<stop  offset="0.8911" style="stop-color:#10B5C9"/>
	</radialGradient>
	<circle class="st18" cx="105.7" cy="247.1" r="4.5"/>
	<path class="st1" d="M101.7,245.7c0,0,1.1-2.8,3.9-2.8c2.8,0,4.2,2.3,4.2,2.3s-1.5-2.2-4.4-2C102.5,243.4,101.7,245.7,101.7,245.7z
		"/>
	<g>
		
			<linearGradient id="SVGID_18_" gradientUnits="userSpaceOnUse" x1="105.7093" y1="356.1286" x2="105.7093" y2="346.3901" gradientTransform="matrix(1 0 0 1 0 -104.1317)">
			<stop  offset="0" style="stop-color:#399AEA"/>
			<stop  offset="0.9944" style="stop-color:#10B5C9"/>
		</linearGradient>
		<path class="st19" d="M105.7,252c-2.7,0-4.9-2.2-4.9-4.9s2.2-4.9,4.9-4.9c2.7,0,4.9,2.2,4.9,4.9S108.4,252,105.7,252z
			 M105.7,243.1c-2.2,0-4,1.8-4,4s1.8,4,4,4s4-1.8,4-4S107.9,243.1,105.7,243.1z"/>
	</g>
	<path class="st3" d="M102.1,249.8c0,0,1.9-2.7,4.5-2.7s3,2.1,3,2.1S106.9,253.7,102.1,249.8z"/>
	<path class="st1" d="M105.9,242.7l0.3,1c0,0,1.6,0.2,2.5,0.8V244C108.6,243.9,107.5,242.6,105.9,242.7z"/>
	<path class="st1" d="M107,251l-0.3-0.4c0,0,1.4-0.6,2.2-1.6l0.6,0.5C109.4,249.6,108.5,250.7,107,251z"/>
</g>
<g>
	
		<radialGradient id="SVGID_19_" cx="38.472" cy="311.7943" r="6.3904" fx="44.7558" fy="310.6318" gradientTransform="matrix(1 0 0 1.0148 0 14.5781)" gradientUnits="userSpaceOnUse">
		<stop  offset="0" style="stop-color:#F3F3F7"/>
		<stop  offset="0.5168" style="stop-color:#81ACE2"/>
		<stop  offset="0.8911" style="stop-color:#10B5C9"/>
	</radialGradient>
	<circle class="st20" cx="38" cy="327.5" r="4.5"/>
	<path class="st1" d="M34,326.2c0,0,1.1-2.8,3.9-2.8c2.8,0,4.2,2.3,4.2,2.3s-1.5-2.2-4.4-2C34.8,323.9,34,326.2,34,326.2z"/>
	<g>
		
			<linearGradient id="SVGID_20_" gradientUnits="userSpaceOnUse" x1="38" y1="436.5934" x2="38" y2="426.8549" gradientTransform="matrix(1 0 0 1 0 -104.1317)">
			<stop  offset="0" style="stop-color:#399AEA"/>
			<stop  offset="0.9944" style="stop-color:#10B5C9"/>
		</linearGradient>
		<path class="st21" d="M38,332.5c-2.7,0-4.9-2.2-4.9-4.9c0-2.7,2.2-4.9,4.9-4.9c2.7,0,4.9,2.2,4.9,4.9
			C42.9,330.3,40.7,332.5,38,332.5z M38,323.6c-2.2,0-4,1.8-4,4s1.8,4,4,4s4-1.8,4-4S40.2,323.6,38,323.6z"/>
	</g>
	<path class="st3" d="M34.4,330.2c0,0,1.9-2.7,4.5-2.7s3,2.1,3,2.1S39.2,334.2,34.4,330.2z"/>
	<path class="st1" d="M38.2,323.2l0.3,1c0,0,1.6,0.2,2.5,0.8v-0.5C40.9,324.4,39.8,323.1,38.2,323.2z"/>
	<path class="st1" d="M39.3,331.5l-0.3-0.4c0,0,1.4-0.6,2.2-1.6l0.6,0.5C41.7,330,40.8,331.2,39.3,331.5z"/>
</g>
<g>
	
		<radialGradient id="SVGID_21_" cx="17.289" cy="300.3251" r="3.9125" fx="21.1362" fy="299.6134" gradientTransform="matrix(1 0 0 1.0148 0 14.5781)" gradientUnits="userSpaceOnUse">
		<stop  offset="0" style="stop-color:#F3F3F7"/>
		<stop  offset="0.5168" style="stop-color:#81ACE2"/>
		<stop  offset="0.8911" style="stop-color:#10B5C9"/>
	</radialGradient>
	<circle class="st22" cx="17" cy="317.2" r="2.7"/>
	<path class="st1" d="M14.6,316.4c0,0,0.7-1.7,2.4-1.7s2.5,1.4,2.5,1.4s-0.9-1.3-2.7-1.2C15.1,315,14.6,316.4,14.6,316.4z"/>
	<g>
		
			<linearGradient id="SVGID_22_" gradientUnits="userSpaceOnUse" x1="17" y1="424.3827" x2="17" y2="418.4203" gradientTransform="matrix(1 0 0 1 0 -104.1317)">
			<stop  offset="0" style="stop-color:#399AEA"/>
			<stop  offset="0.9944" style="stop-color:#10B5C9"/>
		</linearGradient>
		<path class="st23" d="M17,320.3c-1.6,0-3-1.3-3-3c0-1.6,1.3-3,3-3s3,1.3,3,3C20,318.9,18.6,320.3,17,320.3z M17,314.8
			c-1.3,0-2.4,1.1-2.4,2.4s1.1,2.4,2.4,2.4s2.4-1.1,2.4-2.4S18.3,314.8,17,314.8z"/>
	</g>
	<path class="st3" d="M14.8,318.9c0,0,1.2-1.6,2.7-1.6s1.8,1.3,1.8,1.3S17.7,321.3,14.8,318.9z"/>
	<path class="st1" d="M17.1,314.6l0.2,0.6c0,0,1,0.1,1.5,0.5v-0.3C18.8,315.3,18.1,314.5,17.1,314.6z"/>
	<path class="st1" d="M17.8,319.7l-0.2-0.2c0,0,0.8-0.4,1.3-1l0.4,0.3C19.2,318.8,18.7,319.5,17.8,319.7z"/>
</g>
<g>
	
		<radialGradient id="SVGID_23_" cx="195.3153" cy="239.3911" r="4.2688" fx="199.5129" fy="238.6146" gradientTransform="matrix(1 0 0 1.0148 0 14.5781)" gradientUnits="userSpaceOnUse">
		<stop  offset="0" style="stop-color:#F3F3F7"/>
		<stop  offset="0.5168" style="stop-color:#81ACE2"/>
		<stop  offset="0.8911" style="stop-color:#10B5C9"/>
	</radialGradient>
	<circle class="st24" cx="195" cy="255.2" r="3"/>
	<path class="st1" d="M192.4,254.3c0,0,0.7-1.9,2.6-1.9c1.9,0,2.8,1.5,2.8,1.5s-1-1.5-2.9-1.3S192.4,254.3,192.4,254.3z"/>
	<g>
		
			<linearGradient id="SVGID_24_" gradientUnits="userSpaceOnUse" x1="195" y1="362.6291" x2="195" y2="356.1237" gradientTransform="matrix(1 0 0 1 0 -104.1317)">
			<stop  offset="0" style="stop-color:#399AEA"/>
			<stop  offset="0.9944" style="stop-color:#10B5C9"/>
		</linearGradient>
		<path class="st25" d="M195,258.5c-1.8,0-3.2-1.5-3.2-3.2c0-1.8,1.5-3.2,3.2-3.2s3.2,1.5,3.2,3.2
			C198.2,257.1,196.8,258.5,195,258.5z M195,252.6c-1.5,0-2.6,1.2-2.6,2.6c0,1.5,1.2,2.6,2.6,2.6s2.6-1.2,2.6-2.6
			C197.6,253.8,196.5,252.6,195,252.6z"/>
	</g>
	<path class="st3" d="M192.6,257c0,0,1.3-1.8,3-1.8c1.7,0,2,1.4,2,1.4S195.8,259.6,192.6,257z"/>
	<path class="st1" d="M195.1,252.3l0.2,0.7c0,0,1.1,0.1,1.7,0.5v-0.3C196.9,253.1,196.2,252.2,195.1,252.3z"/>
	<path class="st1" d="M195.9,257.9l-0.2-0.3c0,0,0.9-0.4,1.5-1.1l0.4,0.3C197.4,256.9,196.9,257.7,195.9,257.9z"/>
</g>
<g>
	
		<radialGradient id="SVGID_25_" cx="184.7748" cy="247.5645" r="2.0909" fx="186.8307" fy="247.1842" gradientTransform="matrix(1 0 0 1.0148 0 14.5781)" gradientUnits="userSpaceOnUse">
		<stop  offset="0" style="stop-color:#F3F3F7"/>
		<stop  offset="0.5168" style="stop-color:#81ACE2"/>
		<stop  offset="0.8911" style="stop-color:#10B5C9"/>
	</radialGradient>
	<circle class="st26" cx="184.6" cy="264.7" r="1.5"/>
	<path class="st1" d="M183.3,264.2c0,0,0.4-0.9,1.3-0.9s1.4,0.7,1.4,0.7s-0.5-0.7-1.4-0.6S183.3,264.2,183.3,264.2z"/>
	<g>
		
			<linearGradient id="SVGID_26_" gradientUnits="userSpaceOnUse" x1="184.6203" y1="370.4209" x2="184.6203" y2="367.2345" gradientTransform="matrix(1 0 0 1 0 -104.1317)">
			<stop  offset="0" style="stop-color:#399AEA"/>
			<stop  offset="0.9944" style="stop-color:#10B5C9"/>
		</linearGradient>
		<path class="st27" d="M184.6,266.3c-0.9,0-1.6-0.7-1.6-1.6s0.7-1.6,1.6-1.6s1.6,0.7,1.6,1.6S185.5,266.3,184.6,266.3z
			 M184.6,263.4c-0.7,0-1.3,0.6-1.3,1.3s0.6,1.3,1.3,1.3s1.3-0.6,1.3-1.3S185.3,263.4,184.6,263.4z"/>
	</g>
	<path class="st3" d="M183.5,265.6c0,0,0.6-0.9,1.5-0.9s1,0.7,1,0.7S185,266.9,183.5,265.6z"/>
	<path class="st1" d="M184.7,263.3l0.1,0.3c0,0,0.5,0.1,0.8,0.3v-0.2C185.6,263.6,185.2,263.2,184.7,263.3z"/>
	<path class="st1" d="M185,266l-0.1-0.1c0,0,0.5-0.2,0.7-0.5l0.2,0.2C185.8,265.5,185.5,265.9,185,266z"/>
</g>
<g>
	
		<radialGradient id="SVGID_27_" cx="230.5009" cy="259.7712" r="1.3931" fx="231.8707" fy="259.5178" gradientTransform="matrix(1 0 0 1.0148 0 14.5781)" gradientUnits="userSpaceOnUse">
		<stop  offset="0" style="stop-color:#F3F3F7"/>
		<stop  offset="0.5168" style="stop-color:#81ACE2"/>
		<stop  offset="0.8911" style="stop-color:#10B5C9"/>
	</radialGradient>
	<circle class="st28" cx="230.4" cy="277.4" r="1"/>
	<path class="st1" d="M229.5,277.1c0,0,0.2-0.6,0.8-0.6c0.6,0,0.9,0.5,0.9,0.5s-0.3-0.5-1-0.4C229.7,276.6,229.5,277.1,229.5,277.1z
		"/>
	<g>
		
			<linearGradient id="SVGID_28_" gradientUnits="userSpaceOnUse" x1="230.3979" y1="382.6472" x2="230.3979" y2="380.5242" gradientTransform="matrix(1 0 0 1 0 -104.1317)">
			<stop  offset="0" style="stop-color:#399AEA"/>
			<stop  offset="0.9944" style="stop-color:#10B5C9"/>
		</linearGradient>
		<path class="st29" d="M230.4,278.5c-0.6,0-1.1-0.5-1.1-1.1s0.5-1.1,1.1-1.1c0.6,0,1.1,0.5,1.1,1.1S231,278.5,230.4,278.5z
			 M230.4,276.6c-0.5,0-0.9,0.4-0.9,0.9s0.4,0.9,0.9,0.9c0.5,0,0.9-0.4,0.9-0.9S230.9,276.6,230.4,276.6z"/>
	</g>
	<path class="st3" d="M229.6,278c0,0,0.4-0.6,1-0.6c0.6,0,0.6,0.5,0.6,0.5S230.7,278.9,229.6,278z"/>
	<path class="st1" d="M230.4,276.5l0.1,0.2c0,0,0.3,0,0.5,0.2v-0.1C231,276.8,230.8,276.5,230.4,276.5z"/>
	<path class="st1" d="M230.7,278.3L230.7,278.3c-0.1-0.1,0.2-0.2,0.4-0.4l0.1,0.1C231.2,278,231,278.2,230.7,278.3z"/>
</g>
</svg>
