<?xml version="1.0" encoding="utf-8"?>
<!-- Generator: Adobe Illustrator 25.0.1, SVG Export Plug-In . SVG Version: 6.00 Build 0)  -->
<svg version="1.1" id="Layer_1" xmlns="http://www.w3.org/2000/svg" xmlns:xlink="http://www.w3.org/1999/xlink" x="0px" y="0px"
	 viewBox="0 0 360 360" style="enable-background:new 0 0 360 360;" xml:space="preserve">
<style type="text/css">
	.st0{fill:#F25244;}
	.st1{fill:#4DB6E4;}
	.st2{fill:#60D0DF;}
	.st3{fill:#48ACD8;}
	.st4{fill:#E94A3B;}
	.st5{fill:#348FD8;}
	.st6{fill:#3086CC;}
	.st7{fill:#5AC5D3;}
	.st8{fill:#79C5E7;}
	.st9{fill:#40B7C7;}
	.st10{fill:#2D7DBE;}
	.st11{fill:#3085CC;}
	.st12{fill:#FB685B;}
	.st13{fill:#3FB6C6;}
	.st14{fill:#9EE3EC;}
</style>
<path class="st0" d="M51.4,232.8c2.5-12.6,5-25.2,7.5-37.7c4.5-22.1,9-44.2,13.4-66.3c25.1,5.1,50.2,10.1,75.3,15.2
	c8.9,1.8,17.9,3.7,26.8,5.5c-2.1,4.2-5.1,7.9-7.8,11.6c-7.1,9.8-14.5,19.4-22.5,28.5c-9.2,10.5-18.8,20.7-29.1,30.2
	c-7.9,7.3-16.5,13.9-24.8,20.7c-0.2,0-0.4,0.1-0.7,0.1C76.9,238,64.2,235.4,51.4,232.8z M84.9,188c1-5,2-10,3-15.1
	c1.3-6.4,1.3-6.3-5-7.7c-2.7-0.6-3.4,0.2-3.9,2.7c-2.1,10.8-4.3,21.6-6.5,32.5c-1.4,7.1-1.4,7,5.7,8.3c2,0.4,2.6-0.3,3-2.1
	C82.4,200.4,83.7,194.2,84.9,188z M86.4,156.2c5,0.9,4.6,1.6,5.5-2.8c1.2-6.3,1.9-5.5-2.9-6.5c-6-1.2-5.3-1.9-6.3,3.1
	C81.6,155.9,80.9,155,86.4,156.2z"/>
<path class="st1" d="M174.5,149.4c-8.9-1.8-17.9-3.7-26.8-5.5c-25.1-5.1-50.2-10.1-75.3-15.2c1.9-13.4,5.8-25.9,14.6-36.6
	c10.9-13.1,24.8-20.6,41.6-22.9c-0.4,1.4,0.3,2,1.6,2.2c11.3,2.2,22.6,4.5,33.9,6.8c1.3,0.3,2.2,0,2.3-1.4
	c14.5,8.5,24.4,20.7,29.4,36.9c0.2,0.7,0.3,1.4,0.4,2c-1.6,2.7-3.2,5.3-4.8,8c-5.4,8.5-10.8,17-16.2,25.5
	C174.9,149.4,174.7,149.4,174.5,149.4z M90.6,114.3c-0.5,1.7-0.5,2.6,0.7,3.1c2.2,0.8,4.3,1.6,6.5,2.2c0.9,0.3,1.4-0.5,1.7-1.3
	c2.2-6.8,6.5-12.1,11.8-16.7c0.7-0.7,2.4-1,1.3-2.5c-1.6-2.2-2.5-4.8-4.8-6.3c-0.2-0.2-1,0.5-1.5,0.8c-2.7,1.5-4.6,3.8-6.7,6
	C95.5,104,92.8,109.3,90.6,114.3z M131,92.5c-0.1-1.4-0.3-2.5-0.3-3.6c-0.3-5.2-0.2-5.1-5.3-4.3c-2.3,0.4-4.5,1-6.6,1.9
	c-0.6,0.2-1.4,0.5-1.2,1.1c1,2.5,1.8,5.2,3.3,7.4c1.2,1.7,2.8-0.4,4.4-0.5c1.4-0.1,2.7-0.5,4.1-0.8C130.2,93.5,131,93.3,131,92.5z"
	/>
<path class="st2" d="M184,323.5c-10.3-2-20.7-4-31-5.9c-3.1-0.6-5-2.8-6.8-5.1c-0.9-2.6-0.9-5.3-0.3-8c0.9-3.8,1.7-7.7,2.2-11.5
	c0.5-3.9,1.8-7.4,4.7-10.1c2.7-2.6,3.1-5.3,1.8-8.9c-2.6-7-1.3-13.5,3.5-19.3c2.9-2.6,3.7-5.6,1.9-9.3c-1.6-3.5-1.1-7.1-0.6-10.8
	c0.7-4.6,3.7-7.4,6.2-10.8c0.8-1.1,1.5-2.1,0.9-3.5c-2.8-6.2-2.2-12.4-0.5-18.8c1-3.9,1.6-7.9,2.3-11.8c0.8-4.4,3.4-7.1,7.7-8.3
	c3.9-1.1,7.7-2.3,11.6-3.2c2.2-0.5,3-1.6,3.4-3.8c0.8-4.7,1.9-9.4,2.8-14.2c0.3,1.7,1.3,3,2.1,4.5c1.4,2.3,4.1,3,5.8,5
	c-0.4,2.2-0.7,4.4-1.3,6.5c-0.6,2.1-0.1,3.5,1.7,4.8c3.4,2.4,6.6,4.9,9.8,7.5c2.9,2.3,4.8,5.5,3.9,9.2c-2.2,9.2-1.9,19-7.1,27.4
	c-6.7-1.3-13.4-2.6-20.1-3.9c-6.7-1.3-6.6-1.3-7.9,5.4c-0.4,2.2,0,3,2.2,3.4c8,1.4,15.9,3.1,23.9,4.6c0.3,3.4,0.7,6.7,0,10.3
	c-0.6,3.3-2.5,5.7-3.7,8.6c-6.7-1.3-13.4-2.6-20.1-3.9c-6.7-1.3-6.6-1.3-7.9,5.4c-0.4,2.2,0,3,2.2,3.4c8,1.4,15.9,3.1,23.9,4.6
	c-0.2,2.9,1,5.7,0.3,8.8c-0.8,3.7-2.2,6.9-4,10.1c-6.7-1.3-13.4-2.6-20.1-3.9c-6.7-1.3-6.6-1.3-7.9,5.4c-0.4,2.2,0,3,2.2,3.4
	c8,1.4,15.9,3.1,23.9,4.6c1.1,4.5,0.3,8.9-0.7,13.3c-0.7,2.9-1.3,5.9-1.7,8.9C192.5,319.2,189.4,322.5,184,323.5z M189.9,204.4
	c0.3-1.8,0.6-3.5,1.1-5.3c0.4-1.7-0.6-2.3-1.9-2.2c-2.5,0.1-4.9-2.7-7.4-0.1c-0.1,0.1-0.1,0.4-0.1,0.6c-0.7,3.4-1.3,6.9-2,10.3
	c-0.2,1.1-0.2,1.8,1.2,2.3c6.9,2.4,7.8,2,9.2-5C189.8,204.8,189.8,204.5,189.9,204.4z"/>
<path class="st3" d="M157.7,254.2c-4.8,5.8-6.2,12.3-3.6,19.3c1.3,3.5,0.9,6.3-1.9,8.8c-2.9,2.7-4.2,6.2-4.7,10.1
	c-0.6,3.9-1.4,7.7-2.3,11.5c-0.6,2.7-0.6,5.3,0.2,8c-12.4,3.3-23.2,0.5-32.3-8.4c-7.7-7.5-13.3-8.8-23.3-4.6
	c-22.2,9.1-47-8.4-45.1-31.8c0-0.4,0.2-0.8,0.3-1.2c0.8,0.2,1.5-0.2,2.3-0.6c4.2-1.9,8.3-4,12.4-6c10.6-5.3,20.3-12.1,30-18.8
	c0.2,0,0.4-0.1,0.7-0.1C112.8,245.1,135.2,249.6,157.7,254.2z"/>
<path class="st4" d="M157.7,254.2c-22.4-4.6-44.9-9.1-67.3-13.6c8.3-6.8,16.9-13.4,24.8-20.7c10.3-9.5,19.9-19.7,29.1-30.2
	c8-9.1,15.4-18.7,22.5-28.5c2.7-3.8,5.7-7.4,7.8-11.6c0.2,0,0.4-0.1,0.6-0.1c6.7,1.4,13.3,2.8,20,4.1c-0.1,1-0.2,1.9-0.4,2.9
	c-0.2,1.2-0.5,2.4-0.7,3.7c-1,4.7-2.1,9.4-2.9,14.1c-0.4,2.2-1.2,3.3-3.4,3.7c-3.9,0.8-7.7,2-11.6,3.1c-4.3,1.1-6.9,3.8-7.7,8.3
	c-0.8,3.9-1.4,7.9-2.4,11.8c-1.7,6.3-2.3,12.6,0.4,18.8c0.6,1.4-0.1,2.4-0.9,3.5c-2.4,3.3-5.5,6.1-6.2,10.7
	c-0.6,3.7-1.1,7.3,0.5,10.8C161.4,248.6,160.6,251.6,157.7,254.2z"/>
<path class="st5" d="M224,164.3c2.4-5.8,5.9-10.9,10.3-15.4c6-6.1,12.3-12.1,18.7-17.8c2,2.2,2.7,5,3.9,7.6
	c4.2,9.4,9.4,18.5,10.6,29c-1.5-0.3-2.9-0.6-4.4-0.9c-7.2-1.4-7.1-1.4-8.3,5.9c-0.3,1.9,0.4,2.4,2.1,2.7c3.7,0.7,7.4,1.4,11.2,2.1
	c-0.6,3.2-0.2,6.5-1.3,9.6c-2.5-0.5-4.9-1-7.4-1.4c-7.2-1.4-7.1-1.4-8.3,5.9c-0.3,1.9,0.4,2.5,2,2.7c3.9,0.7,7.8,1.5,11.8,2.3
	c-0.6,3.2-1.2,6.3-1.8,9.5c-2.5-0.5-4.9-1-7.3-1.4c-7.2-1.4-7.1-1.4-8.3,5.9c-0.3,1.9,0.4,2.5,2,2.7c3.3,0.6,6.7,1.3,10,1.9
	c-0.4,0.8-0.6,1.7-1.1,2.4c-5.1,7.4-6,15.5-4.6,24.1c0.6,3.9,1.1,7.7,0.1,11.6c-2.5-0.5-4.9-1-7.4-1.4c-7.2-1.4-7.1-1.4-8.3,5.9
	c-0.3,1.9,0.4,2.5,2,2.7c3.9,0.7,7.8,1.5,11.8,2.3c-0.6,3.2-1.2,6.3-1.8,9.5c-2.5-0.5-4.9-1-7.4-1.4c-7.2-1.4-7.1-1.4-8.3,5.9
	c-0.3,1.9,0.4,2.5,2,2.7c3.9,0.7,7.8,1.5,11.8,2.3c-0.6,3.2-1.2,6.3-1.8,9.5c-2.5-0.5-4.9-1-7.4-1.4c-7.2-1.4-7.1-1.4-8.3,5.9
	c-0.3,1.9,0.4,2.5,2,2.7c3.9,0.7,7.8,1.5,11.8,2.3c-1,5.4-2.3,10.7-3.1,16.2c-0.7,5-2.8,9-6.8,12.1c-3.9-3.1-8.1-3.6-12.5-0.9
	c-2.8,1.7-5.8,1.9-8.9,0.8c5-1.7,7.5-5.3,8.2-10.4c0.3-2.7,0.8-5.4,1.6-8c1.7-5.8,1.7-11.4-0.7-17c-0.7-1.6-0.1-2.8,0.9-4.1
	c2.4-3.3,5.2-6.1,6.1-10.5c0.8-4.3,0.6-8.1-0.9-12c-1-2.7-0.9-4.9,1.3-7c3.4-3.3,4.9-7.6,5.7-12.3c0.7-4-1.1-7.2-1.9-10.8
	c-0.3-1.5-0.5-2.7,0.7-3.8c4.6-4.5,6.4-10.2,7.2-16.4c0.6-4.3,1.6-8.5,2.4-12.7c0.8-4.2-0.6-7.5-3.8-10.1c-3-2.4-6-4.8-9.1-6.9
	c-2.3-1.6-3.2-3.2-2.3-6c0.8-2.5,1-5.1,1.5-7.7C231.8,165.8,231.8,165.8,224,164.3z"/>
<path class="st6" d="M267.6,167.8c-1.2-10.5-6.4-19.6-10.6-29c-1.2-2.6-1.9-5.4-3.9-7.6c1.5-7.2,3-14.3,4.3-21.6
	c0.4-2,0.9-2.6,3.1-2.2c7.8,1.7,15.5,3.2,23.4,4.5c2.1,0.4,2.5,1.1,2.1,3.2c-1.3,6.1-2.4,12.2-3.6,18.3c-0.4,1.8-0.2,3.3,0.6,4.9
	c3.8,8.5,8.2,16.7,11.2,25.6c1,3,1.8,6.1,2,9.4C286.5,171.5,277,169.7,267.6,167.8z"/>
<path class="st6" d="M224,164.3c7.7,1.5,7.7,1.5,6.2,9.1c-0.5,2.6-0.8,5.2-1.5,7.7c-0.9,2.8,0.1,4.4,2.3,6c3.1,2.2,6.1,4.6,9.1,6.9
	c3.2,2.6,4.7,5.9,3.8,10.1c-0.9,4.2-1.9,8.5-2.4,12.7c-0.8,6.2-2.6,11.9-7.2,16.4c-1.2,1.2-1,2.4-0.7,3.8c0.8,3.6,2.6,6.8,1.9,10.8
	c-0.8,4.7-2.2,8.9-5.7,12.3c-2.2,2.1-2.3,4.3-1.3,7c1.5,3.9,1.7,7.8,0.9,12c-0.8,4.4-3.7,7.3-6.1,10.5c-1,1.3-1.5,2.4-0.9,4.1
	c2.4,5.6,2.3,11.2,0.7,17c-0.8,2.6-1.2,5.3-1.6,8c-0.6,5.2-3.2,8.7-8.2,10.4c-3.3-0.7-6.7-1.3-10.1-1.9c5.3-1.6,8.3-5,8.9-10.8
	c0.4-3.9,1.3-7.7,2.2-11.5c0.9-3.4,0.7-6.7-0.6-10c-1.3-3.5-0.7-6.7,1.8-9.5c4.8-5.6,6-11.9,3.7-18.9c-1.3-3.5-0.7-6.7,1.8-9.5
	c4.8-5.6,6-11.9,3.7-18.9c-1.3-3.5-0.7-6.7,1.8-9.5c2.4-2.5,3.7-5.5,4.3-9c0.9-5.6,2-11.2,3.3-16.8c1-4.3-0.2-7.7-3.4-10.5
	c-3.3-2.9-6.8-5.6-10.3-8.2c-1.6-1.2-2.1-2.4-1.6-4.3c0.8-3.2,1.2-6.5,2.4-9.5C222.1,168.3,222.7,166.1,224,164.3z"/>
<path class="st6" d="M254,253.7c1-3.9,0.5-7.7-0.1-11.6c-1.4-8.6-0.5-16.8,4.6-24.1c0.5-0.7,0.7-1.6,1.1-2.4
	c9.5,1.9,19,3.7,28.5,5.6c-1.4,2.9-2.9,5.7-4.2,8.6c-2.3,5.2-2.3,10.7-1.6,16.2c0.6,4.4,1.4,8.9,0,13.4
	C272.9,257.3,263.4,255.5,254,253.7z"/>
<path class="st7" d="M221.5,170.4c-1.2,3.1-1.6,6.4-2.4,9.5c-0.5,1.9,0,3.1,1.6,4.3c3.5,2.6,7,5.3,10.3,8.2
	c3.2,2.7,4.4,6.2,3.4,10.5c-1.3,5.6-2.4,11.2-3.3,16.8c-0.5,3.5-1.9,6.5-4.3,9c-6.1-1.2-12.2-2.4-18.3-3.6
	c5.2-8.4,4.9-18.2,7.1-27.4c0.9-3.7-0.9-6.8-3.9-9.2c-3.2-2.6-6.4-5.1-9.8-7.5c-1.9-1.3-2.3-2.7-1.7-4.8c0.6-2.1,0.9-4.3,1.3-6.5
	c4.1,0.8,8.1,1.9,12.4,1.1c2.9-0.5,4.8-2.9,7.5-3.4C221.6,168.4,220.8,169.5,221.5,170.4z"/>
<path class="st6" d="M234.9,329.3c4-3.1,6-7.1,6.8-12.1c0.8-5.4,2-10.8,3.1-16.2c9.4,1.8,18.9,3.7,28.3,5.5
	c-1.3,6.8-2.4,13.6-3.9,20.4c-1.4,6.4-8.8,11.3-15.4,10.3c-4.1-0.7-8.1-1.5-12.1-2.4C238.6,334.1,236.5,332,234.9,329.3z"/>
<path class="st1" d="M132.9,47.4c1.1-5.4,2.3-10.8,3.3-16.2c0.4-2,0.9-2.6,3.1-2.2c10.9,2.3,21.8,4.5,32.8,6.6
	c2.2,0.4,2.5,1.3,2,3.2c-1.2,5.4-2.2,10.8-3.3,16.2C158.2,52.5,145.5,50,132.9,47.4z"/>
<path class="st1" d="M89.7,240.6c-9.7,6.7-19.4,13.5-30,18.8c-4.1,2.1-8.2,4.1-12.4,6c-0.8,0.4-1.4,0.7-2.3,0.6
	c-0.3-1.7,0.3-3.4,0.6-5c1.9-9.4,3.8-18.8,5.8-28.2C64.2,235.4,76.9,238,89.7,240.6z"/>
<path class="st7" d="M213.5,294.9c1.3,3.3,1.4,6.5,0.5,10c-1,3.8-1.9,7.6-2.3,11.5c-0.6,5.7-3.6,9.1-9,10.7
	c-6.5-1.3-13-2.6-19.5-3.9c5.5-1,8.6-4.2,9.3-9.8c0.4-3,1.1-5.9,1.8-8.8c1-4.4,1.9-8.8,0.8-13.3
	C201.2,292.5,207.4,293.7,213.5,294.9z"/>
<path class="st8" d="M132.9,47.4c12.6,2.5,25.3,5.1,37.9,7.6c2.6,0.5,5.2,0.7,7.6,1.6c3.7,1.4,0.4,4,0.5,6c0,1.2,0.7,3.9-2.4,3.3
	c-2.6-0.5-5.1-1-7.6-1.5c-12.6-2.5-25.3-5.1-37.9-7.6c-2.6-0.5-5.2-0.8-7.6-1.6c-3.4-1.2-0.8-3.7-0.6-5.5c0.2-1.4-0.8-4.4,2.5-3.9
	C127.8,46.3,130.3,46.9,132.9,47.4z"/>
<path class="st3" d="M131,56.9c12.6,2.5,25.3,5.1,37.9,7.6c-0.8,4.1-1.7,8.3-2.5,12.4c-0.2,1.5-1,1.7-2.3,1.4
	c-11.3-2.3-22.6-4.6-33.9-6.8c-1.3-0.3-2-0.8-1.6-2.2C129.3,65.2,130.1,61,131,56.9z"/>
<path class="st3" d="M195.1,153.5c-6.7-1.4-13.3-2.8-20-4.1c5.4-8.5,10.8-17,16.2-25.5c1.7-2.6,3.2-5.3,4.8-8
	c2.2,6,2.4,12.2,2.2,18.5C198.2,140.9,196.5,147.1,195.1,153.5z"/>
<path class="st9" d="M221.5,167.5c-2.8,0.5-4.7,2.9-7.5,3.4c-4.3,0.8-8.3-0.3-12.4-1.1c-1.7-2-4.4-2.6-5.8-5
	c-0.8-1.4-1.8-2.8-2.1-4.5c0.2-1.2,0.5-2.5,0.7-3.7c6.1-8.7,22.3-5.6,26.9,2.2C223,161.7,222.3,164.5,221.5,167.5z"/>
<path class="st10" d="M248.5,282.1c-3.9-0.8-7.8-1.6-11.8-2.3c-1.7-0.3-2.4-0.8-2-2.7c1.2-7.3,1.1-7.3,8.3-5.9
	c2.5,0.5,4.9,1,7.4,1.4c9.4,1.8,18.9,3.7,28.3,5.5c-0.6,3.2-1.2,6.3-1.8,9.5C267.3,285.7,257.9,283.9,248.5,282.1z"/>
<path class="st10" d="M265,196.8c-3.9-0.8-7.8-1.6-11.8-2.3c-1.7-0.3-2.4-0.8-2-2.7c1.2-7.3,1.1-7.3,8.3-5.9c2.5,0.5,4.9,1,7.4,1.4
	c9.4,1.8,18.9,3.7,28.3,5.5c-0.6,3.2-1.2,6.3-1.8,9.5C283.9,200.5,274.5,198.7,265,196.8z"/>
<path class="st10" d="M273.1,306.5c-9.4-1.8-18.9-3.7-28.3-5.5c-3.9-0.8-7.8-1.6-11.8-2.3c-1.7-0.3-2.4-0.8-2-2.7
	c1.2-7.3,1.1-7.3,8.3-5.9c2.5,0.5,4.9,1,7.4,1.4c9.4,1.8,18.9,3.7,28.3,5.5C274.3,300.2,273.7,303.4,273.1,306.5z"/>
<path class="st10" d="M254,253.7c9.4,1.8,18.9,3.7,28.3,5.5c-0.6,3.2-1.2,6.3-1.8,9.5c-9.4-1.8-18.9-3.7-28.3-5.5
	c-3.9-0.8-7.8-1.6-11.8-2.3c-1.7-0.3-2.4-0.8-2-2.7c1.2-7.3,1.1-7.3,8.3-5.9C249.1,252.7,251.5,253.2,254,253.7z"/>
<path class="st10" d="M288.1,221c-9.5-1.9-19-3.7-28.5-5.6c-3.3-0.6-6.7-1.4-10-1.9c-1.7-0.3-2.3-0.8-2-2.7c1.2-7.3,1.1-7.3,8.3-5.9
	c2.5,0.5,4.9,1,7.3,1.4c9.4,1.8,18.9,3.7,28.3,5.5C291.2,215.2,290.1,218.3,288.1,221z"/>
<path class="st10" d="M267.6,167.8c9.4,1.8,18.9,3.7,28.3,5.5c0.7,3.3,0.9,6.6,0.5,9.9c-9.4-1.8-18.9-3.7-28.3-5.5
	c-3.7-0.7-7.4-1.5-11.2-2.1c-1.7-0.3-2.4-0.8-2.1-2.7c1.2-7.3,1.1-7.3,8.3-5.9C264.7,167.3,266.1,167.6,267.6,167.8z"/>
<path class="st6" d="M268.1,177.8c9.4,1.8,18.9,3.7,28.3,5.5c0,3.3-0.3,6.5-1.3,9.6c-9.4-1.8-18.9-3.7-28.3-5.5
	C267.9,184.2,267.5,180.9,268.1,177.8z"/>
<path class="st11" d="M252.2,263.1c9.4,1.8,18.9,3.7,28.3,5.5c-0.6,3.2-1.2,6.3-1.8,9.5c-9.4-1.8-18.9-3.7-28.3-5.5
	C250.9,269.4,251.5,266.3,252.2,263.1z"/>
<path class="st11" d="M275,297c-9.4-1.8-18.9-3.7-28.3-5.5c0.6-3.2,1.2-6.3,1.8-9.5c9.4,1.8,18.9,3.7,28.3,5.5
	C276.2,290.7,275.6,293.9,275,297z"/>
<path class="st11" d="M291.5,211.8c-9.4-1.8-18.9-3.7-28.3-5.5c0.6-3.2,1.2-6.3,1.8-9.5c9.4,1.8,18.9,3.7,28.3,5.5
	C292.7,205.5,292.1,208.7,291.5,211.8z"/>
<path class="st12" d="M84.9,188c-1.2,6.2-2.5,12.4-3.7,18.6c-0.4,1.8-1,2.5-3,2.1c-7.1-1.3-7.1-1.2-5.7-8.3
	c2.2-10.8,4.4-21.6,6.5-32.5c0.5-2.5,1.2-3.4,3.9-2.7c6.3,1.4,6.3,1.3,5,7.7C87,178,85.9,183,84.9,188z"/>
<path class="st12" d="M86.4,156.2c-5.5-1.2-4.9-0.2-3.7-6.2c1-5,0.2-4.3,6.3-3.1c4.8,0.9,4.1,0.2,2.9,6.5
	C91,157.8,91.5,157.1,86.4,156.2z"/>
<path class="st8" d="M90.6,114.3c2.2-4.9,4.8-10.3,9-14.7c2.1-2.2,4-4.5,6.7-6c0.5-0.3,1.3-1,1.5-0.8c2.3,1.6,3.2,4.2,4.8,6.3
	c1,1.4-0.6,1.8-1.3,2.5c-5.2,4.7-9.6,9.9-11.8,16.7c-0.3,0.8-0.8,1.6-1.7,1.3c-2.2-0.7-4.3-1.5-6.5-2.2
	C90.1,116.9,90.1,116,90.6,114.3z"/>
<path class="st8" d="M131,92.5c0,0.7-0.8,0.9-1.6,1.1c-1.4,0.3-2.7,0.7-4.1,0.8c-1.5,0.1-3.2,2.2-4.4,0.5c-1.5-2.2-2.3-4.8-3.3-7.4
	c-0.2-0.6,0.6-0.9,1.2-1.1c2.1-0.9,4.3-1.5,6.6-1.9c5-0.8,5-0.8,5.3,4.3C130.8,90,130.9,91.1,131,92.5z"/>
<path class="st13" d="M221.1,257.1c-2.5,2.8-3.2,5.9-1.9,9.4c-6.1-1.2-12.2-2.4-18.3-3.7c-7.9-1.6-15.9-3.3-23.8-4.8
	c-2.2-0.4-2.7-1.3-2.2-3.4c1.4-6.6,1.3-6.6,8-5.3c6.7,1.3,13.3,2.7,20,4C208.9,254.6,215,255.9,221.1,257.1z"/>
<path class="st13" d="M208.5,225.1c6.1,1.2,12.2,2.4,18.3,3.6c-2.5,2.8-3.1,6-1.8,9.5c-6.1-1.2-12.2-2.4-18.4-3.5
	c-8-1.6-15.9-3.2-23.9-4.6c-2.3-0.4-2.7-1.3-2.2-3.4c1.3-6.6,1.2-6.7,7.9-5.4C195.2,222.6,201.9,223.9,208.5,225.1z"/>
<path class="st13" d="M213.5,294.9c-6.1-1.2-12.2-2.4-18.3-3.7c-7.9-1.6-15.9-3.3-23.8-4.8c-2.2-0.4-2.7-1.3-2.2-3.4
	c1.4-6.6,1.3-6.6,8-5.3c6.7,1.3,13.3,2.7,20,4c6.1,1.2,12.2,2.5,18.3,3.7C212.8,288.2,212.2,291.4,213.5,294.9z"/>
<path class="st7" d="M215.4,285.5c-6.1-1.2-12.2-2.5-18.3-3.7c1.8-3.2,3.2-6.4,4-10.1c0.7-3.1-0.4-5.9-0.2-8.8
	c6.1,1.2,12.2,2.4,18.3,3.7C221.5,273.6,220.2,279.9,215.4,285.5z"/>
<path class="st7" d="M206.7,234.7c6.1,1.2,12.2,2.4,18.4,3.5c2.3,7,1.1,13.3-3.7,18.9c-6.1-1.2-12.2-2.4-18.3-3.6
	c1.2-2.9,3.1-5.3,3.7-8.6C207.4,241.4,207,238.1,206.7,234.7z"/>
<path class="st14" d="M189.9,204.4c0,0.2-0.1,0.4-0.1,0.6c-1.4,7-2.3,7.4-9.2,5c-1.3-0.5-1.4-1.2-1.2-2.3c0.7-3.4,1.3-6.9,2-10.3
	c0-0.2,0-0.5,0.1-0.6c2.5-2.6,4.9,0.2,7.4,0.1c1.3-0.1,2.4,0.5,1.9,2.2C190.5,200.8,190.2,202.6,189.9,204.4z"/>
</svg>
