<?xml version="1.0" encoding="utf-8"?>
<!-- Generator: Adobe Illustrator 25.0.1, SVG Export Plug-In . SVG Version: 6.00 Build 0)  -->
<svg version="1.1" id="Layer_1" xmlns="http://www.w3.org/2000/svg" xmlns:xlink="http://www.w3.org/1999/xlink" x="0px" y="0px"
	 viewBox="0 0 360 360" style="enable-background:new 0 0 360 360;" xml:space="preserve">
<style type="text/css">
	.st0{fill:#01CBB1;}
	.st1{fill:#01A98F;}
	.st2{fill:#D5E8F7;}
	.st3{fill:#FDFEFE;}
	.st4{fill:#09AB93;}
	.st5{fill:#BD3903;}
	.st6{fill:#FE4E07;}
	.st7{fill:#5BA9E5;}
	.st8{fill:#87BFEB;}
	.st9{fill:#FEFDFC;}
	.st10{fill:#D5E7F5;}
	.st11{fill:#D6E6F4;}
	.st12{fill:#FEFBFA;}
</style>
<g>
	<path class="st0" d="M168.6,34.9c7.6,0,15.1,0,22.7,0c0.5,0.9,1.3,0.5,2,0.6c4.6,0.7,9.2,1.1,13.7,1.9
		c31.1,6.1,57.5,20.6,79.1,43.8c22.9,24.6,35.7,53.8,38.4,87.4c-0.9-0.8-1.9-1.5-2.8-2.4c-23.5-23.5-47-47-70.5-70.5
		c-1-1-1.7-2.3-3.4-2.3l0,0c0-0.4,0-0.8-0.6-0.7c-5.4-7.1-11.8-13.2-19.7-17.4c-15.8-8.2-32-9.6-48.8-3.2
		c-19.4,5.9-36,27.8-37.3,49.4c-0.1,2.4-0.5,2.8-3,2c-18.3-5.6-34.9-2.3-48.7,11c-13.9,13.4-17.9,30-12.9,48.5
		c2.8,10.4,9.1,18.5,17.5,25.1c0.2,0.2,0.5,0.5,0.7,0.7l-0.1,0l0-0.1c0.3,0.2,0.5,0.4,0.8,0.6l0-0.2c0,0.6,0.2,1.1,0.6,1.5
		c3.7,3.6,7.2,7.6,11.2,10.9c-1,8-0.8,15.9,1.3,23.8c3.6,13.5,11.3,24.2,22.2,32.7c0,0.6,0.5,0.5,0.9,0.6c0.2,0,0.3,0,0.4,0.2
		c0,1.4,0.9,2.2,1.8,3.1c13.6,13.6,27.3,27.2,40.8,40.9c1.2,1.2,2.5,1.8,4.2,1.8c3.3-0.1,6.6,0,9.9,0c-0.8,0.1-1.7,0.3-2.5,0.4
		c-24.9,1-48.6-3.7-71-14.9c-59.1-29.5-90.5-93.1-78.1-158.2C49.1,92.4,98.4,45.3,158.5,36.6C161.8,36,165.3,36.1,168.6,34.9z"/>
	<path class="st1" d="M325,191.3c-1.3,3.2-1.1,6.6-1.6,9.9C315.2,260,269.1,309.5,211,321.7c-7.2,1.5-14.4,2.8-21.8,2.9
		c-3.3,0-6.6-0.1-9.9,0c-1.7,0-3-0.6-4.2-1.8c-13.6-13.7-27.2-27.3-40.8-40.9c-0.9-0.9-1.9-1.7-1.8-3.1c1,0.6,2.1,1.3,3.1,1.9
		c8.3,4.8,17.1,7.8,26.7,8c5.4,2,10.7,3.9,16.6,3.5c3.1,0.3,6.2-0.1,9.2-0.9c12.7-3.2,21.4-11.2,26.8-23
		c18.5,5.6,39.6-1.6,51.6-17.6c12.1-16.2,12.8-38.5,1.6-55.4c-1.5-2.2-1.6-2.9,0.9-4.4c12.7-7.6,19-19.1,17.9-33.8
		c-1.1-14.8-9-25.5-22.9-30.8c-4.4-1.7-6.4-3.3-6.8-8.3c-0.6-9-4.5-17-9.3-24.6c1.7,0,2.4,1.4,3.4,2.3c23.5,23.5,47,47,70.5,70.5
		c0.9,0.9,1.8,1.6,2.8,2.4c0.2,0,0.3,0,0.5,0c0,1.3,0,2.6,0,4c-0.9,2.1-0.8,4.1,0,6.2c0,0.8,0,1.5,0,2.3c-0.8,1.7-0.9,3.4,0,5.1
		C325,187.9,325,189.6,325,191.3z"/>
	<path class="st0" d="M325,178.9c-0.8-2.1-0.9-4.1,0-6.2C325,174.7,325,176.8,325,178.9z"/>
	<path class="st0" d="M325,186.2c-0.9-1.7-0.8-3.4,0-5.1C325,182.8,325,184.5,325,186.2z"/>
	<path class="st2" d="M247.8,93.4c4.7,7.6,8.6,15.6,9.3,24.6c0.3,4.9,2.4,6.6,6.8,8.3c13.9,5.4,21.8,16,22.9,30.8
		c1.1,14.7-5.2,26.2-17.9,33.8c-2.5,1.5-2.4,2.3-0.9,4.4c11.3,16.9,10.6,39.3-1.6,55.4c-12,16-33.1,23.2-51.6,17.6
		c0.2-0.7,0.5-1.4,0.7-2.1c6.1-18.5-2.3-38.4-19.9-47c-5.3-2.6-10.9-3.5-16.7-3.9c0-5-0.1-9.9-0.1-14.9c6.4,1.6,12.9,1.9,19.3,0.6
		c13.8-2.7,24-13.8,25.8-27.7c1.8-13.9-5.4-27-18.3-33.1c-8.7-4.1-17.7-4.1-26.8-2c0-22-0.1-44-0.1-66c16.7-6.4,33-5.1,48.8,3.2
		c8,4.2,14.3,10.3,19.7,17.4C247.5,92.9,247.7,93.2,247.8,93.4L247.8,93.4z M242.1,199.8c0.7-1.7,1.9-2.4,2.8-3.3
		c3-2.9,6.3-5.4,8.7-8.9c3.9-5.6,2.9-12.3-2.2-15.8c-6-4.1-17.1-2.8-22,2.5c-1.4,1.4-1.3,2.3,0.4,3.2c0.7,0.3,1.3,0.7,1.9,1.2
		c1.4,1.1,2.4,1.3,3.9-0.1c1.8-1.7,4.1-2.2,6.6-2.1c4.7,0.2,6.6,3.8,4.3,7.9c-1.3,2.2-3.3,3.9-5.1,5.6c-3.6,3.4-7.1,6.8-10.7,10.1
		c-1.8,1.6-1.4,3.7-1,5.5c0.4,1.7,2.2,0.9,3.4,0.9c7.2,0.1,14.3-0.1,21.5,0.1c2.9,0.1,2.6-1.6,2.6-3.5c0-1.7,0.5-3.7-2.5-3.5
		C250.5,200,246.5,199.8,242.1,199.8z"/>
	<path class="st3" d="M178.8,72.1c0,22,0.1,44,0.1,66c-0.1,0.1-0.1,0.2-0.1,0.3c-1,0.3-2,0.4-3,0.8c-14.3,5.6-22.5,20-20,35.1
		c2.1,12.7,11.5,23.1,22.9,25.6c0,0.1,0.1,0.2,0.2,0.3c0,5,0.1,9.9,0.1,14.9c0,0.1,0,0.2-0.1,0.4c-24.2-0.7-45.6,24.3-36,51.5
		c3.5,9.8,10.3,16.7,19.3,21.6c-9.6-0.2-18.5-3.2-26.7-8c-1.1-0.6-2.1-1.3-3.1-1.9c0-0.2-0.2-0.3-0.4-0.2c-0.3-0.2-0.6-0.4-0.9-0.6
		c-11-8.5-18.7-19.1-22.2-32.7c-2-7.9-2.3-15.8-1.3-23.8c0.3-1.5,0.6-2.9,1-4.3c0.4-1.4,0.1-2-1.3-2.4c-4.1-1.2-7.9-3.4-11.5-5.6
		l0,0.2c-0.1-0.4-0.4-0.6-0.8-0.6l0,0.1c0,0,0.1,0,0.2,0c0-0.4-0.4-0.6-0.7-0.7c-8.3-6.6-14.7-14.7-17.5-25.1
		c-5-18.6-1.1-35.2,12.9-48.5c13.8-13.3,30.5-16.6,48.7-11c2.5,0.8,2.8,0.4,3-2C142.8,100,159.4,78.1,178.8,72.1z M121.5,201.7
		c12.8,0.1,21.1-2.6,27.8-9.4c1.1-1.1,1.5-2,0-3.2c-2-1.7-3.9-3.5-5.8-5.4c-1.4-1.5-2.4-1.4-3.9,0.1c-7.3,6.9-19.2,7.5-26.7,1.5
		c-7.6-6.1-9.6-17.8-4.7-26.5c6.1-10.8,21.8-13,31.1-4.2c1.9,1.8,3,1.7,4.5-0.1c1.5-1.6,3-3.1,4.7-4.4c2-1.6,1.9-2.7,0.1-4.4
		c-7.3-6.8-16.1-9-25.8-8.7c-21.6,0.6-36.3,19.8-31,40.8C95.6,192.3,108.5,201.6,121.5,201.7z"/>
	<path class="st4" d="M95.8,209.1c3.7,2.2,7.4,4.4,11.5,5.6c1.4,0.4,1.7,1.1,1.3,2.4c-0.5,1.4-0.7,2.9-1,4.3
		c-4-3.3-7.5-7.3-11.2-10.9C96,210.2,95.8,209.7,95.8,209.1z"/>
	<path class="st1" d="M247.9,93.4c-0.2-0.2-0.4-0.5-0.6-0.7C247.9,92.6,247.9,93,247.9,93.4z"/>
	<path class="st1" d="M131.2,278c0.3,0.2,0.6,0.4,0.9,0.6C131.6,278.5,131.1,278.6,131.2,278z"/>
	<path class="st4" d="M94.4,208.1c0.3,0.1,0.7,0.3,0.7,0.7C94.9,208.6,94.6,208.4,94.4,208.1z"/>
	<path class="st4" d="M95,208.7c0.4,0,0.7,0.2,0.8,0.6C95.5,209.1,95.3,208.9,95,208.7z"/>
	<path class="st5" d="M179,215.3c5.8,0.4,11.4,1.4,16.7,3.9c17.6,8.5,26,28.4,19.9,47c-0.2,0.7-0.5,1.4-0.7,2.1
		c-5.4,11.8-14.1,19.7-26.8,23c-3,0.8-6.1,1.2-9.2,0.9c0-3.3,0-6.7,0.1-10c0.6,0,1.1-0.1,1.7-0.2c20.8-1,33.4-24.1,22.9-42.1
		c-1.2-2.1-1.8-1.9-3.3-0.3c-6.9,7.2-13.9,14.3-20.9,21.5c-0.6-0.9-0.5-2-0.5-3c0-3.6-0.1-7.2-0.1-10.8c0-0.2,0.1-0.3,0.1-0.5
		c4.9-5,9.8-10.1,14.8-15.1c1.2-1.2,0.5-1.6-0.5-2.2c-4.4-2.5-9.1-4-14.3-3.6l-0.1-0.2c0-3.3,0-6.7,0-10
		C178.9,215.5,179,215.4,179,215.3z"/>
	<path class="st6" d="M178.9,282.2c0,3.3,0,6.7-0.1,10c-5.9,0.4-11.3-1.5-16.6-3.5c-9-4.9-15.8-11.8-19.3-21.6
		c-9.6-27.2,11.8-52.2,36-51.5c0,3.3,0,6.7,0,10c-0.6,0.1-1.1,0.1-1.7,0.2c-20.7,1.2-33,24.3-22.5,42.3c1.1,1.9,1.8,2.3,3.5,0.5
		c6.8-7.2,13.7-14.2,20.6-21.3c0,3.6,0,7.2,0.1,10.8c0,1-0.1,2,0.5,3c-0.2,0.3-0.4,0.7-0.5,1c-4.7,4.8-9.3,9.6-14,14.3
		c-0.9,0.9-0.9,1.5,0.3,2.1c4.3,2.2,8.8,3.9,13.7,3.5C178.8,281.9,178.9,282.2,178.9,282.2z"/>
	<path class="st7" d="M178.9,200.3c-0.1-0.1-0.1-0.2-0.2-0.3c0-1.8,0-3.5,0.2-5.3c0.2-2.7-0.6-5.4,0.6-8c0.7,0.3,1.4,0.6,2.1,0.9
		c9.1,3.9,19.7,1,24.8-7c5.3-8.2,4-20.4-3.3-26.6c-7.2-6.1-15.2-6.1-23.5-2.3c-0.8-1-0.6-2.1-0.6-3.2c0-3.3-0.1-6.7-0.1-10
		c0-0.1,0.1-0.2,0.1-0.3c9.2-2.1,18.2-2.1,26.8,2c12.9,6.1,20.1,19.1,18.3,33.1c-1.8,13.9-12,24.9-25.8,27.7
		C191.7,202.2,185.3,201.9,178.9,200.3z"/>
	<path class="st7" d="M242.1,199.8c4.4,0,8.5,0.1,12.5,0c3-0.1,2.5,1.8,2.5,3.5c0,1.8,0.3,3.5-2.6,3.5c-7.2-0.2-14.3,0-21.5-0.1
		c-1.2,0-3,0.8-3.4-0.9c-0.4-1.8-0.8-3.9,1-5.5c3.6-3.3,7.2-6.7,10.7-10.1c1.9-1.8,3.9-3.4,5.1-5.6c2.3-4.1,0.4-7.7-4.3-7.9
		c-2.4-0.1-4.8,0.3-6.6,2.1c-1.4,1.4-2.5,1.2-3.9,0.1c-0.6-0.5-1.2-0.9-1.9-1.2c-1.7-0.9-1.8-1.8-0.4-3.2c5-5.3,16-6.6,22-2.5
		c5.1,3.5,6.1,10.2,2.2,15.8c-2.4,3.4-5.7,6-8.7,8.9C244,197.4,242.8,198.1,242.1,199.8z"/>
	<path class="st8" d="M121.5,201.7c-13,0-25.9-9.4-29.6-24c-5.3-21,9.4-40.2,31-40.8c9.7-0.3,18.5,1.9,25.8,8.7
		c1.8,1.7,2,2.9-0.1,4.4c-1.7,1.3-3.3,2.9-4.7,4.4c-1.6,1.7-2.7,1.8-4.5,0.1c-9.3-8.7-25-6.5-31.1,4.2c-5,8.7-2.9,20.4,4.7,26.5
		c7.5,6,19.4,5.5,26.7-1.5c1.5-1.4,2.5-1.6,3.9-0.1c1.8,1.9,3.8,3.7,5.8,5.4c1.4,1.2,1.1,2,0,3.2
		C142.6,199.1,134.3,201.7,121.5,201.7z"/>
	<path class="st8" d="M178.7,138.5c0,3.3,0.1,6.7,0.1,10c0,1.1-0.2,2.2,0.6,3.2c-0.4,0.3-0.8,0.7-1.2,1c-10.9,8.1-10.9,24.8,0,32.9
		c0.4,0.3,0.8,0.7,1.2,1c-1.2,2.6-0.4,5.3-0.6,8c-0.1,1.8-0.1,3.5-0.2,5.3c-11.5-2.4-20.9-12.9-22.9-25.6
		c-2.5-15.2,5.7-29.6,20-35.1C176.7,138.9,177.7,138.8,178.7,138.5z"/>
	<path class="st9" d="M178.8,247.3c-6.9,7.1-13.8,14.1-20.6,21.3c-1.7,1.8-2.4,1.4-3.5-0.5c-10.5-17.9,1.8-41.1,22.5-42.3
		c0.6,0,1.1-0.1,1.7-0.2l0.1,0.2c0,7,0,13.9,0,20.9C178.8,247,178.8,247.1,178.8,247.3z"/>
	<path class="st10" d="M178.8,262.1c0.2-0.3,0.4-0.7,0.5-1c7-7.2,14-14.3,20.9-21.5c1.5-1.6,2.1-1.8,3.3,0.3
		c10.4,18-2.2,41.1-22.9,42.1c-0.6,0-1.1,0.1-1.7,0.2l-0.1-0.2C178.8,275.3,178.8,268.7,178.8,262.1z"/>
	<path class="st11" d="M178.9,246.8c0-7,0-13.9,0-20.9c5.2-0.4,9.8,1.2,14.3,3.6c1,0.5,1.7,1,0.5,2.2
		C188.7,236.7,183.8,241.8,178.9,246.8z"/>
	<path class="st12" d="M178.8,262.1c0,6.6,0,13.2,0,19.8c-5,0.3-9.4-1.3-13.7-3.5c-1.1-0.6-1.2-1.1-0.3-2.1
		C169.5,271.6,174.2,266.9,178.8,262.1z"/>
	<path class="st2" d="M179.4,186.8c-0.4-0.3-0.8-0.7-1.2-1c0.7-0.8,0.6-1.7,0.6-2.7c0-9.2,0-18.4,0-27.6c0-0.9,0.1-1.9-0.6-2.7
		c0.4-0.3,0.8-0.7,1.2-1c8.3-3.8,16.3-3.9,23.5,2.3c7.3,6.2,8.6,18.4,3.3,26.6c-5.1,7.9-15.7,10.9-24.8,7
		C180.8,187.4,180.1,187,179.4,186.8z"/>
	<path class="st3" d="M178.2,152.8c0.7,0.8,0.6,1.7,0.6,2.7c0,9.2,0,18.4,0,27.6c0,0.9,0.1,1.9-0.6,2.7
		C167.3,177.6,167.3,160.9,178.2,152.8z"/>
</g>
</svg>
