<?xml version="1.0" encoding="utf-8"?>
<!-- Generator: Adobe Illustrator 25.0.1, SVG Export Plug-In . SVG Version: 6.00 Build 0)  -->
<svg version="1.1" id="Layer_1" xmlns="http://www.w3.org/2000/svg" xmlns:xlink="http://www.w3.org/1999/xlink" x="0px" y="0px"
	 viewBox="0 0 360 360" style="enable-background:new 0 0 360 360;" xml:space="preserve">
<style type="text/css">
	.st0{fill:#FEB69E;}
	.st1{fill:#F9503C;}
	.st2{fill:#64AEFE;}
	.st3{fill:#424C83;}
	.st4{fill:#606F9B;}
	.st5{fill:#FEB59E;}
	.st6{fill:#FEB49C;}
	.st7{fill:#FCB59F;}
</style>
<g>
	<path class="st0" d="M331.9,69.9c-6.6,12.7-14.2,24.9-21.3,37.4c-2.7,4.8-7.8,5.7-12.4,7.2c-2.3-6-5.5-11.7-7.5-17.8
		c6.1-1.6,7.4-7.4,10.2-11.9c4.2-6.9,8-13.9,12.1-20.9c2-3.5,4.9-6,9.1-5.9c4.2,0.2,7.4,2.2,9.1,6.3c0.1,0.2,0.4,0.4,0.6,0.7
		C331.9,66.6,331.9,68.2,331.9,69.9z"/>
	<path class="st1" d="M290.7,96.7c2,6.1,5.3,11.8,7.5,17.8c-5.7,2.2-11.4,4.5-17.1,6.6c-1.9,0.7-2.3,1.4-1.8,3.5
		c6.3,27.3,12.5,54.6,18.7,81.9c1.2,5.4-0.7,8-6.4,8.2c-2.9,0.1-5.8,0.2-8.7,0.3c-7.6-0.2-15.2,0.1-22.7,0.6
		c-3.7,0.1-7.4,0.2-11.1,0.4c-8-0.3-16,0.1-23.9,0.6c-0.7,0-1.4,0-2.1,0c-5.4,0-7.4-2.2-6.5-7.5c4.3-25.4,8.5-50.8,12.8-76.2
		c0.1-0.4,0.1-0.8,0.2-1.2c0.7-2.6-0.2-3.1-2.7-2.5c-3.9,0.9-7.8,1.9-11.9,2.1c-0.2-6.5-0.4-13-0.6-19.5c10-2.3,19.7-5.8,30.2-5.7
		c1.1,5.8,5.3,9.7,10,9.3c5.1-0.5,8.6-4.4,8.8-9.7c7.5-0.9,14-4.7,21.1-7C286.6,98.1,288.5,97,290.7,96.7z"/>
	<path class="st2" d="M148.9,133.7c-3.8,0.1-7.7,0.4-11.5,0.4c-2.4-0.1-3,0.8-2.9,3.1c0.7,21,1.2,41.9,1.8,62.9c0,1.2,0,2.4-0.1,3.6
		c-8.8,0.3-17.7,0.5-26.5,0.8c-0.5,0-1,0-1.5,0.1c-7.9,0.2-15.9,0.4-23.8,0.6c-0.7-22.6-1.3-45.3-2-67.9c-0.2-5.8,0.8-4.6-4.9-6.5
		c-3-1-6.1-2-9.1-3.1c1.7-6.2,3.3-12.4,5-18.6c5.3,1.5,10.6,2.9,15.8,4.7c3.2,1.1,6.3,1.5,9.6,1.9c0.6,5,3.4,8.1,7.5,9
		c5.5,1.2,11.4-3.5,11.3-9.5c5.2-0.2,10.4-0.4,15.6-0.5c4.3-0.1,8.7-0.2,13-0.3C147,120.8,147.9,127.3,148.9,133.7z"/>
	<path class="st3" d="M109.7,204.5c8.8-0.3,17.7-0.5,26.5-0.8c2.5,4.4,4.7,8.9,7.5,13.1c5.3,7.9,7.9,16.6,9.6,25.8
		c2.5,13.3,5.4,26.6,8.2,39.9c0.6,3.1,1,6.2-0.4,9.2c-1.9,4.4-6.7,7.4-11.4,7c-5.5-0.4-9.7-3.8-10.9-9.3
		c-2.7-12.3-5.2-24.6-7.7-36.9c-1-4.7-1.9-9.5-2.9-14.2c-0.3-1.3-0.9-2.4-1.6-3.6c-5.2-9.1-10.4-18.2-15.6-27.2
		C110.6,206.5,110.2,205.5,109.7,204.5z"/>
	<path class="st4" d="M84.4,205.1c7.9-0.2,15.9-0.4,23.8-0.6c-2.9,16.7-5.8,33.5-8.7,50.2c-2,11.6-4.1,23.2-6.1,34.8
		c-1.2,7-6.4,11.6-12.5,11.1c-7.2-0.6-12.2-6.6-11-13.8c4.6-27,9.5-54.1,14.3-81.1C84.3,205.5,84.4,205.3,84.4,205.1z"/>
	<path class="st5" d="M225.1,216.6c8-0.5,16-0.9,23.9-0.6c-5.9,22.7-11.8,45.3-17.7,68c-0.6,2.2-1.1,4.5-2,6.6
		c-2.3,5-8.4,7.4-13.5,5.5c-5.8-2.1-8.8-7.6-7.2-13.9c4.2-16.5,8.6-32.9,12.8-49.3c1.2-4.5,2.3-9,3.5-13.4
		C225.3,218.6,225.5,217.6,225.1,216.6z"/>
	<path class="st5" d="M260.2,215.7c7.6-0.6,15.1-0.8,22.7-0.6c0.1,4.2,0.1,8.5,0.2,12.7c0.5,18.5,1.1,37.1,1.5,55.6
		c0.2,9.1-8.8,14.8-16.5,10.6c-4.2-2.3-5.8-6.2-5.9-10.8c-0.6-21.3-1.2-42.5-1.8-63.8C260.4,218.1,260.3,216.9,260.2,215.7z"/>
	<path class="st0" d="M148.9,133.7c-0.9-6.4-1.9-12.9-2.8-19.3c4.1-0.4,7.4-2.9,11.1-4.5c7.4-3.3,14.8-6.8,22-10.4
		c6.1-3,11-2.5,14.9,2.3c1.4,1.8,3.7,2.3,5.7,3.3c3.8,2,7.7,3.9,11.5,5.9c1,0.5,2,1,3.1,0.8c0.2,6.5,0.4,13,0.6,19.5
		c-2.9,1.3-5.7,0.6-8.4-0.7c-6.4-3.2-12.8-6.3-19.1-9.8c-2.6-1.4-4.7-1.5-7.3-0.2c-8,4-16.2,7.7-24.3,11.5
		C153.6,133.3,151.4,133.9,148.9,133.7z"/>
	<path class="st0" d="M127.2,88.2c0.3,11.3-8.2,20.2-19.4,20.8c-10.2,0.5-20.7-7.2-21-19.5c-0.3-11.9,8.2-20.6,19.7-21
		C118.9,68.1,127.4,78,127.2,88.2z"/>
	<path class="st0" d="M272.9,78.9c0.2,10-7.2,19.4-18.8,19.5c-11.7,0.1-19.4-7.9-19.7-18.7c-0.3-11.7,8.5-19.4,18.7-19.8
		C263.8,59.6,272.6,68.1,272.9,78.9z"/>
	<path class="st0" d="M73.3,109.1c-1.7,6.2-3.3,12.4-5,18.6c-5.3-1.2-10.5-2.9-15.5-4.8c-3.6-1.3-5.8-4.6-8.6-7
		c-6.3-5.3-12.3-11-18.4-16.6c-2.9-2.7-4.1-6.2-2.8-10.2c1.3-3.9,4-6.2,8.1-6.8c3.3-0.5,6,0.7,8.5,3c6.9,6.2,13.8,12.3,20.7,18.6
		c1.9,1.7,4.3,2.2,6.5,3C68.9,107.7,71.1,108.4,73.3,109.1z"/>
	<path class="st6" d="M263.4,105.7c-0.1,5.3-3.7,9.2-8.8,9.7c-4.7,0.5-8.9-3.4-10-9.3C250.8,106,257.1,105.9,263.4,105.7z"/>
	<path class="st7" d="M117.5,115.2c0.1,6-5.8,10.8-11.3,9.5c-4.1-0.9-6.9-4-7.5-9C105,115.6,111.2,115.4,117.5,115.2z"/>
</g>
</svg>
