<?xml version="1.0" encoding="utf-8"?>
<!-- Generator: Adobe Illustrator 25.0.1, SVG Export Plug-In . SVG Version: 6.00 Build 0)  -->
<svg version="1.1" id="Layer_1" xmlns="http://www.w3.org/2000/svg" xmlns:xlink="http://www.w3.org/1999/xlink" x="0px" y="0px"
	 viewBox="0 0 360 360" style="enable-background:new 0 0 360 360;" xml:space="preserve">
<style type="text/css">
	.st0{fill:#51B7A8;}
	.st1{fill:#D5A23E;}
	.st2{fill:#52A75B;}
	.st3{fill:#B7614E;}
	.st4{fill:#DA735C;}
	.st5{fill:#54B7A8;}
	.st6{fill:#B5B4B3;}
	.st7{fill:#EDEDEB;}
</style>
<g>
	<path class="st0" d="M300.2,257.6c1.8,7.6,2.8,15.3,4.2,22.9c1.4,7.9,2.8,15.8,4.2,23.7c0,0.1,0.2,0.2,0.4,0.3c0,0.8,0,1.7,0,2.5
		c-30,0-60.1,0-90.1,0c-1.1,0-2.2,0-3.3-0.1c0-15.6,0-31.2-0.1-46.8c0-1.6,0.4-2.3,2.1-2.2c3,0.1,6-0.2,9-0.2
		c8.1-0.1,16.3-0.1,24.4-0.1C267.5,257.6,283.8,257.6,300.2,257.6z"/>
	<path class="st1" d="M251.1,257.6c-8.1,0-16.3,0-24.4,0.1c-3,0-6,0.3-9,0.2c-1.7,0-2.1,0.7-2.1,2.2c0,15.6,0,31.2,0.1,46.8
		c-0.8,0-1.7,0.1-2.5,0.1c-53.1,0-106.2,0-159.3,0c-3.1,0-3.1,0-2.5-3.1c4.4-21.7,8.9-43.4,13.4-65.1c2.3-11.1,4.6-22.3,6.8-33.4
		c0.1-0.3,0.2-0.6,0.4-0.9c2.9,0,5.9,0,8.8,0.1c10.8,0,21.7,0.1,32.5,0.1c0,8.9,0,17.8,0,26.7c0,4.7-0.6,4.1,4.2,4.1
		c43.5,0,87.1,0,130.6,0c2.4,0,3.1,0.6,3.1,3.1C250.9,244.8,251.1,251.2,251.1,257.6z"/>
	<path class="st2" d="M251.1,257.6c0-6.4-0.1-12.8,0-19.2c0.1-2.4-0.6-3.1-3.1-3.1c-43.5,0.1-87.1,0.1-130.6,0
		c-4.8,0-4.2,0.6-4.2-4.1c0-8.9,0-17.8,0-26.7c6.4,0,12.8-0.1,19.1,0c2.4,0,3.2-0.6,3.2-3.1c-0.1-15.4,0-30.7,0-46.1
		c4.7-0.1,9.3-0.1,14-0.2c10,22,20,44,30,66c1.5,1,1.2-0.7,1.4-1.1c4.9-10.8,9.8-21.7,14.7-32.5c4.8-10.8,9.7-21.5,14.6-32.3
		c23.1,0,46.2,0.1,69.3,0c2.2,0,2.9,0.6,3.3,2.8c4.2,24.3,8.5,48.6,12.8,72.9c1.6,8.8,3.1,17.7,4.6,26.5
		C283.8,257.6,267.5,257.6,251.1,257.6z"/>
	<path class="st3" d="M210.2,155.3c-4.9,10.8-9.7,21.5-14.6,32.3c-4.9,10.8-9.7,21.7-14.7,32.5c-0.2,0.4,0.1,2.1-1.4,1.1
		c0.7-0.9,0.4-1.9,0.4-2.9c0-31.3,0-62.5,0-93.8c6-0.4,11.5-2,16.3-5.7c15-11.5,13.6-34.7-2.7-44.3c-4.2-2.5-8.9-3.4-13.6-3.9
		c0-5.8,0-11.7,0-17.5c22.7,0,41.4,14.1,47.3,36.6c3.2,12.3,1.7,24.2-3.7,35.7C219,135.2,214.6,145.3,210.2,155.3z"/>
	<path class="st4" d="M179.9,53c0,5.8,0,11.7,0,17.5c0,0.1,0,0.3,0,0.4c-14.1-0.2-26.2,11.4-26.7,25.4
		c-0.5,14.6,11.2,27.8,26.7,27.8c0,0.1,0,0.2,0,0.3c0,31.3,0,62.5,0,93.8c0,1,0.3,2-0.4,2.9c-10-22-20-44-30-66
		c-5-11.3-10.3-22.4-15.1-33.8c-10.6-25.5,3.1-56.4,29.2-65.7C168.9,53.8,174.4,53,179.9,53z"/>
	<path class="st5" d="M135.5,155.4c0,15.4-0.1,30.7,0,46.1c0,2.5-0.8,3.2-3.2,3.1c-6.4-0.1-12.8,0-19.1,0c-10.8,0-21.7-0.1-32.5-0.1
		c-2.9,0-5.9,0-8.8-0.1c1.4-7.1,2.7-14.2,4.2-21.4c1.8-8.7,3.7-17.3,5.4-26c0.3-1.5,0.8-1.9,2.2-1.9c16.9,0,33.7,0,50.6,0
		C134.7,155.2,135.1,155.4,135.5,155.4z"/>
	<path class="st6" d="M179.9,70.9c0-0.1,0-0.3,0-0.4c4.8,0.6,9.4,1.4,13.6,3.9c16.3,9.6,17.7,32.8,2.7,44.3
		c-4.8,3.7-10.3,5.4-16.3,5.7c0-0.1,0-0.2,0-0.3C179.9,106.4,179.9,88.7,179.9,70.9z"/>
	<path class="st7" d="M179.9,70.9c0,17.8,0,35.5,0,53.3c-15.5,0-27.3-13.3-26.7-27.8C153.7,82.3,165.8,70.7,179.9,70.9z"/>
</g>
</svg>
