<?xml version="1.0" encoding="utf-8"?>
<!-- Generator: Adobe Illustrator 25.0.1, SVG Export Plug-In . SVG Version: 6.00 Build 0)  -->
<svg version="1.1" id="Layer_1" xmlns="http://www.w3.org/2000/svg" xmlns:xlink="http://www.w3.org/1999/xlink" x="0px" y="0px"
	 viewBox="0 0 360 360" style="enable-background:new 0 0 360 360;" xml:space="preserve">
<style type="text/css">
	.st0{fill:#D8DFEC;}
	.st1{fill:#CED5E4;}
	.st2{fill:#7885EC;}
	.st3{fill:#48BAEC;}
	.st4{fill:#86A3B6;}
	.st5{fill:#7986EB;}
	.st6{fill:#FDA921;}
	.st7{fill:#FAC0B8;}
	.st8{fill:#364A68;}
	.st9{fill:#049CE5;}
	.st10{fill:#676FCD;}
	.st11{fill:#5958B2;}
	.st12{fill:#2B3A51;}
	.st13{fill:#0584BD;}
</style>
<g>
	<path class="st0" d="M48,178.2c0-39.7,0-79.4,0-119.1c1-1.8,1.6-3.8,3.1-5.3c2.3-2.3,5-4,8.4-4c46.2,0,92.4,0,138.6,0
		c0,4.6,0,9.3,0,14c-4.6,2.4-5.6,4.4-5,9.5c-6.6,8.1-13.1,16.3-19.7,24.4c-0.8,0-1.6,0-2.5,0.1c-4.4-4.8-8.9-9.6-13.3-14.4
		c0.4-5.8-3.3-9.6-8.5-8.8c-4.2,0.7-6.3,4.2-5.7,9.6c-4.9,6-9.8,11.9-14.8,17.9c-1.6-0.1-3.1,0.4-4.6,0.9
		c-5.9-3.2-11.9-6.4-17.8-9.6c-1.5-5-4.5-7.4-8.5-6.8c-4.1,0.7-6.4,3.8-6.2,8.6c-5.8,5.4-11.9,10.7-17.4,16.4
		c-0.7,0-1.4-0.1-2.1-0.1c-4,0-7.1,2.9-7.3,6.8c-0.2,3.8,2.7,7.2,6.5,7.6c4.7,0.5,8.1-3.1,8.1-8.7c5.9-5.5,11.7-11,17.6-16.4
		c1.9,0.3,3.8,0,5.6-0.7c5.9,3.3,11.8,6.7,18,9.6c0.9,4.8,4.4,7.6,8.5,6.8c4.4-0.9,6.7-4.5,5.8-9.4c4.9-6,9.8-12.1,14.7-18.1
		c0.8,0,1.7,0,2.5-0.1c4.4,4.7,8.9,9.5,13.3,14.2c-0.5,5.7,2.9,9.5,8.1,9c4.5-0.5,6.8-4.2,6.1-9.7c1.2-1.4,2.5-2.9,3.7-4.3
		c5-6,9.9-12.1,14.9-18.1c0.5,11.9-1.2,23.4-5.1,34.7c-6.3,0-12.7,0.1-19,0.1c-1.6,0-2.3,0.5-2.2,2.2c0.1,2.1,0,4.3,0,6.4
		c0,7.6,3.2,11.1,10.9,11.6c-0.1,0.4-0.2,0.9-0.4,1.2c-4.5,6.5-9.5,12.5-15.5,17.7c-0.8,0.7-1.8,1.3-2.2,2.4
		c-1.2,0.1-2.4,0.2-3.6,0.2c-30.4,0-60.8,0-91.2,0c-0.9,0-1.9,0-2.8,0c-2.2,0.1-3.8,1.7-3.9,3.7c0,2.1,1.4,3.8,3.6,4
		c0.8,0.1,1.7,0,2.6,0c27.5,0,55,0,82.4,0.1c-1.3,2-3.5,2.6-5.4,3.6c-2.5,1.3-5.4,2-7.5,4.1c-8.2-0.6-16.4-0.4-24.7-0.4
		c-15.1,0-30.2,0-45.3,0c-4.6,0-6.4,2-5.3,6.1c-0.8,0.8-1.8,0.5-2.7,0.5C56.5,178.2,52.2,178.2,48,178.2z"/>
	<path class="st1" d="M48,178.2c4.3,0,8.5,0,12.8,0c0.9,0,1.9,0.3,2.7-0.5c1.3,1.5,3,2.1,5,2.1c22.4,0,44.7,0,67.1,0
		c2.1,0,4.1-0.3,5-2.4c0.9-2.2,0-4-1.8-5.4c2.1-2.1,4.9-2.8,7.5-4.1c2-1,4.1-1.6,5.4-3.6c0.4,0,0.9-0.1,1.3-0.1
		c16.4,0,32.8,0,49.2,0c3.2,0,4.7-1.3,4.8-3.8c0-2.8-1.4-4-4.8-4c-5.2,0-10.5,0-15.7,0c-7.3,0-14.6-0.1-21.9-0.2
		c0.3-1.2,1.3-1.7,2.2-2.4c6-5.2,11-11.2,15.5-17.7c0.2-0.3,0.3-0.8,0.4-1.2c13.2,0,26.5,0,39.7,0c0,15.8,0,31.5,0,47.3
		c0,7.9-5,12.9-12.8,12.9c-8.2,0-16.5,0-24.7,0c-0.9,0-1.9-0.2-2.7,0.4c-6.4-0.5-12.7-0.5-19.1,0c-0.8-0.6-1.6-0.4-2.5-0.4
		c-19.6,0-39.3,0-58.9,0c-0.8,0-1.7-0.2-2.5,0.4c-6.4-0.5-12.7-0.5-19.1,0c-0.8-0.6-1.8-0.4-2.7-0.4c-5.8,0-11.6-0.1-17.4,0
		c-3.3,0.1-5.9-1.3-8.3-3.5c-1.8-1.6-2.4-3.9-3.5-5.9C48,183.4,48,180.8,48,178.2z"/>
	<path class="st2" d="M103.7,309.9c-9.6,0.4-19.3,0.2-28.9,0.1c0-4.2,0.1-8.4,0-12.6c0-2.7-2-4.7-4.6-4.7s-4.6,2-4.6,4.7
		c0,4.2,0,8.4,0,12.6c-3.5,0-7,0-10.5,0.1c-3.3,0-5.7-1.5-7.1-4.5c0-6.9,0-13.8,0-20.6c0.7-0.4,0.6-1.2,0.8-1.8
		c1.4-5.4,4.3-9.8,8.8-13.1c4.8-3.6,10.2-5.4,16.2-4.6c0.7,7.8,3.8,10.7,11.5,10.7c2.8,0,5.7,0,8.5,0c7.6,0,10.9-3.1,11.4-10.8
		c7.8-0.7,14.2,2.1,19.5,7.6c3.3,3.4,4.6,7.7,6.2,11.9c0,6.7,0.1,13.5,0.1,20.2c-1.2,3.6-3.8,5-7.4,4.9c-3.4,0-6.8-0.1-10.2-0.1
		c0-4,0.1-8,0-12c-0.1-4.2-4-6.6-7.2-4.6c-2,1.2-2.4,3.2-2.5,5.3C103.6,302.3,103.7,306.1,103.7,309.9z"/>
	<path class="st3" d="M222.3,135c-13.2,0-26.5,0-39.7,0c-7.6-0.6-10.9-4-10.9-11.6c0-2.1,0.1-4.3,0-6.4c-0.1-1.7,0.6-2.2,2.2-2.2
		c6.3,0,12.7,0,19-0.1c9.8,0,19.6,0,29.4,0c13.4,0,26.8,0.1,40.1,0.1c0.9,6.1,4.8,9.8,10.2,9.7c5.3-0.1,9-3.8,9.6-9.7
		c5.1,0.1,10.1-0.4,15.2,0.3c8.3,1.2,14.4,7.7,14.5,16.1c0.2,16,0.2,31.9,0,47.9c-0.1,9.2-7.4,16-16.5,15.9c0-15.8,0-31.6,0-47.4
		c0-1.4-0.1-2.7-0.5-4.1c-0.5-2-2-2.8-3.8-2.9c-1.7-0.1-3.2,0.8-3.9,2.5c-0.5,1.1-0.6,2.3-0.6,3.5c0,16.1,0,32.3,0,48.4
		c-3.6,0.1-7.3,0.1-10.9,0.2c-3.6,0-7.2,0-10.8-0.1c-6.2,0-12.4-0.1-18.6-0.1c0-0.7-0.1-1.4-0.1-2.1c0-18.2,0-36.4,0-54.6
		c0-2-0.1-3.6-2.8-3.6C236.5,135,229.4,135,222.3,135z"/>
	<path class="st1" d="M222.3,114.8c-9.8,0-19.6,0-29.4,0c3.9-11.2,5.6-22.8,5.1-34.7c0.4-0.6,0.7-1.2,1.1-1.8
		c4.4-0.2,6.8-1.8,7.9-5.2c0.9-2.9-0.1-6-2.6-8c-1.9-1.5-4.1-1.6-6.3-1.3c0-4.6,0-9.3,0-14c3.9,0,7.9,0,11.8,0
		c7,0,12.3,5.3,12.4,12.4C222.3,79.7,222.2,97.3,222.3,114.8z"/>
	<path class="st4" d="M164.5,156.3c7.3,0.1,14.6,0.1,21.9,0.2c5.2,0,10.5,0,15.7,0c3.4,0,4.8,1.2,4.8,4c0,2.5-1.6,3.8-4.8,3.8
		c-16.4,0-32.8,0-49.2,0c-0.4,0-0.9,0-1.3,0.1c-27.5,0-55,0-82.4-0.1c-0.9,0-1.7,0.1-2.6,0c-2.2-0.3-3.6-2-3.6-4
		c0-2,1.7-3.6,3.9-3.7c0.9-0.1,1.9,0,2.8,0c30.4,0,60.8,0,91.2,0C162.1,156.5,163.3,156.4,164.5,156.3z"/>
	<path class="st4" d="M138.7,172c1.8,1.4,2.7,3.2,1.8,5.4c-0.9,2.1-2.9,2.4-5,2.4c-22.4,0-44.7,0-67.1,0c-2,0-3.7-0.5-5-2.1
		c-1-4.1,0.7-6.1,5.3-6.1c15.1,0,30.2,0,45.3,0C122.3,171.6,130.5,171.4,138.7,172z"/>
	<path class="st5" d="M199,78.3c-0.4,0.6-0.7,1.2-1.1,1.8c-5,6-9.9,12.1-14.9,18.1c-1.2,1.5-2.4,2.9-3.7,4.3
		c-1.3-2.5-3.3-4.2-6.1-4.8c6.6-8.1,13.1-16.3,19.7-24.4C194.2,75.9,196.2,77.7,199,78.3z"/>
	<path class="st5" d="M96.9,101c-5.9,5.5-11.7,11-17.6,16.4c-0.9-2.7-2.6-4.6-5.2-5.7c5.5-5.8,11.6-11,17.4-16.4
		C92.3,98.1,94.1,100,96.9,101z"/>
	<path class="st5" d="M128.6,102.1c4.9-6,9.8-11.9,14.8-17.9c1.3,2.6,3.3,4.2,6.1,4.8c-4.9,6-9.8,12.1-14.7,18.1
		C133.6,104.4,131.6,102.8,128.6,102.1z"/>
	<path class="st6" d="M96.9,101c-2.8-1-4.5-2.9-5.4-5.7c-0.2-4.8,2.1-7.9,6.2-8.6c3.9-0.6,7,1.8,8.5,6.8c-0.3,2.8-1.4,5.1-3.7,6.8
		C100.7,101,98.8,101.3,96.9,101z"/>
	<path class="st6" d="M173.3,97.7c2.8,0.6,4.8,2.3,6.1,4.8c0.7,5.5-1.6,9.3-6.1,9.7c-5.1,0.5-8.5-3.3-8.1-9c1-2.7,2.9-4.5,5.6-5.4
		C171.7,97.8,172.5,97.7,173.3,97.7z"/>
	<path class="st6" d="M149.5,89.1c-2.8-0.7-4.8-2.3-6.1-4.8c-0.6-5.4,1.5-9,5.7-9.6c5.2-0.8,8.9,3,8.5,8.8c-0.9,2.9-2.9,4.6-5.6,5.6
		C151.1,89,150.3,89.1,149.5,89.1z"/>
	<path class="st6" d="M128.6,102.1c2.9,0.6,5,2.3,6.1,5.1c0.9,4.9-1.4,8.6-5.8,9.4c-4.1,0.8-7.6-2-8.5-6.8c0-2.9,1.3-5.1,3.6-6.8
		C125.5,102.5,127,102.1,128.6,102.1z"/>
	<path class="st6" d="M74.1,111.7c2.6,1.1,4.3,3,5.2,5.7c0,5.5-3.4,9.2-8.1,8.7c-3.8-0.4-6.7-3.8-6.5-7.6c0.2-3.9,3.3-6.8,7.3-6.8
		C72.7,111.6,73.4,111.7,74.1,111.7z"/>
	<path class="st6" d="M199,78.3c-2.9-0.6-4.8-2.3-6-5c-0.6-5.1,0.5-7.1,5-9.5c2.2-0.2,4.4-0.1,6.3,1.3c2.5,1.9,3.5,5,2.6,8
		C205.9,76.5,203.4,78.1,199,78.3z"/>
	<path class="st5" d="M124,103c-2.2,1.7-3.6,3.9-3.6,6.8c-6.2-2.9-12.1-6.2-18-9.6c2.3-1.7,3.5-4,3.7-6.8
		C112.1,96.6,118.1,99.8,124,103z"/>
	<path class="st5" d="M152,89c2.7-1,4.7-2.8,5.6-5.6c4.4,4.8,8.9,9.6,13.3,14.4c-2.7,1-4.6,2.7-5.6,5.4
		C160.9,98.5,156.4,93.7,152,89z"/>
	<path class="st3" d="M131,305.1c0-6.7-0.1-13.5-0.1-20.2c0.3-0.7,0.8-1.3,1-2.1c1.4-5.4,4.4-9.7,8.8-12.9
		c4.8-3.5,10.1-5.3,16.1-4.5c0.8,7.9,3.8,10.7,11.7,10.7c2.9,0,5.8,0,8.7,0c7.2,0,10.8-3.6,10.9-10.9c7.8-0.5,14.3,2.1,19.7,7.8
		c3.2,3.4,4.5,7.7,6.2,11.8c0,6.7,0,13.5,0,20.2c-1,3.2-3.3,4.9-6.6,4.9c-3.7,0-7.3-0.1-11-0.1c0-3.9,0.1-7.7,0-11.6
		c-0.1-3.9-2.2-6-5.5-5.6c-2.6,0.3-4.2,2.4-4.2,5.9c-0.1,3.8,0,7.6,0,11.3c-9.7,0.4-19.3,0.1-29,0.1c0-4.2,0.1-8.4,0.1-12.6
		c0-2.8-2-4.7-4.6-4.7c-2.6,0-4.6,1.9-4.6,4.8c-0.1,4.2,0,8.4,0.1,12.6c-3.5,0-7,0-10.4,0C134.6,310,132.1,308.6,131,305.1z"/>
	<path class="st5" d="M214,305.1c0-6.7,0-13.5,0-20.2c0.3-0.8,0.8-1.5,1-2.3c1.5-5.2,4.4-9.5,8.8-12.7c4.8-3.5,10.1-5.3,16.1-4.5
		c0.3,7.3,3.8,10.7,11.2,10.7c2.9,0,5.8,0,8.8,0c7.7,0,11-3.2,11.5-11c0.5-0.1,1-0.1,1.5-0.2c4.5,0.4,8.9,1.3,12.9,3.7
		c1.9,1.2,3.2,3.1,5.4,3.9c0.6,2,2.2,3.4,3.1,5.3c1.9,3.6,2.7,7.5,2.8,11.6c0.1,4.5,0.1,9.1,0,13.6c0,4.4-2.1,6.7-6.5,6.9
		c-3.7,0.2-7.4,0-11-0.1c0-2.9,0-5.8,0-8.8c0-2,0.1-3.9-0.7-5.8c-0.8-1.7-2.1-2.6-4-2.7c-2,0-3.5,0.8-4.3,2.7
		c-0.5,1.2-0.8,2.4-0.8,3.7c0.1,3.6,0,7.2,0,10.8c-9.6,0.3-19.3,0.2-28.9,0.1c0-4.2,0.1-8.4,0-12.6c0-2.7-2-4.7-4.6-4.7
		s-4.6,2-4.6,4.7c0,4.2,0,8.4,0,12.6c-3.5,0-7,0.1-10.4,0.1C217.6,310,215.1,308.6,214,305.1z"/>
	<path class="st7" d="M282.2,114.9c-0.6,5.9-4.3,9.6-9.6,9.7c-5.4,0.1-9.3-3.6-10.2-9.7c0-1.8,0-3.6,0.1-5.4
		c0.2-4.1-0.2-7.4-4.2-10.3c-5.1-3.7-6.3-10-6.6-16.1c-0.1-1.7,0.1-3.4,0.1-5.1c1.8-5.1,5-8.4,10.7-8.7c2.7,0.2,5.5,0.3,8.2,0
		c3.3,0,6.7,0,10,0.1c7,0,10,2.1,12.5,8.7c0.3,4.4,0.3,8.7-1.1,12.9c-1.4,4.5-4.1,8.1-8,10.7c-1.3,0.9-1.8,1.8-1.8,3.3
		C282.5,108.2,281.7,111.6,282.2,114.9z"/>
	<path class="st8" d="M291,272.6c-2.2-0.8-3.5-2.7-5.4-3.9c-4-2.4-8.4-3.3-12.9-3.7c-0.9-5-1.2-9.9,2.6-14c5.7-6.4,7.5-14,7.3-22.3
		c-0.2-6.3-0.1-12.7,0-19c0.1-3.9-1.1-7.3-3.4-10.5c-1-1.4-2.9-1.9-3.4-3.7c3.6-0.1,7.3-0.1,10.9-0.2c1.4,0.1,2.9,0.1,4.3,0.2
		C291,221.1,291,246.8,291,272.6z"/>
	<path class="st8" d="M293.2,78c-2.5-6.6-5.5-8.7-12.5-8.7c-3.3,0-6.7,0-10-0.1c0-1.3,0-2.5,0-3.8c0-2.3-1.9-4.4-4-4.5
		c-2.1-0.1-4.1,1.9-4.3,4.3c-0.1,1.4,0,2.7,0,4.1c-5.6,0.3-8.9,3.7-10.7,8.7c0-5.4-0.1-10.8,0-16.2c0.1-7.5,4.5-11.8,11.9-11.8
		c6,0,12,0,18,0c7,0,11.5,4.5,11.6,11.4C293.4,66.8,293.3,72.4,293.2,78z"/>
	<path class="st9" d="M291,195.3c-1.4-0.1-2.9-0.1-4.3-0.2c0-16.1,0-32.3,0-48.4c0-1.2,0.1-2.4,0.6-3.5c0.7-1.7,2.2-2.5,3.9-2.5
		c1.8,0.1,3.3,0.9,3.8,2.9c0.3,1.3,0.5,2.7,0.5,4.1c0,15.8,0,31.6,0,47.4C294,195.2,292.5,195.3,291,195.3z"/>
	<path class="st10" d="M103.7,309.9c0-3.8-0.1-7.5,0-11.3c0-2.1,0.5-4.1,2.5-5.3c3.3-2,7.1,0.4,7.2,4.6c0.1,4,0,8,0,12
		C110.2,310.2,106.9,310.3,103.7,309.9z"/>
	<path class="st10" d="M269.7,309.9c0-3.6,0-7.2,0-10.8c0-1.3,0.3-2.6,0.8-3.7c0.8-1.9,2.3-2.7,4.3-2.7c1.9,0,3.2,0.9,4,2.7
		c0.8,1.9,0.7,3.8,0.7,5.8c0,2.9,0,5.8,0,8.8C276.2,310.2,272.9,310.3,269.7,309.9z"/>
	<path class="st9" d="M186.7,309.9c0-3.8-0.1-7.6,0-11.3c0.1-3.5,1.7-5.6,4.2-5.9c3.2-0.3,5.4,1.8,5.5,5.6c0.1,3.9,0,7.7,0,11.6
		C193.2,310.2,190,310.3,186.7,309.9z"/>
	<path class="st10" d="M231.6,310c0-4.2-0.1-8.4,0-12.6c0-2.7,2-4.7,4.6-4.7s4.6,2,4.6,4.7c0,4.2,0,8.4,0,12.6
		C237.7,310.2,234.6,310.2,231.6,310z"/>
	<path class="st10" d="M65.5,310c0-4.2-0.1-8.4,0-12.6c0-2.7,2-4.7,4.6-4.7s4.6,2,4.6,4.7c0,4.2,0,8.4,0,12.6
		C71.7,310.2,68.6,310.2,65.5,310z"/>
	<path class="st9" d="M148.6,310c0-4.2-0.1-8.4-0.1-12.6c0-2.8,2-4.8,4.6-4.8s4.6,1.9,4.6,4.7c0.1,4.2,0,8.4-0.1,12.6
		C154.7,310,151.6,310,148.6,310z"/>
	<path class="st8" d="M150.2,216.8c0-3.5-0.2-7,0.9-10.4c2-5.8,6.1-9.1,11.8-10.7c6.4-0.5,12.7-0.5,19.1,0c8.9,3,12.7,8.2,12.7,17.6
		c0,1,0,2.1,0,3.1c-0.1,0.6-0.3,1.2-0.4,1.7c-0.8,9.1-6.7,16.3-15.6,19c-8.5,2.6-17.7-0.2-23.4-6.9
		C152.2,226.2,150.8,221.7,150.2,216.8z"/>
	<path class="st8" d="M99,195.6c8.9,3,12.7,8.3,12.7,17.6c0,1,0,2.1,0,3.1c-0.1,0.6-0.3,1.2-0.4,1.7c-0.9,9.7-7.9,17.6-17.6,19.6
		c-9.3,2-19.1-2.7-23.8-11.1c-1.8-3.2-2.3-6.7-2.9-10.3c0.1-3.3-0.1-6.7,0.9-9.9c2-5.8,6.1-9.2,11.8-10.8
		C86.3,195.1,92.7,195.1,99,195.6z"/>
	<path class="st11" d="M100.1,265.3c1.7,0,3.4,0,5.1,0c-0.5,7.7-3.8,10.8-11.4,10.8c-2.8,0-5.7,0-8.5,0c-7.6,0-10.8-2.9-11.5-10.7
		c1.7,0,3.4-0.1,5.1-0.1c1.2,4.5,2.8,5.8,7.4,5.8c2.1,0,4.3,0,6.4,0C97.3,271.1,98.8,269.9,100.1,265.3z"/>
	<path class="st7" d="M100.1,265.3c-1.3,4.6-2.8,5.8-7.4,5.8c-2.1,0-4.3,0-6.4,0c-4.6-0.1-6.2-1.3-7.4-5.8c0-3.8,0-7.5,0-11.3
		c0-1.2-0.1-2.1-1.3-2.8c-7.1-4.5-10.2-11.3-10.5-19.5c-0.2-5.1,0-10.3,0-15.4c0.6,3.5,1.1,7,2.9,10.3c4.6,8.4,14.5,13,23.8,11.1
		c9.7-2.1,16.7-9.9,17.6-19.6c0.1-0.6,0.2-1.2,0.4-1.7c0,6.7,0.6,13.4-0.5,20c-1,6-4.1,11-9.3,14.5c-1.5,1-2,2.1-1.9,3.8
		C100.1,258.1,100.1,261.7,100.1,265.3z"/>
	<path class="st8" d="M233.2,216.8c0-3.5-0.2-7,0.9-10.4c1.7-5,5.1-8.4,10.1-10.2c0.8-0.3,1.7-0.3,2.3-1c6.2,0,12.4,0.1,18.6,0.1
		c0.5,0.3,1,0.7,1.5,0.9c6.4,2.5,10.2,7,11.2,13.9c-0.3,3.8,0.2,7.6-0.8,11.3c-0.1,0.3-0.2,0.7-0.3,1c-2.8,8.4-8.5,13.6-17.1,15.3
		c-8.6,1.6-15.9-1.3-21.5-8.1C235,225.9,233.8,221.4,233.2,216.8z"/>
	<path class="st12" d="M277.7,210.1c-0.9-6.9-4.7-11.4-11.2-13.9c-0.5-0.2-1-0.6-1.5-0.9c3.6,0,7.2,0,10.8,0.1
		c0.5,1.8,2.3,2.3,3.4,3.7c2.3,3.2,3.5,6.6,3.4,10.5c-0.1,6.3-0.2,12.7,0,19c0.2,8.3-1.6,16-7.3,22.3c-3.8,4.2-3.5,9-2.6,14
		c-0.5,0.1-1,0.1-1.5,0.2c-1.6-0.7-3.4-0.1-5-0.3c0-3.8,0-7.5-0.1-11.3c0-1.2,0.5-1.7,1.5-2.4c4.5-3,7.7-7,9.2-12.3
		c1.6-5.7,1-11.6,1-17.4C277.7,217.7,277.7,213.9,277.7,210.1z"/>
	<path class="st13" d="M156.8,265.4c1.7,0,3.4-0.1,5.1-0.1c1.2,4.5,2.8,5.8,7.4,5.8c2,0,3.9,0,5.9,0c5.2,0,6.7-1.2,7.9-6.2
		c1.7,0.1,3.4-0.3,5,0.3c-0.1,7.3-3.7,10.9-10.9,10.9c-2.9,0-5.8,0-8.7,0C160.6,276.1,157.5,273.4,156.8,265.4z"/>
	<path class="st11" d="M266.1,264.8c1.7,0.2,3.4-0.3,5,0.3c-0.5,7.8-3.8,11-11.5,11c-2.9,0-5.8,0-8.8,0c-7.3,0-10.9-3.4-11.2-10.7
		c1.7,0,3.4,0,5.1-0.1c1.2,4.5,2.8,5.8,7.4,5.8c2.1,0,4.1,0,6.1,0C263.4,271.1,265,269.8,266.1,264.8z"/>
	<path class="st12" d="M262.5,69.2c0-1.4-0.1-2.7,0-4.1c0.1-2.4,2.2-4.4,4.3-4.3c2.1,0.1,3.9,2.2,4,4.5c0,1.3,0,2.5,0,3.8
		C268,69.5,265.2,69.4,262.5,69.2z"/>
	<path class="st7" d="M183.1,265c-1.2,5-2.7,6.2-7.9,6.2c-2,0-3.9,0-5.9,0c-4.6-0.1-6.2-1.3-7.4-5.8c0-3.9,0-7.7,0.1-11.6
		c0-1.1-0.3-1.9-1.3-2.5c-7-4.5-10.1-11.2-10.5-19.3c-0.2-5.1,0-10.1,0-15.2c0.6,4.9,2,9.5,5.3,13.4c5.7,6.8,14.9,9.6,23.4,6.9
		c8.8-2.7,14.8-10,15.6-19c0.1-0.6,0.2-1.2,0.4-1.7c0.1,6.7,0.5,13.5-0.5,20.2c-1,6-4.2,10.8-9.2,14.2c-1.5,1-2.1,2-2,3.7
		C183.2,258,183.1,261.5,183.1,265z"/>
	<path class="st7" d="M266.1,264.8c-1.1,5-2.7,6.3-7.7,6.3c-2.1,0-4.1,0-6.1,0c-4.6-0.1-6.2-1.3-7.4-5.8c0-3.8,0-7.5,0-11.3
		c0-1.2-0.2-2.1-1.3-2.8c-7-4.5-10.2-11.2-10.5-19.3c-0.2-5,0-10.1,0-15.2c0.6,4.6,1.8,9,4.9,12.8c5.6,6.8,12.9,9.7,21.5,8.1
		c8.6-1.6,14.4-6.9,17.1-15.3c0.1-0.3,0.2-0.7,0.3-1c0.3,0,0.5,0,0.8,0.1c-0.1,5.8,0.6,11.7-1,17.4c-1.5,5.2-4.7,9.3-9.2,12.3
		c-0.9,0.6-1.5,1.2-1.5,2.4C266.1,257.3,266.1,261.1,266.1,264.8z"/>
	<path class="st4" d="M277.7,221.5c-0.3,0-0.5,0-0.8-0.1c1-3.7,0.5-7.6,0.8-11.3C277.7,213.9,277.7,217.7,277.7,221.5z"/>
</g>
</svg>
