<?xml version="1.0" encoding="utf-8"?>
<!-- Generator: Adobe Illustrator 25.0.1, SVG Export Plug-In . SVG Version: 6.00 Build 0)  -->
<svg version="1.1" id="Layer_1" xmlns="http://www.w3.org/2000/svg" xmlns:xlink="http://www.w3.org/1999/xlink" x="0px" y="0px"
	 viewBox="0 0 360 360" style="enable-background:new 0 0 360 360;" xml:space="preserve">
<style type="text/css">
	.st0{fill:#298A9A;}
	.st1{fill:#3498AB;}
	.st2{fill:#FE815C;}
	.st3{fill:#FEE56B;}
	.st4{fill:#C9EFFE;}
	.st5{fill:#288A9A;}
	.st6{fill:#FEE56C;}
	.st7{fill:#B5E9FE;}
	.st8{fill:#F6F6F6;}
	.st9{fill:#C9EFFD;}
	.st10{fill:#F0F0EB;}
	.st11{fill:#F1F4F4;}
	.st12{fill:#3698AC;}
</style>
<g>
	<path class="st0" d="M186.5,40.3c7.3,1.6,14.5,3.5,21.7,5.4c32.1,8.5,64.3,16.8,96.4,25.2c0.7,0.2,1.4,0.4,2.1,0.6
		c2.7,1,4.3,3.2,4.2,6c-0.1,2.9-1.6,4.9-4.3,5.6c-6.9,1.9-13.8,3.5-20.8,5.3c0.3-0.4,0.6-0.9,0.9-1.4c3.1-4.1,1.6-8.8-3.4-10.1
		c-20.3-5.4-40.6-10.7-60.8-16c-14.2-3.7-28.5-7.6-42.7-11.2c-8.7-2.2-17.4-5-26.6-3.5c-0.5,0.1-1.1,0-1.5-0.4
		c6.5-1.9,13-3.7,19.6-5c0.4-0.1,0.9,0,1.1-0.6C177.1,40.3,181.8,40.3,186.5,40.3z"/>
	<path class="st1" d="M151.6,45.8c0.4,0.5,1,0.5,1.5,0.4c9.2-1.5,17.9,1.3,26.6,3.5c14.3,3.6,28.5,7.5,42.7,11.2
		c20.3,5.3,40.6,10.6,60.8,16c5,1.3,6.5,6.1,3.4,10.1c-0.3,0.4-0.6,0.9-0.9,1.4c-12.8,3.4-25.5,6.8-38.3,10.2c-1,0.3-2.2,0.3-3,1.1
		c-0.8,0.1-1.6,0.1-2.4,0.3c-6.6,1.7-13.3,3.5-19.9,5.2c-0.4-1-1.1-1.8-2-2.6c-12.3-11.2-24.6-22.3-36.9-33.5
		c-2.3-2.1-4.8-2.1-6.5-0.2c-1.8,2-1.5,4.2,0.8,6.4c3.7,3.4,7.4,6.7,11.1,10.1c8.2,7.5,16.3,14.9,24.5,22.4
		c-5.4,0.8-10.5,2.5-15.7,3.9c-8.7,2.3-17.6,3.7-26.5,1.9c-12.9-2.6-25.5-6.6-38.3-9.7c-5.8-1.4-11.4-3.4-17.3-4.2
		c-5.7-2.2-11.6-3.3-17.5-4.9C83.5,91,69,87.3,54.6,83.5c-3.7-1-5.5-3-5.5-6.1c0-3.1,1.8-5,5.6-6c30.9-8.1,61.9-16.3,92.8-24.4
		C148.9,46.5,150.3,46.2,151.6,45.8z"/>
	<path class="st2" d="M288.6,187.6c1.1,0,2.2,0.1,3.3,0.1c5.1,0.1,9,3.4,9.2,8.1c0.2,4.5-3,8.1-8.1,8.9c-5.5,0-10.9,0-16.4,0
		c-0.8,0-1.6-0.1-2.5-0.1c-58.1,0-116.1,0-174.2,0c-5.6,0-11.3,0-16.9-0.1c-7.1-1.7-13.3-4.8-17.8-10.7c-6.9-9.1-8.5-19-3.7-29.4
		c4.9-10.6,13.5-16.4,25.2-17.1c4.9-0.3,9.8-0.1,14.7-0.1c1.1,0,2.2,0.1,3.3,0.1c28.6,0,57.2,0,85.8,0c6,0,12,0,18,0.1
		c-0.8,5.6-1.5,11.3-2.3,16.9c-39.5,0-78.9,0-118.4,0c-6.7,0-11.9,5.2-11.9,11.7c0,6.5,5.2,11.8,11.8,11.8c28,0,56,0,84,0
		c0,0.9,0.3,1.5,1.1,1.9c4.8,2.4,9.5,2.4,14.3,0c0.9-0.4,1.1-1.1,1.1-1.9c15.7,0,31.4,0,47.1,0c12.1,0,24.2-0.1,36.2-0.1
		C277.3,187.6,283,187.6,288.6,187.6z"/>
	<path class="st3" d="M307.7,302.7c6.1,0.4,8.8,2.2,9.9,6.6c1.3,5-2.4,10-7.6,10.4c-0.5,0-1.1,0-1.6,0c-79,0-158,0-237,0
		c-13.7,0-25.2-8.8-28.4-21.5c-3.9-15.6,5.2-30.8,20.7-35c0.8-0.2,1.5-0.5,2.3-0.7c7.4,0,14.8,0,22.2-0.1c0,5.6,0,11.3,0,16.9
		c-6.1,0-12.2-0.1-18.3,0.1c-6.8,0.1-12.1,7-10.7,13.6c1.4,6.5,5.8,9.9,13,9.9c66.9,0,133.9,0,200.8,0c5.7,0,11.4,0.2,17.2-0.4
		C296.1,303.2,301.9,302.6,307.7,302.7z"/>
	<path class="st4" d="M83.1,204.5c5.6,0,11.3,0.1,16.9,0.1c58.1,0,116.1,0,174.2,0c0.8,0,1.6,0.1,2.5,0.1c2.1,0.7,4.3,1.3,6.4,2.1
		c9.6,4.2,15.7,11.3,17.6,21.8c-0.3-0.2-0.8-0.3-0.9-0.5c-2.8-5.2-7.5-6.7-13-6.6c-28.3,0-56.5,0-84.8,0c-31.2,0-62.3,0-93.5,0
		c-6.6,0-13.2,0-19.8,0c-12.1,0-24.1,0-36.2,0c-4.1,0.4-7.4-1-9.3-4.7c-3.1-5.7,1.4-12.2,8.3-12.3c9.4-0.1,18.8,0,28.3,0
		C80.7,204.6,81.9,204.5,83.1,204.5z"/>
	<path class="st5" d="M208.5,147.3c-6,0-12-0.1-18-0.1c-28.6,0-57.2,0-85.8,0c-1.1,0-2.2,0-3.3-0.1c4.7-15.8,9.4-31.6,14-47.4
		c5.9,0.8,11.6,2.8,17.3,4.2c12.8,3.2,25.4,7.1,38.3,9.7c8.9,1.8,17.8,0.4,26.5-1.9c5.2-1.4,10.4-3.1,15.7-3.9
		c1,0.7,0.6,1.8,0.6,2.8c0.1,8.6,0.1,17.1,0.1,25.7C211.1,139.5,210.1,143.6,208.5,147.3z"/>
	<path class="st6" d="M292.4,262.2c5.3,0,10.7,0.3,16,0c6.1-0.3,9.5,4.6,9.5,8.3c0.1,4.9-3.8,8.5-9.2,8.7c-0.4,0-0.7,0-1.1,0.1
		c-5.8,0-11.7,0-17.5,0c-1.2,0-2.4-0.1-3.5-0.1c-58.1,0-116.3,0-174.4,0c-1.3,0-2.5,0-3.8-0.1c0-5.6,0-11.2,0.1-16.8
		c55.7,0,111.4,0,167.1,0c0.8,0,1.6-0.1,2.4-0.2c2,0,3.9,0.3,5.9-0.2C286.7,262.8,289.6,262.3,292.4,262.2z"/>
	<path class="st5" d="M222.3,105.3c6.6-1.7,13.2-3.5,19.9-5.2c0.8-0.2,1.6-0.2,2.4-0.3c4.7,15.8,9.3,31.6,14,47.3
		c-10.3,0-20.7,0.1-31,0.1c-1.2-3.9-2.5-7.7-5.2-10.8C222.3,126.1,222.3,115.7,222.3,105.3z"/>
	<path class="st2" d="M227.6,147.2c10.3,0,20.7-0.1,31-0.1c11,0,22,0.3,33,0c5.6-0.1,9.6,4.2,9.5,8.7c-0.1,4.9-4,8.3-9.5,8.4
		c-1,0-2,0-3,0.1c-5.7,0-11.3,0-16.9,0c-13.8,0-27.6,0-41.5-0.1C229.3,158.5,229,152.8,227.6,147.2z"/>
	<path class="st7" d="M283.9,261.9c-1.9,0.5-3.9,0.2-5.9,0.2c1-1.4,2.7-1.3,4.1-1.9c10.1-4,16.3-11.2,18.4-21.9
		c0.4-3.2,0.4-6.5,0-9.7c-1.8-10.5-7.9-17.6-17.6-21.8c-2-0.9-4.2-1.4-6.4-2.1c5.5,0,10.9,0,16.4,0c6.7,1.4,12.6,4.2,17.4,9.3
		c9.2,9.6,10.2,25.7,2.1,36.3c-5.1,6.7-11.6,10.8-20.1,11.6C289.6,261.9,286.8,261.9,283.9,261.9z"/>
	<path class="st8" d="M52.3,221.5c12.1,0,24.1,0,36.2,0c-0.1,7.8-0.1,15.6-0.2,23.4c-11.8,0-23.6,0-35.4,0c0.4-2.4,0.6-4.8,1.1-7.2
		C55.2,232.1,53.9,226.8,52.3,221.5z"/>
	<path class="st9" d="M52.9,244.9c11.8,0,23.6,0,35.4,0c0,5.8,0,11.6,0,17.4c-7.4,0-14.8,0-22.2,0.1c-4.8,0-9.6,0-14.4-0.1
		c-4.7-0.1-7.9-2.3-9.2-6.5c-1.3-4.1,1.5-9.3,5.6-10.3C49.6,245.2,51.2,245.1,52.9,244.9z"/>
	<path class="st10" d="M271.7,164.3c5.7,0,11.3,0,16.9,0c-2.7,7.8-2.7,15.5,0,23.3c-5.7,0-11.3,0-16.9,0
		C269,179.8,268.9,172,271.7,164.3z"/>
	<path class="st10" d="M290.2,279.3c5.8,0,11.7,0,17.5,0c-2.7,7.8-2.6,15.6,0,23.3c-5.8,0-11.6,0.5-17.4-0.3
		c-0.6-5.3-2.3-10.5-1.2-15.9C289.6,284.1,290.4,281.8,290.2,279.3z"/>
	<path class="st9" d="M283.9,261.9c2.8,0,5.7,0,8.5,0c0,0.1,0,0.2,0,0.3C289.6,262.3,286.7,262.8,283.9,261.9z"/>
	<path class="st11" d="M222.3,105.3c0,10.4,0.1,20.8,0.1,31.2c-2.8-1.9-5.6-1.9-8.4,0c0-8.6,0-17.1-0.1-25.7c0-0.9,0.4-2-0.6-2.8
		c-8.2-7.5-16.3-14.9-24.5-22.4c-3.7-3.4-7.4-6.7-11.1-10.1c-2.4-2.2-2.6-4.4-0.8-6.4c1.7-1.9,4.2-1.9,6.5,0.2
		c12.3,11.1,24.6,22.3,36.9,33.5C221.1,103.5,221.8,104.3,222.3,105.3z"/>
	<path class="st8" d="M271.7,164.3c-2.7,7.8-2.7,15.5,0,23.3c-12.1,0-24.2,0.1-36.2,0.1c-15.7,0-31.4,0-47.1,0c0-3.5,0-7.1,0-10.6
		c-0.1-4.8-3.6-8.4-8.2-8.4c-4.6,0-8.1,3.6-8.2,8.4c0,3.5,0,7.1,0,10.6c-28,0-56,0-84,0c-6.6,0-11.9-5.3-11.8-11.8
		s5.3-11.7,11.9-11.7c39.5,0,78.9,0,118.4,0c0,1.6,0.1,3.3-0.1,4.9c-0.2,2,0.4,2.7,2.5,2.7c5.1-0.1,10.2,0,15.3,0
		c6.3,0,6.3,0,6.2-6.4c0-0.4,0-0.7,0-1.1C244,164.2,257.8,164.2,271.7,164.3z"/>
	<path class="st6" d="M230.2,164.2c0,0.4,0,0.7,0,1.1c0.1,6.4,0.1,6.4-6.2,6.4c-5.1,0-10.2-0.1-15.3,0c-2.1,0.1-2.7-0.7-2.5-2.7
		c0.2-1.6,0-3.3,0.1-4.9c0.8-5.6,1.5-11.3,2.3-16.9c1.6-3.7,2.6-7.8,5.5-10.9c2.8-1.9,5.6-1.9,8.4,0c2.7,3.1,4,6.9,5.2,10.8
		C229,152.8,229.3,158.5,230.2,164.2z"/>
	<path class="st3" d="M171.7,187.6c0-3.5,0-7.1,0-10.6c0.1-4.8,3.6-8.4,8.2-8.4c4.6,0,8.1,3.6,8.2,8.4c0,3.5,0,7.1,0,10.6
		c0,0.9-0.3,1.5-1.1,1.9c-4.8,2.4-9.5,2.4-14.3,0C172,189.1,171.7,188.5,171.7,187.6z"/>
	<path class="st8" d="M290.2,279.3c0.1,2.5-0.7,4.8-1.1,7.1c-1.1,5.4,0.6,10.6,1.2,15.9c-5.7,0.5-11.4,0.4-17.2,0.4
		c-66.9,0-133.9,0-200.8,0c-7.2,0-11.7-3.4-13-9.9c-1.4-6.6,3.9-13.4,10.7-13.6c6.1-0.1,12.2,0,18.3-0.1c0,3.4,0,6.7,0,10.5
		c7.1-3.7,13.7-7.2,20.2-10.6c1.3,0,2.5,0.1,3.8,0.1c58.1,0,116.3,0,174.4,0C287.9,279.3,289,279.3,290.2,279.3z"/>
	<path class="st12" d="M108.5,279.2c-6.5,3.4-13.1,6.8-20.2,10.6c0-3.8,0-7.2,0-10.5c0-5.6,0-11.3,0-16.9c0-5.8,0-11.6,0-17.4
		c0.1-7.8,0.1-15.6,0.2-23.4c6.6,0,13.2,0,19.8,0c0.1,7.8,0.2,15.6,0.3,23.4c0,5.8,0,11.6,0,17.4C108.5,268,108.5,273.6,108.5,279.2
		z"/>
	<path class="st8" d="M108.6,244.9c-0.1-7.8-0.2-15.6-0.3-23.4c31.2,0,62.3,0,93.5,0c28.3,0,56.5,0,84.8,0c5.5,0,10.2,1.4,13,6.6
		c0.1,0.3,0.6,0.4,0.9,0.5c0.4,3.2,0.4,6.5,0,9.7c-0.9,0.1-1.1,0.9-1.5,1.4c-2.2,3.3-5.3,5.2-9.3,5.2
		C229.3,244.9,168.9,244.9,108.6,244.9z"/>
	<path class="st9" d="M108.6,244.9c60.4,0,120.8,0,181.2,0c4.1,0,7.1-1.9,9.3-5.2c0.4-0.6,0.6-1.4,1.5-1.4
		c-2,10.8-8.3,17.9-18.4,21.9c-1.4,0.6-3.1,0.5-4.1,1.9c-0.8,0.1-1.6,0.2-2.4,0.2c-55.7,0-111.4,0-167.1,0
		C108.6,256.5,108.6,250.7,108.6,244.9z"/>
</g>
</svg>
