<?xml version="1.0" encoding="utf-8"?>
<!-- Generator: Adobe Illustrator 25.0.1, SVG Export Plug-In . SVG Version: 6.00 Build 0)  -->
<svg version="1.1" id="Layer_1" xmlns="http://www.w3.org/2000/svg" xmlns:xlink="http://www.w3.org/1999/xlink" x="0px" y="0px"
	 viewBox="0 0 360 360" style="enable-background:new 0 0 360 360;" xml:space="preserve">
<style type="text/css">
	.st0{fill:#FE84A7;}
	.st1{fill:#FDDEC4;}
	.st2{fill:#FDCAA9;}
	.st3{fill:#FDCBAA;}
	.st4{fill:#83D8FE;}
	.st5{fill:#FCD459;}
	.st6{fill:#FEAE85;}
	.st7{fill:#A9C8D4;}
	.st8{fill:#A8C7D3;}
	.st9{fill:#EF6186;}
	.st10{fill:#FEFEFE;}
	.st11{fill:#5288FE;}
	.st12{fill:#FE8A14;}
</style>
<g>
	<path class="st0" d="M41,253.8c7-7.1,14-14.2,21.1-21.3c2-2,4.4-1.9,6.8,0.1c1.2,1.1,2.4,2.2,3.6,3.3c0.2,0.3,0.4,0.6,0.6,0.9
		c15.4,15.4,30.9,30.9,46.3,46.3c0.5,0.5,1,1.1,1.8,1.2c0.3,1.5,1.6,2.1,2.5,3.1c2.4,2.7,2.6,5,0.1,7.6
		c-6.2,6.3-12.5,12.6-18.8,18.8c-2.7,2.6-5,2.5-7.8-0.2c-18-18-36.1-36-54.1-54.1c-0.8-0.8-1.4-1.6-2.1-2.4
		C41,256,41,254.9,41,253.8z M106.2,292.5c0-2.4-1.7-4.4-3.8-4.4c-2,0-4.3,2.3-4.4,4.4c-0.1,2.2,1.8,4,4.1,4.2
		C104.2,296.8,106.1,294.8,106.2,292.5z"/>
	<path class="st1" d="M129.5,168.1c-2.6-2.4-5.3-4.8-6.8-8.2c-1.1-2.6-1.9-5.2-1.9-8.1c0-9,0-18.1,0-27.1c0-5.2,2-9.6,5.5-13.4
		c3.8-4.2,8.4-7.6,11.6-12.5c1.1-1.6,1.5-3.5,2.5-5.1c7.5,0,15,0,22.5,0c8,0,15.6,1.4,22.6,5.5c10.5,6.1,17.4,15.3,18.7,27.3
		c1.1,10,0.2,20.1,0.2,30.6c-1.7-2-3.5-3.3-5.6-2.3c-2,1-3.1,2.8-3.1,5.3c0.1,25.5,0.1,51,0.1,76.5c-4.3,2.8-7.2,2.8-11.5,0
		c0-25.6,0-51.1,0.1-76.7c0-1-0.2-2-0.6-2.9c-0.7-1.8-2.1-2.4-3.9-2.4c-1.7,0-3,0.7-3.7,2.3c-0.5,1.2-0.6,2.4-0.6,3.7
		c0,27.7,0,55.3,0,83c0,0.9-0.4,2,0.5,2.8c-1.2,1.6-3,1.9-4.9,2.1c-2.6,0.3-5-0.2-7.1-1.6c0-28.4,0-56.8,0-85.2
		c0-1.5,0.1-2.9-0.6-4.3c-0.9-1.8-2.2-3.2-4.5-2.8c-2.2,0.4-3.5,1.8-3.6,4.1c-0.1,1.3,0,2.5,0,3.8c0,24.5,0,49,0.1,73.5
		c-0.1,0.6-0.5,0.9-1,1.2c-3.1,1.9-6.4,1.9-9.5,0.2c-3.3-1.7-5.3-4.5-5.3-8.4c0-19.4,0-38.8,0-58.2c0-6.4,0.1-12.8,0-19.3
		c0-3.6-1.7-5.3-4.7-5.2c-2.6,0.1-3.9,1.9-3.9,5.4c0,5.6,0,11.2,0,16.8c-0.2,0-0.4,0-0.6,0.1l0,0C130.3,168.1,129.9,168,129.5,168.1
		L129.5,168.1z"/>
	<path class="st2" d="M278.7,223.4c0.6,3.4,2.7,5.9,5,8.4c1.2,1.4,2.8,2.5,3.8,4.1c-0.3,0.4-0.5,0.8-0.8,1.1
		c-15.3,15.4-30.7,30.7-46,46c-0.5,0.5-0.9,1.1-1.7,1.2c-1.4-0.5-2.3-1.7-3.2-2.8c-4.5-5.3-10.3-8-17.1-8.6c-3.9-0.3-7.4-2-10.1-4.6
		c-7.3-7-14.3-14.3-21.4-21.4c0.9,0,1.8-0.1,2.7,0c5.4,0.3,9.7-1.7,13.6-5.5c4.2-4.1,5.5-9.2,5.5-14.7c0-1.5,0-2.5,2.1-2.6
		c10.5-0.5,18-8.5,18-19.1c0-9.1,0-18.3,0-27.4c0-0.6-0.4-1.4,0.7-2.1c3.4,3.4,6.8,7,10.3,10.4c1.9,1.8,5.2,1.8,6.6,0.2
		c1.4-1.6,1.1-4.3-0.8-6.3c-3.9-4.1-8.2-7.9-11.9-12.2c6.6-2.4,12.8-1,17.8,3.6c7.1,6.6,13.9,13.6,20.7,20.6c3.3,3.4,5.1,7.6,5,12.5
		c0,4,0.1,7.9,0.1,11.9C277.1,218.6,277.5,221.1,278.7,223.4z"/>
	<path class="st2" d="M121.1,284.2c-0.8,0-1.3-0.6-1.8-1.2c-15.4-15.4-30.9-30.9-46.3-46.3c-0.2-0.2-0.4-0.6-0.6-0.9
		c1.7-1.9,3.5-3.6,5.1-5.6c3.7-4.3,4.9-9.5,5.2-15.1c0.2-5.1-0.6-10.3,0.5-15.4c0.7-3.3,2.4-6.2,4.8-8.7c6.6-6.7,13.3-13.3,19.9-20
		c2.6-2.6,6-3.9,9.5-4.8c-0.1,1.8,1.1,3.1,2.3,4.1c1.7,1.4,1.3,2.4-0.1,3.7c-2,1.8-3.9,3.8-5.8,5.7c-0.7,0.7-1.4,1.4-1.4,2.5
		c0,1.7,0.1,3.3,1.9,4.1c2,0.9,3.9,0.7,5.5-0.8c2.5-2.4,4.8-4.9,7.3-7.2c0.7-0.7,1.2-1.9,2.6-1.3c1.7,0.6,1,1.9,1,3
		c0,15.9,0,31.8,0,47.7c0,2.7,0.4,5.4,1.6,7.9c3.4,7.3,9.2,11.1,17.3,11c1.3,0,2.9-0.6,3.9,1.1c2.2,4,5.8,6.4,9.8,8.2
		c-4.2,4.2-8.3,8.6-12.6,12.7c-3.1,3-7.2,4.2-11.4,4.5c-5.6,0.5-10.2,2.8-14,6.8C124.3,281.5,123,283.2,121.1,284.2z"/>
	<path class="st3" d="M195.7,236.5c0-25.5,0-51-0.1-76.5c0-2.5,1-4.3,3.1-5.3c2.1-1,3.9,0.3,5.6,2.3c0-10.5,0.9-20.7-0.2-30.6
		c-1.3-12-8.2-21.1-18.7-27.3c-7-4.1-14.6-5.5-22.6-5.5c-7.5,0-15,0-22.5,0c0.9-3.9,0.4-8,0.6-11.9c23.1,0,46.2,0,69.4,0
		c0.2,4.9-0.6,9.9,1.3,14.7c0.9,2.3,2,4.4,3.6,6.3c3.5,4.1,5.3,9,5.3,14.4c0,15.1,0,30.2,0,45.3c0,1.5-0.3,3.1,0.6,4.5
		c-0.9,0.8-0.5,1.9-0.5,2.8c0,11.2,0,22.4,0,33.6c0,2-0.4,3.9-1,5.8c-1.6,4.6-6.7,7.2-11.5,6.2c-3.9-0.8-6.1-3.4-8-6.7
		c-0.2,6.9-0.1,13.7-0.2,20.6C199.9,232.4,198.9,235.1,195.7,236.5z"/>
	<path class="st4" d="M210.3,81.7c-23.1,0-46.2,0-69.4,0c-1.4,0-2.9,0-4.3-0.1c-3.2-0.2-4.9-2.1-5-5.3c0-9,0-17.9,0-26.8
		c0-3.3,1.9-5.2,5.3-5.2c25.8,0,51.5,0,77.3,0c3.2,0,5.2,1.8,5.2,5c0.1,9.1,0.1,18.3,0,27.4c0,2.9-2.2,4.8-5.1,5
		C213,81.7,211.7,81.7,210.3,81.7z M149.5,58.9c-2.3,0-4.1,1.8-4.1,4c0,2.3,2.1,4.2,4.4,4.1c2.3-0.1,4.1-2,4.1-4.1
		C153.9,60.6,151.9,58.9,149.5,58.9z"/>
	<path class="st5" d="M238.8,284.2c0.8,0,1.2-0.7,1.7-1.2c15.4-15.3,30.7-30.7,46-46c0.3-0.3,0.5-0.7,0.8-1.1c1.1-1,2.3-2.1,3.4-3.1
		c2.6-2.3,4.9-2.4,7.4,0.1c6.4,6.3,12.7,12.6,19,19c2.4,2.4,2.4,4.8,0,7.1c-18.3,18.3-36.6,36.6-54.9,54.9c-2.3,2.3-4.7,2.4-7,0.2
		c-6.6-6.4-13.1-13-19.6-19.6c-2.1-2.1-1.9-4.5,0.1-6.8C236.9,286.6,238.4,285.8,238.8,284.2z M295.9,258.7c2.2,0,4.1-2.1,4-4.3
		c-0.1-2.2-2.4-4.4-4.5-4.3c-2,0.1-4.2,2.5-4.1,4.4C291.4,256.6,293.6,258.7,295.9,258.7z"/>
	<path class="st6" d="M163.7,256c-4-1.8-7.6-4.2-9.8-8.2c-0.9-1.7-2.5-1.1-3.9-1.1c-8.2,0.1-13.9-3.7-17.3-11
		c-1.2-2.5-1.6-5.1-1.6-7.9c0-15.9,0-31.8,0-47.7c0-1,0.7-2.4-1-3c-1.5-0.5-1.9,0.7-2.6,1.3c-2.5,2.4-4.8,4.9-7.3,7.2
		c-1.6,1.5-3.6,1.7-5.5,0.8c-1.8-0.8-1.9-2.4-1.9-4.1c0-1.1,0.7-1.8,1.4-2.5c1.9-1.9,3.8-3.9,5.8-5.7c1.4-1.3,1.8-2.2,0.1-3.7
		c-1.2-1-2.4-2.2-2.3-4.1c4.1-0.6,8,0.3,11.9,1.6v0c0.2,0.6,0.6,0.7,1.1,0.6l0,0c0,0.4,0.2,0.5,0.6,0.5l0,0c1.2,1,1.9,3.5,4,1.1
		c1.6-0.3,3.1,0.3,4.6,0.6c0,19.4,0,38.8,0,58.2c0,3.9,2,6.7,5.3,8.4c3.2,1.6,6.4,1.6,9.5-0.2c0.5-0.3,0.9-0.6,1-1.2
		c2.3-0.5,2.8-2.8,4.3-4.8c0,2.6,0.1,4.8,0,6.9c-0.3,3.8,1.3,6.6,4.4,8.6c2.1,1.5,4.5,1.9,7.1,1.6
		C169.1,251.2,166.4,253.7,163.7,256z"/>
	<path class="st6" d="M195.7,236.5c3.1-1.4,4.2-4.1,4.3-7.2c0.1-6.8,0-13.6,0.2-20.6c1.9,3.3,4,5.9,8,6.7c4.7,1,9.9-1.6,11.5-6.2
		c0.7-1.9,1-3.8,1-5.8c0-11.2,0-22.4,0-33.6c0-0.9-0.4-2,0.5-2.8c2.9,4,6.1,5,10,1.3c0.6-0.6,1.6-0.9,2.5-0.8
		c3.7,4.4,8,8.1,11.9,12.2c1.9,2,2.2,4.6,0.8,6.3c-1.4,1.6-4.7,1.6-6.6-0.2c-3.5-3.4-6.9-6.9-10.3-10.4c-1.1,0.6-0.7,1.4-0.7,2.1
		c0,9.1,0,18.3,0,27.4c0,10.6-7.5,18.6-18,19.1c-2.1,0.1-2.1,1.1-2.1,2.6c0,5.6-1.3,10.6-5.5,14.7c-3.8,3.8-8.2,5.8-13.6,5.5
		c-0.9,0-1.8,0-2.7,0c-2.3-2.2-4.7-4.3-7-6.5c0-2.7,0-5.5,0-8.8c1.5,2.1,1.9,4.4,4.3,5C188.6,239.3,191.5,239.3,195.7,236.5z"/>
	<path class="st3" d="M184.3,236.5c-2.4-0.5-2.7-2.8-4.3-5c0,3.3,0,6.1,0,8.8c-0.6,2.4-1.7,4.5-3.8,5.9c-0.9-0.8-0.5-1.9-0.5-2.8
		c0-27.7,0-55.3,0-83c0-1.3,0.1-2.5,0.6-3.7c0.7-1.6,2-2.3,3.7-2.3c1.8,0,3.2,0.6,3.9,2.4c0.4,0.9,0.6,1.9,0.6,2.9
		C184.3,185.3,184.3,210.9,184.3,236.5z"/>
	<path class="st7" d="M133.8,84.9c0.1,2.4-1.8,4.3-4.2,4.4c-2.4,0.1-4.3-1.8-4.4-4.2c-0.1-1.9,2.1-4.3,4.1-4.4
		C131.4,80.6,133.7,82.7,133.8,84.9z"/>
	<path class="st7" d="M246.2,97.9c0,2-2.3,4.4-4.3,4.4c-2,0-4.3-2.4-4.3-4.5c0-2.2,1.9-4,4.2-4.1C244.2,93.6,246.1,95.5,246.2,97.9z
		"/>
	<path class="st7" d="M145.6,288.6c2.3,0,4.4,1.9,4.4,4.2c0,1.9-2.2,4.3-4.1,4.3c-2.3,0.1-4.4-1.9-4.4-4.2
		C141.4,290.5,143.2,288.6,145.6,288.6z"/>
	<path class="st7" d="M67.2,156.7c2.4,0.1,4.2,2,4.2,4.4c0,2.2-2.3,4.3-4.5,4.2c-2-0.1-4.2-2.4-4.1-4.3
		C62.8,158.5,64.9,156.6,67.2,156.7z"/>
	<path class="st7" d="M71.4,211.5c0,2.2-2.3,4.3-4.4,4.3c-1.9-0.1-4.2-2.4-4.2-4.3c0-2.3,2-4.3,4.3-4.3
		C69.6,207.2,71.4,209.1,71.4,211.5z"/>
	<path class="st7" d="M284.7,152.4c0.1,2.2-1.8,4.1-4,4.2c-2.5,0.1-4.5-1.8-4.5-4.3c0-2,2.2-4.2,4.2-4.3
		C282.3,148,284.6,150.2,284.7,152.4z"/>
	<path class="st7" d="M223.4,88.9c-0.1-2.4,1.8-4.3,4.1-4.4c2.3-0.1,4.3,1.8,4.4,4.2c0.1,1.9-2.1,4.3-4.1,4.4
		C225.9,93.2,223.5,90.9,223.4,88.9z"/>
	<path class="st7" d="M227.7,287.5c-2.4,0-4.3-1.9-4.3-4.3c0-2.1,2.4-4.3,4.5-4.2c1.9,0,4.1,2.4,4.1,4.3
		C232,285.6,230.1,287.5,227.7,287.5z"/>
	<path class="st7" d="M101,107.7c-2.3,0-4.2-2.1-4-4.5c0.1-2.1,2.1-4,4.3-4.1c2.1,0,4.4,2.4,4.3,4.4
		C105.4,105.7,103.1,107.8,101,107.7z"/>
	<path class="st7" d="M212.2,294.5c-2.3,0-4.2-2.1-4-4.5c0.1-2.3,1.9-4,4.2-4.1c2.1,0,4.4,2.3,4.4,4.4
		C216.7,292.3,214.4,294.5,212.2,294.5z"/>
	<path class="st7" d="M118.9,93.1c0.1,2.1-2.1,4.3-4.3,4.4c-2.2,0-4.1-1.8-4.2-4.1c-0.1-2.4,1.7-4.5,4-4.5
		C116.6,88.8,118.9,90.9,118.9,93.1z"/>
	<path class="st7" d="M76.3,144.7c0,2.4-1.8,4.3-4.1,4.3c-2.2,0-4-1.9-4.1-4.1c0-2.4,1.7-4.4,4-4.5
		C74.4,140.4,76.3,142.3,76.3,144.7z"/>
	<path class="st7" d="M183.5,296.7c0,2-2.2,4.2-4.2,4.2c-2.5,0-4.3-1.9-4.3-4.5c0-2.2,1.9-4.1,4.1-4
		C181.4,292.4,183.6,294.6,183.5,296.7z"/>
	<path class="st7" d="M83.9,129.4c0,2.4-1.8,4.4-4.1,4.4c-2.2,0-4.4-2.1-4.3-4.3c0-2.1,2.2-4.3,4.4-4.3
		C82,125.2,83.8,127.1,83.9,129.4z"/>
	<path class="st8" d="M289.7,186.2c-0.1,2.3-1.9,4.1-4.1,4.1c-2.3,0-4.1-2-4.1-4.5c0.1-2.5,1.9-4.3,4.3-4.2
		C288.1,181.7,289.7,183.6,289.7,186.2z"/>
	<path class="st7" d="M60.5,194.5c0-2.3,1.9-4.1,4.1-4.1c2.2,0,4.1,1.9,4.1,4.1c0,2.5-1.8,4.5-4.1,4.5
		C62.3,198.9,60.5,196.9,60.5,194.5z"/>
	<path class="st8" d="M284.3,173c-2.5,0-4.4-1.8-4.4-4.1c0-2.2,2-4,4.2-4.1c2.4-0.1,4.3,1.8,4.3,4.2
		C288.5,171.2,286.7,172.9,284.3,173z"/>
	<path class="st8" d="M288.5,202.8c0,2.4-1.8,4.3-4.2,4.3c-2.4,0-4.3-1.9-4.2-4.3c0-2.1,2.1-4.2,4.2-4.1
		C286.4,198.7,288.5,200.8,288.5,202.8z"/>
	<path class="st8" d="M265.3,126.3c-2.4,0-4.4-2-4.3-4.3c0.1-2.4,2-4,4.6-3.9c2.3,0.1,4,1.9,3.9,4.2
		C269.5,124.6,267.7,126.3,265.3,126.3z"/>
	<path class="st8" d="M93.6,115.5c0,2.3-1.7,4.1-3.9,4.2c-2.6,0.1-4.5-1.6-4.6-3.9c-0.1-2.3,1.9-4.2,4.3-4.3
		C91.8,111.5,93.6,113.2,93.6,115.5z"/>
	<path class="st8" d="M68.7,177.5c0,2.5-1.7,4.5-4,4.5c-2.3,0.1-4.1-1.9-4.1-4.4c0-2.2,1.6-4,3.7-4.1
		C66.6,173.4,68.6,175.2,68.7,177.5z"/>
	<path class="st8" d="M270,136.7c0-2.4,1.7-4.2,3.9-4.2c2.5,0,4.2,1.8,4.3,4.3c0,2.4-1.9,4.2-4.3,4.2
		C271.7,140.9,270,139.1,270,136.7z"/>
	<path class="st8" d="M158.2,295.9c0-2.3,1.8-4.1,4.1-4.1c2.3,0.1,4.1,1.8,4.1,4.1c0,2.4-1.8,4.5-4.1,4.5
		C160,300.4,158.2,298.4,158.2,295.9z"/>
	<path class="st8" d="M129.6,282.8c2.5,0,4.2,1.8,4.3,4.3c0,2.4-1.9,4.2-4.3,4.2c-2.2,0-4-1.9-3.9-4.2
		C125.7,284.6,127.3,282.8,129.6,282.8z"/>
	<path class="st8" d="M258.7,109.2c0,2.3-1.7,4.1-4.1,4.1c-2.6,0-4.2-1.6-4.1-4.2c0.1-2.5,1.6-4,4.1-4
		C256.9,105.1,258.7,106.8,258.7,109.2z"/>
	<path class="st8" d="M200.1,294.6c0,2.4-1.6,4.2-3.9,4.2c-2.3,0.1-4.2-1.6-4.3-3.9c-0.1-2.7,1.4-4.3,4.1-4.3
		C198.5,290.6,200,292.1,200.1,294.6z"/>
	<path class="st8" d="M72.3,231.6c-2.4,0-4.1-1.7-4.1-4c0-2.3,1.7-4.1,4-4.2c2.7,0,4.2,1.5,4.2,4.2
		C76.3,230.1,74.8,231.6,72.3,231.6z"/>
	<path class="st7" d="M278.7,223.4c-1.2-2.3-1.6-4.8-1.4-7.4c0.4-0.1,0.7-0.1,1.1-0.2c2.2-0.9,4.1-0.6,5.6,1.3
		c1,1.3,1.3,2.8,0.4,4.3C282.9,223.4,281.1,224.1,278.7,223.4z"/>
	<path class="st9" d="M106.2,292.5c0,2.3-1.9,4.3-4,4.2c-2.4-0.1-4.2-2-4.1-4.2c0.1-2.1,2.4-4.5,4.4-4.4
		C104.5,288.1,106.2,290.1,106.2,292.5z"/>
	<path class="st3" d="M164.2,246.7c-3.1-2.1-4.7-4.8-4.4-8.6c0.2-2.1,0-4.3,0-6.9c-1.4,1.9-1.9,4.2-4.3,4.8c0-24.5,0-49-0.1-73.5
		c0-1.3,0-2.5,0-3.8c0.1-2.3,1.4-3.7,3.6-4.1c2.3-0.4,3.5,1,4.5,2.8c0.7,1.3,0.6,2.8,0.6,4.3C164.2,189.9,164.2,218.3,164.2,246.7z"
		/>
	<path class="st2" d="M139.7,170.8c-1.5-0.2-3-0.9-4.6-0.6c-1.2-0.7-2.6-1.1-4-1.1l0,0c0-0.2,0-0.4,0-0.6c0-5.6,0-11.2,0-16.8
		c0-3.5,1.3-5.3,3.9-5.4c3.1-0.1,4.7,1.6,4.7,5.2C139.8,158,139.7,164.4,139.7,170.8z"/>
	<path class="st10" d="M130.6,168.6c-0.5,0.1-0.9,0-1.1-0.6C129.9,168,130.3,168.1,130.6,168.6z"/>
	<path class="st10" d="M131.1,168.6c0,0.2,0,0.4,0,0.6c-0.3,0-0.6-0.2-0.6-0.5C130.7,168.6,130.9,168.6,131.1,168.6z"/>
	<path class="st11" d="M149.5,58.9c2.5,0,4.4,1.7,4.4,4c0,2.2-1.8,4.1-4.1,4.1c-2.3,0.1-4.4-1.9-4.4-4.1
		C145.3,60.7,147.2,58.9,149.5,58.9z"/>
	<path class="st12" d="M295.9,258.7c-2.2,0-4.5-2-4.5-4.2c-0.1-1.9,2.1-4.3,4.1-4.4c2-0.1,4.4,2.1,4.5,4.3
		C300,256.6,298.1,258.6,295.9,258.7z"/>
	<path class="st10" d="M131.1,169.1c1.4,0,2.8,0.4,4,1.1C133,172.7,132.3,170.1,131.1,169.1z"/>
</g>
</svg>
