<?xml version="1.0" encoding="utf-8"?>
<!-- Generator: Adobe Illustrator 25.0.1, SVG Export Plug-In . SVG Version: 6.00 Build 0)  -->
<svg version="1.1" id="Layer_1" xmlns="http://www.w3.org/2000/svg" xmlns:xlink="http://www.w3.org/1999/xlink" x="0px" y="0px"
	 viewBox="0 0 73.5 44" style="enable-background:new 0 0 73.5 44;" xml:space="preserve">
<style type="text/css">
	.st0{fill:#2E4866;}
	.st1{fill:#ABBAC7;}
	.st2{fill:#18969C;}
	.st3{fill:#0D8484;}
	.st4{fill:#F5F5F5;}
	.st5{fill:#FFFFFF;}
	.st6{fill:#65C4B5;}
	.st7{fill:#3EB8A0;}
	.st8{fill:#466884;}
	.st9{fill:#F6F7F8;}
</style>
<rect x="34" y="16.5" class="st0" width="1.4" height="1.8"/>
<rect x="31" y="16.5" class="st1" width="3" height="1.8"/>
<rect x="26.8" y="16.5" class="st0" width="1.4" height="1.8"/>
<rect x="23.8" y="16.5" class="st1" width="3" height="1.8"/>
<rect x="32.4" y="22.1" class="st2" width="5.1" height="19.7"/>
<rect x="21.4" y="22.1" class="st3" width="11" height="19.7"/>
<rect x="34.2" y="19.3" class="st4" width="1.5" height="1.2"/>
<rect x="34.2" y="26.6" class="st4" width="1.5" height="1"/>
<rect x="34.2" y="30" class="st4" width="1.5" height="1"/>
<rect x="28.7" y="30.4" class="st5" width="2.4" height="1.3"/>
<rect x="25.6" y="30.4" class="st5" width="2.4" height="1.3"/>
<rect x="22.5" y="30.4" class="st5" width="2.4" height="1.3"/>
<rect x="28.7" y="33.7" class="st5" width="2.4" height="1.3"/>
<rect x="25.6" y="33.7" class="st5" width="2.4" height="1.3"/>
<rect x="22.5" y="33.7" class="st5" width="2.4" height="1.3"/>
<polygon class="st2" points="39.3,31.8 44.3,31.8 43.4,12.5 40.2,12.5 "/>
<path class="st1" d="M54.3,39.2v-1.5c0-1.8-2-3.2-4.6-3.2h-6.1v-1.8h6.1c3.9,0,7.2,2.2,7.2,5v1.5L54.3,39.2L54.3,39.2z"/>
<rect x="36.6" y="31.1" class="st1" width="7.1" height="5.9"/>
<rect x="41.6" y="31.1" class="st0" width="5.5" height="5.9"/>
<rect x="32.6" y="36.2" class="st6" width="18.3" height="5.9"/>
<rect x="14.3" y="36.2" class="st7" width="18.3" height="5.9"/>
<path class="st1" d="M15.6,27.8v8.4h4.7v-8.4c0-0.9-1-1.6-2.3-1.6S15.6,26.9,15.6,27.8z"/>
<rect x="47.1" y="32.3" class="st8" width="0.9" height="2.7"/>
<rect x="53.7" y="37.4" class="st0" width="3.9" height="0.8"/>
<rect x="43" y="32" class="st9" width="3" height="0.7"/>
<rect x="37.4" y="32" class="st9" width="3" height="0.7"/>
<rect x="37.4" y="33.3" class="st9" width="3" height="0.7"/>
<rect x="37.4" y="34.5" class="st9" width="3" height="0.7"/>
<rect x="43" y="33.3" class="st9" width="3" height="0.7"/>
<rect x="43" y="34.5" class="st9" width="3" height="0.7"/>
<g>
	<rect x="50.9" y="38.9" class="st0" width="9.6" height="3.3"/>
	<rect x="56.8" y="39.9" class="st9" width="2.1" height="1.2"/>
	<rect x="53" y="39.9" class="st9" width="2.1" height="1.2"/>
</g>
<g>
	<rect x="15.9" y="38.6" class="st9" width="5.5" height="3.6"/>
	<rect x="18.8" y="38.7" class="st2" width="2.5" height="3.5"/>
	<rect x="16.1" y="38.7" class="st2" width="2.5" height="3.5"/>
</g>
<g>
	<rect x="24.6" y="38.6" class="st9" width="5.5" height="3.6"/>
	<rect x="27.5" y="38.7" class="st2" width="2.5" height="3.5"/>
	<rect x="24.8" y="38.7" class="st2" width="2.5" height="3.5"/>
</g>
<rect x="47.7" y="37.2" class="st9" width="2" height="1.4"/>
<rect x="44.9" y="37.2" class="st9" width="2" height="1.4"/>
<rect x="42.1" y="37.2" class="st9" width="2" height="1.4"/>
<rect x="39.3" y="37.2" class="st9" width="2" height="1.4"/>
<rect x="36.5" y="37.2" class="st9" width="2" height="1.4"/>
<rect x="33.7" y="37.2" class="st9" width="2" height="1.4"/>
<rect x="22.2" y="39.4" class="st9" width="1.3" height="1.3"/>
<rect x="20.3" y="39.4" class="st9" width="1.3" height="1.3"/>
<rect x="18.5" y="39.4" class="st9" width="1.3" height="1.3"/>
<rect x="16.7" y="39.4" class="st9" width="1.3" height="1.3"/>
<rect x="14.8" y="39.4" class="st9" width="1.3" height="1.3"/>
<rect x="13" y="39.4" class="st9" width="1.3" height="1.3"/>
<path class="st9" d="M23.3,37.4c0.4,0,0.7,0.2,0.7,0.5c0,0.3-0.3,0.5-0.7,0.5c-0.4,0-0.7-0.2-0.7-0.5C22.6,37.6,22.9,37.4,23.3,37.4
	z"/>
<rect x="15.2" y="28.3" class="st0" width="5.4" height="0.7"/>
<rect x="15.2" y="31.4" class="st0" width="5.4" height="0.7"/>
<rect x="15.2" y="34.6" class="st0" width="5.4" height="0.7"/>
<rect x="39.3" y="14.2" class="st0" width="5" height="1.1"/>
<rect x="38.9" y="25.4" class="st0" width="5.7" height="0.9"/>
<g>
	<path class="st5" d="M25.3,27.4l-0.1-0.1L25,27.4l-0.1-0.7l0.9,0.3l-0.4,0.2l0.4,0.1c0.3,0.1,0.6,0.1,0.9,0.1c1,0,1.8-0.5,1.9-1.2
		h0.5c-0.1,0.8-1.2,1.5-2.4,1.5C26.3,27.7,25.8,27.6,25.3,27.4z"/>
	<path class="st5" d="M24.9,25.8h-0.5c0.1-0.8,1.2-1.5,2.4-1.5c0.5,0,1.1,0.1,1.5,0.4l0.1,0.1l0.2-0.1l0.1,0.7l-0.9-0.3l0.4-0.1
		l-0.4-0.1c-0.3-0.1-0.6-0.1-0.9-0.1C25.8,24.6,25,25.2,24.9,25.8L24.9,25.8L24.9,25.8z"/>
	<path class="st5" d="M26.3,26c0-0.2,0.2-0.4,0.5-0.4c0.3,0,0.5,0.2,0.5,0.4c0,0.2-0.2,0.4-0.5,0.4S26.3,26.2,26.3,26z"/>
</g>
</svg>
