<?xml version="1.0" encoding="utf-8"?>
<!-- Generator: Adobe Illustrator 25.0.1, SVG Export Plug-In . SVG Version: 6.00 Build 0)  -->
<svg version="1.1" id="Layer_1" xmlns="http://www.w3.org/2000/svg" xmlns:xlink="http://www.w3.org/1999/xlink" x="0px" y="0px"
	 viewBox="0 0 1100 550" style="enable-background:new 0 0 1100 550;" xml:space="preserve">
<style type="text/css">
	.st0{fill:#2E4866;}
	.st1{fill:#ABBAC7;}
	.st2{fill:#18969C;}
	.st3{fill:#0D8484;}
	.st4{fill:#F5F5F5;}
	.st5{fill:#FFFFFF;}
	.st6{fill:#65C4B5;}
	.st7{fill:#3EB8A0;}
	.st8{fill:#466884;}
	.st9{fill:#F6F7F8;}
</style>
<rect x="241.2" y="237.4" class="st0" width="16" height="21"/>
<rect x="207.1" y="237.4" class="st1" width="34.2" height="21"/>
<rect x="159.8" y="237.4" class="st0" width="16" height="21"/>
<rect x="125.6" y="237.4" class="st1" width="34.2" height="21"/>
<rect x="223.2" y="254.1" class="st2" width="58.1" height="270.1"/>
<rect x="98.3" y="254.1" class="st3" width="124.8" height="270.1"/>
<rect x="243.7" y="269.3" class="st4" width="17" height="13.9"/>
<rect x="243.7" y="315.2" class="st4" width="17" height="13.9"/>
<rect x="243.7" y="361.4" class="st4" width="17" height="13.9"/>
<rect x="181.1" y="367.6" class="st5" width="27.7" height="18.4"/>
<rect x="145.8" y="367.6" class="st5" width="27.7" height="18.4"/>
<rect x="110.8" y="367.6" class="st5" width="27.7" height="18.4"/>
<rect x="181.1" y="413" class="st5" width="27.7" height="18.4"/>
<rect x="145.8" y="413" class="st5" width="27.7" height="18.4"/>
<rect x="110.8" y="413" class="st5" width="27.7" height="18.4"/>
<polygon class="st2" points="301.7,386.2 358.5,386.2 348.1,122 311.9,122 "/>
<path class="st1" d="M472.9,487.8v-20.1c0-24.3-23.3-43.9-52.2-43.9h-69.6v-24.4h69.6c44.9,0,81.3,30.6,81.3,68.3v20.1H472.9
	L472.9,487.8z"/>
<rect x="270.8" y="377.3" class="st1" width="80.2" height="81.6"/>
<rect x="328" y="377.3" class="st0" width="62.7" height="81.6"/>
<rect x="225.9" y="447.2" class="st6" width="208.2" height="81.6"/>
<rect x="17.8" y="447.2" class="st7" width="208.2" height="81.6"/>
<path class="st1" d="M32.5,332v115.2h53V332c0-12.4-11.8-22.4-26.6-22.4S32.3,319.6,32.5,332z"/>
<rect x="390.7" y="392.9" class="st8" width="10.5" height="37.2"/>
<rect x="465.2" y="475" class="st0" width="44.3" height="8.8"/>
<rect x="343.4" y="389.4" class="st9" width="34.4" height="9.5"/>
<rect x="280.2" y="389.4" class="st9" width="34.4" height="9.5"/>
<rect x="280.2" y="406.7" class="st9" width="34.4" height="9.5"/>
<rect x="280.2" y="423.8" class="st9" width="34.4" height="9.5"/>
<rect x="343.4" y="406.7" class="st9" width="34.4" height="9.5"/>
<rect x="343.4" y="423.8" class="st9" width="34.4" height="9.5"/>
<g>
	<rect x="433.7" y="483.7" class="st0" width="109" height="45"/>
	<rect x="500.3" y="498" class="st9" width="24.4" height="16.5"/>
	<rect x="457.8" y="498" class="st9" width="24.4" height="16.5"/>
</g>
<g>
	<rect x="35.5" y="480" class="st9" width="63" height="48.9"/>
	<rect x="68.3" y="481.3" class="st2" width="28" height="47.4"/>
	<rect x="37.6" y="481.3" class="st2" width="28" height="47.4"/>
</g>
<g>
	<rect x="134.6" y="480" class="st9" width="63" height="48.9"/>
	<rect x="167.4" y="481.3" class="st2" width="28" height="47.4"/>
	<rect x="136.7" y="481.3" class="st2" width="28" height="47.4"/>
</g>
<rect x="397.4" y="461.2" class="st9" width="23" height="19.4"/>
<rect x="365.5" y="461.2" class="st9" width="23" height="19.4"/>
<rect x="334.1" y="461.2" class="st9" width="22.7" height="19.4"/>
<rect x="302.3" y="461.2" class="st9" width="22.7" height="19.4"/>
<rect x="270.5" y="461.2" class="st9" width="22.7" height="19.4"/>
<rect x="238.7" y="461.2" class="st9" width="22.7" height="19.4"/>
<rect x="107.2" y="497.2" class="st9" width="15.1" height="15.2"/>
<rect x="86.2" y="497.2" class="st9" width="15.1" height="15.2"/>
<rect x="65.6" y="497.2" class="st9" width="14.9" height="15.2"/>
<rect x="44.7" y="497.2" class="st9" width="14.9" height="15.2"/>
<rect x="23.8" y="497.2" class="st9" width="14.9" height="15.2"/>
<rect x="2.9" y="497.2" class="st9" width="14.9" height="15.2"/>
<path class="st9" d="M119.9,462.8c4.5,0,8.2,3.1,8.2,6.9s-3.7,6.9-8.2,6.9s-8.2-3.1-8.2-6.9C111.7,465.8,115.4,462.8,119.9,462.8z"
	/>
<rect x="28.4" y="338.5" class="st0" width="61.6" height="9"/>
<rect x="28.4" y="381.5" class="st0" width="61.6" height="9"/>
<rect x="28.4" y="424.7" class="st0" width="61.6" height="9"/>
<rect x="302" y="210.5" class="st0" width="56.5" height="12.1"/>
<rect x="297.4" y="299" class="st0" width="65.3" height="12.1"/>
<g>
	<path class="st5" d="M143.1,325.6l-1.7-1l-2,1.2l-0.8-10l10.7,4.5l-4,2.2l4.6,1.9c3.2,1.3,6.4,1.9,9.9,1.9
		c11.3,0,20.7-7.1,22.1-16.4h5.3c-1.4,11.5-13.2,20.6-27.4,20.6C153.9,330.5,147.9,328.7,143.1,325.6z"/>
	<path class="st5" d="M137.7,304.6h-5.3c1.4-11.5,13.2-20.6,27.4-20.6c5.9,0,12,1.8,16.7,4.9l1.7,1l2-1.2l0.8,10l-10.7-4.5l4-2
		l-4.6-1.9c-3.2-1.3-6.4-1.9-9.9-1.9c-11.3,0-20.7,7.1-22.1,16.4V304.6z"/>
	<path class="st5" d="M154,307.1c0-2.9,2.8-4.9,5.8-4.9c3.4,0,5.8,2.1,5.8,4.9c0,2.9-2.8,4.9-5.8,4.9S154,310,154,307.1z"/>
</g>
</svg>
