<?xml version="1.0" encoding="utf-8"?>
<!-- Generator: Adobe Illustrator 25.0.1, SVG Export Plug-In . SVG Version: 6.00 Build 0)  -->
<svg version="1.1" id="Layer_1" xmlns="http://www.w3.org/2000/svg" xmlns:xlink="http://www.w3.org/1999/xlink" x="0px" y="0px"
	 viewBox="0 0 1963.9 444.3" style="enable-background:new 0 0 1963.9 444.3;" xml:space="preserve">
<style type="text/css">
	.st0{fill:#D2232A;}
	.st1{fill:#FFFFFF;}
</style>
<path class="st0" d="M1038.3,271.1c-7.8-1.7-16.9-2.6-26.2-2.5c-8.3-0.4-16.6,0.2-31.7,3.6c-15.1,3.5-36.9,9.7-51.3,13.2
	c-14.5,3.5-21.6,4.5-28.7,4.6c-3.5,0-7-0.3-10-0.8c-3.1-0.6-5.7-1.4-8-2.3s-4.3-2.1-5.9-3.3c-1.7-1.2-3.1-2.6-4.4-4.1
	c-1.2-1.5-2.3-3-3.1-4.7c-0.9-1.7-1.6-3.5-2.1-5.4c-0.5-2-0.9-4.1-1-6.4c-0.2-2.3-0.1-4.7,0.1-7.2c0.4-3.7,1.1-7.5,2.7-12.5
	c1.6-5,3.9-11.3,7.6-19c3.6-7.7,8.5-16.7,14.1-25.7c5.6-8.9,11.9-17.7,17.8-25.2c5.9-7.5,11.4-13.5,16.3-18.3
	c4.9-4.8,9.1-8.3,12.7-11c3.6-2.6,6.7-4.4,9.4-5.8c2.7-1.3,5-2.2,7.1-2.7s4-0.8,5.8-0.8c1.2,0,2.1,0.1,3.1,0.9c0.9,1,1,1.8,1,3.2
	c0,0.6,0,1.5-0.1,2.3c-2.8,1.3-5.8,3.4-8.2,5.4c-1.1,0.9-1.9,1.8-2.6,2.5c-1.7,1.9-2.7,3.7-2.9,5.6c-0.3,1.4,1.2,3.9,2.3,4.6
	c3.4,2.6,7.5,0.9,11.7-3.8c0.8-0.9,1.6-2.1,2.4-3.3c0.7-1.2,1.4-2.6,1.9-3.9c2.1-5.3,3.2-10.8,0.2-15.5c-0.7-1-1.6-2-2.7-2.8
	c-1.1-0.8-2.4-1.4-3.9-1.8c-1.5-0.4-3.2-0.7-5.7-0.6c-2.6,0-5.9,0.4-9.8,1.3c-3.8,0.9-8.1,2.3-12.9,4.4c-4.8,2.2-10.1,5-16.1,9
	c-5.9,3.9-12.4,8.9-19.1,14.9c-6.7,6-13.6,13.1-20,20.6c-13,15.2-23.1,31.5-29,44.3c-3,6.5-5.1,12.2-6.5,17.3
	c-1.5,5.1-2.3,9.5-2.7,14c-0.5,5.9-0.4,11.7,0.6,16.6c0.5,2.3,1.1,4.4,1.9,6.4c0.8,2,1.7,3.8,2.7,5.5c1.1,1.7,2.3,3.3,3.8,4.8
	s3.1,2.8,5.1,4.1c2,1.3,4.2,2.4,6.9,3.4s5.9,1.9,9.8,2.5c3.9,0.6,8.6,1,13.3,1c7.4,0.2,14.8-0.3,27.3-3.1
	c12.5-2.8,30.1-7.6,42.6-10.3c12.6-2.7,20.1-3.3,27.5-3.1c4.7,0,9.3,0.3,13.1,1c3.7,0.6,6.6,1.5,9.2,2.7c2.6,1.1,5.1,2.5,7.7,4.7
	c2.6,2.1,5.5,5,8,8.1c8.2-5.5,16.6-8.8,23-9.9c3.2-0.6,6-0.9,8.9-0.9c1.2,0,2.4,0.1,3.8,0.3c1.4,0.2,3,0.5,7.5,1.9
	c4.5,1.5,12,4.2,19.4,7c-7.2-6.8-15.2-12.8-22.4-17.1C1052.4,275.2,1046,272.8,1038.3,271.1 M1132.4,171.5h-17.1l-8.6,15.7h16.4
	L1132.4,171.5z M1381,144.1c-7.1,4.2-13.4,7-20.6,8.8c-7.2,1.9-15.4,2.9-23.5,2.8l-14.7,17.9c1.2,0.2,2.4,0.3,3.4,0.4
	c2,0.2,4.2,0.3,7,0.3c5.3,0,10.6-0.7,16.3-2.2c11.3-2.9,24-9.5,33.8-17.9c5-4.2,9.2-8.7,12.6-13.1c3.4-4.4,5.9-8.8,7.8-13.3
	C1395.8,134.2,1388,139.9,1381,144.1 M1361.5,256.5c-3,4.2-6.2,8.2-8.7,11.2c-2.5,3.1-4.5,5.1-6,6.6c-1.6,1.5-2.7,2.5-3.7,3.3
	c-1,0.7-1.8,1.2-2.4,1.6c-1.3,0.7-2.2,1-3.5,0.8c-1.2-0.3-1.2-1.4-1.1-2.1c0.2-0.5-0.2,0.2,1.5-3.1c1.3-2.5,3.8-7.2,6.4-11.9
	l29.4-50h-14.5l-5,4.3c-1.8-1.2-3.7-2.3-5-3c-1.4-0.7-2.3-0.9-3.1-1.1c-0.9-0.2-1.8-0.2-2.8-0.2c-5,0-9.7,1.6-15,4.8
	c-1.6,0.9-3.2,2.1-5.1,3.5c-1.9,1.5-4,3.3-6.5,5.7c-2.6,2.4-5.5,5.3-10.8,11.9c-5.3,6.6-12.9,16.9-18.2,23.9
	c-5.3,7.1-8.4,10.9-10.5,13.2c-2.1,2.4-3.3,3.3-4.2,4c-0.9,0.7-1.6,1-2.2,1.2c-0.8,0.3-1.5,0.4-2.3,0.3c-1.4-0.1-2.9-2.1-3.2-3.4
	c-0.5-2.6-0.2-3.7,0.7-7.7c0.6-2.3,1.5-5.8,2.9-10.2c1.4-4.4,3.3-9.8,5.4-15.1c11.2-7.2,22.1-15.1,30.4-22s14.1-12.8,20.1-19.8
	c5.9-7.1,12.1-15.3,17.7-24l-6.6,0.7c-4.3,6.1-9,12-14.5,18.2c-5.5,6.1-11.8,12.5-18.7,18.6c-6.9,6.1-14.5,12.1-22.2,17.5
	c4.9-9.3,10.2-18.5,15.7-27.5c5.5-8.9,11.3-17.7,17-25.7s11.4-15.3,16.5-21.4c5.1-6,9.6-10.9,13.3-14.4c3.7-3.6,6.5-5.9,8.8-7.5
	c2.2-1.6,3.8-2.4,5-2.9s2.1-0.7,2.9-0.7c0.4,0,0.8,0.1,1.1,0.4c1.6,1.4,1.3,2.2,1,3.7c-0.1,0.4-0.2,0.9-0.9,2.6
	c-0.7,1.7-1.9,4.7-3.2,7.6l6-0.7c1.1-1.7,2.1-3.5,2.7-4.8c0.6-1.2,0.8-1.9,1-2.7c0.2-0.7,0.3-1.6,0.4-2.5c0.2-2.9-0.3-5.8-3-8.1
	c-0.7-0.6-1.6-1.1-2.5-1.4c-3.1-1-5.8-0.4-9.4,0.5c-2.5,0.7-5.3,1.8-8.7,3.7c-3.4,1.8-7.3,4.4-12.1,8.2c-4.8,3.8-10.3,8.8-16.6,15.4
	c-6.3,6.6-13.4,14.8-20.7,24.4c-7.3,9.6-14.8,20.5-21.6,31.7c-6.9,11.2-13.2,22.6-18.8,34.3h-7.9c1.6-3.3,3-6.6,4-9
	c0.9-2.4,1.3-3.9,1.6-5.4c0.9-4,1.1-8.5-0.4-12c-0.5-1.1-1-2-1.7-2.8c-2.6-3-4.9-3.6-8.1-3.6c-1.2,0-2.8,0.2-4.6,0.7
	c-1.8,0.4-3.8,1.1-6,2.2c-2.3,1.1-4.8,2.6-7.8,4.6c-2.9,2.1-6.1,4.7-9.6,7.9c-3.4,3.3-7,7.2-10.4,11.4c-7,8.6-12.6,18-15.7,25.2
	c-1.6,3.6-2.7,6.9-3.5,9.7c-0.8,2.9-1.2,5.3-1.4,7.4c-0.2,2.1-0.1,3.9,0.1,5.5s0.7,3,1.3,4.3c0.6,1.3,1.5,2.4,2.5,3.3
	s2.2,1.7,3.5,2.1c1.3,0.5,2.8,0.7,4.3,0.8c3.1,0,6.1-0.8,9.9-2.7c1.9-1,4.1-2.3,6.6-4.2c2.5-1.9,5.2-4.3,8.4-7.5
	c3.2-3.3,6.8-7.4,10.9-12.9c4.1-5.4,8.8-12.2,13.1-19.2h7.9c-2.6,6.9-5.1,13.7-6.5,18.1s-1.8,6.2-2.1,8c-0.6,3.4-1,6.7-0.7,9.5
	c0.1,1.3,0.4,2.5,0.8,3.6s0.9,2.1,1.5,3c0.6,0.8,1.4,1.6,2.3,2.3c0.9,0.6,1.9,1.1,3,1.5c1.1,0.3,2.3,0.5,3.6,0.5
	c4.4,0,8.5-1.5,13.8-5.1c1.9-1.4,4.2-3.1,6.8-5.6c2.7-2.5,5.8-5.8,8.7-9.3c-0.2,2.1-0.3,4.3-0.2,6.1c0,1.8,0.2,3.2,0.4,4.3
	c0.2,1.1,0.4,2.1,0.7,2.9c0.3,0.8,0.6,1.5,0.9,2c0.7,1.2,1.5,2,2.3,2.6c1.6,1,2.9,1.4,5.1,1.4c0.9,0,2-0.1,3.1-0.3
	c2.3-0.4,4.4-1.2,7.1-2.9c1.4-0.8,2.9-1.9,5.1-3.8c2.1-1.9,4.8-4.5,7.5-7.3c-0.2,2-0.3,3.9-0.2,5.4c0,1.5,0.2,2.5,0.3,3.3
	c0.1,0.9,0.3,1.5,0.5,2c0.5,1.7,2.2,3.4,3.6,3.7c4.4,1.2,8,0.2,12.8-2.2c1.9-1,4.1-2.3,6.4-4.1c2.4-1.9,5-4.2,7.9-7.3
	c3-3.2,6.2-7.1,9.7-12s7.2-10.7,10.6-16.8L1361.5,256.5z M1231.6,261.2c-2.2,3.1-4.4,6-6.5,8.5s-4.2,4.7-5.9,6.3
	c-1.8,1.7-3.2,2.8-4.4,3.6c-1.2,0.8-2.1,1.3-2.8,1.6c-0.7,0.3-1.2,0.4-1.8,0.4c-1.7,0-3.3-0.7-4.6-2.6c-0.4-0.6-0.8-1.3-1-2.1
	c-0.6-1.9-0.8-3.3-0.6-5.8c0.1-1.4,0.4-3.1,0.9-4.9c0.4-1.8,1.1-3.7,2-5.8c2.9-6.9,8.4-14.2,15.6-20.4c0.7,1.6,1.6,3.2,3.1,4.7
	c0.6,0.7,1.4,1.4,2.4,2.2c1,0.7,2.1,1.4,3.8,2.2c1.7,0.8,3.9,1.6,6.2,2.3C1235.9,254.9,1233.8,258.1,1231.6,261.2 M1245.4,230.7
	c-0.1,1-0.3,2.1-0.5,3.1s-0.5,2-1.4,4.1s-2.5,5.4-4.1,8.5c-1.8-0.6-3.6-1.3-4.8-1.9c-1.3-0.6-2-1.1-2.6-1.7c-0.7-0.5-1.1-1-1.5-1.5
	c-0.9-1-1.4-1.9-1.8-3c-1.5-5.4-0.7-10.9,5.6-15.3c1.9-1.1,3.7-1.7,5.4-1.6c1.7,0,3,0.1,4.4,1.3c1.3,1.5,1.4,2.8,1.5,4.9
	C1245.6,228.5,1245.5,229.6,1245.4,230.7 M1323.3,265.1c-2,3.1-4.3,6.1-6.1,8.4c-1.8,2.2-3.2,3.6-4.4,4.6c-1.2,1-2.2,1.7-3.1,2.1
	c-2,0.8-4.1,1-5.5-0.2c-1.1-1.4-1-2.5-0.9-4.5c0.1-0.9,0.3-2.1,0.6-3.4c0.3-1.4,0.8-2.9,1.4-4.7c0.6-1.7,1.5-3.7,2.6-5.9
	c1.1-2.3,2.6-4.8,4.3-7.7c1.8-2.9,4-6,6.5-9.3c2.5-3.2,5.4-6.6,8.1-9.5c2.8-3,5.4-5.5,7.7-7.4c2.2-1.9,4-3.2,5.4-4.1
	c1.4-0.8,2.4-1.3,3.1-1.6s1.3-0.4,1.9-0.4c1,0,1.7,0,2.5,0.5c1.1,1,0.5,2.2,0.1,3.6c-0.2,0.8-0.7,1.9-1.3,3.1
	c-0.6,1.3-1.5,2.8-2.4,4.2L1323.3,265.1z M1192.8,237c0.9-3.6,1.5-7,1.8-10.5c0.2-2.6,0-5.1-0.6-7c-0.3-0.9-0.7-1.6-1.1-2.3
	c-1.1-1.6-2.2-2.4-3.7-3.1c-0.8-0.4-1.8-0.7-2.9-0.9s-2.4-0.3-3.8-0.3c-1.5,0-3.2,0.2-4.8,0.5c-6.7,1.3-13.7,4.9-21,13
	c-1.9,2.1-3.7,4.5-5.6,7.2c-1.8,2.8-3.6,5.8-5.3,9.3c-1.7,3.4-3.2,7.1-4.6,11c-1.3,3.9-2.5,7.9-3.3,12c3.8-3.1,7.6-6.2,10.4-8.2
	s4.5-3,6.7-4.3c2.3-1.2,5.1-2.6,8-3.9c1-4.5,2.6-9.2,4.4-13c0.8-1.8,1.7-3.4,2.6-4.7c0.9-1.4,1.7-2.5,2.5-3.5
	c2.3-2.8,4.5-4.3,6.7-5.2c3.2-1,5.7-1.5,8.3,1c1.1,1.4,1.4,2.6,1.5,4.1c0,5.4-1.2,10.3-3.2,15.9c-0.9,2.5-2.1,5.1-3.5,7.8
	s-3.2,5.5-5.3,8.4c-4.2,5.8-10,12.1-16.4,17.2c-6.1,4.9-12.4,8.3-16.7,9.7c-2.1,0.6-3.7,0.9-5.2,0.9s-2.9-0.2-4.3-0.6
	c-2.7-0.9-5.5-2.7-7.7-5.4c-1.1-1.3-2-2.8-2.6-4.4c-1.4-3.2-1.8-6.5-1.5-9.6c0.4-3.7,1.3-7.3,3.7-13.5c2.4-6.2,6.2-15.1,11.3-25
	c5.1-9.9,11.6-20.9,17.8-30.4c6.2-9.5,12.2-17.6,17.6-24.3s10.2-11.9,14.5-16.1c4.3-4.2,8.1-7.5,11.5-10.1s6.4-4.5,9.2-6.1
	c2.7-1.6,5.2-2.7,7.5-3.6c6.1-2.4,11.6-2.6,17.7-2.5c-4.8,2.7-9.4,5.8-13.5,9.1c-8.3,6.5-14.4,13.3-18.4,19.1
	c-2,2.9-3.6,5.6-4.8,8.2c-1.2,2.6-2.1,4.9-2.7,7.2s-1,4.4-1.2,6c-0.2,1.7-0.1,2.9,0,3.9c0.1,1.1,0.4,2,0.7,2.8
	c0.4,0.8,0.8,1.5,1.3,2.1s1.2,1.2,1.9,1.6c0.7,0.5,1.6,0.8,2.7,1.1c1,0.3,2.2,0.4,3.4,0.4c2.5,0,5.1-0.7,8.2-2.1
	c1.6-0.8,3.4-1.8,5.3-3.2s4-3.1,6.2-5.3c2.1-2.2,4.3-4.7,6.4-7.4s4.1-5.7,5.8-8.7c3.3-5.7,5.6-11.5,6.9-16.6c0.6-2.4,1-4.6,1.2-6.8
	c0-0.5,0.1-1.1,0.1-2.2c0-1.1-0.1-2.7-0.1-3.9s0-1.8,0.1-2.5c5.5-0.1,10.9,0.6,15.8,1.9c5,1.3,9.6,3.4,16.4,7.6
	c6.7,4.2,15.5,10.6,23.9,17.6l16-16.4c-5.3-4.5-10.8-8.7-15.6-11.9c-4.8-3.2-8.9-5.3-12.6-6.9c-3.7-1.6-6.9-2.6-10-3.2
	c-4.6-1-8.3-1.2-13.4-0.6c-1.8,0.2-3.5,0.5-7.1,1.5c-3.6,1-8.9,2.7-14.2,4.7c-2.8-1.9-5.8-3.5-7.9-4.5c-2.2-1-3.5-1.4-4.9-1.6
	c-5.3-0.9-10.1-0.3-16.6,1.6c-4.7,1.4-10.3,3.6-17,7.1s-14.3,8.3-22.1,14.2c-7.9,5.9-16,12.9-23.4,20.3c-7.4,7.4-14.2,15.1-20,22.6
	c-5.8,7.4-10.5,14.7-14.5,21.5c-3.9,6.8-7,13.1-9.4,19s-4.2,11.5-5.4,16.6c-1.3,5.2-2.1,10-2.4,13.8c-0.4,3.9-0.3,6.8,0.1,9.6
	c0.4,2.8,1.1,5.5,2.1,8c1.1,2.5,2.5,4.9,4.2,7.1s3.8,4.1,6.1,5.7c2.3,1.5,5,2.8,7.8,3.6c5.8,1.7,11.3,1.8,17.7-0.2
	c3.3-1,7.1-2.5,11.2-4.8c8.3-4.5,17.7-12.1,25-20.3c7.5-8.4,12.8-17.1,16.1-24.8C1190.6,244.3,1191.8,240.6,1192.8,237
	 M1236.2,141.4c-0.3,3.1-0.9,6.2-1.9,9.8c-1,3.7-2.4,7.8-4,11.7s-3.3,7.5-5,10.5s-3.3,5.4-4.8,7.4c-3.8,5-7.1,7.8-10.5,9.4
	c-3.6,1.5-6.9,1.7-9.7-0.1c-0.8-0.5-1.7-1.7-1.9-2.7c-0.6-3.6,0.4-6.6,1.9-10.5c0.7-1.6,1.5-3.3,2.6-5.1c1.1-1.9,2.6-4,4.4-6.4
	c1.9-2.3,4.2-5,7.1-7.8c2.9-2.9,6.5-6,10.2-8.7C1228.4,146.1,1232.2,143.6,1236.2,141.4 M1079.2,228.5c-3,3.5-4.3,4.8-5.3,5.8
	c-1,0.9-1.7,1.5-2.3,1.8c-1.2,0.9-2.5,1.1-3.6,1c-0.7,0-1.8-0.9-1.7-2c0.1-0.6-0.2-0.7,0.4-2.1c0.3-0.8,0.9-2.2,2.7-5.5
	c1.7-3.3,4.5-8.7,7.3-14l24.8-42.2h-15.8l-3,3.6c-2.1-1.2-4.3-2.4-5.8-3c-1.6-0.7-2.5-0.9-3.6-1c-1.1-0.2-2.2-0.3-3.3-0.3
	c-3.7,0-7.4,1.1-11.9,3.7c-1.7,1-3.6,2.4-6,4.3c-2.5,1.9-5.4,4.3-11,10.6c-5.5,6.2-13.7,16.2-20.4,24.3
	c-6.7,8.1-12.1,14.3-15.8,18.4c-3.8,4-6.1,5.8-7.9,7.2c-1.8,1.3-3.3,2.2-4.6,2.9c-1.3,0.6-2.4,1.1-3.4,1.3c-2.7,0.6-5.5,0.6-7.5-0.8
	c-1.2-1-1.5-1.9-1.8-3c-0.6-3,0-5.4,0.6-8.3c0.4-1.7,1-3.7,1.8-5.9c0.8-2.3,2-4.8,3.5-7.7s3.4-6.2,5.8-9.7
	c4.7-7.1,11.5-15.3,16.8-20.3c2.6-2.5,4.8-4.3,6.5-5.5s2.9-1.8,3.8-2.2c0.9-0.4,1.5-0.5,2.1-0.5c0.9,0,1.6,0.1,2.3,0.7
	c0.9,0.8,1.1,1.4,1.2,2.7c0,0.6,0,1.4-0.1,2.3c-1.5,0.3-3,0.6-4.2,0.9c-1.2,0.4-2,0.8-2.7,1.1c-0.7,0.4-1.3,0.8-1.8,1.1
	c-3.5,2.7-4.1,6.1-4,8.3c0.2,1.1,0.9,2.2,1.8,3c2.8,2.5,6.4,0.8,10.1-3.5c0.7-0.8,1.4-1.7,2-2.7c2.1-3.2,3.3-6.2,3.9-8.8
	c0.9-4.2,0.8-9.1-4.1-12.8c-1.9-1.2-3.5-1.7-5.9-1.7c-1.3,0-2.9,0.2-4.5,0.5c-1.6,0.4-3.3,0.9-5.2,1.7s-4,1.8-7.9,4.9
	c-3.9,3.2-9.8,8.5-14.3,12.4c-4.6,3.8-7.9,6.3-10.8,8.1c-2.9,1.8-5.3,2.9-7.6,3.9c-2.3,0.9-4.6,1.7-6.9,2.2c1.4-3,2.6-6.1,3.5-8.7
	c1-2.7,1.6-4.9,2-6.6c0.4-1.7,0.6-2.9,0.7-4.1c0.2-2.4-0.1-4.9-0.8-6.8c-0.3-0.9-0.8-1.7-1.3-2.5c-1.1-1.6-2.4-2.5-3.8-3.2
	c-3.7-1.6-6.9-1.3-10.8-0.4c-2,0.5-4.3,1.4-6.9,2.6c-2.6,1.3-5.6,3-8.8,5.4c-3.2,2.3-6.8,5.2-10.2,8.7c-3.5,3.4-7,7.3-10.2,11.2
	c-6.2,7.9-10.9,16.1-13.8,22.9c-1.4,3.3-2.4,6.4-3.2,9.2c-0.7,2.8-1.2,5.4-1.4,7.4s-0.2,3.6,0,5c0.1,1.4,0.4,2.7,0.8,3.8
	c0.4,1.1,0.9,2.1,1.6,3c0.6,0.9,1.4,1.7,2.3,2.3c0.9,0.7,1.9,1.2,3.1,1.5c1.2,0.3,2.5,0.6,4,0.6s3.2-0.2,4.9-0.6
	c1.7-0.4,3.5-1,5.5-1.9c1.9-0.9,4-2.1,6.3-3.8c2.4-1.7,4.9-3.8,7.9-6.8s6.5-6.7,10.8-12.3c4.3-5.5,9.5-12.9,14.4-20.4l12.1-2.9
	c-3.5,6.5-6.9,13.1-8.8,17.4c-1.9,4.2-2.4,6-2.9,8c-1.3,6.2-1.7,12.4,1.1,17.3c0.9,1.5,2,2.8,3.3,3.9c1.4,1.1,2.9,2,4.8,2.6
	c1.8,0.6,3.9,0.9,6,0.9c5.5,0,10.3-1.3,16.8-5.4c2.2-1.4,4.7-3.2,8.2-6.3c3.4-3.1,7.8-7.4,11.9-11.9c-0.4,3.9-0.6,7.9-0.6,10.4
	c0,2.6,0.2,3.7,0.4,4.6c0.2,0.9,0.4,1.7,0.6,2.3c0.2,0.6,0.5,1.1,0.8,1.6c1.1,1.6,2.2,2.2,3.5,2.7c4.4,1.2,7.9,0.6,12.4-1.5
	c1.6-0.8,3.4-1.8,5.7-3.4c2.3-1.7,5.2-4.1,7.9-6.6c-0.1,1.6-0.2,3.2-0.2,4.4s0.1,1.9,0.3,2.5c0.2,1,0.4,1.7,1,2.6
	c1.5,1.9,3.2,2.2,5.3,2.5c0.9,0.1,1.9,0.2,3,0.2c4.2,0,8.5-1.5,13.6-4.8c2.7-1.7,5.5-4.1,8.7-7.2c3.1-3.1,6.5-7,10.1-11.9
	s7.3-10.8,10.7-16.8l-3.2-0.7C1086.7,219.4,1082.2,225,1079.2,228.5 M939.5,227.8c-3.3,4.4-4.7,5.8-5.8,6.9
	c-1.2,1.1-2.1,1.8-2.9,2.4c-0.8,0.6-1.5,1-2.2,1.3c-3.2,1.4-6.8,1.6-9-1.9c-0.8-1.5-1-2.8-0.7-4.7c0.1-1.1,0.4-2.5,1-4.3
	c0.6-1.9,1.6-4.2,3.1-7.2s3.6-6.6,6.4-10.6c2.7-4,6.1-8.4,9.7-12.6c1.5,2.2,3.2,4.2,4.6,5.6c1.3,1.4,2.3,2.2,3.9,3.1
	c1.5,0.9,3.6,1.9,5.7,2.7C948,216.1,942.8,223.4,939.5,227.8 M961.3,188.7c-0.1,1-0.3,2.2-0.5,3.2c-0.2,1.1-0.5,2.1-1.3,3.9
	c-0.8,1.8-2.1,4.5-3.4,7.1c-1.7-0.6-3.4-1.3-4.7-2s-2.2-1.3-3-1.8c-0.7-0.5-1.3-1.1-1.8-1.7c-0.5-0.5-0.8-1-1.2-1.5
	c-2.3-4.1-2.1-8.4,2.2-12.6c0.6-0.6,1.4-1.2,2.1-1.7c0.8-0.5,1.6-1,2.5-1.3c2.5-1,4.9-1.9,7.2-0.1
	C961.9,183.2,961.4,185.8,961.3,188.7 M1051.4,224.3c-1.4,2.2-2.9,4.4-4.3,6c-1.3,1.7-2.4,3-3.4,4s-1.8,1.8-2.5,2.3
	c-1.2,0.9-2.2,1.5-3.2,1.8c-1.5,0.4-3.3,0.1-4.5-1.3c-1.3-1.6-1.4-2.6-1.3-4.5c0.1-0.8,0.3-1.9,0.7-3.2c0.4-1.4,0.9-3,1.9-5.1
	c0.9-2.1,2.2-4.7,4.1-7.9s4.3-7.1,7.3-11.1c2.9-4,6.3-8.3,9.4-11.8c3.1-3.5,5.9-6.3,8.1-8.3c2.2-2,3.8-3.2,5.1-4.1
	c1.2-0.8,2.1-1.2,2.8-1.5c1.3-0.5,2.4-0.5,3.5,0c1.9,1.3,1.1,3.5,0.9,4.7c-0.1,0.5-0.3,0.9-1.2,2.4c-0.9,1.5-2.5,4.1-4.2,6.8
	L1051.4,224.3z"/>
<g>
	<path class="st1" d="M1413.2,292.1c0,1.7-0.9,2.6-2.4,2.6s-2.4-0.9-2.4-2.6v-35.7c0-1.6,1.1-2.4,2.4-2.4s2.1,0.7,2.8,1.5l25.5,31.4
		h0.1v-30.2c0-1.7,0.9-2.6,2.4-2.6s2.4,0.9,2.4,2.6v35.6c0,1.9-0.9,2.5-2.3,2.5c-1.3,0-1.8-0.5-2.6-1.5l-25.8-31.8h-0.1V292.1z"/>
	<path class="st1" d="M1476.3,277.9c-0.2-5-3.5-10.3-10-10.3s-9.8,5.3-10,10.3H1476.3z M1456.2,281.2c0.2,5.2,4.4,10.1,10.6,10.1
		c7.6,0,9.6-4.6,11.9-4.6c1.3,0,2.3,0.4,2.3,2c0,1.8-5.5,6-13.8,6c-11.4,0-16.1-7.7-16.1-15.3s5.3-15.3,15.3-15.3
		s15.2,7.1,15.2,14.6c0,1.1-0.4,2.5-3.3,2.5L1456.2,281.2L1456.2,281.2z"/>
	<path class="st1" d="M1502.3,291.3c7.5,0,10.1-6.4,10.1-11.9c0-5.4-2.6-11.9-10.1-11.9s-10.1,6.4-10.1,11.9
		C1492.2,284.9,1494.9,291.3,1502.3,291.3 M1487.5,266.7c0-1.7,0.9-2.6,2.4-2.6s2.4,0.9,2.4,2.6v1.9h0.2c2.1-2.9,5.7-4.4,9.8-4.4
		c10.2,0,15.3,6.9,15.3,15.3c0,7.5-4.9,15.3-15.2,15.3c-4.1,0-7.2-1.5-10-4.4h-0.2V304c0,1.7-0.9,2.6-2.4,2.6s-2.4-0.9-2.4-2.6
		L1487.5,266.7L1487.5,266.7z"/>
	<path class="st1" d="M1538.1,291.3c7.5,0,10-6.4,10-11.9c0-5.4-2.5-11.9-10-11.9c-7.3,0-10.1,6.4-10.1,11.9
		S1530.7,291.3,1538.1,291.3 M1548.2,266.7c0-1.7,0.9-2.6,2.4-2.6s2.4,0.9,2.4,2.6v25.4c0,1.7-0.9,2.6-2.4,2.6s-2.4-0.9-2.4-2.6
		v-1.9h-0.2c-2.1,2.9-5.7,4.4-9.8,4.4c-10.2,0-15.3-6.8-15.3-15.3c0-7.5,4.9-15.3,15.2-15.3c4.1,0,7.2,1.5,9.9,4.4h0.2L1548.2,266.7
		L1548.2,266.7z"/>
	<path class="st1" d="M1566.6,292.1c0,1.7-0.9,2.6-2.4,2.6s-2.4-0.9-2.4-2.6v-38.5c0-1.7,0.9-2.6,2.4-2.6s2.4,0.9,2.4,2.6V292.1z"/>
	<path class="st1" d="M1595.9,291.8c1,3.9,1.9,4.7,1.9,5.7c-0.1,0.9-0.7,1.3-1.9,1.3c-1.5,0-2.3-1.2-3.2-3.6
		c-2-6.1-2.7-13.1-2.7-19.4s0.7-13.4,2.7-19.4c0.9-2.4,1.7-3.6,3.2-3.6c1.2,0,1.9,0.5,1.9,1.3c0.1,1.1-0.9,1.8-1.9,5.7
		c-1.3,5.3-1.6,10.7-1.6,15.9S1594.6,286.4,1595.9,291.8"/>
	<path class="st1" d="M1617.3,292.1c0,1.7-0.9,2.6-2.4,2.6s-2.4-0.9-2.4-2.6v-34h-9.2c-1.5,0-2.5-0.8-2.5-1.9c0-1,1-1.8,2.5-1.8
		h23.2c1.5,0,2.5,0.8,2.5,1.8s-1,1.9-2.5,1.9h-9.2V292.1z"/>
	<path class="st1" d="M1650.8,277.9c-0.2-5-3.5-10.3-10-10.3s-9.8,5.3-10,10.3H1650.8z M1630.8,281.2c0.2,5.2,4.4,10.1,10.6,10.1
		c7.6,0,9.6-4.6,11.9-4.6c1.3,0,2.3,0.4,2.3,2c0,1.8-5.5,6-13.8,6c-11.4,0-16.1-7.7-16.1-15.3s5.3-15.3,15.3-15.3
		s15.2,7.1,15.2,14.6c0,1.1-0.4,2.5-3.3,2.5L1630.8,281.2L1630.8,281.2z"/>
	<path class="st1" d="M1666.9,292.1c0,1.7-0.9,2.6-2.4,2.6s-2.4-0.9-2.4-2.6v-25.4c0-1.7,0.9-2.6,2.4-2.6s2.4,0.9,2.4,2.6v2.8h0.1
		c1.7-3.3,4.8-5.4,7.8-5.4c2.3,0,3.2,1.1,3.2,2.2s-0.9,1.7-3.3,2.2c-2.7,0.5-7.9,2.4-7.9,9v14.6H1666.9z"/>
	<path class="st1" d="M1696.6,291.3c7.5,0,10-6.4,10-11.9c0-5.4-2.5-11.9-10-11.9c-7.3,0-10.1,6.4-10.1,11.9
		S1689.1,291.3,1696.6,291.3 M1706.6,266.7c0-1.7,0.9-2.6,2.4-2.6s2.4,0.9,2.4,2.6v25.4c0,1.7-0.9,2.6-2.4,2.6s-2.4-0.9-2.4-2.6
		v-1.9h-0.2c-2.1,2.9-5.7,4.4-9.8,4.4c-10.2,0-15.3-6.8-15.3-15.3c0-7.5,4.9-15.3,15.2-15.3c4.1,0,7.2,1.5,9.9,4.4h0.2L1706.6,266.7
		L1706.6,266.7z"/>
	<path class="st1" d="M1725,292.1c0,1.7-0.9,2.6-2.4,2.6s-2.4-0.9-2.4-2.6v-25.4c0-1.7,0.9-2.6,2.4-2.6s2.4,0.9,2.4,2.6V292.1z
		 M1722.6,254.1c1.8,0,3.3,1.2,3.3,2.7c0,1.5-1.5,2.7-3.3,2.7s-3.3-1.2-3.3-2.7C1719.3,255.3,1720.8,254.1,1722.6,254.1"/>
	<path class="st1" d="M1734.2,259.9c-1-3.9-1.9-4.7-1.9-5.7c0.1-0.8,0.7-1.3,1.9-1.3c1.5,0,2.3,1.2,3.2,3.6c2,6.1,2.7,13.1,2.7,19.4
		s-0.7,13.4-2.7,19.4c-0.9,2.4-1.7,3.6-3.2,3.6c-1.2,0-1.9-0.5-1.9-1.3c-0.1-1.1,0.9-1.8,1.9-5.7c1.3-5.3,1.6-10.7,1.6-15.9
		C1735.8,270.6,1735.5,265.2,1734.2,259.9"/>
	<path class="st1" d="M1768.3,290.7h12.6c1.5,0,2.5,0.8,2.5,1.8s-1,1.9-2.5,1.9h-15c-1.3,0-2.4-0.9-2.4-2v-35.7
		c0-1.7,0.9-2.6,2.4-2.6s2.4,0.9,2.4,2.6V290.7z"/>
	<path class="st1" d="M1793,292.1c0,1.7-0.9,2.6-2.4,2.6s-2.4-0.9-2.4-2.6v-25.4c0-1.7,0.9-2.6,2.4-2.6s2.4,0.9,2.4,2.6V292.1z
		 M1790.6,254.1c1.8,0,3.3,1.2,3.3,2.7c0,1.5-1.5,2.7-3.3,2.7s-3.3-1.2-3.3-2.7C1787.3,255.3,1788.8,254.1,1790.6,254.1"/>
	<path class="st1" d="M1827.6,292.1c0,1.7-0.9,2.6-2.4,2.6s-2.4-0.9-2.4-2.6v-16.4c0-6.6-4.3-7.8-8-7.8c-3.9,0-8.1,2.7-8.1,7.8v16.4
		c0,1.7-0.9,2.6-2.4,2.6s-2.4-0.9-2.4-2.6v-25.4c0-1.7,0.9-2.6,2.4-2.6s2.4,0.9,2.4,2.6v1.5h0.1c1.8-2.2,4.7-4,9.3-4
		c4.1,0,7.7,2,9.3,5.2c2.4-3.4,6.6-5.2,10.4-5.2c6.3,0,12.8,3.5,12.8,10.7v17.3c0,1.7-0.9,2.6-2.4,2.6s-2.4-0.9-2.4-2.6v-16.4
		c0-6.6-4.3-7.8-8-7.8c-3.9,0-8.2,2.7-8.2,7.8L1827.6,292.1L1827.6,292.1z"/>
	<path class="st1" d="M1862.2,292.1c0,1.7-0.9,2.6-2.4,2.6s-2.4-0.9-2.4-2.6v-25.4c0-1.7,0.9-2.6,2.4-2.6s2.4,0.9,2.4,2.6V292.1z
		 M1859.8,254.1c1.8,0,3.3,1.2,3.3,2.7c0,1.5-1.5,2.7-3.3,2.7s-3.3-1.2-3.3-2.7C1856.5,255.3,1858,254.1,1859.8,254.1"/>
	<path class="st1" d="M1877.1,292.1c0,1.7-0.9,2.6-2.4,2.6s-2.4-0.9-2.4-2.6v-24.2h-3.1c-1.6,0-2.1-1-2.1-1.7s0.5-1.7,2.1-1.7h3.1
		v-6.6c0-1.7,0.9-2.6,2.4-2.6s2.4,0.9,2.4,2.6v6.6h3.1c1.6,0,2.1,1,2.1,1.7s-0.5,1.7-2.1,1.7h-3.1V292.1z"/>
	<path class="st1" d="M1910.5,277.9c-0.2-5-3.5-10.3-10-10.3s-9.8,5.3-10,10.3H1910.5z M1890.5,281.2c0.2,5.2,4.4,10.1,10.6,10.1
		c7.6,0,9.6-4.6,11.9-4.6c1.3,0,2.3,0.4,2.3,2c0,1.8-5.5,6-13.8,6c-11.3,0-16.1-7.7-16.1-15.3s5.3-15.3,15.3-15.3
		s15.2,7.1,15.2,14.6c0,1.1-0.4,2.5-3.3,2.5L1890.5,281.2L1890.5,281.2z"/>
	<path class="st1" d="M1935.2,291.3c7.5,0,10-6.4,10-11.9c0-5.4-2.5-11.9-10-11.9c-7.3,0-10.1,6.5-10.1,11.9
		C1925.1,284.9,1927.7,291.3,1935.2,291.3 M1945.2,253.6c0-1.7,0.9-2.6,2.4-2.6s2.4,0.9,2.4,2.6v38.5c0,1.7-0.9,2.6-2.4,2.6
		s-2.4-0.9-2.4-2.6v-1.9h-0.2c-2.1,2.9-5.7,4.4-9.8,4.4c-10.2,0-15.3-6.8-15.3-15.3c0-7.5,4.9-15.3,15.2-15.3c4.1,0,7.2,1.5,9.9,4.4
		h0.2L1945.2,253.6L1945.2,253.6z"/>
	<g>
		<path class="st1" d="M1413.2,223.3h8.6c6.7,0,10.8-2.7,10.8-7.9c0-4.7-4.4-7.9-10.9-7.9h-8.5V223.3z M1413.2,204.2h7
			c4.9,0,8.7-2.9,8.7-7c0-3.2-2.9-6.4-8.5-6.4h-7.1L1413.2,204.2L1413.2,204.2z M1408.3,189.2c0-1.4,0.8-2.1,2.9-2.1h8.6
			c10.4,0,13.8,5.5,13.8,10c0,4.7-2.7,7-6.7,8.4v0.1c6.6,0.9,10.4,4.4,10.4,10c0,6-4.6,11.4-15.1,11.4h-11c-2.1,0-2.9-0.7-2.9-2.1
			L1408.3,189.2L1408.3,189.2z"/>
		<path class="st1" d="M1457.7,224c7.5,0,10.1-6.4,10.1-11.9c0-5.4-2.6-11.9-10.1-11.9s-10.1,6.5-10.1,11.9S1450.2,224,1457.7,224
			 M1457.7,227.3c-10.2,0-15.3-6.8-15.3-15.3c0-7.5,4.9-15.3,15.3-15.3c10.5,0,15.3,7.7,15.3,15.3
			C1473,220.5,1467.9,227.3,1457.7,227.3"/>
		<path class="st1" d="M1486,224.8c0,1.7-0.9,2.6-2.4,2.6s-2.4-0.9-2.4-2.6v-24.2h-3.1c-1.6,0-2.1-1-2.1-1.7s0.5-1.7,2.1-1.7h3.1
			v-6.6c0-1.7,0.9-2.6,2.4-2.6s2.4,0.9,2.4,2.6v6.6h3.1c1.6,0,2.1,1,2.1,1.7s-0.5,1.7-2.1,1.7h-3.1V224.8z"/>
		<path class="st1" d="M1502.1,224.8c0,1.7-0.9,2.6-2.4,2.6s-2.4-0.9-2.4-2.6v-24.2h-3.1c-1.6,0-2.1-1-2.1-1.7s0.5-1.7,2.1-1.7h3.1
			v-6.6c0-1.7,0.9-2.6,2.4-2.6s2.4,0.9,2.4,2.6v6.6h3.1c1.6,0,2.1,1,2.1,1.7s-0.5,1.7-2.1,1.7h-3.1V224.8z"/>
		<path class="st1" d="M1516.9,224.8c0,1.7-0.9,2.6-2.4,2.6s-2.4-0.9-2.4-2.6v-38.5c0-1.7,0.9-2.6,2.4-2.6s2.4,0.9,2.4,2.6V224.8z"
			/>
		<path class="st1" d="M1549.2,210.5c-0.2-5-3.5-10.3-10-10.3s-9.8,5.3-10,10.3H1549.2z M1529.1,213.9c0.2,5.2,4.4,10.1,10.6,10.1
			c7.6,0,9.6-4.6,11.9-4.6c1.3,0,2.3,0.4,2.3,2c0,1.8-5.5,6-13.8,6c-11.4,0-16.1-7.7-16.1-15.3s5.3-15.3,15.3-15.3
			s15.2,7.1,15.2,14.6c0,1.1-0.4,2.5-3.3,2.5H1529.1z"/>
		<path class="st1" d="M1565.2,224.8c0,1.7-0.9,2.6-2.4,2.6s-2.4-0.9-2.4-2.6v-25.4c0-1.7,0.9-2.6,2.4-2.6s2.4,0.9,2.4,2.6v2.8h0.1
			c1.7-3.3,4.8-5.4,7.8-5.4c2.3,0,3.2,1.1,3.2,2.2c0,1.1-0.9,1.7-3.3,2.2c-2.7,0.5-7.9,2.4-7.9,9v14.6H1565.2z"/>
		<path class="st1" d="M1603.7,201.4c0,0.9-0.4,2-2.4,2c-1.9,0-4.3-3.2-9.1-3.2c-3.3,0-6.9,1.3-6.9,4.2c0,1.3,0.9,2.7,3.3,3.5
			l7.3,2.5c4.8,1.6,8.9,3.6,8.9,8.3c0,5.3-5.6,8.6-13.1,8.6c-7.7,0-12.8-3.8-12.8-5.7c0-0.6,1.1-2,2.3-2c2.3,0,4.5,4.3,10.8,4.3
			c4.6,0,7.7-2.3,7.7-5.1c0-2.6-2.3-3.7-4.9-4.6l-8.3-2.9c-3.6-1.2-6.2-3-6.2-6.7c0-4.9,5.7-7.9,11.2-7.9
			C1598,196.8,1603.8,199.3,1603.7,201.4"/>
	</g>
</g>
<path class="st0" d="M333.5,254.3c-7.6-1.6-16.6-2.6-25.6-2.5c-8.1-0.4-16.2,0.2-31,3.5c-14.7,3.4-36.1,9.5-50.2,13
	s-21.1,4.4-28.1,4.5c-3.4,0-6.8-0.3-9.8-0.8s-5.6-1.4-7.8-2.3s-4.2-2-5.8-3.2s-3-2.6-4.3-4c-1.2-1.4-2.2-2.9-3.1-4.6
	c-0.8-1.6-1.5-3.4-2-5.3c-0.5-1.9-0.8-4-1-6.2s-0.1-4.6,0.1-7.1c0.3-3.7,1.1-7.3,2.6-12.2s3.8-11.1,7.4-18.6
	c3.6-7.5,8.4-16.3,13.8-25.1c5.5-8.7,11.6-17.4,17.4-24.7c5.8-7.3,11.2-13.2,16-17.9s8.9-8.1,12.4-10.7c3.6-2.6,6.5-4.3,9.2-5.6
	c2.6-1.3,4.9-2.1,7-2.6s3.9-0.8,5.7-0.8c1.2,0,2.1,0.1,3,0.9c0.9,1,1,1.7,1,3.1c0,0.6,0,1.5-0.1,2.3c-2.7,1.3-5.7,3.3-8,5.3
	c-1.1,0.9-1.9,1.7-2.5,2.5c-1.6,1.9-2.6,3.6-2.9,5.5c-0.3,1.3,1.2,3.8,2.2,4.5c3.3,2.6,7.4,0.8,11.5-3.8c0.8-0.9,1.6-2,2.3-3.2
	c0.7-1.2,1.4-2.5,1.9-3.8c2-5.2,3.2-10.6,0.2-15.1c-0.7-1-1.6-1.9-2.7-2.7c-1.1-0.7-2.3-1.4-3.8-1.8s-3.1-0.7-5.6-0.6
	c-2.5,0-5.8,0.4-9.6,1.2c-3.7,0.8-7.9,2.2-12.6,4.3c-4.7,2.1-9.9,4.9-15.7,8.8c-5.8,3.9-12.2,8.7-18.7,14.6
	c-6.6,5.9-13.3,12.8-19.5,20.2c-12.7,14.9-22.6,30.8-28.3,43.3c-3,6.3-5,12-6.4,16.9c-1.4,5-2.2,9.3-2.6,13.7
	c-0.5,5.8-0.4,11.5,0.6,16.3c0.5,2.3,1.1,4.3,1.8,6.3c0.7,1.9,1.6,3.7,2.7,5.3c1,1.7,2.3,3.2,3.7,4.6s3.1,2.8,5,4s4.1,2.3,6.8,3.4
	c2.6,1,5.7,1.9,9.6,2.5c3.8,0.6,8.4,1,13,1c7.2,0.2,14.5-0.3,26.7-3s29.4-7.4,41.7-10.1c12.3-2.7,19.6-3.2,26.9-3
	c4.6,0,9.1,0.3,12.8,1c3.6,0.6,6.4,1.5,9,2.6s4.9,2.5,7.5,4.6s5.4,4.9,7.9,7.9c8-5.4,16.3-8.6,22.5-9.6c3.1-0.6,5.9-0.9,8.7-0.9
	c1.2,0,2.3,0.1,3.7,0.3c1.4,0.2,3,0.5,7.4,1.9c4.4,1.5,11.7,4.1,19,6.9c-7.1-6.7-14.9-12.5-21.9-16.7
	C347.3,258.3,341.1,255.9,333.5,254.3 M425.6,156.8h-16.7l-8.4,15.4h16.1L425.6,156.8z M668.7,130c-6.9,4.1-13,6.8-20.1,8.6
	s-15.1,2.8-22.9,2.7l-14.4,17.5c1.2,0.2,2.4,0.3,3.4,0.4c1.9,0.2,4.1,0.3,6.9,0.3c5.2,0,10.4-0.7,15.9-2.1
	c11.1-2.9,23.5-9.3,33.1-17.5c4.9-4.1,9-8.5,12.3-12.8s5.8-8.6,7.7-13C683.3,120.3,675.6,125.9,668.7,130 M649.7,240
	c-3,4.1-6,8-8.5,11s-4.4,5-5.9,6.5s-2.7,2.5-3.7,3.2c-0.9,0.7-1.7,1.2-2.3,1.5c-1.3,0.7-2.2,1-3.4,0.8c-1.2-0.3-1.2-1.4-1.1-2
	c0.2-0.5-0.2,0.2,1.5-3.1c1.3-2.4,3.7-7,6.2-11.6l28.7-48.9H647l-4.9,4.2c-1.8-1.2-3.6-2.3-4.9-2.9c-1.4-0.7-2.2-0.9-3.1-1
	c-0.9-0.2-1.7-0.2-2.7-0.2c-4.9,0-9.5,1.6-14.7,4.7c-1.5,0.9-3.2,2-5,3.4s-3.9,3.2-6.4,5.5s-5.4,5.2-10.6,11.6
	c-5.2,6.5-12.6,16.5-17.8,23.4s-8.2,10.6-10.3,13c-2.1,2.3-3.2,3.2-4.1,3.9c-0.9,0.7-1.6,1-2.2,1.2c-0.8,0.3-1.5,0.4-2.3,0.3
	c-1.3-0.1-2.9-2-3.1-3.4c-0.5-2.5-0.2-3.7,0.7-7.5c0.5-2.3,1.5-5.7,2.9-10s3.3-9.6,5.3-14.8c11-7,21.6-14.8,29.7-21.5
	c8.2-6.7,13.8-12.5,19.7-19.4c5.8-6.9,11.8-15,17.3-23.5l-6.5,0.7c-4.2,6-8.8,11.8-14.1,17.8s-11.5,12.2-18.3,18.2
	s-14.1,11.8-21.7,17.1c4.8-9.1,10-18.1,15.4-26.9c5.4-8.7,11-17.3,16.6-25.1s11.1-15,16.1-20.9s9.4-10.6,13-14.1s6.4-5.8,8.6-7.4
	c2.2-1.5,3.7-2.4,4.9-2.9s2-0.7,2.8-0.7c0.4,0,0.8,0.1,1.1,0.4c1.5,1.3,1.3,2.1,1,3.6c0,0.4-0.2,0.9-0.8,2.6
	c-0.7,1.7-1.9,4.6-3.2,7.4l5.9-0.7c1.1-1.7,2.1-3.5,2.7-4.7c0.6-1.2,0.8-1.9,1-2.6s0.3-1.6,0.4-2.5c0.2-2.9-0.3-5.6-2.9-8
	c-0.7-0.6-1.5-1.1-2.4-1.4c-3-0.9-5.7-0.4-9.2,0.5c-2.4,0.7-5.2,1.8-8.5,3.6c-3.3,1.8-7.2,4.3-11.8,8c-4.6,3.7-10.1,8.6-16.3,15.1
	S591.2,156,584,165.4c-7.1,9.4-14.5,20-21.2,31c-6.7,10.9-12.9,22.1-18.4,33.6h-7.7c1.5-3.2,3-6.5,3.9-8.8c0.9-2.4,1.3-3.8,1.6-5.2
	c0.9-3.9,1.1-8.3-0.4-11.8c-0.4-1.1-1-2-1.7-2.8c-2.6-2.9-4.8-3.5-7.9-3.6c-1.2,0-2.7,0.2-4.5,0.7c-1.7,0.4-3.7,1.1-5.9,2.2
	c-2.2,1.1-4.7,2.5-7.6,4.5c-2.9,2-6,4.6-9.4,7.8s-6.9,7-10.2,11.1c-6.8,8.5-12.3,17.6-15.4,24.6c-1.6,3.6-2.7,6.7-3.5,9.5
	s-1.2,5.2-1.4,7.2c-0.2,2.1-0.1,3.8,0.1,5.4s0.7,3,1.3,4.2c0.6,1.2,1.4,2.3,2.4,3.3c1,0.9,2.1,1.6,3.4,2.1c1.3,0.5,2.7,0.7,4.2,0.7
	c3,0,6-0.8,9.7-2.6c1.9-1,4-2.3,6.4-4.1c2.4-1.9,5.1-4.2,8.2-7.4c3.1-3.2,6.6-7.3,10.7-12.6c4-5.3,8.6-12,12.8-18.8h7.7
	c-2.6,6.7-5,13.4-6.4,17.7c-1.4,4.3-1.8,6.1-2.1,7.8c-0.6,3.3-1,6.5-0.7,9.3c0.2,1.3,0.4,2.4,0.8,3.5c0.4,1.1,0.9,2,1.5,2.9
	c0.6,0.8,1.3,1.6,2.2,2.2s1.8,1.1,2.9,1.5c1.1,0.3,2.3,0.5,3.6,0.5c4.3,0,8.4-1.5,13.5-5c1.9-1.3,4.1-3.1,6.7-5.5
	c2.6-2.5,5.6-5.7,8.5-9.1c-0.2,2.1-0.3,4.2-0.2,6c0,1.7,0.2,3.1,0.4,4.2s0.4,2,0.7,2.8s0.6,1.4,0.9,2c0.7,1.2,1.4,1.9,2.2,2.5
	c1.6,1,2.9,1.4,5,1.3c0.9,0,1.9-0.1,3-0.3c2.2-0.4,4.3-1.2,6.9-2.8c1.4-0.8,2.9-1.9,4.9-3.7c2.1-1.8,4.7-4.4,7.3-7.1
	c-0.2,1.9-0.2,3.8-0.2,5.3s0.2,2.5,0.3,3.2c0.1,0.8,0.3,1.5,0.5,2c0.5,1.6,2.2,3.3,3.5,3.6c4.3,1.1,7.8,0.2,12.5-2.1
	c1.9-1,4-2.3,6.3-4c2.3-1.8,4.9-4.1,7.8-7.2c2.9-3.1,6.1-6.9,9.5-11.7s7.1-10.5,10.4-16.4L649.7,240z M522.6,244.6
	c-2.1,3-4.3,5.9-6.4,8.3c-2.1,2.5-4.1,4.6-5.8,6.2s-3.2,2.8-4.3,3.6s-2.1,1.2-2.8,1.5s-1.2,0.4-1.8,0.4c-1.6,0-3.2-0.7-4.5-2.5
	c-0.4-0.6-0.8-1.2-1-2c-0.6-1.8-0.8-3.3-0.6-5.6c0.1-1.3,0.4-3,0.8-4.8c0.5-1.8,1.1-3.7,1.9-5.6c2.9-6.7,8.2-13.9,15.3-20
	c0.7,1.6,1.6,3.1,3,4.6c0.6,0.7,1.4,1.4,2.3,2.1c0.9,0.7,2.1,1.4,3.7,2.2c1.6,0.8,3.8,1.6,6,2.3
	C526.8,238.4,524.7,241.6,522.6,244.6 M536.2,214.8c-0.1,1-0.2,2-0.4,3s-0.5,2-1.4,4c-0.9,2.1-2.4,5.2-4,8.4
	c-1.8-0.6-3.5-1.3-4.7-1.9c-1.2-0.6-2-1.1-2.6-1.6s-1.1-1-1.5-1.5c-0.8-1-1.3-1.9-1.7-2.9c-1.5-5.3-0.6-10.7,5.5-14.9
	c1.8-1.1,3.6-1.6,5.3-1.6s2.9,0.1,4.3,1.3c1.3,1.5,1.4,2.7,1.5,4.8C536.3,212.6,536.3,213.7,536.2,214.8 M612.3,248.4
	c-2,3.1-4.2,6-6,8.2s-3.1,3.5-4.3,4.5s-2.1,1.6-3.1,2c-1.9,0.8-4,1-5.4-0.2c-1.1-1.4-1-2.4-0.8-4.4c0.1-0.9,0.3-2.1,0.6-3.4
	c0.3-1.4,0.7-2.9,1.4-4.6c0.6-1.7,1.4-3.6,2.5-5.8s2.5-4.7,4.2-7.5c1.8-2.8,3.9-5.9,6.4-9.1c2.5-3.2,5.3-6.5,8-9.3
	c2.7-2.9,5.3-5.4,7.5-7.2c2.2-1.9,3.9-3.1,5.3-4c1.4-0.8,2.3-1.3,3-1.5c0.7-0.3,1.3-0.4,1.8-0.4c1,0,1.7,0,2.5,0.5
	c1.1,1,0.5,2.2,0.1,3.5c-0.2,0.8-0.6,1.8-1.2,3c-0.6,1.2-1.4,2.7-2.3,4.1L612.3,248.4z M484.6,220.9c0.9-3.6,1.5-6.9,1.8-10.2
	c0.2-2.5,0-5-0.6-6.9c-0.3-0.9-0.7-1.6-1.1-2.2c-1.1-1.6-2.2-2.3-3.6-3c-0.8-0.4-1.7-0.7-2.8-0.8c-1.1-0.2-2.4-0.3-3.8-0.3
	c-1.5,0-3.1,0.2-4.7,0.4c-6.5,1.2-13.4,4.8-20.6,12.7c-1.8,2.1-3.7,4.4-5.5,7.1c-1.8,2.7-3.5,5.7-5.2,9.1c-1.6,3.3-3.2,6.9-4.5,10.7
	s-2.4,7.8-3.2,11.8c3.7-3.1,7.5-6.1,10.2-8.1s4.4-3,6.6-4.2s5-2.6,7.8-3.8c1-4.4,2.5-8.9,4.3-12.7c0.8-1.8,1.7-3.3,2.5-4.7
	c0.8-1.3,1.7-2.4,2.5-3.4c2.3-2.7,4.4-4.2,6.5-5.1c3.1-1,5.5-1.5,8.1,1c1.1,1.4,1.4,2.5,1.5,4c0,5.3-1.2,10.1-3.2,15.6
	c-0.9,2.4-2.1,5-3.5,7.6s-3.1,5.4-5.1,8.2c-4.1,5.7-9.8,11.9-16,16.8c-5.9,4.7-12.1,8.1-16.3,9.5c-2.1,0.6-3.7,0.9-5.1,0.9
	c-1.5,0-2.8-0.2-4.2-0.6c-2.6-0.8-5.4-2.6-7.5-5.3c-1-1.3-1.9-2.8-2.6-4.3c-1.4-3.2-1.8-6.3-1.5-9.4c0.4-3.6,1.3-7.1,3.6-13.2
	c2.3-6.1,6-14.8,11.1-24.5c5-9.7,11.3-20.4,17.4-29.8c6.1-9.3,12-17.3,17.2-23.7c5.3-6.5,10-11.6,14.2-15.7
	c4.2-4.1,7.9-7.3,11.3-9.9c3.3-2.5,6.3-4.4,9-6c2.7-1.5,5.1-2.6,7.4-3.5c5.9-2.3,11.3-2.5,17.3-2.4c-4.7,2.7-9.2,5.7-13.2,8.9
	c-8.1,6.3-14.1,13-18,18.7c-2,2.9-3.5,5.5-4.7,8s-2,4.8-2.6,7s-1,4.3-1.2,5.9c-0.2,1.6-0.1,2.8,0,3.8c0.1,1.1,0.4,1.9,0.7,2.7
	c0.4,0.8,0.8,1.5,1.3,2.1s1.2,1.1,1.9,1.6c0.7,0.4,1.6,0.8,2.6,1c1,0.3,2.2,0.4,3.3,0.4c2.5,0,5-0.6,8-2c1.6-0.8,3.3-1.8,5.2-3.1
	c1.9-1.4,3.9-3.1,6-5.2c2.1-2.1,4.3-4.5,6.3-7.2s4-5.6,5.7-8.5c3.2-5.6,5.5-11.3,6.7-16.2c0.6-2.4,1-4.5,1.2-6.7
	c0-0.5,0.1-1.1,0.1-2.1c0-1.1-0.1-2.7-0.1-3.8c0-1.1,0-1.8,0.1-2.5c5.3-0.1,10.6,0.5,15.5,1.9c4.9,1.3,9.4,3.3,16,7.5
	c6.6,4.1,15.2,10.4,23.4,17.3l15.6-16.1c-5.1-4.4-10.5-8.5-15.3-11.6c-4.7-3.1-8.8-5.2-12.4-6.7c-3.6-1.5-6.8-2.5-9.7-3.1
	c-4.5-1-8.1-1.2-13.1-0.6c-1.7,0.2-3.5,0.5-7,1.5s-8.7,2.7-13.9,4.6c-2.8-1.8-5.6-3.4-7.8-4.4c-2.1-1-3.4-1.3-4.8-1.5
	c-5.2-0.8-9.9-0.3-16.2,1.6c-4.6,1.4-10.1,3.5-16.6,6.9s-14,8.1-21.7,13.9s-15.6,12.6-22.9,19.9c-7.3,7.2-13.9,14.7-19.5,22.1
	c-5.6,7.3-10.3,14.4-14.1,21c-3.8,6.6-6.8,12.8-9.1,18.6c-2.3,5.8-4.1,11.2-5.3,16.3c-1.2,5.1-2,9.7-2.3,13.5
	c-0.4,3.8-0.3,6.7,0.1,9.4c0.4,2.7,1.1,5.4,2.1,7.9s2.4,4.8,4.1,6.9s3.7,4,6,5.5s4.9,2.7,7.6,3.6c5.7,1.6,11,1.7,17.3-0.1
	c3.2-1,6.9-2.5,11-4.7c8.2-4.4,17.4-11.8,24.4-19.9c7.3-8.2,12.5-16.7,15.8-24.2C482.5,228,483.7,224.4,484.6,220.9 M527.1,127.4
	c-0.3,3-0.9,6.1-1.8,9.6c-1,3.6-2.3,7.7-3.9,11.5c-1.6,3.8-3.3,7.3-4.9,10.3s-3.2,5.3-4.7,7.2c-3.7,4.9-6.9,7.6-10.3,9.1
	c-3.5,1.5-6.7,1.7-9.5-0.1c-0.8-0.5-1.6-1.6-1.9-2.7c-0.6-3.5,0.4-6.4,1.9-10.2c0.6-1.5,1.5-3.2,2.6-5c1.1-1.9,2.5-3.9,4.3-6.2
	s4.1-4.9,7-7.6c2.9-2.8,6.3-5.8,10-8.6C519.5,132,523.2,129.6,527.1,127.4 M373.6,212.6c-2.9,3.5-4.2,4.7-5.2,5.6
	c-1,0.9-1.6,1.4-2.2,1.8c-1.2,0.8-2.4,1.1-3.6,1c-0.7,0-1.7-0.8-1.6-2c0.1-0.6-0.2-0.6,0.4-2.1c0.3-0.8,0.9-2.1,2.6-5.4
	c1.6-3.3,4.4-8.5,7.1-13.6l24.2-41.3h-15.4l-2.9,3.5c-2-1.2-4.1-2.3-5.7-3c-1.5-0.7-2.5-0.9-3.5-1c-1-0.2-2.1-0.3-3.3-0.3
	c-3.6,0.1-7.3,1.1-11.7,3.7c-1.7,1-3.5,2.3-5.9,4.2c-2.4,1.8-5.3,4.3-10.7,10.3c-5.4,6.1-13.4,15.8-19.9,23.7
	c-6.6,8-11.8,14-15.5,18s-5.9,5.7-7.8,7c-1.8,1.3-3.2,2.2-4.5,2.8s-2.3,1-3.3,1.3c-2.6,0.6-5.4,0.6-7.3-0.8c-1.2-1-1.5-1.9-1.8-3
	c-0.5-3,0-5.3,0.6-8.2c0.4-1.7,1-3.6,1.8-5.8s1.9-4.7,3.4-7.5c1.5-2.9,3.4-6.1,5.7-9.5c4.6-7,11.2-14.9,16.5-19.9
	c2.6-2.5,4.7-4.2,6.3-5.3c1.6-1.1,2.8-1.8,3.7-2.1c0.9-0.4,1.5-0.5,2.1-0.5c0.8,0,1.6,0.1,2.3,0.7c0.9,0.8,1,1.4,1.2,2.7
	c0,0.6,0,1.4-0.1,2.2c-1.5,0.3-2.9,0.6-4.1,0.9c-1.1,0.4-2,0.7-2.7,1.1c-0.7,0.4-1.3,0.8-1.8,1.1c-3.4,2.6-4.1,5.9-4,8.1
	c0.2,1,0.9,2.1,1.8,2.9c2.7,2.4,6.3,0.8,9.9-3.4c0.6-0.8,1.3-1.7,1.9-2.7c2-3.1,3.2-6.1,3.8-8.6c0.9-4.1,0.8-8.9-4-12.5
	c-1.8-1.2-3.5-1.7-5.8-1.7c-1.2,0-2.8,0.1-4.4,0.5s-3.2,0.9-5.1,1.6c-1.8,0.8-3.9,1.7-7.8,4.8c-3.8,3.1-9.5,8.3-14,12.1
	s-7.8,6.2-10.6,7.9c-2.8,1.7-5.2,2.9-7.5,3.8c-2.3,0.9-4.5,1.6-6.7,2.2c1.3-2.9,2.6-6,3.5-8.5c0.9-2.6,1.6-4.8,2-6.4
	c0.4-1.6,0.6-2.8,0.7-4c0.2-2.3-0.1-4.8-0.8-6.6c-0.3-0.9-0.8-1.7-1.3-2.4c-1.1-1.6-2.4-2.5-3.7-3.1c-3.6-1.5-6.8-1.3-10.6-0.4
	c-2,0.5-4.2,1.3-6.8,2.6c-2.6,1.3-5.5,3-8.6,5.2c-3.2,2.3-6.6,5.1-10,8.5c-3.4,3.3-6.9,7.1-9.9,11c-6.1,7.7-10.7,15.7-13.5,22.4
	c-1.4,3.3-2.4,6.3-3.1,9c-0.7,2.8-1.1,5.3-1.3,7.3s-0.2,3.5,0,4.9c0.1,1.4,0.4,2.6,0.8,3.7c0.4,1.1,0.9,2.1,1.5,2.9
	c0.6,0.9,1.4,1.6,2.2,2.3c0.9,0.6,1.9,1.1,3.1,1.5c1.2,0.3,2.5,0.6,4,0.6s3.1-0.2,4.8-0.6c1.7-0.4,3.5-1,5.4-1.9s3.9-2.1,6.2-3.7
	c2.3-1.6,4.8-3.8,7.8-6.6c2.9-2.9,6.3-6.6,10.6-12c4.2-5.4,9.3-12.6,14.1-19.9l11.8-2.8c-3.5,6.3-6.8,12.8-8.6,17
	c-1.9,4.1-2.4,5.9-2.8,7.8c-1.3,6-1.7,12.2,1.1,16.9c0.8,1.5,1.9,2.7,3.2,3.8c1.3,1.1,2.9,1.9,4.7,2.5c1.8,0.6,3.8,0.9,5.9,0.9
	c5.3,0,10.1-1.2,16.5-5.3c2.2-1.4,4.6-3.1,8-6.2c3.4-3,7.6-7.2,11.7-11.6c-0.4,3.8-0.6,7.7-0.6,10.2s0.2,3.6,0.4,4.5
	c0.2,0.9,0.4,1.6,0.6,2.2c0.2,0.6,0.5,1.1,0.8,1.5c1.1,1.6,2.2,2.2,3.4,2.6c4.3,1.1,7.8,0.5,12.2-1.5c1.6-0.7,3.3-1.7,5.6-3.4
	c2.2-1.6,5.1-4,7.7-6.5c-0.1,1.6-0.2,3.2-0.2,4.3s0.1,1.8,0.3,2.4c0.2,1,0.4,1.7,1,2.5c1.5,1.9,3.2,2.2,5.2,2.5
	c0.8,0.1,1.9,0.2,2.9,0.2c4.1,0,8.3-1.4,13.3-4.7c2.6-1.7,5.4-4,8.5-7c3.1-3.1,6.4-6.9,9.8-11.7c3.5-4.8,7.1-10.5,10.5-16.5
	l-3.2-0.7C380.9,203.7,376.4,209.2,373.6,212.6 M236.9,211.9c-3.2,4.3-4.6,5.7-5.7,6.7s-2,1.8-2.8,2.3c-0.8,0.6-1.5,1-2.2,1.2
	c-3.2,1.4-6.7,1.6-8.9-1.8c-0.7-1.5-0.9-2.7-0.7-4.6c0.1-1.1,0.4-2.4,1-4.3c0.6-1.8,1.5-4.1,3-7s3.6-6.5,6.3-10.4
	c2.7-3.9,6-8.2,9.4-12.3c1.5,2.1,3.2,4.1,4.5,5.5s2.3,2.2,3.8,3.1c1.5,0.9,3.5,1.8,5.6,2.6C245.2,200.4,240.1,207.6,236.9,211.9
	 M258.2,173.7c-0.1,1-0.3,2.1-0.5,3.1c-0.2,1.1-0.5,2-1.3,3.8s-2,4.4-3.3,7c-1.7-0.6-3.3-1.3-4.6-1.9c-1.3-0.7-2.2-1.2-2.9-1.8
	c-0.7-0.5-1.3-1.1-1.8-1.6s-0.8-1-1.2-1.4c-2.2-4-2.1-8.2,2.2-12.3c0.6-0.6,1.3-1.1,2.1-1.7s1.6-1,2.4-1.3c2.5-0.9,4.8-1.9,7,0
	C258.8,168.3,258.3,170.8,258.2,173.7 M346.4,208.5c-1.4,2.2-2.9,4.3-4.2,5.9c-1.3,1.7-2.4,2.9-3.3,3.9s-1.7,1.7-2.4,2.2
	c-1.2,0.9-2.1,1.5-3.1,1.7c-1.5,0.4-3.2,0.1-4.4-1.3c-1.3-1.6-1.4-2.6-1.3-4.4c0.1-0.8,0.3-1.8,0.7-3.2c0.4-1.3,0.9-2.9,1.8-5
	c0.9-2,2.2-4.5,4-7.7c1.8-3.1,4.3-6.9,7.1-10.8c2.8-3.9,6.2-8.1,9.2-11.5s5.8-6.2,7.9-8.2c2.2-2,3.7-3.2,4.9-4
	c1.2-0.8,2-1.2,2.7-1.5c1.2-0.5,2.3-0.5,3.4,0c1.9,1.2,1.1,3.5,0.9,4.6c-0.1,0.5-0.3,0.9-1.1,2.4c-0.9,1.5-2.5,4-4,6.6L346.4,208.5z
	"/>
<path class="st0" d="M642.5,279.6c0.2,0.1,0.6,0.2,1,0.2c0.2,0,0.5-0.1,0.7-0.2c0.4-0.2,0.6-0.5,0.6-1.2c0-1-0.6-1.7-1.7-1.7
	c0,0-0.5,0-0.6,0.1V279.6z M641.2,278.7c0-1-0.1-1.5-0.1-1.9s-0.2-0.5-0.8-0.5c-0.1,0-0.2-0.1-0.2-0.1c0-0.1,0.1-0.2,0.3-0.2h0.4
	c0.1,0,0.7,0.1,0.9,0.1c0.6,0,0.9-0.1,1.5-0.1c1.2,0,2.9,0.2,2.9,1.9c0,0.7-0.2,1.2-1.2,2.1l1.2,1.5c0.9,1.1,1.2,1.2,1.3,1.2
	s0.2,0.1,0.2,0.1c0,0.1-0.1,0.2-0.5,0.2c-0.9,0-1.4,0.1-2.4-1.3l-1-1.3h-1.2v0.6c0,1.4,0.1,1.5,0.1,1.5c0.1,0.1,0.5,0.1,0.7,0.1
	c0.1,0,0.2,0,0.2,0.1s-0.1,0.2-0.3,0.2h-0.3c-0.1,0-0.8-0.1-1.1-0.1c-0.2,0-0.9,0.1-1,0.1h-0.4c-0.1,0-0.3,0-0.3-0.1
	s0.1-0.2,0.3-0.2c0.6,0,0.6,0,0.7-0.4c0-0.3,0.1-0.8,0.1-1.9L641.2,278.7L641.2,278.7z M648.8,279.7c0-3-2.2-5-5.2-5s-5.2,2-5.2,5
	c0,2.9,2.2,5.1,5.3,5.1C646.5,284.8,648.8,282.6,648.8,279.7 M637.2,279.8c0-3.5,2.7-6.1,6.4-6.1s6.4,2.6,6.4,6.1c0,3.4-2.7,6-6.4,6
	S637.2,283.2,637.2,279.8"/>
<path class="st1" d="M309.6,110.5c0,5.2,0,9.4,0.3,11.6c0.2,1.6,0.4,2.6,2.1,2.8c0.8,0.1,2,0.3,2.5,0.3c0.4,0,0.4,0.3,0.4,0.4
	c0,0.3-0.3,0.4-0.9,0.4c-3,0-6.6-0.2-6.9-0.2s-4.1,0.2-5.8,0.2c-0.6,0-0.9-0.1-0.9-0.4c0-0.2,0.1-0.4,0.4-0.4c0.5,0,1.1-0.1,1.6-0.3
	c1.1-0.3,1.5-1.3,1.6-2.9c0.3-2.2,0.3-6.4,0.3-11.6V88l-8,0.1c-3.5,0.1-4.8,0.4-5.6,1.7c-0.6,1-0.7,1.3-0.9,1.7
	c-0.1,0.4-0.3,0.5-0.6,0.5c-0.1,0-0.4-0.1-0.4-0.4c0-0.6,1.1-5.4,1.2-5.8c0.1-0.3,0.4-1,0.6-1c0.4,0,1,0.4,2.5,0.6
	c1.6,0.2,3.7,0.3,4.4,0.3h20.9c1.8,0,3.1-0.1,4-0.3c0.8-0.1,1.3-0.3,1.6-0.3s0.3,0.3,0.3,0.6c0,1.6-0.2,5.5-0.2,6.1
	c0,0.4-0.3,0.7-0.5,0.7s-0.4-0.2-0.4-1l-0.1-0.6c-0.2-1.6-1.4-2.8-6.7-3l-6.9-0.1v22.7H309.6z"/>
<path class="st1" d="M369.8,110.5c0,5.2,0.1,9.4,0.3,11.6c0.2,1.6,0.3,2.6,2,2.8c0.8,0.1,2,0.3,2.5,0.3c0.4,0,0.5,0.3,0.5,0.4
	c0,0.3-0.3,0.4-1,0.4c-3,0-6.6-0.2-6.9-0.2s-3.8,0.2-5.5,0.2c-0.6,0-0.9-0.1-0.9-0.4c0-0.2,0.1-0.4,0.4-0.4c0.5,0,1.1-0.1,1.6-0.3
	c1.1-0.3,1.3-1.3,1.5-2.9c0.3-2.2,0.3-6.2,0.3-11.4v-5.4c0-0.2-0.1-0.3-0.3-0.3h-23.2c-0.2,0-0.3,0.1-0.3,0.3v5.4
	c0,5.2,0,9.3,0.3,11.5c0.2,1.6,0.4,2.6,2,2.8c0.8,0.1,2,0.3,2.5,0.3c0.3,0,0.4,0.3,0.4,0.4c0,0.3-0.3,0.4-0.9,0.4
	c-3.1,0-6.6-0.2-6.9-0.2s-3.8,0.2-5.6,0.2c-0.6,0-0.9-0.1-0.9-0.4c0-0.2,0.1-0.4,0.4-0.4c0.5,0,1.2-0.1,1.7-0.3
	c1.1-0.3,1.2-1.3,1.5-2.8c0.3-2.2,0.3-6.4,0.3-11.6V101c0-8.3,0-9.8-0.1-11.5c-0.1-1.8-0.4-2.7-2.3-3c-0.4-0.1-1.4-0.1-1.9-0.1
	c-0.2,0-0.4-0.3-0.4-0.4c0-0.3,0.3-0.4,0.9-0.4c2.5,0,6.1,0.1,6.4,0.1s3.8-0.1,5.5-0.1c0.6,0,0.9,0.1,0.9,0.4c0,0.2-0.3,0.4-0.4,0.4
	c-0.4,0-0.8,0-1.4,0.1c-1.5,0.3-1.8,1.1-2,3c-0.1,1.7-0.1,3.3-0.1,11.7v1.1c0,0.3,0.1,0.3,0.3,0.3h23.2c0.2,0,0.3,0,0.3-0.3v-1.1
	c0-8.3-0.1-10-0.1-11.7c-0.1-1.8-0.4-2.7-2.2-3c-0.4-0.1-1.4-0.1-1.9-0.1c-0.3,0-0.4-0.3-0.4-0.4c0-0.3,0.3-0.4,0.9-0.4
	c2.5,0,6,0.1,6.3,0.1s3.8-0.1,5.5-0.1c0.6,0,0.9,0.1,0.9,0.4c0,0.2-0.3,0.4-0.5,0.4c-0.4,0-0.7,0-1.4,0.1c-1.5,0.3-1.8,1.1-1.9,3
	c-0.1,1.7-0.1,3.2-0.1,11.5v9.5H369.8z"/>
<path class="st1" d="M388.1,101.1c0-8.3,0-9.8-0.1-11.5c-0.1-1.8-0.4-2.7-2.3-3c-0.4-0.1-1.4-0.1-1.9-0.1c-0.2,0-0.4-0.3-0.4-0.4
	c0-0.3,0.3-0.4,0.9-0.4c2.5,0,6.1,0.1,6.4,0.1c0.4,0,12,0.1,13.3,0c1.1-0.1,2.1-0.3,2.5-0.3c0.2-0.1,0.5-0.3,0.7-0.3
	s0.3,0.3,0.3,0.5c0,0.4-0.3,1-0.4,2.5c-0.1,0.5-0.2,2.9-0.3,3.5c-0.1,0.3-0.2,0.6-0.5,0.6s-0.4-0.3-0.4-0.7c0-0.4-0.1-1.3-0.3-1.9
	c-0.4-0.9-1-1.2-4-1.6c-1-0.1-7.4-0.2-8-0.2c-0.3,0-0.3,0.2-0.3,0.6v14.6c0,0.4,0,0.6,0.3,0.6c0.7,0,8,0,9.3-0.1s2.1-0.2,2.7-0.8
	c0.4-0.4,0.6-0.7,0.8-0.7c0.2,0,0.3,0.1,0.3,0.4s-0.3,1.2-0.4,3c-0.1,1.1-0.3,3.1-0.3,3.5s-0.1,1-0.5,1c-0.3,0-0.4-0.2-0.4-0.5
	c0-0.5,0-1.1-0.3-1.8c-0.2-0.8-0.7-1.4-2.8-1.6c-1.5-0.2-7.4-0.3-8.4-0.3c-0.3,0-0.4,0.2-0.4,0.4v4.5c0,1.8-0.1,8.1,0,9.1
	c0.1,3.6,1.1,4.3,6.6,4.3c1.5,0,4.1,0,5.6-0.6s2.2-1.6,2.5-3.7c0.1-0.6,0.3-0.8,0.6-0.8s0.4,0.4,0.4,0.8s-0.4,4-0.8,5.2
	c-0.4,1.4-1,1.4-3.1,1.4c-4.2,0-7.4-0.1-9.6-0.2c-2.3-0.1-3.8-0.1-4.6-0.1c-0.1,0-1.2,0-2.4,0.1c-1.1,0.1-2.3,0.1-3.2,0.1
	c-0.6,0-0.9-0.1-0.9-0.4c0-0.2,0.1-0.4,0.4-0.4c0.5,0,1.2-0.2,1.7-0.3c1.1-0.2,1.2-1.3,1.5-2.8c0.3-2.2,0.3-6.4,0.3-11.6v-9.7H388.1
	z"/>
<path class="st1" d="M143.6,336.1c0-8.3,0-9.8-0.1-11.5c-0.1-1.8-0.4-2.7-2.3-3c-0.4-0.1-1.4-0.1-1.9-0.1c-0.2,0-0.4-0.3-0.4-0.4
	c0-0.3,0.2-0.4,0.9-0.4c2.5,0,6,0.1,6.3,0.1c1.1,0,13.1,0.1,14.4,0c1.1-0.1,2-0.1,2.5-0.3c0.3-0.1,0.6-0.3,0.8-0.3
	c0.3,0,0.4,0.3,0.4,0.5c0,0.4-0.3,1-0.4,2.5c-0.1,0.5-0.1,2.9-0.3,3.5c-0.1,0.3-0.3,0.6-0.5,0.6c-0.3,0-0.4-0.3-0.4-0.6
	c0-0.4-0.2-1.3-0.5-2s-1.6-1.6-3.8-1.6l-9.1-0.1c-0.3,0-0.4,0.1-0.4,0.6v14.6c0,0.3,0,0.5,0.4,0.5l7.6-0.1c0.9,0,1.8,0,2.5-0.1
	c1.3-0.1,2.1-0.3,2.6-0.9c0.3-0.3,0.5-0.6,0.7-0.6c0.3,0,0.3,0.2,0.3,0.4c0,0.3-0.4,1.2-0.5,3c-0.1,1.1-0.2,3.2-0.2,3.6
	c0,0.5-0.1,1.1-0.5,1.1c-0.3,0-0.4-0.3-0.4-0.5c-0.1-0.6-0.1-1.3-0.4-2c-0.3-0.8-1.1-1.4-2.8-1.7c-1.4-0.2-8-0.1-8.9-0.1
	c-0.3,0-0.4,0.1-0.4,0.5v4.3c0,5.3,0,9.5,0.3,11.6c0.2,1.6,0.5,2.6,2,2.8c0.8,0.1,2,0.3,2.5,0.3c0.3,0,0.4,0.3,0.4,0.4
	c0,0.3-0.3,0.4-0.9,0.4c-3.1,0-6.7-0.2-6.9-0.2c-0.3,0-3.8,0.2-5.5,0.2c-0.6,0-0.9-0.1-0.9-0.4c0-0.2,0.1-0.4,0.4-0.4
	c0.5,0,1.2-0.2,1.7-0.3c1.1-0.2,1.2-1.3,1.5-2.8c0.3-2.2,0.3-6.4,0.3-11.6v-9.5H143.6z"/>
<path class="st1" d="M204.4,359.6c5,0,15-2.6,15-18.2c0-12.9-7.8-19.6-16.6-19.6c-9.3,0-16,5.8-16,17.5
	C186.9,351.8,194.4,359.6,204.4,359.6 M203.2,319.8c12.5,0,21.9,7.6,21.9,20.1c0,12-8.9,21.9-22.3,21.9c-15.2,0-21.7-11.4-21.7-21.1
	C181.1,332.1,187.8,319.8,203.2,319.8"/>
<path class="st1" d="M245.7,336.1c0-8.3,0-9.8-0.1-11.5s-0.4-2.7-2.3-3c-0.4-0.1-1.4-0.1-1.9-0.1c-0.2,0-0.4-0.3-0.4-0.4
	c0-0.3,0.3-0.4,0.9-0.4c2.5,0,5.9,0.1,6.4,0.1s4-0.1,5.6-0.1c0.6,0,1,0.1,1,0.4c0,0.2-0.3,0.4-0.5,0.4c-0.4,0-0.7,0-1.4,0.1
	c-1.5,0.3-1.8,1.2-1.9,3c-0.1,1.7-0.1,3.2-0.1,11.5v7.5c0,7.8,1.7,11,4.1,13.1c2.7,2.5,5.1,2.9,8.3,2.9c3.4,0,6.7-1.5,8.6-3.8
	c2.6-3.1,3.2-7.5,3.2-13v-6.7c0-8.3-0.1-9.8-0.1-11.5c-0.1-1.7-0.4-2.7-2.2-3c-0.4-0.1-1.4-0.1-1.9-0.1c-0.3,0-0.4-0.3-0.4-0.4
	c0-0.3,0.3-0.4,0.9-0.4c2.5,0,5.7,0.1,6,0.1c0.4,0,3-0.1,4.7-0.1c0.6,0,0.9,0.1,0.9,0.4c0,0.2-0.2,0.4-0.4,0.4c-0.4,0-0.7,0-1.4,0.1
	c-1.5,0.3-1.8,1.2-2,3c-0.1,1.7-0.1,3.2-0.1,11.5v5.7c0,5.8-0.8,12.3-5.2,16.1c-4,3.5-8.3,3.9-11.6,3.9c-1.8,0-7.6-0.1-11.5-3.8
	c-2.7-2.5-4.9-6.3-4.9-14.1v-7.8H245.7z"/>
<path class="st1" d="M307.1,353.8c0.1,4.4,0.6,5.7,2.1,6.1c1,0.3,2.3,0.3,2.8,0.3c0.3,0,0.4,0.2,0.4,0.4c0,0.3-0.4,0.4-1,0.4
	c-3.2,0-5.4-0.2-5.9-0.2s-2.8,0.2-5.4,0.2c-0.6,0-0.9-0.1-0.9-0.4s0.2-0.4,0.4-0.4c0.4,0,1.4-0.1,2.3-0.3c1.4-0.4,1.6-1.8,1.6-6.7
	v-30.7c0-2.1,0.3-2.7,0.8-2.7c0.6,0,1.6,1.1,2.1,1.6c0.9,0.9,9,9.5,17.5,18.3c5.5,5.7,11.4,12.1,13.1,13.8l-0.6-26.9
	c-0.1-3.5-0.4-4.7-2.1-5c-1-0.2-2.3-0.3-2.7-0.3c-0.4,0-0.4-0.3-0.4-0.5c0-0.3,0.4-0.4,1.1-0.4c2.5,0,5.2,0.1,5.8,0.1
	c0.6,0,2.5-0.1,4.7-0.1c0.6,0,1,0.1,1,0.4c0,0.2-0.3,0.5-0.6,0.5c-0.3,0-0.7,0-1.3,0.1c-1.8,0.4-2,1.5-2,4.7l-0.1,31.4
	c0,3.5-0.1,3.8-0.4,3.8c-0.6,0-1.1-0.4-4.2-3.3c-0.6-0.5-8.6-8.4-14.4-14.5c-6.4-6.8-12.7-13.3-14.4-15.2L307.1,353.8z"/>
<path class="st1" d="M371.2,341.9c0,5.7,0,10.7,0.1,11.7c0.1,1.3,0.2,3.3,0.6,3.8c0.7,1,2.7,2.1,9.2,2.1c5.1,0,9.7-1.7,13-4.9
	c2.9-2.7,4.4-7.8,4.4-12.7c0-6.8-3-11.2-5.2-13.4c-5.2-5.3-11.4-6-18-6c-1.1,0-2.8,0.2-3.3,0.4c-0.5,0.2-0.7,0.4-0.7,1.1v17.9H371.2
	z M366.1,336.1c0-8.3,0-9.8-0.1-11.5c-0.1-1.8-0.4-2.7-2.3-3c-0.4-0.1-1.4-0.1-1.9-0.1c-0.2,0-0.4-0.3-0.4-0.4
	c0-0.3,0.2-0.4,0.9-0.4c2.5,0,6.1,0.1,6.4,0.1c0.6,0,4.2-0.1,7.4-0.1c5.6,0,15.7-0.5,22.3,6.1c2.8,2.8,5.4,7.3,5.4,13.6
	c0,6.8-2.9,11.9-6,15.1c-2.4,2.5-7.4,6.2-16.9,6.2c-2.4,0-5.4-0.2-7.8-0.3c-2.4-0.2-4.3-0.3-4.5-0.3c-0.1,0-1.1,0.1-2.3,0.1
	c-1.1,0.1-2.5,0.1-3.3,0.1c-0.6,0-0.9-0.1-0.9-0.4c0-0.2,0.1-0.4,0.4-0.4c0.5,0,1.2-0.1,1.7-0.3c1.1-0.3,1.2-1.3,1.5-2.8
	c0.3-2.2,0.3-6.4,0.3-11.6L366.1,336.1L366.1,336.1z"/>
<path class="st1" d="M441.3,344c0.3,0,0.3-0.1,0.2-0.4l-5.5-14.7c-0.3-0.8-0.6-0.8-0.9,0l-5.2,14.7c-0.1,0.3,0,0.4,0.2,0.4H441.3z
	 M435.1,321.6c0.7-1.8,1-2.1,1.3-2.1c0.6,0,0.8,0.8,1.3,1.9c1,2.3,9.9,24.4,13.3,32.6c2,4.8,3.5,5.5,4.7,5.9
	c0.8,0.3,1.6,0.3,2.2,0.3c0.3,0,0.7,0.1,0.7,0.4s-0.6,0.4-1.3,0.4c-0.8,0-4.9,0-8.8-0.1c-1.1-0.1-2-0.1-2-0.4s0.1-0.3,0.4-0.4
	s0.9-0.6,0.5-1.4l-5-12.3c-0.1-0.3-0.2-0.3-0.5-0.3h-12.8c-0.3,0-0.4,0.1-0.6,0.4l-3.2,8.6c-0.5,1.3-0.8,2.6-0.8,3.6
	c0,1.1,1,1.4,1.9,1.4h0.5c0.4,0,0.6,0.2,0.6,0.4c0,0.3-0.3,0.4-0.8,0.4c-1.3,0-4.4-0.2-5-0.2s-3.3,0.2-5.6,0.2
	c-0.7,0-1.1-0.1-1.1-0.4s0.3-0.4,0.5-0.4c0.4,0,1.2-0.1,1.6-0.1c2.5-0.3,3.6-2.2,4.7-4.9L435.1,321.6z"/>
<path class="st1" d="M484.2,345.5c0,5.2,0,9.4,0.3,11.6c0.2,1.6,0.4,2.6,2.1,2.8c0.8,0.1,2,0.3,2.5,0.3c0.4,0,0.4,0.3,0.4,0.4
	c0,0.3-0.3,0.4-0.9,0.4c-3,0-6.6-0.2-6.9-0.2s-4.1,0.2-5.8,0.2c-0.6,0-0.9-0.1-0.9-0.4c0-0.2,0.1-0.4,0.4-0.4c0.5,0,1.1-0.1,1.6-0.3
	c1.1-0.3,1.5-1.3,1.6-2.9c0.3-2.2,0.3-6.4,0.3-11.6V323l-8,0.1c-3.5,0.1-4.8,0.4-5.6,1.7c-0.6,1-0.7,1.3-0.9,1.7
	c-0.1,0.4-0.3,0.5-0.6,0.5c-0.1,0-0.4-0.1-0.4-0.4c0-0.6,1.1-5.4,1.2-5.8c0.1-0.3,0.4-1,0.6-1c0.4,0,1,0.4,2.5,0.6
	c1.6,0.2,3.7,0.3,4.4,0.3H493c1.8,0,3.1-0.1,4-0.3c0.8-0.1,1.3-0.3,1.6-0.3s0.3,0.3,0.3,0.6c0,1.6-0.2,5.5-0.2,6.1
	c0,0.4-0.3,0.7-0.5,0.7s-0.4-0.2-0.4-1l-0.1-0.6c-0.2-1.6-1.4-2.8-6.7-3l-6.9-0.1v22.7H484.2z"/>
<path class="st1" d="M525.7,345.5c0,5.2,0,9.4,0.3,11.6c0.2,1.6,0.4,2.6,2,2.8c0.8,0.1,2,0.3,2.5,0.3c0.3,0,0.4,0.3,0.4,0.4
	c0,0.3-0.3,0.4-0.9,0.4c-3.1,0-6.7-0.2-6.9-0.2c-0.3,0-3.8,0.2-5.5,0.2c-0.6,0-0.9-0.1-0.9-0.4c0-0.2,0.1-0.4,0.4-0.4
	c0.5,0,1.2-0.1,1.7-0.3c1.1-0.3,1.2-1.3,1.4-2.8c0.3-2.2,0.3-6.4,0.3-11.6V336c0-8.3,0-9.8-0.1-11.5c-0.1-1.8-0.6-2.6-1.8-2.9
	c-0.6-0.1-1.3-0.2-1.7-0.2c-0.2,0-0.4-0.3-0.4-0.4c0-0.3,0.3-0.4,0.9-0.4c1.8,0,5.3,0.1,5.6,0.1s3.8-0.1,5.6-0.1
	c0.6,0,0.9,0.1,0.9,0.4c0,0.2-0.3,0.4-0.4,0.4c-0.4,0-0.7,0-1.4,0.1c-1.5,0.3-1.8,1.1-2,3c-0.1,1.7-0.1,3.2-0.1,11.5v9.5H525.7z"/>
<path class="st1" d="M571.4,359.6c5,0,15-2.6,15-18.2c0-12.9-7.8-19.6-16.6-19.6c-9.3,0-16,5.8-16,17.5
	C553.8,351.8,561.3,359.6,571.4,359.6 M570.1,319.8c12.5,0,22,7.6,22,20.1c0,12-8.9,21.9-22.3,21.9c-15.2,0-21.7-11.4-21.7-21.1
	C548.1,332.1,554.8,319.8,570.1,319.8"/>
<path class="st1" d="M616.1,353.8c0.1,4.4,0.6,5.7,2.1,6.1c1,0.3,2.3,0.3,2.8,0.3c0.3,0,0.4,0.2,0.4,0.4c0,0.3-0.4,0.4-1,0.4
	c-3.2,0-5.4-0.2-5.9-0.2s-2.8,0.2-5.4,0.2c-0.6,0-0.9-0.1-0.9-0.4s0.2-0.4,0.4-0.4c0.4,0,1.4-0.1,2.3-0.3c1.4-0.4,1.6-1.8,1.6-6.7
	v-30.7c0-2.1,0.3-2.7,0.8-2.7c0.6,0,1.6,1.1,2.2,1.6c0.9,0.9,9,9.5,17.5,18.3c5.5,5.7,11.4,12.1,13.1,13.8l-0.6-26.9
	c-0.1-3.5-0.4-4.7-2.1-5c-1-0.2-2.3-0.3-2.7-0.3s-0.4-0.3-0.4-0.5c0-0.3,0.4-0.4,1.1-0.4c2.5,0,5.2,0.1,5.8,0.1s2.5-0.1,4.7-0.1
	c0.6,0,1,0.1,1,0.4c0,0.2-0.3,0.5-0.6,0.5s-0.7,0-1.3,0.1c-1.8,0.4-2,1.5-2,4.7l-0.1,31.4c0,3.5-0.1,3.8-0.4,3.8
	c-0.6,0-1.1-0.4-4.2-3.3c-0.6-0.5-8.6-8.4-14.4-14.5c-6.4-6.8-12.7-13.3-14.4-15.2L616.1,353.8z"/>
<path class="st0" d="M105.2,307.5c0-0.7,0-1.5,0-2.2c0.2-3.8,0.5-6.6,0.5-7.6c0-2.7,4.6-30.9,5.3-37.4s-1-8.1-1-8.1
	c4.3-24-3.7-49.8-3.7-49.8c2.9-2.5-3.1-15.3-3.1-15.3c-4.5-10.6-9.8-25.6-9.8-25.6l0,0c-0.9-3.4-2.1-8.3-3-13.8
	c-0.8-8.3-0.9-16.8-0.9-19.5c0-2.1,2.7-2,2.7-3.9c0-2.2-2.7-7.7-2.9-8.2c-0.1-0.4,0-1.3,0.2-1.9c0.3-0.7,0.8-1.1,0.8-1.1
	c0-2.6-2-5.2-5-5.2H61.9c-3,0-5,2.6-5,5.2c0,0,0.5,0.4,0.8,1.1c0.3,0.6,0.3,1.5,0.2,1.9c-0.1,0.6-2.8,6-2.8,8.2
	c0,1.9,2.7,1.8,2.7,3.9c0,2.7-0.1,11.1-0.8,19.4c-0.9,5.5-2.1,10.4-3,13.8l0,0c0,0-5.4,15.1-9.8,25.6c0,0-6,12.8-3.1,15.3
	c0,0-8,25.8-3.7,49.8c0,0-1.6,1.5-1,8.1c0.7,6.5,5.3,34.7,5.3,37.4c0,1,0.4,3.9,0.5,7.7c0,0.7,0,1.4,0,2.1c0,17.1-7.1,25.4-7.1,36.5
	c0,14.7,9.3,22.4,38.7,22.4c29.3,0,38.6-7.7,38.6-22.4C112.3,332.9,105.2,324.6,105.2,307.5"/>
</svg>
