<?xml version="1.0" encoding="utf-8"?>
<!-- Generator: Adobe Illustrator 25.0.1, SVG Export Plug-In . SVG Version: 6.00 Build 0)  -->
<svg version="1.1" id="Layer_1" xmlns="http://www.w3.org/2000/svg" xmlns:xlink="http://www.w3.org/1999/xlink" x="0px" y="0px"
	 viewBox="0 0 85.1 15.9" style="enable-background:new 0 0 85.1 15.9;" xml:space="preserve">
<style type="text/css">
	.st0{fill:#D1232A;}
	.st1{fill:#FFFFFF;}
</style>
<path class="st0" d="M43.2,10.6c-0.4-0.1-0.8-0.1-1.2-0.1c-0.4,0-0.8,0-1.5,0.2c-0.7,0.2-1.7,0.4-2.4,0.6c-0.7,0.2-1,0.2-1.3,0.2
	c-0.2,0-0.3,0-0.5,0c-0.1,0-0.3-0.1-0.4-0.1c-0.1,0-0.2-0.1-0.3-0.2c-0.1-0.1-0.1-0.1-0.2-0.2c-0.1-0.1-0.1-0.1-0.1-0.2
	c0-0.1-0.1-0.2-0.1-0.2c0-0.1,0-0.2,0-0.3c0-0.1,0-0.2,0-0.3c0-0.2,0.1-0.3,0.1-0.6c0.1-0.2,0.2-0.5,0.3-0.9
	c0.2-0.4,0.4-0.8,0.6-1.2c0.3-0.4,0.5-0.8,0.8-1.2c0.3-0.3,0.5-0.6,0.7-0.8c0.2-0.2,0.4-0.4,0.6-0.5c0.2-0.1,0.3-0.2,0.4-0.3
	c0.1-0.1,0.2-0.1,0.3-0.1c0.1,0,0.2,0,0.3,0c0.1,0,0.1,0,0.1,0c0,0,0,0.1,0,0.1c0,0,0,0.1,0,0.1c-0.1,0.1-0.3,0.2-0.4,0.2
	c-0.1,0-0.1,0.1-0.1,0.1c-0.1,0.1-0.1,0.2-0.1,0.3c0,0.1,0.1,0.2,0.1,0.2c0.2,0.1,0.3,0,0.5-0.2c0,0,0.1-0.1,0.1-0.2
	c0-0.1,0.1-0.1,0.1-0.2c0.1-0.2,0.1-0.5,0-0.7c0,0-0.1-0.1-0.1-0.1c0,0-0.1-0.1-0.2-0.1c-0.1,0-0.1,0-0.3,0c-0.1,0-0.3,0-0.4,0.1
	c-0.2,0-0.4,0.1-0.6,0.2c-0.2,0.1-0.5,0.2-0.7,0.4c-0.3,0.2-0.6,0.4-0.9,0.7c-0.3,0.3-0.6,0.6-0.9,0.9c-0.6,0.7-1.1,1.4-1.3,2
	c-0.1,0.3-0.2,0.6-0.3,0.8c-0.1,0.2-0.1,0.4-0.1,0.6c0,0.3,0,0.5,0,0.8c0,0.1,0,0.2,0.1,0.3c0,0.1,0.1,0.2,0.1,0.3
	c0,0.1,0.1,0.2,0.2,0.2c0.1,0.1,0.1,0.1,0.2,0.2c0.1,0.1,0.2,0.1,0.3,0.2c0.1,0,0.3,0.1,0.4,0.1c0.2,0,0.4,0,0.6,0
	c0.3,0,0.7,0,1.3-0.1c0.6-0.1,1.4-0.3,2-0.5c0.6-0.1,0.9-0.2,1.3-0.1c0.2,0,0.4,0,0.6,0c0.2,0,0.3,0.1,0.4,0.1
	c0.1,0.1,0.2,0.1,0.4,0.2c0.1,0.1,0.3,0.2,0.4,0.4c0.4-0.3,0.8-0.4,1.1-0.5c0.1,0,0.3,0,0.4,0c0.1,0,0.1,0,0.2,0
	c0.1,0,0.1,0,0.3,0.1c0.2,0.1,0.5,0.2,0.9,0.3c-0.3-0.3-0.7-0.6-1-0.8C43.8,10.8,43.5,10.6,43.2,10.6 M47.5,6h-0.8l-0.4,0.7H47
	L47.5,6z M58.9,4.7c-0.3,0.2-0.6,0.3-0.9,0.4c-0.3,0.1-0.7,0.1-1.1,0.1l-0.7,0.8c0.1,0,0.1,0,0.2,0c0.1,0,0.2,0,0.3,0
	c0.2,0,0.5,0,0.7-0.1c0.5-0.1,1.1-0.4,1.6-0.8c0.2-0.2,0.4-0.4,0.6-0.6c0.2-0.2,0.3-0.4,0.4-0.6C59.5,4.3,59.2,4.5,58.9,4.7 M58,9.9
	c-0.1,0.2-0.3,0.4-0.4,0.5c-0.1,0.1-0.2,0.2-0.3,0.3c-0.1,0.1-0.1,0.1-0.2,0.2c0,0-0.1,0.1-0.1,0.1c-0.1,0-0.1,0-0.2,0
	c-0.1,0-0.1-0.1-0.1-0.1c0,0,0,0,0.1-0.1c0.1-0.1,0.2-0.3,0.3-0.5l1.3-2.3h-0.7l-0.2,0.2C57.5,8,57.5,8,57.4,8c-0.1,0-0.1,0-0.1,0
	c0,0-0.1,0-0.1,0c-0.2,0-0.4,0.1-0.7,0.2c-0.1,0-0.1,0.1-0.2,0.2c-0.1,0.1-0.2,0.2-0.3,0.3c-0.1,0.1-0.3,0.2-0.5,0.5
	c-0.2,0.3-0.6,0.8-0.8,1.1c-0.2,0.3-0.4,0.5-0.5,0.6c-0.1,0.1-0.2,0.2-0.2,0.2c0,0-0.1,0-0.1,0.1c0,0-0.1,0-0.1,0
	c-0.1,0-0.1-0.1-0.1-0.2c0-0.1,0-0.2,0-0.4c0-0.1,0.1-0.3,0.1-0.5c0.1-0.2,0.2-0.4,0.2-0.7c0.5-0.3,1-0.7,1.4-1
	C55.7,8,56,7.8,56.3,7.5c0.3-0.3,0.6-0.7,0.8-1.1l-0.3,0c-0.2,0.3-0.4,0.6-0.7,0.8c-0.3,0.3-0.5,0.6-0.9,0.9c-0.3,0.3-0.7,0.6-1,0.8
	C54.5,8.4,54.7,8,55,7.6c0.3-0.4,0.5-0.8,0.8-1.2c0.3-0.4,0.5-0.7,0.8-1c0.2-0.3,0.4-0.5,0.6-0.7c0.2-0.2,0.3-0.3,0.4-0.3
	c0.1-0.1,0.2-0.1,0.2-0.1c0.1,0,0.1,0,0.1,0c0,0,0,0,0.1,0C58,4.4,58,4.4,58,4.5c0,0,0,0,0,0.1c0,0.1-0.1,0.2-0.1,0.3l0.3,0
	c0.1-0.1,0.1-0.2,0.1-0.2c0-0.1,0-0.1,0-0.1c0,0,0-0.1,0-0.1c0-0.1,0-0.3-0.1-0.4C58.1,4,58,4,58,4c-0.1,0-0.3,0-0.4,0
	c-0.1,0-0.2,0.1-0.4,0.2c-0.2,0.1-0.3,0.2-0.6,0.4c-0.2,0.2-0.5,0.4-0.8,0.7c-0.3,0.3-0.6,0.7-0.9,1.1c-0.3,0.4-0.7,0.9-1,1.5
	c-0.3,0.5-0.6,1-0.9,1.6h-0.4c0.1-0.2,0.1-0.3,0.2-0.4c0-0.1,0.1-0.2,0.1-0.2c0-0.2,0.1-0.4,0-0.6c0-0.1,0-0.1-0.1-0.1
	c-0.1-0.1-0.2-0.2-0.4-0.2c-0.1,0-0.1,0-0.2,0C52.2,8,52.1,8,52,8.1c-0.1,0-0.2,0.1-0.4,0.2c-0.1,0.1-0.3,0.2-0.4,0.4
	C51,8.8,50.9,9,50.7,9.2c-0.3,0.4-0.6,0.8-0.7,1.2c-0.1,0.2-0.1,0.3-0.2,0.4c0,0.1-0.1,0.2-0.1,0.3c0,0.1,0,0.2,0,0.3
	c0,0.1,0,0.1,0.1,0.2c0,0.1,0.1,0.1,0.1,0.2c0,0,0.1,0.1,0.2,0.1c0.1,0,0.1,0,0.2,0c0.1,0,0.3,0,0.5-0.1c0.1,0,0.2-0.1,0.3-0.2
	c0.1-0.1,0.2-0.2,0.4-0.3c0.1-0.2,0.3-0.3,0.5-0.6c0.2-0.2,0.4-0.6,0.6-0.9h0.4c-0.1,0.3-0.2,0.6-0.3,0.8c-0.1,0.2-0.1,0.3-0.1,0.4
	c0,0.2,0,0.3,0,0.4c0,0.1,0,0.1,0,0.2c0,0.1,0,0.1,0.1,0.1c0,0,0.1,0.1,0.1,0.1c0,0,0.1,0.1,0.1,0.1c0.1,0,0.1,0,0.2,0
	c0.2,0,0.4-0.1,0.6-0.2c0.1-0.1,0.2-0.1,0.3-0.3c0.1-0.1,0.3-0.3,0.4-0.4c0,0.1,0,0.2,0,0.3c0,0.1,0,0.1,0,0.2c0,0.1,0,0.1,0,0.1
	c0,0,0,0.1,0,0.1c0,0.1,0.1,0.1,0.1,0.1c0.1,0,0.1,0.1,0.2,0.1c0,0,0.1,0,0.1,0c0.1,0,0.2-0.1,0.3-0.1c0.1,0,0.1-0.1,0.2-0.2
	c0.1-0.1,0.2-0.2,0.3-0.3c0,0.1,0,0.2,0,0.2c0,0.1,0,0.1,0,0.2c0,0,0,0.1,0,0.1c0,0.1,0.1,0.2,0.2,0.2c0.2,0.1,0.4,0,0.6-0.1
	c0.1,0,0.2-0.1,0.3-0.2c0.1-0.1,0.2-0.2,0.4-0.3c0.1-0.1,0.3-0.3,0.4-0.5c0.2-0.2,0.3-0.5,0.5-0.8L58,9.9z M52,10.1
	c-0.1,0.1-0.2,0.3-0.3,0.4c-0.1,0.1-0.2,0.2-0.3,0.3c-0.1,0.1-0.1,0.1-0.2,0.2c-0.1,0-0.1,0.1-0.1,0.1c0,0-0.1,0-0.1,0
	c-0.1,0-0.2,0-0.2-0.1c0,0,0-0.1,0-0.1c0-0.1,0-0.2,0-0.3c0-0.1,0-0.1,0-0.2c0-0.1,0.1-0.2,0.1-0.3c0.1-0.3,0.4-0.7,0.7-0.9
	c0,0.1,0.1,0.1,0.1,0.2c0,0,0.1,0.1,0.1,0.1c0,0,0.1,0.1,0.2,0.1c0.1,0,0.2,0.1,0.3,0.1C52.2,9.8,52.1,10,52,10.1 M52.7,8.7
	c0,0,0,0.1,0,0.1c0,0,0,0.1-0.1,0.2c0,0.1-0.1,0.2-0.2,0.4c-0.1,0-0.2-0.1-0.2-0.1c-0.1,0-0.1-0.1-0.1-0.1c0,0-0.1,0-0.1-0.1
	c0,0-0.1-0.1-0.1-0.1c-0.1-0.2,0-0.5,0.3-0.7c0.1-0.1,0.2-0.1,0.2-0.1c0.1,0,0.1,0,0.2,0.1c0.1,0.1,0.1,0.1,0.1,0.2
	C52.7,8.6,52.7,8.7,52.7,8.7 M56.2,10.3c-0.1,0.1-0.2,0.3-0.3,0.4c-0.1,0.1-0.1,0.2-0.2,0.2c-0.1,0-0.1,0.1-0.1,0.1
	c-0.1,0-0.2,0-0.3,0c-0.1-0.1,0-0.1,0-0.2c0,0,0-0.1,0-0.2c0-0.1,0-0.1,0.1-0.2c0-0.1,0.1-0.2,0.1-0.3c0.1-0.1,0.1-0.2,0.2-0.4
	c0.1-0.1,0.2-0.3,0.3-0.4c0.1-0.1,0.2-0.3,0.4-0.4c0.1-0.1,0.2-0.3,0.4-0.3c0.1-0.1,0.2-0.1,0.2-0.2c0.1,0,0.1-0.1,0.1-0.1
	c0,0,0.1,0,0.1,0c0,0,0.1,0,0.1,0c0.1,0,0,0.1,0,0.2c0,0,0,0.1-0.1,0.1c0,0.1-0.1,0.1-0.1,0.2L56.2,10.3z M50.2,9
	c0-0.2,0.1-0.3,0.1-0.5c0-0.1,0-0.2,0-0.3c0,0,0-0.1-0.1-0.1C50.2,8,50.1,8,50.1,8c0,0-0.1,0-0.1,0c-0.1,0-0.1,0-0.2,0
	c-0.1,0-0.1,0-0.2,0c-0.3,0.1-0.6,0.2-1,0.6c-0.1,0.1-0.2,0.2-0.3,0.3c-0.1,0.1-0.2,0.3-0.2,0.4c-0.1,0.2-0.1,0.3-0.2,0.5
	c-0.1,0.2-0.1,0.4-0.2,0.6c0.2-0.1,0.4-0.3,0.5-0.4c0.1-0.1,0.2-0.1,0.3-0.2c0.1-0.1,0.2-0.1,0.4-0.2c0-0.2,0.1-0.4,0.2-0.6
	c0-0.1,0.1-0.2,0.1-0.2c0-0.1,0.1-0.1,0.1-0.2c0.1-0.1,0.2-0.2,0.3-0.2c0.1,0,0.3-0.1,0.4,0c0.1,0.1,0.1,0.1,0.1,0.2
	c0,0.2-0.1,0.5-0.1,0.7c0,0.1-0.1,0.2-0.2,0.4c-0.1,0.1-0.1,0.3-0.2,0.4c-0.2,0.3-0.5,0.6-0.8,0.8c-0.3,0.2-0.6,0.4-0.8,0.4
	c-0.1,0-0.2,0-0.2,0c-0.1,0-0.1,0-0.2,0c-0.1,0-0.3-0.1-0.4-0.2c0-0.1-0.1-0.1-0.1-0.2C47,10.7,47,10.6,47,10.4
	c0-0.2,0.1-0.3,0.2-0.6c0.1-0.3,0.3-0.7,0.5-1.1c0.2-0.5,0.5-1,0.8-1.4c0.3-0.4,0.6-0.8,0.8-1.1c0.2-0.3,0.5-0.5,0.7-0.7
	c0.2-0.2,0.4-0.3,0.5-0.5c0.2-0.1,0.3-0.2,0.4-0.3c0.1-0.1,0.2-0.1,0.3-0.2c0.3-0.1,0.5-0.1,0.8-0.1c-0.2,0.1-0.4,0.3-0.6,0.4
	c-0.4,0.3-0.7,0.6-0.8,0.9c-0.1,0.1-0.2,0.3-0.2,0.4c-0.1,0.1-0.1,0.2-0.1,0.3c0,0.1,0,0.2-0.1,0.3c0,0.1,0,0.1,0,0.2
	c0,0,0,0.1,0,0.1c0,0,0,0.1,0.1,0.1c0,0,0.1,0.1,0.1,0.1c0,0,0.1,0,0.1,0c0,0,0.1,0,0.2,0c0.1,0,0.2,0,0.4-0.1
	c0.1,0,0.2-0.1,0.2-0.1c0.1-0.1,0.2-0.1,0.3-0.2c0.1-0.1,0.2-0.2,0.3-0.3C52,6.3,52.1,6.1,52.2,6c0.2-0.3,0.3-0.5,0.3-0.8
	c0-0.1,0-0.2,0.1-0.3c0,0,0-0.1,0-0.1c0-0.1,0-0.1,0-0.2c0-0.1,0-0.1,0-0.1c0.3,0,0.5,0,0.7,0.1C53.5,4.7,53.7,4.8,54,5
	c0.3,0.2,0.7,0.5,1.1,0.8L55.8,5c-0.2-0.2-0.5-0.4-0.7-0.5c-0.2-0.1-0.4-0.2-0.6-0.3C54.4,4.1,54.2,4,54.1,4c-0.2,0-0.4-0.1-0.6,0
	c-0.1,0-0.2,0-0.3,0.1c-0.2,0-0.4,0.1-0.6,0.2c-0.1-0.1-0.3-0.2-0.4-0.2C52,4,52,4,51.9,4c-0.2,0-0.5,0-0.8,0.1
	c-0.2,0.1-0.5,0.2-0.8,0.3c-0.3,0.2-0.7,0.4-1,0.6C49,5.3,48.6,5.6,48.3,6c-0.3,0.3-0.6,0.7-0.9,1c-0.3,0.3-0.5,0.7-0.7,1
	c-0.2,0.3-0.3,0.6-0.4,0.9c-0.1,0.3-0.2,0.5-0.2,0.8c-0.1,0.2-0.1,0.5-0.1,0.6c0,0.2,0,0.3,0,0.4c0,0.1,0,0.3,0.1,0.4
	c0,0.1,0.1,0.2,0.2,0.3c0.1,0.1,0.2,0.2,0.3,0.3c0.1,0.1,0.2,0.1,0.4,0.2c0.3,0.1,0.5,0.1,0.8,0c0.2,0,0.3-0.1,0.5-0.2
	c0.4-0.2,0.8-0.6,1.1-0.9c0.3-0.4,0.6-0.8,0.7-1.1C50.1,9.3,50.2,9.2,50.2,9 M52.2,4.6c0,0.1,0,0.3-0.1,0.5c0,0.2-0.1,0.4-0.2,0.5
	c-0.1,0.2-0.2,0.3-0.2,0.5c-0.1,0.1-0.2,0.2-0.2,0.3c-0.2,0.2-0.3,0.4-0.5,0.4c-0.2,0.1-0.3,0.1-0.4,0c0,0-0.1-0.1-0.1-0.1
	c0-0.2,0-0.3,0.1-0.5c0-0.1,0.1-0.1,0.1-0.2c0.1-0.1,0.1-0.2,0.2-0.3c0.1-0.1,0.2-0.2,0.3-0.4c0.1-0.1,0.3-0.3,0.5-0.4
	C51.9,4.8,52,4.7,52.2,4.6 M45,8.6c-0.1,0.2-0.2,0.2-0.2,0.3c0,0-0.1,0.1-0.1,0.1c-0.1,0-0.1,0.1-0.2,0c0,0-0.1,0-0.1-0.1
	c0,0,0,0,0-0.1c0,0,0-0.1,0.1-0.3c0.1-0.2,0.2-0.4,0.3-0.6L46.1,6h-0.7l-0.1,0.2C45.1,6.1,45,6,44.9,6c-0.1,0-0.1,0-0.2,0
	c0,0-0.1,0-0.2,0c-0.2,0-0.3,0.1-0.5,0.2c-0.1,0-0.2,0.1-0.3,0.2c-0.1,0.1-0.2,0.2-0.5,0.5c-0.3,0.3-0.6,0.7-0.9,1.1
	c-0.3,0.4-0.6,0.7-0.7,0.8C41.5,9,41.3,9,41.3,9.1c-0.1,0.1-0.2,0.1-0.2,0.1c-0.1,0-0.1,0-0.2,0.1c-0.1,0-0.3,0-0.3,0
	c-0.1,0-0.1-0.1-0.1-0.1c0-0.1,0-0.2,0-0.4c0-0.1,0-0.2,0.1-0.3c0-0.1,0.1-0.2,0.2-0.4C40.8,8,40.9,7.8,41,7.7
	c0.2-0.3,0.5-0.7,0.8-0.9c0.1-0.1,0.2-0.2,0.3-0.3c0.1-0.1,0.1-0.1,0.2-0.1c0,0,0.1,0,0.1,0c0,0,0.1,0,0.1,0c0,0,0,0.1,0.1,0.1
	c0,0,0,0.1,0,0.1c-0.1,0-0.1,0-0.2,0c-0.1,0-0.1,0-0.1,0.1c0,0-0.1,0-0.1,0.1c-0.2,0.1-0.2,0.3-0.2,0.4c0,0,0,0.1,0.1,0.1
	c0.1,0.1,0.3,0,0.5-0.2c0,0,0.1-0.1,0.1-0.1c0.1-0.1,0.2-0.3,0.2-0.4c0-0.2,0-0.4-0.2-0.6c-0.1-0.1-0.2-0.1-0.3-0.1
	c-0.1,0-0.1,0-0.2,0C42,6,41.9,6,41.8,6c-0.1,0-0.2,0.1-0.4,0.2c-0.2,0.1-0.4,0.4-0.7,0.6c-0.2,0.2-0.4,0.3-0.5,0.4
	c-0.1,0.1-0.2,0.1-0.3,0.2c-0.1,0-0.2,0.1-0.3,0.1c0.1-0.1,0.1-0.3,0.2-0.4c0-0.1,0.1-0.2,0.1-0.3c0-0.1,0-0.1,0-0.2
	c0-0.1,0-0.2,0-0.3c0,0,0-0.1-0.1-0.1C39.8,6.1,39.7,6,39.7,6c-0.2-0.1-0.3-0.1-0.5,0c-0.1,0-0.2,0.1-0.3,0.1
	c-0.1,0.1-0.3,0.1-0.4,0.2c-0.1,0.1-0.3,0.2-0.5,0.4c-0.2,0.2-0.3,0.3-0.5,0.5c-0.3,0.4-0.5,0.7-0.6,1c-0.1,0.2-0.1,0.3-0.1,0.4
	c0,0.1-0.1,0.2-0.1,0.3c0,0.1,0,0.2,0,0.2c0,0.1,0,0.1,0,0.2c0,0.1,0,0.1,0.1,0.1c0,0,0.1,0.1,0.1,0.1c0,0,0.1,0.1,0.1,0.1
	c0.1,0,0.1,0,0.2,0c0.1,0,0.1,0,0.2,0c0.1,0,0.2,0,0.3-0.1c0.1,0,0.2-0.1,0.3-0.2c0.1-0.1,0.2-0.2,0.4-0.3c0.1-0.1,0.3-0.3,0.5-0.6
	c0.2-0.3,0.4-0.6,0.7-0.9l0.6-0.1c-0.2,0.3-0.3,0.6-0.4,0.8c-0.1,0.2-0.1,0.3-0.1,0.4c-0.1,0.3-0.1,0.6,0.1,0.8
	c0,0.1,0.1,0.1,0.2,0.2c0.1,0.1,0.1,0.1,0.2,0.1c0.1,0,0.2,0,0.3,0c0.3,0,0.5-0.1,0.8-0.2c0.1-0.1,0.2-0.1,0.4-0.3
	c0.2-0.1,0.4-0.3,0.5-0.5c0,0.2,0,0.4,0,0.5c0,0.1,0,0.2,0,0.2c0,0,0,0.1,0,0.1c0,0,0,0.1,0,0.1c0.1,0.1,0.1,0.1,0.2,0.1
	c0.2,0.1,0.4,0,0.6-0.1c0.1,0,0.2-0.1,0.3-0.2c0.1-0.1,0.2-0.2,0.4-0.3c0,0.1,0,0.1,0,0.2c0,0.1,0,0.1,0,0.1c0,0,0,0.1,0,0.1
	c0.1,0.1,0.1,0.1,0.2,0.1c0,0,0.1,0,0.1,0c0.2,0,0.4-0.1,0.6-0.2c0.1-0.1,0.3-0.2,0.4-0.3c0.1-0.1,0.3-0.3,0.5-0.5
	c0.2-0.2,0.3-0.5,0.5-0.8l-0.1,0C45.4,8.2,45.2,8.5,45,8.6 M38.6,8.6c-0.2,0.2-0.2,0.3-0.3,0.3c-0.1,0-0.1,0.1-0.1,0.1
	c0,0-0.1,0-0.1,0.1C38,9.1,37.8,9.1,37.7,9c0-0.1,0-0.1,0-0.2c0-0.1,0-0.1,0-0.2c0-0.1,0.1-0.2,0.1-0.3c0.1-0.1,0.2-0.3,0.3-0.5
	c0.1-0.2,0.3-0.4,0.4-0.6c0.1,0.1,0.1,0.2,0.2,0.3c0.1,0.1,0.1,0.1,0.2,0.1c0.1,0,0.2,0.1,0.3,0.1C39,8,38.8,8.4,38.6,8.6 M39.6,6.8
	c0,0,0,0.1,0,0.1c0,0.1,0,0.1-0.1,0.2c0,0.1-0.1,0.2-0.2,0.3c-0.1,0-0.2-0.1-0.2-0.1c-0.1,0-0.1-0.1-0.1-0.1c0,0-0.1-0.1-0.1-0.1
	c0,0,0,0-0.1-0.1c-0.1-0.2-0.1-0.4,0.1-0.6c0,0,0.1-0.1,0.1-0.1c0,0,0.1,0,0.1-0.1c0.1,0,0.2-0.1,0.3,0C39.7,6.5,39.6,6.7,39.6,6.8
	 M43.8,8.4c-0.1,0.1-0.1,0.2-0.2,0.3c-0.1,0.1-0.1,0.1-0.2,0.2c0,0-0.1,0.1-0.1,0.1c-0.1,0-0.1,0.1-0.1,0.1c-0.1,0-0.1,0-0.2-0.1
	c-0.1-0.1-0.1-0.1-0.1-0.2c0,0,0-0.1,0-0.1c0-0.1,0-0.1,0.1-0.2c0-0.1,0.1-0.2,0.2-0.4c0.1-0.1,0.2-0.3,0.3-0.5
	C43.7,7.4,43.8,7.2,44,7c0.1-0.2,0.3-0.3,0.4-0.4c0.1-0.1,0.2-0.1,0.2-0.2c0.1,0,0.1-0.1,0.1-0.1c0.1,0,0.1,0,0.2,0
	c0.1,0.1,0,0.2,0,0.2c0,0,0,0-0.1,0.1c0,0.1-0.1,0.2-0.2,0.3L43.8,8.4z"/>
<g>
	<path class="st1" d="M60.3,11.5c0,0.1,0,0.1-0.1,0.1c-0.1,0-0.1,0-0.1-0.1V9.9c0-0.1,0-0.1,0.1-0.1s0.1,0,0.1,0.1l1.2,1.4h0V9.9
		c0-0.1,0-0.1,0.1-0.1c0.1,0,0.1,0,0.1,0.1v1.6c0,0.1,0,0.1-0.1,0.1c-0.1,0-0.1,0-0.1-0.1l-1.2-1.5h0V11.5z"/>
	<path class="st1" d="M63.2,10.9c0-0.2-0.2-0.5-0.5-0.5s-0.5,0.2-0.5,0.5H63.2z M62.3,11c0,0.2,0.2,0.5,0.5,0.5
		c0.3,0,0.4-0.2,0.5-0.2c0.1,0,0.1,0,0.1,0.1c0,0.1-0.3,0.3-0.6,0.3c-0.5,0-0.7-0.4-0.7-0.7s0.2-0.7,0.7-0.7c0.5,0,0.7,0.3,0.7,0.7
		c0,0,0,0.1-0.2,0.1H62.3z"/>
	<path class="st1" d="M64.4,11.5c0.3,0,0.5-0.3,0.5-0.5s-0.1-0.5-0.5-0.5c-0.3,0-0.5,0.3-0.5,0.5S64.1,11.5,64.4,11.5 M63.8,10.4
		c0-0.1,0-0.1,0.1-0.1c0.1,0,0.1,0,0.1,0.1v0.1h0c0.1-0.1,0.3-0.2,0.5-0.2c0.5,0,0.7,0.3,0.7,0.7c0,0.3-0.2,0.7-0.7,0.7
		c-0.2,0-0.3-0.1-0.5-0.2h0v0.6c0,0.1,0,0.1-0.1,0.1c-0.1,0-0.1,0-0.1-0.1V10.4z"/>
	<path class="st1" d="M66.1,11.5c0.3,0,0.5-0.3,0.5-0.5s-0.1-0.5-0.5-0.5c-0.3,0-0.5,0.3-0.5,0.5S65.7,11.5,66.1,11.5 M66.5,10.4
		c0-0.1,0-0.1,0.1-0.1c0.1,0,0.1,0,0.1,0.1v1.2c0,0.1,0,0.1-0.1,0.1c-0.1,0-0.1,0-0.1-0.1v-0.1h0c-0.1,0.1-0.3,0.2-0.5,0.2
		c-0.5,0-0.7-0.3-0.7-0.7c0-0.3,0.2-0.7,0.7-0.7C66.3,10.2,66.4,10.3,66.5,10.4L66.5,10.4L66.5,10.4z"/>
	<path class="st1" d="M67.4,11.5c0,0.1,0,0.1-0.1,0.1c-0.1,0-0.1,0-0.1-0.1V9.8c0-0.1,0-0.1,0.1-0.1c0.1,0,0.1,0,0.1,0.1V11.5z"/>
	<path class="st1" d="M68.7,11.5c0,0.2,0.1,0.2,0.1,0.3c0,0,0,0.1-0.1,0.1c-0.1,0-0.1-0.1-0.1-0.2c-0.1-0.3-0.1-0.6-0.1-0.9
		c0-0.3,0-0.6,0.1-0.9c0-0.1,0.1-0.2,0.1-0.2c0.1,0,0.1,0,0.1,0.1c0,0,0,0.1-0.1,0.3c-0.1,0.2-0.1,0.5-0.1,0.7
		C68.6,11,68.7,11.3,68.7,11.5"/>
	<path class="st1" d="M69.7,11.5c0,0.1,0,0.1-0.1,0.1c-0.1,0-0.1,0-0.1-0.1V10h-0.4c-0.1,0-0.1,0-0.1-0.1c0,0,0-0.1,0.1-0.1h1.1
		c0.1,0,0.1,0,0.1,0.1c0,0,0,0.1-0.1,0.1h-0.4V11.5z"/>
	<path class="st1" d="M71.2,10.9c0-0.2-0.2-0.5-0.5-0.5s-0.5,0.2-0.5,0.5H71.2z M70.3,11c0,0.2,0.2,0.5,0.5,0.5
		c0.3,0,0.4-0.2,0.5-0.2c0.1,0,0.1,0,0.1,0.1c0,0.1-0.3,0.3-0.6,0.3c-0.5,0-0.7-0.4-0.7-0.7s0.2-0.7,0.7-0.7c0.5,0,0.7,0.3,0.7,0.7
		c0,0,0,0.1-0.2,0.1H70.3z"/>
	<path class="st1" d="M72,11.5c0,0.1,0,0.1-0.1,0.1c-0.1,0-0.1,0-0.1-0.1v-1.2c0-0.1,0-0.1,0.1-0.1c0.1,0,0.1,0,0.1,0.1v0.1h0
		c0.1-0.2,0.2-0.2,0.4-0.2c0.1,0,0.1,0,0.1,0.1c0,0.1,0,0.1-0.2,0.1c-0.1,0-0.4,0.1-0.4,0.4V11.5z"/>
	<path class="st1" d="M73.3,11.5c0.3,0,0.5-0.3,0.5-0.5s-0.1-0.5-0.5-0.5c-0.3,0-0.5,0.3-0.5,0.5S73,11.5,73.3,11.5 M73.8,10.4
		c0-0.1,0-0.1,0.1-0.1c0.1,0,0.1,0,0.1,0.1v1.2c0,0.1,0,0.1-0.1,0.1c-0.1,0-0.1,0-0.1-0.1v-0.1h0c-0.1,0.1-0.3,0.2-0.4,0.2
		c-0.5,0-0.7-0.3-0.7-0.7c0-0.3,0.2-0.7,0.7-0.7C73.5,10.2,73.7,10.3,73.8,10.4L73.8,10.4L73.8,10.4z"/>
	<path class="st1" d="M74.6,11.5c0,0.1,0,0.1-0.1,0.1c-0.1,0-0.1,0-0.1-0.1v-1.2c0-0.1,0-0.1,0.1-0.1c0.1,0,0.1,0,0.1,0.1V11.5z
		 M74.5,9.8c0.1,0,0.2,0.1,0.2,0.1c0,0.1-0.1,0.1-0.2,0.1s-0.2-0.1-0.2-0.1C74.4,9.8,74.4,9.8,74.5,9.8"/>
	<path class="st1" d="M75.1,10C75,9.9,75,9.8,75,9.8c0,0,0-0.1,0.1-0.1c0.1,0,0.1,0.1,0.1,0.2c0.1,0.3,0.1,0.6,0.1,0.9
		s0,0.6-0.1,0.9c0,0.1-0.1,0.2-0.1,0.2c-0.1,0-0.1,0-0.1-0.1c0,0,0-0.1,0.1-0.3c0.1-0.2,0.1-0.5,0.1-0.7
		C75.1,10.5,75.1,10.3,75.1,10"/>
	<path class="st1" d="M76.6,11.5h0.6c0.1,0,0.1,0,0.1,0.1c0,0,0,0.1-0.1,0.1h-0.7c-0.1,0-0.1,0-0.1-0.1V9.9c0-0.1,0-0.1,0.1-0.1
		c0.1,0,0.1,0,0.1,0.1V11.5z"/>
	<path class="st1" d="M77.8,11.5c0,0.1,0,0.1-0.1,0.1c-0.1,0-0.1,0-0.1-0.1v-1.2c0-0.1,0-0.1,0.1-0.1c0.1,0,0.1,0,0.1,0.1V11.5z
		 M77.6,9.8c0.1,0,0.2,0.1,0.2,0.1c0,0.1-0.1,0.1-0.2,0.1c-0.1,0-0.2-0.1-0.2-0.1C77.5,9.8,77.6,9.8,77.6,9.8"/>
	<path class="st1" d="M79.3,11.5c0,0.1,0,0.1-0.1,0.1c-0.1,0-0.1,0-0.1-0.1v-0.8c0-0.3-0.2-0.4-0.4-0.4c-0.2,0-0.4,0.1-0.4,0.4v0.8
		c0,0.1,0,0.1-0.1,0.1c-0.1,0-0.1,0-0.1-0.1v-1.2c0-0.1,0-0.1,0.1-0.1c0.1,0,0.1,0,0.1,0.1v0.1h0c0.1-0.1,0.2-0.2,0.4-0.2
		c0.2,0,0.4,0.1,0.4,0.2c0.1-0.2,0.3-0.2,0.5-0.2c0.3,0,0.6,0.2,0.6,0.5v0.8c0,0.1,0,0.1-0.1,0.1c-0.1,0-0.1,0-0.1-0.1v-0.8
		c0-0.3-0.2-0.4-0.4-0.4c-0.2,0-0.4,0.1-0.4,0.4V11.5z"/>
	<path class="st1" d="M80.9,11.5c0,0.1,0,0.1-0.1,0.1c-0.1,0-0.1,0-0.1-0.1v-1.2c0-0.1,0-0.1,0.1-0.1c0.1,0,0.1,0,0.1,0.1V11.5z
		 M80.8,9.8c0.1,0,0.2,0.1,0.2,0.1c0,0.1-0.1,0.1-0.2,0.1s-0.2-0.1-0.2-0.1C80.7,9.8,80.7,9.8,80.8,9.8"/>
	<path class="st1" d="M81.6,11.5c0,0.1,0,0.1-0.1,0.1c-0.1,0-0.1,0-0.1-0.1v-1.1h-0.1c-0.1,0-0.1,0-0.1-0.1c0,0,0-0.1,0.1-0.1h0.1
		V10c0-0.1,0-0.1,0.1-0.1c0.1,0,0.1,0,0.1,0.1v0.3h0.1c0.1,0,0.1,0,0.1,0.1c0,0,0,0.1-0.1,0.1h-0.1V11.5z"/>
	<path class="st1" d="M83.1,10.9c0-0.2-0.2-0.5-0.5-0.5s-0.5,0.2-0.5,0.5H83.1z M82.2,11c0,0.2,0.2,0.5,0.5,0.5
		c0.3,0,0.4-0.2,0.5-0.2c0.1,0,0.1,0,0.1,0.1c0,0.1-0.3,0.3-0.6,0.3c-0.5,0-0.7-0.4-0.7-0.7s0.2-0.7,0.7-0.7c0.5,0,0.7,0.3,0.7,0.7
		c0,0,0,0.1-0.2,0.1H82.2z"/>
	<path class="st1" d="M84.3,11.5c0.3,0,0.5-0.3,0.5-0.5s-0.1-0.5-0.5-0.5c-0.3,0-0.5,0.3-0.5,0.5S83.9,11.5,84.3,11.5 M84.7,9.8
		c0-0.1,0-0.1,0.1-0.1c0.1,0,0.1,0,0.1,0.1v1.8c0,0.1,0,0.1-0.1,0.1c-0.1,0-0.1,0-0.1-0.1v-0.1h0c-0.1,0.1-0.3,0.2-0.4,0.2
		c-0.5,0-0.7-0.3-0.7-0.7c0-0.3,0.2-0.7,0.7-0.7c0.2,0,0.3,0.1,0.5,0.2h0V9.8z"/>
	<g>
		<path class="st1" d="M60.3,8.4h0.4c0.3,0,0.5-0.1,0.5-0.4c0-0.2-0.2-0.4-0.5-0.4h-0.4V8.4z M60.3,7.5h0.3c0.2,0,0.4-0.1,0.4-0.3
			c0-0.1-0.1-0.3-0.4-0.3h-0.3V7.5z M60.1,6.8c0-0.1,0-0.1,0.1-0.1h0.4c0.5,0,0.6,0.3,0.6,0.5c0,0.2-0.1,0.3-0.3,0.4v0
			c0.3,0,0.5,0.2,0.5,0.5c0,0.3-0.2,0.5-0.7,0.5h-0.5c-0.1,0-0.1,0-0.1-0.1V6.8z"/>
		<path class="st1" d="M62.4,8.4c0.3,0,0.5-0.3,0.5-0.5s-0.1-0.5-0.5-0.5c-0.3,0-0.5,0.3-0.5,0.5S62,8.4,62.4,8.4 M62.4,8.6
			c-0.5,0-0.7-0.3-0.7-0.7c0-0.3,0.2-0.7,0.7-0.7c0.5,0,0.7,0.4,0.7,0.7C63.1,8.2,62.9,8.6,62.4,8.6"/>
		<path class="st1" d="M63.7,8.4c0,0.1,0,0.1-0.1,0.1c-0.1,0-0.1,0-0.1-0.1V7.3h-0.1c-0.1,0-0.1,0-0.1-0.1c0,0,0-0.1,0.1-0.1h0.1
			V6.9c0-0.1,0-0.1,0.1-0.1c0.1,0,0.1,0,0.1,0.1v0.3h0.1c0.1,0,0.1,0,0.1,0.1c0,0,0,0.1-0.1,0.1h-0.1V8.4z"/>
		<path class="st1" d="M64.4,8.4c0,0.1,0,0.1-0.1,0.1c-0.1,0-0.1,0-0.1-0.1V7.3h-0.1c-0.1,0-0.1,0-0.1-0.1c0,0,0-0.1,0.1-0.1h0.1
			V6.9c0-0.1,0-0.1,0.1-0.1c0.1,0,0.1,0,0.1,0.1v0.3h0.1c0.1,0,0.1,0,0.1,0.1c0,0,0,0.1-0.1,0.1h-0.1V8.4z"/>
		<path class="st1" d="M65.1,8.4c0,0.1,0,0.1-0.1,0.1c-0.1,0-0.1,0-0.1-0.1V6.7c0-0.1,0-0.1,0.1-0.1c0.1,0,0.1,0,0.1,0.1V8.4z"/>
		<path class="st1" d="M66.6,7.8c0-0.2-0.2-0.5-0.5-0.5s-0.5,0.2-0.5,0.5H66.6z M65.7,7.9c0,0.2,0.2,0.5,0.5,0.5
			c0.3,0,0.4-0.2,0.5-0.2c0.1,0,0.1,0,0.1,0.1c0,0.1-0.3,0.3-0.6,0.3c-0.5,0-0.7-0.4-0.7-0.7c0-0.3,0.2-0.7,0.7-0.7
			c0.5,0,0.7,0.3,0.7,0.7c0,0,0,0.1-0.2,0.1H65.7z"/>
		<path class="st1" d="M67.3,8.4c0,0.1,0,0.1-0.1,0.1c-0.1,0-0.1,0-0.1-0.1V7.3c0-0.1,0-0.1,0.1-0.1c0.1,0,0.1,0,0.1,0.1v0.1h0
			c0.1-0.2,0.2-0.2,0.4-0.2c0.1,0,0.1,0,0.1,0.1c0,0.1,0,0.1-0.2,0.1c-0.1,0-0.4,0.1-0.4,0.4V8.4z"/>
		<path class="st1" d="M69.1,7.4c0,0,0,0.1-0.1,0.1c-0.1,0-0.2-0.1-0.4-0.1c-0.2,0-0.3,0.1-0.3,0.2c0,0.1,0,0.1,0.1,0.2l0.3,0.1
			c0.2,0.1,0.4,0.2,0.4,0.4c0,0.2-0.3,0.4-0.6,0.4c-0.4,0-0.6-0.2-0.6-0.3c0,0,0-0.1,0.1-0.1c0.1,0,0.2,0.2,0.5,0.2
			c0.2,0,0.4-0.1,0.4-0.2C68.9,8,68.8,8,68.7,8l-0.4-0.1C68.1,7.8,68,7.7,68,7.5c0-0.2,0.3-0.4,0.5-0.4C68.8,7.2,69.1,7.3,69.1,7.4"
			/>
	</g>
</g>
<path class="st0" d="M14.3,9.8c-0.3-0.1-0.8-0.1-1.2-0.1c-0.4,0-0.7,0-1.4,0.2C11,10,10,10.3,9.4,10.4c-0.6,0.2-1,0.2-1.3,0.2
	c-0.2,0-0.3,0-0.4,0c-0.1,0-0.3-0.1-0.4-0.1c-0.1,0-0.2-0.1-0.3-0.1c-0.1-0.1-0.1-0.1-0.2-0.2C6.8,10.1,6.7,10,6.7,10
	c0-0.1-0.1-0.2-0.1-0.2c0-0.1,0-0.2,0-0.3c0-0.1,0-0.2,0-0.3c0-0.2,0-0.3,0.1-0.6C6.8,8.3,6.9,8,7,7.7c0.2-0.3,0.4-0.7,0.6-1.1
	c0.3-0.4,0.5-0.8,0.8-1.1C8.7,5.1,9,4.8,9.2,4.6c0.2-0.2,0.4-0.4,0.6-0.5c0.2-0.1,0.3-0.2,0.4-0.3c0.1-0.1,0.2-0.1,0.3-0.1
	c0.1,0,0.2,0,0.3,0c0.1,0,0.1,0,0.1,0c0,0,0,0.1,0,0.1c0,0,0,0.1,0,0.1c-0.1,0.1-0.3,0.2-0.4,0.2c0,0-0.1,0.1-0.1,0.1
	c-0.1,0.1-0.1,0.2-0.1,0.3c0,0.1,0.1,0.2,0.1,0.2c0.2,0.1,0.3,0,0.5-0.2c0,0,0.1-0.1,0.1-0.1c0-0.1,0.1-0.1,0.1-0.2
	c0.1-0.2,0.1-0.5,0-0.7c0,0-0.1-0.1-0.1-0.1c0,0-0.1-0.1-0.2-0.1c-0.1,0-0.1,0-0.3,0c-0.1,0-0.3,0-0.4,0.1c-0.2,0-0.4,0.1-0.6,0.2
	C9.4,3.7,9.1,3.8,8.9,4C8.6,4.2,8.3,4.4,8,4.7C7.7,5,7.4,5.3,7.1,5.6c-0.6,0.7-1,1.4-1.3,2C5.7,7.9,5.6,8.2,5.5,8.4
	C5.4,8.6,5.4,8.8,5.4,9c0,0.3,0,0.5,0,0.7c0,0.1,0,0.2,0.1,0.3c0,0.1,0.1,0.2,0.1,0.2c0,0.1,0.1,0.1,0.2,0.2
	c0.1,0.1,0.1,0.1,0.2,0.2c0.1,0.1,0.2,0.1,0.3,0.2c0.1,0,0.3,0.1,0.4,0.1c0.2,0,0.4,0,0.6,0c0.3,0,0.7,0,1.2-0.1
	c0.6-0.1,1.3-0.3,1.9-0.5c0.6-0.1,0.9-0.1,1.2-0.1c0.2,0,0.4,0,0.6,0c0.2,0,0.3,0.1,0.4,0.1c0.1,0.1,0.2,0.1,0.3,0.2
	c0.1,0.1,0.2,0.2,0.4,0.4c0.4-0.2,0.7-0.4,1-0.4c0.1,0,0.3,0,0.4,0c0.1,0,0.1,0,0.2,0c0.1,0,0.1,0,0.3,0.1c0.2,0.1,0.5,0.2,0.9,0.3
	c-0.3-0.3-0.7-0.6-1-0.8C14.9,10,14.6,9.9,14.3,9.8 M18.5,5.3h-0.8L17.4,6h0.7L18.5,5.3z M29.7,4.1c-0.3,0.2-0.6,0.3-0.9,0.4
	c-0.3,0.1-0.7,0.1-1.1,0.1L27,5.4c0.1,0,0.1,0,0.2,0c0.1,0,0.2,0,0.3,0c0.2,0,0.5,0,0.7-0.1c0.5-0.1,1.1-0.4,1.5-0.8
	C30,4.4,30.1,4.2,30.3,4c0.2-0.2,0.3-0.4,0.4-0.6C30.3,3.7,30,3.9,29.7,4.1 M28.8,9.1c-0.1,0.2-0.3,0.4-0.4,0.5
	c-0.1,0.1-0.2,0.2-0.3,0.3C28,10,28,10.1,28,10.1c0,0-0.1,0.1-0.1,0.1c-0.1,0-0.1,0-0.2,0c-0.1,0-0.1-0.1-0.1-0.1c0,0,0,0,0.1-0.1
	c0.1-0.1,0.2-0.3,0.3-0.5l1.3-2.2h-0.6l-0.2,0.2c-0.1-0.1-0.2-0.1-0.2-0.1c-0.1,0-0.1,0-0.1,0c0,0-0.1,0-0.1,0
	c-0.2,0-0.4,0.1-0.7,0.2c-0.1,0-0.1,0.1-0.2,0.2c-0.1,0.1-0.2,0.1-0.3,0.3c-0.1,0.1-0.2,0.2-0.5,0.5c-0.2,0.3-0.6,0.8-0.8,1.1
	C25.2,9.7,25.1,9.9,25,10c-0.1,0.1-0.1,0.1-0.2,0.2c0,0-0.1,0-0.1,0.1c0,0-0.1,0-0.1,0c-0.1,0-0.1-0.1-0.1-0.2c0-0.1,0-0.2,0-0.3
	c0-0.1,0.1-0.3,0.1-0.5c0.1-0.2,0.1-0.4,0.2-0.7c0.5-0.3,1-0.7,1.4-1c0.4-0.3,0.6-0.6,0.9-0.9c0.3-0.3,0.5-0.7,0.8-1.1l-0.3,0
	C27.4,6,27.2,6.2,27,6.5c-0.2,0.3-0.5,0.6-0.8,0.8c-0.3,0.3-0.6,0.5-1,0.8c0.2-0.4,0.5-0.8,0.7-1.2c0.2-0.4,0.5-0.8,0.8-1.2
	c0.3-0.4,0.5-0.7,0.7-1c0.2-0.3,0.4-0.5,0.6-0.6c0.2-0.2,0.3-0.3,0.4-0.3c0.1-0.1,0.2-0.1,0.2-0.1c0.1,0,0.1,0,0.1,0c0,0,0,0,0.1,0
	c0.1,0.1,0.1,0.1,0,0.2c0,0,0,0,0,0.1c0,0.1-0.1,0.2-0.1,0.3l0.3,0C28.9,4.2,29,4.1,29,4C29,4,29,4,29,3.9c0,0,0-0.1,0-0.1
	c0-0.1,0-0.3-0.1-0.4c0,0-0.1,0-0.1-0.1c-0.1,0-0.3,0-0.4,0c-0.1,0-0.2,0.1-0.4,0.2c-0.2,0.1-0.3,0.2-0.5,0.4
	c-0.2,0.2-0.5,0.4-0.7,0.7c-0.3,0.3-0.6,0.7-0.9,1.1c-0.3,0.4-0.7,0.9-1,1.4c-0.3,0.5-0.6,1-0.8,1.5h-0.4c0.1-0.1,0.1-0.3,0.2-0.4
	c0-0.1,0.1-0.2,0.1-0.2c0-0.2,0-0.4,0-0.5c0,0,0-0.1-0.1-0.1c-0.1-0.1-0.2-0.2-0.4-0.2c-0.1,0-0.1,0-0.2,0c-0.1,0-0.2,0-0.3,0.1
	c-0.1,0-0.2,0.1-0.3,0.2c-0.1,0.1-0.3,0.2-0.4,0.4C22,8,21.8,8.2,21.7,8.4c-0.3,0.4-0.6,0.8-0.7,1.1c-0.1,0.2-0.1,0.3-0.2,0.4
	c0,0.1-0.1,0.2-0.1,0.3c0,0.1,0,0.2,0,0.2c0,0.1,0,0.1,0.1,0.2c0,0.1,0.1,0.1,0.1,0.1c0,0,0.1,0.1,0.2,0.1c0.1,0,0.1,0,0.2,0
	c0.1,0,0.3,0,0.4-0.1c0.1,0,0.2-0.1,0.3-0.2c0.1-0.1,0.2-0.2,0.4-0.3c0.1-0.1,0.3-0.3,0.5-0.6c0.2-0.2,0.4-0.5,0.6-0.9h0.4
	c-0.1,0.3-0.2,0.6-0.3,0.8c-0.1,0.2-0.1,0.3-0.1,0.4c0,0.2,0,0.3,0,0.4c0,0.1,0,0.1,0,0.2c0,0,0,0.1,0.1,0.1c0,0,0.1,0.1,0.1,0.1
	c0,0,0.1,0.1,0.1,0.1c0,0,0.1,0,0.2,0c0.2,0,0.4-0.1,0.6-0.2c0.1-0.1,0.2-0.1,0.3-0.3c0.1-0.1,0.3-0.3,0.4-0.4c0,0.1,0,0.2,0,0.3
	c0,0.1,0,0.1,0,0.2c0,0.1,0,0.1,0,0.1c0,0,0,0.1,0,0.1c0,0.1,0.1,0.1,0.1,0.1c0.1,0,0.1,0.1,0.2,0.1c0,0,0.1,0,0.1,0
	c0.1,0,0.2-0.1,0.3-0.1c0.1,0,0.1-0.1,0.2-0.2c0.1-0.1,0.2-0.2,0.3-0.3c0,0.1,0,0.2,0,0.2c0,0.1,0,0.1,0,0.1c0,0,0,0.1,0,0.1
	c0,0.1,0.1,0.2,0.2,0.2c0.2,0.1,0.4,0,0.6-0.1c0.1,0,0.2-0.1,0.3-0.2c0.1-0.1,0.2-0.2,0.4-0.3c0.1-0.1,0.3-0.3,0.4-0.5
	c0.2-0.2,0.3-0.5,0.5-0.8L28.8,9.1z M23,9.3c-0.1,0.1-0.2,0.3-0.3,0.4c-0.1,0.1-0.2,0.2-0.3,0.3c-0.1,0.1-0.1,0.1-0.2,0.2
	c-0.1,0-0.1,0.1-0.1,0.1c0,0-0.1,0-0.1,0c-0.1,0-0.1,0-0.2-0.1c0,0,0-0.1,0-0.1c0-0.1,0-0.1,0-0.3c0-0.1,0-0.1,0-0.2
	c0-0.1,0-0.2,0.1-0.3C22,9,22.2,8.7,22.5,8.4c0,0.1,0.1,0.1,0.1,0.2c0,0,0.1,0.1,0.1,0.1c0,0,0.1,0.1,0.2,0.1c0.1,0,0.2,0.1,0.3,0.1
	C23.1,9.1,23.1,9.2,23,9.3 M23.6,8c0,0,0,0.1,0,0.1c0,0,0,0.1-0.1,0.2c0,0.1-0.1,0.2-0.2,0.4c-0.1,0-0.2-0.1-0.2-0.1
	C23,8.6,23,8.5,23,8.5c0,0-0.1,0-0.1-0.1c0,0-0.1-0.1-0.1-0.1c-0.1-0.2,0-0.5,0.3-0.7c0.1-0.1,0.2-0.1,0.2-0.1c0.1,0,0.1,0,0.2,0.1
	c0.1,0.1,0.1,0.1,0.1,0.2C23.6,7.9,23.6,7.9,23.6,8 M27.1,9.5c-0.1,0.1-0.2,0.3-0.3,0.4c-0.1,0.1-0.1,0.2-0.2,0.2
	c-0.1,0-0.1,0.1-0.1,0.1c-0.1,0-0.2,0-0.2,0c-0.1-0.1,0-0.1,0-0.2c0,0,0-0.1,0-0.2c0-0.1,0-0.1,0.1-0.2c0-0.1,0.1-0.2,0.1-0.3
	c0.1-0.1,0.1-0.2,0.2-0.3c0.1-0.1,0.2-0.3,0.3-0.4c0.1-0.1,0.2-0.3,0.4-0.4c0.1-0.1,0.2-0.2,0.3-0.3c0.1-0.1,0.2-0.1,0.2-0.2
	c0.1,0,0.1-0.1,0.1-0.1c0,0,0.1,0,0.1,0c0,0,0.1,0,0.1,0c0,0,0,0.1,0,0.2c0,0,0,0.1-0.1,0.1C28.1,7.9,28,8,28,8.1L27.1,9.5z
	 M21.2,8.3c0-0.2,0.1-0.3,0.1-0.5c0-0.1,0-0.2,0-0.3c0,0,0-0.1,0-0.1c0-0.1-0.1-0.1-0.2-0.1c0,0-0.1,0-0.1,0c-0.1,0-0.1,0-0.2,0
	c-0.1,0-0.1,0-0.2,0c-0.3,0.1-0.6,0.2-0.9,0.6c-0.1,0.1-0.2,0.2-0.3,0.3c-0.1,0.1-0.2,0.3-0.2,0.4C19,8.7,19,8.8,18.9,9
	c-0.1,0.2-0.1,0.4-0.1,0.5c0.2-0.1,0.3-0.3,0.5-0.4C19.3,9.1,19.4,9,19.5,9c0.1-0.1,0.2-0.1,0.4-0.2c0-0.2,0.1-0.4,0.2-0.6
	c0-0.1,0.1-0.2,0.1-0.2c0-0.1,0.1-0.1,0.1-0.2c0.1-0.1,0.2-0.2,0.3-0.2c0.1,0,0.3-0.1,0.4,0C21,7.7,21,7.8,21,7.9
	c0,0.2-0.1,0.5-0.1,0.7c0,0.1-0.1,0.2-0.2,0.4c-0.1,0.1-0.1,0.2-0.2,0.4c-0.2,0.3-0.4,0.5-0.7,0.8c-0.3,0.2-0.6,0.4-0.7,0.4
	c-0.1,0-0.2,0-0.2,0c-0.1,0-0.1,0-0.2,0c-0.1,0-0.2-0.1-0.3-0.2c0-0.1-0.1-0.1-0.1-0.2c-0.1-0.1-0.1-0.3-0.1-0.4
	c0-0.2,0.1-0.3,0.2-0.6c0.1-0.3,0.3-0.7,0.5-1.1C19,7.5,19.3,7,19.5,6.6c0.3-0.4,0.5-0.8,0.8-1.1c0.2-0.3,0.5-0.5,0.7-0.7
	c0.2-0.2,0.4-0.3,0.5-0.5c0.2-0.1,0.3-0.2,0.4-0.3C22,4,22.1,3.9,22.2,3.9c0.3-0.1,0.5-0.1,0.8-0.1c-0.2,0.1-0.4,0.3-0.6,0.4
	c-0.4,0.3-0.6,0.6-0.8,0.9c-0.1,0.1-0.2,0.3-0.2,0.4c-0.1,0.1-0.1,0.2-0.1,0.3c0,0.1,0,0.2-0.1,0.3c0,0.1,0,0.1,0,0.2
	c0,0,0,0.1,0,0.1c0,0,0,0.1,0.1,0.1c0,0,0.1,0.1,0.1,0.1c0,0,0.1,0,0.1,0c0,0,0.1,0,0.2,0c0.1,0,0.2,0,0.4-0.1
	c0.1,0,0.2-0.1,0.2-0.1s0.2-0.1,0.3-0.2c0.1-0.1,0.2-0.2,0.3-0.3c0.1-0.1,0.2-0.3,0.3-0.4c0.1-0.3,0.3-0.5,0.3-0.7
	c0-0.1,0-0.2,0.1-0.3c0,0,0,0,0-0.1c0,0,0-0.1,0-0.2c0-0.1,0-0.1,0-0.1c0.2,0,0.5,0,0.7,0.1c0.2,0.1,0.4,0.2,0.7,0.3
	c0.3,0.2,0.7,0.5,1.1,0.8l0.7-0.7C26.5,4.2,26.2,4,26,3.8c-0.2-0.1-0.4-0.2-0.6-0.3c-0.2-0.1-0.3-0.1-0.4-0.1c-0.2,0-0.4-0.1-0.6,0
	c-0.1,0-0.2,0-0.3,0.1c-0.2,0-0.4,0.1-0.6,0.2c-0.1-0.1-0.3-0.2-0.4-0.2c-0.1,0-0.2-0.1-0.2-0.1c-0.2,0-0.5,0-0.7,0.1
	c-0.2,0.1-0.5,0.2-0.8,0.3c-0.3,0.2-0.6,0.4-1,0.6c-0.4,0.3-0.7,0.6-1,0.9c-0.3,0.3-0.6,0.7-0.9,1c-0.3,0.3-0.5,0.7-0.6,1
	c-0.2,0.3-0.3,0.6-0.4,0.9c-0.1,0.3-0.2,0.5-0.2,0.7C17,9.1,17,9.3,17,9.5c0,0.2,0,0.3,0,0.4c0,0.1,0,0.2,0.1,0.4
	c0,0.1,0.1,0.2,0.2,0.3c0.1,0.1,0.2,0.2,0.3,0.3c0.1,0.1,0.2,0.1,0.3,0.2c0.3,0.1,0.5,0.1,0.8,0c0.1,0,0.3-0.1,0.5-0.2
	c0.4-0.2,0.8-0.5,1.1-0.9c0.3-0.4,0.6-0.8,0.7-1.1C21.1,8.6,21.2,8.4,21.2,8.3 M23.2,4c0,0.1,0,0.3-0.1,0.4c0,0.2-0.1,0.4-0.2,0.5
	c-0.1,0.2-0.1,0.3-0.2,0.5c-0.1,0.1-0.1,0.2-0.2,0.3C22.3,6,22.1,6.1,22,6.2c-0.2,0.1-0.3,0.1-0.4,0c0,0-0.1-0.1-0.1-0.1
	c0-0.2,0-0.3,0.1-0.5c0-0.1,0.1-0.1,0.1-0.2c0.1-0.1,0.1-0.2,0.2-0.3c0.1-0.1,0.2-0.2,0.3-0.4c0.1-0.1,0.3-0.3,0.5-0.4
	C22.8,4.2,23,4.1,23.2,4 M16.1,7.9C16,8,15.9,8.1,15.9,8.1c0,0-0.1,0.1-0.1,0.1c-0.1,0-0.1,0.1-0.2,0c0,0-0.1,0-0.1-0.1
	c0,0,0,0,0-0.1c0,0,0-0.1,0.1-0.2c0.1-0.1,0.2-0.4,0.3-0.6l1.1-1.9h-0.7l-0.1,0.2c-0.1-0.1-0.2-0.1-0.3-0.1c-0.1,0-0.1,0-0.2,0
	c0,0-0.1,0-0.1,0c-0.2,0-0.3,0.1-0.5,0.2c-0.1,0-0.2,0.1-0.3,0.2c-0.1,0.1-0.2,0.2-0.5,0.5c-0.2,0.3-0.6,0.7-0.9,1.1
	C13.2,7.6,13,7.9,12.8,8c-0.2,0.2-0.3,0.3-0.4,0.3c-0.1,0.1-0.1,0.1-0.2,0.1c-0.1,0-0.1,0-0.2,0.1c-0.1,0-0.2,0-0.3,0
	c-0.1,0-0.1-0.1-0.1-0.1c0-0.1,0-0.2,0-0.4c0-0.1,0-0.2,0.1-0.3c0-0.1,0.1-0.2,0.2-0.3c0.1-0.1,0.2-0.3,0.3-0.4
	c0.2-0.3,0.5-0.7,0.8-0.9c0.1-0.1,0.2-0.2,0.3-0.2c0.1-0.1,0.1-0.1,0.2-0.1c0,0,0.1,0,0.1,0c0,0,0.1,0,0.1,0c0,0,0,0.1,0.1,0.1
	c0,0,0,0.1,0,0.1c-0.1,0-0.1,0-0.2,0c-0.1,0-0.1,0-0.1,0.1c0,0-0.1,0-0.1,0.1c-0.2,0.1-0.2,0.3-0.2,0.4c0,0,0,0.1,0.1,0.1
	c0.1,0.1,0.3,0,0.5-0.2c0,0,0.1-0.1,0.1-0.1c0.1-0.1,0.1-0.3,0.2-0.4c0-0.2,0-0.4-0.2-0.6c-0.1-0.1-0.2-0.1-0.3-0.1
	c-0.1,0-0.1,0-0.2,0c-0.1,0-0.1,0-0.2,0.1c-0.1,0-0.2,0.1-0.4,0.2C12.5,5.7,12.2,6,12,6.1c-0.2,0.2-0.4,0.3-0.5,0.4
	c-0.1,0.1-0.2,0.1-0.3,0.2c-0.1,0-0.2,0.1-0.3,0.1C10.9,6.6,11,6.5,11,6.4c0-0.1,0.1-0.2,0.1-0.3c0-0.1,0-0.1,0-0.2
	c0-0.1,0-0.2,0-0.3c0,0,0-0.1-0.1-0.1c-0.1-0.1-0.1-0.1-0.2-0.1c-0.2-0.1-0.3-0.1-0.5,0c-0.1,0-0.2,0.1-0.3,0.1
	C10,5.5,9.8,5.6,9.7,5.7C9.5,5.8,9.4,5.9,9.2,6.1C9.1,6.2,8.9,6.4,8.8,6.6c-0.3,0.4-0.5,0.7-0.6,1C8.1,7.7,8,7.9,8,8
	C8,8.1,8,8.3,8,8.3c0,0.1,0,0.2,0,0.2c0,0.1,0,0.1,0,0.2c0,0.1,0,0.1,0.1,0.1c0,0,0.1,0.1,0.1,0.1C8.2,9,8.2,9,8.3,9
	c0.1,0,0.1,0,0.2,0s0.1,0,0.2,0C8.8,9,8.9,9,9,9s0.2-0.1,0.3-0.2c0.1-0.1,0.2-0.2,0.4-0.3c0.1-0.1,0.3-0.3,0.5-0.5
	c0.2-0.2,0.4-0.6,0.6-0.9l0.5-0.1c-0.2,0.3-0.3,0.6-0.4,0.8c-0.1,0.2-0.1,0.3-0.1,0.4c-0.1,0.3-0.1,0.6,0,0.8c0,0.1,0.1,0.1,0.1,0.2
	c0.1,0,0.1,0.1,0.2,0.1c0.1,0,0.2,0,0.3,0c0.2,0,0.5-0.1,0.8-0.2c0.1-0.1,0.2-0.1,0.4-0.3c0.2-0.1,0.3-0.3,0.5-0.5
	c0,0.2,0,0.4,0,0.5c0,0.1,0,0.2,0,0.2c0,0,0,0.1,0,0.1c0,0,0,0,0,0.1C13.2,9,13.2,9,13.3,9c0.2,0.1,0.4,0,0.6-0.1
	c0.1,0,0.2-0.1,0.3-0.2c0.1-0.1,0.2-0.2,0.4-0.3c0,0.1,0,0.1,0,0.2c0,0.1,0,0.1,0,0.1c0,0,0,0.1,0,0.1C14.6,9,14.6,9,14.7,9.1
	c0,0,0.1,0,0.1,0c0.2,0,0.4-0.1,0.6-0.2c0.1-0.1,0.2-0.2,0.4-0.3C16,8.4,16.2,8.2,16.3,8c0.2-0.2,0.3-0.5,0.5-0.8l-0.1,0
	C16.5,7.5,16.3,7.7,16.1,7.9 M9.9,7.9C9.7,8,9.6,8.1,9.6,8.2c-0.1,0-0.1,0.1-0.1,0.1c0,0-0.1,0-0.1,0.1C9.2,8.4,9.1,8.4,9,8.2
	c0-0.1,0-0.1,0-0.2c0,0,0-0.1,0-0.2C9,7.8,9,7.6,9.1,7.5C9.2,7.4,9.3,7.2,9.4,7c0.1-0.2,0.3-0.4,0.4-0.6C9.9,6.6,10,6.7,10,6.7
	c0.1,0.1,0.1,0.1,0.2,0.1c0.1,0,0.2,0.1,0.3,0.1C10.2,7.3,10,7.7,9.9,7.9 M10.8,6.1c0,0,0,0.1,0,0.1c0,0,0,0.1-0.1,0.2
	c0,0.1-0.1,0.2-0.2,0.3c-0.1,0-0.2-0.1-0.2-0.1c-0.1,0-0.1-0.1-0.1-0.1c0,0-0.1,0-0.1-0.1c0,0,0,0-0.1-0.1C10,6.2,10,6,10.2,5.9
	c0,0,0.1-0.1,0.1-0.1s0.1,0,0.1-0.1c0.1,0,0.2-0.1,0.3,0C10.9,5.9,10.8,6,10.8,6.1 M14.9,7.7c-0.1,0.1-0.1,0.2-0.2,0.3
	c-0.1,0.1-0.1,0.1-0.2,0.2c0,0-0.1,0.1-0.1,0.1c-0.1,0-0.1,0.1-0.1,0.1c-0.1,0-0.1,0-0.2-0.1C14,8.2,14,8.1,14,8.1c0,0,0-0.1,0-0.1
	c0-0.1,0-0.1,0.1-0.2c0-0.1,0.1-0.2,0.2-0.4c0.1-0.1,0.2-0.3,0.3-0.5c0.1-0.2,0.3-0.4,0.4-0.5c0.1-0.2,0.3-0.3,0.4-0.4
	c0.1-0.1,0.2-0.1,0.2-0.2c0.1,0,0.1-0.1,0.1-0.1c0.1,0,0.1,0,0.2,0c0.1,0.1,0,0.2,0,0.2c0,0,0,0-0.1,0.1c0,0.1-0.1,0.2-0.2,0.3
	L14.9,7.7z"/>
<path class="st0" d="M28.4,11C28.5,11,28.5,11,28.4,11C28.5,11,28.5,11,28.4,11c0.1,0,0.1,0,0.1-0.1c0,0,0-0.1-0.1-0.1c0,0,0,0,0,0
	V11z M28.4,10.9C28.4,10.9,28.4,10.8,28.4,10.9c0-0.1,0-0.1,0-0.1c0,0,0,0,0,0c0,0,0,0,0,0h0c0,0,0,0,0,0c0,0,0,0,0.1,0
	c0.1,0,0.1,0,0.1,0.1c0,0,0,0.1-0.1,0.1l0.1,0.1c0,0.1,0.1,0.1,0.1,0.1c0,0,0,0,0,0c0,0,0,0,0,0c0,0-0.1,0-0.1-0.1l0-0.1L28.4,10.9
	l0.1,0.1c0,0.1,0,0.1,0,0.1c0,0,0,0,0,0c0,0,0,0,0,0s0,0,0,0h0c0,0,0,0-0.1,0c0,0,0,0,0,0h0c0,0,0,0,0,0c0,0,0,0,0,0c0,0,0,0,0,0
	C28.4,11.1,28.4,11,28.4,10.9L28.4,10.9z M28.7,11c0-0.1-0.1-0.2-0.2-0.2c-0.1,0-0.2,0.1-0.2,0.2c0,0.1,0.1,0.2,0.2,0.2
	C28.6,11.2,28.7,11.1,28.7,11 M28.2,11c0-0.2,0.1-0.3,0.3-0.3c0.2,0,0.3,0.1,0.3,0.3c0,0.2-0.1,0.3-0.3,0.3
	C28.3,11.2,28.2,11.1,28.2,11"/>
<path class="st1" d="M13.2,3.2c0,0.2,0,0.4,0,0.5c0,0.1,0,0.1,0.1,0.1c0,0,0.1,0,0.1,0c0,0,0,0,0,0c0,0,0,0,0,0c-0.1,0-0.3,0-0.3,0
	c0,0-0.2,0-0.3,0c0,0,0,0,0,0c0,0,0,0,0,0c0,0,0.1,0,0.1,0c0.1,0,0.1-0.1,0.1-0.1c0-0.1,0-0.3,0-0.5v-1l-0.4,0c-0.2,0-0.2,0-0.3,0.1
	c0,0,0,0.1,0,0.1c0,0,0,0,0,0c0,0,0,0,0,0c0,0,0.1-0.2,0.1-0.3c0,0,0,0,0,0c0,0,0,0,0.1,0c0.1,0,0.2,0,0.2,0h1c0.1,0,0.1,0,0.2,0
	c0,0,0.1,0,0.1,0c0,0,0,0,0,0c0,0.1,0,0.3,0,0.3c0,0,0,0,0,0c0,0,0,0,0,0l0,0c0-0.1-0.1-0.1-0.3-0.1l-0.3,0V3.2z"/>
<path class="st1" d="M16,3.2c0,0.2,0,0.4,0,0.5c0,0.1,0,0.1,0.1,0.1c0,0,0.1,0,0.1,0c0,0,0,0,0,0c0,0,0,0,0,0c-0.1,0-0.3,0-0.3,0
	c0,0-0.2,0-0.3,0c0,0,0,0,0,0c0,0,0,0,0,0c0,0,0.1,0,0.1,0c0.1,0,0.1-0.1,0.1-0.1c0-0.1,0-0.3,0-0.5V3c0,0,0,0,0,0h-1.1c0,0,0,0,0,0
	v0.2c0,0.2,0,0.4,0,0.5c0,0.1,0,0.1,0.1,0.1c0,0,0.1,0,0.1,0c0,0,0,0,0,0c0,0,0,0,0,0c-0.1,0-0.3,0-0.3,0c0,0-0.2,0-0.3,0
	c0,0,0,0,0,0c0,0,0,0,0,0c0,0,0.1,0,0.1,0c0,0,0.1-0.1,0.1-0.1c0-0.1,0-0.3,0-0.5V2.8c0-0.4,0-0.5,0-0.5c0-0.1,0-0.1-0.1-0.1
	c0,0-0.1,0-0.1,0c0,0,0,0,0,0c0,0,0,0,0,0c0.1,0,0.3,0,0.3,0c0,0,0.2,0,0.3,0c0,0,0,0,0,0c0,0,0,0,0,0c0,0,0,0-0.1,0
	c-0.1,0-0.1,0-0.1,0.1c0,0.1,0,0.2,0,0.5v0.1c0,0,0,0,0,0h1.1c0,0,0,0,0,0V2.8c0-0.4,0-0.5,0-0.5c0-0.1,0-0.1-0.1-0.1
	c0,0-0.1,0-0.1,0c0,0,0,0,0,0c0,0,0,0,0,0c0.1,0,0.3,0,0.3,0c0,0,0.2,0,0.3,0c0,0,0,0,0,0c0,0,0,0,0,0c0,0,0,0-0.1,0
	c-0.1,0-0.1,0-0.1,0.1c0,0.1,0,0.1,0,0.5V3.2z"/>
<path class="st1" d="M16.8,2.8c0-0.4,0-0.5,0-0.5c0-0.1,0-0.1-0.1-0.1c0,0-0.1,0-0.1,0c0,0,0,0,0,0c0,0,0,0,0,0c0.1,0,0.3,0,0.3,0
	c0,0,0.5,0,0.6,0c0,0,0.1,0,0.1,0c0,0,0,0,0,0c0,0,0,0,0,0c0,0,0,0,0,0.1c0,0,0,0.1,0,0.2c0,0,0,0,0,0c0,0,0,0,0,0c0,0,0-0.1,0-0.1
	c0,0,0-0.1-0.2-0.1c0,0-0.3,0-0.4,0c0,0,0,0,0,0v0.7c0,0,0,0,0,0c0,0,0.4,0,0.4,0c0.1,0,0.1,0,0.1,0c0,0,0,0,0,0c0,0,0,0,0,0
	s0,0.1,0,0.1c0,0,0,0.1,0,0.2c0,0,0,0,0,0c0,0,0,0,0,0c0,0,0,0,0-0.1c0,0,0-0.1-0.1-0.1c-0.1,0-0.3,0-0.4,0c0,0,0,0,0,0v0.2
	c0,0.1,0,0.4,0,0.4c0,0.2,0.1,0.2,0.3,0.2c0.1,0,0.2,0,0.3,0c0.1,0,0.1-0.1,0.1-0.2c0,0,0,0,0,0c0,0,0,0,0,0c0,0,0,0.2,0,0.2
	c0,0.1,0,0.1-0.1,0.1c-0.2,0-0.3,0-0.4,0c-0.1,0-0.2,0-0.2,0c0,0-0.1,0-0.1,0c0,0-0.1,0-0.1,0c0,0,0,0,0,0c0,0,0,0,0,0
	c0,0,0.1,0,0.1,0c0,0,0.1-0.1,0.1-0.1c0-0.1,0-0.3,0-0.5V2.8z"/>
<path class="st1" d="M5.6,13.5c0-0.4,0-0.5,0-0.5c0-0.1,0-0.1-0.1-0.1c0,0-0.1,0-0.1,0c0,0,0,0,0,0c0,0,0,0,0,0c0.1,0,0.3,0,0.3,0
	c0,0,0.6,0,0.7,0c0,0,0.1,0,0.1,0c0,0,0,0,0,0c0,0,0,0,0,0c0,0,0,0,0,0.1c0,0,0,0.1,0,0.2c0,0,0,0,0,0s0,0,0,0c0,0,0-0.1,0-0.1
	c0,0-0.1-0.1-0.2-0.1l-0.4,0c0,0,0,0,0,0v0.7c0,0,0,0,0,0l0.3,0c0,0,0.1,0,0.1,0c0.1,0,0.1,0,0.1,0c0,0,0,0,0,0c0,0,0,0,0,0
	c0,0,0,0.1,0,0.1c0,0,0,0.1,0,0.2c0,0,0,0,0,0c0,0,0,0,0,0c0,0,0-0.1,0-0.1c0,0-0.1-0.1-0.1-0.1c-0.1,0-0.4,0-0.4,0c0,0,0,0,0,0V14
	c0,0.2,0,0.4,0,0.5c0,0.1,0,0.1,0.1,0.1c0,0,0.1,0,0.1,0c0,0,0,0,0,0c0,0,0,0,0,0c-0.1,0-0.3,0-0.3,0c0,0-0.2,0-0.3,0c0,0,0,0,0,0
	c0,0,0,0,0,0c0,0,0.1,0,0.1,0c0,0,0.1-0.1,0.1-0.1c0-0.1,0-0.3,0-0.5V13.5z"/>
<path class="st1" d="M8.4,14.6c0.2,0,0.7-0.1,0.7-0.8c0-0.6-0.4-0.9-0.8-0.9c-0.4,0-0.7,0.3-0.7,0.8C7.6,14.3,7.9,14.6,8.4,14.6
	 M8.3,12.8c0.6,0,1,0.4,1,0.9c0,0.5-0.4,1-1,1c-0.7,0-1-0.5-1-1C7.3,13.4,7.6,12.8,8.3,12.8"/>
<path class="st1" d="M10.3,13.5c0-0.4,0-0.5,0-0.5c0-0.1,0-0.1-0.1-0.1c0,0-0.1,0-0.1,0c0,0,0,0,0,0c0,0,0,0,0,0c0.1,0,0.3,0,0.3,0
	s0.2,0,0.3,0c0,0,0,0,0,0c0,0,0,0,0,0c0,0,0,0-0.1,0c-0.1,0-0.1,0.1-0.1,0.1c0,0.1,0,0.1,0,0.5v0.3c0,0.4,0.1,0.5,0.2,0.6
	c0.1,0.1,0.2,0.1,0.4,0.1c0.2,0,0.3-0.1,0.4-0.2c0.1-0.1,0.1-0.3,0.1-0.6v-0.3c0-0.4,0-0.5,0-0.5c0-0.1,0-0.1-0.1-0.1
	c0,0-0.1,0-0.1,0c0,0,0,0,0,0c0,0,0,0,0,0c0.1,0,0.3,0,0.3,0c0,0,0.1,0,0.2,0c0,0,0,0,0,0c0,0,0,0,0,0c0,0,0,0-0.1,0
	c-0.1,0-0.1,0.1-0.1,0.1c0,0.1,0,0.1,0,0.5v0.3c0,0.3,0,0.6-0.2,0.7c-0.2,0.2-0.4,0.2-0.5,0.2c-0.1,0-0.4,0-0.5-0.2
	c-0.1-0.1-0.2-0.3-0.2-0.6V13.5z"/>
<path class="st1" d="M13.1,14.4c0,0.2,0,0.3,0.1,0.3c0,0,0.1,0,0.1,0c0,0,0,0,0,0c0,0,0,0,0,0c-0.1,0-0.2,0-0.3,0c0,0-0.1,0-0.2,0
	c0,0,0,0,0,0c0,0,0,0,0,0c0,0,0.1,0,0.1,0c0.1,0,0.1-0.1,0.1-0.3v-1.4c0-0.1,0-0.1,0-0.1c0,0,0.1,0,0.1,0.1c0,0,0.4,0.4,0.8,0.8
	c0.3,0.3,0.5,0.6,0.6,0.6l0-1.2c0-0.2,0-0.2-0.1-0.2c0,0-0.1,0-0.1,0c0,0,0,0,0,0c0,0,0,0,0,0c0.1,0,0.2,0,0.3,0c0,0,0.1,0,0.2,0
	c0,0,0,0,0,0c0,0,0,0,0,0c0,0,0,0-0.1,0c-0.1,0-0.1,0.1-0.1,0.2l0,1.4c0,0.2,0,0.2,0,0.2c0,0-0.1,0-0.2-0.2c0,0-0.4-0.4-0.7-0.7
	c-0.3-0.3-0.6-0.6-0.7-0.7L13.1,14.4z"/>
<path class="st1" d="M16,13.8c0,0.3,0,0.5,0,0.5c0,0.1,0,0.2,0,0.2c0,0,0.1,0.1,0.4,0.1c0.2,0,0.4-0.1,0.6-0.2
	c0.1-0.1,0.2-0.4,0.2-0.6c0-0.3-0.1-0.5-0.2-0.6c-0.2-0.2-0.5-0.3-0.8-0.3c0,0-0.1,0-0.2,0c0,0,0,0,0,0V13.8z M15.8,13.5
	c0-0.4,0-0.5,0-0.5c0-0.1,0-0.1-0.1-0.1c0,0-0.1,0-0.1,0c0,0,0,0,0,0c0,0,0,0,0,0c0.1,0,0.3,0,0.3,0c0,0,0.2,0,0.3,0
	c0.3,0,0.7,0,1,0.3c0.1,0.1,0.2,0.3,0.2,0.6c0,0.3-0.1,0.5-0.3,0.7c-0.1,0.1-0.3,0.3-0.8,0.3c-0.1,0-0.2,0-0.4,0c-0.1,0-0.2,0-0.2,0
	c0,0-0.1,0-0.1,0c-0.1,0-0.1,0-0.2,0c0,0,0,0,0,0c0,0,0,0,0,0c0,0,0.1,0,0.1,0c0,0,0.1-0.1,0.1-0.1c0-0.1,0-0.3,0-0.5V13.5z"/>
<path class="st1" d="M19.2,13.9C19.2,13.9,19.2,13.9,19.2,13.9L19,13.2c0,0,0,0,0,0l-0.2,0.7c0,0,0,0,0,0H19.2z M18.9,12.9
	C19,12.8,19,12.8,18.9,12.9c0.1-0.1,0.1-0.1,0.1,0c0,0.1,0.5,1.1,0.6,1.5c0.1,0.2,0.2,0.3,0.2,0.3c0,0,0.1,0,0.1,0c0,0,0,0,0,0
	c0,0,0,0-0.1,0c0,0-0.2,0-0.4,0c0,0-0.1,0-0.1,0c0,0,0,0,0,0c0,0,0,0,0-0.1L19.3,14c0,0,0,0,0,0h-0.6c0,0,0,0,0,0l-0.1,0.4
	c0,0.1,0,0.1,0,0.2c0,0,0,0.1,0.1,0.1h0c0,0,0,0,0,0c0,0,0,0,0,0c-0.1,0-0.2,0-0.2,0c0,0-0.2,0-0.3,0c0,0,0,0,0,0c0,0,0,0,0,0
	c0,0,0.1,0,0.1,0c0.1,0,0.2-0.1,0.2-0.2L18.9,12.9z"/>
<path class="st1" d="M21.2,14c0,0.2,0,0.4,0,0.5c0,0.1,0,0.1,0.1,0.1c0,0,0.1,0,0.1,0c0,0,0,0,0,0c0,0,0,0,0,0c-0.1,0-0.3,0-0.3,0
	c0,0-0.2,0-0.3,0c0,0,0,0,0,0c0,0,0,0,0,0c0,0,0.1,0,0.1,0c0.1,0,0.1-0.1,0.1-0.1c0-0.1,0-0.3,0-0.5v-1l-0.4,0c-0.2,0-0.2,0-0.3,0.1
	c0,0,0,0.1,0,0.1c0,0,0,0,0,0c0,0,0,0,0,0c0,0,0.1-0.2,0.1-0.3c0,0,0,0,0,0c0,0,0,0,0.1,0c0.1,0,0.2,0,0.2,0h1c0.1,0,0.1,0,0.2,0
	c0,0,0.1,0,0.1,0s0,0,0,0c0,0.1,0,0.3,0,0.3c0,0,0,0,0,0c0,0,0,0,0,0l0,0c0-0.1-0.1-0.1-0.3-0.1l-0.3,0V14z"/>
<path class="st1" d="M23.1,14c0,0.2,0,0.4,0,0.5c0,0.1,0,0.1,0.1,0.1c0,0,0.1,0,0.1,0c0,0,0,0,0,0c0,0,0,0,0,0c-0.1,0-0.3,0-0.3,0
	c0,0-0.2,0-0.3,0c0,0,0,0,0,0c0,0,0,0,0,0c0,0,0.1,0,0.1,0c0,0,0.1-0.1,0.1-0.1c0-0.1,0-0.3,0-0.5v-0.4c0-0.4,0-0.5,0-0.5
	c0-0.1,0-0.1-0.1-0.1c0,0-0.1,0-0.1,0c0,0,0,0,0,0c0,0,0,0,0,0c0.1,0,0.2,0,0.3,0c0,0,0.2,0,0.3,0c0,0,0,0,0,0c0,0,0,0,0,0
	c0,0,0,0-0.1,0c-0.1,0-0.1,0-0.1,0.1c0,0.1,0,0.1,0,0.5V14z"/>
<path class="st1" d="M25.2,14.6c0.2,0,0.7-0.1,0.7-0.8c0-0.6-0.4-0.9-0.8-0.9c-0.4,0-0.7,0.3-0.7,0.8C24.4,14.3,24.7,14.6,25.2,14.6
	 M25.1,12.8c0.6,0,1,0.4,1,0.9c0,0.5-0.4,1-1,1c-0.7,0-1-0.5-1-1C24.1,13.4,24.4,12.8,25.1,12.8"/>
<path class="st1" d="M27.2,14.4c0,0.2,0,0.3,0.1,0.3c0,0,0.1,0,0.1,0c0,0,0,0,0,0c0,0,0,0,0,0c-0.1,0-0.2,0-0.3,0s-0.1,0-0.2,0
	c0,0,0,0,0,0c0,0,0,0,0,0c0,0,0.1,0,0.1,0c0.1,0,0.1-0.1,0.1-0.3v-1.4c0-0.1,0-0.1,0-0.1c0,0,0.1,0,0.1,0.1c0,0,0.4,0.4,0.8,0.8
	c0.3,0.3,0.5,0.6,0.6,0.6l0-1.2c0-0.2,0-0.2-0.1-0.2c0,0-0.1,0-0.1,0c0,0,0,0,0,0c0,0,0,0,0,0c0.1,0,0.2,0,0.3,0c0,0,0.1,0,0.2,0
	c0,0,0,0,0,0c0,0,0,0,0,0c0,0,0,0-0.1,0c-0.1,0-0.1,0.1-0.1,0.2l0,1.4c0,0.2,0,0.2,0,0.2c0,0-0.1,0-0.2-0.2c0,0-0.4-0.4-0.7-0.7
	c-0.3-0.3-0.6-0.6-0.7-0.7L27.2,14.4z"/>
<path class="st0" d="M3.8,12.2C3.8,12.2,3.8,12.2,3.8,12.2c0-0.3,0-0.4,0-0.4c0-0.1,0.2-1.4,0.2-1.7c0-0.3,0-0.4,0-0.4
	c0.2-1.1-0.2-2.3-0.2-2.3C4,7.3,3.7,6.7,3.7,6.7C3.5,6.2,3.3,5.5,3.3,5.5c0,0,0,0,0,0c0-0.2-0.1-0.4-0.1-0.6c0-0.4,0-0.8,0-0.9
	c0-0.1,0.1-0.1,0.1-0.2c0-0.1-0.1-0.4-0.1-0.4c0,0,0-0.1,0-0.1c0,0,0-0.1,0-0.1c0-0.1-0.1-0.2-0.2-0.2H1.8c-0.1,0-0.2,0.1-0.2,0.2
	c0,0,0,0,0,0.1c0,0,0,0.1,0,0.1c0,0-0.1,0.3-0.1,0.4c0,0.1,0.1,0.1,0.1,0.2c0,0.1,0,0.5,0,0.9c0,0.3-0.1,0.5-0.1,0.6c0,0,0,0,0,0
	S1.2,6.2,1,6.7c0,0-0.3,0.6-0.1,0.7c0,0-0.4,1.2-0.2,2.3c0,0-0.1,0.1,0,0.4c0,0.3,0.2,1.6,0.2,1.7c0,0,0,0.2,0,0.4c0,0,0,0.1,0,0.1
	c0,0.8-0.3,1.2-0.3,1.7c0,0.7,0.4,1,1.8,1c1.3,0,1.8-0.4,1.8-1C4.1,13.4,3.8,13,3.8,12.2"/>
</svg>
