<?xml version="1.0" encoding="utf-8"?>
<!-- Generator: Adobe Illustrator 25.0.1, SVG Export Plug-In . SVG Version: 6.00 Build 0)  -->
<svg version="1.1" id="Layer_1" xmlns="http://www.w3.org/2000/svg" xmlns:xlink="http://www.w3.org/1999/xlink" x="0px" y="0px"
	 viewBox="0 0 85.1 24.6" style="enable-background:new 0 0 85.1 24.6;" xml:space="preserve">
<style type="text/css">
	.st0{fill:#D1232A;}
	.st1{fill:#FFFFFF;}
</style>
<path class="st0" d="M17.8,17.2C17.3,17.1,16.7,17,16,17c-0.6,0-1.2,0-2.2,0.2s-2.5,0.7-3.5,0.9c-1,0.2-1.5,0.3-2,0.3
	c-0.2,0-0.5,0-0.7-0.1c-0.2,0-0.4-0.1-0.5-0.2C6.9,18,6.8,18,6.7,17.9s-0.2-0.2-0.3-0.3c-0.1-0.1-0.2-0.2-0.2-0.3
	C6.1,17.3,6,17.2,6,17s-0.1-0.3-0.1-0.4c0-0.2,0-0.3,0-0.5c0-0.3,0.1-0.5,0.2-0.9c0.1-0.3,0.3-0.8,0.5-1.3s0.6-1.2,1-1.8
	s0.8-1.2,1.2-1.7C9.3,9.9,9.7,9.5,10,9.1c0.3-0.3,0.6-0.6,0.9-0.8c0.2-0.2,0.5-0.3,0.6-0.4c0.2-0.1,0.3-0.1,0.5-0.2
	c0.1,0,0.3,0,0.4,0c0.1,0,0.1,0,0.2,0.1s0.1,0.1,0.1,0.2c0,0,0,0.1,0,0.2c-0.2,0.1-0.4,0.2-0.6,0.4c-0.1,0-0.1,0.1-0.2,0.1
	c-0.1,0.1-0.2,0.3-0.2,0.4c0,0.1,0.1,0.3,0.2,0.3c0.2,0.2,0.5,0.1,0.8-0.3c0-0.1,0.1-0.1,0.2-0.2c0-0.1,0.1-0.2,0.1-0.3
	c0.1-0.4,0.2-0.7,0-1.1c0-0.1-0.1-0.1-0.2-0.2c-0.1,0-0.2-0.1-0.3-0.1s-0.2,0-0.4,0s-0.4,0-0.7,0.1s-0.6,0.2-0.9,0.3
	c-0.2,0.2-0.6,0.4-1,0.6c-0.4,0.3-0.9,0.6-1.3,1c-0.5,0.4-0.9,0.9-1.4,1.4c-0.9,1.1-1.6,2.2-2,3.1c-0.2,0.4-0.3,0.8-0.4,1.2
	c-0.1,0.3-0.2,0.7-0.2,1c0,0.4,0,0.8,0,1.2c0,0.2,0.1,0.3,0.1,0.4s0.1,0.3,0.2,0.4s0.2,0.2,0.3,0.3c0.1,0.1,0.2,0.2,0.3,0.3
	c0.1,0.1,0.3,0.2,0.5,0.2c0.2,0.1,0.4,0.1,0.7,0.2C6.6,19,6.9,19,7.2,19c0.5,0,1,0,1.9-0.2s2.1-0.5,3-0.7c0.9-0.2,1.4-0.2,1.9-0.2
	c0.3,0,0.6,0,0.9,0.1s0.5,0.1,0.6,0.2c0.2,0.1,0.3,0.2,0.5,0.3c0.2,0.1,0.4,0.3,0.6,0.6c0.6-0.4,1.2-0.6,1.6-0.7
	c0.2,0,0.4-0.1,0.6-0.1c0.1,0,0.2,0,0.3,0c0.1,0,0.2,0,0.5,0.1s0.8,0.3,1.3,0.5c-0.5-0.5-1.1-0.9-1.5-1.2
	C18.8,17.5,18.4,17.3,17.8,17.2 M24.4,10.3h-1.2l-0.6,1.1h1.1L24.4,10.3z M41.5,8.4C41,8.7,40.6,8.9,40.1,9S39,9.2,38.5,9.2l-1,1.2
	c0.1,0,0.2,0,0.2,0c0.1,0,0.3,0,0.5,0c0.4,0,0.7,0,1.1-0.1c0.8-0.2,1.7-0.7,2.3-1.2c0.3-0.3,0.6-0.6,0.9-0.9
	c0.2-0.3,0.4-0.6,0.5-0.9C42.6,7.7,42,8.1,41.5,8.4 M40.2,16.2c-0.2,0.3-0.4,0.6-0.6,0.8c-0.2,0.2-0.3,0.3-0.4,0.5
	c-0.1,0.1-0.2,0.2-0.3,0.2s-0.1,0.1-0.2,0.1c-0.1,0-0.1,0.1-0.2,0c-0.1,0-0.1-0.1-0.1-0.1s0,0,0.1-0.2s0.3-0.5,0.4-0.8l2-3.5h-1
	l-0.3,0.3c-0.1-0.1-0.2-0.2-0.3-0.2s-0.1-0.1-0.2-0.1c-0.1,0-0.1,0-0.2,0c-0.3,0-0.7,0.1-1,0.3c-0.1,0.1-0.2,0.1-0.4,0.2
	c-0.1,0.1-0.3,0.2-0.4,0.4c-0.2,0.2-0.4,0.4-0.7,0.8c-0.4,0.5-0.9,1.2-1.3,1.6c-0.4,0.5-0.6,0.8-0.7,0.9c-0.1,0.2-0.2,0.2-0.3,0.3
	c-0.1,0-0.1,0.1-0.1,0.1s-0.1,0-0.2,0c-0.1,0-0.2-0.1-0.2-0.2c0-0.2,0-0.3,0-0.5s0.1-0.4,0.2-0.7s0.2-0.7,0.4-1
	c0.8-0.5,1.5-1,2.1-1.5s1-0.9,1.4-1.4s0.8-1.1,1.2-1.7h-0.5c-0.3,0.4-0.6,0.8-1,1.3S36.5,13,36,13.4s-1,0.8-1.5,1.2
	c0.3-0.6,0.7-1.3,1.1-1.9c0.4-0.6,0.8-1.2,1.2-1.8s0.8-1.1,1.1-1.5s0.7-0.8,0.9-1s0.4-0.4,0.6-0.5c0.1-0.1,0.3-0.2,0.3-0.2
	c0.1,0,0.1,0,0.2,0c0,0,0,0,0.1,0c0.1,0.1,0.1,0.1,0.1,0.2c0,0,0,0.1-0.1,0.2c0,0.1-0.1,0.3-0.2,0.5h0.4c0.1-0.1,0.1-0.2,0.2-0.3
	s0-0.1,0.1-0.2c0,0,0-0.1,0-0.2c0-0.2,0-0.4-0.2-0.6c0,0-0.1-0.1-0.2-0.1c-0.2-0.1-0.4,0-0.6,0c-0.2,0-0.4,0.1-0.6,0.2
	c-0.2,0.1-0.5,0.3-0.8,0.6s-0.7,0.6-1.2,1.1c-0.4,0.5-0.9,1-1.4,1.7s-1,1.4-1.5,2.2s-0.9,1.6-1.3,2.4h-0.5c0.1-0.2,0.2-0.5,0.3-0.6
	c0.1-0.2,0.1-0.3,0.1-0.4c0.1-0.3,0.1-0.6,0-0.8c0-0.1-0.1-0.1-0.1-0.2c-0.2-0.2-0.3-0.2-0.6-0.2c-0.1,0-0.2,0-0.3,0
	c-0.1,0-0.3,0.1-0.4,0.1c-0.2,0.1-0.3,0.2-0.5,0.3s-0.4,0.3-0.7,0.5c-0.2,0.2-0.5,0.5-0.7,0.8c-0.5,0.6-0.9,1.3-1.1,1.7
	c-0.1,0.2-0.2,0.5-0.2,0.7s-0.1,0.4-0.1,0.5s0,0.3,0,0.4s0,0.2,0.1,0.3c0,0.1,0.1,0.2,0.2,0.2s0.1,0.1,0.2,0.1s0.2,0,0.3,0
	c0.2,0,0.4,0,0.7-0.2c0.1-0.1,0.3-0.2,0.4-0.3c0.2-0.1,0.4-0.3,0.6-0.5s0.5-0.5,0.8-0.9s0.6-0.8,0.9-1.3h0.5c-0.2,0.5-0.3,1-0.4,1.3
	c-0.1,0.3-0.1,0.4-0.1,0.6s-0.1,0.5,0,0.7c0,0.1,0,0.2,0,0.2c0,0.1,0.1,0.1,0.1,0.2c0,0,0.1,0.1,0.2,0.2c0.1,0,0.1,0.1,0.2,0.1
	c0.1,0,0.2,0,0.2,0c0.3,0,0.6-0.1,1-0.3c0.1-0.1,0.3-0.2,0.5-0.4c0.2-0.2,0.4-0.4,0.6-0.6c0,0.1,0,0.3,0,0.4s0,0.2,0,0.3
	c0,0.1,0,0.1,0,0.2c0,0,0,0.1,0.1,0.1c0,0.1,0.1,0.1,0.1,0.2c0.1,0.1,0.2,0.1,0.3,0.1s0.1,0,0.2,0c0.1,0,0.3-0.1,0.5-0.2
	c0.1-0.1,0.2-0.1,0.3-0.3c0.1-0.1,0.3-0.3,0.5-0.5c0,0.1,0,0.3,0,0.4s0,0.2,0,0.2c0,0.1,0,0.1,0,0.1c0,0.1,0.1,0.2,0.2,0.3
	c0.3,0.1,0.5,0,0.9-0.1c0.1-0.1,0.3-0.2,0.4-0.3c0.2-0.1,0.3-0.3,0.5-0.5s0.4-0.5,0.7-0.8c0.2-0.3,0.5-0.7,0.7-1.2L40.2,16.2z
	 M31.2,16.5c-0.1,0.2-0.3,0.4-0.4,0.6s-0.3,0.3-0.4,0.4s-0.2,0.2-0.3,0.2c-0.1,0-0.1,0.1-0.2,0.1h-0.1c-0.1,0-0.2,0-0.3-0.2
	c0,0,0-0.1-0.1-0.1c0-0.1,0-0.2,0-0.4c0-0.1,0-0.2,0.1-0.3c0-0.1,0.1-0.3,0.1-0.4c0.2-0.5,0.6-1,1.1-1.4c0,0.1,0.1,0.2,0.2,0.3
	c0,0,0.1,0.1,0.2,0.1s0.1,0.1,0.3,0.1c0.1,0,0.3,0.1,0.4,0.2C31.5,16.1,31.3,16.3,31.2,16.5 M32.2,14.4c0,0.1,0,0.1,0,0.2
	c0,0.1,0,0.1-0.1,0.3c-0.1,0.1-0.2,0.4-0.3,0.6c-0.1,0-0.2-0.1-0.3-0.1c-0.1,0-0.1-0.1-0.2-0.1l-0.1-0.1C31.1,15.1,31,15,31,14.9
	c-0.1-0.4,0-0.8,0.4-1.1c0.1-0.1,0.3-0.1,0.4-0.1s0.2,0,0.3,0.1s0.1,0.2,0.1,0.3C32.2,14.2,32.2,14.3,32.2,14.4 M37.5,16.8
	c-0.1,0.2-0.3,0.4-0.4,0.6c-0.1,0.1-0.2,0.2-0.3,0.3c-0.1,0.1-0.1,0.1-0.2,0.1c-0.1,0.1-0.3,0.1-0.4,0c-0.1-0.1-0.1-0.2-0.1-0.3
	c0-0.1,0-0.1,0-0.2s0-0.2,0.1-0.3c0-0.1,0.1-0.2,0.2-0.4c0.1-0.1,0.2-0.3,0.3-0.5c0.1-0.2,0.3-0.4,0.4-0.6c0.2-0.2,0.4-0.5,0.6-0.7
	c0.2-0.2,0.4-0.4,0.5-0.5s0.3-0.2,0.4-0.3c0.1-0.1,0.2-0.1,0.2-0.1h0.1c0.1,0,0.1,0,0.2,0c0.1,0.1,0,0.1,0,0.2c0,0,0,0.1-0.1,0.2
	c0,0.1-0.1,0.2-0.2,0.3L37.5,16.8z M28.5,14.8c0.1-0.2,0.1-0.5,0.1-0.7s0-0.3,0-0.5c0-0.1,0-0.1-0.1-0.2c-0.1-0.1-0.1-0.2-0.2-0.2
	c0,0-0.1,0-0.2-0.1c-0.1,0-0.2,0-0.3,0s-0.2,0-0.3,0c-0.5,0.1-1,0.3-1.5,0.9c-0.1,0.1-0.3,0.3-0.4,0.5s-0.2,0.4-0.4,0.6
	c-0.1,0.2-0.2,0.5-0.3,0.8c-0.1,0.3-0.2,0.5-0.2,0.8c0.3-0.2,0.5-0.4,0.7-0.6c0.2-0.1,0.3-0.2,0.5-0.3s0.3-0.2,0.5-0.3
	c0.1-0.3,0.2-0.6,0.3-0.9c0.1-0.1,0.1-0.2,0.2-0.3s0.1-0.2,0.2-0.2c0.2-0.2,0.3-0.3,0.5-0.4c0.2-0.1,0.4-0.1,0.6,0.1
	c0.1,0.1,0.1,0.2,0.1,0.3c0,0.4-0.1,0.7-0.2,1.1c-0.1,0.2-0.1,0.3-0.2,0.5s-0.2,0.4-0.4,0.6c-0.3,0.4-0.7,0.8-1.1,1.2
	c-0.4,0.3-0.9,0.6-1.2,0.7c-0.1,0-0.3,0.1-0.4,0.1s-0.2,0-0.3,0c-0.2-0.1-0.4-0.2-0.5-0.4c-0.1-0.1-0.1-0.2-0.2-0.3
	c-0.1-0.2-0.1-0.4-0.1-0.7c0-0.2,0.1-0.5,0.2-0.9c0.2-0.4,0.4-1,0.8-1.7s0.8-1.4,1.2-2.1c0.4-0.7,0.8-1.2,1.2-1.7
	c0.4-0.5,0.7-0.8,1-1.1s0.6-0.5,0.8-0.7c0.2-0.2,0.4-0.3,0.6-0.4c0.2-0.1,0.4-0.2,0.5-0.2c0.4-0.2,0.8-0.2,1.2-0.2
	C31,8,30.7,8.3,30.4,8.5c-0.6,0.4-1,0.9-1.3,1.3c-0.1,0.2-0.2,0.4-0.3,0.6c-0.1,0.2-0.1,0.3-0.2,0.5c0,0.1-0.1,0.3-0.1,0.4
	c0,0.1,0,0.2,0,0.3s0,0.1,0,0.2c0,0,0,0.1,0.1,0.1l0.1,0.1c0,0,0.1,0,0.2,0.1c0.1,0,0.1,0,0.2,0c0.2,0,0.3,0,0.6-0.1
	c0.1,0,0.2-0.1,0.4-0.2c0.1-0.1,0.3-0.2,0.4-0.4c0.1-0.1,0.3-0.3,0.4-0.5s0.3-0.4,0.4-0.6c0.2-0.4,0.4-0.8,0.5-1.1
	c0-0.2,0.1-0.3,0.1-0.5V8.6c0-0.1,0-0.2,0-0.3s0-0.1,0-0.2c0.4,0,0.8,0,1.1,0.1s0.7,0.2,1.1,0.5c0.5,0.3,1.1,0.7,1.6,1.2l1.1-1.1
	c-0.4-0.3-0.7-0.6-1.1-0.8c-0.3-0.2-0.6-0.4-0.9-0.5c-0.2-0.1-0.5-0.2-0.7-0.2c-0.3-0.1-0.6-0.1-0.9,0c-0.1,0-0.2,0-0.5,0.1
	c-0.2,0.1-0.6,0.2-1,0.3c-0.2-0.1-0.4-0.2-0.5-0.3c-0.1-0.1-0.2-0.1-0.3-0.1c-0.4-0.1-0.7,0-1.1,0.1c-0.3,0.1-0.7,0.2-1.2,0.5
	c-0.5,0.2-1,0.6-1.5,1s-1.1,0.9-1.6,1.4s-1,1-1.4,1.6c-0.4,0.5-0.7,1-1,1.5s-0.5,0.9-0.6,1.3c-0.2,0.4-0.3,0.8-0.4,1.2
	s-0.1,0.7-0.2,1c0,0.3,0,0.5,0,0.7S22,18,22,18.2c0.1,0.2,0.2,0.3,0.3,0.5c0.1,0.1,0.3,0.3,0.4,0.4c0.2,0.1,0.3,0.2,0.5,0.2
	c0.4,0.1,0.8,0.1,1.2,0c0.2-0.1,0.5-0.2,0.8-0.3c0.6-0.3,1.2-0.8,1.7-1.4s0.9-1.2,1.1-1.7C28.4,15.3,28.5,15.1,28.5,14.8 M31.5,8.2
	c0,0.2-0.1,0.4-0.1,0.7c-0.1,0.2-0.2,0.5-0.3,0.8c-0.1,0.3-0.2,0.5-0.3,0.7c-0.1,0.2-0.2,0.4-0.3,0.5c-0.3,0.3-0.5,0.5-0.7,0.6
	s-0.5,0.1-0.7,0c0,0-0.1-0.1-0.1-0.2c0-0.2,0-0.5,0.1-0.7c0-0.1,0.1-0.2,0.2-0.4s0.2-0.3,0.3-0.4c0.1-0.2,0.3-0.3,0.5-0.5
	s0.4-0.4,0.7-0.6C31,8.6,31.2,8.4,31.5,8.2 M20.7,14.2c-0.2,0.2-0.3,0.3-0.4,0.4c-0.1,0.1-0.1,0.1-0.2,0.1c-0.1,0.1-0.2,0.1-0.2,0.1
	l-0.1-0.1c0,0,0,0,0-0.1c0,0,0.1-0.1,0.2-0.4c0.1-0.2,0.3-0.6,0.5-1l1.7-2.9h-1.1l-0.2,0.2c-0.1-0.1-0.3-0.2-0.4-0.2
	s-0.2-0.1-0.2-0.1c-0.1,0-0.1,0-0.2,0c-0.3,0-0.5,0.1-0.8,0.3c-0.1,0.1-0.2,0.2-0.4,0.3c-0.2,0.1-0.4,0.3-0.8,0.7s-0.9,1.1-1.4,1.7
	c-0.5,0.6-0.8,1-1.1,1.3s-0.4,0.4-0.5,0.5s-0.2,0.1-0.3,0.2c-0.1,0-0.2,0.1-0.2,0.1c-0.2,0-0.4,0-0.5-0.1S14,15.1,14,15
	c0-0.2,0-0.4,0-0.6c0-0.1,0.1-0.3,0.1-0.4c0-0.1,0.1-0.3,0.2-0.5c0.1-0.2,0.2-0.4,0.4-0.7c0.3-0.5,0.8-1.1,1.2-1.4
	c0.2-0.2,0.3-0.3,0.4-0.4c0.1-0.1,0.2-0.1,0.3-0.1c0.1,0,0.1,0,0.1,0c0.1,0,0.1,0,0.2,0C17,11,17,11,17,11.1c0,0,0,0.1,0,0.2
	c-0.1,0-0.2,0-0.3,0.1c-0.1,0-0.1,0-0.2,0.1c0,0-0.1,0-0.1,0.1c-0.3,0-0.4,0.2-0.4,0.4c0,0.1,0.1,0.1,0.1,0.2
	c0.2,0.2,0.4,0.1,0.7-0.2c0,0,0.1-0.1,0.1-0.2c0.1-0.2,0.2-0.4,0.3-0.6c0.1-0.3,0-0.6-0.3-0.9c-0.1-0.1-0.2-0.1-0.4-0.1
	c-0.1,0-0.2,0-0.3,0c-0.1,0-0.2,0.1-0.4,0.1c-0.1,0-0.3,0.1-0.5,0.3c-0.3,0.2-0.7,0.6-1,0.9c-0.3,0.3-0.5,0.4-0.7,0.6
	c-0.2,0.1-0.4,0.2-0.5,0.3c-0.2,0.1-0.3,0.1-0.5,0.1c0.1-0.2,0.2-0.4,0.2-0.6c0.1-0.2,0.1-0.3,0.1-0.5c0-0.1,0-0.2,0-0.3
	c0-0.2,0-0.3,0-0.5c0-0.1,0-0.1-0.1-0.2c-0.1-0.1-0.2-0.2-0.3-0.2c-0.2-0.1-0.5-0.1-0.7,0c-0.1,0-0.3,0.1-0.5,0.2s-0.4,0.2-0.6,0.4
	c-0.2,0.2-0.5,0.4-0.7,0.6c-0.2,0.2-0.5,0.5-0.7,0.8c-0.4,0.5-0.8,1.1-1,1.6c-0.1,0.2-0.2,0.4-0.2,0.6c0,0.2-0.1,0.4-0.1,0.5
	s0,0.2,0,0.3s0,0.2,0,0.3s0.1,0.1,0.1,0.2c0,0.1,0.1,0.1,0.2,0.2C8.5,16,8.6,16,8.7,16s0.2,0,0.3,0s0.2,0,0.3,0s0.2-0.1,0.4-0.1
	s0.3-0.1,0.4-0.3c0.2-0.1,0.3-0.3,0.5-0.5s0.4-0.5,0.7-0.8c0.3-0.4,0.7-0.9,1-1.4l0.8-0.2c-0.2,0.4-0.5,0.9-0.6,1.2
	s-0.2,0.4-0.2,0.6c-0.1,0.4-0.1,0.9,0.1,1.2c0.1,0.1,0.1,0.2,0.2,0.3c0.1,0.1,0.2,0.1,0.3,0.2c0.1,0,0.3,0.1,0.4,0.1
	c0.4,0,0.7-0.1,1.2-0.4c0.1-0.1,0.3-0.2,0.6-0.4c0.2-0.2,0.5-0.5,0.8-0.8c0,0.3,0,0.5,0,0.7s0,0.3,0,0.3c0,0.1,0,0.1,0,0.2V16
	c0.1,0.1,0.1,0.1,0.2,0.2c0.3,0.1,0.5,0,0.9-0.1c0.1,0,0.2-0.1,0.4-0.2c0.2-0.1,0.4-0.3,0.5-0.5c0,0.1,0,0.2,0,0.3s0,0.1,0,0.2
	s0,0.1,0.1,0.2s0.2,0.1,0.4,0.2c0.1,0,0.1,0,0.2,0c0.3,0,0.6-0.1,0.9-0.3c0.2-0.1,0.4-0.3,0.6-0.5s0.4-0.5,0.7-0.8
	c0.2-0.3,0.5-0.7,0.7-1.2h-0.2C21.2,13.6,20.9,14,20.7,14.2 M11,14.2c-0.2,0.3-0.3,0.4-0.4,0.5c-0.1,0.1-0.1,0.1-0.2,0.2L10.3,15
	c-0.2,0-0.5,0-0.6-0.2c0-0.1-0.1-0.2,0-0.3c0-0.1,0-0.2,0.1-0.3c0-0.1,0.1-0.3,0.2-0.5c0.1-0.2,0.2-0.5,0.4-0.7
	c0.2-0.3,0.4-0.6,0.7-0.9c0.1,0.1,0.2,0.3,0.3,0.4c0.1,0.1,0.2,0.1,0.3,0.2c0.1,0.1,0.2,0.1,0.4,0.2C11.6,13.4,11.3,13.9,11,14.2
	 M12.5,11.5c0,0.1,0,0.1,0,0.2c0,0.1,0,0.1-0.1,0.3c0,0.1-0.1,0.3-0.2,0.5c-0.1,0-0.2-0.1-0.3-0.1s-0.1-0.1-0.2-0.1l-0.1-0.1
	l-0.1-0.1c-0.2-0.3-0.1-0.6,0.1-0.9l0.1-0.1c0,0,0.1-0.1,0.2-0.1c0.2-0.1,0.3-0.1,0.5,0C12.6,11.1,12.5,11.3,12.5,11.5 M18.8,13.9
	c-0.1,0.1-0.2,0.3-0.3,0.4c-0.1,0.1-0.2,0.2-0.2,0.3c-0.1,0.1-0.1,0.1-0.2,0.2c-0.1,0.1-0.1,0.1-0.2,0.1s-0.2,0-0.3-0.1
	c-0.1-0.1-0.1-0.2-0.1-0.3c0,0,0-0.1,0-0.2c0-0.1,0.1-0.2,0.1-0.3c0.1-0.1,0.1-0.3,0.3-0.5s0.3-0.5,0.5-0.8s0.4-0.6,0.6-0.8
	s0.4-0.4,0.6-0.6c0.1-0.1,0.3-0.2,0.3-0.3s0.1-0.1,0.2-0.1s0.2,0,0.2,0c0.1,0.1,0.1,0.2,0.1,0.3c0,0,0,0.1-0.1,0.2
	c-0.1,0.1-0.2,0.3-0.3,0.5L18.8,13.9z"/>
<g>
	<path class="st1" d="M43.3,18.1c0,0.1-0.1,0.2-0.2,0.2c-0.1,0-0.2-0.1-0.2-0.2v-2.6c0-0.1,0.1-0.2,0.2-0.2c0.1,0,0.2,0.1,0.2,0.1
		l1.9,2.3h0v-2.2c0-0.1,0.1-0.2,0.2-0.2c0.1,0,0.2,0.1,0.2,0.2v2.6c0,0.1-0.1,0.2-0.2,0.2c-0.1,0-0.1,0-0.2-0.1l-1.9-2.3h0
		L43.3,18.1L43.3,18.1z"/>
	<path class="st1" d="M48,17.1c0-0.4-0.3-0.8-0.7-0.8c-0.5,0-0.7,0.4-0.7,0.8H48z M46.5,17.3c0,0.4,0.3,0.7,0.8,0.7
		c0.6,0,0.7-0.3,0.9-0.3c0.1,0,0.2,0,0.2,0.1c0,0.1-0.4,0.4-1,0.4c-0.8,0-1.2-0.6-1.2-1.1c0-0.6,0.4-1.1,1.1-1.1
		c0.7,0,1.1,0.5,1.1,1.1c0,0.1,0,0.2-0.2,0.2L46.5,17.3L46.5,17.3z"/>
	<path class="st1" d="M49.9,18c0.5,0,0.7-0.5,0.7-0.9s-0.2-0.9-0.7-0.9s-0.7,0.5-0.7,0.9S49.4,18,49.9,18 M48.8,16.2
		c0-0.1,0.1-0.2,0.2-0.2c0.1,0,0.2,0.1,0.2,0.2v0.1h0c0.2-0.2,0.4-0.3,0.7-0.3c0.8,0,1.1,0.5,1.1,1.1c0,0.6-0.4,1.1-1.1,1.1
		c-0.3,0-0.5-0.1-0.7-0.3h0v1c0,0.1-0.1,0.2-0.2,0.2c-0.1,0-0.2-0.1-0.2-0.2L48.8,16.2L48.8,16.2z"/>
	<path class="st1" d="M52.5,18c0.5,0,0.7-0.5,0.7-0.9s-0.2-0.9-0.7-0.9c-0.5,0-0.7,0.5-0.7,0.9S52,18,52.5,18 M53.3,16.2
		c0-0.1,0.1-0.2,0.2-0.2c0.1,0,0.2,0.1,0.2,0.2v1.9c0,0.1-0.1,0.2-0.2,0.2c-0.1,0-0.2-0.1-0.2-0.2V18h0c-0.2,0.2-0.4,0.3-0.7,0.3
		c-0.8,0-1.1-0.5-1.1-1.1c0-0.6,0.4-1.1,1.1-1.1c0.3,0,0.5,0.1,0.7,0.3h0L53.3,16.2L53.3,16.2z"/>
	<path class="st1" d="M54.6,18.1c0,0.1-0.1,0.2-0.2,0.2s-0.2-0.1-0.2-0.2v-2.8c0-0.1,0.1-0.2,0.2-0.2s0.2,0.1,0.2,0.2V18.1z"/>
	<path class="st1" d="M56.8,18.1c0.1,0.3,0.1,0.4,0.1,0.4s-0.1,0.1-0.1,0.1c-0.1,0-0.2-0.1-0.2-0.3c-0.1-0.4-0.2-1-0.2-1.4
		c0-0.5,0.1-1,0.2-1.4c0.1-0.2,0.1-0.3,0.2-0.3c0.1,0,0.1,0,0.1,0.1c0,0.1-0.1,0.1-0.1,0.4c-0.1,0.4-0.1,0.8-0.1,1.2
		C56.7,17.3,56.7,17.7,56.8,18.1"/>
	<path class="st1" d="M58.4,18.1c0,0.1-0.1,0.2-0.2,0.2c-0.1,0-0.2-0.1-0.2-0.2v-2.5h-0.7c-0.1,0-0.2-0.1-0.2-0.1
		c0-0.1,0.1-0.1,0.2-0.1H59c0.1,0,0.2,0.1,0.2,0.1c0,0.1-0.1,0.1-0.2,0.1h-0.7L58.4,18.1L58.4,18.1z"/>
	<path class="st1" d="M60.8,17.1c0-0.4-0.3-0.8-0.7-0.8s-0.7,0.4-0.7,0.8H60.8z M59.4,17.3c0,0.4,0.3,0.7,0.8,0.7
		c0.6,0,0.7-0.3,0.9-0.3c0.1,0,0.2,0,0.2,0.1c0,0.1-0.4,0.4-1,0.4c-0.8,0-1.2-0.6-1.2-1.1c0-0.6,0.4-1.1,1.1-1.1
		c0.7,0,1.1,0.5,1.1,1.1c0,0.1,0,0.2-0.2,0.2L59.4,17.3L59.4,17.3z"/>
	<path class="st1" d="M62,18.1c0,0.1-0.1,0.2-0.2,0.2s-0.2-0.1-0.2-0.2v-1.9c0-0.1,0.1-0.2,0.2-0.2s0.2,0.1,0.2,0.2v0.2h0
		c0.1-0.2,0.4-0.4,0.6-0.4c0.2,0,0.2,0.1,0.2,0.2c0,0.1-0.1,0.1-0.2,0.2c-0.2,0-0.6,0.2-0.6,0.7V18.1z"/>
	<path class="st1" d="M64.2,18c0.5,0,0.7-0.5,0.7-0.9s-0.2-0.9-0.7-0.9c-0.5,0-0.7,0.5-0.7,0.9S63.7,18,64.2,18 M64.9,16.2
		c0-0.1,0.1-0.2,0.2-0.2s0.2,0.1,0.2,0.2v1.9c0,0.1-0.1,0.2-0.2,0.2s-0.2-0.1-0.2-0.2V18h0c-0.2,0.2-0.4,0.3-0.7,0.3
		c-0.8,0-1.1-0.5-1.1-1.1c0-0.6,0.4-1.1,1.1-1.1c0.3,0,0.5,0.1,0.7,0.3h0L64.9,16.2L64.9,16.2z"/>
	<path class="st1" d="M66.3,18.1c0,0.1-0.1,0.2-0.2,0.2c-0.1,0-0.2-0.1-0.2-0.2v-1.9c0-0.1,0.1-0.2,0.2-0.2c0.1,0,0.2,0.1,0.2,0.2
		V18.1z M66.1,15.3c0.1,0,0.2,0.1,0.2,0.2c0,0.1-0.1,0.2-0.2,0.2c-0.1,0-0.2-0.1-0.2-0.2C65.9,15.4,66,15.3,66.1,15.3"/>
	<path class="st1" d="M67,15.7c-0.1-0.3-0.1-0.4-0.1-0.4c0-0.1,0.1-0.1,0.1-0.1c0.1,0,0.2,0.1,0.2,0.3c0.1,0.4,0.2,1,0.2,1.4
		c0,0.5-0.1,1-0.2,1.4c-0.1,0.2-0.1,0.3-0.2,0.3c-0.1,0-0.1,0-0.1-0.1c0-0.1,0.1-0.1,0.1-0.4c0.1-0.4,0.1-0.8,0.1-1.2
		C67.1,16.5,67.1,16.1,67,15.7"/>
	<path class="st1" d="M69.5,18h0.9c0.1,0,0.2,0.1,0.2,0.1s-0.1,0.1-0.2,0.1h-1.1c-0.1,0-0.2-0.1-0.2-0.1v-2.6c0-0.1,0.1-0.2,0.2-0.2
		c0.1,0,0.2,0.1,0.2,0.2V18z"/>
	<path class="st1" d="M71.3,18.1c0,0.1-0.1,0.2-0.2,0.2c-0.1,0-0.2-0.1-0.2-0.2v-1.9c0-0.1,0.1-0.2,0.2-0.2c0.1,0,0.2,0.1,0.2,0.2
		V18.1z M71.1,15.3c0.1,0,0.2,0.1,0.2,0.2c0,0.1-0.1,0.2-0.2,0.2c-0.1,0-0.2-0.1-0.2-0.2C70.9,15.4,71,15.3,71.1,15.3"/>
	<path class="st1" d="M73.9,18.1c0,0.1-0.1,0.2-0.2,0.2c-0.1,0-0.2-0.1-0.2-0.2v-1.2c0-0.5-0.3-0.6-0.6-0.6c-0.3,0-0.6,0.2-0.6,0.6
		v1.2c0,0.1-0.1,0.2-0.2,0.2c-0.1,0-0.2-0.1-0.2-0.2v-1.9c0-0.1,0.1-0.2,0.2-0.2c0.1,0,0.2,0.1,0.2,0.2v0.1h0
		c0.1-0.2,0.4-0.3,0.7-0.3c0.3,0,0.6,0.1,0.7,0.4c0.2-0.2,0.5-0.4,0.8-0.4c0.5,0,0.9,0.3,0.9,0.8v1.3c0,0.1-0.1,0.2-0.2,0.2
		c-0.1,0-0.2-0.1-0.2-0.2v-1.2c0-0.5-0.3-0.6-0.6-0.6s-0.6,0.2-0.6,0.6V18.1z"/>
	<path class="st1" d="M76.4,18.1c0,0.1-0.1,0.2-0.2,0.2c-0.1,0-0.2-0.1-0.2-0.2v-1.9c0-0.1,0.1-0.2,0.2-0.2c0.1,0,0.2,0.1,0.2,0.2
		V18.1z M76.2,15.3c0.1,0,0.2,0.1,0.2,0.2c0,0.1-0.1,0.2-0.2,0.2c-0.1,0-0.2-0.1-0.2-0.2C76,15.4,76.1,15.3,76.2,15.3"/>
	<path class="st1" d="M77.5,18.1c0,0.1-0.1,0.2-0.2,0.2c-0.1,0-0.2-0.1-0.2-0.2v-1.8h-0.2c-0.1,0-0.2-0.1-0.2-0.1
		c0-0.1,0-0.1,0.2-0.1h0.2v-0.5c0-0.1,0.1-0.2,0.2-0.2c0.1,0,0.2,0.1,0.2,0.2v0.5h0.2c0.1,0,0.2,0.1,0.2,0.1c0,0.1,0,0.1-0.2,0.1
		h-0.2V18.1z"/>
	<path class="st1" d="M80,17.1c0-0.4-0.3-0.8-0.7-0.8s-0.7,0.4-0.7,0.8H80z M78.5,17.3c0,0.4,0.3,0.7,0.8,0.7c0.6,0,0.7-0.3,0.9-0.3
		c0.1,0,0.2,0,0.2,0.1c0,0.1-0.4,0.4-1,0.4c-0.8,0-1.2-0.6-1.2-1.1c0-0.6,0.4-1.1,1.1-1.1s1.1,0.5,1.1,1.1c0,0.1,0,0.2-0.2,0.2
		L78.5,17.3L78.5,17.3z"/>
	<path class="st1" d="M81.8,18c0.5,0,0.7-0.5,0.7-0.9s-0.2-0.9-0.7-0.9c-0.5,0-0.7,0.5-0.7,0.9C81,17.6,81.2,18,81.8,18 M82.5,15.3
		c0-0.1,0.1-0.2,0.2-0.2c0.1,0,0.2,0.1,0.2,0.2v2.8c0,0.1-0.1,0.2-0.2,0.2c-0.1,0-0.2-0.1-0.2-0.2V18h0c-0.2,0.2-0.4,0.3-0.7,0.3
		c-0.8,0-1.1-0.5-1.1-1.1c0-0.6,0.4-1.1,1.1-1.1c0.3,0,0.5,0.1,0.7,0.3h0L82.5,15.3L82.5,15.3z"/>
	<g>
		<path class="st1" d="M43.3,13H44c0.5,0,0.8-0.2,0.8-0.6c0-0.4-0.3-0.6-0.8-0.6h-0.6L43.3,13L43.3,13z M43.3,11.6h0.5
			c0.4,0,0.6-0.2,0.6-0.5c0-0.2-0.2-0.5-0.6-0.5h-0.5L43.3,11.6L43.3,11.6z M43,10.5c0-0.1,0.1-0.2,0.2-0.2h0.6c0.8,0,1,0.4,1,0.7
			c0,0.4-0.2,0.5-0.5,0.6v0c0.5,0.1,0.8,0.3,0.8,0.7c0,0.4-0.3,0.8-1.1,0.8h-0.8c-0.2,0-0.2-0.1-0.2-0.2L43,10.5L43,10.5z"/>
		<path class="st1" d="M46.6,13.1c0.5,0,0.7-0.5,0.7-0.9s-0.2-0.9-0.7-0.9s-0.7,0.5-0.7,0.9C45.9,12.6,46.1,13.1,46.6,13.1
			 M46.6,13.3c-0.8,0-1.1-0.5-1.1-1.1c0-0.6,0.4-1.1,1.1-1.1c0.8,0,1.1,0.6,1.1,1.1C47.7,12.8,47.4,13.3,46.6,13.3"/>
		<path class="st1" d="M48.7,13.1c0,0.1-0.1,0.2-0.2,0.2c-0.1,0-0.2-0.1-0.2-0.2v-1.8h-0.2c-0.1,0-0.2-0.1-0.2-0.1
			c0-0.1,0-0.1,0.2-0.1h0.2v-0.5c0-0.1,0.1-0.2,0.2-0.2c0.1,0,0.2,0.1,0.2,0.2v0.5h0.2c0.1,0,0.2,0.1,0.2,0.1c0,0.1,0,0.1-0.2,0.1
			h-0.2V13.1z"/>
		<path class="st1" d="M49.9,13.1c0,0.1-0.1,0.2-0.2,0.2c-0.1,0-0.2-0.1-0.2-0.2v-1.8h-0.2c-0.1,0-0.2-0.1-0.2-0.1
			c0-0.1,0-0.1,0.2-0.1h0.2v-0.5c0-0.1,0.1-0.2,0.2-0.2c0.1,0,0.2,0.1,0.2,0.2v0.5h0.2c0.1,0,0.2,0.1,0.2,0.1c0,0.1,0,0.1-0.2,0.1
			h-0.2V13.1z"/>
		<path class="st1" d="M51,13.1c0,0.1-0.1,0.2-0.2,0.2c-0.1,0-0.2-0.1-0.2-0.2v-2.8c0-0.1,0.1-0.2,0.2-0.2c0.1,0,0.2,0.1,0.2,0.2
			V13.1z"/>
		<path class="st1" d="M53.3,12.1c0-0.4-0.3-0.8-0.7-0.8s-0.7,0.4-0.7,0.8H53.3z M51.9,12.4c0,0.4,0.3,0.7,0.8,0.7
			c0.6,0,0.7-0.3,0.9-0.3c0.1,0,0.2,0,0.2,0.1c0,0.1-0.4,0.4-1,0.4c-0.8,0-1.2-0.6-1.2-1.1s0.4-1.1,1.1-1.1c0.7,0,1.1,0.5,1.1,1.1
			c0,0.1,0,0.2-0.2,0.2L51.9,12.4L51.9,12.4z"/>
		<path class="st1" d="M54.5,13.1c0,0.1-0.1,0.2-0.2,0.2c-0.1,0-0.2-0.1-0.2-0.2v-1.9c0-0.1,0.1-0.2,0.2-0.2c0.1,0,0.2,0.1,0.2,0.2
			v0.2h0c0.1-0.2,0.4-0.4,0.6-0.4c0.2,0,0.2,0.1,0.2,0.2c0,0.1-0.1,0.1-0.2,0.2c-0.2,0-0.6,0.2-0.6,0.7V13.1z"/>
		<path class="st1" d="M57.4,11.4c0,0.1,0,0.1-0.2,0.1c-0.1,0-0.3-0.2-0.7-0.2c-0.2,0-0.5,0.1-0.5,0.3c0,0.1,0.1,0.2,0.2,0.3
			l0.5,0.2c0.4,0.1,0.7,0.3,0.7,0.6c0,0.4-0.4,0.6-1,0.6c-0.6,0-0.9-0.3-0.9-0.4c0-0.1,0.1-0.1,0.2-0.1c0.2,0,0.3,0.3,0.8,0.3
			c0.3,0,0.6-0.2,0.6-0.4s-0.2-0.3-0.4-0.3l-0.6-0.2c-0.3-0.1-0.5-0.2-0.5-0.5c0-0.4,0.4-0.6,0.8-0.6C56.9,11.1,57.4,11.3,57.4,11.4
			"/>
	</g>
</g>
</svg>
