<?xml version="1.0" encoding="utf-8"?>
<!-- Generator: Adobe Illustrator 25.0.1, SVG Export Plug-In . SVG Version: 6.00 Build 0)  -->
<svg version="1.1" id="Layer_1" xmlns="http://www.w3.org/2000/svg" xmlns:xlink="http://www.w3.org/1999/xlink" x="0px" y="0px"
	 viewBox="0 0 1100 550" style="enable-background:new 0 0 1100 550;" xml:space="preserve">
<style type="text/css">
	.st0{opacity:0.2;fill-rule:evenodd;clip-rule:evenodd;fill:#FFFFFF;enable-background:new    ;}
	.st1{fill-rule:evenodd;clip-rule:evenodd;fill:#101920;}
	.st2{fill-rule:evenodd;clip-rule:evenodd;fill:#B4DAEE;}
	.st3{fill-rule:evenodd;clip-rule:evenodd;fill:#D9EDF6;}
	.st4{fill-rule:evenodd;clip-rule:evenodd;fill:#5D6B7B;}
	.st5{fill-rule:evenodd;clip-rule:evenodd;fill:#65C4B5;}
	.st6{fill-rule:evenodd;clip-rule:evenodd;fill:#2E4866;}
	.st7{fill-rule:evenodd;clip-rule:evenodd;fill:#414C58;}
	.st8{fill-rule:evenodd;clip-rule:evenodd;fill:#569085;}
	.st9{fill-rule:evenodd;clip-rule:evenodd;fill:#18969C;}
	.st10{fill-rule:evenodd;clip-rule:evenodd;fill:#0D8484;}
	.st11{fill-rule:evenodd;clip-rule:evenodd;fill:#1F313D;}
	.st12{fill:#0D8484;}
</style>
<g>
	<g>
		<path class="st0" d="M89.2,305.3c0,0-11.4-13.3-17.3-24.8c-5.6-11.7-7-15.4-15.9-22.9c-8.9-7.5-12.4-19.4-12.4-29.9
			s-6.3-23.6-6.5-33.4c-0.2-9.8,17.5-4.2,21,4.9c3.5,9.1,8.2,15.4,17.3,27.1c9.1,11.4,0.7,22.9,2.8,39c2.1,16.1,11.2,30.1,11.2,30.1
			L89.2,305.3z"/>
		<g>
			<path class="st1" d="M346,366c0.2-0.2,16.8-17.3,36.7-15.7c20.1,1.6,22.7,10.5,22.7,11l-1.4,0.5c0,0-2.6-8.4-21.3-9.8
				c-19.2-1.4-35.3,15.2-35.5,15.2L346,366z"/>
			<polygon class="st2" points="233.8,284.7 244.6,377.3 153.2,377.3 153.2,284.7 			"/>
			<polygon class="st3" points="216.1,377.3 196.5,377.3 153.2,331.7 153.2,311.1 			"/>
			<polygon class="st3" points="164.7,288.2 184.3,288.2 241.1,348.3 243.9,371.9 			"/>
			
				<rect x="236.9" y="295.2" transform="matrix(0.9931 -0.1169 0.1169 0.9931 -37.9482 30.396)" class="st4" width="6.5" height="86.9"/>
			<rect x="153" y="296.4" class="st4" width="6.5" height="82.5"/>
			<rect x="192.9" y="296.4" class="st4" width="4.4" height="82.5"/>
			<path class="st5" d="M243.9,285.9v7.9c0,3.3-2.6,5.8-5.8,5.8h-85.7v-19.6h85.5C241.1,280.1,243.9,282.6,243.9,285.9z"/>
			<polygon class="st6" points="511.9,501.8 564.2,501.8 515.4,369.8 503,370 			"/>
			<path class="st7" d="M89,305.5c0.5,3,2.6,4,2.6,4v24.1h12.4c0,0,0-17.5-0.5-24.1c-0.5-6.5-12.1-16.8-12.1-16.8
				C88.3,294.8,88.5,302,89,305.5z"/>
			<path class="st5" d="M138.7,335.4v128.5H26.1V363.5c0-10.3,8.9-16.4,18.9-18.9l36-9.1H138.7L138.7,335.4z"/>
			<rect x="26.1" y="448.5" class="st1" width="44.4" height="12.4"/>
			<path class="st8" d="M67.5,471.2H26.1c-4.2,0-7.7-3.5-7.7-7.7c0-4.2,3.5-7.7,7.7-7.7h41.4V471.2z"/>
			<polygon class="st1" points="442.5,392.7 315.1,392.7 314,411.4 320.1,411.1 320.1,489.6 357.2,489.6 357.2,410.2 420.1,408.6 
				442.5,395.2 			"/>
			<rect x="400" y="360.4" class="st6" width="9.1" height="29.9"/>
			<polygon class="st1" points="256.3,489.6 190.6,489.6 111.9,471.9 70.5,470.7 70.3,381.7 256.3,381.7 			"/>
			<rect x="215.4" y="381.7" class="st9" width="41.1" height="107.9"/>
			<path class="st5" d="M363.5,372.1l7.7,17.3h-84.1v-17.3c0-6.5,5.4-11.7,11.9-11.7h53C358.4,360.4,360.9,366.3,363.5,372.1z"/>
			<polygon class="st9" points="321.2,434.7 320.1,489.6 270.3,489.6 270.3,401.8 279.2,401.8 279.2,389.4 360.5,389.4 			"/>
			<path class="st10" d="M77.1,380.5c-0.9,0-1.6-0.7-1.6-1.6v-35.5c0-0.9,0.7-1.6,1.6-1.6H260c0.9,0,1.6,0.7,1.6,1.6v35.5
				c0,0.9-0.7,1.6-1.6,1.6H77.1L77.1,380.5z M258.4,345H78.7v32.2h179.7C258.4,377.3,258.4,345,258.4,345z"/>
			<rect x="229.4" y="343.4" class="st10" width="2.8" height="34.1"/>
			<rect x="199" y="343.4" class="st10" width="2.8" height="34.1"/>
			<rect x="168.6" y="343.4" class="st10" width="2.8" height="34.1"/>
			<rect x="138" y="343.4" class="st10" width="2.8" height="34.1"/>
			<rect x="107.7" y="343.4" class="st10" width="2.8" height="34.1"/>
			<ellipse class="st6" cx="390.8" cy="460" rx="62.2" ry="62.2"/>
			<path class="st10" d="M428.2,460c0-20.6-16.8-37.6-37.6-37.6c-20.8,0-37.6,16.8-37.6,37.6c0,20.8,16.8,37.6,37.6,37.6
				C411.4,497.3,428.2,480.5,428.2,460z"/>
			<path class="st6" d="M409.5,460c0-10.5-8.4-18.9-18.9-18.9c-10.5,0-18.9,8.4-18.9,18.9c0,10.5,8.4,18.9,18.9,18.9
				C401.1,478.9,409.5,470.2,409.5,460z"/>
			<path class="st6" d="M393.9,397.1v2.6c0,0.7-0.5,1.2-1.2,1.2h-4.2c-0.7,0-1.2-0.5-1.2-1.2v-2.6c0-0.7,0.5-1.2,1.2-1.2h4.2
				C393.4,395.7,393.9,396.4,393.9,397.1z"/>
			<path class="st6" d="M394.1,519.8v2.6c0,0.7-0.5,1.2-1.2,1.2h-4.2c-0.7,0-1.2-0.5-1.2-1.2v-2.6c0-0.7,0.5-1.2,1.2-1.2h4.2
				C393.7,518.6,394.1,519.3,394.1,519.8z"/>
			<path class="st6" d="M453.5,463h-2.6c-0.7,0-1.2-0.5-1.2-1.2v-4.2c0-0.7,0.5-1.2,1.2-1.2h2.6c0.7,0,1.2,0.5,1.2,1.2v4.2
				C454.6,462.3,454.2,463,453.5,463z"/>
			<path class="st6" d="M330.6,463H328c-0.7,0-1.2-0.5-1.2-1.2v-4.2c0-0.7,0.5-1.2,1.2-1.2h2.6c0.7,0,1.2,0.5,1.2,1.2v4.2
				C331.7,462.5,331.3,463,330.6,463z"/>
			<path class="st6" d="M452.3,446.6l-2.6,0.7c-0.7,0.2-1.4-0.2-1.4-0.9l-1.2-4c-0.2-0.7,0.2-1.4,0.9-1.4l2.6-0.7
				c0.7-0.2,1.4,0.2,1.4,0.9l0.9,4C453.2,445.7,452.8,446.4,452.3,446.6z"/>
			<path class="st6" d="M333.6,478.7l-2.6,0.7c-0.7,0.2-1.4-0.2-1.4-0.9l-1.2-4c-0.2-0.7,0.2-1.4,0.9-1.4l2.6-0.7
				c0.7-0.2,1.4,0.2,1.4,0.9l0.9,4C334.5,477.7,334.3,478.4,333.6,478.7z"/>
			<path class="st6" d="M329.4,446.6l2.6,0.7c0.7,0.2,1.4-0.2,1.4-0.9l0.9-4c0.2-0.7-0.2-1.4-0.9-1.4l-2.6-0.7
				c-0.7-0.2-1.4,0.2-1.4,0.9l-1.2,4C328.2,445.7,328.7,446.4,329.4,446.6z"/>
			<path class="st6" d="M448.1,478.7l2.6,0.7c0.7,0.2,1.4-0.2,1.4-0.9l0.9-4c0.2-0.7-0.2-1.4-0.9-1.4l-2.6-0.7
				c-0.7-0.2-1.4,0.2-1.4,0.9l-1.2,4C446.9,477.7,447.4,478.4,448.1,478.7z"/>
			<path class="st6" d="M446.7,431.2l-2.3,1.4c-0.5,0.2-1.4,0.2-1.6-0.5l-2.1-3.5c-0.2-0.5-0.2-1.4,0.5-1.6l2.3-1.4
				c0.5-0.2,1.4-0.2,1.6,0.5l2.1,3.5C447.4,430.1,447.4,430.8,446.7,431.2z"/>
			<path class="st6" d="M340.4,492.7l-2.3,1.4c-0.5,0.2-1.4,0.2-1.6-0.5l-2.1-3.5c-0.2-0.5-0.2-1.4,0.5-1.6l2.3-1.4
				c0.5-0.2,1.4-0.2,1.6,0.5l2.1,3.5C341.1,491.7,340.8,492.4,340.4,492.7z"/>
			<path class="st6" d="M334.8,431.2l2.3,1.4c0.5,0.2,1.4,0.2,1.6-0.5l2.1-3.5c0.5-0.5,0.2-1.4-0.5-1.6l-2.3-1.4
				c-0.5-0.2-1.4-0.2-1.6,0.5l-2.1,3.5C334.1,430.1,334.3,430.8,334.8,431.2z"/>
			<path class="st6" d="M441.1,492.7l2.3,1.4c0.5,0.2,1.4,0.2,1.6-0.5l2.1-3.5c0.2-0.5,0.2-1.4-0.5-1.6l-2.3-1.4
				c-0.5-0.2-1.4-0.2-1.6,0.5l-2.1,3.5C440.4,491.7,440.6,492.4,441.1,492.7z"/>
			<path class="st6" d="M437.3,417.7l-1.9,1.9c-0.5,0.5-1.2,0.5-1.6,0l-2.8-2.8c-0.5-0.5-0.5-1.2,0-1.6l1.9-1.9
				c0.5-0.5,1.2-0.5,1.6,0l2.8,2.8C437.8,416.3,437.8,417.2,437.3,417.7z"/>
			<path class="st6" d="M350.7,504.6l-1.9,1.9c-0.5,0.5-1.2,0.5-1.6,0l-2.8-2.8c-0.5-0.5-0.5-1.4,0-1.9l1.9-1.9
				c0.5-0.5,1.2-0.5,1.6,0l2.8,2.8C351.1,503.4,351.1,504.1,350.7,504.6z"/>
			<path class="st6" d="M344.1,417.7l1.9,1.9c0.5,0.5,1.2,0.5,1.6,0l2.8-2.8c0.5-0.5,0.5-1.2,0-1.6l-1.9-1.9c-0.5-0.5-1.2-0.5-1.6,0
				l-2.8,2.8C343.7,416.3,343.7,417.2,344.1,417.7z"/>
			<path class="st6" d="M431,504.6l1.9,1.9c0.5,0.5,1.2,0.5,1.6,0l2.8-2.8c0.5-0.5,0.5-1.4,0-1.9l-1.9-1.9c-0.5-0.5-1.2-0.5-1.6,0
				l-2.8,2.8C430.3,503.4,430.3,504.1,431,504.6z"/>
			<path class="st6" d="M425,406.9l-1.4,2.3c-0.2,0.5-1.2,0.7-1.6,0.5l-3.5-2.1c-0.5-0.2-0.7-1.2-0.5-1.6l1.4-2.3
				c0.2-0.5,1.2-0.7,1.6-0.5l3.5,2.1C425,405.8,425.2,406.5,425,406.9z"/>
			<path class="st6" d="M363.7,513.5l-1.4,2.3c-0.2,0.5-1.2,0.7-1.6,0.5l-3.5-2.1c-0.7-0.2-0.7-1.2-0.5-1.6l1.4-2.3
				c0.2-0.5,1.2-0.7,1.6-0.5l3.5,2.1C363.7,512.1,364,513,363.7,513.5z"/>
			<path class="st6" d="M356.7,406.9l1.4,2.3c0.2,0.5,1.2,0.7,1.6,0.5l3.5-2.1c0.5-0.2,0.7-1.2,0.5-1.6l-1.4-2.3
				c-0.2-0.5-1.2-0.7-1.6-0.5l-3.5,2.1C356.5,405.8,356.3,406.5,356.7,406.9z"/>
			<path class="st6" d="M418,513.5l1.4,2.3c0.2,0.5,1.2,0.7,1.6,0.5l3.5-2.1c0.5-0.2,0.7-1.2,0.5-1.6l-1.4-2.3
				c-0.2-0.5-1.2-0.7-1.6-0.5l-3.5,2.1C417.7,512.1,417.5,513,418,513.5z"/>
			<path class="st6" d="M410,399.9l-0.7,2.6c-0.2,0.7-0.9,0.9-1.4,0.9l-4-0.9c-0.7-0.2-0.9-0.9-0.9-1.4l0.7-2.6
				c0.2-0.7,0.9-0.9,1.4-0.9l4,0.9C409.8,398.5,410.2,399.2,410,399.9z"/>
			<path class="st6" d="M378.5,518.6l-0.7,2.6c-0.2,0.7-0.9,0.9-1.4,0.9l-4-0.9c-0.7-0.2-0.9-0.9-0.9-1.4l0.7-2.6
				c0.2-0.7,0.9-0.9,1.4-0.9l4,0.9C378.2,517.4,378.7,518.1,378.5,518.6z"/>
			<path class="st6" d="M371.5,399.9l0.7,2.6c0.2,0.7,0.9,0.9,1.4,0.9l4-0.9c0.7-0.2,0.9-0.9,0.9-1.4l-0.7-2.6
				c-0.2-0.7-0.9-0.9-1.4-0.9l-4,0.9C371.7,398.5,371.2,399.2,371.5,399.9z"/>
			<path class="st6" d="M403,518.6l0.7,2.6c0.2,0.7,0.9,0.9,1.4,0.9l4-0.9c0.7-0.2,0.9-0.9,0.9-1.4l-0.7-2.6
				c-0.2-0.7-0.9-0.9-1.4-0.9l-4,0.9C403.2,517.4,403,518.1,403,518.6z"/>
			<path class="st5" d="M444.8,395.2h-87.4l-31.5,41.1v59.3c0,2.8-2.1,4.9-4.9,4.9c-2.6,0-4.9-2.1-4.9-4.9v-61c0-0.9,0.2-2.1,0.9-3
				l33.9-44.2c0.9-1.4,2.3-2.1,4-2.1h89.7c2.6,0,4.9,2.1,4.9,4.9C449.7,393.1,447.6,395.2,444.8,395.2L444.8,395.2z"/>
			<rect x="184.1" y="443.8" class="st8" width="86.2" height="45.8"/>
			<rect x="184.1" y="466.7" class="st5" width="86.2" height="9.3"/>
			<path class="st6" d="M201.4,460c0-34.1-27.8-62.2-62.2-62.2c-34.1,0-62.2,27.8-62.2,62.2s27.8,62.2,62.2,62.2
				C173.6,522.1,201.4,494.1,201.4,460z"/>
			<path class="st10" d="M176.8,460c0-20.6-16.8-37.6-37.6-37.6c-20.6,0-37.6,16.8-37.6,37.6c0,20.8,16.8,37.6,37.6,37.6
				C160,497.3,176.8,480.5,176.8,460z"/>
			<path class="st6" d="M158.4,460c0-10.5-8.4-18.9-18.9-18.9s-18.9,8.4-18.9,18.9c0,10.5,8.4,18.9,18.9,18.9S158.4,470.2,158.4,460
				z"/>
			<path class="st6" d="M142.5,397.1v2.6c0,0.7-0.5,1.2-1.2,1.2h-4.2c-0.7,0-1.2-0.5-1.2-1.2v-2.6c0-0.7,0.5-1.2,1.2-1.2h4.2
				C142,395.7,142.5,396.4,142.5,397.1z"/>
			<path class="st6" d="M142.7,519.8v2.6c0,0.7-0.5,1.2-1.2,1.2h-4.2c-0.7,0-1.2-0.5-1.2-1.2v-2.6c0-0.7,0.5-1.2,1.2-1.2h4.2
				C142.2,518.6,142.7,519.1,142.7,519.8z"/>
			<path class="st6" d="M202.1,463h-2.6c-0.7,0-1.2-0.5-1.2-1.2v-4.2c0-0.7,0.5-1.2,1.2-1.2h2.6c0.7,0,1.2,0.5,1.2,1.2v4.2
				C203.5,462.3,202.8,463,202.1,463z"/>
			<path class="st6" d="M79.2,463h-2.6c-0.7,0-1.2-0.5-1.2-1.2v-4.2c0-0.7,0.5-1.2,1.2-1.2h2.6c0.7,0,1.2,0.5,1.2,1.2v4.2
				C80.6,462.5,79.9,463,79.2,463z"/>
			<path class="st6" d="M200.9,446.6l-2.6,0.7c-0.7,0.2-1.4-0.2-1.4-0.9l-1.2-4c-0.2-0.7,0.2-1.4,0.9-1.4l2.6-0.7
				c0.7-0.2,1.4,0.2,1.4,0.9l1.2,4C201.8,445.7,201.6,446.4,200.9,446.6z"/>
			<path class="st6" d="M82.2,478.7l-2.6,0.7c-0.7,0.2-1.4-0.2-1.4-0.9l-1.2-4c-0.2-0.7,0.2-1.4,0.9-1.4l2.6-0.7
				c0.7-0.2,1.4,0.2,1.4,0.9l1.2,4C83.1,477.7,82.9,478.4,82.2,478.7z"/>
			<path class="st6" d="M78,446.6l2.6,0.7c0.7,0.2,1.4-0.2,1.4-0.9l1.2-4c0.2-0.7-0.2-1.4-0.9-1.4l-2.6-0.7
				c-0.7-0.2-1.4,0.2-1.4,0.9l-1.2,4C76.8,445.7,77.3,446.4,78,446.6z"/>
			<path class="st6" d="M196.7,478.7l2.6,0.7c0.7,0.2,1.4-0.2,1.4-0.9l1.2-4c0.2-0.7-0.2-1.4-0.9-1.4l-2.6-0.7
				c-0.7-0.2-1.4,0.2-1.4,0.9l-1.2,4C195.5,477.7,196,478.4,196.7,478.7z"/>
			<path class="st6" d="M195.3,431.2l-2.3,1.4c-0.7,0.2-1.4,0.2-1.6-0.5l-2.1-3.5c-0.2-0.5-0.2-1.4,0.5-1.6l2.3-1.4
				c0.5-0.2,1.4-0.2,1.6,0.5l2.1,3.5C196.2,430.1,196,430.8,195.3,431.2z"/>
			<path class="st6" d="M89,492.7l-2.3,1.4c-0.5,0.2-1.4,0.2-1.6-0.5l-2.1-3.5c-0.2-0.5,0-1.4,0.5-1.6l2.3-1.4
				c0.5-0.2,1.4-0.2,1.6,0.5l2.1,3.5C89.7,491.7,89.7,492.4,89,492.7z"/>
			<path class="st6" d="M83.4,431.2l2.3,1.4c0.5,0.2,1.4,0.2,1.6-0.5l2.1-3.5c0.2-0.5,0.2-1.4-0.5-1.6l-2.3-1.4
				c-0.5-0.2-1.4-0.2-1.6,0.5l-2.1,3.5C82.7,430.1,82.9,430.8,83.4,431.2z"/>
			<path class="st6" d="M189.9,492.7l2.3,1.4c0.5,0.2,1.4,0.2,1.6-0.5l2.1-3.5c0.2-0.5,0.2-1.4-0.5-1.6l-2.3-1.4
				c-0.7-0.2-1.4-0.2-1.6,0.5l-2.1,3.5C189,491.7,189.2,492.4,189.9,492.7z"/>
			<path class="st6" d="M185.9,417.7l-1.9,1.9c-0.5,0.5-1.2,0.5-1.6,0l-2.8-2.8c-0.5-0.5-0.5-1.2,0-1.9l1.9-1.9
				c0.5-0.5,1.2-0.5,1.9,0l2.8,2.8C186.4,416.3,186.4,417.2,185.9,417.7z"/>
			<path class="st6" d="M99.3,504.6l-1.9,1.9c-0.5,0.5-1.2,0.5-1.9,0l-2.8-2.8c-0.5-0.5-0.5-1.2,0-1.6l1.9-1.9
				c0.5-0.5,1.2-0.5,1.6,0L99,503C99.7,503.4,99.7,504.1,99.3,504.6z"/>
			<path class="st6" d="M92.7,417.7l1.9,1.9c0.5,0.5,1.2,0.5,1.6,0l2.8-2.8c0.5-0.5,0.5-1.2,0-1.9l-1.9-1.9c-0.5-0.5-1.2-0.5-1.9,0
				l-2.8,2.8C92.2,416.3,92.2,417.2,92.7,417.7z"/>
			<path class="st6" d="M179.6,504.6l1.9,1.9c0.5,0.5,1.2,0.5,1.9,0l2.8-2.8c0.5-0.5,0.5-1.2,0-1.6l-1.9-1.9c-0.5-0.5-1.2-0.5-1.6,0
				l-2.8,2.8C179.2,503.4,179.2,504.1,179.6,504.6z"/>
			<path class="st6" d="M173.6,406.9l-1.2,2.3c-0.2,0.5-1.2,0.7-1.6,0.5l-3.5-2.1c-0.5-0.2-0.7-1.2-0.5-1.6l1.4-2.3
				c0.2-0.5,1.2-0.7,1.6-0.5l3.5,2.1C173.6,405.8,173.8,406.5,173.6,406.9z"/>
			<path class="st6" d="M112.1,513.5l-1.2,2.3c-0.2,0.5-1.2,0.7-1.6,0.5l-3.5-2.1c-0.5-0.2-0.9-1.2-0.5-1.6l1.4-2.3
				c0.2-0.5,1.2-0.7,1.6-0.5l3.5,2.1C112.3,512.1,112.6,513,112.1,513.5z"/>
			<path class="st6" d="M105.3,406.9l1.4,2.3c0.2,0.5,1.2,0.7,1.6,0.5l3.5-2.1c0.5-0.2,0.7-1.2,0.5-1.6l-1.2-2.3
				c-0.2-0.5-1.2-0.7-1.6-0.5l-3.5,2.1C105.1,405.8,104.9,406.5,105.3,406.9z"/>
			<path class="st6" d="M166.5,513.5l1.4,2.3c0.2,0.5,1.2,0.7,1.6,0.5l3.5-2.1c0.5-0.2,0.7-1.2,0.5-1.6l-1.2-2.3
				c-0.2-0.5-1.2-0.7-1.6-0.5l-3.5,2.1C166.3,512.1,166.3,513,166.5,513.5z"/>
			<path class="st6" d="M158.8,399.9l-0.7,2.6c-0.2,0.7-0.9,0.9-1.4,0.9l-4-0.9c-0.7-0.2-0.9-0.9-0.9-1.4l0.7-2.6
				c0.2-0.7,0.9-0.9,1.4-0.9l4,0.9C158.4,398.5,158.8,399.2,158.8,399.9z"/>
			<path class="st6" d="M127.1,518.6l-0.7,2.6c-0.2,0.7-0.9,0.9-1.4,0.9l-4-0.9c-0.7-0.2-0.9-0.9-0.9-1.4l0.7-2.6
				c0.2-0.7,0.9-0.9,1.4-0.9l4,0.9C126.8,517.4,127.3,518.1,127.1,518.6z"/>
			<path class="st6" d="M120.1,399.9l0.7,2.6c0.2,0.7,0.9,0.9,1.4,0.9l4-0.9c0.7-0.2,0.9-0.9,0.9-1.4l-0.7-2.6
				c-0.2-0.7-0.9-0.9-1.4-0.9l-4,0.9C120.3,398.5,119.8,399.2,120.1,399.9z"/>
			<path class="st6" d="M151.8,518.6l0.7,2.6c0.2,0.7,0.9,0.9,1.4,0.9l4-0.9c0.7-0.2,0.9-0.9,0.9-1.4l-0.7-2.6
				c-0.2-0.7-0.9-0.9-1.4-0.9l-4,0.9C151.8,517.4,151.6,518.1,151.8,518.6z"/>
			<path class="st9" d="M267.5,383.3v5.4c0,3.3-2.8,6.1-6.1,6.1H70c-3.3,0-6.1-2.8-6.1-6.1v-5.4c0-3.3,2.8-6.1,6.1-6.1h191.1
				C264.7,377.3,267.5,380.1,267.5,383.3z"/>
			<path class="st5" d="M102.5,394.8L71,435.9v59.3c0,2.6-2.1,4.9-4.9,4.9c-2.6,0-4.9-2.1-4.9-4.9v-61c0-0.9,0.2-2.1,0.9-3L96,387.1
				c0.9-1.4,2.3-2.1,4-2.1h167.5v3.7c0,3.3-2.8,6.1-6.1,6.1h-71.3L102.5,394.8L102.5,394.8z"/>
			<path class="st9" d="M57,433.6H34.8v-70.3c0-2.6,2.1-4,4.7-4.4l17.8-3.7v78.5H57z"/>
			<path class="st1" d="M51.4,409.5c0,0.2,0,0.5-0.2,0.7c-0.2,0.2-0.5,0.2-0.7,0.2c-1.6,0.2-3.5,0.2-5.1,0.5
				c-1.6,0.2-3.3,0.2-4.9,0.5c-0.2,0-0.5,0-0.7-0.2s-0.2-0.5-0.2-0.7s0-0.2,0-0.5c0-0.2,0-0.2,0-0.5s0-0.5,0.2-0.7
				c0.2-0.2,0.5-0.2,0.7-0.2c1.6-0.2,3.3-0.2,5.1-0.5c1.9-0.2,3.5-0.2,5.1-0.5c0.2,0,0.5,0,0.7,0.2c0.2,0.2,0.2,0.5,0.2,0.7
				c0,0.2,0,0.2,0,0.5C51.4,409.3,51.4,409.3,51.4,409.5L51.4,409.5z M51.4,366.7c0,0.2,0,0.5-0.2,0.7c-0.2,0.2-0.5,0.2-0.7,0.2
				c-1.6,0.2-3.5,0.2-5.1,0.5c-1.6,0.2-3.3,0.2-4.9,0.5c-0.2,0-0.5,0-0.7-0.2s-0.2-0.5-0.2-0.7s0-0.2,0-0.5c0-0.2,0-0.2,0-0.5
				s0-0.5,0.2-0.7c0.2-0.2,0.5-0.2,0.7-0.2c1.6-0.2,3.3-0.2,5.1-0.5c1.9-0.2,3.5-0.2,5.1-0.5c0.2,0,0.5,0,0.7,0.2
				c0.2,0.2,0.2,0.5,0.2,0.7c0,0.2,0,0.2,0,0.5C51.4,366.5,51.4,366.5,51.4,366.7L51.4,366.7z M51.4,373.7c0,0.2,0,0.5-0.2,0.7
				s-0.5,0.2-0.7,0.2c-1.6,0.2-3.5,0.2-5.1,0.5c-1.6,0.2-3.3,0.2-4.9,0.5c-0.2,0-0.5,0-0.7-0.2c-0.2-0.2-0.2-0.5-0.2-0.7
				c0-0.2,0-0.2,0-0.5c0-0.2,0-0.2,0-0.5c0-0.2,0-0.5,0.2-0.7s0.5-0.2,0.7-0.2c1.6-0.2,3.3-0.2,5.1-0.5c1.6-0.2,3.5-0.2,5.1-0.5
				c0.2,0,0.5,0,0.7,0.2c0.2,0.2,0.2,0.5,0.2,0.7c0,0.2,0,0.2,0,0.5C51.4,373.5,51.4,373.7,51.4,373.7L51.4,373.7z M51.4,381
				c0,0.2,0,0.5-0.2,0.7c-0.2,0.2-0.5,0.2-0.7,0.2c-1.6,0.2-3.5,0.2-5.1,0.5c-1.6,0.2-3.3,0.2-4.9,0.5c-0.2,0-0.5,0-0.7-0.2
				s-0.2-0.5-0.2-0.7s0-0.2,0-0.5c0-0.2,0-0.2,0-0.5s0-0.5,0.2-0.7c0.2-0.2,0.5-0.2,0.7-0.2c1.6-0.2,3.3-0.2,5.1-0.5
				c1.6-0.2,3.5-0.2,5.1-0.5c0.2,0,0.5,0,0.7,0.2c0.2,0.2,0.2,0.5,0.2,0.7c0,0.2,0,0.2,0,0.5C51.4,380.8,51.4,380.8,51.4,381
				L51.4,381z M51.4,388.2c0,0.2,0,0.5-0.2,0.7c-0.2,0.2-0.5,0.2-0.7,0.2c-1.6,0.2-3.5,0.2-5.1,0.5s-3.3,0.2-4.9,0.5
				c-0.2,0-0.5,0-0.7-0.2c-0.2-0.2-0.2-0.5-0.2-0.7c0-0.2,0-0.2,0-0.5c0-0.2,0-0.2,0-0.5c0-0.2,0-0.5,0.2-0.7
				c0.2-0.2,0.5-0.2,0.7-0.2c1.6-0.2,3.3-0.2,5.1-0.5c1.6-0.2,3.5-0.2,5.1-0.5c0.2,0,0.5,0,0.7,0.2c0.2,0.2,0.2,0.5,0.2,0.7
				s0,0.2,0,0.5C51.4,387.8,51.4,388,51.4,388.2L51.4,388.2z M51.4,416.7c0,0.2,0,0.5-0.2,0.7c-0.2,0.2-0.5,0.2-0.7,0.2
				c-1.6,0.2-3.5,0.2-5.1,0.5s-3.3,0.2-4.9,0.5c-0.2,0-0.5,0-0.7-0.2s-0.2-0.5-0.2-0.7s0-0.2,0-0.5c0-0.2,0-0.2,0-0.5
				c0-0.2,0-0.5,0.2-0.7c0.2-0.2,0.5-0.2,0.7-0.2c1.6-0.2,3.3-0.2,5.1-0.5c1.6-0.2,3.5-0.2,5.1-0.5c0.2,0,0.5,0,0.7,0.2
				c0.2,0.2,0.2,0.5,0.2,0.7s0,0.2,0,0.5C51.4,416.3,51.4,416.5,51.4,416.7L51.4,416.7z M51.4,395.2c0,0.2,0,0.5-0.2,0.7
				c-0.2,0.2-0.5,0.2-0.7,0.2c-1.6,0.2-3.5,0.2-5.1,0.5c-1.6,0.2-3.3,0.2-4.9,0.5c-0.2,0-0.5,0-0.7-0.2s-0.2-0.5-0.2-0.7
				s0-0.2,0-0.5c0-0.2,0-0.2,0-0.5s0-0.5,0.2-0.7c0.2-0.2,0.5-0.2,0.7-0.2c1.6-0.2,3.3-0.2,5.1-0.5c1.9-0.2,3.5-0.2,5.1-0.5
				c0.2,0,0.5,0,0.7,0.2c0.2,0.2,0.2,0.5,0.2,0.7s0,0.2,0,0.5C51.4,395,51.4,395,51.4,395.2L51.4,395.2z M51.4,423.7
				c0,0.2,0,0.5-0.2,0.7c-0.2,0.2-0.5,0.2-0.7,0.2c-1.6,0.2-3.5,0.2-5.1,0.5c-1.6,0.2-3.3,0.2-4.9,0.5c-0.2,0-0.5,0-0.7-0.2
				s-0.2-0.5-0.2-0.7s0-0.2,0-0.5c0-0.2,0-0.2,0-0.5s0-0.5,0.2-0.7c0.2-0.2,0.5-0.2,0.7-0.2c1.6-0.2,3.3-0.2,5.1-0.5
				c1.9-0.2,3.5-0.2,5.1-0.5c0.2,0,0.5,0,0.7,0.2c0.2,0.2,0.2,0.5,0.2,0.7c0,0.2,0,0.2,0,0.5C51.4,423.5,51.4,423.5,51.4,423.7
				L51.4,423.7z M51.4,402.3c0,0.2,0,0.5-0.2,0.7s-0.5,0.2-0.7,0.2c-1.6,0.2-3.5,0.2-5.1,0.5c-1.6,0.2-3.3,0.2-4.9,0.5
				c-0.2,0-0.5,0-0.7-0.2c-0.2-0.2-0.2-0.5-0.2-0.7c0-0.2,0-0.2,0-0.5s0-0.2,0-0.5c0-0.2,0-0.5,0.2-0.7s0.5-0.2,0.7-0.2
				c1.6-0.2,3.3-0.2,5.1-0.5c1.6-0.2,3.5-0.2,5.1-0.5c0.2,0,0.5,0,0.7,0.2c0.2,0.2,0.2,0.5,0.2,0.7c0,0.2,0,0.2,0,0.5
				C51.4,402,51.4,402.3,51.4,402.3L51.4,402.3z"/>
			<rect x="89.9" y="328" class="st4" width="16.6" height="7.5"/>
			
				<rect x="425.2" y="456.2" transform="matrix(0.9844 -0.1758 0.1758 0.9844 -73.1197 88.5006)" class="st1" width="75.5" height="1.4"/>
			
				<rect x="474" y="408.6" transform="matrix(0.8062 -0.5917 0.5917 0.8062 -150.0888 368.0663)" class="st9" width="25.5" height="9.1"/>
			
				<rect x="400.9" y="436.5" transform="matrix(0.806 -0.5919 0.5919 0.806 -176.6181 349.4366)" class="st5" width="87.9" height="15.4"/>
			<path class="st5" d="M496.2,486.8L310,483.1c-4.9,0-8.9-4-8.9-8.9v-0.9c0-4.9,4-8.9,8.9-8.9l186.2-3.7V486.8z"/>
			<path class="st11" d="M318.4,473.7c0-2.8-2.3-5.1-5.1-5.1c-2.8,0-5.1,2.3-5.1,5.1c0,2.8,2.3,5.1,5.1,5.1
				C316.3,478.9,318.7,476.6,318.4,473.7z"/>
			<polygon class="st11" points="522.9,501.8 488.3,501.8 490.6,370 503,370 			"/>
			<rect x="399.3" y="359" class="st6" width="10.7" height="3.3"/>
			<path class="st11" d="M496.2,470.7v7c0,2.6-2.1,4.7-4.7,4.7h-9.8c-2.6,0-4.7-2.1-4.7-4.7v-7c0-2.6,2.1-4.7,4.7-4.7h9.8
				C494.1,466,496.2,468.1,496.2,470.7z"/>
			<path class="st9" d="M492.3,474c0-3-2.6-5.6-5.6-5.6c-3,0-5.6,2.6-5.6,5.6c0,3,2.6,5.6,5.6,5.6
				C489.7,479.6,492.3,477.3,492.3,474z"/>
			<path class="st11" d="M489.5,474c0-1.6-1.4-3-3-3c-1.6,0-3,1.4-3,3c0,1.6,1.4,3,3,3C488.3,477,489.5,475.6,489.5,474z"/>
			<path class="st4" d="M228.9,333.8c-4.4,0-7.9-3.5-7.9-7.7v-17.3c0-4.4,3.5-7.9,7.9-7.9h7.2l5.1,32.9L228.9,333.8L228.9,333.8z
				 M237.6,330.5l-4-26.4h-4.4c-2.6,0-4.7,2.1-4.7,4.7v17.3c0,2.6,2.1,4.7,4.7,4.7h8.4V330.5z"/>
		</g>
	</g>
	<g>
		<path class="st12" d="M643.9,497.3c0.2,0.7,0.5,1.4,0.9,1.9c0.2,0.7,0.7,1.4,1.2,1.9c0.2,0.2,0.5,0.5,0.7,0.9
			c0,0.2,0.2,0.2,0.2,0.5c0.5,0.5,0.9,0.9,1.4,1.2c0.5,0.2,2.6-0.5,3.3-1.4c0.2-0.2,0.5-0.7,0.2-0.9c0.5,0.9,1.9,0.2,3-0.5
			c1.2-0.7,2.6-1.4,2.1-2.3c0.7,1.2,4-0.7,4-1.4c0.2-1.4-0.9-4.9-2.6-7.2c-2.1-3-4.2-4.9-6.1-7.5c-1.2-1.6,0-3.7-1.9-6.5
			c-2.1-3.7-5.1-3.5-6.8-4c-0.9-0.2-2.3-1.6-2.8-2.3l-1.9,0.9l-1.9,0.9c0,0.2,0,0.2,0,0.5c0,0.5,0.2,1.2,0.2,1.9
			c0,0.5,0,0.9-0.2,1.4s-0.5,0.9-0.7,1.6c-0.7,1.4-1.2,3.5,0,6.1c1.4,3,3.5,3.5,4.2,5.4s0.9,3.7,1.4,5.6
			C643,494.8,643.4,496.2,643.9,497.3z"/>
		<polygon class="st12" points="641.1,469.3 640.9,468.8 639,469.8 636.9,470.7 637.1,471.2 637.1,471.2 639.2,470.2 		"/>
		<path class="st12" d="M638.8,469.5l1.6-0.9l-0.9-1.6c0-0.2-0.5-0.2-0.7-0.2l-1.2,0.7l-1.4,0.7c-0.2,0-0.5,0.5-0.2,0.7l0.9,1.6
			L638.8,469.5z"/>
	</g>
	<g>
		<path class="st12" d="M686.7,488.5c-0.5,0.5-0.9,0.9-1.2,1.6c-0.5,0.5-0.7,1.2-1.2,1.9c-0.2,0.2-0.2,0.5-0.5,0.9
			c0,0.2-0.2,0.2-0.2,0.5c-0.2,0.7-0.5,1.2-0.5,1.6s1.2,1.6,2.1,1.6c0.2,0,0.7,0,0.9-0.2c-0.5,0.9,0.5,1.4,1.4,2.1
			c0.9,0.5,1.9,1.2,2.3,0.5c-0.5,1.2,1.9,2.6,2.3,2.3c1.2-0.5,3.5-3.3,4.7-5.6c1.6-3,2.3-5.6,3.7-8.2c0.9-1.6,2.8-1.9,4.4-4.7
			c2.1-3.5,1.2-5.6,0.9-7c0-0.9,0.5-2.6,0.9-3.3l-1.2-0.9l-1.4-0.9l-0.2,0.2c-0.5,0.2-0.9,0.7-1.4,1.2c-0.5,0.2-0.7,0.5-1.2,0.5
			s-0.9,0.2-1.4,0.2c-1.4,0.2-3,0.9-4.7,3.3c-1.9,2.6-1.4,4.4-2.6,5.8c-1.2,1.4-2.3,2.6-3.7,4C688.1,486.6,687.4,487.5,686.7,488.5z
			"/>
		<polygon class="st12" points="707,472.1 707.2,471.6 705.8,470.7 704.4,469.8 704.2,470.2 704.2,470.2 705.6,471.2 		"/>
		<path class="st12" d="M706,470.7l1.2,0.7l0.9-1.4c0-0.2,0-0.5-0.2-0.5l-0.9-0.5l-0.9-0.7c-0.2-0.2-0.5,0-0.5,0.2l-0.9,1.4
			L706,470.7z"/>
	</g>
	<g>
		<path class="st12" d="M617.5,477.5l2.6,3.3l2.1-1.6c0.2-0.2,0.2-0.5,0.2-0.7l-1.2-1.6l0,0l-0.7-0.9c-0.2-0.2-0.5-0.2-0.7-0.2
			L617.5,477.5z"/>
		<polygon class="st12" points="616.3,478 619.4,481.7 619.8,481.5 619.8,481.5 619.8,481.5 618.9,480.3 618.2,479.1 618.2,479.1 
			617,477.5 		"/>
		<path class="st12" d="M602.5,494.1v0.2c0,1.2,0.9,2.3,1.2,2.1c0.2,0,4.4-0.5,4.7-0.9c0.2-0.5-0.7-1.4-0.9-2.8
			c-0.2-1.4-1.4-2.3-1.2-4.2v-0.2c0-0.2,0-0.2,0-0.2c0-0.2,0.2-0.2,0.2-0.2c0.2,0,0.5,0.2,0.5,0.7c0,0.2,0,0.2,0,0.2
			c0.2,2.3,1.2,3,1.4,3.3c0.5,0.5,0.5,3,1.9,2.6c1.4-0.5,3.5-2.8,3.5-2.8s0-0.9-0.7-1.6c-0.5-0.7-3-0.9-3-0.9l0,0l0,0l0,0v-0.2l0,0
			c0-0.5-0.2-1.4-0.7-2.6l0,0c-0.5-1.2-1.2-2.3-1.9-2.6c-1.9-0.5-4.7-3-4.7-3c-1.6,1.6-0.9,3.7-0.2,4.7s0.9,1.4,0.7,2.1v0.2l0,0l0,0
			c0,0.5-0.2,0.9-0.2,1.9l0,0c0,0.2,0,0.2,0,0.5l0,0v0.2v0.2v0.2v0.2v0.2v0.2v0.2v0.2v0.2v0.2v0.2v0.2v0.2v0.2c0,0,0,0,0,0.2
			C602.5,494.1,602.5,494.1,602.5,494.1L602.5,494.1z"/>
		<path class="st12" d="M613.3,488.9c0.2,0,0.5,0.2,0.7,0.5l0.2,0.2c0.5,0.5,0.7,0.9,0.7,1.6l0,0l0,0c0.7-1.4,0.9-2.6,1.2-3.7
			c0-0.7,0-1.2,0.2-1.6c0-0.5,0.5-1.4,1.2-2.1c0.2-0.5,0.5-0.7,0.9-0.9c0.2-0.2,0.2-0.2,0.5-0.5c0.2-0.2,0.2-0.2,0.2-0.5l-2.6-3.5
			c-1.2,0.5-3.3,1.6-4.4,1.4c-1.6-0.2-4.4-1.2-8.4,0.9c0.5,1.2,5.4,2.3,5.6,2.6c0.2,0.7,0.7,1.6,1.2,2.3l0,0c0,0.2,0.2,0.5,0.5,0.7
			v0.2c0,0.2,0.2,0.5,0.2,0.5v0.2c0,0.2,0.2,0.5,0.2,0.5v0.2c0,0.2,0.2,0.5,0.2,0.9C612.1,488.7,612.8,488.7,613.3,488.9z"/>
		<path class="st12" d="M586.4,494.3c0.2,0.2,0.5,0.2,0.7,0.5c0.2,0,0.2,0.2,0.5,0.2c1.9,0.9,4.7,1.6,6.3,0.2
			c0.5-0.5,0.9-0.9,0.9-1.9c0-0.2,0-0.2,0-0.5c0,0,0-0.2,0.2-0.2c-0.2-0.2-0.5-0.5-0.7-0.7c0,0,0,0,0-0.2l-0.2-0.2
			c-0.2-0.5-0.7-1.2-1.2-2.3c0-0.2,0-0.5-0.2-0.5v-0.2c0-0.2,0-0.2,0-0.5v-0.2c0-2.8,2.8-4.7,3-4.7c0.2,0-1.4,1.2-1.6,3.5
			c-0.2,3,2.6,6.1,4.9,7.9l0,0c0.2,0.2,0.5,0.2,0.7,0.5l0,0c0.2,0.2,0.5,0.2,0.5,0.5l0,0c0.2,0.2,0.2,0.2,0.5,0.2l0,0
			c0.2,0,0.2,0.2,0.5,0.2l0,0l0.2,0.2l0,0h0.2c0,0,0,0-0.2,0l-0.2-0.2l0,0v-0.2c0,0,0,0,0-0.2v-0.2V495c0-0.2,0-0.2,0-0.5l0,0
			c0-0.2,0-0.5,0-0.7v-0.2c0-0.2,0-0.2,0-0.5v-0.2c0-0.2,0-0.2,0-0.5v-0.2c0-0.2,0-0.2,0-0.5v-0.2c0-0.2,0-0.5,0-0.7v-0.2
			c0-0.2,0-0.2,0-0.5c0-0.2,0-0.2,0-0.2v-0.2c0-0.2,0-0.2,0-0.2v-0.2c0-0.2,0-0.2,0-0.2c0-0.2,0-0.2,0.2-0.5l0,0l0,0
			c0.2-0.5,0.2-0.9,0.5-1.2c-0.9-0.2-2.6-4.2-1.2-7c-0.9-0.2-3.5,2.3-3.7,1.4c-0.9-2.8-7.2-3.3-9.1-2.3c-0.9,0.5-1.6,4.2,0.2,4.7
			c-1.4-0.2-1.6,1.4-1.9,2.8l0,0v0.2c0,0.2,0,0.2,0,0.5c0,0.5,0,0.7,0,1.2c0,0.9,0.2,1.6,1.2,1.6c-0.7,0-1.2,0.5-1.4,1.2
			c0,0.2,0,0.2,0,0.5s-0.2,0.5-0.2,0.7C586.2,493.4,586.2,494.1,586.4,494.3z"/>
	</g>
	<g>
		<path class="st12" d="M669.1,457.6l-2.1-2.6l-1.6,1.2c-0.2,0.2-0.2,0.5,0,0.7l0.9,1.2l0,0l0.5,0.7c0.2,0.2,0.5,0.2,0.7,0
			L669.1,457.6z"/>
		<polygon class="st12" points="669.8,457.4 667.5,454.4 667,454.6 667,454.6 667,454.6 667.7,455.5 668.4,456.5 668.4,456.5 
			669.4,457.6 		"/>
		<path class="st12" d="M680.8,444.3L680.8,444.3c0-1.2-0.7-2.1-0.9-1.9c-0.2,0-3.5,0.5-3.7,0.7c-0.2,0.2,0.5,0.9,0.7,2.3
			c0.2,1.2,0.9,1.9,0.9,3.3v0.2v0.2c0,0,0,0.2-0.2,0.2c-0.2,0-0.2-0.2-0.5-0.5v-0.2c-0.2-1.9-0.9-2.3-0.9-2.6
			c-0.5-0.2-0.2-2.6-1.4-2.1c-1.2,0.5-2.8,2.3-2.8,2.3s0,0.7,0.5,1.4c0.5,0.5,2.3,0.7,2.3,0.7l0,0l0,0l0,0c0,0,0,0,0,0.2l0,0
			c0,0.5,0.2,1.2,0.5,1.9l0,0c0.5,0.9,0.9,1.9,1.6,2.1c1.4,0.5,3.7,2.3,3.7,2.3c1.2-1.4,0.7-2.8,0.2-3.7c-0.5-0.7-0.7-0.9-0.5-1.9
			v-0.2l0,0l0,0c0-0.2,0.2-0.9,0.2-1.4l0,0v-0.2l0,0v-0.2c0,0,0,0,0-0.2v-0.2v-0.2v-0.2v-0.2v-0.2v-0.2v-0.2v-0.2V445v-0.2
			c0,0,0,0,0-0.2c0-0.2,0-0.2,0-0.2s0,0,0-0.2C680.8,444.5,680.8,444.5,680.8,444.3L680.8,444.3z"/>
		<path class="st12" d="M672.2,448.5c-0.2,0-0.5-0.2-0.5-0.2s0-0.2-0.2-0.2c-0.2-0.5-0.5-0.7-0.5-1.4l0,0l0,0
			c-0.5,1.2-0.7,2.1-0.9,3c0,0.5,0,0.9-0.2,1.4c0,0.5-0.5,1.2-0.9,1.6c-0.2,0.2-0.5,0.5-0.7,0.9l-0.2,0.2c0,0.2-0.2,0.2-0.2,0.2
			l2.1,2.8c0.9-0.5,2.6-1.2,3.5-1.2c1.4,0,3.5,0.9,6.5-0.7c-0.5-0.9-4.2-1.9-4.4-2.1c-0.2-0.7-0.5-1.2-0.9-1.9l0,0
			c-0.2-0.2-0.2-0.5-0.2-0.5v-0.2c0-0.2-0.2-0.2-0.2-0.5v-0.2c0-0.2,0-0.2-0.2-0.5V449c0-0.2-0.2-0.5-0.2-0.7
			C673.1,448.7,672.6,448.7,672.2,448.5z"/>
		<path class="st12" d="M693.2,444.1c0-0.2-0.2-0.2-0.5-0.5c-0.2,0-0.2-0.2-0.5-0.2c-1.4-0.7-3.7-1.2-4.9-0.2
			c-0.5,0.2-0.7,0.9-0.9,1.6c0,0.2,0,0.2,0,0.2v0.2c0.2,0.2,0.5,0.2,0.5,0.5c0,0,0,0,0,0.2l0.2,0.2c0.2,0.5,0.5,0.9,0.9,1.9
			c0,0.2,0,0.2,0.2,0.5c0,0,0,0,0,0.2c0,0.2,0,0.2,0,0.2v0.2c0,2.1-2.1,3.7-2.3,3.7c-0.2,0,1.2-0.9,1.2-2.8c0.2-2.3-2.1-4.9-4-6.3
			l0,0c-0.2,0-0.2-0.2-0.5-0.2l0,0c-0.2-0.2-0.2-0.2-0.5-0.2l0,0c0,0-0.2-0.2-0.5-0.2l0,0l-0.2-0.2l0,0h-0.2l0,0H681l0,0
			c0,0,0,0.2,0.2,0.2l0,0v0.2c0,0,0,0,0,0.2v0.2c0,0,0,0,0,0.2c0,0.2,0,0.2,0,0.5l0,0c0,0.2,0,0.2,0,0.5v0.2v0.2v0.2v0.2v0.2
			c0,0.2,0,0.2,0,0.5v0.2c0,0.2,0,0.2,0,0.5v0.2v0.2v0.2v0.2v0.2v0.2v0.2c0,0.2,0,0.2,0,0.5l0,0l0,0c0,0.5-0.2,0.7-0.5,0.9
			c0.7,0.2,1.9,3.3,0.9,5.6c0.7,0.2,2.6-1.9,2.8-1.2c0.9,2.3,5.8,2.6,7,1.9c0.7-0.2,1.2-3.3-0.2-3.7c0.9,0,1.2-0.9,1.4-2.1l0,0v-0.2
			c0-0.2,0-0.2,0-0.5s0-0.5,0-0.9c0-0.7-0.2-1.2-0.9-1.4c0.5,0,0.9-0.5,1.2-0.9v-0.2c0-0.2,0-0.5,0-0.7
			C693.7,445,693.4,444.3,693.2,444.1z"/>
	</g>
</g>
</svg>
