<?xml version="1.0" encoding="utf-8"?>
<!-- Generator: Adobe Illustrator 25.0.1, SVG Export Plug-In . SVG Version: 6.00 Build 0)  -->
<svg version="1.1" id="Layer_1" xmlns="http://www.w3.org/2000/svg" xmlns:xlink="http://www.w3.org/1999/xlink" x="0px" y="0px"
	 viewBox="0 0 73.5 44" style="enable-background:new 0 0 73.5 44;" xml:space="preserve">
<style type="text/css">
	.st0{opacity:0.2;fill-rule:evenodd;clip-rule:evenodd;fill:#FFFFFF;enable-background:new    ;}
	.st1{fill-rule:evenodd;clip-rule:evenodd;fill:#101920;}
	.st2{fill-rule:evenodd;clip-rule:evenodd;fill:#B4DAEE;}
	.st3{fill-rule:evenodd;clip-rule:evenodd;fill:#D9EDF6;}
	.st4{fill-rule:evenodd;clip-rule:evenodd;fill:#5D6B7B;}
	.st5{fill-rule:evenodd;clip-rule:evenodd;fill:#65C4B5;}
	.st6{fill-rule:evenodd;clip-rule:evenodd;fill:#2E4866;}
	.st7{fill-rule:evenodd;clip-rule:evenodd;fill:#414C58;}
	.st8{fill-rule:evenodd;clip-rule:evenodd;fill:#569085;}
	.st9{fill-rule:evenodd;clip-rule:evenodd;fill:#18969C;}
	.st10{fill-rule:evenodd;clip-rule:evenodd;fill:#0D8484;}
	.st11{fill-rule:evenodd;clip-rule:evenodd;fill:#1F313D;}
</style>
<g>
	<g>
		<path class="st0" d="M19.5,20.4c0,0-1.1-1.3-1.7-2.4c-0.5-1.1-0.7-1.5-1.6-2.2c-0.9-0.7-1.2-1.9-1.2-2.9s-0.6-2.3-0.6-3.3
			c0-1,1.7-0.4,2.1,0.5c0.3,0.9,0.8,1.5,1.7,2.6c0.9,1.1,0.1,2.2,0.3,3.8c0.2,1.6,1.1,2.9,1.1,2.9L19.5,20.4z"/>
		<g>
			<path class="st1" d="M44.6,26.4c0,0,1.6-1.7,3.6-1.5c2,0.2,2.2,1,2.2,1.1l-0.1,0c0,0-0.3-0.8-2.1-1c-1.9-0.1-3.4,1.5-3.5,1.5
				L44.6,26.4z"/>
			<polygon class="st2" points="33.6,18.4 34.7,27.5 25.7,27.5 25.7,18.4 			"/>
			<polygon class="st3" points="31.9,27.5 30,27.5 25.7,23 25.7,21 			"/>
			<polygon class="st3" points="26.9,18.8 28.8,18.8 34.3,24.6 34.6,27 			"/>
			
				<rect x="33.9" y="19.5" transform="matrix(0.9931 -0.1169 0.1169 0.9931 -2.5364 4.1646)" class="st4" width="0.6" height="8.5"/>
			<rect x="25.7" y="19.6" class="st4" width="0.6" height="8.1"/>
			<rect x="29.6" y="19.6" class="st4" width="0.4" height="8.1"/>
			<path class="st5" d="M34.6,18.6v0.8c0,0.3-0.3,0.6-0.6,0.6h-8.4V18H34C34.3,18,34.6,18.2,34.6,18.6z"/>
			<polygon class="st6" points="60.8,39.6 65.9,39.6 61.1,26.7 59.9,26.8 			"/>
			<path class="st7" d="M19.5,20.5c0,0.3,0.3,0.4,0.3,0.4v2.4h1.2c0,0,0-1.7,0-2.4c0-0.6-1.2-1.6-1.2-1.6
				C19.4,19.4,19.4,20.1,19.5,20.5z"/>
			<path class="st5" d="M24.3,23.4v12.6h-11v-9.8c0-1,0.9-1.6,1.8-1.8l3.5-0.9L24.3,23.4L24.3,23.4z"/>
			<rect x="13.3" y="34.4" class="st1" width="4.3" height="1.2"/>
			<path class="st8" d="M17.4,36.7h-4c-0.4,0-0.8-0.3-0.8-0.8s0.3-0.8,0.8-0.8h4V36.7z"/>
			<polygon class="st1" points="54,29 41.6,29 41.5,30.8 42,30.8 42,38.5 45.7,38.5 45.7,30.7 51.8,30.5 54,29.2 			"/>
			<rect x="49.9" y="25.8" class="st6" width="0.9" height="2.9"/>
			<polygon class="st1" points="35.8,38.5 29.4,38.5 21.7,36.7 17.7,36.6 17.6,27.9 35.8,27.9 			"/>
			<rect x="31.8" y="27.9" class="st9" width="4" height="10.5"/>
			<path class="st5" d="M46.3,27l0.8,1.7h-8.2V27c0-0.6,0.5-1.1,1.2-1.1h5.2C45.8,25.8,46,26.4,46.3,27z"/>
			<polygon class="st9" points="42.2,33.1 42,38.5 37.2,38.5 37.2,29.9 38.1,29.9 38.1,28.7 46,28.7 			"/>
			<path class="st10" d="M18.3,27.8c-0.1,0-0.2-0.1-0.2-0.2v-3.5c0-0.1,0.1-0.2,0.2-0.2h17.9c0.1,0,0.2,0.1,0.2,0.2v3.5
				c0,0.1-0.1,0.2-0.2,0.2H18.3L18.3,27.8z M36,24.3H18.5v3.1H36C36,27.5,36,24.3,36,24.3z"/>
			<rect x="33.2" y="24.2" class="st10" width="0.3" height="3.3"/>
			<rect x="30.2" y="24.2" class="st10" width="0.3" height="3.3"/>
			<rect x="27.2" y="24.2" class="st10" width="0.3" height="3.3"/>
			<rect x="24.3" y="24.2" class="st10" width="0.3" height="3.3"/>
			<rect x="21.3" y="24.2" class="st10" width="0.3" height="3.3"/>
			<ellipse class="st6" cx="49" cy="35.6" rx="6.1" ry="6.1"/>
			<path class="st10" d="M52.6,35.6c0-2-1.6-3.7-3.7-3.7c-2,0-3.7,1.6-3.7,3.7s1.6,3.7,3.7,3.7C51,39.2,52.6,37.6,52.6,35.6z"/>
			<path class="st6" d="M50.8,35.6c0-1-0.8-1.8-1.8-1.8c-1,0-1.8,0.8-1.8,1.8c0,1,0.8,1.8,1.8,1.8C50,37.4,50.8,36.6,50.8,35.6z"/>
			<path class="st6" d="M49.3,29.4v0.3c0,0.1,0,0.1-0.1,0.1h-0.4c-0.1,0-0.1,0-0.1-0.1v-0.3c0-0.1,0-0.1,0.1-0.1h0.4
				C49.2,29.3,49.3,29.3,49.3,29.4z"/>
			<path class="st6" d="M49.3,41.4v0.3c0,0.1,0,0.1-0.1,0.1h-0.4c-0.1,0-0.1,0-0.1-0.1v-0.3c0-0.1,0-0.1,0.1-0.1h0.4
				C49.2,41.3,49.3,41.4,49.3,41.4z"/>
			<path class="st6" d="M55.1,35.9h-0.3c-0.1,0-0.1,0-0.1-0.1v-0.4c0-0.1,0-0.1,0.1-0.1h0.3c0.1,0,0.1,0,0.1,0.1v0.4
				C55.2,35.8,55.2,35.9,55.1,35.9z"/>
			<path class="st6" d="M43.1,35.9h-0.3c-0.1,0-0.1,0-0.1-0.1v-0.4c0-0.1,0-0.1,0.1-0.1h0.3c0.1,0,0.1,0,0.1,0.1v0.4
				C43.2,35.8,43.1,35.9,43.1,35.9z"/>
			<path class="st6" d="M55,34.3l-0.3,0.1c-0.1,0-0.1,0-0.1-0.1l-0.1-0.4c0-0.1,0-0.1,0.1-0.1l0.3-0.1c0.1,0,0.1,0,0.1,0.1l0.1,0.4
				C55.1,34.2,55,34.2,55,34.3z"/>
			<path class="st6" d="M43.4,37.4l-0.3,0.1c-0.1,0-0.1,0-0.1-0.1L42.9,37c0-0.1,0-0.1,0.1-0.1l0.3-0.1c0.1,0,0.1,0,0.1,0.1l0.1,0.4
				C43.5,37.3,43.4,37.4,43.4,37.4z"/>
			<path class="st6" d="M43,34.3l0.3,0.1c0.1,0,0.1,0,0.1-0.1l0.1-0.4c0-0.1,0-0.1-0.1-0.1l-0.3-0.1c-0.1,0-0.1,0-0.1,0.1l-0.1,0.4
				C42.8,34.2,42.9,34.2,43,34.3z"/>
			<path class="st6" d="M54.6,37.4l0.3,0.1c0.1,0,0.1,0,0.1-0.1L55,37c0-0.1,0-0.1-0.1-0.1l-0.3-0.1c-0.1,0-0.1,0-0.1,0.1l-0.1,0.4
				C54.4,37.3,54.5,37.4,54.6,37.4z"/>
			<path class="st6" d="M54.4,32.8l-0.2,0.1c0,0-0.1,0-0.2,0l-0.2-0.3c0,0,0-0.1,0-0.2l0.2-0.1c0,0,0.1,0,0.2,0l0.2,0.3
				C54.5,32.6,54.5,32.7,54.4,32.8z"/>
			<path class="st6" d="M44,38.8l-0.2,0.1c0,0-0.1,0-0.2,0l-0.2-0.3c0,0,0-0.1,0-0.2l0.2-0.1c0,0,0.1,0,0.2,0l0.2,0.3
				C44.1,38.7,44.1,38.7,44,38.8z"/>
			<path class="st6" d="M43.5,32.8l0.2,0.1c0,0,0.1,0,0.2,0l0.2-0.3c0,0,0-0.1,0-0.2l-0.2-0.1c0,0-0.1,0-0.2,0l-0.2,0.3
				C43.4,32.6,43.4,32.7,43.5,32.8z"/>
			<path class="st6" d="M53.9,38.8l0.2,0.1c0,0,0.1,0,0.2,0l0.2-0.3c0,0,0-0.1,0-0.2l-0.2-0.1c0,0-0.1,0-0.2,0l-0.2,0.3
				C53.8,38.7,53.8,38.7,53.9,38.8z"/>
			<path class="st6" d="M53.5,31.4l-0.2,0.2c0,0-0.1,0-0.2,0l-0.3-0.3c0,0,0-0.1,0-0.2l0.2-0.2c0,0,0.1,0,0.2,0l0.3,0.3
				C53.6,31.3,53.6,31.4,53.5,31.4z"/>
			<path class="st6" d="M45,39.9l-0.2,0.2c0,0-0.1,0-0.2,0l-0.3-0.3c0,0,0-0.1,0-0.2l0.2-0.2c0,0,0.1,0,0.2,0l0.3,0.3
				C45.1,39.8,45.1,39.9,45,39.9z"/>
			<path class="st6" d="M44.4,31.4l0.2,0.2c0,0,0.1,0,0.2,0l0.3-0.3c0,0,0-0.1,0-0.2L44.8,31c0,0-0.1,0-0.2,0l-0.3,0.3
				C44.4,31.3,44.4,31.4,44.4,31.4z"/>
			<path class="st6" d="M52.9,39.9l0.2,0.2c0,0,0.1,0,0.2,0l0.3-0.3c0,0,0-0.1,0-0.2l-0.2-0.2c0,0-0.1,0-0.2,0l-0.3,0.3
				C52.8,39.8,52.8,39.9,52.9,39.9z"/>
			<path class="st6" d="M52.3,30.4l-0.1,0.2c0,0-0.1,0.1-0.2,0l-0.3-0.2c0,0-0.1-0.1,0-0.2l0.1-0.2c0,0,0.1-0.1,0.2,0l0.3,0.2
				C52.3,30.3,52.3,30.3,52.3,30.4z"/>
			<path class="st6" d="M46.3,40.8L46.2,41c0,0-0.1,0.1-0.2,0l-0.3-0.2c-0.1,0-0.1-0.1,0-0.2l0.1-0.2c0,0,0.1-0.1,0.2,0l0.3,0.2
				C46.3,40.7,46.3,40.7,46.3,40.8z"/>
			<path class="st6" d="M45.6,30.4l0.1,0.2c0,0,0.1,0.1,0.2,0l0.3-0.2c0,0,0.1-0.1,0-0.2l-0.1-0.2c0,0-0.1-0.1-0.2,0l-0.3,0.2
				C45.6,30.3,45.6,30.3,45.6,30.4z"/>
			<path class="st6" d="M51.6,40.8l0.1,0.2c0,0,0.1,0.1,0.2,0l0.3-0.2c0,0,0.1-0.1,0-0.2l-0.1-0.2c0,0-0.1-0.1-0.2,0l-0.3,0.2
				C51.6,40.7,51.6,40.7,51.6,40.8z"/>
			<path class="st6" d="M50.8,29.7l-0.1,0.3c0,0.1-0.1,0.1-0.1,0.1l-0.4-0.1c-0.1,0-0.1-0.1-0.1-0.1l0.1-0.3c0-0.1,0.1-0.1,0.1-0.1
				l0.4,0.1C50.8,29.6,50.9,29.6,50.8,29.7z"/>
			<path class="st6" d="M47.8,41.3l-0.1,0.3c0,0.1-0.1,0.1-0.1,0.1l-0.4-0.1c-0.1,0-0.1-0.1-0.1-0.1l0.1-0.3c0-0.1,0.1-0.1,0.1-0.1
				l0.4,0.1C47.7,41.2,47.8,41.2,47.8,41.3z"/>
			<path class="st6" d="M47.1,29.7l0.1,0.3c0,0.1,0.1,0.1,0.1,0.1l0.4-0.1c0.1,0,0.1-0.1,0.1-0.1l-0.1-0.3c0-0.1-0.1-0.1-0.1-0.1
				l-0.4,0.1C47.1,29.6,47,29.6,47.1,29.7z"/>
			<path class="st6" d="M50.2,41.3l0.1,0.3c0,0.1,0.1,0.1,0.1,0.1l0.4-0.1c0.1,0,0.1-0.1,0.1-0.1l-0.1-0.3c0-0.1-0.1-0.1-0.1-0.1
				l-0.4,0.1C50.2,41.2,50.2,41.2,50.2,41.3z"/>
			<path class="st5" d="M54.2,29.2h-8.5l-3.1,4V39c0,0.3-0.2,0.5-0.5,0.5c-0.3,0-0.5-0.2-0.5-0.5v-6c0-0.1,0-0.2,0.1-0.3l3.3-4.3
				c0.1-0.1,0.2-0.2,0.4-0.2h8.8c0.3,0,0.5,0.2,0.5,0.5C54.7,29,54.5,29.2,54.2,29.2L54.2,29.2z"/>
			<rect x="28.8" y="34" class="st8" width="8.4" height="4.5"/>
			<rect x="28.8" y="36.2" class="st5" width="8.4" height="0.9"/>
			<path class="st6" d="M30.4,35.6c0-3.3-2.7-6.1-6.1-6.1c-3.3,0-6.1,2.7-6.1,6.1c0,3.4,2.7,6.1,6.1,6.1
				C27.7,41.6,30.4,38.9,30.4,35.6z"/>
			<path class="st10" d="M28,35.6c0-2-1.6-3.7-3.7-3.7c-2,0-3.7,1.6-3.7,3.7s1.6,3.7,3.7,3.7C26.4,39.2,28,37.6,28,35.6z"/>
			<path class="st6" d="M26.2,35.6c0-1-0.8-1.8-1.8-1.8c-1,0-1.8,0.8-1.8,1.8c0,1,0.8,1.8,1.8,1.8C25.4,37.4,26.2,36.6,26.2,35.6z"
				/>
			<path class="st6" d="M24.7,29.4v0.3c0,0.1,0,0.1-0.1,0.1h-0.4c-0.1,0-0.1,0-0.1-0.1v-0.3c0-0.1,0-0.1,0.1-0.1h0.4
				C24.6,29.3,24.7,29.3,24.7,29.4z"/>
			<path class="st6" d="M24.7,41.4v0.3c0,0.1,0,0.1-0.1,0.1h-0.4c-0.1,0-0.1,0-0.1-0.1v-0.3c0-0.1,0-0.1,0.1-0.1h0.4
				C24.7,41.3,24.7,41.3,24.7,41.4z"/>
			<path class="st6" d="M30.5,35.9h-0.3c-0.1,0-0.1,0-0.1-0.1v-0.4c0-0.1,0-0.1,0.1-0.1h0.3c0.1,0,0.1,0,0.1,0.1v0.4
				C30.7,35.8,30.6,35.9,30.5,35.9z"/>
			<path class="st6" d="M18.5,35.9h-0.3c-0.1,0-0.1,0-0.1-0.1v-0.4c0-0.1,0-0.1,0.1-0.1h0.3c0.1,0,0.1,0,0.1,0.1v0.4
				C18.6,35.8,18.6,35.9,18.5,35.9z"/>
			<path class="st6" d="M30.4,34.3l-0.3,0.1c-0.1,0-0.1,0-0.1-0.1l-0.1-0.4c0-0.1,0-0.1,0.1-0.1l0.3-0.1c0.1,0,0.1,0,0.1,0.1
				l0.1,0.4C30.5,34.2,30.5,34.2,30.4,34.3z"/>
			<path class="st6" d="M18.8,37.4l-0.3,0.1c-0.1,0-0.1,0-0.1-0.1L18.3,37c0-0.1,0-0.1,0.1-0.1l0.3-0.1c0.1,0,0.1,0,0.1,0.1l0.1,0.4
				C18.9,37.3,18.9,37.4,18.8,37.4z"/>
			<path class="st6" d="M18.4,34.3l0.3,0.1c0.1,0,0.1,0,0.1-0.1l0.1-0.4c0-0.1,0-0.1-0.1-0.1l-0.3-0.1c-0.1,0-0.1,0-0.1,0.1
				l-0.1,0.4C18.3,34.2,18.3,34.2,18.4,34.3z"/>
			<path class="st6" d="M30,37.4l0.3,0.1c0.1,0,0.1,0,0.1-0.1l0.1-0.4c0-0.1,0-0.1-0.1-0.1l-0.3-0.1c-0.1,0-0.1,0-0.1,0.1l-0.1,0.4
				C29.9,37.3,29.9,37.4,30,37.4z"/>
			<path class="st6" d="M29.9,32.8l-0.2,0.1c-0.1,0-0.1,0-0.2,0l-0.2-0.3c0,0,0-0.1,0-0.2l0.2-0.1c0,0,0.1,0,0.2,0l0.2,0.3
				C29.9,32.6,29.9,32.7,29.9,32.8z"/>
			<path class="st6" d="M19.5,38.8l-0.2,0.1c0,0-0.1,0-0.2,0l-0.2-0.3c0,0,0-0.1,0-0.2l0.2-0.1c0,0,0.1,0,0.2,0l0.2,0.3
				C19.5,38.7,19.5,38.7,19.5,38.8z"/>
			<path class="st6" d="M18.9,32.8l0.2,0.1c0,0,0.1,0,0.2,0l0.2-0.3c0,0,0-0.1,0-0.2l-0.2-0.1c0,0-0.1,0-0.2,0l-0.2,0.3
				C18.8,32.6,18.9,32.7,18.9,32.8z"/>
			<path class="st6" d="M29.3,38.8l0.2,0.1c0,0,0.1,0,0.2,0l0.2-0.3c0,0,0-0.1,0-0.2l-0.2-0.1c-0.1,0-0.1,0-0.2,0l-0.2,0.3
				C29.2,38.7,29.3,38.7,29.3,38.8z"/>
			<path class="st6" d="M28.9,31.4l-0.2,0.2c0,0-0.1,0-0.2,0l-0.3-0.3c0,0,0-0.1,0-0.2l0.2-0.2c0,0,0.1,0,0.2,0l0.3,0.3
				C29,31.3,29,31.4,28.9,31.4z"/>
			<path class="st6" d="M20.5,39.9l-0.2,0.2c0,0-0.1,0-0.2,0l-0.3-0.3c0,0,0-0.1,0-0.2l0.2-0.2c0,0,0.1,0,0.2,0l0.3,0.3
				C20.5,39.8,20.5,39.9,20.5,39.9z"/>
			<path class="st6" d="M19.8,31.4l0.2,0.2c0,0,0.1,0,0.2,0l0.3-0.3c0,0,0-0.1,0-0.2L20.3,31c0,0-0.1,0-0.2,0l-0.3,0.3
				C19.8,31.3,19.8,31.4,19.8,31.4z"/>
			<path class="st6" d="M28.3,39.9l0.2,0.2c0,0,0.1,0,0.2,0l0.3-0.3c0,0,0-0.1,0-0.2l-0.2-0.2c0,0-0.1,0-0.2,0l-0.3,0.3
				C28.3,39.8,28.3,39.9,28.3,39.9z"/>
			<path class="st6" d="M27.7,30.4l-0.1,0.2c0,0-0.1,0.1-0.2,0l-0.3-0.2c0,0-0.1-0.1,0-0.2l0.1-0.2c0,0,0.1-0.1,0.2,0l0.3,0.2
				C27.7,30.3,27.8,30.3,27.7,30.4z"/>
			<path class="st6" d="M21.7,40.8L21.6,41c0,0-0.1,0.1-0.2,0l-0.3-0.2c0,0-0.1-0.1,0-0.2l0.1-0.2c0,0,0.1-0.1,0.2,0l0.3,0.2
				C21.7,40.7,21.8,40.7,21.7,40.8z"/>
			<path class="st6" d="M21.1,30.4l0.1,0.2c0,0,0.1,0.1,0.2,0l0.3-0.2c0,0,0.1-0.1,0-0.2l-0.1-0.2c0,0-0.1-0.1-0.2,0l-0.3,0.2
				C21,30.3,21,30.3,21.1,30.4z"/>
			<path class="st6" d="M27,40.8l0.1,0.2c0,0,0.1,0.1,0.2,0l0.3-0.2c0,0,0.1-0.1,0-0.2l-0.1-0.2c0,0-0.1-0.1-0.2,0l-0.3,0.2
				C27,40.7,27,40.7,27,40.8z"/>
			<path class="st6" d="M26.3,29.7l-0.1,0.3c0,0.1-0.1,0.1-0.1,0.1l-0.4-0.1c-0.1,0-0.1-0.1-0.1-0.1l0.1-0.3c0-0.1,0.1-0.1,0.1-0.1
				l0.4,0.1C26.2,29.6,26.3,29.6,26.3,29.7z"/>
			<path class="st6" d="M23.2,41.3l-0.1,0.3c0,0.1-0.1,0.1-0.1,0.1l-0.4-0.1c-0.1,0-0.1-0.1-0.1-0.1l0.1-0.3c0-0.1,0.1-0.1,0.1-0.1
				l0.4,0.1C23.2,41.2,23.2,41.2,23.2,41.3z"/>
			<path class="st6" d="M22.5,29.7l0.1,0.3c0,0.1,0.1,0.1,0.1,0.1l0.4-0.1c0.1,0,0.1-0.1,0.1-0.1l-0.1-0.3c0-0.1-0.1-0.1-0.1-0.1
				l-0.4,0.1C22.5,29.6,22.5,29.6,22.5,29.7z"/>
			<path class="st6" d="M25.6,41.3l0.1,0.3c0,0.1,0.1,0.1,0.1,0.1l0.4-0.1c0.1,0,0.1-0.1,0.1-0.1l-0.1-0.3c0-0.1-0.1-0.1-0.1-0.1
				l-0.4,0.1C25.6,41.2,25.6,41.2,25.6,41.3z"/>
			<path class="st9" d="M36.9,28.1v0.5c0,0.3-0.3,0.6-0.6,0.6H17.6c-0.3,0-0.6-0.3-0.6-0.6v-0.5c0-0.3,0.3-0.6,0.6-0.6h18.7
				C36.6,27.5,36.9,27.8,36.9,28.1z"/>
			<path class="st5" d="M20.8,29.2l-3.1,4V39c0,0.3-0.2,0.5-0.5,0.5c-0.3,0-0.5-0.2-0.5-0.5v-6c0-0.1,0-0.2,0.1-0.3l3.3-4.3
				c0.1-0.1,0.2-0.2,0.4-0.2h16.4v0.4c0,0.3-0.3,0.6-0.6,0.6h-7L20.8,29.2L20.8,29.2z"/>
			<path class="st9" d="M16.3,33h-2.2v-6.9c0-0.3,0.2-0.4,0.5-0.4l1.7-0.4L16.3,33L16.3,33L16.3,33z"/>
			<path class="st1" d="M15.8,30.6C15.8,30.6,15.8,30.7,15.8,30.6C15.8,30.7,15.7,30.7,15.8,30.6c-0.2,0.1-0.4,0.1-0.6,0.1
				c-0.2,0-0.3,0-0.5,0c0,0,0,0-0.1,0s0,0,0-0.1c0,0,0,0,0,0c0,0,0,0,0,0c0,0,0,0,0-0.1s0,0,0.1,0c0.2,0,0.3,0,0.5,0
				c0.2,0,0.3,0,0.5,0c0,0,0,0,0.1,0S15.8,30.5,15.8,30.6C15.8,30.6,15.8,30.6,15.8,30.6C15.8,30.6,15.8,30.6,15.8,30.6L15.8,30.6z
				 M15.8,26.4C15.8,26.5,15.8,26.5,15.8,26.4C15.8,26.5,15.7,26.5,15.8,26.4c-0.2,0.1-0.4,0.1-0.6,0.1c-0.2,0-0.3,0-0.5,0
				c0,0,0,0-0.1,0s0,0,0-0.1s0,0,0,0c0,0,0,0,0,0c0,0,0,0,0-0.1s0,0,0.1,0c0.2,0,0.3,0,0.5,0c0.2,0,0.3,0,0.5,0c0,0,0,0,0.1,0
				S15.8,26.3,15.8,26.4C15.8,26.4,15.8,26.4,15.8,26.4C15.8,26.4,15.8,26.4,15.8,26.4L15.8,26.4z M15.8,27.1
				C15.8,27.2,15.8,27.2,15.8,27.1C15.8,27.2,15.7,27.2,15.8,27.1c-0.2,0.1-0.4,0.1-0.6,0.1c-0.2,0-0.3,0-0.5,0c0,0,0,0-0.1,0
				c0,0,0,0,0-0.1s0,0,0,0c0,0,0,0,0,0c0,0,0,0,0-0.1s0,0,0.1,0c0.2,0,0.3,0,0.5,0c0.2,0,0.3,0,0.5,0c0,0,0,0,0.1,0
				S15.8,27,15.8,27.1C15.8,27.1,15.8,27.1,15.8,27.1C15.8,27.1,15.8,27.1,15.8,27.1L15.8,27.1z M15.8,27.8
				C15.8,27.9,15.8,27.9,15.8,27.8C15.8,27.9,15.7,27.9,15.8,27.8C15.5,28,15.4,28,15.2,28c-0.2,0-0.3,0-0.5,0c0,0,0,0-0.1,0
				c0,0,0,0,0-0.1s0,0,0,0c0,0,0,0,0,0c0,0,0,0,0-0.1s0,0,0.1,0c0.2,0,0.3,0,0.5,0c0.2,0,0.3,0,0.5,0c0,0,0,0,0.1,0
				S15.8,27.7,15.8,27.8C15.8,27.8,15.8,27.8,15.8,27.8C15.8,27.8,15.8,27.8,15.8,27.8L15.8,27.8z M15.8,28.5
				C15.8,28.6,15.8,28.6,15.8,28.5C15.8,28.6,15.7,28.6,15.8,28.5c-0.2,0.1-0.4,0.1-0.6,0.1c-0.2,0-0.3,0-0.5,0c0,0,0,0-0.1,0
				s0,0,0-0.1s0,0,0,0c0,0,0,0,0,0c0,0,0,0,0-0.1s0,0,0.1,0c0.2,0,0.3,0,0.5,0c0.2,0,0.3,0,0.5,0c0,0,0,0,0.1,0S15.8,28.4,15.8,28.5
				C15.8,28.5,15.8,28.5,15.8,28.5C15.8,28.5,15.8,28.5,15.8,28.5L15.8,28.5z M15.8,31.3C15.8,31.4,15.8,31.4,15.8,31.3
				C15.8,31.4,15.7,31.4,15.8,31.3c-0.2,0.1-0.4,0.1-0.6,0.1c-0.2,0-0.3,0-0.5,0c0,0,0,0-0.1,0s0,0,0-0.1s0,0,0,0c0,0,0,0,0,0
				c0,0,0,0,0-0.1s0,0,0.1,0c0.2,0,0.3,0,0.5,0c0.2,0,0.3,0,0.5,0c0,0,0,0,0.1,0S15.8,31.2,15.8,31.3C15.8,31.3,15.8,31.3,15.8,31.3
				C15.8,31.3,15.8,31.3,15.8,31.3L15.8,31.3z M15.8,29.2C15.8,29.3,15.8,29.3,15.8,29.2C15.8,29.3,15.7,29.3,15.8,29.2
				c-0.2,0.1-0.4,0.1-0.6,0.1c-0.2,0-0.3,0-0.5,0c0,0,0,0-0.1,0c0,0,0,0,0-0.1s0,0,0,0c0,0,0,0,0,0c0,0,0,0,0-0.1s0,0,0.1,0
				c0.2,0,0.3,0,0.5,0c0.2,0,0.3,0,0.5,0c0,0,0,0,0.1,0S15.8,29.1,15.8,29.2C15.8,29.2,15.8,29.2,15.8,29.2
				C15.8,29.2,15.8,29.2,15.8,29.2L15.8,29.2z M15.8,32C15.8,32,15.8,32.1,15.8,32C15.8,32.1,15.7,32.1,15.8,32
				c-0.2,0.1-0.4,0.1-0.6,0.1c-0.2,0-0.3,0-0.5,0c0,0,0,0-0.1,0s0,0,0-0.1s0,0,0,0c0,0,0,0,0,0c0,0,0,0,0-0.1s0,0,0.1,0
				c0.2,0,0.3,0,0.5,0c0.2,0,0.3,0,0.5,0c0,0,0,0,0.1,0S15.8,31.9,15.8,32C15.8,31.9,15.8,31.9,15.8,32C15.8,32,15.8,32,15.8,32
				L15.8,32z M15.8,29.9C15.8,29.9,15.8,30,15.8,29.9C15.8,30,15.7,30,15.8,29.9c-0.2,0.1-0.4,0.1-0.6,0.1c-0.2,0-0.3,0-0.5,0
				c0,0,0,0-0.1,0c0,0,0,0,0-0.1s0,0,0,0c0,0,0,0,0,0c0,0,0,0,0-0.1s0,0,0.1,0c0.2,0,0.3,0,0.5,0c0.2,0,0.3,0,0.5,0c0,0,0,0,0.1,0
				S15.8,29.8,15.8,29.9C15.8,29.8,15.8,29.8,15.8,29.9C15.8,29.9,15.8,29.9,15.8,29.9L15.8,29.9z"/>
			<rect x="19.6" y="22.7" class="st4" width="1.6" height="0.7"/>
			
				<rect x="52.3" y="35.2" transform="matrix(0.9844 -0.1758 0.1758 0.9844 -5.3266 10.3955)" class="st1" width="7.4" height="0.1"/>
			
				<rect x="57.1" y="30.5" transform="matrix(0.8062 -0.5917 0.5917 0.8062 -7.0255 40.5236)" class="st9" width="2.5" height="0.9"/>
			<rect x="49.9" y="33.3" transform="matrix(0.806 -0.5919 0.5919 0.806 -9.6121 38.704)" class="st5" width="8.6" height="1.5"/>
			<path class="st5" d="M59.3,38.2l-18.2-0.4c-0.5,0-0.9-0.4-0.9-0.9v-0.1c0-0.5,0.4-0.9,0.9-0.9l18.2-0.4V38.2z"/>
			<path class="st11" d="M41.9,36.9c0-0.3-0.2-0.5-0.5-0.5c-0.3,0-0.5,0.2-0.5,0.5c0,0.3,0.2,0.5,0.5,0.5
				C41.7,37.4,41.9,37.2,41.9,36.9z"/>
			<polygon class="st11" points="61.9,39.6 58.5,39.6 58.7,26.8 59.9,26.8 			"/>
			<rect x="49.8" y="25.7" class="st6" width="1" height="0.3"/>
			<path class="st11" d="M59.3,36.6v0.7c0,0.3-0.2,0.5-0.5,0.5h-1c-0.3,0-0.5-0.2-0.5-0.5v-0.7c0-0.3,0.2-0.5,0.5-0.5h1
				C59.1,36.2,59.3,36.4,59.3,36.6z"/>
			<path class="st9" d="M58.9,36.9c0-0.3-0.3-0.5-0.5-0.5c-0.3,0-0.5,0.3-0.5,0.5c0,0.3,0.3,0.5,0.5,0.5
				C58.6,37.5,58.9,37.3,58.9,36.9z"/>
			<path class="st11" d="M58.6,36.9c0-0.2-0.1-0.3-0.3-0.3S58,36.8,58,36.9s0.1,0.3,0.3,0.3C58.5,37.2,58.6,37.1,58.6,36.9z"/>
			<path class="st4" d="M33.1,23.2c-0.4,0-0.8-0.3-0.8-0.8v-1.7c0-0.4,0.3-0.8,0.8-0.8h0.7l0.5,3.2H33.1L33.1,23.2z M34,22.9
				l-0.4-2.6h-0.4c-0.3,0-0.5,0.2-0.5,0.5v1.7c0,0.3,0.2,0.5,0.5,0.5L34,22.9L34,22.9z"/>
		</g>
	</g>
</g>
</svg>
