<?xml version="1.0" encoding="utf-8"?>
<!-- Generator: Adobe Illustrator 25.0.1, SVG Export Plug-In . SVG Version: 6.00 Build 0)  -->
<svg version="1.1" id="Layer_1" xmlns="http://www.w3.org/2000/svg" xmlns:xlink="http://www.w3.org/1999/xlink" x="0px" y="0px"
	 viewBox="0 0 100 100" style="enable-background:new 0 0 100 100;" xml:space="preserve">
<style type="text/css">
	.st0{fill:#FFFFFF;}
</style>
<path class="st0" d="M89.5,48.6c0,3.2,0,6.5,0,9.7c-0.1,1-0.2,2-0.4,3c-0.4,2.4-0.8,4.7-1.1,7.1c-0.5,4.2,0,8.2,1.2,12.2
	c1.1,3.5-1,7.3-4.5,8.4c-0.4,0.1-0.8,0.2-1.2,0.3c-4.8,0-9.6,0-14.3,0c-1-0.4-2.1-0.7-3.1,0c-17.5,0-35.1,0-52.6,0
	c-1.6-0.5-2.6-1.6-2.9-3.2c0-16.8,0-33.5,0-50.3c0,0,0.1-0.1,0.1-0.1c0.8-3,2.4-4.3,5.4-4.3c1.7,0,3.5,0,5.2,0
	c3.2,0,5.1,1.9,5.1,5.1c0,3.3,0,6.6,0,9.9c0,0.3,0,0.5,0,0.8c4.4,0,8.7,0,13.1,0c0-3.5,0-7,0-10.5c0-3.1,2.1-5.2,5.2-5.2
	c1.2,0,2.5,0,3.7,0c1.2,0,1.7,0.4,1.7,1.7c0,2.4,0,4.7,0,7.1c0,0.2,0,0.4,0.1,0.8c0.5-0.9,0.9-1.6,1.3-2.2c0.3-0.5,0.7-1,0.1-1.6
	c-0.1-0.1-0.1-0.3-0.1-0.5c0-2.2,0-4.4,0-6.6c0-1.4,1.1-2.5,2.5-2.5c2.7,0,5.4,0,8.1,0c1.4,0,2.5,1.1,2.5,2.6c0,1.9,0,3.8,0,5.7
	c0,0.2,0,0.5,0,0.7c0.2-0.3,0.3-0.5,0.4-0.8c1.8-4.7,3.5-9.4,5.3-14.1c0.2-0.5,0.3-0.8-0.2-1.3c-0.2-0.2-0.3-0.8-0.3-1.1
	c0-2.3,0-4.7,0-7c0-0.8,0.2-1.4,0.9-1.8c3.8,0,7.6,0,11.4,0c0.6,0.4,0.9,0.9,0.9,1.6c0,2.5,0,4.9,0,7.4c0,0.4-0.1,0.8-0.3,1.1
	c-0.4,0.4-0.3,0.7-0.2,1.1c1.8,4.9,3.6,9.8,5.5,14.7c1,2.4,1.5,4.9,1.4,7.5C89.3,45.4,89.4,47,89.5,48.6z M47.4,34.2
	c-0.9,0-1.7,0-2.6,0c-1.8,0-2.6,0.9-2.6,2.7c0,3.4,0,6.7,0,10.1c0,2-1,3-3,3c-5.8,0-11.7,0-17.5,0c-2.2,0-3.1-1-3.1-3.2
	c0-3.9,0-7.8,0-11.6c0-0.3,0-0.6,0-1c-0.9,0-1.7,0-2.6,0c-1.9,0-2.7,0.9-2.7,2.7c0,16.1,0,32.2,0,48.3c0,1.3,0.3,1.6,1.5,1.6
	c5.3,0,10.6,0,16,0c0.3,0,0.5,0,0.7,0c0-0.1,0-0.1,0-0.2c-0.8-6.8-1.5-13.6-2.3-20.4c0-0.2-0.3-0.4-0.4-0.5c-0.7-0.2-1-0.7-1.1-1.3
	c0-1.7-0.1-3.4,0-5.2c0-0.4,0.4-1.1,0.8-1.2c0.9-0.1,1-0.8,1.1-1.5c0.2-0.8,0.4-1.7,0.6-2.5c0.3-1.2,0.6-1.5,1.9-1.5
	c4.8,0,9.6,0,14.4,0c0.3,0,0.5,0,0.8,0C47.4,46.5,47.4,40.4,47.4,34.2z M86.8,59.3c-5.7,0-11.3,0-17,0c0,0.3,0.1,0.6,0,0.9
	c-0.3,1.1-0.2,2.2,0,3.4c0.2,1.5,0.2,3,0,4.5c-0.1,1.1-0.1,2.2,0,3.3c0.2,1.5,0.2,3.1,0,4.6c-0.1,1.1-0.1,2.1,0,3.2
	c0.1,2.5,0,5,0,7.6c0.1,0,0.5,0,0.8,0c3.9,0,7.8,0,11.6,0c3.4,0,5.3-2.6,4.4-5.9c-1.4-4.8-1.7-9.7-0.9-14.6
	C86,64,86.4,61.7,86.8,59.3z M86.8,42.2c-6.8,0-13.6,0-20.5,0c0.6,1.1,1.3,2.2,1.7,3.2c1.2,2.7,2.3,5.4,1.2,8.4c0,0.1,0,0.1,0,0.2
	c0.2,0.8,0.4,1.6,0.6,2.5c5.5,0,11.2,0,16.9,0C86.8,51.7,86.8,47,86.8,42.2z M31.8,65.8c0.8,7.1,1.6,14,2.3,21c4.5,0,9,0,13.4,0
	c0.8-7,1.6-14,2.3-21C43.8,65.8,37.8,65.8,31.8,65.8z M86.3,39.4c-0.1-0.2-0.1-0.3-0.1-0.4c-2.2-5.8-4.4-11.7-6.6-17.5
	c-0.2-0.4-0.4-0.5-0.8-0.5c-1.6,0-3.1,0-4.7,0c-0.6,0-0.8,0.2-1,0.7c-2.1,5.6-4.2,11.2-6.3,16.7c-0.1,0.3-0.2,0.6-0.3,1
	C73.1,39.4,79.6,39.4,86.3,39.4z M50,52.6c0.2,0,0.3,0.1,0.3,0.1c5.4,0,10.7,0,16.1,0c0.6,0,0.7-0.2,0.7-0.7c-0.1-2-0.6-3.9-1.5-5.6
	c-1.4-2.6-2.8-5.1-4.3-7.7c-0.1-0.2-0.5-0.5-0.8-0.5c-1.7,0-3.4,0-5.2,0c-0.4,0-0.7,0.1-0.9,0.5c-1.4,2.5-2.8,5-4.1,7.5
	c-0.1,0.2-0.3,0.5-0.3,0.8C50,48.8,50,50.7,50,52.6z M50.2,86.8c0.3,0,0.4,0.1,0.6,0.1c4.8,0,9.6,0,14.3,0c1.2,0,2-0.8,2-2
	c0-1.6,0-3.3,0-4.9c0-0.8-0.3-0.9-1-0.9c-4.8,0-9.6,0-14.3,0c-0.2,0-0.5,0-0.8,0C50.8,81.6,50.5,84.2,50.2,86.8z M51.4,76.2
	c0.1,0.1,0.2,0.1,0.2,0.1c5,0,9.9,0,14.9,0c0.5,0,0.7-0.2,0.7-0.7c0-1.2,0-2.4,0-3.6c0-0.7-0.2-1-0.9-1c-2.3,0-4.5,0-6.8,0
	c-2.3,0-4.5,0-6.8,0c-0.3,0-0.7,0.2-0.7,0.4C51.7,73.1,51.6,74.6,51.4,76.2z M54,60.4c0.2,0,0.2,0.1,0.3,0.1c4.1,0,8.2,0,12.2,0
	c0.5,0,0.6-0.2,0.6-0.7c0-1.3,0-2.5,0-3.8c0-0.7-0.2-0.9-0.9-0.9c-4.6,0-9.2,0-13.9,0c-0.2,0-0.4,0-0.7,0c0.2,0.7,0.3,1.4,0.5,2.1
	c0.1,0.2,0.3,0.5,0.6,0.5c0.7,0.2,1.1,0.7,1.2,1.4C54,59.7,54,60,54,60.4z M52.3,68.4c4.9,0,9.6,0,14.3,0c0.5,0,0.6-0.3,0.6-0.7
	c0-1.2,0-2.5,0-3.7c0-0.7-0.2-0.9-0.9-0.9c-3.8,0-7.6,0-11.5,0c-0.2,0-0.5,0-0.8,0c0,0.3,0,0.6,0,0.9c0,0.9-0.2,1.5-1.2,1.7
	c-0.1,0-0.3,0.2-0.3,0.3C52.4,66.8,52.4,67.6,52.3,68.4z M51.3,60.6c-7,0-14,0-21,0c0,0.9,0,1.7,0,2.5c7,0,14,0,21,0
	C51.3,62.2,51.3,61.4,51.3,60.6z M32.1,57.8c5.9,0,11.7,0,17.6,0c-0.2-0.9-0.4-1.7-0.6-2.6c-0.3,0-0.6,0-0.9,0c-4.4,0-8.8,0-13.3,0
	c-2.3,0-2.3,0-2.7,2.3C32.1,57.6,32.1,57.7,32.1,57.8z M80.3,18.4c0-1.8,0-3.5,0-5.2c-2.6,0-5.2,0-7.8,0c0,1.8,0,3.5,0,5.2
	C75.1,18.4,77.6,18.4,80.3,18.4z M61.9,30.3c-2.7,0-5.2,0-7.8,0c0,1.8,0,3.5,0,5.2c2.6,0,5.2,0,7.8,0C61.9,33.7,61.9,32,61.9,30.3z
	 M21.2,34.3c0,4.3,0,8.7,0,13c0.9,0,1.7,0,2.5,0c0-0.1,0.1-0.1,0.1-0.2c0-3.6,0-7.3,0-10.9C23.7,34.8,22.6,34.1,21.2,34.3z"/>
<path class="st0" d="M15.8,66.4c0-1,0-2.1,0-3.1c0-0.9,0.5-1.5,1.3-1.5c0.8,0,1.3,0.5,1.3,1.5c0,2.1,0,4.2,0,6.2
	c0,0.9-0.6,1.5-1.3,1.5c-0.7,0-1.3-0.6-1.3-1.4C15.8,68.6,15.8,67.5,15.8,66.4z"/>
<path class="st0" d="M18.4,75.6c0,0.2,0,0.5,0,0.7c-0.1,0.8-0.6,1.3-1.3,1.3c-0.7,0-1.2-0.5-1.3-1.3c0-0.5,0-0.9,0-1.4
	c0.1-0.8,0.6-1.3,1.4-1.3c0.7,0,1.2,0.5,1.3,1.3C18.5,75.2,18.4,75.4,18.4,75.6z"/>
<path class="st0" d="M80.2,71.4c0-2.4,0.5-4.8,1.4-7.2c0.4-0.9,1-1.3,1.8-1c0.7,0.3,1,1,0.7,1.9c-1.6,4.2-1.6,8.5-0.1,12.7
	c0.4,1.2,0.2,2-0.6,2.3c-0.8,0.3-1.5-0.2-1.9-1.4C80.7,76.5,80.3,74.1,80.2,71.4z"/>
<path class="st0" d="M40.9,80.3c-2.9,0-5.3-2.3-5.3-5.2c0-2.9,2.4-5.3,5.3-5.3c2.9,0,5.3,2.4,5.3,5.3C46.1,77.9,43.8,80.2,40.9,80.3
	z M40.8,77.6c1.5,0,2.6-1.2,2.6-2.6c0-1.5-1.2-2.6-2.7-2.6c-1.4,0-2.6,1.2-2.6,2.6C38.2,76.5,39.4,77.6,40.8,77.6z"/>
<path class="st0" d="M78,26.3c0.2,0.2,0.7,0.4,0.8,0.8c0.5,0.9,0.8,1.8,1.1,2.8c0.2,0.7-0.1,1.3-0.7,1.6c-0.6,0.3-1.4,0.1-1.7-0.5
	c-0.5-1-0.9-2-1.2-3C76.2,27.1,76.9,26.3,78,26.3z"/>
<path class="st0" d="M80.4,32.9c1.1,0.1,1.3,1.1,1.6,1.9c0.3,0.6,0.3,1.2-0.3,1.8c-0.6,0.5-1.5,0.4-1.9-0.2
	c-0.3-0.6-0.6-1.2-0.8-1.9C78.9,33.6,79.5,32.9,80.4,32.9z"/>
</svg>
