<?xml version="1.0" encoding="utf-8"?>
<!-- Generator: Adobe Illustrator 25.0.1, SVG Export Plug-In . SVG Version: 6.00 Build 0)  -->
<svg version="1.1" id="Layer_1" xmlns="http://www.w3.org/2000/svg" xmlns:xlink="http://www.w3.org/1999/xlink" x="0px" y="0px"
	 viewBox="0 0 100 100" style="enable-background:new 0 0 100 100;" xml:space="preserve">
<style type="text/css">
	.st0{fill:#FFFFFF;}
</style>
<path class="st0" d="M90.4,89.2c-26.3,0-52.2,0-78.5,0c0-3.1-0.1-6.1,0.1-9.1c0-0.5,1.2-1.2,1.8-1.3c3.4-0.1,6.8-0.1,10.7-0.1
	c-2.8-10.5-5.5-20.7-8.3-31.1c-1.1,0.1-2.1,0.2-3.3,0.3c-0.6-2.3-1.3-4.6-2-7.1c0.7-0.3,1.2-0.6,1.8-0.7c8.5-2.3,16.9-4.6,25.4-6.8
	c1.6-0.4,2.7-1,3.3-2.8c2.4-6.7,10.6-8.9,16.1-4.4c1.3,1.1,2.4,1.4,4,0.9c3.7-1.1,7.4-2.1,11.1-3c1.5-0.4,2.1-1,1.9-2.6
	c-0.3-2.3-0.5-4.7-0.4-7c0-0.7,0.8-1.8,1.5-2c2.5-0.8,5.6-2.4,7.6-1.6c1.8,0.7,2.7,4.1,3.8,6.4c3.2,6.4,4.3,12.5,3.8,20.8
	c-3,0.8-6.1,1.7-9.5,2.6c-1.4-2.7-2.7-5.3-3.9-8c-0.6-1.2-1.2-1.5-2.5-1.2c-4,1.1-8.1,2.2-12.1,3.3c-0.5,0.1-1.3,0.5-1.4,0.9
	c-0.6,2.6-2.2,4.7-1.2,7.9c3.2,10.8,6,21.8,8.8,32.7c0.5,1.8,1.2,2.6,3.2,2.5c5.3-0.1,10.5,0,15.8-0.1c1.6,0,2.2,0.5,2.2,2.2
	C90.4,83.6,90.4,86.3,90.4,89.2z M42.7,40.3c-8.3,2.2-16,4.3-23.6,6.3c0,0.6-0.1,0.7,0,0.9c2.6,9.8,5.3,19.7,7.8,29.5
	c0.6,2.3,2.2,1.5,3.6,1.7c1.6,0.2,2.2-0.6,2.6-2c1.6-6.2,3.3-12.4,5-18.6C39.5,52.4,41,46.7,42.7,40.3z M61.5,78.6
	c0-0.6,0.1-0.8,0-1c-2.8-10.4-5.5-20.8-8.4-31.2c-0.2-0.7-1.2-1.4-1.9-1.6c-1.4-0.4-1.8,0.6-2.1,1.8c-1.6,6.2-3.3,12.4-5,18.6
	c-1.2,4.4-2.3,8.8-3.5,13.4C47.8,78.6,54.6,78.6,61.5,78.6z M87.7,81.6c-24.4,0-48.6,0-72.8,0c-0.9,5.1-0.9,5.1,4,5.1
	c21.8,0,43.7,0,65.5,0c1.1,0,2.1,0,3.3,0C87.7,84.8,87.7,83.3,87.7,81.6z M77.3,20.7c-0.8,5.8,2.6,10.2,4.7,15
	c0.8,1.8,1.8,1.8,3.3,1.3c1.5-0.5,3.1-0.4,3.1-3c0-6.5-1.4-12.5-4.7-18.1c-1-1.8-1.8-2.6-4-1.9c-2.1,0.6-3.3,1.3-2.7,3.7
	C77.4,18.6,77.3,19.7,77.3,20.7z M51.2,26.5c-4.4,0-7.8,3.4-7.8,7.8c0,4.3,3.5,7.8,7.8,7.8c4.2,0,7.8-3.6,7.9-7.8
	C59.1,30.1,55.5,26.5,51.2,26.5z M57.7,43c-2.2,0.3-2.4,1.4-1.9,2.9c2.8,10.3,5.6,20.6,8.3,31c0.5,1.8,1.3,2.2,3.1,1.5
	C64,66.6,60.9,54.9,57.7,43z M35.2,78.4c1.9,0.8,2.7,0.2,3.1-1.3c2.7-10.4,5.5-20.8,8.4-31.2c0.5-1.7,0-2.5-2-2.8
	C41.6,54.8,38.4,66.5,35.2,78.4z M15.5,44.8c0.6-0.1,0.8-0.1,0.9-0.2c7.8-2.1,15.6-4.2,23.4-6.3c0.5-0.1,0.8-1.1,1.2-1.7
	c-0.7-0.2-1.4-0.8-2-0.7c-2.3,0.5-4.5,1.1-6.8,1.8c-5.5,1.5-11,2.9-16.4,4.5c-0.5,0.2-1.1,1-1.3,1.6C14.5,44,15.3,44.6,15.5,44.8z
	 M75.4,28.8c-0.1-1.8-0.5-2.6-2.3-2.1c-3.5,1-7.1,1.9-10.6,3c-0.5,0.2-0.9,1.1-1.3,1.6c0.6,0.3,1.4,0.9,1.9,0.8
	C67.2,31.1,71.2,29.9,75.4,28.8z"/>
<path class="st0" d="M46,34.4c0-2.9,2.3-5.3,5.2-5.3c2.9,0,5.2,2.4,5.2,5.3c0,2.8-2.3,5.1-5.1,5.2C48.5,39.6,46,37.2,46,34.4z
	 M54.1,34.9c0-0.4,0-0.8,0-1.2c-1-0.6-2-1.9-2.9-1.8c-0.9,0.1-1.7,1.6-2.5,2.4c0.9,0.8,1.6,2.2,2.6,2.3
	C52.1,36.8,53.1,35.5,54.1,34.9z"/>
</svg>
