<?xml version="1.0" encoding="utf-8"?>
<!-- Generator: Adobe Illustrator 25.0.1, SVG Export Plug-In . SVG Version: 6.00 Build 0)  -->
<svg version="1.1" id="Layer_1" xmlns="http://www.w3.org/2000/svg" xmlns:xlink="http://www.w3.org/1999/xlink" x="0px" y="0px"
	 viewBox="0 0 92.9 19.2" style="enable-background:new 0 0 92.9 19.2;" xml:space="preserve">
<style type="text/css">
	.st0{clip-path:url(#SVGID_2_);fill:#10B5C9;}
	.st1{clip-path:url(#SVGID_4_);fill:url(#SVGID_5_);}
	.st2{clip-path:url(#SVGID_7_);fill:url(#SVGID_8_);}
	.st3{clip-path:url(#SVGID_10_);fill:url(#SVGID_11_);}
	.st4{clip-path:url(#SVGID_13_);fill:url(#SVGID_14_);}
	.st5{clip-path:url(#SVGID_16_);fill:url(#SVGID_17_);}
	.st6{clip-path:url(#SVGID_19_);fill:url(#SVGID_20_);}
	.st7{fill:#7DC142;}
	.st8{clip-path:url(#SVGID_22_);fill:#10B5C9;}
	.st9{clip-path:url(#SVGID_24_);fill:url(#SVGID_25_);}
	.st10{clip-path:url(#SVGID_27_);fill:url(#SVGID_28_);}
	.st11{clip-path:url(#SVGID_30_);fill:#10B5C9;}
	.st12{clip-path:url(#SVGID_32_);fill:url(#SVGID_33_);}
	.st13{clip-path:url(#SVGID_35_);fill:url(#SVGID_36_);}
	.st14{clip-path:url(#SVGID_38_);fill:#10B5C9;}
	.st15{clip-path:url(#SVGID_40_);fill:url(#SVGID_41_);}
	.st16{clip-path:url(#SVGID_43_);fill:url(#SVGID_44_);}
</style>
<g>
	<defs>
		<rect id="SVGID_1_" x="1.8" y="1.8" width="88.2" height="14.5"/>
	</defs>
	<clipPath id="SVGID_2_">
		<use xlink:href="#SVGID_1_"  style="overflow:visible;"/>
	</clipPath>
	<path class="st0" d="M25.7,8.4c0,0.4-0.1,0.8-0.3,1c-0.2,0.2-0.5,0.3-0.9,0.3c0.4,0.1,0.7,0.2,0.9,0.5c0.2,0.3,0.2,0.6,0.2,1v2
		h-1.9v-2.2c0-0.2-0.1-0.4-0.4-0.4h-0.9v2.6h-1.9V6.3h3.6c0.5,0,0.8,0.1,1,0.3c0.2,0.2,0.3,0.6,0.3,1V8.4z M23.6,8.9
		c0.1,0,0.2,0,0.2-0.1c0,0,0.1-0.1,0.1-0.2V8.2c0-0.1,0-0.2-0.1-0.2c0,0-0.1-0.1-0.2-0.1h-1v1H23.6z"/>
	<path class="st0" d="M31.3,9.6c0,0.4-0.1,0.8-0.3,1c-0.2,0.2-0.5,0.3-0.9,0.3h-1.6v0.4c0,0.2,0.1,0.3,0.3,0.3H31v1.5h-3
		c-0.5,0-0.8-0.1-1-0.3c-0.2-0.2-0.3-0.6-0.3-1.1v-3c0-0.5,0.1-0.8,0.3-1.1c0.2-0.2,0.6-0.3,1-0.3h2c0.4,0,0.7,0.1,0.9,0.3
		c0.2,0.2,0.3,0.5,0.3,1V9.6z M28.8,8.8c-0.2,0-0.3,0.1-0.3,0.3v0.4h0.8c0.2,0,0.3-0.1,0.3-0.3V9.1c0-0.2-0.1-0.3-0.3-0.3H28.8z"/>
	<path class="st0" d="M32.4,12.7c-0.2-0.2-0.3-0.6-0.3-1.1v-3c0-0.5,0.1-0.8,0.3-1.1c0.2-0.2,0.6-0.3,1-0.3h2.7v1.5h-2
		c-0.2,0-0.3,0.1-0.3,0.3v2.1c0,0.2,0.1,0.3,0.3,0.3h2v1.5h-2.7C33,13.1,32.6,13,32.4,12.7"/>
	<path class="st0" d="M37.4,14.7v-1.5h1.7c0.2,0,0.4,0,0.4-0.1c0.1-0.1,0.1-0.2,0.1-0.4v-0.8c-0.1,0.3-0.2,0.5-0.4,0.6
		c-0.2,0.1-0.5,0.2-0.8,0.2h-0.1c-0.5,0-0.8-0.1-1-0.3C37.1,12,37,11.6,37,11.2V7.3h1.8v3.4c0,0.2,0.1,0.3,0.3,0.3h0.3
		c0.2,0,0.3-0.1,0.3-0.3V7.3h1.8v5.4c0,0.7-0.2,1.2-0.5,1.6c-0.3,0.3-0.9,0.5-1.6,0.5H37.4z"/>
	<path class="st0" d="M42.8,12.7c-0.2-0.2-0.3-0.6-0.3-1.1v-3c0-0.5,0.1-0.8,0.3-1.1c0.2-0.2,0.6-0.3,1-0.3h2.7v1.5h-2
		c-0.2,0-0.3,0.1-0.3,0.3v2.1c0,0.2,0.1,0.3,0.3,0.3h2v1.5h-2.7C43.4,13.1,43,13,42.8,12.7"/>
	<path class="st0" d="M50.1,11.5v1.5h-1.3c-0.5,0-0.8-0.1-1.1-0.3c-0.2-0.2-0.3-0.6-0.3-1.1v-6h1.8v5.6c0,0.2,0.1,0.3,0.3,0.3H50.1z
		"/>
	<path class="st0" d="M55.4,9.6c0,0.4-0.1,0.8-0.3,1c-0.2,0.2-0.5,0.3-0.9,0.3h-1.6v0.4c0,0.2,0.1,0.3,0.3,0.3h2.3v1.5h-3
		c-0.5,0-0.8-0.1-1-0.3c-0.2-0.2-0.3-0.6-0.3-1.1v-3c0-0.5,0.1-0.8,0.3-1.1c0.2-0.2,0.6-0.3,1-0.3h2c0.4,0,0.7,0.1,0.9,0.3
		c0.2,0.2,0.3,0.5,0.3,1V9.6z M52.8,8.8c-0.2,0-0.3,0.1-0.3,0.3v0.4h0.8c0.2,0,0.3-0.1,0.3-0.3V9.1c0-0.2-0.1-0.3-0.3-0.3H52.8z"/>
	<path class="st0" d="M59.5,8.8h-1.2c-0.2,0-0.3,0.1-0.3,0.3v4h-1.8V8.7c0-0.5,0.1-0.8,0.3-1.1c0.2-0.2,0.6-0.3,1-0.3h1.9V8.8z"/>
</g>
<g>
	<defs>
		<path id="SVGID_3_" d="M62.5,6.3c-0.5,0-0.9,0.1-1.1,0.3c-0.2,0.2-0.3,0.6-0.3,1.1v1.4c0,0.5,0.1,0.8,0.3,1.1
			c0.2,0.2,0.6,0.3,1.1,0.3h1.2c0.1,0,0.2,0,0.2,0.1c0,0,0.1,0.1,0.1,0.2v0.4c0,0.1,0,0.2-0.1,0.2c0,0-0.1,0.1-0.2,0.1H61v1.6h3.4
			c0.5,0,0.8-0.1,1.1-0.3c0.2-0.2,0.3-0.6,0.3-1.1v-1.4c0-0.5-0.1-0.8-0.3-1.1c-0.2-0.2-0.6-0.3-1.1-0.3h-1.2c-0.1,0-0.2,0-0.2-0.1
			c0,0-0.1-0.1-0.1-0.2V8.2c0-0.1,0-0.2,0.1-0.2c0,0,0.1-0.1,0.2-0.1h2.4V6.3H62.5z"/>
	</defs>
	<clipPath id="SVGID_4_">
		<use xlink:href="#SVGID_3_"  style="overflow:visible;"/>
	</clipPath>
	
		<linearGradient id="SVGID_5_" gradientUnits="userSpaceOnUse" x1="-93.8801" y1="87.8332" x2="-93.48" y2="87.8332" gradientTransform="matrix(0 26.948 26.948 0 -2303.4797 2534.3186)">
		<stop  offset="0" style="stop-color:#00AB4E"/>
		<stop  offset="1" style="stop-color:#C0DB80"/>
	</linearGradient>
	<rect x="61" y="6.3" class="st1" width="4.8" height="6.8"/>
</g>
<g>
	<defs>
		<path id="SVGID_6_" d="M68.4,11.3v-0.2c0-0.2,0.1-0.3,0.3-0.3h0.8v0.4c0,0.2-0.1,0.3-0.3,0.3h-0.5C68.5,11.5,68.4,11.5,68.4,11.3
			 M66.9,7.3v1.5h2.3c0.2,0,0.3,0.1,0.3,0.3v0.4h-1.6c-0.4,0-0.7,0.1-0.9,0.3c-0.2,0.2-0.3,0.5-0.3,1v1c0,0.4,0.1,0.8,0.3,1
			c0.2,0.2,0.5,0.3,0.9,0.3h2c0.5,0,0.8-0.1,1-0.3c0.2-0.2,0.3-0.6,0.3-1.1v-3c0-0.5-0.1-0.8-0.3-1.1c-0.2-0.2-0.6-0.3-1-0.3H66.9z"
			/>
	</defs>
	<clipPath id="SVGID_7_">
		<use xlink:href="#SVGID_6_"  style="overflow:visible;"/>
	</clipPath>
	
		<linearGradient id="SVGID_8_" gradientUnits="userSpaceOnUse" x1="-93.8801" y1="87.5276" x2="-93.48" y2="87.5276" gradientTransform="matrix(0 26.948 26.948 0 -2289.751 2534.3186)">
		<stop  offset="0" style="stop-color:#00AB4E"/>
		<stop  offset="1" style="stop-color:#C0DB80"/>
	</linearGradient>
	<rect x="66.6" y="7.3" class="st2" width="4.6" height="5.8"/>
</g>
<g>
	<defs>
		<path id="SVGID_9_" d="M73.8,11.3v-0.2c0-0.2,0.1-0.3,0.3-0.3h0.8v0.4c0,0.2-0.1,0.3-0.3,0.3h-0.5C73.9,11.5,73.8,11.5,73.8,11.3
			 M72.3,7.3v1.5h2.3c0.2,0,0.3,0.1,0.3,0.3v0.4h-1.6c-0.4,0-0.7,0.1-0.9,0.3c-0.2,0.2-0.3,0.5-0.3,1v1c0,0.4,0.1,0.8,0.3,1
			c0.2,0.2,0.5,0.3,0.9,0.3h2c0.5,0,0.8-0.1,1-0.3c0.2-0.2,0.3-0.6,0.3-1.1v-3c0-0.5-0.1-0.8-0.3-1.1c-0.2-0.2-0.6-0.3-1-0.3H72.3z"
			/>
	</defs>
	<clipPath id="SVGID_10_">
		<use xlink:href="#SVGID_9_"  style="overflow:visible;"/>
	</clipPath>
	
		<linearGradient id="SVGID_11_" gradientUnits="userSpaceOnUse" x1="-93.8801" y1="87.2268" x2="-93.48" y2="87.2268" gradientTransform="matrix(0 26.948 26.948 0 -2276.2397 2534.3186)">
		<stop  offset="0" style="stop-color:#00AB4E"/>
		<stop  offset="1" style="stop-color:#C0DB80"/>
	</linearGradient>
	<rect x="72" y="7.3" class="st3" width="4.6" height="5.8"/>
</g>
<g>
	<defs>
		<path id="SVGID_12_" d="M77.6,5.7v6c0,0.5,0.1,0.8,0.3,1.1c0.2,0.2,0.6,0.3,1.1,0.3h2v-1.5h-1.3c-0.2,0-0.3-0.1-0.3-0.3V8.8H81
			V7.3h-1.6V5.7H77.6z"/>
	</defs>
	<clipPath id="SVGID_13_">
		<use xlink:href="#SVGID_12_"  style="overflow:visible;"/>
	</clipPath>
	
		<linearGradient id="SVGID_14_" gradientUnits="userSpaceOnUse" x1="-93.8801" y1="86.9532" x2="-93.48" y2="86.9532" gradientTransform="matrix(0 26.948 26.948 0 -2263.9468 2534.3186)">
		<stop  offset="0" style="stop-color:#00AB4E"/>
		<stop  offset="1" style="stop-color:#C0DB80"/>
	</linearGradient>
	<rect x="77.6" y="5.7" class="st4" width="3.4" height="7.4"/>
</g>
<g>
	<defs>
		<path id="SVGID_15_" d="M81.8,5.7v7.4h1.8v-4c0-0.2,0.1-0.3,0.3-0.3h0.3c0.2,0,0.3,0.1,0.3,0.3v4h1.8V8.7c0-0.5-0.1-0.8-0.3-1.1
			c-0.2-0.2-0.6-0.3-1-0.3h-0.1c-0.4,0-0.7,0.1-0.9,0.2c-0.2,0.1-0.3,0.3-0.4,0.6V5.7H81.8z"/>
	</defs>
	<clipPath id="SVGID_16_">
		<use xlink:href="#SVGID_15_"  style="overflow:visible;"/>
	</clipPath>
	
		<linearGradient id="SVGID_17_" gradientUnits="userSpaceOnUse" x1="-93.8801" y1="86.6851" x2="-93.48" y2="86.6851" gradientTransform="matrix(0 26.948 26.948 0 -2251.907 2534.3186)">
		<stop  offset="0" style="stop-color:#00AB4E"/>
		<stop  offset="1" style="stop-color:#C0DB80"/>
	</linearGradient>
	<rect x="81.8" y="5.7" class="st5" width="4.5" height="7.4"/>
</g>
<g>
	<defs>
		<path id="SVGID_18_" d="M87.3,7.3v4.4c0,0.5,0.1,0.8,0.3,1.1c0.2,0.2,0.6,0.3,1.1,0.3H90v-1.5h-0.6c-0.2,0-0.3-0.1-0.3-0.3v-4
			H87.3z M87.2,6.7h2V5.7h-2V6.7z"/>
	</defs>
	<clipPath id="SVGID_19_">
		<use xlink:href="#SVGID_18_"  style="overflow:visible;"/>
	</clipPath>
	
		<linearGradient id="SVGID_20_" gradientUnits="userSpaceOnUse" x1="-93.8801" y1="86.4327" x2="-93.48" y2="86.4327" gradientTransform="matrix(0 26.948 26.948 0 -2240.5667 2534.3186)">
		<stop  offset="0" style="stop-color:#00AB4E"/>
		<stop  offset="1" style="stop-color:#C0DB80"/>
	</linearGradient>
	<rect x="87.2" y="5.7" class="st6" width="2.8" height="7.4"/>
</g>
<rect x="26.7" y="6" class="st7" width="19.9" height="0.5"/>
<rect x="50.1" y="6" class="st7" width="9.4" height="0.5"/>
<rect x="66.6" y="6" class="st7" width="10" height="0.5"/>
<g>
	<defs>
		<rect id="SVGID_21_" x="1.8" y="1.8" width="88.2" height="14.5"/>
	</defs>
	<clipPath id="SVGID_22_">
		<use xlink:href="#SVGID_21_"  style="overflow:visible;"/>
	</clipPath>
	<path class="st8" d="M11.3,3.2c0,0.7-0.6,1.3-1.3,1.3c-0.7,0-1.3-0.6-1.3-1.3c0-0.7,0.6-1.3,1.3-1.3C10.7,1.8,11.3,2.4,11.3,3.2"/>
	<path class="st8" d="M9.7,6.6C9.1,6.1,7.8,5.3,6.5,6.4C6.1,6.8,6,7.5,6.5,8.2c0.6,0.7,1.7,0.4,2.1,0C9,7.8,9.9,6.8,9.9,6.8l0,0
		C9.8,6.7,9.7,6.6,9.7,6.6"/>
</g>
<g>
	<defs>
		<path id="SVGID_23_" d="M8.8,5.5L7.5,5.6c0,0-0.2,0.1-0.8,0.5C6.6,6.2,6.5,6.3,6.5,6.4c1.4-1,2.6-0.3,3.2,0.2
			c0.1,0.1,0.1,0.1,0.2,0.2h0L9.6,5.5H8.8z"/>
	</defs>
	<clipPath id="SVGID_24_">
		<use xlink:href="#SVGID_23_"  style="overflow:visible;"/>
	</clipPath>
	
		<linearGradient id="SVGID_25_" gradientUnits="userSpaceOnUse" x1="-98.8457" y1="88.4764" x2="-98.4456" y2="88.4764" gradientTransform="matrix(-8.0363 5.0022 -5.0022 -8.0363 -342.3865 1210.7937)">
		<stop  offset="0" style="stop-color:#26718F"/>
		<stop  offset="1" style="stop-color:#00B8C2"/>
	</linearGradient>
	<polygon class="st9" points="8.9,3.8 5.8,5.7 7.4,8.3 10.5,6.4 	"/>
</g>
<g>
	<defs>
		<path id="SVGID_26_" d="M9.6,4.9C7.5,5.1,6.5,6.4,6.5,6.4c0,0,0,0,0,0c1.4-1,2.6-0.3,3.2,0.2c0.1,0.1,0.1,0.1,0.2,0.2
			c0.6,0.7,1.6,1.9,2.6,1.9c1.1,0,1.4-1.2,1.2-1.9c-0.2-0.6-1.7-1.9-3.6-1.9C9.9,4.9,9.7,4.9,9.6,4.9"/>
	</defs>
	<clipPath id="SVGID_27_">
		<use xlink:href="#SVGID_26_"  style="overflow:visible;"/>
	</clipPath>
	
		<linearGradient id="SVGID_28_" gradientUnits="userSpaceOnUse" x1="-90.0126" y1="90.505" x2="-89.6125" y2="90.505" gradientTransform="matrix(18.0616 0 0 -18.0616 1632.2581 1641.4454)">
		<stop  offset="0" style="stop-color:#00AB4E"/>
		<stop  offset="1" style="stop-color:#C0DB80"/>
	</linearGradient>
	<rect x="6.5" y="4.9" class="st10" width="7.4" height="3.9"/>
</g>
<g>
	<defs>
		<rect id="SVGID_29_" x="1.8" y="1.8" width="88.2" height="14.5"/>
	</defs>
	<clipPath id="SVGID_30_">
		<use xlink:href="#SVGID_29_"  style="overflow:visible;"/>
	</clipPath>
	<path class="st11" d="M17.9,15.5c-0.3,0.7-1.1,1-1.8,0.7c-0.7-0.3-1-1.1-0.7-1.8c0.3-0.7,1.1-1,1.8-0.7
		C17.9,14,18.2,14.8,17.9,15.5"/>
	<path class="st11" d="M15.7,10.4c-0.2-0.6-0.8-1-1.6-0.9c-0.9,0.1-1.2,1.3-1,1.8c0.1,0.6,0.5,1.8,0.5,1.8l0,0
		c0.1,0,0.2-0.1,0.3-0.1C14.6,12.8,15.9,12.1,15.7,10.4"/>
</g>
<g>
	<defs>
		<path id="SVGID_31_" d="M13.9,13c-0.1,0-0.2,0.1-0.3,0.1l1.3,0.4l0.4-0.7l0.5-1.2c0,0,0-0.3-0.1-1c0-0.1,0-0.2-0.1-0.3
			C15.9,12.1,14.6,12.8,13.9,13"/>
	</defs>
	<clipPath id="SVGID_32_">
		<use xlink:href="#SVGID_31_"  style="overflow:visible;"/>
	</clipPath>
	
		<linearGradient id="SVGID_33_" gradientUnits="userSpaceOnUse" x1="-89.2026" y1="93.5012" x2="-88.8025" y2="93.5012" gradientTransform="matrix(-0.2849 -9.4617 9.4617 -0.2849 -895.3054 -803.9234)">
		<stop  offset="0" style="stop-color:#26718F"/>
		<stop  offset="1" style="stop-color:#00B8C2"/>
	</linearGradient>
	<polygon class="st12" points="16,13.5 15.9,10.3 13.5,10.4 13.6,13.6 	"/>
</g>
<g>
	<defs>
		<path id="SVGID_34_" d="M15.7,10.4c0.2,1.7-1.1,2.4-1.8,2.6c-0.1,0-0.2,0.1-0.3,0.1c-0.9,0.2-2.5,0.4-2.9,1.3c-0.5,1,0.3,1.8,1,2
			c0,0,0,0,0.1,0h0.3c0.9-0.1,2.6-0.9,3.4-2.6C16.2,11.9,15.7,10.4,15.7,10.4L15.7,10.4z"/>
	</defs>
	<clipPath id="SVGID_35_">
		<use xlink:href="#SVGID_34_"  style="overflow:visible;"/>
	</clipPath>
	
		<linearGradient id="SVGID_36_" gradientUnits="userSpaceOnUse" x1="-89.4192" y1="91.776" x2="-89.0191" y2="91.776" gradientTransform="matrix(13.3779 0 0 -13.3779 1206.7639 1241.1575)">
		<stop  offset="0" style="stop-color:#00AB4E"/>
		<stop  offset="1" style="stop-color:#C0DB80"/>
	</linearGradient>
	<rect x="10.2" y="10.4" class="st13" width="6.1" height="6"/>
</g>
<g>
	<defs>
		<rect id="SVGID_37_" x="1.8" y="1.8" width="88.2" height="14.5"/>
	</defs>
	<clipPath id="SVGID_38_">
		<use xlink:href="#SVGID_37_"  style="overflow:visible;"/>
	</clipPath>
	<path class="st14" d="M3.5,16.2C2.7,16.4,2,16,1.8,15.2c-0.2-0.7,0.2-1.4,0.9-1.6c0.7-0.2,1.4,0.2,1.6,0.9
		C4.6,15.2,4.2,16,3.5,16.2"/>
	<path class="st14" d="M8.1,13.6c-0.5-0.2-1.8-0.5-1.8-0.5l0,0c0,0.1-0.1,0.2-0.1,0.3C6,14.2,6,15.6,7.5,16.3
		c0.6,0.1,1.3-0.1,1.6-0.9C9.5,14.6,8.6,13.8,8.1,13.6"/>
</g>
<g>
	<defs>
		<path id="SVGID_39_" d="M5.3,14.1l0.4,0.7l0.8,1.1c0,0,0.2,0.1,0.9,0.4c0.1,0,0.2,0.1,0.3,0.1C6,15.6,6,14.2,6.2,13.5
			c0-0.1,0.1-0.2,0.1-0.3L5.3,14.1z"/>
	</defs>
	<clipPath id="SVGID_40_">
		<use xlink:href="#SVGID_39_"  style="overflow:visible;"/>
	</clipPath>
	
		<linearGradient id="SVGID_41_" gradientUnits="userSpaceOnUse" x1="-89.7685" y1="82.6343" x2="-89.3684" y2="82.6343" gradientTransform="matrix(8.3095 4.534 -4.534 8.3095 1125.9058 -265.5114)">
		<stop  offset="0" style="stop-color:#26718F"/>
		<stop  offset="1" style="stop-color:#00B8C2"/>
	</linearGradient>
	<polygon class="st15" points="3.9,15.6 7,17.3 8.9,13.9 5.8,12.2 	"/>
</g>
<g>
	<defs>
		<path id="SVGID_42_" d="M4.4,9.9c-0.5,0.6-0.9,2.8,0.3,4.5c1.3,1.7,2.8,2,2.8,2c0,0,0,0,0,0C6,15.6,6,14.2,6.2,13.5
			c0-0.1,0.1-0.2,0.1-0.3c0.3-0.8,0.9-2.4,0.4-3.2C6.4,9.5,6,9.4,5.6,9.4C5.1,9.4,4.7,9.6,4.4,9.9"/>
	</defs>
	<clipPath id="SVGID_43_">
		<use xlink:href="#SVGID_42_"  style="overflow:visible;"/>
	</clipPath>
	
		<linearGradient id="SVGID_44_" gradientUnits="userSpaceOnUse" x1="-86.6296" y1="93.0027" x2="-86.2295" y2="93.0027" gradientTransform="matrix(9.0734 0 0 -9.0734 789.9435 856.6951)">
		<stop  offset="0" style="stop-color:#00AB4E"/>
		<stop  offset="1" style="stop-color:#C0DB80"/>
	</linearGradient>
	<rect x="3.5" y="9.4" class="st16" width="4.1" height="7"/>
</g>
</svg>
