<?xml version="1.0" encoding="utf-8"?>
<!-- Generator: Adobe Illustrator 25.0.1, SVG Export Plug-In . SVG Version: 6.00 Build 0)  -->
<svg version="1.1" id="Layer_1" xmlns="http://www.w3.org/2000/svg" xmlns:xlink="http://www.w3.org/1999/xlink" x="0px" y="0px"
	 viewBox="0 0 447.9 290" style="enable-background:new 0 0 447.9 290;" xml:space="preserve">
<style type="text/css">
	.st0{fill:#FFFFFF;}
	.st1{fill:#D8DEE8;}
	.st2{fill:url(#SVGID_1_);}
	.st3{fill:url(#SVGID_2_);}
	.st4{fill:#88B737;}
	.st5{fill:#95C83D;}
	.st6{fill:url(#SVGID_3_);}
	.st7{fill:url(#SVGID_4_);}
	.st8{fill:#999999;}
	.st9{fill:#C2C2C2;}
	.st10{fill:#65C4B5;}
	.st11{opacity:0.2;fill:url(#SVGID_5_);enable-background:new    ;}
	.st12{fill:url(#SVGID_6_);}
	.st13{fill:url(#SVGID_7_);}
	.st14{fill:url(#SVGID_8_);}
	.st15{fill:url(#SVGID_9_);}
	.st16{fill:url(#SVGID_10_);}
	.st17{fill:url(#SVGID_11_);}
	.st18{fill:url(#SVGID_12_);}
	.st19{opacity:0.3;fill:url(#SVGID_13_);enable-background:new    ;}
	.st20{fill:url(#SVGID_14_);}
	.st21{fill:url(#SVGID_15_);}
	.st22{opacity:0.2;}
	.st23{fill:url(#SVGID_16_);}
	.st24{opacity:0.7;fill:#92C9CA;enable-background:new    ;}
	.st25{opacity:0.4;}
	.st26{fill:#919797;}
	.st27{fill:#C1C9CA;}
	.st28{opacity:0.4;fill:#80C6DE;enable-background:new    ;}
	.st29{opacity:0.7;}
	.st30{opacity:0.8;fill:#FFFFFF;enable-background:new    ;}
	.st31{opacity:0.5;fill:#FFFFFF;enable-background:new    ;}
</style>
<g>
	<g>
		<g>
			
				<ellipse transform="matrix(0.9997 -2.579830e-02 2.579830e-02 0.9997 -2.0937 5.3193)" class="st0" cx="205.1" cy="83.8" rx="66.9" ry="13.2"/>
			<path class="st0" d="M138.3,85.5c0,0-2.7,14.3-2.7,14.4S275,96.3,275,96.3l-3-14.2L138.3,85.5z"/>
		</g>
		
			<ellipse transform="matrix(0.9997 -2.579830e-02 2.579830e-02 0.9997 -2.4651 5.3293)" class="st1" cx="205.3" cy="98.2" rx="69.7" ry="13.7"/>
		
			<linearGradient id="SVGID_1_" gradientUnits="userSpaceOnUse" x1="2661.5432" y1="14.0413" x2="2658.0811" y2="-25.0293" gradientTransform="matrix(0.9997 -2.590000e-02 2.590000e-02 0.9997 -2463.157 206.6616)">
			<stop  offset="0" style="stop-color:#D8DEE8"/>
			<stop  offset="1" style="stop-color:#FFFFFF"/>
		</linearGradient>
		<path class="st2" d="M255.8,249c0.2,7.6-20.5,14.4-46.2,15c-25.7,0.7-46.7-5-46.9-12.6s20.5-14.4,46.2-15
			C234.6,235.7,255.6,241.3,255.8,249z"/>
		
			<linearGradient id="SVGID_2_" gradientUnits="userSpaceOnUse" x1="2662.0425" y1="13.982" x2="2658.5798" y2="-25.0947" gradientTransform="matrix(0.9997 -2.590000e-02 2.590000e-02 0.9997 -2463.157 206.6616)">
			<stop  offset="0" style="stop-color:#D8DEE8"/>
			<stop  offset="1" style="stop-color:#FFFFFF"/>
		</linearGradient>
		<polygon class="st3" points="255.5,237.2 162.3,239.6 162.6,250.9 255.8,248.5 		"/>
		<g>
			
				<ellipse transform="matrix(0.9997 -2.579833e-02 2.579833e-02 0.9997 -6.1094 5.4692)" class="st4" cx="208.9" cy="239.5" rx="50.3" ry="14.9"/>
			
				<ellipse transform="matrix(0.9997 -2.579830e-02 2.579830e-02 0.9997 -2.4651 5.3292)" class="st4" cx="205.3" cy="98.2" rx="63" ry="11.7"/>
			<polygon class="st4" points="142.2,99.9 158.7,240.8 259.2,238.2 268.3,96.6 			"/>
		</g>
		<g>
			<path class="st5" d="M268.3,96.6c-0.2-6.5-28.5-11-63.3-10.1c-12.1,0.3-23.4,1.2-32.9,2.6c-1.4,4.6-2,9.4-1.7,14.4
				c2.1,28.7,36.6,37.4,49.2,64.2c7.7,16.3,8.6,42.5-17.5,86.8c2.4,0,4.8,0,7.2,0c27.7-0.7,50.1-8,49.9-16.2L268.3,96.6L268.3,96.6z
				"/>
		</g>
	</g>
	<g>
		<path class="st0" d="M206.7,126.8c-10.6-2.6-21,8-23.9,17.7c-0.8,2.6-1,5-0.9,7.1c-1.2,4.2-1.5,7.7-1.5,8.1c0,0.5,0.3,0.9,0.8,1
			c0,0,0,0,0.1,0c0.5,0,0.9-0.4,0.9-0.8c0-0.2,1.4-15.9,9.3-20.3c7.9-4.4,19.5,0.9,19.6,0.9c0,0-19.9-8-24.3,9.1
			c0.8-0.6,1.7-1.2,2.8-1.6c5.9-2.3,10.4,2.1,17.9,1.2c3.2-0.4,7.7-1.8,12.8-6.7C218.3,134.8,213.3,128.5,206.7,126.8z"/>
		<path class="st0" d="M242.6,180.3c7.3-8.1,2.9-22.3-4.3-29.4c-1.9-1.9-4-3.2-5.9-4.1c-3.2-3-6.1-4.9-6.4-5.1
			c-0.4-0.3-1-0.1-1.2,0.3c0,0,0,0,0,0.1c-0.2,0.4-0.1,0.9,0.3,1.2c0.1,0.1,13.4,8.7,13.5,17.8s-10,16.8-10.1,16.8
			c0,0,16.5-13.8,3.4-25.7c0.2,1,0.2,2.1,0.1,3.2c-0.8,6.3-6.7,8.2-9.5,15.3c-1.2,3-2.1,7.7-0.2,14.5
			C230.1,186.8,238.1,185.3,242.6,180.3z"/>
		<path class="st0" d="M179.9,186.7c4.9,9.7,19.8,10.7,29,6.6c2.5-1.1,4.4-2.6,6-4c3.9-1.9,6.8-4,7.1-4.1c0.4-0.3,0.5-0.9,0.2-1.3
			c0,0,0,0,0-0.1c-0.3-0.4-0.8-0.4-1.2-0.1c-0.1,0.1-13,9.4-21.5,6.2s-12-15.3-12.1-15.5c0,0,6.9,20.3,22.8,12.5c-1-0.2-2-0.5-3-1.1
			c-5.6-3-5.2-9.2-10.8-14.3c-2.4-2.2-6.4-4.7-13.4-5.4C178.3,172.6,176.8,180.6,179.9,186.7z"/>
	</g>
	
		<linearGradient id="SVGID_3_" gradientUnits="userSpaceOnUse" x1="996.8123" y1="4.0468" x2="990.8597" y2="-15.5809" gradientTransform="matrix(-0.9999 1.380000e-02 1.380000e-02 0.9999 1290.5173 193.2851)">
		<stop  offset="0" style="stop-color:#444B8C"/>
		<stop  offset="0.9964" style="stop-color:#26264F"/>
	</linearGradient>
	<path class="st6" d="M299.5,201.5c0.6,1.2,0.4,1.8,0.3,2c-0.4,0.7-1.5,0-4.3,0.4c-0.3,0-0.9,0.1-1.7-0.1c-0.7-0.2-1.5-0.5-1.4-0.7
		c0-0.1,0.1-0.1,0.2-0.1c0.8-0.2,5.6-1.7,5.6-1.7L299.5,201.5z"/>
	
		<linearGradient id="SVGID_4_" gradientUnits="userSpaceOnUse" x1="-148.1587" y1="-323.0658" x2="-148.1587" y2="-354.5962" gradientTransform="matrix(-0.9819 -0.1895 -0.1895 0.9819 91.2453 496.2138)">
		<stop  offset="0" style="stop-color:#FFC444"/>
		<stop  offset="0.9964" style="stop-color:#F36F56"/>
	</linearGradient>
	<path class="st7" d="M300.6,199l-0.8,2.2c-0.1,0.3-0.4,0.6-0.8,0.6s-0.8-0.1-0.8-0.6c-0.1-0.8,0.3-2.7,0.3-2.7L300.6,199z"/>
	<g>
		<g>
			<path class="st8" d="M283,260.3c-0.2,0-0.3-0.1-0.3-0.3v-55.2c0-0.1,0.1-0.3,0.3-0.3s0.3,0.1,0.3,0.3V260
				C283.3,260.2,283.2,260.3,283,260.3z"/>
			<path class="st8" d="M303.6,256.8c-0.2,0-0.3-0.1-0.3-0.3v-53.1c0-0.1,0.1-0.3,0.3-0.3s0.3,0.1,0.3,0.3v53.1
				C304,256.7,303.8,256.8,303.6,256.8z"/>
			<path class="st8" d="M357.6,258.9c-0.1,0-0.3-0.1-0.3-0.2L339.6,205c0-0.1,0.1-0.3,0.3-0.3c0.2,0,0.4,0,0.4,0.1l17.7,53.7
				c0,0.1-0.1,0.3-0.3,0.3C357.7,258.9,357.7,258.9,357.6,258.9z"/>
			<path class="st8" d="M337.2,262.4c-0.1,0-0.3-0.1-0.3-0.2l-14.7-55.8c0-0.1,0.1-0.3,0.3-0.3c0.2,0,0.4,0,0.4,0.2l14.7,55.8
				c0,0.1-0.1,0.3-0.3,0.3C337.2,262.4,337.2,262.4,337.2,262.4z"/>
			<polygon class="st8" points="303.4,203.5 282.7,205 282.7,205.5 322.9,206.9 340.5,204.8 340.5,204.3 			"/>
			<polygon class="st9" points="303.4,203 282.7,205 322.9,206.5 340.5,204.3 			"/>
			<path class="st8" d="M335.1,251.4c-0.2,0-0.3-0.1-0.3-0.2c0-0.1,0.1-0.3,0.3-0.3l19.3-2c0.2,0,0.4,0.1,0.4,0.2
				c0,0.1-0.1,0.3-0.3,0.3L335.1,251.4L335.1,251.4z"/>
			<path class="st8" d="M330.2,234.4c-0.2,0-0.3-0.1-0.3-0.2c0-0.1,0.1-0.3,0.3-0.3l18.6-1.5c0.2,0,0.3,0.1,0.3,0.2
				c0,0.1-0.1,0.3-0.3,0.3L330.2,234.4C330.3,234.4,330.3,234.4,330.2,234.4z"/>
			<path class="st8" d="M326.1,220.2c-0.2,0-0.3-0.1-0.3-0.2c0-0.1,0.1-0.3,0.3-0.3l17.8-1.9c0.2,0,0.4,0.1,0.4,0.2
				c0,0.1-0.1,0.3-0.3,0.3L326.1,220.2L326.1,220.2z"/>
		</g>
		<path class="st10" d="M320.7,67.9c-0.7,0.9-1.3,1.9-2,2.8c2.9,2.2,6.5,5.6,6.4,9.6c-0.1,6.1-8.3,8.1-8.8,14.4
			c-0.5,6.4,7.1,14.2,12,13.2c6.3-1.2,11.9-17.4,6-28.8C330.5,71.8,323.4,68.9,320.7,67.9z"/>
		
			<linearGradient id="SVGID_5_" gradientUnits="userSpaceOnUse" x1="328.5207" y1="-125.3764" x2="326.5458" y2="-98.2927" gradientTransform="matrix(1 0 0 1 0 190)">
			<stop  offset="0" style="stop-color:#FF9085"/>
			<stop  offset="1" style="stop-color:#FB6FBB"/>
		</linearGradient>
		<path class="st11" d="M320.7,67.9c0.1,0.9,0.3,2.2,1.2,3.2c1.3,1.5,2.8,1.2,4.4,2c3.2,1.6,4.8,6.7,4,10.8c-0.8,4.2-4,6.6-4.8,7.2
			c-4.4,3.2-8.2,1.6-9.2,3.6c-1.8,3.5,6.2,14.3,12,13.2c6.3-1.2,11.9-17.4,6-28.8C330.5,71.8,323.4,68.9,320.7,67.9z"/>
		
			<linearGradient id="SVGID_6_" gradientUnits="userSpaceOnUse" x1="325.4373" y1="-108.0401" x2="318.0918" y2="-122.8646" gradientTransform="matrix(1 0 0 1 0 190)">
			<stop  offset="3.597000e-03" style="stop-color:#F36F56"/>
			<stop  offset="1" style="stop-color:#FFC444"/>
		</linearGradient>
		<path class="st12" d="M320.2,70.4c0,0-2.2-0.7-2.8-1.5c-0.6-0.7-0.1-3.3-0.1-5.3c0-2,1,0.9,1.2,1.6c0.2,0.7,0.1,2.2,1.7,3.4
			L320.2,70.4z"/>
		
			<linearGradient id="SVGID_7_" gradientUnits="userSpaceOnUse" x1="-863.0823" y1="-72.4023" x2="-864.0218" y2="-83.6733" gradientTransform="matrix(0.9986 5.370000e-02 -5.370000e-02 0.9986 1175.8613 203.1125)">
			<stop  offset="0" style="stop-color:#AB316D"/>
			<stop  offset="1" style="stop-color:#792D3D"/>
		</linearGradient>
		<path class="st13" d="M315.2,82.8c-0.8-1.5-1.1-1.5-1.3-2.3c-0.4-1.9,0.7-4.2,1.6-4.2c0.6,0,0.7,0.9,2,2.4
			c1.6,1.8,2.6,1.6,3.5,3.2c0.2,0.4,1.2,2,0.6,3.3c-0.8,1.6-3.8,1.9-5.1,0.6C315.9,85.1,316.1,84.7,315.2,82.8z"/>
		
			<linearGradient id="SVGID_8_" gradientUnits="userSpaceOnUse" x1="-866.4472" y1="-89.0191" x2="-865.5496" y2="-55.8031" gradientTransform="matrix(0.9986 5.370000e-02 -5.370000e-02 0.9986 1175.8613 203.1125)">
			<stop  offset="3.597000e-03" style="stop-color:#F36F56"/>
			<stop  offset="1" style="stop-color:#FFC444"/>
		</linearGradient>
		<path class="st14" d="M317.5,84.4c0,0-0.5,2.9-0.2,5.3c0.4,2.1,4.3,4.4,5.1,5c0.8,0.6-2,1.3-4.6,1s-9.6-2.6-10.6-3.8
			c-1.1-1.2,1.2-0.6,3.2-0.9c1.9-0.2,3.8-3.5,3.8-5.1C314.3,84.3,317.5,84.4,317.5,84.4z"/>
		<g>
			
				<linearGradient id="SVGID_9_" gradientUnits="userSpaceOnUse" x1="811.1387" y1="99.0278" x2="819.9971" y2="108.3649" gradientTransform="matrix(-0.966 -0.2584 -0.2584 0.966 1133.2479 193.1035)">
				<stop  offset="3.597000e-03" style="stop-color:#F36F56"/>
				<stop  offset="1" style="stop-color:#FFC444"/>
			</linearGradient>
			<path class="st15" d="M316.6,86.6c0,0-2,0.9-3.7-0.5c-1.6-1.2,0.8-5,2.3-5.1c0.5,0,1.3,0.4,1.7,0.9c0.3,0.3,0.3,0.5,0.7,1.1
				c0.4,0.5,0.6,0.5,0.7,0.8s-0.1,0.8-1.1,1.6c0.5-0.1,1,0,1.2,0.4c0,0,0.1,0.2,0.1,0.4C318.5,86.6,317.7,86.9,316.6,86.6z"/>
		</g>
		
			<linearGradient id="SVGID_10_" gradientUnits="userSpaceOnUse" x1="957.5568" y1="-1.9282" x2="957.5568" y2="-33.4612" gradientTransform="matrix(-0.9999 1.380000e-02 1.380000e-02 0.9999 1290.5173 193.2851)">
			<stop  offset="0" style="stop-color:#FFC444"/>
			<stop  offset="0.9964" style="stop-color:#F36F56"/>
		</linearGradient>
		<polygon class="st16" points="331.5,197.3 332.7,200.5 334.4,200.3 334,197.3 		"/>
		
			<linearGradient id="SVGID_11_" gradientUnits="userSpaceOnUse" x1="959.7589" y1="-0.7328" x2="953.8065" y2="-20.3599" gradientTransform="matrix(-0.9999 1.380000e-02 1.380000e-02 0.9999 1290.5173 193.2851)">
			<stop  offset="0" style="stop-color:#444B8C"/>
			<stop  offset="0.9964" style="stop-color:#26264F"/>
		</linearGradient>
		<path class="st17" d="M333.2,202.3c0.8-1,1.6-0.9,1.7-1.6c0.1-0.5-0.2-1.2-0.7-1.4c-0.7-0.3-1.5,0.2-1.7,0.3
			c-1.3,0.8-0.9,2.1-2.1,2.7c-0.2,0.1-0.6,0.2-1,0.6c-0.2,0.2-0.6,0.6-0.5,0.8c0.1,0.3,0.9,0.3,1.6,0.3c0.9,0,1.3,0,1.7-0.3
			C332.7,203.4,332.6,203.1,333.2,202.3z"/>
		
			<linearGradient id="SVGID_12_" gradientUnits="userSpaceOnUse" x1="2144.3276" y1="10.2638" x2="2141.4319" y2="75.4198" gradientTransform="matrix(-0.9766 0.215 0.215 0.9766 2413.9697 -332.1275)">
			<stop  offset="0" style="stop-color:#444B8C"/>
			<stop  offset="0.9964" style="stop-color:#26264F"/>
		</linearGradient>
		<path class="st18" d="M328.8,130.6c1,6.4,1.2,12,1.1,16.6c-0.1,5-0.6,5.9-0.3,9.3c0.6,7.3,3.1,7.9,5.1,16c2.1,8.9,1,16.5,0.6,19.4
			c-0.4,2.5-0.9,4.6-1.3,6.1c-0.7,0.9-2,0.8-3.4,0.8c-2-8.1-4-15.6-6-23.7c-3.8-12-7.6-23.9-11.5-35.9
			C318.4,136.3,323.6,133.4,328.8,130.6z"/>
		
			<linearGradient id="SVGID_13_" gradientUnits="userSpaceOnUse" x1="2144.2891" y1="10.2621" x2="2141.3931" y2="75.4181" gradientTransform="matrix(-0.9766 0.215 0.215 0.9766 2413.9697 -332.1275)">
			<stop  offset="0" style="stop-color:#444B8C"/>
			<stop  offset="0.9964" style="stop-color:#26264F"/>
		</linearGradient>
		<path class="st19" d="M330.6,198.6c-2-8.1-4-15.6-6-23.7c-3.8-12-7.6-23.9-11.5-35.9c5.2-2.8,10.4-5.7,15.7-8.5
			c0.1,0.4,0.1,0.8,0.2,1.2c-6.6,8.2-7.1,13.8-6.4,17.5c0.9,4.4,3.7,6.2,4.4,12.7c0.5,4.7-0.7,5.7,0,9.9c1,5.3,3.8,7.9,5.5,10.8
			c1.6,2.8,2.8,6.9,1.8,13.3c-0.2,0.7-0.3,1.3-0.5,1.8C333.3,198.7,332,198.7,330.6,198.6z"/>
		
			<linearGradient id="SVGID_14_" gradientUnits="userSpaceOnUse" x1="1021.4199" y1="-39.645" x2="957.1774" y2="-42.5653" gradientTransform="matrix(-0.9999 1.380000e-02 1.380000e-02 0.9999 1290.5173 193.2851)">
			<stop  offset="0" style="stop-color:#444B8C"/>
			<stop  offset="0.9964" style="stop-color:#26264F"/>
		</linearGradient>
		<path class="st20" d="M319.7,138.4c-0.1,3.1-0.6,7.7-2.6,12.9c-2.7,6.9-5.6,8.6-6.8,14.4c-1.3,6.1,1.1,8.4,1.2,14
			c0.1,5.2-1.7,12.7-10.8,22c-1.5-0.1-2.9-0.3-4.4-0.4c1.2-4.5,2.7-11.6,3.5-20.4c0.4-4.4,0.4-7.6,0.5-8.9
			c0.2-7.3,1.2-19.8,5.1-42.3C310.1,132.6,314.9,135.5,319.7,138.4z"/>
		
			<linearGradient id="SVGID_15_" gradientUnits="userSpaceOnUse" x1="270.9471" y1="-105.7866" x2="265.4714" y2="-114.6013" gradientTransform="matrix(1 0 0 1 0 190)">
			<stop  offset="3.597000e-03" style="stop-color:#F36F56"/>
			<stop  offset="1" style="stop-color:#FFC444"/>
		</linearGradient>
		<path class="st21" d="M268.3,76.6c0,0-1.2,0.2-1.6-2c-0.3-1.8-0.7-2.3-1-1.8c-0.3,0.4,0,1.4,0,1.4s-1.9-0.7-3-2.1
			s-1.1,0.1-0.9,0.9c0.1,0.8,2,3,2.7,3.3s2.2,2,2.2,2L268.3,76.6z"/>
		<path class="st10" d="M334.5,131.8c-0.6,5.4-0.9,8.8-3.4,11.7c-3.8,4.4-10.1,5-15.1,4.6c-0.1,0-0.1,0-0.2,0c-0.5,0-1-0.1-1.4-0.1
			c-0.1,0-0.1,0-0.2,0c-0.6-0.1-1.1-0.2-1.6-0.3c-0.1,0-0.2,0-0.2,0c-0.7-0.1-1.3-0.3-1.8-0.4c-0.2,0-0.3-0.1-0.5-0.1H310
			c-0.1,0-0.3-0.1-0.4-0.1c-0.5-0.1-0.9-0.3-1.1-0.3c-3.3-1-8.4-2.5-10.4-6.8c-1.5-3.2,0.1-5.1,0.6-11.4c0.3-3.2,1.1-13-3.6-18.9
			c-0.1-0.1-0.1-0.1-0.2-0.2c-3.3-4-8-4.3-12.5-5.7c-5.6-1.8-7.9-7.2-13.1-17.2l0,0c-1.4-2.9-3.1-6.1-5-9.8c0.9-0.5,3.1-0.9,4-1.4
			c10.4,10.2,10.9,15.2,17.2,15.9c9.6,1,16.3-2.9,29.1-0.2c4,0.8,11,2.4,14.9,8.1c1,1.5,1.4,2.7,3.1,13.5
			C334.7,126.4,334.8,128.8,334.5,131.8z"/>
		<g class="st22">
			
				<linearGradient id="SVGID_16_" gradientUnits="userSpaceOnUse" x1="285.0919" y1="-95.8901" x2="322.5258" y2="-38.9253" gradientTransform="matrix(1 0 0 1 0 190)">
				<stop  offset="0" style="stop-color:#FF9085"/>
				<stop  offset="1" style="stop-color:#FB6FBB"/>
			</linearGradient>
			<path class="st23" d="M329.2,145.2c-3.8,2.8-9,3.2-13.2,2.9c-0.1,0-0.1,0-0.2,0c-0.5,0-1-0.1-1.4-0.1c-0.1,0-0.1,0-0.2,0
				c-0.6-0.1-1.1-0.2-1.6-0.3c-0.1,0-0.2,0-0.2,0c-0.7-0.1-1.3-0.3-1.8-0.4c-0.2,0-0.3-0.1-0.5-0.1H310c-0.1,0-0.3-0.1-0.4-0.1
				c-0.5-0.1-0.9-0.3-1.1-0.3c-3.3-1-8.4-2.5-10.4-6.8c-1.5-3.2,0.1-5.1,0.6-11.4c0.3-3.2,1.1-13-3.6-18.9c-0.1-0.1-0.1-0.1-0.2-0.2
				c-3.3-4-8-4.3-12.5-5.7c-5.6-1.8-8-7.2-13.2-17.2c2.1,1.1,8.9,9.6,11.6,10.4c3.6,1,7.4,0.8,10.9,2.1c1.7,0.6,3.5,1.6,4.5,3.1
				c1.2,1.8,1.3,4.2,2.8,6c4.2,4.8,11.6,0.3,15.4,4.4c4.8,5.1-3.3,15.7,2.1,22.2c2.4,2.8,4.7,1.7,8.6,5.2
				C326.9,141.4,328.3,143.3,329.2,145.2z"/>
		</g>
		<g>
			<path class="st24" d="M243.1,46.4c0,0-1-1.9-2.7,0.2c-1.7,2.1-3.4,15.5-1.4,17.4c0,0,0.8,1.5,2.5-0.6l2.4,0.2
				c0,0,0.2,1.1,1.1,0.9c0.9-0.2,1.3-1.2,1.3-1.2l3.5,0.7c0,0,11.3,9.3,13,9.9c1.7,0.5,3.7,0.5,5.7-0.2c2-0.8,6.4-2.8,6.4-2.8
				s2-1.3,2.4-2.5S278,67,278,67l4.2-3.6c0,0,0.3-0.3,0.7,0.2c0.4,0.5,1.7,1.8,2.4,1.8c0.7,0,3.3-0.9,3.3-0.9s1.4-0.7,1.5-2.1
				c0.1-1.3,0.5-3.8,0.5-3.8s2.2,3.3,3,3.2s2.4-1.5,3.5-0.9s4.1,4.2,7.1,5.4c3,1.2,7.4,1.9,9.2,1.3c1.8-0.6,3.4-2.8,3.4-2.8
				s3.6-10.2,2.2-16.7s-4.7-15.5-6.6-15.8c-1.8-0.3-3.5-2-8.8-0.1s-4,2-4.6,2.4c-0.6,0.5-5.3,7.2-5.6,7.4c-0.2,0.3-1.1-1.1-1.8-0.6
				c-0.7,0.4-0.7,0.4-0.7,0.4s-0.2-0.9-0.8-0.2c-0.6,0.7-2.3,2.7-3.4,2.5s-6.1-3.7-6.4-3.8c-0.4-0.1-3.8,2.5-3.8,2.5s-6-6.1-7.3-6
				s-7.7,2.7-8.4,2.4c-0.7-0.3-1.2-1.4-2.2-0.5c-1.1,0.9-7.8,8.3-7.8,8.3s-2.6,0.1-2.4,0c0.2,0-0.5-1.3-1.6-1.2s-1.3,0.8-1.3,0.8
				L243.1,46.4z"/>
			<g class="st25">
				<path class="st26" d="M242.4,55.2c-0.6,4.8-1.9,8.5-3,8.4c-1.1-0.1-1.4-4.1-0.8-8.8c0.6-4.8,1.9-8.5,3-8.4
					C242.7,46.5,243,50.4,242.4,55.2z"/>
				<path class="st27" d="M243.4,47c0,0,1.9,7.4-1.7,16.1C241.7,63.2,246.1,55,243.4,47z"/>
				<path class="st27" d="M246.2,47.2c0,0,1.9,2,0.9,8c-0.9,6.1-3.2,8.5-3.2,8.5s3.6-3.7,3.7-10.4C247.6,53.3,248,48.1,246.2,47.2z"
					/>
				<path class="st27" d="M248.5,47.2c0,0,1.8,1.9,0.9,7.8c-0.9,5.9-3.1,8.3-3.1,8.3s3.5-3.6,3.6-10.1
					C249.9,53.2,250.3,48,248.5,47.2z"/>
				<path class="st27" d="M251.5,47.6c0,0,1.9,1.8,1.2,7.8c-0.7,5.9-2.7,8.4-2.7,8.4s3.4-3.7,3.2-10.3
					C253.2,53.6,253.3,48.4,251.5,47.6z"/>
				<path class="st27" d="M262.1,43c0,0,8.7,12.2,3.1,28.8C265.3,71.7,272.4,56.7,262.1,43z"/>
				<path class="st27" d="M276.8,43.1c0,0,2.1,3.3,2.2,5.5s-1.1,18.1-1.1,18.1s1.9-15.2,1.9-17.3C279.8,47.2,276.8,43.1,276.8,43.1z
					"/>
				<path class="st27" d="M291.2,42.1c0,0-8.9,21.2-9,21.4S289.2,50.9,291.2,42.1z"/>
				<path class="st27" d="M293,53.2c0,0-2.3-0.4-2.4,5.2l0.1,0.8l1.3-4.1c0,0,1.1-1.1,1.3-1c0.2,0,1.7,0.3,1.7,0.3
					S294.3,52.8,293,53.2z"/>
				<path class="st27" d="M293.7,42.3c0,0,1.7,2,1.8,3.2c0.1,1.1,0.4,4.9,1.3,7.2c0,0,2.9,4.2,4.7,6.4c0,0-4.1-6-4.5-8.5
					c-0.5-2.5-0.8-5.6-0.8-5.6L293.7,42.3z"/>
				<path class="st27" d="M310.1,33.6c0,0,1.9,2.8,1.6,6.1c-0.2,3.3-3.9,7.5-2.3,11.7s4.7,6,3.3,11.4c0,0,2.2-3.1,0.1-7
					s-3.6-5-2.9-8.4s3-5.7,2.1-9.1C311.3,34.8,310.1,33.6,310.1,33.6z"/>
				<path class="st27" d="M308.7,33.1c0,0-2-0.6-3.7,7.3s1.1,17.5,1.4,17.8C306.3,58.3,302.6,41.8,308.7,33.1z"/>
			</g>
			<path class="st28" d="M319.1,48.3c-1.5-6.6-4.7-15.5-6.6-15.8c-1.8-0.3-3.5-2-8.8-0.1s-4,2-4.6,2.4c-0.6,0.5-5.3,7.2-5.6,7.4
				c-0.2,0.3-1.1-1.1-1.8-0.6C291,42,291,42,291,42s-0.2-0.9-0.8-0.2c-0.6,0.7-2.3,2.7-3.4,2.5s-6.1-3.7-6.4-3.8
				c-0.4-0.1-3.8,2.5-3.8,2.5s-6-6.1-7.3-6s-7.7,2.7-8.4,2.4c-0.7-0.3-1.2-1.4-2.2-0.5c-1.1,0.9-7.8,8.3-7.8,8.3s-2.6,0.1-2.4,0
				c0.2,0-0.5-1.3-1.6-1.2s-1.3,0.8-1.3,0.8l-2.6-0.4c0,0-1-1.9-2.7,0.2c-1.7,2.1-3.4,15.5-1.4,17.4c0,0,0.8,1.5,2.5-0.6l2.4,0.2
				c0,0,0.2,1.1,1.1,0.9c0.9-0.2,1.3-1.2,1.3-1.2l3.5,0.7c0,0,11.3,9.3,13,9.9c1.7,0.5,3.7,0.5,5.7-0.2c2-0.8,6.4-2.8,6.4-2.8
				s2-1.3,2.4-2.5s0.7-1.4,0.7-1.4l4.2-3.6c0,0,0.3-0.3,0.7,0.2c0.4,0.5,1.7,1.8,2.4,1.8c0.7,0,3.3-0.9,3.3-0.9s1.4-0.7,1.5-2.1
				c0.1-1.3,0.5-3.8,0.5-3.8s2.2,3.3,3,3.2c0.9-0.1,2.4-1.5,3.5-0.9s4.1,4.2,7.1,5.4c3,1.2,7.4,1.9,9.2,1.3c1.8-0.6,3.4-2.8,3.4-2.8
				S320.6,54.9,319.1,48.3z M243.2,56.4c-0.1,0.4-0.7,0.2-0.6-0.1c0.2-2.7,0.7-5.4-0.1-8c0-0.2,0-0.3,0.2-0.3c0-0.1,0-0.1,0-0.2
				c0-0.3,0.5-0.4,0.6-0.1C244.7,50,244.1,53.9,243.2,56.4z M247.4,53.6c-0.2,1.3-1.1,3.6-2.6,1.9c-0.5-0.5-0.3-1.8-0.3-2.4
				c0-1.5,0.2-3.1-0.5-4.5c-0.1-0.2,0-0.3,0.1-0.4c0.1-0.8,1-0.9,2.1-0.4C247.8,48.7,247.6,52.2,247.4,53.6z M248.6,54.6
				c-0.2,0.2-0.4,0.2-0.5,0c-0.5-0.8-0.3-1.6-0.3-2.4c0-1.2-0.2-2.4-0.5-3.6c0-0.1,0-0.2,0.1-0.3c0-0.2,0-0.4,0.1-0.6
				c0-0.2,0.3-0.3,0.4-0.2C250,48.3,249.9,53.1,248.6,54.6z M252.2,57.4c-0.3,1-0.6,1.7-1.6,2.1c-0.5,0.2-0.8-0.1-1-0.5
				c-0.2-0.7,0-1.7,0-2.4c0-0.8,0-1.7,0.1-2.5c0.1-1.8,0.2-3.7-0.4-5.4c0-0.1,0-0.3,0.1-0.3c0.7-1.7,2.4,0.7,2.6,1.6
				C252.7,52.2,252.8,55.2,252.2,57.4z M264.5,64.8c-1.5,1.7-3.6,0.4-5.2-0.6s-3.2-2-4.7-3.1c-0.9-0.7-1.6-1.4-1.8-2.6
				c-0.3-1.6,0.5-3.3,0.4-4.9c-0.1-1.8-0.8-3.8-0.5-5.5c0.2-1.2,1.6-2.3,2.4-3.2c1.3-1.4,2.6-2.6,3.8-4.1l0,0c0-0.1,0.1-0.1,0.1-0.2
				c0.1-0.1,0.3-0.1,0.4-0.1c2.2-0.1,4.8,8.1,5.1,9.1c1,3.2,1.4,6.5,1.3,9.8C265.7,61.1,265.7,63.4,264.5,64.8z M274,55.3
				c-1,1.1-2,2.2-3,3.3c-0.5,0.5-1.4,1.9-2.3,1.9c-0.5,0-0.7-0.4-0.8-0.8c-0.2-1.4-0.3-2.9-0.6-4.3c-0.7-3.5-1.7-6.9-3.2-10.2
				c-0.7-1.5-1.8-3.6-0.1-4.8c1.2-0.8,2.7-1.2,4-1.7c0.5-0.4,1.1-0.9,1.6-0.7c1,0.4,1.4,1.4,2,2.3c1.7,2.3,3.1,4.8,4,7.5
				C276.7,50.8,276,52.8,274,55.3z M286.4,47.6c-0.3,0.9-1,1.6-1.4,2.4c-0.6,1.1-1.1,2.1-1.7,3.1c-0.8,1.3-1.1,3.2-2.4,4.2
				c-0.2,0.1-0.5,0.1-0.5-0.2c-0.3-1.7,0.1-3.4,0.3-5.1c0.2-2-0.1-3.5-1-5.2c-0.5-1-1.2-2-1.1-3.2c0.1-0.9,1.2-1.7,1.9-2.3
				c0.1-0.1,0.3-0.1,0.4,0c0.5,0.1,0.8,0.5,1.2,0.9c0.7,0.8,1.6,1.5,2.4,2.2C285.2,45.1,286.9,46.3,286.4,47.6z M292.7,50.4
				c-1.5,1.3-1.6,3.1-2.6,4.6c-0.9,1.3-2.2,2.1-3.3,3.2c-0.2,0.2-0.6,0-0.5-0.3c0.3-2.2,1.3-4.4,2.1-6.5c0.8-2.1,1.5-4.1,2.3-6.1
				c0.3-0.7,0.5-1.5,0.8-2.2c0.1-0.3,0.5-0.3,0.6,0c0.3,1,0.5,2.1,0.9,3.1c0.2,0.7,0.8,1.6,0.9,2.4C294,49.7,293.4,49.8,292.7,50.4z
				 M309,58.8c0,0.1-0.1,0.3-0.3,0.3c-3.2,0.2-6.9-2.3-8.7-4.7c-1.1-1.5-2.6-3.4-3-5.3c0-0.2-0.1-0.5-0.1-0.7
				c-0.2-0.4-0.3-0.9-0.2-1.4c0-0.2,0.1-0.5,0.1-0.7c0-0.1,0-0.2,0-0.4c0-0.9-0.3-1.7-0.7-2.4c-0.9-0.9-1.3-1.8-0.3-2.9
				c1.1-1.2,2.2-2.5,3.3-3.7c0.5-0.7,1.1-1.5,1.8-1.9c1.3-0.8,2.9-0.9,4.3-1.6c0.1,0,0.1,0,0.2,0c0,0,0.1,0,0.1-0.1
				c0.2-0.1,0.4,0,0.5,0.2c0.1,1.6-0.3,3.2-0.4,4.8c0.4-1,1-2,1.6-2.9c0-0.1,0-0.1,0.1-0.1c0-0.1,0.1-0.1,0.1-0.2l0.1-0.1
				c0.1-0.2,0.5-0.2,0.6,0c0.7,1.8,1.5,3.8,1.7,5.7c0.1,1.8-0.5,3.3-1,5c-0.4,1.4-0.9,3-0.3,4.4c0.4,0.8,0.9,1.6,1.2,2.5
				c0.1,0.4,0.2,0.7,0.2,1.1c0.1,0.5,0.1,1-0.1,1.4C309.7,56.3,309.2,57.5,309,58.8z M316.7,56.8c0,0.2-0.3,0.3-0.4,0.2
				c-1.6-0.5-2.6-1.9-3.7-3.1c-1.2-1.3-2.1-2.9-2.3-4.6c-0.3-2,0.5-3.9,1.1-5.8c0.1-0.3,0.2-0.7,0.4-1c0.1-1.5,0.4-3.1,0.1-4.6
				c-0.3-1.2-0.7-2.3-0.9-3.5c-0.1-0.3,0.3-0.5,0.6-0.3c2.8,2.9,4.2,6.8,4.9,10.7c0.4,2,0.6,4.1,0.6,6.2
				C317.2,52.9,317.3,54.9,316.7,56.8z"/>
			<g class="st29">
				<path class="st30" d="M260.6,43c-0.9,0.6-1.8,1.3-2.6,2c-1.4,1.1-2.5,2.4-3.8,3.6c0.1,0.8,0.3,1.6,0.5,2.3
					c2.2-1.4,4.3-2.9,6.3-4.5c0-0.1,0.1-0.1,0.1-0.2C260.9,45.1,260.7,44,260.6,43z"/>
				<path class="st30" d="M265,44.7c0.1,0.1,0.2,0.3,0.2,0.4c0,0,0,0,0.1,0.1c2.3-0.5,4.4-1.4,6.5-2.3l0,0c-0.7-1.3-1.3-2.6-2.3-3.8
					c-1.9,1.1-3.7,2.2-5.8,3.1c0,0.1,0,0.1,0,0.1C264.2,43.1,264.6,43.9,265,44.7L265,44.7z"/>
				<path class="st30" d="M284.5,46.1c-1-1.3-2-2.5-3.3-3.5c-0.7,0.5-1.3,1.1-2.1,1.6c0,0.1,0,0.1,0.1,0.2c0.6,0.8,1.3,1.6,1.8,2.5
					c0.1,0.2,0.2,0.4,0.3,0.6C282.3,46.8,283.4,46.4,284.5,46.1z"/>
				<path class="st30" d="M291.2,50.3c0.3-0.3,0.7-0.7,1-1l0.1-0.1c0.4-0.5,0.5-0.7,0.3-1.3c-0.3-1.1-0.5-2.3-0.8-3.3
					c0-0.1-0.1-0.1-0.1-0.1c-0.5,1.3-0.9,2.5-1.4,3.8c0,0.2-0.1,0.5-0.1,0.7c-0.2,0.4-0.4,0.9-0.6,1.3c-0.1,0.2-0.2,0.4-0.3,0.6
					c-0.3,0.9-0.7,1.7-1,2.6c0,0,0,0,0,0.1v0.1C289.2,52.4,290.2,51.3,291.2,50.3z"/>
				<path class="st30" d="M302.1,36.3c-0.8,0.8-1.5,1.7-2.2,2.6c-1,1.2-1.9,2.4-2.8,3.6c0.1,0.2,0.3,0.4,0.6,0.6
					c1.4,0.9-0.1,1.9-0.3,3.1c0.9,1.3,1.8,2.7,2.8,3.9c0.8-1.9,1.7-3.7,2.7-5.4c0.2-1.6,0.3-3.2,0.7-4.8c0.3-1.7,1-3.3,1.4-4.9
					C304,35.4,303.1,35.9,302.1,36.3z"/>
				<path class="st30" d="M308,37.4c-0.9,1.1-1.4,2.7-1.7,4c-0.1,0.5-0.1,0.9-0.2,1.3c-0.1,0.5-0.2,1-0.2,1.5
					c-0.1,2.2-0.1,4.4,0,6.5c0,0.1,0,0.1,0.1,0.2c0.4-0.7,0.8-1.3,1.1-2c0.1-0.7,0.2-1.5,0.4-2.2c0.3-1.3,0.9-2.6,1.1-3.9
					c0.1-0.3,0.1-0.6,0.1-0.9C308.6,40.4,308.3,38.9,308,37.4z"/>
				<path class="st30" d="M315.1,46.1c0.1-0.4,0.2-0.8,0.3-1.1c0.2-0.7-0.3-1.4-0.5-2c-0.4-1-0.6-2-0.9-3.1
					c-0.1-0.2-0.2-0.2-0.3-0.2c-0.3,1.6-0.6,3.3-1.2,4.8c-0.4,1-0.9,2-1.3,3.1c0.6,0.9,1.3,1.7,2.1,2.5
					C313.7,48.7,314.3,47.4,315.1,46.1z"/>
				<path class="st30" d="M246.6,49.4c-0.1-0.4-0.3-0.9-0.9-0.8c-0.5,0.2-0.6,0.6-0.6,1.1c0,0.3,0.1,1.2,0.4,1.5
					c0.1,0.2,0.1,0.3,0.3,0.4c0.4,0.1,0.7-0.3,0.8-0.7C246.7,50.4,246.7,49.9,246.6,49.4z"/>
				<path class="st30" d="M249.1,49.6c0-0.4-0.2-0.9-0.7-0.6c-0.4,0.2-0.5,0.7-0.4,1s0.2,0.8,0.6,0.8c0.2,0,0.4-0.1,0.5-0.2
					C249.3,50.3,249.3,49.8,249.1,49.6z"/>
				<path class="st30" d="M252.1,52.6c0-0.4,0-0.8-0.1-1.2c-0.1-0.7-0.4-1.3-0.7-1.9c0-0.2-0.1-0.4-0.3-0.6
					c-0.2-0.4-0.9,0.2-0.8,0.6c0.3,0.8,0.7,1.4,0.8,2.3c0.1,1,0.1,2.1,0.3,3.1C251.6,54.1,251.8,53.3,252.1,52.6z"/>
				<path class="st31" d="M243.4,49.3c0-0.1-0.1,0-0.1,0.1c0.1,0.5,0,1,0.1,1.4c0,0.1,0.2,0,0.2-0.1
					C243.6,50.3,243.6,49.8,243.4,49.3z"/>
			</g>
			<path class="st28" d="M319.1,48.3c-1.5-6.6-4.7-15.5-6.6-15.8c-0.1,0-0.1,0-0.2,0c0.6,1,1.2,2.1,1.7,3.2c1.1,2.3,2,4.7,2.7,7.2
				c1.3,4.7,1.9,9.6,1,14.4c-0.4,1.9-0.9,3.7-2.3,5.2c-1,1.1-2.7,3.2-4.4,2.8c-1.3-0.3-2.8-0.7-4-1.3c-0.4-0.1-0.8-0.2-1.1-0.3
				c-1.3-0.6-2.2-2.5-3-3.6c-1.6-2.3-3.2-4.5-4.8-6.9c0.2,0.5,0.4,0.9,0.5,1.4c0.7,1.8,1.9,3.8,1.6,5.9c0,0.2-0.3,0.4-0.5,0.2
				c-1.1-0.7-2.3-1.6-3.2-2.7c-0.5-0.5-0.4-0.9-0.1-1.4c-0.6-0.2-1.3-0.4-1.9-0.5c-0.1,0-0.2-0.2-0.2-0.3c0.1-1,0.4-1.9,0.8-2.8
				c-1.9-0.2-3.8,0-4.6,1.9c-0.7,1.6-1.5,3.2-2,4.9c-0.1,0.6-0.2,1.6-0.9,1.8c-0.9,0.2-1.9,0.1-2.8,0.1c-0.2,0-0.3-0.2-0.3-0.4
				c0.9-2.7,1.5-5.6,2.5-8.2c0.3-0.7,0.5-1.4,0.8-2.1c-0.6,1.1-1.2,2.1-1.7,3.1c-1,1.8-1.7,3.7-3.1,5.2c-1.1,1.2-2.4,2.1-3.8,2.9
				c-0.2,0.1-0.5-0.1-0.5-0.3c0.1-2.3,0.1-4.6,0.1-6.9c-0.3,3.2-1.1,6.4-2,9.6c-0.5,2-1.3,3.4-3.3,4.2c-2.2,0.8-4.5,1.7-6.7,2.4
				c-0.1,0-0.4-0.1-0.4-0.3c-0.1-1.4,0.5-2.6,0.6-4c0-0.6,0-1.2,0-1.8c-0.4,0.8-0.7,1.7-1.1,2.5c-0.3,0.7-0.7,1.6-1.5,1.8
				c-0.9,0.2-2.3,0.7-3.2,0.3c-1.4-0.7-2.6-1.8-3.9-2.6c-1.4-0.9-2.9-1.9-4.3-2.9c-0.4-0.3-1.5-0.9-1.4-1.5c0.1-0.8,0.3-1.5,0.6-2.2
				c-0.6,0.7-1.3,1.2-2,1.2s-1.5-0.6-2.2-0.4c-0.7,0.2-0.8,0.6-1.6,0.5c-0.3,0-0.6-0.4-0.7-0.7c-0.2-0.8-1.1-0.8-1.9-0.9
				c-0.7,0-1.4,0.4-1.9,0.2c-0.4,1.5-1.1,3-2.6,3.5c-0.1,0-0.3,0.1-0.4,0.1c0.1,0.1,0.1,0.2,0.2,0.2c0,0,0.8,1.5,2.5-0.6l2.4,0.2
				c0,0,0.2,1.1,1.1,0.9c0.9-0.2,1.3-1.2,1.3-1.2l3.5,0.7c0,0,11.3,9.3,13,9.9c1.7,0.5,3.7,0.5,5.7-0.2c2-0.8,6.4-2.8,6.4-2.8
				s2-1.3,2.4-2.5s0.7-1.4,0.7-1.4l4.2-3.6c0,0,0.3-0.3,0.7,0.2c0.4,0.5,1.7,1.8,2.4,1.8c0.7,0,3.3-0.9,3.3-0.9s1.4-0.7,1.5-2.1
				c0.1-1.3,0.5-3.8,0.5-3.8s2.2,3.3,3,3.2c0.9-0.1,2.4-1.5,3.5-0.9s4.1,4.2,7.1,5.4c3,1.2,7.4,1.9,9.2,1.3c1.8-0.6,3.4-2.8,3.4-2.8
				S320.6,54.9,319.1,48.3z"/>
		</g>
	</g>
	<g>
		<g>
			<g>
				<path class="st10" d="M118.1,237.3c-9.2,0-17.5-4.7-22.1-12.7c-4.7-8-4.7-17.6-0.1-25.6l43.1-75.5c1.8-3.1,5.7-4.2,8.8-2.4
					c3.1,1.8,4.2,5.7,2.4,8.8l-43.1,75.5c-2.3,4-2.3,8.8,0.1,12.7c2.3,4,6.4,6.3,11,6.3c0,0,0,0,0.1,0l36.4-0.2
					c3.6,0,6.5,2.9,6.5,6.4c0,3.6-2.9,6.5-6.4,6.5l-36.4,0.2C118.2,237.3,118.2,237.3,118.1,237.3z"/>
			</g>
		</g>
		<g>
			<g>
				<path class="st10" d="M205.2,236.8c-3.5,0-6.4-2.9-6.4-6.4c0-3.6,2.9-6.5,6.4-6.5l87-0.5c4.6,0,8.7-2.4,11-6.4s2.3-8.8-0.1-12.7
					l-11.4-19.5c-1.8-3.1-0.8-7,2.3-8.8c3.1-1.8,7-0.8,8.8,2.3l11.4,19.5c4.7,8,4.7,17.6,0.1,25.6s-12.9,12.9-22.1,12.9L205.2,236.8
					L205.2,236.8z"/>
			</g>
		</g>
		<g>
			<g>
				<path class="st10" d="M275.7,151.2c-2.2,0-4.4-1.1-5.6-3.2l-54.8-93.8c-2.3-4-6.4-6.3-11-6.3c0,0,0,0-0.1,0
					c-4.6,0-8.7,2.4-11,6.4l-27.6,48.5c-1.8,3.1-5.7,4.2-8.8,2.4c-3.1-1.8-4.2-5.7-2.4-8.8L182,47.9c4.6-8,12.9-12.9,22.1-12.9h0.1
					c9.2,0,17.5,4.7,22.1,12.7l54.8,93.8c1.8,3.1,0.8,7-2.3,8.8C277.9,150.9,276.8,151.2,275.7,151.2z"/>
			</g>
		</g>
		<g>
			<g>
				<path class="st10" d="M279.7,157.7c-1.1,0-2.2-0.3-3.1-0.8l-20.4-11.3c-3.1-1.7-4.2-5.7-2.5-8.8s5.7-4.2,8.8-2.5l10.6,5.9
					l-0.2-12.2c-0.1-3.6,2.8-6.5,6.3-6.5c3.6,0,6.5,2.8,6.5,6.3l0.4,23.3c0,2.3-1.2,4.5-3.1,5.6C282,157.4,280.9,157.7,279.7,157.7z
					"/>
			</g>
		</g>
		<g>
			<g>
				<path class="st10" d="M213.7,246.9c-1.1,0-2.3-0.3-3.3-0.9l-20-12.1c-2-1.2-3.2-3.3-3.1-5.6c0-2.3,1.3-4.4,3.3-5.5l20.4-11.2
					c3.1-1.7,7-0.6,8.8,2.5s0.6,7-2.5,8.8l-10.7,5.9l10.4,6.3c3.1,1.9,4,5.8,2.2,8.9C218,245.8,215.8,246.9,213.7,246.9z"/>
			</g>
		</g>
		<g>
			<g>
				<path class="st10" d="M146.3,155.8c-3.4,0-6.2-2.6-6.4-6l-0.8-12.1l-10.1,6.7c-3,2-7,1.2-8.9-1.8c-2-3-1.2-7,1.8-8.9l19.4-12.9
					c1.9-1.3,4.4-1.4,6.4-0.4c2.1,1,3.4,3.1,3.6,5.4l1.5,23.3c0.2,3.6-2.5,6.6-6,6.8C146.5,155.8,146.4,155.8,146.3,155.8z"/>
			</g>
		</g>
	</g>
</g>
</svg>
