<?xml version="1.0" encoding="utf-8"?>
<!-- Generator: Adobe Illustrator 25.0.1, SVG Export Plug-In . SVG Version: 6.00 Build 0)  -->
<svg version="1.1" id="Layer_1" xmlns="http://www.w3.org/2000/svg" xmlns:xlink="http://www.w3.org/1999/xlink" x="0px" y="0px"
	 viewBox="0 0 1150.8 1080" style="enable-background:new 0 0 1150.8 1080;" xml:space="preserve">
<style type="text/css">
	.st0{fill:#10B5C9;}
	.st1{font-family:'ProximaNova-Bold';}
	.st2{font-size:28.852px;}
	.st3{fill:#FFFFFF;}
	.st4{font-family:'ProximaNova-Regular';}
	.st5{font-size:20.5728px;}
	.st6{fill:#01283C;}
	.st7{fill:url(#SVGID_1_);}
	.st8{font-size:21.3887px;}
	.st9{fill:none;stroke:#FFFFFF;stroke-miterlimit:10;}
	.st10{fill:none;stroke:#FFFFFF;stroke-miterlimit:10;stroke-dasharray:4.8938,4.8938;}
	.st11{fill:url(#SVGID_2_);}
	.st12{font-size:19.5687px;}
	.st13{fill:url(#SVGID_3_);}
	.st14{fill:url(#SVGID_4_);}
</style>
<text transform="matrix(1 0 0 1 443.1033 220.9129)" class="st0 st1 st2">INVENTION OF THE PRECURSORS</text>
<text transform="matrix(1 0 0 1 443.1033 249.3129)" class="st3 st4 st5">Natural Rubber, Vulcanite, Gutta- Percha, Shellac, and Bois Durci.</text>
<text transform="matrix(1 0 0 1 443.1033 414.6343)" class="st0 st1 st2">BEGINNING OF THE PLASTIC ERA</text>
<text transform="matrix(1 0 0 1 443.1033 443.0343)" class="st0 st1 st2">WITH SEMI-SYNTHETICS</text>
<text transform="matrix(1 0 0 1 443.1033 471.4343)" class="st3 st4 st5">Polystyrene or PS, Parkesine, Cellulose Nitrate or Celluloid,</text>
<text transform="matrix(1 0 0 1 443.1033 499.9343)" class="st3 st4 st5">Polyvinyl Chloride or PVC, Viscose Rayon.</text>
<text transform="matrix(1 0 0 1 443.1035 576.0501)" class="st0 st1 st2">THERMOSETTING PLASTICS AND</text>
<text transform="matrix(1 0 0 1 443.1035 604.4501)" class="st0 st1 st2">THERMOPLASTICS</text>
<text transform="matrix(1 0 0 1 443.1035 632.8501)" class="st3 st4 st5">Cellophane, Phenol-Formaldehyde (trade name Bakelite), Vinyl</text>
<text transform="matrix(1 0 0 1 443.1035 661.3501)" class="st3 st4 st5">or PVC, Ployvinylidene chloride or Saran, also called PVDC,</text>
<text transform="matrix(1 0 0 1 443.1035 689.7501)" class="st3 st4 st5">Low-density polyethylene or LDPE, Acrylic or Polymethyl</text>
<text transform="matrix(1 0 0 1 443.1035 718.1501)" class="st3 st4 st5">Methacrylate, Polyurethanes (trade name Igamid for plastic</text>
<text transform="matrix(1 0 0 1 443.1035 746.5501)" class="st3 st4 st5">materials and Perlon for fibers), Polystyrene, Polytetrafluorethylene</text>
<text transform="matrix(1 0 0 1 443.1035 775.0501)" class="st3 st4 st5">or PRFE (trade name Teflon), Nylon and Neoprene</text>
<text transform="matrix(1 0 0 1 443.1038 830.5028)" class="st0 st1 st2">POLYETHYLENE TEREPHTHALATE OR PET</text>
<text transform="matrix(1 0 0 1 443.1038 858.9028)" class="st3 st4 st5">Polyethylene Terephthalate or Pet, Low-Density Polyethylene,</text>
<text transform="matrix(1 0 0 1 443.1038 887.3029)" class="st3 st4 st5">Unsaturated Polyester PET, High-density polyethylene or HDPE</text>
<text transform="matrix(1 0 0 1 443.1038 915.8029)" class="st3 st4 st5">(trade name Marlex), Polypropylene or PP, Saran Wrap, Styrofoam,</text>
<text transform="matrix(1 0 0 1 443.1038 944.2029)" class="st3 st4 st5">Polyimide, Thermoplastic Polyester, Linear Low-Density</text>
<text transform="matrix(1 0 0 1 443.1038 972.6028)" class="st3 st4 st5">Polyethylene, Liquid Crystal Polymers</text>
<g id="year1">
	<path class="st3" d="M311.5,198.2c-0.6-2.5-1.4-5-2.2-7.5c-3.2-9.5-7.9-18.5-13.9-26.6c-12-16.1-29-28.3-48.1-34.3
		c-10.6-3.3-21.8-4.7-32.9-4.3c-49,2.1-89,42.1-91.2,91.1c-2.1,48.1,31.4,88.8,76.3,97.9c7.9,1.6,13.6,8.5,13.6,16.5v1h11.2v-1.3
		c0-7.8,5.5-14.7,13.1-16.2c20.6-4.1,39.5-15.1,53.3-30.9c8-9.1,14.2-19.7,18.2-31.1c4.2-11.9,5.2-24.3,5.1-36.8
		C313.9,209.7,313,203.9,311.5,198.2z"/>
	
		<ellipse transform="matrix(0.7071 -0.7071 0.7071 0.7071 -92.1634 219.3546)" class="st6" cx="218.7" cy="220.9" rx="90.9" ry="90.9"/>
	<g>
		
			<linearGradient id="SVGID_1_" gradientUnits="userSpaceOnUse" x1="172.7363" y1="904.9712" x2="264.6602" y2="813.0473" gradientTransform="matrix(1 0 0 -1 0 1080)">
			<stop  offset="0" style="stop-color:#EAEEF1"/>
			<stop  offset="1" style="stop-color:#FFFFFF"/>
		</linearGradient>
		<circle class="st7" cx="218.7" cy="221" r="65"/>
	</g>
	<text transform="matrix(1 0 0 1 162.4421 226.8438)" class="st6 st1 st8">1839 - 1856</text>
	<g>
		<g>
			<g>
				<line class="st9" x1="313.7" y1="221" x2="316.2" y2="221"/>
				<line class="st10" x1="321.1" y1="221" x2="406.7" y2="221"/>
				<line class="st9" x1="409.2" y1="221" x2="411.7" y2="221"/>
			</g>
		</g>
		<circle class="st3" cx="416.8" cy="221" r="5.1"/>
	</g>
</g>
<g id="year2">
	<path class="st3" d="M311.3,419.6c-9-35.4-37.8-63-73.9-70.2c-7.7-1.5-13.1-8.4-13.1-16.2V332h-11.2v0.9c0,8-5.5,14.9-13.3,16.5
		c-44.9,9-78.4,49.4-76.6,97.4c1.7,44.4,34.3,81.2,76.5,89.9c7.8,1.6,13.4,8.5,13.4,16.5v1.8h11.2v-1.7c0-8,5.6-14.9,13.5-16.5
		c20.4-4.1,39-15,52.7-30.6c7.4-8.4,13-18.1,17.1-28.4c2.1-5.2,3.7-10.5,5.1-15.9c1.5-5.8,1.6-11.6,1.6-17.5
		C314.3,435.9,313.3,427.7,311.3,419.6z"/>
	
		<ellipse transform="matrix(0.7071 -0.7071 0.7071 0.7071 -249.2413 284.4709)" class="st6" cx="218.8" cy="443.1" rx="90.9" ry="90.9"/>
	<g>
		
			<linearGradient id="SVGID_2_" gradientUnits="userSpaceOnUse" x1="1753.4153" y1="-105.9044" x2="1837.561" y2="-190.0501" gradientTransform="matrix(-1 0 0 1 2014.1864 591.168)">
			<stop  offset="0" style="stop-color:#FFFFFF"/>
			<stop  offset="1" style="stop-color:#EAEEF1"/>
		</linearGradient>
		<circle class="st11" cx="218.7" cy="443.2" r="59.5"/>
	</g>
	<text transform="matrix(1 0 0 1 167.3339 449.4066)" class="st6 st1 st12">1839 - 1894</text>
	<g>
		<g>
			<g>
				<line class="st9" x1="313.7" y1="443.2" x2="316.2" y2="443.2"/>
				<line class="st10" x1="321.1" y1="443.2" x2="406.7" y2="443.2"/>
				<line class="st9" x1="409.2" y1="443.2" x2="411.7" y2="443.2"/>
			</g>
		</g>
		<circle class="st3" cx="416.8" cy="443.2" r="5.1"/>
	</g>
</g>
<g id="year3">
	<path class="st3" d="M311.5,642.7c-8.7-35.8-37.5-63.7-73.8-71c-7.9-1.6-13.5-8.5-13.5-16.5v-0.1H213v0.2c0,8-5.6,14.9-13.4,16.5
		c-42.2,8.6-74.8,45.5-76.5,89.9c-1.8,47.9,31.7,88.4,76.6,97.4c7.8,1.6,13.3,8.5,13.3,16.5v2.1c0,0.2,0,0.3,0,0.5h11.2
		c0-0.3,0-0.5,0-0.8v-1.9c0-8,5.7-14.9,13.5-16.5c18.5-3.7,35.6-13.1,48.9-26.5C310.4,708.4,319.5,675.5,311.5,642.7z"/>
	
		<ellipse transform="matrix(0.7071 -0.7071 0.7071 0.7071 -406.3317 349.5115)" class="st6" cx="218.7" cy="665.2" rx="90.9" ry="90.9"/>
	<g>
		
			<linearGradient id="SVGID_3_" gradientUnits="userSpaceOnUse" x1="176.6254" y1="456.7822" x2="260.771" y2="372.6364" gradientTransform="matrix(1 0 0 -1 0 1080)">
			<stop  offset="0" style="stop-color:#EAEEF1"/>
			<stop  offset="1" style="stop-color:#FFFFFF"/>
		</linearGradient>
		<circle class="st13" cx="218.7" cy="665.3" r="59.5"/>
	</g>
	<text transform="matrix(1 0 0 1 167.0886 670.6401)" class="st6 st1 st12">1908 - 1939</text>
	<g>
		<g>
			<g>
				<line class="st9" x1="313.7" y1="665.3" x2="316.2" y2="665.3"/>
				<line class="st10" x1="321.1" y1="665.3" x2="406.7" y2="665.3"/>
				<line class="st9" x1="409.2" y1="665.3" x2="411.7" y2="665.3"/>
			</g>
		</g>
		<circle class="st3" cx="416.8" cy="665.3" r="5.1"/>
	</g>
</g>
<g id="year4_1_">
	<path class="st3" d="M311.3,863.9c-9-35.4-37.8-63-73.9-70.2c-7.5-1.5-12.9-8.1-13.1-15.7h-11.2c-0.3,7.6-5.8,14.2-13.3,15.7
		c-44.9,9-78.4,49.4-76.6,97.4c0.8,22.1,9.6,43.5,24.4,59.9c7.2,8,15.8,14.9,25.3,20.1c27.6,15.2,56.3,16.2,84.8,3.5
		c8.7-3.9,16.9-9.1,24-15.5C308.7,935.5,320,898.7,311.3,863.9z"/>
	
		<ellipse transform="matrix(0.7071 -0.7071 0.7071 0.7071 -563.4096 414.6278)" class="st6" cx="218.8" cy="887.4" rx="90.9" ry="90.9"/>
	<g>
		
			<linearGradient id="SVGID_4_" gradientUnits="userSpaceOnUse" x1="1753.4153" y1="9.0545" x2="1837.561" y2="-75.0913" gradientTransform="matrix(-1 0 0 1 2014.1864 920.5092)">
			<stop  offset="0" style="stop-color:#FFFFFF"/>
			<stop  offset="1" style="stop-color:#EAEEF1"/>
		</linearGradient>
		<circle class="st14" cx="218.7" cy="887.5" r="59.5"/>
	</g>
	<text transform="matrix(1 0 0 1 169.0357 892.7863)" class="st6 st1 st12">1941 - 1985</text>
	<g id="year4">
		<g>
			<g>
				<line class="st9" x1="313.7" y1="887.5" x2="316.2" y2="887.5"/>
				<line class="st10" x1="321.1" y1="887.5" x2="406.7" y2="887.5"/>
				<line class="st9" x1="409.2" y1="887.5" x2="411.7" y2="887.5"/>
			</g>
		</g>
		<circle class="st3" cx="416.8" cy="887.5" r="5.1"/>
	</g>
</g>
</svg>
