<?xml version="1.0" encoding="utf-8"?>
<!-- Generator: Adobe Illustrator 25.0.1, SVG Export Plug-In . SVG Version: 6.00 Build 0)  -->
<svg version="1.1" id="Layer_1" xmlns="http://www.w3.org/2000/svg" xmlns:xlink="http://www.w3.org/1999/xlink" x="0px" y="0px"
	 viewBox="0 0 100 100" style="enable-background:new 0 0 100 100;" xml:space="preserve">
<style type="text/css">
	.st0{fill:#FFFFFF;}
</style>
<path class="st0" d="M33,33.4c-1.3-5-0.7-7.6,2.2-9.6c2.4-1.6,5.7-1.6,8,0.1c2.8,2.1,3.4,4.8,2,9.5c2.8,0,5.6,0,8.4,0
	c0.3,0,0.7-0.6,0.8-1c1.6-4.8,6.5-7.5,11.3-6c3,0.9,5,2.9,5.9,5.8c0.3,1,0.8,1.3,1.8,1.2c2.3-0.1,4.7,0,7,0c1.5,0,2.7,0.3,3.4,1.7
	c0.7,1.4,0.3,2.6-0.5,3.8c-6.7,9.9-13.3,19.8-20,29.7c-0.7,1.1-1.1,2.1-1,3.4c0.1,3.1,0,6.1,0,9.2c0,1.2-0.4,1.9-1.5,2.3
	c-4.5,1.9-9,3.9-13.5,5.9c-1.8,0.8-2.8,0.2-2.8-1.8c0-5.3,0-10.6,0-15.9c0-1.1-0.3-1.9-0.9-2.8c-6.6-9.8-13.2-19.6-19.7-29.3
	c-0.3-0.4-0.6-0.8-0.8-1.3c-1.2-2.2,0.2-4.7,2.7-4.7c2.2-0.1,4.3,0,6.5,0C32.5,33.5,32.8,33.5,33,33.4z M47.8,85.6
	c0.2,0,0.3,0,0.4-0.1c3.4-1.5,6.9-2.9,10.3-4.5c0.3-0.2,0.6-0.8,0.7-1.3c0.1-2.9,0.1-5.9,0-8.8c0-1.2,0.3-2.2,1-3.2
	c6.7-9.9,13.4-19.9,20.1-29.9c0.2-0.4,0.5-0.8,0.7-1.2c-18.4,0-36.6,0-55,0c0.8,1.2,1.6,2.2,2.2,3.3c0.5,0.8,1.1,1.1,2.1,1.1
	c10.6,0,21.2,0,31.8,0c0.4,0,0.9,0,1.3,0c0.9,0.1,1.4,0.7,1.4,1.5c0,0.9-0.5,1.4-1.4,1.6c-0.4,0.1-0.8,0-1.3,0c-9.8,0-19.6,0-29.4,0
	c-0.4,0-0.9,0-1.5,0c0.3,0.5,0.5,0.8,0.7,1.1c4.9,7.3,9.8,14.6,14.7,21.9c0.4,0.7,0.9,0.9,1.7,0.9c1.8,0,3.6,0,5.3,0
	c1,0,1.6,0.6,1.6,1.6c0,0.9-0.6,1.4-1.6,1.5c-0.5,0-1,0-1.5,0c-1.4,0-2.8,0-4.2,0C47.8,76.2,47.8,80.9,47.8,85.6z M42.9,29.7
	c0-2.1-1.6-3.8-3.7-3.8c-2.1,0-3.8,1.7-3.8,3.8c0,2,1.7,3.8,3.8,3.8C41.2,33.5,42.9,31.8,42.9,29.7z M68.6,33.5
	c-0.6-2.8-3.3-4.5-6.2-4.2c-2.4,0.3-4.7,2.3-4.6,4.2C61.3,33.5,64.9,33.5,68.6,33.5z"/>
<path class="st0" d="M65.8,15.4c0,3.9-3.1,7-7,7c-3.8,0-7-3.2-7-7c0-3.8,3.2-7.1,7.1-7C62.8,8.4,65.8,11.5,65.8,15.4z M62.7,15.4
	c0-2.1-1.7-3.8-3.8-3.8c-2.1,0-3.8,1.7-3.8,3.8c0,2.1,1.7,3.8,3.8,3.8C61,19.1,62.7,17.4,62.7,15.4z"/>
<path class="st0" d="M21.3,15.1c0-1.6,0-3.1,0-4.7c0-1.3,0.7-2,1.6-2c1,0,1.6,0.8,1.6,2.1c0,3.1,0,6.3,0,9.4c0,1.3-0.6,2-1.6,2
	c-1,0-1.6-0.7-1.6-2C21.2,18.2,21.3,16.7,21.3,15.1z"/>
<path class="st0" d="M77.5,22.2c0,1.4,0,2.7,0,4.1c0,1-0.4,1.9-1.6,1.9c-1.2,0-1.6-0.8-1.6-1.9c0-2.8,0-5.5,0-8.3
	c0-1.3,0.7-2.1,1.6-2c1.2,0.1,1.5,0.9,1.6,2C77.5,19.4,77.5,20.8,77.5,22.2z"/>
<path class="st0" d="M46.1,15.2c0,1.1,0,2.1,0,3.2c0,1-0.6,1.6-1.6,1.7c-1,0-1.5-0.6-1.6-1.5c-0.1-2.2-0.1-4.4,0-6.6
	c0-1,0.7-1.6,1.7-1.5c1,0.1,1.5,0.8,1.5,1.7C46.2,13.2,46.1,14.2,46.1,15.2C46.1,15.2,46.1,15.2,46.1,15.2z"/>
<path class="st0" d="M22.8,27.8c-1-0.1-1.5-0.6-1.5-1.6c0-0.9,0.6-1.5,1.5-1.5c0.9-0.1,1.6,0.8,1.6,1.6
	C24.4,27.2,23.7,27.8,22.8,27.8z"/>
<path class="st0" d="M75.8,14c-0.8-0.1-1.4-0.6-1.4-1.5c0-0.9,0.5-1.5,1.5-1.6c0.9-0.1,1.6,0.7,1.6,1.6C77.4,13.3,76.7,14,75.8,14z"
	/>
<path class="st0" d="M71.7,42.8c-0.1,0.9-0.6,1.5-1.6,1.5c-0.9,0-1.6-0.8-1.5-1.7c0.1-0.9,0.7-1.5,1.6-1.4
	C71.2,41.2,71.7,41.9,71.7,42.8z"/>
</svg>
