<?xml version="1.0" encoding="utf-8"?>
<!-- Generator: Adobe Illustrator 25.0.1, SVG Export Plug-In . SVG Version: 6.00 Build 0)  -->
<svg version="1.1" id="Layer_1" xmlns="http://www.w3.org/2000/svg" xmlns:xlink="http://www.w3.org/1999/xlink" x="0px" y="0px"
	 viewBox="0 0 100 100" style="enable-background:new 0 0 100 100;" xml:space="preserve">
<style type="text/css">
	.st0{fill:#FFFFFF;}
</style>
<path class="st0" d="M52.4,87c-0.7,0-1.3,0-2,0c-3-0.6-5.3-2.3-7.1-4.7c-2.1-2.6-3.5-5.5-4.6-8.6c-0.1-0.3-0.2-0.7-0.4-1
	c-0.7,0.1-1.4,0.2-2.1,0.3c-3.3,0.5-6.6,0.7-9.9,0c-5.3-1.1-8.6-4.8-8-10c0-0.2-0.2-0.5-0.3-0.6c-2-1.7-2.5-4.2-1.5-6.5
	c1-2.2,3.3-3.3,5.9-3c0.2,0,0.5-0.1,0.6-0.2c0.6-0.7,1.2-1.5,1.9-2.3c0.3-0.3,0.2-0.6,0-0.9c-0.5-0.6-1-1.2-1.5-1.8
	c-2.2-2.9-4.1-6-4.9-9.7c-1-4.9,1.2-8.8,5.9-10.5c2.2-0.8,4.5-1.1,6.9-1c2.3,0.1,4.7,0.4,7,0.6c0.7-1.7,1.4-3.5,2.3-5.2
	c2.2-4.2,4.8-7.9,9.8-9c0.7,0,1.3,0,2,0c1.6,0.3,3.1,0.9,4.4,1.9c0.1,0.1,0.5,0,0.7,0c1-0.4,2.1-0.5,3.2-0.2c3.9,1,5.3,5.5,2.8,8.6
	c-0.1,0.2-0.3,0.4-0.3,0.6c0.4,1.1,0.9,2.3,1.3,3.4c1.5-0.2,3-0.4,4.4-0.6c3.1-0.3,6.3-0.2,9.3,0.8c3.9,1.3,6.2,4.2,6.3,7.9
	c0,0.4-0.1,0.8-0.3,1.2c-0.3,0.5-0.9,0.7-1.5,0.5c-0.7-0.2-1-0.7-1.1-1.5c-0.1-2.8-1.7-4.6-4.3-5.4c-1.5-0.5-3.1-0.7-4.6-0.8
	c-2.5-0.2-4.9,0.1-7.4,0.6c0,0.1,0,0.2,0,0.2c0.6,3.4,1.3,6.7,1.9,10.1c0.1,0.3,0.3,0.6,0.5,0.7c1.5,1.3,3.1,2.5,4.6,3.7
	c1.1,0.9,2.2,2,3.3,3c0.6-0.8,1.2-1.5,1.8-2.2c0.6-0.7,1.6-0.8,2.2-0.2c0.5,0.5,0.6,1.3,0,2c-0.7,0.9-1.4,1.7-2.1,2.6
	c0.6,0.8,1.3,1.5,1.8,2.3c2,2.7,3.8,5.5,4.6,8.8c1.3,5-0.4,9.1-4.8,11.1c-0.2,0.1-0.4,0.4-0.4,0.6c-0.2,1-0.6,2-1.3,2.8
	c-2.7,3-7.5,2.1-9-1.7c-0.1-0.2-0.3-0.5-0.5-0.6c-1.2-0.2-2.3-0.4-3.5-0.6c-0.1,0.3-0.2,0.5-0.3,0.7c-0.7,1.5-1.2,3.1-2,4.6
	C60,82.3,57.4,86,52.4,87z M65.1,50c-0.1-2.4-0.2-4.8-0.4-7.2c0-0.3-0.2-0.6-0.4-0.7c-3.9-2.7-8-5.1-12.4-7.1
	c-0.3-0.1-0.7-0.1-0.9,0c-4.3,2-8.5,4.4-12.4,7.1c-0.2,0.2-0.5,0.5-0.5,0.8c-0.4,4.7-0.4,9.5,0,14.2c0,0.3,0.2,0.7,0.5,0.8
	c3.9,2.8,8.1,5.2,12.4,7.2c0.2,0.1,0.6,0.1,0.8,0c4.4-2,8.5-4.4,12.5-7.2c0.2-0.1,0.4-0.4,0.4-0.7C64.8,54.8,64.9,52.4,65.1,50z
	 M41.2,72.3c1,2.8,2.2,5.7,4.2,8.1c0.8,1,1.8,1.9,2.8,2.7c2,1.4,4.1,1.5,6.2,0.1c0.8-0.5,1.5-1.1,2.1-1.8c2.3-2.4,3.7-5.4,4.8-8.5
	c0.1-0.3,0.2-0.6,0.2-0.7c-3.3-1.2-6.6-2.4-9.8-3.6c-0.2-0.1-0.5-0.1-0.7,0C47.8,69.8,44.5,71,41.2,72.3z M37.3,30
	c-1.3-0.2-2.5-0.4-3.8-0.5c-1.2-0.1-2.4-0.2-3.6-0.1c-1.6,0.2-3.3,0.4-4.8,0.9c-3.1,1.1-4.5,3.5-3.9,6.8c0.3,1.6,0.9,3.1,1.6,4.5
	c1.1,2.3,2.6,4.2,4.1,6c2.7-2.3,5.4-4.5,8.1-6.7c0.2-0.1,0.3-0.4,0.3-0.7c0.2-1.2,0.3-2.4,0.5-3.6C36.4,34.5,36.9,32.3,37.3,30z
	 M41.2,27.7c3.3,1.2,6.6,2.4,9.8,3.6c0.3,0.1,0.7,0.1,0.9,0c2.3-0.8,4.6-1.7,6.9-2.5c0.9-0.3,1.9-0.6,2.8-0.8
	c-0.3-0.7-0.6-1.3-0.7-2c-0.2-0.7-0.5-0.9-1.3-0.8c-3.6,0.2-6.3-3-5.5-6.5c0.1-0.6,0.4-1.1,0.6-1.6c-0.1-0.1-0.2-0.2-0.3-0.2
	c-2.4-1.5-4.8-1.2-7.2,0.8C44.1,20.4,42.5,24.1,41.2,27.7z M75.7,52.2c-1.3,1.2-2.6,2.4-3.9,3.6c-1.3,1.1-2.8,2.2-4.1,3.3
	c-0.2,0.2-0.3,0.6-0.4,0.9c-0.2,1.5-0.4,3-0.7,4.5c-0.3,1.8-0.8,3.7-1.2,5.5c1,0.2,2,0.3,3,0.5c0.8-2.2,2.3-3.5,4.6-3.7
	c2.3-0.2,4,0.8,5.3,2.7c2.6-1.1,3.9-3.6,3.3-6.6C80.7,58.6,78.3,55.4,75.7,52.2z M37.4,69.9c0-0.2-0.1-0.4-0.1-0.5
	c-0.6-3.1-1.2-6.3-1.8-9.4c-0.1-0.6-0.3-1-0.8-1.3c-1.4-1.1-2.9-2.3-4.3-3.5c-1.1-1-2.2-2-3.4-3.1c-0.7,0.8-1.3,1.6-1.9,2.4
	c3.1,3.7,0.7,8.9-4,9.1c0,0.1,0,0.2,0,0.3c-0.1,2.7,1.3,4.7,4,5.7C29.2,71.1,33.2,70.6,37.4,69.9z M67.8,55.4c2-1.8,4-3.6,6-5.4
	c-2.1-1.8-4-3.6-6-5.4C67.8,48.3,67.8,51.7,67.8,55.4z M40.2,69.4c2.6-0.9,5.1-1.7,7.6-2.5c-3.2-1.8-6.1-3.5-9.3-5.3
	C39.1,64.2,39.6,66.7,40.2,69.4z M47.8,33.1c-2.6-0.8-5-1.6-7.6-2.5c-0.6,2.7-1.1,5.2-1.6,7.8C41.7,36.6,44.7,34.9,47.8,33.1z
	 M64.2,61.6c-3.2,1.8-6.1,3.5-9.3,5.3c2.6,0.8,5,1.6,7.6,2.5C63.2,66.7,63.7,64.2,64.2,61.6z M62.6,30.6c-2.6,0.9-5.1,1.7-7.6,2.5
	c3.1,1.8,6.1,3.5,9.3,5.3C63.7,35.8,63.1,33.3,62.6,30.6z M29,50c2,1.8,4,3.5,6,5.3c0-3.7,0-7.1,0-10.7C32.9,46.5,31,48.2,29,50z
	 M59.4,22.3c1.4,0,2.4-1.1,2.4-2.4c0-1.4-1.1-2.5-2.5-2.5c-1.3,0-2.4,1.1-2.4,2.5C56.9,21.2,58,22.3,59.4,22.3z M73.5,69.5
	c-1.3,0-2.4,1.1-2.4,2.4c0,1.4,1.1,2.5,2.5,2.5c1.4,0,2.4-1.1,2.4-2.5C76,70.6,74.9,69.5,73.5,69.5z M18.8,58.1
	c0,1.4,1.1,2.5,2.4,2.5c1.3,0,2.4-1.1,2.5-2.4c0-1.3-1-2.4-2.4-2.5C20,55.7,18.8,56.8,18.8,58.1z"/>
<path class="st0" d="M81.7,42.9c-0.8,0-1.4-0.6-1.4-1.4c0-0.8,0.7-1.5,1.5-1.5c0.8,0,1.4,0.7,1.4,1.5C83.1,42.3,82.5,42.9,81.7,42.9
	z"/>
<path class="st0" d="M51.4,41c5,0,9,4.1,9,9c0,5-4.1,9-9.1,9c-5,0-9-4.1-9-9.1C42.4,45,46.5,41,51.4,41z M57.5,50
	c0-3.4-2.7-6.1-6.1-6.1c-3.4,0-6.1,2.7-6.1,6.1c0,3.4,2.7,6.1,6.1,6.1C54.8,56.1,57.5,53.4,57.5,50z"/>
</svg>
