<?xml version="1.0" encoding="utf-8"?>
<!-- Generator: Adobe Illustrator 25.0.1, SVG Export Plug-In . SVG Version: 6.00 Build 0)  -->
<svg version="1.1" id="Layer_1" xmlns="http://www.w3.org/2000/svg" xmlns:xlink="http://www.w3.org/1999/xlink" x="0px" y="0px"
	 viewBox="0 0 1100 550" style="enable-background:new 0 0 1100 550;" xml:space="preserve">
<style type="text/css">
	.st0{fill:#65C4B5;}
	.st1{fill:#1D2B2D;}
	.st2{fill:#345B60;}
	.st3{fill:#18969C;}
	.st4{fill:#CFECFB;}
</style>
<g>
	<path class="st0" d="M843.4,255.4c-3.1-7.3-6.2-14-8.5-21.2c-2.4-7.6,2.3-13.9-1.3-26.8c-3.1-11.3-8.6-16.3-13.2-19.3
		c-2.1-1.4-4-2.4-5.4-3.4c-1.1-0.8-2.2-2.2-3.2-3.9c-1.3-2.2-2.6-4.8-3.5-6.7c-0.2-0.5-0.4-0.9-0.6-1.3l-6.3,1.4l-6.1,1.3
		c-0.1,3.4,0.1,10.8-1.7,13.9c-2.7,4.8-10.1,11.6-7.3,28.4c2.2,13.2,9.1,17,10.1,24.9c1.5,11.9,0.6,23.7,2.2,37.8
		c1.2,10.5,5.4,24.8,9.4,28.6c1.9,1.8,13.1,0.1,12.6-5.2c1,3.9,5.8,2.9,10,2c4.2-0.9,9-2,8.2-5.9c0.4,1.3,1.4,2,2.7,2.4
		c3.8,1.1,10.1-1.1,10.9-3c0.6-1.6,0.9-4.2,0.8-7.2c0-0.6,0-1.3-0.1-1.9c-0.1-1.3-0.2-2.7-0.4-4c-0.4-2.8-0.9-5.7-1.5-8.6
		s-1.4-5.7-2.2-8.2C847.2,264.4,845.3,259.8,843.4,255.4z"/>
	<polygon class="st0" points="801.1,173.1 808.2,171.5 808.2,171.5 807.8,169.6 800.7,171.1 793.9,172.7 794.3,174.6 	"/>
	<path class="st0" d="M806.7,168.9l-1.6-7.4c-0.2-0.9-1.1-1.5-2-1.3l-4.5,1l-4.3,0.9c-0.9,0.2-1.5,1.1-1.3,2l1.6,7.4l5.9-1.3
		L806.7,168.9z"/>
</g>
<g>
	<path class="st0" d="M908.3,230.9c-3.2-7-6.4-13.5-8.5-20.4c-2.3-7.3,3.7-13.5,0.4-26c-2.9-10.9-9.1-15.6-14.4-18.5
		c-2.4-1.3-4.6-2.2-6.2-3.1c-1.3-0.7-2.4-2.1-3.5-3.7c-1.4-2.1-2.8-4.6-3.7-6.4c-0.2-0.5-0.5-0.9-0.7-1.3l-7.7,1.5l-7.4,1.4
		c-0.4,3.3-0.7,10.6-3.1,13.6c-3.6,4.7-13,11.5-10.9,27.8c1.6,12.8,9.6,16.3,10.2,24c0.9,11.5-1.1,23.1-0.3,36.7
		c0.6,10.1,4.6,23.9,9.1,27.6c2.1,1.7,15.7-0.2,15.4-5.3c0.8,3.8,6.7,2.7,11.8,1.7c5.1-1,10.9-2.2,10.3-6c0.4,1.2,1.6,1.9,3.1,2.2
		c4.5,1,12.2-1.3,13.3-3.1c0.8-1.6,1.4-4.1,1.5-7c0-0.6,0.1-1.2,0-1.8c0-1.3-0.1-2.6-0.1-3.9c-0.2-2.7-0.6-5.5-1.2-8.3
		c-0.5-2.8-1.2-5.5-2.1-7.9C912.1,239.5,910.2,235.1,908.3,230.9z"/>
	<polygon class="st0" points="863.8,151.8 872.4,150.1 872.4,150.1 872.1,148.2 863.5,149.9 855.2,151.5 855.6,153.4 	"/>
	<path class="st0" d="M870.8,147.6l-1.4-7.2c-0.2-0.9-1.2-1.4-2.3-1.2l-5.5,1.1l-5.2,1c-1.1,0.2-1.9,1.1-1.7,2l1.4,7.2l7.1-1.4
		L870.8,147.6z"/>
</g>
<g>
	<path class="st0" d="M935.4,174c-0.4-0.8-1.4-1.2-2.2-0.9l-2.8,1.3l0,0l-5.4,2.4c-0.8,0.4-1.2,1.4-0.9,2.2l3.1,7l11.3-5L935.4,174z
		"/>
	<polygon class="st0" points="939.7,181.4 934.2,183.8 934.2,183.8 930.6,185.4 926.7,187.1 926.7,187.1 926.7,187.1 927.5,189 
		940.5,183.3 	"/>
	<path class="st0" d="M953.1,244.9c0.1-0.2,0.2-0.3,0.3-0.5c0.1-0.1,0.1-0.3,0.2-0.4c0.1-0.2,0.2-0.3,0.3-0.5
		c0.1-0.1,0.1-0.3,0.2-0.5c0.1-0.2,0.2-0.4,0.3-0.6c0.1-0.2,0.2-0.4,0.3-0.5c0.1-0.2,0.2-0.4,0.3-0.6c0.1-0.2,0.2-0.4,0.3-0.6
		c0.1-0.2,0.2-0.4,0.3-0.6c0.1-0.2,0.2-0.4,0.3-0.7c0.1-0.2,0.2-0.4,0.3-0.6c0.1-0.2,0.2-0.5,0.4-0.8c0.1-0.2,0.2-0.4,0.2-0.5
		c0.1-0.3,0.2-0.6,0.4-0.8c0.1-0.2,0.1-0.3,0.2-0.4c0.1-0.3,0.3-0.6,0.4-0.9c0-0.1,0.1-0.2,0.1-0.3c0.2-0.4,0.3-0.7,0.4-1
		c0,0,0-0.1,0-0.1c0.8-2,1.5-3.8,1.8-5l0,0l0,0c0.1-0.3,0.2-0.6,0.2-0.8c0.5-2.9,1.8-3.2,5-4.7s7.9-5.7,6.2-12.2
		c0,0-10.9,2.1-16.4,0.9c-2.6-0.6-6,1.6-9,4.1c0,0-0.1,0-0.1,0.1c-2.4,2-4.4,4.2-5.4,5.3c0,0,0,0.1-0.1,0.1
		c-0.2,0.2-0.3,0.3-0.4,0.4c0,0-0.1,0.1-0.1,0.1c0,0.1-0.1,0.1-0.1,0.1c0,0.1-0.1,0.1-0.1,0.1s-6.7-3.4-9.1-2.4
		c-2.4,1.1-4,3.4-4,3.4s2.4,9.3,5.1,12.4c2.6,3.2,6.3-3.9,8.3-4.3c0.9-0.2,4.1-1.1,8.1-6.4c0.2-0.3,0.4-0.5,0.6-0.7
		c0.9-0.9,2-1.4,2.5-1.1c0.2,0.1,0.3,0.4,0.2,0.7c0,0.2-0.1,0.6-0.3,1c-0.1,0.2-0.2,0.4-0.3,0.6c-2.1,4.4-6,5.1-8.9,8.9
		c-2.9,3.9-6.8,4.8-6.7,6.1c0.2,1.2,10.3,8.5,10.9,9.3c0.6,0.8,4.5-1.2,6.3-3.9c0.1-0.2,0.2-0.4,0.4-0.6
		C953,245.1,953.1,245,953.1,244.9z"/>
	<path class="st0" d="M937.2,219.5c0.6-0.7,1.1-1.4,1.7-2c0.2-0.2,0.4-0.4,0.6-0.6c0.4-0.4,0.9-0.8,1.3-1.2c0.3-0.2,0.5-0.4,0.7-0.6
		c0.5-0.4,1-0.7,1.5-1.1c0.2-0.2,0.5-0.3,0.7-0.5c0.7-0.4,1.3-0.9,2-1.3l0,0c2-1.3,4.1-2.6,6-4.2c0.9-0.8,15.5,3.4,18.2,1.2
		c-7.3-11.3-15.8-12.5-20.3-14.5c-3.2-1.5-7.4-7.6-9.6-10.3l-11.6,5.1c0.1,0.4,0.2,0.9,0.2,1.4s0.2,1.1,0.3,1.7
		c0.2,1.2,0.4,2.5,0.6,3.9c0.3,2.6,0.5,5.3-0.1,7c-0.4,1.3-1.1,2.8-1.8,4.5c-1.2,2.9-2.4,6.5-2.4,11.2l0,0l0,0
		c0.9-1.6,2.4-2.7,3.9-3.3c0.3-0.1,0.5-0.1,0.8-0.2c0.8-0.2,1.6-0.2,2.5,0C934.2,216.3,935.9,217.4,937.2,219.5z"/>
	<path class="st0" d="M997.5,263.9c0.3-0.7,0.5-1.5,0.7-2.2c0.1-0.4,0.2-0.8,0.2-1.1c0.3-2.2-0.1-4.2-1.9-5.2c2.3,0.9,4-0.6,5.2-2.8
		c0.5-0.9,1-1.9,1.4-2.9c0.2-0.5,0.4-1,0.6-1.5c0.1-0.2,0.2-0.5,0.3-0.7l0,0c1.5-3.8,2.9-8-0.6-9.5c5.1,1.4,8.6-9.4,7.1-11.6
		c-3.1-4.6-20-12.5-26.8-6.7c-2,1.7-5-8.5-7.5-9c-1,9.1-10.7,16.7-13.4,16.3c0.2,0.8,0.1,2.2-0.4,3.9l0,0l0,0
		c-0.1,0.5-0.2,1-0.4,1.5c-0.1,0.3-0.2,0.6-0.3,0.9c-0.1,0.3-0.2,0.6-0.3,0.9c-0.1,0.3-0.2,0.6-0.3,0.9c-0.1,0.3-0.2,0.6-0.3,0.9
		c-0.1,0.3-0.2,0.6-0.4,0.9c-0.2,0.4-0.3,0.7-0.5,1.1c-0.1,0.3-0.2,0.6-0.4,0.8c-0.3,0.6-0.5,1.2-0.8,1.8c-0.1,0.2-0.2,0.4-0.3,0.7
		c-0.2,0.4-0.4,0.8-0.6,1.2c-0.1,0.3-0.3,0.5-0.4,0.7c-0.2,0.4-0.4,0.8-0.6,1.1c-0.1,0.2-0.3,0.4-0.4,0.7c-0.2,0.4-0.5,0.8-0.7,1.2
		c-0.1,0.2-0.2,0.4-0.3,0.5c-0.3,0.5-0.7,1-1,1.5c0,0.1-0.1,0.1-0.1,0.2c-0.3,0.4-0.6,0.8-0.8,1.1c-0.1,0.1-0.2,0.2-0.3,0.3
		c-0.2,0.2-0.5,0.5-0.7,0.7c-0.1,0.1-0.2,0.2-0.3,0.3c-0.2,0.2-0.4,0.4-0.6,0.5c-0.1,0.1-0.2,0.1-0.3,0.2c-0.3,0.2-0.6,0.3-0.8,0.3
		c-0.1,0-0.2,0-0.4,0c0.2,0.1,0.4,0.2,0.7,0.2c0,0,0,0,0.1,0c0.3,0.1,0.6,0.1,1.1,0.1c0,0,0.1,0,0.1,0c0.4,0,0.9,0.1,1.4,0
		c0.1,0,0.1,0,0.2,0c0.5,0,1.1,0,1.7-0.1c0.1,0,0.1,0,0.2,0c0.6,0,1.3-0.1,2-0.2c0,0,0.1,0,0.2,0c0.7-0.1,1.5-0.2,2.2-0.3
		c0,0,0,0,0.1,0c8.8-1.4,20.8-5.3,24.2-13.4c2.7-6.2,0.1-12,1-11.6c0.8,0.3,5.4,9.2,1.2,16.2c-0.1,0.2-0.2,0.3-0.3,0.5
		c-0.2,0.3-0.4,0.6-0.7,0.9c-0.1,0.2-0.2,0.3-0.4,0.4c-0.4,0.4-0.8,0.8-1.2,1.2c-2.7,2.3-4.5,3.6-6,4.3c-0.4,0.2-0.7,0.4-1.1,0.5
		c-0.2,0.1-0.3,0.1-0.5,0.2c-0.9,0.3-1.7,0.5-2.7,0.6c0,0.3,0,0.6,0,1c0,0.3-0.1,0.8-0.3,1.2c-0.8,2.5-0.7,4.7-0.1,6.5
		c2,6,10.5,8.3,16.3,8.6c0.6,0,1.1,0,1.6,0c1,0,1.9-0.1,2.6-0.3C995,268.5,996.6,266.4,997.5,263.9z"/>
</g>
<path class="st0" d="M767.2,229.3c0,0,21.5,166.2,24.6,221.9c1.4,26.2,11.5,47.5,37.7,47.5h67.3V229.3H767.2z"/>
<g>
	<path class="st1" d="M703.2,392.5l-35.4-32.5c-4.2-3.8-10.7-3.6-14.5,0.6l-9.8,10.7l43,39.4L703.2,392.5z"/>
	<path class="st2" d="M719.3,331.8l-54.4,59.3l-21.5-19.7l-9.9,10.8c-3.8,4.2-3.6,10.7,0.6,14.5l13.9,12.8l-37.6,41.1
		c-13.6,14.9-12.6,38,2.2,51.6l8.8,8l158.2-172.5l-8.8-8C756,315.9,732.9,316.9,719.3,331.8z"/>
</g>
<path class="st3" d="M896.7,229.3H767.2l2.4,21.2h127.1v248.2h57.5c26.2,0,45.9-21.3,47.5-47.5c3.4-55.8,27.4-221.9,27.4-221.9
	H896.7z"/>
<path class="st1" d="M989.2,366.9c0,51.1-41.4,92.5-92.5,92.5s-92.5-41.4-92.5-92.5c0-51.1,41.4-92.5,92.5-92.5
	C947.8,274.5,989.2,315.9,989.2,366.9z"/>
<g>
	<g>
		<polygon class="st4" points="929,321.9 928.8,322.1 912.9,294.6 896.5,323.1 904.1,336.2 892.4,342.9 930.5,353.2 940.8,315.2 		
			"/>
	</g>
	<g>
		<g>
			<polygon class="st3" points="857.6,333.9 882.3,348 898.7,319.3 898.7,319.3 912.9,294.6 880.1,294.6 			"/>
		</g>
	</g>
	<g>
		<polygon class="st4" points="922.4,393.4 922.4,380 894.4,407.9 922.2,435.9 922.3,422.2 922.3,421.9 954,421.9 937.5,393.5 		"/>
	</g>
	<g>
		<g>
			<polygon class="st3" points="947.6,354.4 923,368.7 939.7,397.3 939.7,397.3 954.1,421.9 970.4,393.6 			"/>
		</g>
	</g>
	<g>
		<polygon class="st3" points="884.7,421.9 884.7,393.4 823.1,393.5 839.4,421.9 		"/>
	</g>
	<g>
		<polygon class="st4" points="863.5,380.6 875.1,387.4 865.1,349.2 826.9,359.2 838.7,366.1 838.9,366.2 823.1,393.5 856.1,393.4 
					"/>
	</g>
</g>
</svg>
