<?xml version="1.0" encoding="utf-8"?>
<!-- Generator: Adobe Illustrator 25.0.1, SVG Export Plug-In . SVG Version: 6.00 Build 0)  -->
<svg version="1.1" id="Layer_1" xmlns="http://www.w3.org/2000/svg" xmlns:xlink="http://www.w3.org/1999/xlink" x="0px" y="0px"
	 viewBox="0 0 73.5 44" style="enable-background:new 0 0 73.5 44;" xml:space="preserve">
<style type="text/css">
	.st0{fill:#65C4B5;}
	.st1{fill:#1D2B2D;}
	.st2{fill:#345B60;}
	.st3{fill:#18969C;}
	.st4{fill:#CFECFB;}
</style>
<g>
	<path class="st0" d="M36.6,23.6c-0.2-0.5-0.4-1-0.6-1.4c-0.2-0.5,0.2-1-0.1-1.8c-0.2-0.8-0.6-1.1-0.9-1.3c-0.1-0.1-0.3-0.2-0.4-0.2
		c-0.1-0.1-0.2-0.2-0.2-0.3c-0.1-0.2-0.2-0.3-0.2-0.5c0,0,0-0.1,0-0.1l-0.4,0.1l-0.4,0.1c0,0.2,0,0.7-0.1,1
		c-0.2,0.3-0.7,0.8-0.5,1.9c0.2,0.9,0.6,1.2,0.7,1.7c0.1,0.8,0,1.6,0.2,2.6c0.1,0.7,0.4,1.7,0.6,2c0.1,0.1,0.9,0,0.9-0.4
		c0.1,0.3,0.4,0.2,0.7,0.1s0.6-0.1,0.6-0.4c0,0.1,0.1,0.1,0.2,0.2c0.3,0.1,0.7-0.1,0.7-0.2c0-0.1,0.1-0.3,0.1-0.5c0,0,0-0.1,0-0.1
		c0-0.1,0-0.2,0-0.3c0-0.2-0.1-0.4-0.1-0.6c0-0.2-0.1-0.4-0.2-0.6C36.8,24.2,36.7,23.9,36.6,23.6z"/>
	<polygon class="st0" points="33.7,18 34.2,17.9 34.2,17.9 34.1,17.8 33.7,17.9 33.2,18 33.2,18.1 	"/>
	<path class="st0" d="M34.1,17.7L34,17.2c0-0.1-0.1-0.1-0.1-0.1l-0.3,0.1l-0.3,0.1c-0.1,0-0.1,0.1-0.1,0.1l0.1,0.5l0.4-0.1
		L34.1,17.7z"/>
</g>
<g>
	<path class="st0" d="M41,22c-0.2-0.5-0.4-0.9-0.6-1.4c-0.2-0.5,0.3-0.9,0-1.8c-0.2-0.7-0.6-1.1-1-1.3c-0.2-0.1-0.3-0.2-0.4-0.2
		c-0.1,0-0.2-0.1-0.2-0.3c-0.1-0.1-0.2-0.3-0.3-0.4c0,0,0-0.1,0-0.1L38,16.6l-0.5,0.1c0,0.2,0,0.7-0.2,0.9c-0.2,0.3-0.9,0.8-0.7,1.9
		c0.1,0.9,0.7,1.1,0.7,1.6c0.1,0.8-0.1,1.6,0,2.5c0,0.7,0.3,1.6,0.6,1.9c0.1,0.1,1.1,0,1.1-0.4c0.1,0.3,0.5,0.2,0.8,0.1
		s0.7-0.2,0.7-0.4c0,0.1,0.1,0.1,0.2,0.2c0.3,0.1,0.8-0.1,0.9-0.2c0.1-0.1,0.1-0.3,0.1-0.5c0,0,0-0.1,0-0.1c0-0.1,0-0.2,0-0.3
		c0-0.2,0-0.4-0.1-0.6c0-0.2-0.1-0.4-0.1-0.5C41.3,22.5,41.1,22.2,41,22z"/>
	<polygon class="st0" points="38,16.5 38.6,16.4 38.6,16.4 38.5,16.3 37.9,16.4 37.4,16.5 37.4,16.7 	"/>
	<path class="st0" d="M38.4,16.3l-0.1-0.5c0-0.1-0.1-0.1-0.2-0.1l-0.4,0.1l-0.4,0.1c-0.1,0-0.1,0.1-0.1,0.1l0.1,0.5l0.5-0.1
		L38.4,16.3z"/>
</g>
<g>
	<path class="st0" d="M42.9,18.1c0-0.1-0.1-0.1-0.2-0.1l-0.2,0.1l0,0l-0.4,0.2c-0.1,0-0.1,0.1-0.1,0.2l0.2,0.5l0.8-0.3L42.9,18.1z"
		/>
	<polygon class="st0" points="43.2,18.6 42.8,18.7 42.8,18.7 42.5,18.8 42.3,19 42.3,19 42.3,19 42.3,19.1 43.2,18.7 	"/>
	<path class="st0" d="M44.1,22.9C44.1,22.9,44.1,22.9,44.1,22.9C44.1,22.9,44.1,22.9,44.1,22.9C44.1,22.8,44.1,22.8,44.1,22.9
		c0.1-0.1,0.1-0.1,0.1-0.1c0,0,0,0,0,0c0,0,0,0,0,0c0,0,0,0,0,0c0,0,0,0,0,0c0,0,0,0,0,0c0,0,0,0,0,0c0,0,0,0,0,0c0,0,0,0,0-0.1
		c0,0,0,0,0,0c0,0,0,0,0-0.1c0,0,0,0,0,0c0,0,0,0,0-0.1c0,0,0,0,0,0c0,0,0,0,0-0.1v0c0.1-0.1,0.1-0.3,0.1-0.3l0,0l0,0c0,0,0,0,0-0.1
		c0-0.2,0.1-0.2,0.3-0.3s0.5-0.4,0.4-0.8c0,0-0.7,0.1-1.1,0.1c-0.2,0-0.4,0.1-0.6,0.3c0,0,0,0,0,0c-0.2,0.1-0.3,0.3-0.4,0.4
		c0,0,0,0,0,0c0,0,0,0,0,0l0,0c0,0,0,0,0,0c0,0,0,0,0,0s-0.5-0.2-0.6-0.2c-0.2,0.1-0.3,0.2-0.3,0.2s0.2,0.6,0.3,0.8
		c0.2,0.2,0.4-0.3,0.6-0.3c0.1,0,0.3-0.1,0.6-0.4c0,0,0,0,0,0c0.1-0.1,0.1-0.1,0.2-0.1c0,0,0,0,0,0c0,0,0,0,0,0.1c0,0,0,0,0,0
		c-0.1,0.3-0.4,0.3-0.6,0.6c-0.2,0.3-0.5,0.3-0.5,0.4c0,0.1,0.7,0.6,0.7,0.6C43.6,23.3,43.9,23.2,44.1,22.9C44,23,44,23,44.1,22.9
		C44.1,22.9,44.1,22.9,44.1,22.9z"/>
	<path class="st0" d="M43,21.2c0,0,0.1-0.1,0.1-0.1c0,0,0,0,0,0c0,0,0.1-0.1,0.1-0.1c0,0,0,0,0,0c0,0,0.1,0,0.1-0.1c0,0,0,0,0,0
		c0,0,0.1-0.1,0.1-0.1l0,0c0.1-0.1,0.3-0.2,0.4-0.3c0.1-0.1,1.1,0.2,1.2,0.1c-0.5-0.8-1.1-0.9-1.4-1c-0.2-0.1-0.5-0.5-0.7-0.7
		l-0.8,0.3c0,0,0,0.1,0,0.1c0,0,0,0.1,0,0.1c0,0.1,0,0.2,0,0.3c0,0.2,0,0.4,0,0.5c0,0.1-0.1,0.2-0.1,0.3c-0.1,0.2-0.2,0.4-0.2,0.8
		l0,0l0,0c0.1-0.1,0.2-0.2,0.3-0.2c0,0,0,0,0.1,0c0.1,0,0.1,0,0.2,0C42.8,21,42.9,21,43,21.2z"/>
	<path class="st0" d="M47.1,24.2c0,0,0-0.1,0-0.2c0,0,0-0.1,0-0.1c0-0.2,0-0.3-0.1-0.4c0.2,0.1,0.3,0,0.4-0.2c0-0.1,0.1-0.1,0.1-0.2
		c0,0,0-0.1,0-0.1c0,0,0,0,0,0l0,0c0.1-0.3,0.2-0.5,0-0.6c0.3,0.1,0.6-0.6,0.5-0.8c-0.2-0.3-1.4-0.9-1.8-0.5
		c-0.1,0.1-0.3-0.6-0.5-0.6c-0.1,0.6-0.7,1.1-0.9,1.1c0,0.1,0,0.2,0,0.3l0,0l0,0c0,0,0,0.1,0,0.1c0,0,0,0,0,0.1c0,0,0,0,0,0.1
		c0,0,0,0,0,0.1c0,0,0,0,0,0.1s0,0,0,0.1c0,0,0,0,0,0.1c0,0,0,0,0,0.1c0,0,0,0.1-0.1,0.1c0,0,0,0,0,0c0,0,0,0.1,0,0.1c0,0,0,0,0,0
		c0,0,0,0.1,0,0.1c0,0,0,0,0,0c0,0,0,0.1,0,0.1c0,0,0,0,0,0c0,0,0,0.1-0.1,0.1c0,0,0,0,0,0c0,0,0,0.1-0.1,0.1c0,0,0,0,0,0
		c0,0,0,0,0,0c0,0,0,0,0,0c0,0,0,0,0,0c0,0,0,0,0,0c0,0,0,0-0.1,0c0,0,0,0,0,0c0,0,0,0,0,0c0,0,0,0,0,0c0,0,0,0,0.1,0h0
		c0,0,0.1,0,0.1,0c0,0,0,0,0,0c0,0,0.1,0,0.1,0c0,0,0,0,0,0c0,0,0.1,0,0.1,0c0,0,0,0,0,0c0,0,0.1,0,0.2,0c0,0,0,0,0,0
		c0.6-0.1,1.4-0.4,1.7-0.9c0.2-0.4,0-0.8,0.1-0.8c0.1,0,0.4,0.6,0.1,1.1c0,0,0,0,0,0c0,0,0,0,0,0.1c0,0,0,0,0,0c0,0-0.1,0.1-0.1,0.1
		c-0.2,0.2-0.3,0.2-0.4,0.3c0,0,0,0-0.1,0c0,0,0,0,0,0c-0.1,0-0.1,0-0.2,0c0,0,0,0,0,0.1c0,0,0,0.1,0,0.1c-0.1,0.2,0,0.3,0,0.4
		c0.1,0.4,0.7,0.6,1.1,0.6c0,0,0.1,0,0.1,0c0.1,0,0.1,0,0.2,0C46.9,24.5,47.1,24.4,47.1,24.2z"/>
</g>
<path class="st0" d="M31.4,21.8c0,0,1.5,11.4,1.7,15.2c0.1,1.8,0.8,3.2,2.6,3.2h4.6V21.8H31.4z"/>
<g>
	<path class="st1" d="M27,33l-2.4-2.2c-0.3-0.3-0.7-0.2-1,0l-0.7,0.7l2.9,2.7L27,33z"/>
	<path class="st2" d="M28.1,28.9l-3.7,4.1l-1.5-1.3l-0.7,0.7c-0.3,0.3-0.2,0.7,0,1l1,0.9L20.6,37c-0.9,1-0.9,2.6,0.2,3.5l0.6,0.5
		l10.8-11.8l-0.6-0.5C30.6,27.8,29,27.8,28.1,28.9z"/>
</g>
<path class="st3" d="M40.2,21.8h-8.9l0.2,1.4h8.7v17h3.9c1.8,0,3.1-1.5,3.2-3.2c0.2-3.8,1.9-15.2,1.9-15.2H40.2L40.2,21.8z"/>
<path class="st1" d="M46.5,31.3c0,3.5-2.8,6.3-6.3,6.3s-6.3-2.8-6.3-6.3s2.8-6.3,6.3-6.3C43.7,24.9,46.5,27.8,46.5,31.3z"/>
<g>
	<g>
		<polygon class="st4" points="42.4,28.2 42.4,28.2 41.3,26.3 40.2,28.3 40.7,29.2 39.9,29.6 42.5,30.3 43.2,27.7 		"/>
	</g>
	<g>
		<g>
			<polygon class="st3" points="37.5,29 39.2,30 40.4,28 40.4,28 41.3,26.3 39.1,26.3 			"/>
		</g>
	</g>
	<g>
		<polygon class="st4" points="42,33.1 42,32.2 40.1,34.1 42,36 42,35 42,35 44.1,35 43,33.1 		"/>
	</g>
	<g>
		<g>
			<polygon class="st3" points="43.7,30.4 42,31.4 43.2,33.3 43.2,33.3 44.1,35 45.3,33.1 			"/>
		</g>
	</g>
	<g>
		<polygon class="st3" points="39.4,35 39.4,33.1 35.2,33.1 36.3,35 		"/>
	</g>
	<g>
		<polygon class="st4" points="37.9,32.2 38.7,32.7 38.1,30 35.4,30.7 36.3,31.2 36.3,31.2 35.2,33.1 37.4,33.1 		"/>
	</g>
</g>
</svg>
