<?xml version="1.0" encoding="utf-8"?>
<!-- Generator: Adobe Illustrator 25.0.1, SVG Export Plug-In . SVG Version: 6.00 Build 0)  -->
<svg version="1.1" id="Layer_1" xmlns="http://www.w3.org/2000/svg" xmlns:xlink="http://www.w3.org/1999/xlink" x="0px" y="0px"
	 viewBox="0 0 1100 550" style="enable-background:new 0 0 1100 550;" xml:space="preserve">
<style type="text/css">
	.st0{fill:#65C4B5;}
	.st1{fill:#569085;}
	.st2{fill:#18969C;}
	.st3{fill:#2E4866;}
	.st4{fill:#ABBAC7;}
	.st5{fill:#F6F7F8;}
	.st6{fill:#096D6D;}
	.st7{fill:#A8DFF9;}
</style>
<g>
	<polygon class="st0" points="1075.9,425.5 1062.3,488.4 1014,507.3 1020.6,458.9 960.2,314.7 1020.6,314.7 	"/>
	<polygon class="st1" points="1035.7,456.9 982.1,329.3 1011.7,329.3 1060.6,427.5 1049.7,477.6 1031.8,484.7 	"/>
	<polygon class="st2" points="1020.6,458.9 1014,507.3 701,507.3 701,452.8 1000.3,458.5 	"/>
	<polygon class="st3" points="702.5,327.2 688.7,398.6 688.7,498.3 702.5,498.3 	"/>
	<polygon class="st0" points="1020.6,458.9 1000.5,458.9 701,458.4 701,314.7 960.2,314.7 	"/>
	<polygon class="st1" points="715.5,443.9 715.5,329.3 950.5,329.3 998.7,444.3 	"/>
	<g>
		<path class="st4" d="M979,498.3c0,12.1-9.8,21.8-21.9,21.8c-12.1,0-21.9-9.8-21.9-21.8c0-12.1,9.8-21.8,21.9-21.8
			S979,486.2,979,498.3z"/>
		<path class="st3" d="M957.2,464c-18.9,0-34.3,15.3-34.3,34.3c0,18.9,15.3,34.3,34.3,34.3s34.3-15.3,34.3-34.3S976.1,464,957.2,464
			z M957.1,519.4c-11.7,0-21.1-9.5-21.1-21.1c0-11.7,9.5-21.1,21.1-21.1s21.1,9.5,21.1,21.1C978.3,509.9,968.8,519.4,957.1,519.4z"
			/>
		<path class="st5" d="M970.4,498.3c0,7.3-5.9,13.2-13.2,13.2c-7.3,0-13.2-5.9-13.2-13.2s5.9-13.2,13.2-13.2
			C964.5,485.1,970.4,491,970.4,498.3z"/>
	</g>
	<g>
		<path class="st4" d="M900.3,498.3c0,12.1-9.8,21.8-21.9,21.8c-12.1,0-21.9-9.8-21.9-21.8c0-12.1,9.8-21.8,21.9-21.8
			C890.5,476.4,900.3,486.2,900.3,498.3z"/>
		<path class="st3" d="M878.4,464c-18.9,0-34.3,15.3-34.3,34.3c0,18.9,15.3,34.3,34.3,34.3s34.3-15.3,34.3-34.3
			C912.8,479.4,897.4,464,878.4,464z M878.4,519.4c-11.7,0-21.1-9.5-21.1-21.1c0-11.7,9.5-21.1,21.1-21.1s21.1,9.5,21.1,21.1
			C899.6,509.9,890,519.4,878.4,519.4z"/>
		<path class="st5" d="M891.6,498.3c0,7.3-5.9,13.2-13.2,13.2s-13.2-5.9-13.2-13.2s5.9-13.2,13.2-13.2S891.6,491,891.6,498.3z"/>
	</g>
	<rect x="718.8" y="465.9" class="st3" width="51.9" height="33.8"/>
	<rect x="926.8" y="321.2" class="st0" width="16.9" height="131.6"/>
	<rect x="849" y="321.2" class="st0" width="16.9" height="131.6"/>
	<rect x="771.2" y="321.2" class="st0" width="16.9" height="131.6"/>
	<g>
		<polygon class="st6" points="824.8,486.4 797.2,486.4 801.5,297.4 820.6,297.4 		"/>
		<polygon class="st2" points="839.3,294.5 839.3,305.1 782.7,305.1 782.7,294.5 772.4,294.5 772.4,305.1 772.4,310.1 772.4,318.8 
			849.6,318.8 849.6,310.1 849.6,305.1 849.6,294.5 		"/>
		<rect x="807.4" y="318.8" class="st4" width="7.3" height="89.2"/>
	</g>
	
		<rect x="991.5" y="352.8" transform="matrix(0.8946 -0.4469 0.4469 0.8946 -53.1121 490.8605)" class="st0" width="44.9" height="10.5"/>
	
		<rect x="1006.9" y="392.7" transform="matrix(0.8946 -0.4469 0.4469 0.8946 -69.3246 501.9801)" class="st0" width="44.9" height="10.5"/>
	
		<rect x="1021.4" y="430.9" transform="matrix(0.8946 -0.4469 0.4469 0.8946 -84.8883 512.4688)" class="st0" width="44.9" height="10.5"/>
	<path class="st0" d="M978,314.7c0,8.3-6.8,15.1-15.1,15.1s-15.1-6.8-15.1-15.1c0-8.3,6.8-15.1,15.1-15.1S978,306.4,978,314.7z"/>
	<path class="st1" d="M970.7,314.7c0,4.2-3.5,7.8-7.8,7.8c-4.2,0-7.8-3.5-7.8-7.8c0-4.3,3.5-7.8,7.8-7.8
		C967.3,306.9,970.7,310.4,970.7,314.7z"/>
	<polygon class="st0" points="692.9,508.8 567.4,508.8 590.3,333.6 692.9,333.6 	"/>
	<polygon class="st0" points="692.9,386.5 692.9,508.8 534.8,508.8 534.8,425.5 579.7,414.4 	"/>
	<rect x="577.5" y="333.6" class="st0" width="115.4" height="15.8"/>
	<rect x="524" y="483.6" class="st4" width="43.4" height="25.1"/>
	<rect x="534.8" y="472.4" class="st3" width="15.5" height="6.5"/>
	<rect x="534.8" y="461.5" class="st3" width="15.5" height="6.5"/>
	<path class="st6" d="M559.3,453.9h-24.4V435h16.4c4.5,0,8,3.9,8,8.8V453.9z"/>
	<polygon class="st0" points="579.7,414.4 579.7,430.6 534.8,430.6 534.8,425.5 	"/>
	<g>
		<path class="st4" d="M644.3,498.3c0,12.1-9.8,21.8-21.8,21.8c-12.1,0-21.8-9.8-21.8-21.8c0-12.1,9.8-21.8,21.8-21.8
			C634.5,476.4,644.3,486.2,644.3,498.3z"/>
		<path class="st3" d="M622.5,464c-18.9,0-34.3,15.3-34.3,34.3c0,18.9,15.3,34.3,34.3,34.3s34.3-15.3,34.3-34.3
			C656.7,479.4,641.4,464,622.5,464z M622.4,519.4c-11.7,0-21.1-9.5-21.1-21.1c0-11.7,9.5-21.1,21.1-21.1c11.7,0,21.1,9.5,21.1,21.1
			C643.5,509.9,634.1,519.4,622.4,519.4z"/>
		<path class="st5" d="M635.7,498.3c0,7.3-5.9,13.2-13.2,13.2c-7.3,0-13.2-5.9-13.2-13.2s5.9-13.2,13.2-13.2
			C629.8,485.1,635.7,491,635.7,498.3z"/>
	</g>
	<polygon class="st7" points="666.6,349.5 595.5,349.5 587,415 666.6,415 	"/>
	<rect x="609.2" y="343.6" class="st6" width="7.2" height="77.7"/>
</g>
</svg>
