<?xml version="1.0" encoding="utf-8"?>
<!-- Generator: Adobe Illustrator 25.0.1, SVG Export Plug-In . SVG Version: 6.00 Build 0)  -->
<svg version="1.1" id="Layer_1" xmlns="http://www.w3.org/2000/svg" xmlns:xlink="http://www.w3.org/1999/xlink" x="0px" y="0px"
	 viewBox="0 0 73.5 44" style="enable-background:new 0 0 73.5 44;" xml:space="preserve">
<style type="text/css">
	.st0{fill:#65C4B5;}
	.st1{fill:#569085;}
	.st2{fill:#18969C;}
	.st3{fill:#2E4866;}
	.st4{fill:#ABBAC7;}
	.st5{fill:#F6F7F8;}
	.st6{fill:#096D6D;}
	.st7{fill:#A8DFF9;}
</style>
<g>
	<polygon class="st0" points="57.5,32.8 56.5,37.3 53,38.7 53.5,35.2 49.1,24.8 53.5,24.8 	"/>
	<polygon class="st1" points="54.6,35 50.7,25.9 52.8,25.9 56.4,32.9 55.6,36.5 54.3,37 	"/>
	<polygon class="st2" points="53.5,35.2 53,38.7 30.5,38.7 30.5,34.7 52,35.2 	"/>
	<polygon class="st3" points="30.6,25.7 29.6,30.8 29.6,38 30.6,38 	"/>
	<polygon class="st0" points="53.5,35.2 52,35.2 30.5,35.2 30.5,24.8 49.1,24.8 	"/>
	<polygon class="st1" points="31.5,34.1 31.5,25.9 48.4,25.9 51.9,34.1 	"/>
	<g>
		<path class="st4" d="M50.5,38c0,0.9-0.7,1.6-1.6,1.6c-0.9,0-1.6-0.7-1.6-1.6c0-0.9,0.7-1.6,1.6-1.6C49.8,36.5,50.5,37.2,50.5,38z"
			/>
		<path class="st3" d="M48.9,35.6c-1.4,0-2.5,1.1-2.5,2.5c0,1.4,1.1,2.5,2.5,2.5c1.4,0,2.5-1.1,2.5-2.5S50.3,35.6,48.9,35.6z
			 M48.9,39.5c-0.8,0-1.5-0.7-1.5-1.5c0-0.8,0.7-1.5,1.5-1.5s1.5,0.7,1.5,1.5C50.4,38.9,49.8,39.5,48.9,39.5z"/>
		<path class="st5" d="M49.9,38c0,0.5-0.4,1-1,1c-0.5,0-1-0.4-1-1s0.4-1,1-1C49.4,37.1,49.9,37.5,49.9,38z"/>
	</g>
	<g>
		<path class="st4" d="M44.8,38c0,0.9-0.7,1.6-1.6,1.6c-0.9,0-1.6-0.7-1.6-1.6c0-0.9,0.7-1.6,1.6-1.6C44.1,36.4,44.8,37.2,44.8,38z"
			/>
		<path class="st3" d="M43.2,35.6c-1.4,0-2.5,1.1-2.5,2.5c0,1.4,1.1,2.5,2.5,2.5c1.4,0,2.5-1.1,2.5-2.5
			C45.7,36.7,44.6,35.6,43.2,35.6z M43.2,39.5c-0.8,0-1.5-0.7-1.5-1.5c0-0.8,0.7-1.5,1.5-1.5c0.8,0,1.5,0.7,1.5,1.5
			C44.8,38.9,44.1,39.5,43.2,39.5z"/>
		<path class="st5" d="M44.2,38c0,0.5-0.4,1-1,1c-0.5,0-1-0.4-1-1s0.4-1,1-1C43.8,37.1,44.2,37.5,44.2,38z"/>
	</g>
	<rect x="31.8" y="35.7" class="st3" width="3.7" height="2.4"/>
	<rect x="46.7" y="25.3" class="st0" width="1.2" height="9.5"/>
	<rect x="41.1" y="25.3" class="st0" width="1.2" height="9.5"/>
	<rect x="35.5" y="25.3" class="st0" width="1.2" height="9.5"/>
	<g>
		<polygon class="st6" points="39.4,37.2 37.4,37.2 37.7,23.6 39.1,23.6 		"/>
		<polygon class="st2" points="40.4,23.4 40.4,24.1 36.4,24.1 36.4,23.4 35.6,23.4 35.6,24.1 35.6,24.5 35.6,25.1 41.2,25.1 
			41.2,24.5 41.2,24.1 41.2,23.4 		"/>
		<rect x="38.1" y="25.1" class="st4" width="0.5" height="6.4"/>
	</g>
	<rect x="51.4" y="27.5" transform="matrix(0.8946 -0.4469 0.4469 0.8946 -6.8923 26.6306)" class="st0" width="3.2" height="0.8"/>
	<rect x="52.5" y="30.4" transform="matrix(0.8946 -0.4469 0.4469 0.8946 -8.0603 27.429)" class="st0" width="3.2" height="0.8"/>
	<rect x="53.5" y="33.2" transform="matrix(0.8946 -0.4469 0.4469 0.8946 -9.1789 28.1847)" class="st0" width="3.2" height="0.8"/>
	<path class="st0" d="M50.4,24.8c0,0.6-0.5,1.1-1.1,1.1s-1.1-0.5-1.1-1.1c0-0.6,0.5-1.1,1.1-1.1S50.4,24.2,50.4,24.8z"/>
	<path class="st1" d="M49.9,24.8c0,0.3-0.3,0.6-0.6,0.6c-0.3,0-0.6-0.3-0.6-0.6c0-0.3,0.3-0.6,0.6-0.6
		C49.6,24.2,49.9,24.5,49.9,24.8z"/>
	<polygon class="st0" points="29.9,38.8 20.9,38.8 22.5,26.2 29.9,26.2 	"/>
	<polygon class="st0" points="29.9,30 29.9,38.8 18.5,38.8 18.5,32.8 21.7,32 	"/>
	<rect x="21.6" y="26.2" class="st0" width="8.3" height="1.1"/>
	<rect x="17.7" y="37" class="st4" width="3.1" height="1.8"/>
	<rect x="18.5" y="36.2" class="st3" width="1.1" height="0.5"/>
	<rect x="18.5" y="35.4" class="st3" width="1.1" height="0.5"/>
	<path class="st6" d="M20.3,34.8h-1.8v-1.4h1.2c0.3,0,0.6,0.3,0.6,0.6V34.8z"/>
	<polygon class="st0" points="21.7,32 21.7,33.1 18.5,33.1 18.5,32.8 	"/>
	<g>
		<path class="st4" d="M26.4,38c0,0.9-0.7,1.6-1.6,1.6c-0.9,0-1.6-0.7-1.6-1.6c0-0.9,0.7-1.6,1.6-1.6C25.7,36.4,26.4,37.2,26.4,38z"
			/>
		<path class="st3" d="M24.8,35.6c-1.4,0-2.5,1.1-2.5,2.5c0,1.4,1.1,2.5,2.5,2.5c1.4,0,2.5-1.1,2.5-2.5
			C27.3,36.7,26.2,35.6,24.8,35.6z M24.8,39.5c-0.8,0-1.5-0.7-1.5-1.5c0-0.8,0.7-1.5,1.5-1.5c0.8,0,1.5,0.7,1.5,1.5
			S25.7,39.5,24.8,39.5z"/>
		<path class="st5" d="M25.8,38c0,0.5-0.4,1-1,1s-1-0.4-1-1s0.4-1,1-1S25.8,37.5,25.8,38z"/>
	</g>
	<polygon class="st7" points="28,27.3 22.9,27.3 22.3,32 28,32 	"/>
	<rect x="23.9" y="26.9" class="st6" width="0.5" height="5.6"/>
</g>
</svg>
