<?xml version="1.0" encoding="utf-8"?>
<!-- Generator: Adobe Illustrator 25.0.1, SVG Export Plug-In . SVG Version: 6.00 Build 0)  -->
<svg version="1.1" id="Layer_1" xmlns="http://www.w3.org/2000/svg" xmlns:xlink="http://www.w3.org/1999/xlink" x="0px" y="0px"
	 viewBox="0 0 349.7 333.5" style="enable-background:new 0 0 349.7 333.5;" xml:space="preserve">
<style type="text/css">
	.st0{display:none;}
	.st1{display:inline;fill-rule:evenodd;clip-rule:evenodd;fill:#3B5E00;}
	.st2{display:inline;}
	.st3{fill-rule:evenodd;clip-rule:evenodd;fill:url(#SVGID_1_);}
	.st4{opacity:0.7;}
	.st5{fill-rule:evenodd;clip-rule:evenodd;fill:#A1D800;}
	.st6{opacity:0.76;}
	.st7{fill-rule:evenodd;clip-rule:evenodd;fill:#FFEC72;}
	.st8{fill-rule:evenodd;clip-rule:evenodd;fill:#DEDDFA;}
	.st9{fill-rule:evenodd;clip-rule:evenodd;fill:#C2D200;}
	.st10{fill-rule:evenodd;clip-rule:evenodd;fill:#FFFFFF;}
	.st11{fill-rule:evenodd;clip-rule:evenodd;fill:url(#SVGID_2_);}
	.st12{fill-rule:evenodd;clip-rule:evenodd;fill:url(#SVGID_3_);}
	.st13{fill-rule:evenodd;clip-rule:evenodd;fill:#3B5E00;}
	.st14{fill:#408B00;}
	.st15{opacity:0.2;fill-rule:evenodd;clip-rule:evenodd;fill:#3B5E00;enable-background:new    ;}
	.st16{fill-rule:evenodd;clip-rule:evenodd;fill:#E6E763;}
	.st17{opacity:0.29;fill-rule:evenodd;clip-rule:evenodd;fill:#3B5E00;enable-background:new    ;}
	.st18{fill-rule:evenodd;clip-rule:evenodd;fill:url(#SVGID_4_);}
	.st19{fill-rule:evenodd;clip-rule:evenodd;fill:url(#SVGID_5_);}
	.st20{opacity:0.52;fill-rule:evenodd;clip-rule:evenodd;fill:#FFFF4D;enable-background:new    ;}
	.st21{fill:url(#SVGID_6_);}
	.st22{fill-rule:evenodd;clip-rule:evenodd;fill:url(#SVGID_7_);}
	.st23{fill:url(#SVGID_8_);}
	.st24{fill-rule:evenodd;clip-rule:evenodd;fill:url(#SVGID_9_);}
	.st25{fill:url(#SVGID_10_);}
	.st26{fill-rule:evenodd;clip-rule:evenodd;fill:url(#SVGID_11_);}
	.st27{fill:url(#SVGID_12_);}
	.st28{fill-rule:evenodd;clip-rule:evenodd;fill:url(#SVGID_13_);}
	.st29{fill:url(#SVGID_14_);}
	.st30{fill-rule:evenodd;clip-rule:evenodd;fill:url(#SVGID_15_);}
	.st31{fill:url(#SVGID_16_);}
	.st32{fill-rule:evenodd;clip-rule:evenodd;fill:url(#SVGID_17_);}
	.st33{fill:url(#SVGID_18_);}
	.st34{opacity:0.52;fill-rule:evenodd;clip-rule:evenodd;fill:#FFFFFF;enable-background:new    ;}
	.st35{fill-rule:evenodd;clip-rule:evenodd;fill:url(#SVGID_19_);}
	.st36{fill:url(#SVGID_20_);}
	.st37{fill-rule:evenodd;clip-rule:evenodd;fill:url(#SVGID_21_);}
	.st38{fill:url(#SVGID_22_);}
	.st39{fill-rule:evenodd;clip-rule:evenodd;fill:url(#SVGID_23_);}
	.st40{fill:url(#SVGID_24_);}
	.st41{fill-rule:evenodd;clip-rule:evenodd;fill:url(#SVGID_25_);}
	.st42{fill:url(#SVGID_26_);}
	.st43{fill-rule:evenodd;clip-rule:evenodd;fill:url(#SVGID_27_);}
	.st44{fill:url(#SVGID_28_);}
	.st45{fill-rule:evenodd;clip-rule:evenodd;fill:url(#SVGID_29_);}
	.st46{fill:url(#SVGID_30_);}
	.st47{fill-rule:evenodd;clip-rule:evenodd;fill:url(#SVGID_31_);}
	.st48{fill:url(#SVGID_32_);}
	.st49{fill-rule:evenodd;clip-rule:evenodd;fill:url(#SVGID_33_);}
	.st50{fill:url(#SVGID_34_);}
	.st51{fill-rule:evenodd;clip-rule:evenodd;fill:url(#SVGID_35_);}
	.st52{fill-rule:evenodd;clip-rule:evenodd;fill:url(#SVGID_36_);}
	.st53{fill-rule:evenodd;clip-rule:evenodd;fill:#408B00;}
	.st54{fill-rule:evenodd;clip-rule:evenodd;fill:url(#SVGID_37_);}
	.st55{fill-rule:evenodd;clip-rule:evenodd;fill:url(#SVGID_38_);}
	.st56{fill-rule:evenodd;clip-rule:evenodd;fill:url(#SVGID_39_);}
	.st57{fill-rule:evenodd;clip-rule:evenodd;fill:#486F00;}
	.st58{fill:#3B5E00;}
	.st59{fill-rule:evenodd;clip-rule:evenodd;fill:url(#SVGID_40_);}
	.st60{fill-rule:evenodd;clip-rule:evenodd;fill:url(#SVGID_41_);}
	.st61{opacity:0.5;fill-rule:evenodd;clip-rule:evenodd;fill:#515400;enable-background:new    ;}
	.st62{fill-rule:evenodd;clip-rule:evenodd;fill:url(#SVGID_42_);}
	.st63{fill-rule:evenodd;clip-rule:evenodd;fill:url(#SVGID_43_);}
	.st64{fill-rule:evenodd;clip-rule:evenodd;fill:url(#SVGID_44_);}
	.st65{fill-rule:evenodd;clip-rule:evenodd;fill:url(#SVGID_45_);}
</style>
<g id="earth" class="st0">
	<path class="st1" d="M75.5,213.6c0,0,32.3,18.6,80.1,24.7c47.8,6.2,100,5.2,110.8,17.2s-11.2,40.2-11.2,40.2
		S109.7,255.8,75.5,213.6z"/>
	<g class="st2">
		<g>
			
				<radialGradient id="SVGID_1_" cx="131.4783" cy="-68.5034" r="157.2964" gradientTransform="matrix(1 0 0 -0.9638 0 90.3789)" gradientUnits="userSpaceOnUse">
				<stop  offset="0" style="stop-color:#C2FCFD"/>
				<stop  offset="0.832" style="stop-color:#6054FB"/>
				<stop  offset="0.9749" style="stop-color:#7FC5FF"/>
			</radialGradient>
			<path class="st3" d="M270.6,197c0,10.4-1.6,20.4-4.7,29.7c-12.5,38.5-48.7,66.3-91.4,66.3c-53.1,0-96.1-43-96.1-96.1
				c0-20.3,6.3-39.2,17.1-54.7c17.4-25,46.3-41.3,79-41.3c18.6,0,36,5.3,50.7,14.4c10.4,6.5,19.4,14.8,26.7,24.6
				C263.7,155.9,270.6,175.6,270.6,197z"/>
			<g class="st4">
				<path class="st5" d="M225.2,115.3c0,0.2-0.1,0.3-0.4,0.6c-0.4,0.4-0.9,0.6-1.3,1c-0.8,0.9-0.5,2.1-2,1.9c-0.6-0.1-1-0.4-1.6-0.6
					c-0.6-0.1-0.9,0.2-1.3,0.6c-0.8,0.7-1.7,1.7-2.1,2.6c-0.2,0.5-0.3,1.1-0.7,1.5c-0.7,0.8-1.8,1-2.7,1.6c-0.6,0.3-1.1,0.9-1.1,1.5
					c0,0.3,0.1,0.5,0,0.8c-0.1,0.5-0.3,0.9-0.3,1.4c0.1,1.4,1,3.6-0.4,4.6c-1.2,0.9-3,1.1-4.4,1.5c-1,0.2-2.1,0.7-3,1.1
					c-1,0.4-2.2,1.3-3.4,1.2c-0.9-0.1-1.4-0.8-1.9-1.4c0.1-0.3,0.4-0.5,0.7-0.7c-0.3-0.3-1.1-0.7-1.5-0.8c-0.8-0.1-2,0-2.6,0.3
					c-0.7,0.3-1.3,0.7-1.9,1.1c-0.4,0.2-1,0.3-1.4,0.5c-0.5,0.3-0.4,0.6-0.8,1c-0.3,0.4-0.7,0.6-0.9,1.1c-0.2,0.4-0.4,0.7-0.7,1
					c-0.1,0.1-0.4,0.4-0.5,0.5c-0.3,0.2-0.7,0.2-0.8,0.6c-0.3,0.9,0.3,1.3,1.1,1.1c0.8-0.1,1.8-1,2.7-0.6c0.7,0.3-0.2,1.2-0.4,1.6
					c-0.3,0.7-0.1,1.4-0.4,1.9c-0.4,0.7-1.1,1.1-1.4,1.9c-0.4,0.8-0.7,1.8-1,2.6c-0.3,0.7-0.5,1.4-1.2,1.8c-0.9,0.5-1.8,0.3-2.6,0.1
					c-1-0.2-1.9-0.3-2.9-0.3c-0.7,0-1.5-0.1-2.2,0c0,0.7-0.6,1.3-1.3,1.6c-1.1,0.5-2.3,0.6-3.4,1.3c-1.4,0.9-2.7,2-3.9,3.3
					c-1.1,1.2-2.8,2-4.5,1.6c-1.4-0.3-2.6-0.6-4-0.6c-1.7,0-3.3,0.9-4.9,1.4c-1.1,0.4-2.2,1.6-3,2.5c-0.7,0.8-1.8,2-2.8,2
					s-1.7,0.8-1.8,1.8c0,0.5,0.1,1,0,1.5c-0.3,1.1-1.4,1.9-1.9,2.9c-0.9,2,0,3.9,0.6,5.9c0.5,1.7,1.1,2.3,2.7,3.1
					c1.2,0.6,2.2,1.3,3,2.4c1,1.4,1.5,3.6,3.2,4.5c1.3,0.6,2.1,1.1,3.5,1.1c1,0,1.8,0.1,2.6-0.7c0.4-0.4,0.3-0.7,0.5-1.1
					c0.3-0.6,1.1-1,1.6-1.4c0.6-0.4,1.4-0.7,2-1.2c0.4-0.3,0.6-0.7,0.8-1.1c0.8-1.4,1.6-2.6,3.2-3.1c0.6-0.2,1-0.3,1.6-0.1
					s0.5,0.1,0.5,0.7c0,0.9,0.1,2,0,2.9c-0.1,0.4-0.2,1.1-0.5,1.3c-0.4,0.3-1.4,0.5-1.8,0.7c-1,0.3-3,0.8-2.6,2.2
					c0.2,1,0.8,2,1.9,2.2c1.5,0.3,2.8-1.2,4.4-1.1c1.5,0.1,1.2,1,1.3,2.2c0.2,2.5,1.9,4.3,2.7,6.5c0.3,0.7,0.8,1.8,0.5,2.6
					c-0.1,0.5-0.8,1.2-1.1,1.6c-0.7,1-1.6,2.1-2.7,2.7c-0.7,0.4-2.2,0.6-3,0.3c-0.9-0.3-1.7-1-2.4-1.7c-0.7-0.6-1.6-1-2.4-1.4
					s-1.3-0.2-2.1,0c-1.1,0.3-2.3,0.4-3.4,0.1c-1.2-0.3-1.7-1-2.6-1.9c-0.9-1-1.8-1.9-2.7-3c-0.7-0.9-1.5-2-2-3
					c-0.5-1.1-0.5-2.5-1.1-3.6c-0.7-1.2-2.5-0.1-3.5,0.3c-2.8,1.2-5.8,2.1-8.9,1.5c-1.4-0.3-2.1-1-3.3-1.6c-0.6-0.3-1.1-0.3-1.7-0.4
					c-1-0.2-1.9-0.6-3-0.9c-0.6-0.2-1.2-0.3-1.8-0.5c-0.8-0.3-1.5-0.8-2.2-1.3c-1.6-1.1-3.3-1.3-5.2-1.8c-1.9-0.6-3.6-2.2-5.1-3.4
					c-1.7-1.4-2.9-3-3.8-5c-0.5-1.1-0.7-2.3-1.3-3.4c-0.3-0.5-0.6-0.9-1-1.4c-0.7-1-1.2-1.9-1.9-2.9c-1-1.5-2.1-3-2.8-4.6
					c-0.9-1.9-1.2-3.7-1.5-5.7c-0.2-1.6-0.6-3.1-0.7-4.8c-0.1-1.4-0.7-3.8-2.4-4.4c-0.8,0.6-0.3,2.5-0.3,3.4c0,0.8-0.4,1.5-0.5,2.3
					c-0.2,1.2,0.3,2.3,0.8,3.3c0.4,0.9,0.9,1.8,1.2,2.7c0.3,0.9,0.1,1.7-0.3,2.6c-0.6,1.6-1.6,3.2-0.4,4.9c1,1.3,2.6,1.5,3.8,2.7
					c0.3,0.3,1,0.9,1,1.4c0,0.1-0.2,0.4-0.3,0.5c-0.2,0.4-0.2,0.7-0.2,1.1c0.2,1.5,1.4,2.7,1.4,4.3c0,1.9-4.8,0.1-5.7-0.3
					c-1.3-0.7-2.1-1.2-3.7-1.2c-1,0-2,0.3-2.9,0.5c-0.5,0.1-1.3,0.5-1.8,0.6c-0.7,0.1-1-0.3-1.4-0.9c-1-1.5-1.1-3-0.9-4.7
					c0.4-2.7,1.5-4.8,2.9-7.1c0.5-0.9,1-1.9,1.1-3c0.1-1.3-0.2-2.7-0.4-4c-0.2-1.3-0.2-2.6-0.2-3.9c0-1.4,0.5-2.5,1.1-3.7
					c0.5-1.2,1.3-2.5,0.6-3.7c-0.8-1.4-2.3-2.2-3.6-3.2c-0.1-0.1-0.2-0.2-0.4-0.3c17.4-25,46.3-41.3,79-41.3
					C193.2,100.9,210.5,106.2,225.2,115.3z"/>
				<path class="st5" d="M178.4,172.7c1-1,2.3-2.4,3.9-2.4c1.2-0.1,2.1,0.3,3.1,0.8c0.9,0.4,2,0.5,3,0.6c1.5,0.1,3.1,1.1,4,2.3
					c1,1.4,1.4,2,0.8,3.4c-0.4,0.9-0.3,1.7,0.3,2.5c0.7,0.9,1.6,1.6,2,2.6c0.2,0.6,0.4,1.7,0,2.2c-0.5,0.8-1.7,1.2-2.5,1.5
					c-1,0.4-1.8,0.7-2.9,0.5c-1.2-0.2-2.7-1-3.7-1.9c-0.7-0.7-1.8-1.5-2.2-2.3c-0.6-1-0.4-2.1-1.2-3.1c-0.8-1-2.1-1-3.2-1.6
					s-2.2-1.6-2.4-2.8C177.3,174.5,177.1,171.7,178.4,172.7z"/>
				<path class="st5" d="M194,167c-0.4,0.3-1.3,0.7-1.1,1.4c0.1,0.5,0.7,0.5,1.1,0.5c0.7,0,2.2,0.1,2.6-0.6c0.5-0.9-0.5-1.3-1-1.6
					c-0.8-0.4-1.3-0.4-1.9,0.3L194,167L194,167z"/>
				<path class="st5" d="M270.6,197c0,10.4-1.6,20.4-4.7,29.7c-0.6,0.3-1.2,0.1-1.5-0.7c-0.4-1.1-0.5-2.3-0.7-3.4
					c-0.3-1.4-0.6-2.7-1.1-4.1c-0.7-1.8-1.1-3.4-1.4-5.2c-0.2-1.5-0.1-3-0.1-4.6c0-2.4,0.2-4.7-0.5-6.9c-0.4-1.2-1.3-2.4-2.1-3.4
					s-1.3-2-2-3c-0.6-0.9-1.5-2.1-1.2-3.3c0.2-1.2,1.2-1.9,1.7-2.9c0.4-0.9,0.5-2,0.2-3c-0.2-0.8-0.7-1.4-0.9-2.2
					c-0.1-0.5-0.1-1.3,0-1.7c0.1-0.6,0.4-0.8-0.2-1.2c-1.1-0.8-2.1,0.4-3,0.9c-0.4,0.2-0.9,0.6-1.3,0.6c-0.6,0.1-0.6-0.6-0.9-1.1
					c-0.4-0.8-1-1.5-1.5-2.3s-1.2-1.1-1.9-1.7c-0.8-0.7-1.6-1-1.8-2.2c-0.2-0.8-0.2-1.9,0.3-2.5c1.6-2.5,3.4-5.1,3.9-8.1
					c0.3-1.6,0.5-3.2,0.3-4.9c-0.2-1.3-0.3-2.7-0.8-3.9c-1.1-2.6-2.6-5.4-1.8-8.2c0.4-1.4,1.2-2.5,1.9-3.9c0.7-1.3,1.7-2.5,2.4-3.9
					C263.7,155.9,270.6,175.6,270.6,197z"/>
				<path class="st5" d="M183.5,199.9c-0.8,0.9-2.2,2-2.4,3.2c-0.3,1.2,0.4,2.4,0.8,3.6c0.6,1.9-0.5,4.1,0.6,5.9
					c0.7,1,1.4,1.9,2,2.9s0.9,2.1,1,3.3c0.1,1.7-0.5,3.3-0.3,4.9c0.2,1.8,0.8,3.6,1.3,5.3c0.3,1,0.6,2.1,1.1,3.1
					c0.4,0.7,0.9,1.5,1.3,2.2c1,1.5,2.4,3.1,3.8,4.2c1.3,1.1,2.9,2.1,4.5,2.5c0.7,0.2,1.5,0.2,2.2,0.6c0.6,0.2,0.9,0.6,1.4,1
					c0.9,0.7,2,1.1,2.8,2c0.6,0.7,0.7,1.7,1,2.5c0.4,1,1.3,1.8,1.5,2.8c0.1,0.3,0.3,0.7,0.3,0.9c0,0.3-0.2,0.7-0.3,1
					c-0.7,2.4,1.6,3.8,2.4,5.8c0.4,1-0.1,1.7-0.3,2.7c-0.1,0.5,0,0.9,0,1.4c-0.1,0.7-0.3,1.3-0.3,2.1c0,0.8,0.2,1.7,0.4,2.4
					c0.2,0.8,0.2,1.8,0.4,2.6c0.4,2.2-1.6,3.5-1.6,5.6c0,1.1,0.1,2.3-0.1,3.4c-0.1,0.4-0.2,0.7-0.3,1.1c-0.2,0.7-0.5,0.9-1.1,1.3
					c-1,0.8-2.5,2.7-2,4c0.1,0.4,0.5,0.9,0.9,1c0.6,0.1,1.4,0,2,0c0.9,0,1.6-0.4,2.3-0.8c1-0.5,2-1,3.1-1.5s2.2-1,3.1-1.9
					c0.9-0.9,1.6-1.9,2.5-2.8c0.4-0.4,0.9-1,1.5-1.2c0.4-0.1,0.7-0.1,1.1-0.3c1.6-0.6,2.9-1.8,4.3-2.8c2-1.4,4.3-2.4,6.2-4
					c1.5-1.2,2.3-2.9,3.1-4.6s1.6-3.3,2.5-4.9c0.3-0.5,0.7-1.1,1-1.6s0.7-0.5,1.2-0.7c0.9-0.4,1.7-1,2.5-1.5
					c0.9-0.5,1.8-0.9,2.7-1.5c1.3-0.8,2.6-1.6,3.3-3c0.2-0.4,0.3-1,0.6-1.4c0.3-0.5,0.6-0.5,1.1-0.6c0.3-0.1,1-0.4,1.2-0.6
					c0.4-0.4,0.4-0.9,0.6-1.4c0.3-1.1,1.2-2.2,2.1-3c0.7-0.7,1.1-1.7,1.7-2.5c0.8-1.1,1.6-2.1,2.3-3.3c1.3-2.3,2.6-4.6,2.3-7.3
					c-0.2-1.6-0.7-2.9-1.7-4s-2.4-1.4-3.1-2.7c-0.9-1.6-1-3.5-1.7-5.2c-0.5-1.2-1.9-2-3-2.7c-0.9-0.6-2.1-0.7-3.2-0.5
					c-0.7,0.2-1.5,0.5-2.1,0s-1.1-1.2-1.7-1.6c-0.9-0.7-1.8-1.4-2.6-2.2c-0.8-0.7-1.3-1.8-2.2-2.5c-0.6-0.4-1-0.4-1.7-0.4
					c-1.1-0.1-2.5-0.6-3.4-1.1c-2.1-1-4-2.5-5.6-4.2c-1.5-1.6-2.7-3.3-4.4-4.7c-1.9-1.6-4.1-2.5-6.4-3.2c-2.5-0.9-5.1,0.4-7.6,0
					c-1.8-0.3-3.4-1.2-5.2-1.5c-2.6-0.5-5.1-0.2-7.6,0.8c-1.7,0.7-2.9,1.8-4.5,2.6c-1,0.5-2.3,1.2-3.5,1.1c-0.7,0-1.3-0.2-2-0.2
					s-1.2-0.1-1.8-0.2C183.6,199.3,181.9,199,183.5,199.9z"/>
			</g>
			<g class="st6">
				<path class="st7" d="M97.1,168.8c-0.6,0.7-1.5,1.9-1.2,2.9c0.2,0.7,0.8,1.4,1.6,1.6c0.6,0.2,1.5,0,2.1-0.2
					c0.4-0.1,0.7-0.3,1.2-0.3c0.6,0,0.7,0.2,1.1,0.5c0.2,0.1,0.3,0.1,0.5,0.2c0.2,0.2,0.3,0.4,0.6,0.6c0.5,0.3,1,0.3,1.6,0.3
					c1,0,2.2,0.4,3.2,0.2c0.6-0.1,0.8-0.7,0.7-1.3c-0.1-0.6-0.5-1-0.8-1.6c-0.2-0.4-0.4-0.8-0.7-1.2c-0.5-0.8-1.6-1.2-2.4-1.5
					c-0.9-0.3-1.5-0.5-1.5-1.5c0-0.7,0-1.5,0-2.2c0-0.5-0.1-1-0.2-1.5s0.2-0.6,0.3-0.9c0.1-0.3,0.2-0.6,0.3-0.9
					c0.2-0.4,0.4-0.7,0.4-1.1c0.1-1-0.2-2.1-0.6-3c-0.3-0.6-0.8-1.1-1-1.8s-0.2-1.4-0.2-2.2s0-1.4,0.4-2.1c0.2-0.5,0.5-1,0.5-1.6
					c0-0.4,0-1-0.1-1.4c-0.2-0.6-0.2-1.2-0.4-1.9c-0.2-1,0.2-2.2,1.2-2.6c0.4-0.2,1-0.2,1.4-0.1c0.3,0.1,0.6,0.3,0.9,0.5
					s0.6,0.3,0.8,0.6c0.7,0.9,0.7,2.2,1,3.2c0.5,1.7,1.9,2.4,3.4,3c0.8,0.3,1.5,0.8,2.3,1.1s1.7,0.6,2.4,1.1
					c0.5,0.4,0.8,0.9,0.9,1.6c0.1,0.9-0.4,1.7-0.8,2.4c-0.7,1.6-1.1,3.6-0.4,5.3c0.3,0.9,0.9,1.5,1.3,2.4s0.7,1.7,1.2,2.5
					c0.5,0.7,0.7,1.4,1.2,2.1c0.3,0.4,0.8,0.7,1.2,1c0.3,0.2,0.7,0.4,1.1,0.6c0.6,0.2,1.3,0.2,1.9,0.5c0.5,0.3,0.8,0.6,1.1,1
					c0.4,0.5,0.9,0.7,1.3,1.2c0.9,1,2.2,1.2,3.6,1.2c0.8,0,1.4-0.2,2.1-0.2s1.3-0.2,2-0.2c0.9,0,1.6,0.1,2.4,0.2
					c1.6,0.3,3.5,1.1,5.1,0.5c1.2-0.5,2.3-1.4,3-2.5c0.3-0.4,0.5-0.8,0.7-1.3c0.3-0.6,0.8-0.9,1.1-1.4c0.3-0.5,0.4-1.3,0.5-1.9
					c0.2-1,0.3-2,0.8-2.9c0.4-0.8,1.1-1.3,1.7-1.9c0.4-0.4,0.6-0.7,0.9-1.2c0.4-0.6,0.7-1.3,1.1-2c0.7-1.1,1.8-1.9,3-2.5
					c2.6-1.3,5.9-2,7.3-4.8c0.4-0.9,0.7-2,0.9-2.9c0.2-1,0.3-2.1,0.4-3.1c0-0.6,0-1.3,0-1.9c0-0.6,0.1-1.2-0.1-1.7
					c-0.2-0.6-0.8-1.3-1.2-1.7c-0.5-0.5-0.9-1-1.5-1.4c-0.4-0.3-0.9-0.5-1.3-0.7c-0.5-0.2-1-0.1-1.5-0.1c-0.7,0-1.1,0.1-1.7,0.5
					c-0.4,0.3-0.8,0.8-1.3,1c-0.6,0.3-1,0.2-1.6,0c-0.7-0.2-1.5-0.4-2.3-0.5s-1.5,0.2-2.2,0.5c-0.7,0.4-0.9,0.9-0.9,1.7s0,1.6,0,2.4
					c0,0.9,0.4,1.9,0.7,2.8c0.2,0.6,0.4,1.1,0.7,1.7c0.2,0.4,0.3,0.8,0.9,0.7c0.3-0.1,0.4-0.4,0.7-0.5c0.5-0.1,0.4,0,0.7,0.3
					c0.2,0.2,0.5,0.3,0.7,0.4c0.2,0.1,0.3,0.2,0.5,0.3c0.6,0.2,1.6,0.4,2.3,0.1c0.5-0.2,0.7-0.5,0.9-0.9c0.1-0.3,0-0.7,0.1-0.9
					c0.3-0.7,1.7-0.3,2,0.2c0.4,0.6-0.4,1.7-0.6,2.3c-0.1,0.6-0.2,1.1-0.6,1.6c-0.1,0.2-0.2,0.4-0.4,0.5c-0.3,0.4-0.5,0.3-0.9,0.5
					c-1,0.5-1.8,1.3-2.7,2c-0.7,0.6-1.2,1.1-2,1.3c-0.6,0.1-1.3,0.3-2,0.4c-0.8,0.2-1.6,0.4-2.4,0.8c-0.6,0.3-1.1,0.9-1.7,1.2
					c-0.7,0.2-1.6-0.1-2.2-0.4c-0.9-0.5-1.7-1.4-2.3-2.3c-0.5-0.7-1-1.2-1.3-2c-0.1-0.4-0.4-0.9-0.5-1.3c-0.1-0.4,0-0.8,0-1.2
					c0-0.5-0.1-1.1-0.4-1.6c-0.5-0.8-1.3-1-2.1-1.3c-1.6-0.5-3.1-1.4-3.6-3.2c-0.2-1-0.2-1.8,0-2.8c0.1-0.5,0.2-1,0.4-1.5
					c0.2-0.8,0.2-1.6,0.3-2.5c0.2-1.2,0-2.5,0.1-3.7c0.2-1.4,0.7-2.8,1.6-3.8s2-1.8,2.7-3c0.6-1.2,0.6-3,0.6-4.4s-0.2-2.9-0.5-4.3
					c-0.3-1.2-0.7-2.3-1.8-2.9c-0.4-0.2-1.1-0.5-1.6-0.5c-0.6,0-1.1,0.3-1.7,0.5c-0.7,0.2-1.2,0.2-2,0.1c-0.8-0.1-1.6-0.3-2.4-0.2
					c-0.9,0.1-1.7,0.6-2.4,1c-0.5,0.3-1,0.7-1.5,1.1c-0.8,0.6-1.7,1.2-2.5,1.8c-2.1,1.6-4.8,2.5-6.6,4.5c-0.7,0.8-1.2,1.6-1.8,2.5
					c-0.8,1.3-2.2,2.1-3.4,2.9c-1.1,0.7-2.1,1.6-3.1,2.4c-1.1,0.9-2,2-3.2,2.9c-1.1,0.9-2.5,1.9-3.1,3.3c-0.2,0.4-0.1,0.8-0.2,1.2
					c-0.1,0.3-0.2,0.5-0.2,0.8c0,0.2,0.1,0.3,0.2,0.5c0.1,0.6,0.1,1.1,0.3,1.7c0.1,0.3,0.1,0.5,0.2,0.8c0.1,0.4,0.4,0.8,0.6,1.2
					c0.2,0.5,0.4,1.2,0.4,1.8c0,0.5-0.3,1.1-0.4,1.6c-0.2,0.6-0.4,1.3-0.7,1.9c-0.4,1.1-0.4,2.3-0.6,3.5c-0.2,0.9,0,1.6,0.1,2.5
					c0.1,0.6,0.1,1.2,0.2,1.8c0.1,0.5-0.3,2.4,0.6,2.3c0.4-0.1,0.3-0.5,0.7-0.4c0.4,0.1,0.4,0.6,0.3,0.9c-0.1,0.7-0.1,1.4-0.1,2.2
					c0,0.4,0,0.8-0.6,0.7c-0.4,0-0.6-0.5-1-0.4c-0.5,0.1-0.7,0.9-0.9,1.3c-0.3,0.5-0.4,1.1-0.7,1.6c-0.2,0.4-0.6,0.7-0.9,1.1
					C96.3,169.6,96.2,170.1,97.1,168.8z"/>
				<path class="st7" d="M189.7,106.1c-0.4,0.4-1.1,1.1-1.7,1.3c-0.4,0.1-0.8,0-1.2,0c-1.5,0.1-2.9,0.4-4.4,0.5
					c-2.3,0.2-8.1,1.9-5.9,5.1c0.3,0.5,0.8,1,1.2,1.4c0.6,0.5,0.6,0.8,0.6,1.6c0,1.2,0.3,2.2,0.8,3.2c-0.8,0.9-2.3,1.1-2.8,2.4
					c-0.4,1.1-0.1,2.5-0.7,3.6c-0.6,1-1.3,1.6-1,2.9c0.2,0.8,1.3,1.3,1.6,2.1c0.3,1-0.3,1.7-1,2.2c-0.9,0.6-2,1-2.9,1.6
					c-1.1,0.7-1.7,1.9-2.2,3c-0.6,1.3-1.2,2.4-1.3,3.8c-0.1,0.6-0.2,1.5,0,2.1c0.3,1,1,1.2,1.8,0.8c0.5,0.6,1,1.1,1.4,1.9
					c0.4,0.9,0.6,1.2,1.5,0.8c0.8-0.4,1.7-0.2,2.6-0.3c1.1,0,2.7-0.3,3.7-0.9c1-0.6,1.8-1.5,3-2s2.6-0.7,2.7-2.3
					c0.1-1.1-0.3-2.3,0.3-3.2c0.8-1.2,2.3-1.5,3.4-2.2c0.7-0.4,1.5-0.7,2.2-1.1c0.6-0.4,1.2-0.9,1.8-1.2c1.2-0.6,2.1-1.1,3.4-0.6
					c0.9,0.4,1.9,0.8,2.9,1c1.6,0.4,3.5-0.3,4.8-1.2c1.2-0.8,1.3-2.8,1.6-4.1c0.4-1.6,1-3.2,1.9-4.5c1.1-1.7,2.8-2.7,4.1-4.2
					c1-1.1,2.3-2.4,3-3.7c2.4-4.4-5.5-5.3-8.1-5.6c-0.8-0.1-1.6-0.1-2.3-0.3c-1.2-0.2-2.4-0.7-3.6-1.1c-2-0.6-3.9-1.6-5.9-2.3
					c-1-0.3-2.2-0.5-3.3-0.5C190.4,106.1,189.5,106.1,189.7,106.1z"/>
				<path class="st8" d="M169.2,132c-0.5,0.8-0.7,1.6-1.6,2c-0.6,0.3-0.8,0-1.4-0.1s-1.5,0-1.8-0.6c-0.2-0.4-0.1-1.6,0-2
					c0.1-0.7,1.1-3.8,2.3-2.3c0.4,0.5,0.6,1.6,0.9,2.2c0.2,0.3,0.4,0.7,0.6,1c0.2,0.2,0.4,0.3,0.5,0.6L169.2,132z"/>
				<path class="st7" d="M184.3,202.1c-0.6,0.7-1.3,1.3-1.4,2.1c-0.1,0.6-0.2,0.9-0.3,1.5c0,1.1-0.2,2.5,0.2,3.5
					c0.4,0.9,0.8,1.8,0.8,2.8c0,1.3,1.1,2,2.1,2.8c0.3,0.2,0.5,0.2,0.6,0.6c0.1,0.2,0.2,0.7,0.2,1c0.2,0.8-0.3,1.4-0.5,2.2
					c-0.1,0.7,0,1.5,0,2.3c0,0.9,0.3,1.5,0.6,2.3c0.6,1.6,0.5,3.2,0.9,4.8c0.4,1.9,1.1,3.6,2.4,5c0.7,0.9,1.6,1.5,2.6,2.1
					c0.8,0.5,1.5,0.9,1.9,1.8c0.5,0.9,0.8,1.9,1.8,2.3c1.4,0.5,3,0.7,4.3,1.6c0.7,0.5,1.5,0.8,2.1,1.4c0.4,0.4,0.8,0.7,1.3,1
					c0.7,0.5,1.3,1,1.9,1.6c0.7,0.8,1.3,1.9,1.9,2.8c0.2,0.4,0.6,0.7,0.8,1.1c0.3,0.5,0,1-0.1,1.4c-0.3,1.3,0,2.5,1,3.3
					c0.5,0.4,0.8,0.6,1.2,1.1s0.8,0.9,1.2,1.4c0.6,0.9,1.1,2,1.3,3c0.2,0.9-0.2,1.8-0.4,2.7c-0.2,0.5-0.4,1.1-0.5,1.6
					c-0.2,0.7-0.1,1.4-0.1,2.1s-0.3,1.4-0.3,2.1s0,1.4,0,2c0,1.2-0.5,2.2-1,3.2c-0.2,0.5-0.5,0.9-0.6,1.4c-0.2,0.6-0.2,1.1-0.3,1.7
					c-0.1,0.5-0.6,1.6,0.2,1.7c0.6-0.5,0.9-1.2,1.4-1.8c0.6-0.7,1.5-1.3,2.2-1.9c2-1.5,4.7-2.4,5.9-4.8c0.6-1.3,0.5-2.4,0.3-3.7
					c-0.2-1.4,1.2-2.2,2.2-2.9c1.1-0.7,2.3-1,3.4-1.5c1.6-0.7,3.6-1.7,4.7-3.1c0.6-0.7,1.1-1.9,1.2-2.8c0.1-0.6,0-0.9,0.2-1.4
					c0.2-0.4,0.4-0.8,0.6-1.2c0.4-0.6,0.7-1.1,0.8-1.8c0.1-1-0.6-2.5-1.1-3.3c-0.8-1.2-1.5-2.1-2.7-3c-1.3-1-2.2-2.7-3.9-3
					c-0.9-0.2-2.5,0-3,0.9c-0.3,0.4-0.1,0.8-0.1,1.2c-0.1,0.7-0.6,0.7-1.1,1.1c-1.1,0.9-2.8,1.8-2.9,3.4c-0.1,1.6,1.7,2.1,3,2.2
					s2.3-0.7,3.4,0.1c0.8,0.6,1.4,1.6,1.5,2.6c0,0.4,0,0.5,0.2,0.9s0.4,0.4,0.6,0.9c0.4,1.5-1.4,2.4-2.4,3s-2.2,1.6-3.4,1.1
					c-1.6-0.7-2.7-2.4-3.8-3.6c-0.7-0.8-1.7-1.3-2.4-2.1c-0.9-1-1.2-2.2-1.7-3.5c-0.4-1.1-1-2-1-3.2c-0.1-2,1.8-3.5,2.8-5.2
					c0.6-1,0.8-1.5,0.7-2.6c0-0.9-0.1-1.4-0.5-2.2c-0.2-0.3-0.7-0.9-0.8-1.2c-0.1-0.6,0.4-1,0.6-1.5c0.8-1.5,0.9-3.5,0.4-5.1
					c-0.6-1.9-1.8-2.8-3.1-4.2c-0.7-0.7-0.8-1.7-1.2-2.6c-0.6-1.3-1.7-1.9-2.7-2.9c-0.7-0.6-1.4-1.5-0.9-2.4
					c0.7-1.3,2.6-1.7,3.7-2.4c1.2-0.8,2.3-2,3.2-3.1c0.7-0.9,0.7-2.1,0.3-3.2c-0.6-1.9-2.4-3-3.6-4.3c-0.7-0.7-1.1-1.5-1.7-2.2
					c-1.1-1.4-2.7-1.3-4.3-1.6c-1.3-0.2-2.6-0.9-3.9-0.9c-0.8,0-1.5,0.6-2.2,0.9c-1.7,0.8-3.2,1.3-5.1,1.4c-2,0.2-4,0.3-6,0.6
					c-1.1,0.1-2.2,0.3-3.3,0.5C184.4,202.1,183.6,202.4,184.3,202.1z"/>
				<path class="st8" d="M221.8,205.8c-0.7,0.2-1.3,0.6-1.7,1.1c0.2,0.8,0.7,1.3,1.3,1.9c0.8,0.8,1.2,2,2.1,2.8
					c0.9,0.8,2.8,1.1,3.3-0.4c0.3-1.2-1.2-2.3-1.6-3.2c-0.3-0.7-0.4-1.1-1-1.6c-0.2-0.2-0.2-0.4-0.6-0.5c-0.5-0.1-0.6,0.2-1.1,0.2
					L221.8,205.8z"/>
				<path class="st7" d="M252.8,142c-0.8,1.4-2.1,2.4-2.7,3.9c-0.5,1.1-1.2,2.7-0.6,3.9c0.4,1,0.7,2,0.9,3.1c0.2,1,0.6,1.8,1.1,2.7
					c0.5,1.1,0.2,2.4,0.5,3.6c0.3,1.4,0.9,2.9,0.9,4.3c0,1.2-0.9,2.5-1.3,3.6c-0.2,0.5-0.4,1-0.7,1.5c-0.2,0.4-0.6,0.8-0.8,1.2
					s-0.2,0.7-0.3,1.1c-0.1,0.5-0.5,0.8-0.5,1.3s0.3,1.1,0.5,1.6c0.3,0.7,0.7,2.3,1.4,2.7c0.3,0.2,0.8,0,1.1,0
					c0.5,0.1,0.8,0.3,1.3,0.5c0.4,0.2,0.8,0.4,1.3,0.3c0.5-0.1,0.9-0.5,1.5-0.6c1.1-0.2,1.6,0.5,2.2,1.4c0.7,1,1.3,2,2,3
					c0.5,0.7,1.4,1.2,2.2,0.6c1-0.7,0.8-2.2,0.8-3.3c0-1-0.2-1.5-0.5-2.5c-0.1-0.5-0.1-0.9-0.4-1.3c-0.4-0.6-0.6-1-0.8-1.7
					c-0.1-0.5-0.3-1-0.5-1.6c-0.1-0.5-0.5-0.8,0-1.2c0.3-0.2,0.7-0.3,1-0.1c1.3,0.6,1.3,2.7,1.4,3.8c0.3,1.7,0.7,3.3,0.9,5
					c0.1,0.8,0.1,1.6,0.1,2.4c0,1.3,0.2,2.4,0.6,3.7c0.4,1.4,1,3.5,2.1,4.6c0.6,0.6,1.4,1,1.9,0c0.3-0.7,0.4-1.8,0.3-2.5
					c0-0.3-0.2-0.5-0.3-0.8c-0.1-0.4,0-1.1,0-1.5c0-0.5-0.1-0.8-0.2-1.2c-0.1-0.5,0-0.9-0.1-1.3c-0.1-0.4-0.2-0.6-0.2-1.1
					c0-0.7-0.2-1-0.3-1.6c-0.1-0.4,0-0.7,0-1.1c-0.1-0.6-0.4-1.3-0.5-2c-0.3-1.3-0.9-2.5-1.2-3.8c-0.8-2.8-2.5-5.3-3.5-8.1
					c-0.4-1.1-0.6-3.2-1.6-4c-0.8-0.7-1.9-0.1-2.6,0.5c-0.6,0.5-0.9,1.1-1.8,0.8c-0.9-0.3-1.8-1.8-2.3-2.6c-0.4-0.7-0.6-1.5-0.9-2.3
					c-0.1-0.3-0.5-1.8-0.2-2c0.8-0.7,2.3,1.8,3.2,1.2c0.4-0.3,0.3-1.3,0.3-1.8c-0.1-0.9-0.3-2.1-0.6-2.9c-0.3-0.9-0.7-1.9-1.2-2.7
					c-0.6-1.1-0.9-2.1-1.3-3.2c-0.2-0.6-0.8-1.6-1.3-2c-0.3-0.2-0.6-0.2-0.9-0.4C252.1,143,252.2,142.6,252.8,142z"/>
				<path class="st8" d="M87.3,231.4c0.4,0.7,0.7,1.2,1,1.9c0.2,0.5,0.4,1.1,0.6,1.6c0.5,1.3,1.4,2.4,2.1,3.7
					c0.7,1.2,1.5,2.5,1.9,3.9c0.2,0.9,0.4,1.7,0.9,2.5c0.2,0.4,0.6,0.7,0.8,1.1c0.3,0.5,0.2,0.9,0.6,1.4c0.2,0.3,0.6,0.5,0.8,0.8
					c0.2,0.3,0.4,0.7,0.6,1c0.5,0.7,1.1,1.5,1.8,2.1c0.5,0.5,1.1,1,1.6,1.5c0.6,0.7,1.3,1.3,1.8,2c2,2.9,4.2,6,6.6,8.6
					c1.5,1.6,3,3.4,4.7,4.9c0.8,0.7,1.7,1.5,2.6,2.1c1,0.6,1.8,1.4,2.7,2.1c0.4,0.3,0.8,0.4,1.2,0.6c0.3,0.2,0.5,0.5,0.7,0.8
					c0.7,0.6,1.5,1,2.2,1.6c1.1,0.9,2.6,1.5,3.8,2.2c1.4,0.9,2.6,2.1,4,3c1.4,0.8,2.6,1.7,4,2.4c2,1,4.1,1.5,6.3,2.2
					c2.5,0.8,5.1,1.2,7.6,1.8c1.2,0.3,2.4,0.7,3.6,0.9c1.6,0.3,3.1,0.3,4.7,0.6c1.1,0.2,2.3,0.4,3.4,0.6c1.2,0.2,2.4,0.1,3.6,0.4
					c0.9,0.2,1.8,0.3,2.8,0.4c1.4,0.2,2.8,0.7,4.2,0.8c2,0.1,4.1,0.6,6.2,0.5c2.4,0,4.8,0,7.2,0c2.1,0,4.3-0.4,6.3-0.9
					c1.2-0.3,2.5-0.6,3.7-1c0.9-0.2,1.8-0.7,2.8-0.8c2.1-0.3,4.1-0.9,6.1-1.5c1.8-0.5,3.8-1,5.5-1.9c0.3-0.2,2.5-0.8,1.5-1.3
					c-0.4-0.2-0.8,0.2-1.1,0.2c-0.8,0.2-1.8,0.3-2.7,0.3c-0.5,0-0.9,0-1.4,0c-0.6,0-0.7-0.2-1.3-0.3c-0.5-0.1-1.1,0.2-1.6,0.4
					c-0.6,0.2-1.3,0.5-2,0.6c-2.7,0.6-5.4,0.3-8.1-0.4c-1.4-0.4-2.6-1-3.9-0.2c-0.6,0.4-1.3,1-1.6,1.7c-0.3,0.8,0.1,1.7-0.9,2.2
					c-0.4,0.2-0.9,0.2-1.3,0.2c-1.3-0.1-2.6-0.5-3.9-0.6c-1.7-0.1-3-0.3-4.7,0c-1.8,0.4-3.4,0.6-5.2,0.6c-1.7-0.1-3.5-0.8-4.6-2.1
					c-0.3-0.4-1-1.4-1-2c0-0.5,0.3-0.7,0.8-1c1.2-0.7,1.9,0.3,3.1,0.5c1.1,0.2,2.4,0,3.5,0s2,0.1,3.1,0.3c0.3,0,0.5,0.2,0.8,0.3
					c0.5,0.1,1.2,0,1.6,0c1,0,1.4-0.5,1.8-1.3c0.6-1.1,2-2.1,1.2-3.4c-0.7-1.1-1.8-2.4-3-3c-0.6-0.3-1.3-0.4-2-0.7
					c-0.6-0.3-1.2-0.7-1.7-1.2c-1.3-1.1-2-2.5-2.7-4.1c-0.9-1.7-1.8-3.5-2.9-5.1s-2-3.3-3.5-4.5c-2.4-2-5.5-2.5-8.4-2.5
					c-1.6,0-3.2,0.1-4.8-0.1c-1.8-0.2-3.6-0.5-5.5-0.5c-1.6,0-2.8-0.1-4.2,0.7c-1.6,0.9-1.8,2.8-2.1,4.5c-0.7,4.2,2.4,8.3,6.3,9.6
					c0.8,0.2,1.5,0.4,2.2,0.8c1.1,0.6,1.8,1.7,2.5,2.7c1.1,1.6,2.4,3.3,4.1,4.3c1.9,1.1,4.2,0.2,6-0.8c0.4-0.2,1.6-1,1.6-1.6
					c0-0.5-0.7-0.8-0.8-1.1c-0.1-0.2,0-0.6,0-0.8c-0.1-0.5-0.2-0.9-0.5-1.3c-0.4-0.6-0.9-1-1.6-1.2c-1.1-0.4-1.9-1-3.1-0.7
					c-0.7,0.2-1.5,0.6-1.3,1.4c0.3,1,2.6,1.4,2.2,2.5c-0.2,0.5-0.9,0.7-1.3,0.9c-0.7,0.4-1.2,0.3-1.9-0.2c-1.3-0.8-2.1-2.2-3.5-2.9
					c-1.2-0.6-1.9-1.5-2.9-2.4c-0.7-0.6-1.4-0.7-2.2-1c-0.7-0.3-1.4-0.7-2-1.2c-0.7-0.6-1.5-1.5-1.8-2.4c-0.2-0.5-0.2-0.9-0.2-1.4
					s-0.3-1.1-0.3-1.7c0-1.8,1.4-2.9,3.2-3c1.2,0,2.3,0.2,3.5,0.3c1.4,0.1,2.7,0,4,0.2c1.8,0.3,3.4,0.3,4.8,1.6
					c1.3,1.2,1.8,2.9,3.2,3.9c2.3,1.7,6,2.4,6.3,5.9c0.1,1.7-0.8,3.1-1.8,4.3c-0.6,0.7-1.2,1.3-1.6,2.1c-0.6,1.3-0.7,2.9-2,3.8
					c-2.1,1.5-5,0.2-7-0.7c-1.6-0.7-3.5-0.6-4.9-1.7s-2.7-2.6-3.8-4c-1.1-1.5-2.1-3.1-3.3-4.6c-1.1-1.4-2.5-2.5-3.8-3.8
					c-1.6-1.8-2.9-4-3.9-6.1c-1.2-2.5-2.8-4.6-4.8-6.5c-1.9-1.8-4-2.7-6.1-4c-0.7-0.5-1.6-0.3-2.4-0.4c-0.7-0.1-1.3-0.5-2-0.8
					c-0.9-0.4-1.8-0.8-2.7-1.4c-0.8-0.5-2.6-1.5-2.1-2.7c0.3-0.6,0.9-0.9,1.4-1.2c0.3-0.2,0.9-0.4,1.1-0.7c1.1-2-3.2-3.1-4.3-3.4
					c-2.6-0.8-5.8-1.8-7.5-4.1c-0.5-0.6-0.8-1.2-1-1.9c-0.4-1.4-0.9-2.4-1.9-3.4c-2.8-2.6-5.7-5.1-9-7.1c-1.7-1-3.3-2-4.7-3.4
					c-0.8-0.8-1.7-2.4-2.8-2.7c-0.6,0.3-0.5,1.7-0.6,2.2c0,1.4,0.3,2.7,0.6,4c0.3,1.2,0.5,2.3,0.7,3.5
					C86.4,231.9,87.7,233.4,87.3,231.4z"/>
				<path class="st8" d="M188.4,236.2c0.9,0.7,1.4,1.7,2.1,2.7c0.3,0.4,0.7,0.8,1.2,1.1c0.2,0.2,0.4,0.4,0.7,0.5
					c0.3,0.2,0.7,0.2,1.1,0.4c0.9,0.4,1.8,0.9,2.7,1.3c0.9,0.3,1.9,0.9,2.6,1.6c0.3,0.3,0.5,0.6,0.8,0.9c0.2,0.2,0.5,0.5,0.7,0.7
					c0.6,0.7,1,1.2,1.8,1.6c0.6,0.3,1.2,0.8,1.7,1.3c0.4,0.4,0.4,1,0.4,1.5c0,0.6,0.2,1.2,0.3,1.8c0.1,0.5,0,1.1,0,1.7
					c0,1.1,0.8,2.1,1.4,2.9c0.7,0.9,0.2,1.6,0.2,2.6c0,0.5-0.1,1,0,1.4c0,0.2,0.2,0.3,0.2,0.6c0,0.3,0,0.6,0,0.8
					c-0.1,0.4-0.3,0.7-0.4,1.1c-0.1,0.6,0.1,1,0.3,1.5c0.1,0.2,0.5,0.9,0.1,1.1c-0.3,0.1-1-0.7-1.1-0.9c-0.3-0.4-0.2-0.8-0.3-1.3
					c-0.1-0.2-0.1-0.3-0.1-0.6c0-0.3,0-0.5,0.1-0.8c0.2-1,0.2-2.6-0.9-3.1c-0.3-0.1-0.5,0-0.7-0.1c-0.3-0.1-0.6-0.2-0.9-0.2
					c-0.9-0.2-2-0.3-2.9-0.8c-0.8-0.4-0.8-1.3-0.3-2c0.1-0.2,0.4-0.4,0.6-0.5c0,0,0.3,0,0.3-0.1c0.1-0.2,0-0.3-0.1-0.5
					c-0.2-0.6-0.4-1.3-0.4-1.9s0.2-0.8,0.8-0.9c0.5-0.1,1-0.2,1.2-0.7c0.2-0.4,0.2-1.1,0-1.6c-0.3-1.1-1.2-2-1.8-3
					c-0.5-0.7-1.1-1-1.8-1.5c-0.2-0.2-0.6-0.4-0.8-0.6c-0.1-0.2-0.2-0.4-0.3-0.5c-0.5-0.4-1.4-0.6-2-0.6c-0.4,0-1,0.1-1.4,0
					c-0.5-0.2-0.7-0.6-1-0.9c-0.7-0.6-2-0.3-2.3-1.4c-0.2-0.5-0.2-1.1-0.3-1.7C189.5,238.4,189.2,237.8,188.4,236.2z"/>
				<path class="st8" d="M205.4,266.9c-0.2,0.7-0.7,1.3-1,2c-0.2,0.5,0.1,0.9,0.6,0.9s0.8-0.2,0.9-0.7c0.1-0.3,0-0.7-0.1-0.9
					c-0.1-0.2-0.3-0.3-0.4-0.5V266.9z"/>
				<path class="st8" d="M178.1,211.6c-0.7-0.5-1-0.8-1.5-1.4c-0.6-0.7-1.3-1.3-1.9-2.1c-0.9-1.1-0.5-2.4,0.5-3.3
					c0.9-0.9,2.2-1,3.3-0.4c1.3,0.7,1.7,2.8,1.8,4.1c0,0.3,0.1,0.6,0,0.9c-0.1,0.3-0.3,0.5-0.5,0.7
					C179.2,210.8,178.4,210.7,178.1,211.6z"/>
				<path class="st8" d="M184.8,202.2c-1.1,0.8-2.2,2.1-2,3.6c0.1,0.6,0.4,1.1,0.5,1.7c0.1,0.5,0,1.1,0,1.7c0,0.9,0.1,1.7,0.4,2.6
					c0.2,0.4,0.3,0.7,0.6,1c0.1,0.2,0.4,0.4,0.5,0.6c0.2,0.3,0.2,0.5,0.4,0.7c0.6,0.5,1.4,0.9,1.4,1.8c0,0.7-0.1,1.4-0.2,2.1
					c-0.2,1.1-0.2,2.3-0.2,3.5c0,0.7,0.4,1.5,0.7,2.2c0.1,0.3,0.3,0.8,0.6,1c0.4-0.4,0.1-1.2,0-1.6c-0.1-0.3,0-0.6,0-0.9
					c0-0.3-0.2-0.6-0.2-0.9c0-0.4,0.5-1.2,0.8-1.4c0.2-0.2,0.5-0.3,0.8-0.4c0.4-0.1,0.9-0.3,1.4-0.4c0.7-0.1,1.2-0.2,1.6-0.8
					c0.3-0.5,0.8-1.2,0.5-1.8c-0.4-0.8-1.5-0.4-2.2-0.3c-0.7,0.1-1.6-0.4-1.9-1c-0.3-0.7-0.2-1.6-0.5-2.3c-0.3-0.8-1.3-1.4-0.8-2.3
					c0.7-1.1,1.7-0.3,2.5,0.1c0.7,0.4,1.8,0.7,2.1-0.2c0.3-0.8-0.1-1.6-0.4-2.3c-0.2-0.5-1.1-1.4-0.9-1.8c0.2-0.4,1.2-0.8,1.6-1
					c0.6-0.4,1.2-0.6,1.4-1.3c0.1-0.4,0-0.5-0.3-0.7c-0.4-0.5-0.3-0.4-0.9-0.4c-0.5,0-0.9-0.2-1.4-0.2s-1-0.1-1.5-0.2
					c-0.8-0.2-1.6-0.6-2.3-0.9c-0.3-0.1-0.6-0.3-0.9-0.1C185.9,201.6,185,202.1,184.8,202.2z"/>
				<path class="st7" d="M163.6,195.4c-0.4,0.3-0.9,0.4-0.9,0.9c0,0.2,0,0.5,0,0.7c0,0.6,0.3,1,0.8,1.3c0.7,0.3,1.4,0.1,2.1,0
					c0.8-0.1,1.6-0.1,2.4-0.2c0.6-0.1,1.2-0.3,1.9-0.3c0.6-0.1,1.1,0.3,1.5,0.7c0.3,0.3,0.5,0.7,0.8,1.1c0.3,0.4,0.6,0.7,1,1
					s0.8,0.7,1.3,0.8c0.6,0.1,0.9,0,1.4-0.4c0.4-0.3,0.9-0.6,1.2-1.1c0.2-0.3,0.5-0.8,0.7-1.1c0.4-0.6,0.7-1.4,0.7-2.1
					c0-0.6,0-1-0.2-1.5c-0.2-0.6-0.5-1.1-0.8-1.7c-0.3-0.4-0.5-0.9-0.6-1.3c-0.1-0.6-0.2-1.1-0.5-1.6c-0.3-0.6-1-1.5-1.6-0.8
					c-1.3,1.4,1.7,4.1-0.5,4.9c-0.7,0.3-1.7,0.2-2,1.1c-0.3,1,0.8,1.6,1.2,2.4c0.2,0.3,0.3,0.6-0.3,0.5c-0.3-0.1-0.7-0.5-1-0.7
					c-0.7-0.3-1.8-0.6-2-1.4c-0.2-0.8,0.3-1.9-0.7-2.2c-0.4-0.1-0.9,0.2-1.3,0.5s-0.6,0.7-1.3,0.7c-0.6,0-0.8-0.1-1.3-0.5
					c-0.2-0.2-0.5-0.3-0.7-0.5s-0.4-0.4-0.6-0.6C163.5,193.2,163.2,195,163.6,195.4z"/>
				<path class="st8" d="M152.3,190.4c-0.9,0.7-1.3,1-1.4,2.1c-0.1,0.8,0.1,1.3,0.8,1.9c0.8,0.7,2.5,0.6,2.9-0.5
					c0.3-0.9,0.5-2.1-0.3-2.8c-0.3-0.2-0.8-0.5-1.1-0.6c-0.6-0.3-1-0.1-1.6,0.2L152.3,190.4z"/>
				<path class="st8" d="M156.6,199c0.3,0.4,0.5,0.9,0.7,1.3c0.3,0.4,0.7,0.8,1,1.2c0.4,0.5,1.1,1,1.8,0.9c0.4,0,0.7-0.3,0.8-0.7
					c0.1-0.5-0.4-0.8-0.7-1.1c-0.3-0.3-0.7-0.6-1.1-0.9c-0.3-0.2-0.6-0.5-0.9-0.7c-0.2-0.1-0.6-0.4-0.8-0.4c-0.4,0-0.5,0.6-0.4,0.9
					L156.6,199z"/>
				<path class="st8" d="M171.5,267.8c0,0.7,0.2,1.3,0.4,2c0.2,1,0.4,1.9,1.1,2.7c1,1.3,2.5,1.7,3.9,2c0.7,0.2,1.4,0.2,2,0.4
					c0.6,0.2,1.2,0.7,1.9,0.8c1.6,0.2,1.9-2.2,1.8-3.3c0-1.5-0.9-2.3-1.9-3.3c-1.3-1.3-2.6-2.2-4.4-2.7c-0.6-0.2-1.4-0.3-2-0.7
					c-0.8-0.5-1.2-1-1.8-1.7c-0.4-0.5-0.8-1.1-1.3-1.5c-0.3-0.3-0.7-0.2-0.9,0.1c-0.6,0.8,0,2.3,0.2,3.1c0.1,0.5,0.2,0.9,0.2,1.4
					C170.8,268.6,171.5,269.9,171.5,267.8z"/>
				<path class="st8" d="M184.8,270.5c-0.3,0.8-0.6,1.3-0.1,2.1c0.3,0.4,0.8,0.9,1.4,0.8c0.8-0.2,1.5-1.4,1.9-2
					c0.5-0.7,0.5-1.7-0.5-1.9c-0.4-0.1-0.9-0.1-1.3,0.1c-0.8,0.4-1.7,0.9-1.8,1.9L184.8,270.5z"/>
				<path class="st8" d="M205.3,271.6c-0.8,0.1-1.6,0.2-2.4,0.4c0,0.3-0.4,0.5-0.6,0.7c-0.2,0.3-0.4,0.7-0.6,1.1
					c-0.3,0.6-0.5,1.3-0.3,2c0.3,1.2,1.5,1.4,2.6,1.1c0.9-0.3,1.5-1.4,1.7-2.3c0.2-0.8,0.2-2.2-0.5-2.7L205.3,271.6z"/>
				<path class="st8" d="M203.8,193.3c0.6,0.3,1.3,0.6,1.9,1.1c0.4,0.3,0.7,0.7,1.1,0.9c1,0.5,2.2,0.4,3.3,0.3
					c1.3-0.2,2.5-0.4,3.7-0.9c0.8-0.4,1.8-0.7,2.7-0.6c1,0.1,1.8,0.7,2.6,1.2c1.1,0.8,2.3,1.6,3.2,2.6c0.9,0.9,1.6,1.9,2.5,2.7
					c0.6,0.5,1.2,0.7,1.8,1s1.2,0.4,1.6,0.8c0.6,0.6,0.8,1.2,1.2,1.9s1.2,1.4,1.9,1.8c0.7,0.5,1.7,0.6,2.5,0.6c0.3,0,0.7,0,1,0
					c0.5,0,1,0.1,1.5,0.2c0.4,0,0.8,0.3,1.2,0.1c0.2-0.1,0.5-0.3,0.6-0.5c0.5-0.5,0.4-1.3,0.6-1.9c0-0.2,0.2-0.3,0.1-0.5
					c-0.1-0.2-0.3-0.6-0.5-0.8c-0.4-0.6-1-0.7-1.6-1s-1.1-0.8-1.8-1.1c-0.4-0.2-0.8-0.3-1.2-0.4c-0.4-0.1-0.7-0.3-1.1,0
					c-0.6,0.4,0,0.8-0.1,1.4c0,0.2-0.2,0.4-0.3,0.6c-0.1,0.2-0.5,0.3-0.6,0.6c-0.2,0.5,0.5,1.2,0.8,1.4s0.7,0.3,1.1,0.4
					c0.3,0.1,0.8,0.3,1.1,0.2c0.2,0,0.5-0.2,0.5-0.4c0.1-0.2-0.1-0.5,0-0.7c0.1-0.1,0.6,0,0.7,0.1c0.3,0.1,0.5,0.3,0.5,0.6
					c0,1.2-2,0.9-2.7,0.9c-0.9,0-1.4-0.2-2.2-0.6c-0.8-0.4-1.2-0.9-1.8-1.5c-0.6-0.5-0.8-1.5-1-2.2c-0.1-0.4-0.2-0.8-0.5-1.1
					s-0.5-0.3-0.9-0.5c-1-0.4-2-1.1-2.7-1.9c-0.8-0.8-1.2-2-1.8-3c-0.3-0.5-0.6-1-0.9-1.6c-0.4-0.7-0.7-1.4-1.2-2.1
					c-0.9-1.2-2.1-1.6-3.5-1.3c-0.8,0.1-1.5,0.3-2.3,0.3c-0.6,0-0.9-0.2-1.4-0.6c-0.6-0.5-1.2-1-1.9-1.4c-0.7-0.5-1.4-1-2.3-1
					c-0.5,0-1.4-0.1-1.7,0.3c-0.5,0.5-0.5,1.4-0.4,2.1c0.1,0.8,0.4,1.5,0.6,2.2c0.1,0.3,0.2,0.7,0.1,1c-0.2,0.7-1,0.6-1.6,0.3
					c-0.1-0.1-0.3-0.2-0.5-0.3c-0.1-0.1-0.2-0.3-0.3-0.3c-0.2-0.1-0.8-0.1-1,0C204.6,192.4,204.6,192.5,203.8,193.3z"/>
				<path class="st8" d="M199.9,191.8c-0.7,0-1.3,0-2,0c-0.2,0-0.5,0-0.7,0c-0.1,0.1-0.3,0.3-0.5,0.4c-0.1,0.1-0.6,0.5-0.6,0.7
					c-0.1,0.7,2,0.9,2.4,0.8c0.5-0.1,1.7-0.7,1.7-1.3c0-0.7-0.7-0.8-1.3-0.8L199.9,191.8z"/>
				<path class="st8" d="M241.9,205.3c-0.8,0.3-1.4,0.4-1.8,1.2c-0.2,0.5-0.4,1-0.5,1.5c-0.2,0.7,0,1.1,0.4,1.7
					c0.2,0.3,0.5,0.8,0.8,1.1c0.4,0.3,0.9,0.2,1.4,0.2c0.4,0,0.9,0.1,1.3,0.2c1.2,0.3,2.3,0.7,3.5,0.9c0.9,0.1,2-0.7,2.2-1.6
					c0.1-0.4,0.1-0.9,0-1.3c-0.1-0.7-0.4-1.2-0.7-1.8c-0.5-1-1.2-1.7-2.3-2C245.4,205.1,243.8,204.5,241.9,205.3z"/>
				<path class="st8" d="M250.2,213.4c-0.1-0.3,0-0.6,0.2-0.8c0.8,0.1,1.5,0.8,1.3,1.7s-2,0.7-2-0.2L250.2,213.4z"/>
				<path class="st8" d="M245.1,165.8c-0.2,0.4-0.4,0.8-0.8,1.1c-0.5,0.5-1.3,0.7-1.9,1.1c-1,0.6-2,1.6-2.2,2.9
					c-0.2,1,0.6,2.4,1.6,2.7c0.9,0.2,1.8-0.6,2.4-1.1c0.6-0.6,1.1-1.2,1.6-1.9c0.4-0.5,0.9-1.2,1.1-1.8c0.2-0.7,0.3-1.3,0-2
					c-0.1-0.3-0.2-0.6-0.6-0.7C246,165.9,245.5,166,245.1,165.8z"/>
				<path class="st8" d="M244.4,162.7c-0.1-0.5-0.3-0.8-0.1-1.3c0.1-0.3,0.4-0.6,0.8-0.6c0.4,0.1,1,0.7,1.1,1.1
					c0.1,0.5,0,0.7-0.4,0.9c-0.3,0.2-1,0.3-1.1-0.2h-0.3V162.7z"/>
				<path class="st8" d="M242.4,179.2c-0.8,0.4-1.4,0.5-1.7,1.3c-0.2,0.5,0.1,0.8,0.5,1.2c0.7,0.7,1.9,1.1,2.8,0.3
					c0.3-0.2,0.3-0.3,0.3-0.7c0-0.3-0.1-0.8-0.2-1.1c-0.3-0.7-1.1-0.8-1.8-0.8L242.4,179.2z"/>
				<path class="st8" d="M256.3,204.6c-0.4,0.5-1.3,1.4-1.1,2.1c0.1,0.3,0.4,0.6,0.6,0.7c0.5,0.3,0.9-0.1,1.3-0.2
					c0.5-0.2,0.7-0.2,0.7-0.7c0-0.2,0-0.6,0-0.8c-0.1-0.7-0.6-0.8-1.2-0.9v-0.1h-0.3V204.6z"/>
				<path class="st8" d="M97.8,179.4c1.1-0.3,2-0.5,3.1-0.2c1,0.3,1.9,0.6,2.9,0.8c1.5,0.4,2.9,0.5,4.4,0.5c0.4,0,0.6,0,1-0.1
					c0.3-0.1,0.6-0.1,0.9-0.1c0.3-0.1,0.6-0.2,0.9-0.2c0.4,0,0.8,0,1.2-0.2c0.5-0.3,0.7-1.2,0.7-1.8c0-0.7-0.3-2.1,0.3-2.7
					c1-1,2.5,1.5,3,2c0.8,0.8,1.6,1.6,2.4,2.3c0.3,0.3,0.7,0.5,1,0.9s0.7,0.8,1,1.1c0.6,0.6,1.1,1.2,1.8,1.6
					c1.1,0.6,2.2,1.1,3.3,1.8c1,0.6,1.9,1,2.6,1.9c0.5,0.6,0.7,1.4,0.7,2.2c0,1-0.6,1.7-1.1,2.5c-0.4,0.7-0.8,1.3-1.2,2
					c-0.5,0.8-0.9,1.7-1.5,2.4c-1,1.2-2.1,2-3.6,2.5c-1.2,0.5-2.5,1-3.8,0.9c-1.2-0.1-2.5-0.7-3.6-1.3s-2.3-1-3.4-1.7
					c-1.4-0.9-2.1-2.2-2.4-3.8c-0.1-0.6,0-1.2,0-1.7c0-0.6-0.2-1.1-0.2-1.8c0-1.6-0.1-4,1.6-4.9c0.4-0.2,0.8-0.3,1.2-0.4
					c0.5,0,0.9,0.2,1.3,0.2c1.4,0.1,2.6-0.5,4-0.6c1.3-0.1,3.3,0.5,3.7,1.9c0.2,0.7,0.3,1.4,0.7,2.1c0.3,0.5,0.6,1,0.9,1.4
					c0.3,0.5,0.8,0.8,1.2,1.1c0.7,0.6,1.1,1,1.4,1.9c0.2,0.6,0.2,1.1,0,1.7c-0.6,1.4-2,1.9-3.3,2.3c-0.4,0.1-0.8,0.1-1.2,0.3
					c-0.5,0.2-1.1,0.5-1.6,0.6c-0.9,0.3-1.7,0.1-2.7-0.1c-0.6-0.1-1.8-0.5-2-1.2c-0.2-0.8,0.6-1.4,1.3-1.8c0.5-0.3,1.4-0.2,1.9-0.2
					c0.4,0,0.3,0,0.4,0.4c0,0.3,0,0.5,0,0.8c0.1,0.2,0.4,0.7,0.6,0.8c0.6,0.2,1-0.2,1.5-0.3c0.6-0.2,1.1-0.2,1.6-0.5
					s0.9-0.8,1.3-1.1c0.3-0.3,0.7-0.6,0.7-1.1c0.1-0.9-0.9-1.4-1.4-2s-1.1-1-1.3-1.8c-0.3-0.9-0.7-1.7-1.1-2.5
					c-0.6-1.1-2.1-1.7-3.2-1.8c-0.7-0.1-1.6,0.1-2.3,0.2c-0.5,0.1-0.8,0.1-1.3,0.1s-1,0-1.5,0.2c-0.8,0.3-1.2,1-1.3,1.8
					c-0.2,1-0.4,2.2-0.2,3.2c0.2,0.9,0.3,1.7,0.7,2.5c0.3,0.6,0.3,1.2,0.5,1.8c0.2,0.7,0.7,1.2,1.3,1.6c0.3,0.2,0.6,0.4,0.9,0.6
					c0.3,0.1,0.6,0.3,0.8,0.4c0.3,0.2,0.6,0.4,0.9,0.5c0.3,0.2,0.4,0.5,0.8,0.6c0.7,0.2,1.5,0.3,2.3,0.4c0.5,0.1,0.8,0.4,1.2,0.5
					c0.6,0.1,1.1-0.1,1.6-0.3c0.3-0.2,0.7-0.3,1-0.5c0.4-0.2,0.7-0.5,1.1-0.7s0.6-0.2,0.9-0.6c0.3-0.4,0.7-0.6,1.1-0.8
					c0.6-0.4,1.2-0.9,1.6-1.6c0.4-0.8,0.4-1.7,0.6-2.5s0.5-1.5,0.7-2.3c0.1-0.4,0.1-0.4-0.2-0.8c-0.3-0.4-0.5-0.6-0.8-0.8
					c-0.9-0.4-2-0.4-2.8-1.1c-1.1-1-2.2-2-3.3-3c-0.4-0.4-0.9-1-1.4-1.3c-0.6-0.3-1.3-0.1-2-0.1c-1.2,0-1.6-1.7-2.8-2.1
					c-1.1-0.4-2.1,0.6-2.9,1.3c-0.9,0.7-1.9,1.2-2.9,1.7c-0.5,0.3-1,0.6-1.5,0.8c-0.6,0.4-1.1,0.9-1.7,1.3c-0.7,0.4-1.6,0.5-2.4,0.6
					c-1.1,0.2-1.7,0-2.7-0.4c-0.6-0.2-1.1-0.6-1.7-0.8c-0.5-0.2-1.1-0.3-1.6-0.4c-0.6-0.1-1.1,0.1-1.6-0.3c-0.7-0.6-0.9-2.2-0.3-2.9
					c0.2-0.3,0.7-0.6,1-0.7C96.1,180.7,96.7,180.7,97.8,179.4z"/>
				<path class="st8" d="M94.6,178.2c0.3,0.6,0.3,0.6,0.2,1.1c-0.1,0.4-0.4,0.8-0.7,1.1c-0.3,0.5-0.7,0.9-0.9,1.4
					c-0.2,0.4-0.4,1-0.9,1.2c-0.4,0.2-1.3-0.1-1.6-0.3c-1.4-0.8-1.6-2.6-1.6-4c0-1.3,0.2-2.8,0.8-4c0.3-0.7,1-1.8,1.9-1.6
					c0.6,0.2,1,1.1,1.2,1.6c0.4,0.7,0.8,1.4,1,2.2c0.1,0.5,0,0.8,0.3,1.3c0.2,0.4,0.6,1,1.1,0.9L94.6,178.2z"/>
				<path class="st8" d="M92.1,168.6c-0.5-0.3-1.4-0.8-0.6-1.3c0.2-0.2,0.9-0.4,1.2-0.3c0.5,0.2,0.6,1.3,0,1.4L92.1,168.6z"/>
				<path class="st8" d="M130.7,188.4c-0.3,0.7-1.3,1.9-1,2.7c0.2,0.7,0.9,1,1.4,1.3c0.7,0.3,1.5,0.6,2.3,0.6c0.8-0.1,1.2-0.3,2,0
					c1.4,0.6,2.5,1.2,3.9,0.5c0.6-0.3,1.2-0.7,1.8-0.9c0.5-0.2,1.1-0.1,1.6-0.2c0.5-0.1,0.4-0.3,0-0.5s-0.9-0.3-1.3-0.4
					c-0.5-0.1-0.9-0.3-1.4-0.4c-0.4,0-0.7,0-1.1,0c-0.3,0-0.5-0.1-0.8-0.2c-0.8-0.1-1.5-0.4-2.2-0.7c-0.6-0.3-0.9-1-1.4-1.4
					c-0.6-0.4-1.2-0.6-1.9-0.8c-0.4-0.1-0.7-0.3-1.1-0.2C131.3,187.8,130.8,188.4,130.7,188.4z"/>
				<path class="st8" d="M144.7,191.8c0.6-0.2,1.2-0.6,1.7-0.3c0.2,0.1,0.5,0.3,0.6,0.4c0.2,0.3-0.2,0.9-0.4,1.1
					c-0.9,0.8-1.5,0.1-1.9-0.7L144.7,191.8L144.7,191.8z"/>
				<path class="st8" d="M155.9,163.3c-0.5,0.2-1,0.5-1.5,0.7c-0.4,0.2-0.7,0.2-1,0.5c-0.7,0.6-1.2,1-1.5,1.9
					c-0.2,0.6-0.3,1.2-0.5,1.8c-0.3,0.7-0.6,1.6-0.7,2.3c-0.1,1.3,0.2,3.1,1.4,3.8c0.4,0.2,0.6,0.3,1.2,0.3c0.3,0,0.3-0.1,0.6-0.2
					c0.3,0,0.6,0.1,0.8,0c0.2,0,0.3-0.2,0.4-0.2c0.2-0.1,0.6,0,0.8,0c0.6,0,1.1,0.1,1.6-0.3c0.7-0.5,1.2-1.1,1.7-1.8
					c0.3-0.5,0.6-1.3,0.4-1.9c-0.4-1.3-1.9-2.6-3.3-2.7c-0.7,0-1.4,0.3-1.9,0.7c-0.6,0.5-0.8,1.7-0.5,2.4c0.3,0.6,0.6,0.4,1,0.3
					c0.6-0.2,0.8,0.1,1.3,0.3c0.5,0.1,1.1-0.1,1-0.7c0-0.5-0.4-0.8-0.5-1.2c0.3-0.2,1,0.2,1.2,0.5s0.2,0.7,0.2,1.1
					c0,0.3-0.1,0.4-0.1,0.6c0,0.2,0,0.4-0.1,0.6c-0.1,0.2-0.3,0.6-0.5,0.7c-0.8,0.6-1.9,0.4-2.8,0.4c-0.6,0-1.1-0.2-1.6-0.2
					c-0.4,0-1-0.1-1.3-0.3c-0.8-0.5-0.7-2.2-0.3-2.9c0.3-0.7,0.8-1.6,0.9-2.3c0-0.5,0.1-0.9,0.3-1.2c0.3-0.4,0.9-0.8,1.4-1
					c0.2-0.1,0.5-0.1,0.6-0.2c0.3-0.1,0.4-0.5,0.5-0.7C155.2,164.1,155.8,163.6,155.9,163.3z"/>
				<path class="st8" d="M158.4,161.1c-0.1,0.1-2,0.9-0.9,1.3c0.5,0.1,1.4,0,1.9,0c1.1-0.2,2.8-0.6,3.5-1.6c0.8-1.1-0.5-2.5-1.6-2.3
					c-0.7,0.1-1.2,0.5-1.7,0.9c-0.3,0.2-0.7,0.5-1,0.7c-0.3,0.3-0.5,0.6-0.8,0.9L158.4,161.1z"/>
				<path class="st8" d="M157.7,175.3c-1.4,0.1-2.7,0.3-4.1,0c-0.8-0.1-1,0.5-0.9,1.1c0.1,1.8,1.8,2.9,3.1,3.9
					c0.6,0.4,1,1.1,1.8,0.9c0.8-0.2,0.9-1,1.1-1.6c0.2-0.8,0-1.5-0.3-2.2c-0.2-0.4-0.4-0.8-0.6-1.1s-0.6-0.5-0.7-0.8L157.7,175.3z"
					/>
				<path class="st8" d="M221.6,122.5c-0.8,0.3-7.8,2.4-5.7,4.2c0.7,0.6,2,0.8,2.8,1.1c0.6,0.2,0.8,0.4,1.3,0.8
					c-0.4,0.6-1.1,0.1-1.3,0.7c-0.2,0.5,0.3,1,0.7,1.2c0.9,0.6,2.2,0.9,3.2,1.4c0.3,0.2,0.8,0.6,1.1,0.6c0.6,0.1,1.4-0.1,2,0
					c2.4,0.4,4.9,0.6,7.3,1c0.6,0.1,1.5,0.7,2.1,0.3c0.4-0.3,0.3-0.8,0.7-1.1c0.8-0.8,2.4,0.1,3.2,0.4c0.9,0.4,1.3,1.1,1.8,1.9
					c0.9,1.5,2.3,2.8,2.3,4.6c0,0.7-0.5,1.2-0.7,1.8c-0.3,0.6-0.5,1.2-0.9,1.8c-0.7,1.2-1.2,2.6-1.7,4c-0.2,0.6-0.6,1.1-0.9,1.5
					c-0.5,0.7-0.8,0.6-1.5,0.6c-0.8,0-2.8-1-3.4,0c-0.3,0.5,0,0.9,0.5,1.1c0.2,0.1,0.5-0.1,0.7,0c0.4,0,0.5,0.2,0.8,0.3
					c1.2,0.3,2.2,0,3.2-0.6c0.8-0.5,1.4-1.3,2.2-1.7c0.5-0.2,0.9-0.5,1.4-0.8c0.4-0.3,0.7-0.7,1.2-1c1.2-0.8,2.5-0.7,3.6-1.8
					c1.1-1,1.6-2.2,1.3-3.7c-0.2-0.7-0.4-1.5-0.6-2.2c-0.2-0.6-0.8-1.1,0.3-1c0.3,0,1.2,0.8,1.4,1.1c0.3,0.4,0.4,1.2,1.1,1.3
					c0.4-0.8-0.4-1.6-1-2c-1-0.8-2-1.4-3-2.2c-1.1-1-1.8-2.4-2.7-3.6c-1.3-1.8-3-3.5-4.8-4.8c-0.7-0.5-1.5-1-2.2-1.6
					c-1.1-0.9-1.8-2.1-3-3c-1.6-1.2-3.5-1.7-5.5-2c-1.6-0.3-3.1,0-4.6,0.4C223.6,121.7,221,121.8,221.6,122.5z"/>
				<path class="st8" d="M214.1,129.7c0.4,0.4,0.6,0.9,0.8,1.5c-0.1,0.2-0.1,0.4,0,0.6c0.2,0.3,0.7,0.6,1,0.8
					c1.1,0.9,2.5,1.1,3.9,1.4c1,0.2,2.1,0.3,3,0.8c0.8,0.5,1.6,1.3,2.5,1.6c1.2,0.5,2.1,0.5,3.2,0.2c0.6-0.1,2.1-0.4,2.5,0.4
					c0.4,1.1-0.9,0.9-1.4,1c-0.3,0.1-0.5,0.3-0.9,0.4c-0.4,0.1-0.8,0-1.3,0.1c-2.7,0.7-5.4,1.3-8.3,1.3c-0.8,0-1.3,0.1-2.1,0.3
					c-1,0.2-1.9,0-2.8,0.3c-1.4,0.4-2.5,0.6-3.9,0.2c-1.1-0.3-2.2-0.6-2.5-1.9c-0.3-1,0-1.6,0.6-2.2c0.8-0.9,1.5-1.8,2.4-2.6
					c0.4-0.4,0.8-0.8,1.2-1.3C212.2,132.1,212.3,131.4,214.1,129.7z"/>
				<path class="st8" d="M193.9,141.5c-0.7,0.7-6.1,5.2-3,5.8c1.3,0.2,4,0.4,4.4-1.3c0.2-0.8,0-0.9,0.5-1.5c0.4-0.6,1-1.1,1.4-1.7
					c0.4-0.7,0.5-1.3-0.4-1.5c-1.1-0.4-1.8,0.6-2.9,0.6V141.5z"/>
				<path class="st8" d="M179.2,159.1c-0.8,0.2-4.4,0.4-4.6,2.2c-0.1,0.7,0.2,0.7,0.8,1c1.4,0.7,3.1,1.1,4.6,0.5
					c1.2-0.5,3-1.3,2.5-2.9c-0.6-1.6-2.2-1.4-3.5-1.4L179.2,159.1z"/>
				<path class="st8" d="M220.9,182.1c-0.6,1-1.5,2.7,0.4,2.9c0.8,0.1,1.8-0.8,2.1-1.5c0.2-0.5-0.1-1.4-0.5-1.8
					C222.2,181.1,221.1,181.3,220.9,182.1L220.9,182.1z"/>
				<path class="st8" d="M206.5,109.5c-0.7,0.5-1.8,1.6-2.7,2c-0.4,0.2-0.9,0.1-1.3,0.2c-0.4,0.1-0.7,0.4-1.1,0.6
					c-2.5,1-5.3,0.9-7.8,1.7c-1.4,0.5-2.6,0.8-3.5,2c-1,1.4-2.2,2.5-3.7,3.5c-2,1.4-3.7,3.1-4.9,5.3c-0.6,1.1-1.6,3.1,0.6,2.9
					c0.9-0.1,2.1-0.7,3.1-0.9c0.9-0.2,2.3-1.1,3.1-0.3c0.5,0.5,0.7,1.5,1.4,1.8c0.8,0.4,2.6,0,3.5-0.2c1-0.3,2-0.8,3.1-0.8
					c0.7,0,1.3,0,2,0c0.5,0,1-0.1,1.4,0c0.6,0.1,1,0.4,1.6,0.6c1.4,0.4,2.7,0.1,4.1-0.4c1.6-0.7,1.9-2,2.7-3.5
					c1-1.8,2.2-2.7,3.8-3.8c0.8-0.6,1.5-1.1,2.2-1.8s1.1-1.5,1.8-2.2s1.5-1.3,2.1-2.2c0.2-0.4,0.9-1.3,0.8-1.8
					c-0.1-0.6-1.1-0.9-1.5-1.1c-0.7-0.3-1.3-0.6-2.1-0.8c-1.7-0.4-3.4-0.9-5-1.4C208.8,108.6,206.5,107.4,206.5,109.5z"/>
				<path class="st8" d="M191.8,107c-1.1,0.4-2.2,0.8-3.3,1.2c-0.3,1.4-1.2,1.8,0.5,2.5c1.3,0.5,2.9,0.1,4.1-0.4
					c0.8-0.4,2.1-1.1,2-2.2c-0.1-0.8-1.6-2.1-2.2-1.1H191.8z"/>
				<path class="st7" d="M253.9,233.5c-0.7,3.1-1.9,5.9-4.3,8.1c-0.9,0.8-1.7,1.3-2.2,2.4c-0.6,1.3-0.8,2.6-1.2,4
					c-0.6,2.1-1.7,3.8-3.8,4.5c-2.2,0.7-5.7,0.3-7.3,2.2c-0.7,0.8-0.9,1.9-1,2.9c-0.2,1.3-0.2,2.7-0.5,4c-0.1,0.8-0.4,1.8-1.1,2.3
					c-0.5,0.4-1.2,0.4-1.7,0.7c-1,0.5-2.3,1.2-3.1,2c-1.2,1.2-2.1,2-3.9,2.1c0.6-0.5,1.3-1,1.7-1.6c0.5-0.8,0.7-1.8,1.2-2.5
					c0.9-1.2,2.7-1.3,3.7-2.4c0.6-0.6,0.9-2.5,0.8-3.2c-0.1-1.6-1-3.1-0.8-4.7c0.2-1.3,1.6-2.6,2.5-3.5c1-1,2.2-0.8,3.4-0.4
					c0.7,0.3,1.6,0.8,2.3,0.8c0.5,0,0.6-0.3,0.9-0.3c0.5-0.1,1.1,0,1.6,0c0.8-0.1,1.7-0.6,1.4-1.6c-0.2-0.6-0.7-0.7-1.1-1.1
					c-0.6-0.5-1-1.2-1.6-1.8c-1.6-1.6-4.3-2.9-3.1-5.6c0.5-1.2,1.6-1.8,2.4-2.7c1.5-1.5,0.7-3.4,1.1-5.3c0.8-4,5.8-6.1,9.5-4.5
					c1.4,0.6,2.8,1.1,3.6,2.4C253.9,231.3,254.4,233.2,253.9,233.5z"/>
				<path class="st8" d="M255,220.2c-0.4,1.5-0.8,2.9,0.7,4c0.7,0.5,1.4,0.5,2.2,0.1c0.5-0.3,1.3-0.9,1.4-1.5c0.1-0.2,0-0.9,0-1.1
					c-0.1-0.4-0.3-0.6-0.3-1c-0.1-0.5,0-1.1-0.1-1.6s-0.2-0.9-0.3-1.4c-0.1-0.9,0-1.6-0.8-2.2c-0.6-0.4-1.3-0.5-2-0.1
					c-2,1.1-1.5,3.7-1.1,5.5L255,220.2z"/>
			</g>
			<g>
				<path class="st9" d="M121,157.9c-1.4,1.9-1.9,2.9-1.6,5.2c0.2,1.8,1.2,2.9,2.2,4.3c1.7,2.5,2.7,4.5,6,4.5c2.6,0,5.9,0.5,8.4-0.1
					c1-0.3,2.2-1.2,3.2-1.6c1.1-0.5,2.1-0.7,3.4-1.1c1.2-0.3,3-1.7,2.7-3.1c-0.3-1.7-2-0.9-3.2-1.2c-2.7-0.8-4.3-3.7-5.6-5.8
					c-1.5-2.6-3.8-6-6.9-6.9C125,150.7,122.9,155.8,121,157.9z"/>
				<path class="st9" d="M186.8,205.8c-1.3,2.1-1.2,2.8-0.4,4.8c0.3,0.7,0.7,1.5,0.8,2.2c0.1,0.6,0.5,1.3,0.5,1.7
					c0.3,1.3,0.1,2.8,0.1,4.2s0.6,2.3,0.5,3.8c0,2.6,0.4,4.5,2.7,5.9c1.1,0.7,2.2,0.8,3.3,1.5c0.8,0.5,2.2,2,3.1,1.8
					c1.2-0.2,1.5-2.2,1-3.2c-0.2-0.4-0.7-0.8-1-1.2c-0.4-0.6-0.3-1-0.5-1.6s-0.3-1-0.6-1.6c-0.1-0.3-0.5-1.2-0.6-1.6
					c-0.3-1.3,0-3,0-4.3c0-2-0.3-3.1-1.2-4.9c-0.7-1.4-1.5-2.8-2-4.3c-0.6-1.7-1.1-3-2.7-3.8C189,204.8,187.6,204.2,186.8,205.8z"/>
				<path class="st9" d="M200.2,233.9c-0.7,1.1-0.6,1.3-0.2,2.4c0.3,0.9,0.6,1.5,1.5,1.9c0.4,0.3,0.9,0.3,1.4,0.3
					c0.6-0.1,0.7-0.3,0.5-0.9c0-0.2-0.2-0.2-0.3-0.4c-0.1-0.3,0-0.6-0.1-0.9c-0.2-0.5-0.5-1-0.8-1.5c-0.2-0.3-0.3-0.7-0.7-0.8
					c-0.4-0.1-1.3,0.1-1.4,0.6L200.2,233.9L200.2,233.9z"/>
				<path class="st9" d="M202.4,203.4c0.9,0.5,1.7,0.9,2.7,1.3c0.4,0.2,0.7,0.6,1.1,0.6c1.1,0.3,1.9-1.4,1.6-2.3
					c-0.3-1-1.5-1.6-2.4-1.9c-0.7-0.2-1.3-0.1-2,0.2c-1.2,0.5-0.9,1.1-0.7,2.1L202.4,203.4L202.4,203.4z"/>
				<path class="st8" d="M170.2,214.5c0,0.8-0.2,2,0.7,2.5c0.7,0.3,1.8-0.7,2.2-1.2c1.1-1.6-0.1-2.7-1.8-2.3c0,0.1,0,0.2-0.1,0.3
					L170.2,214.5z"/>
				<path class="st8" d="M93.7,237.8c1.1,2.3,1.2,4.8,2.1,7.2c1.2,3,3.4,5.3,5,8.2c0.7,1.4,1.3,2.6,2.1,3.9c0.9,1.4,1.9,2.7,2.9,4.1
					c1.8,2.4,3.8,4.5,6.2,6.4c2.2,1.8,4.8,3,7.2,4.4c1.2,0.7,2.3,1.6,3.6,2.2c1,0.4,2.2,0.6,3.3,1c1.3,0.5,2.7,1,4,1.6
					c1.4,0.7,2.7,1.7,4.2,2.4c1.5,0.7,2.9,0.7,3.7-0.8c0.7-1.4,0-1.8-0.7-3.2c-1-1.9-1.9-3.7-2.9-5.7c-1.1-2.3-2.7-4.2-3.9-6.4
					c-0.9-1.6-2.1-3.5-3.6-4.6c-0.8-0.6-1.6-1-2.4-1.5c-1-0.6-1.8-1.5-2.7-2.2c-1.7-1.3-3.7-1.9-5.7-2.5c-1.1-0.3-1.7-0.5-2.5-1.2
					c-0.5-0.4-1.5-1.1-1.7-1.8c-0.3-1.1,1.2-1.7,0.5-2.9c-0.7-1.3-2.3-2.2-3.5-2.9c-2.4-1.3-5.3-1.9-6.9-4.3c-0.7-1-1.5-1.9-2.3-2.8
					c-0.2-0.3-0.7-0.9-1.1-1c-0.5-0.1-0.4,0.1-0.8,0.2C96.1,236.2,95.5,237.3,93.7,237.8z"/>
				<path class="st8" d="M89.7,231.3c0,1,0.3,2.9,1.4,3.4c0.7,0.3,1-0.1,1.4-0.7c0.4-0.7,0.5-1.4,0.1-2c-0.5-0.9-0.9-1.4-1.9-1.4
					L89.7,231.3z"/>
				<path class="st9" d="M151.5,144c-0.8,0.3-1.5,0.8-1.9,1.5c0,0.1,0.1,0.3,0.1,0.4c-0.1,0.4-0.1,1.2,0.1,1.6
					c0.4,0.9,1.3,1.2,2.1,1.5c1.7,0.6,3.7,0.2,4.2-1.8c0.5-1.7-0.9-2.7-2.2-3.5c-0.8-0.5-2.5-0.6-2.8,0.6L151.5,144z"/>
				<path class="st9" d="M148.3,136.1c0.1,1.3,0.1,1.5,1.3,1.8c1,0.3,1.9,0.4,2.9,0.2c1.6-0.3,3.2-0.9,4.8-1
					c1.5-0.1,1.9,1.1,3.1,1.4c1.4,0.4,0.8-1.3,0.5-1.9c-0.5-1-1.1-1.5-2.1-2.1c-1.1-0.6-1.8-1.6-2.9-2.2c-3.2-1.8-6.9,0.7-6.5,4.4
					L148.3,136.1z"/>
				<path class="st9" d="M182.1,109.5c-0.6,0.8-1.6,2-1.5,3.1c0.1,0.7,0.4,1,0.8,1.5c0.4,0.7,0.7,1.5,1.1,2.3
					c0.4,0.9,0.5,2.5,1.2,3.2c0.8,0.8,3.2,0.3,4.2,0.3c1.4,0,3,0.1,4.3,0.6c1.2,0.5,2.2,1.2,3.6,1.2c0.8,0,1.7,0.1,2.5,0
					s1.4-0.5,2.1-0.9c1.6-0.8,3-1.7,4.6-2.4c1.3-0.6,2.5-1.7,3.8-2.5c1.3-0.7,2.8-1.5,4.3-1.8c1.3-0.3,4.5-0.8,2.8-2.8
					c-1.4-1.6-4.9-1.5-6.8-1.1c-3.5,0.7-6.9-0.2-10.3-0.8c-0.7-0.1-1.4-0.4-2.1-0.5c-0.8-0.2-1.5-0.1-2.3-0.1
					c-0.9-0.1-1.7-0.4-2.5-0.4s-1.5-0.1-2.2-0.3c-1.4-0.3-2.7,0.2-4,0.5c-0.5,0.1-1.3,0.1-1.7,0.5
					C183.4,109.6,183.4,110.2,182.1,109.5z"/>
				<path class="st9" d="M199.3,126.4c0.6-2,1.6-3.7,3.7-4.4c1.2-0.4,2.9-0.2,2.4,1.6c-0.2,0.7-0.8,1.3-1.3,1.8
					c-1.1,0.9-3,1.7-4.5,1.4L199.3,126.4z"/>
				<path class="st9" d="M260.4,165.6c-0.4,0.7-0.9,1.5,0.2,1.8c0.5,0.1,0.7-0.1,1.1-0.3c1.1-0.5,0.9-1.1,0.7-2.2
					c-0.2-0.7-0.4-1.5-1.2-1.8c-1.4-0.4-1.4,0.9-1.5,1.8L260.4,165.6z"/>
				<path class="st8" d="M244.2,151.2c-1.3,0.9-3,1.5-3.2,3.2c-0.1,1,1,2.7,1.6,3.4c0.6,0.8,1.4,1.4,2.4,1.7c0.8,0.3,1.8,1,2.7,0.6
					c2.6-1.1,0.6-4.7-0.1-6.4c-0.4-1.1-0.5-2.3-1.1-3.3c-0.8-1.4-1-0.2-1.9,0L244.2,151.2z"/>
				<path class="st8" d="M254.3,183.2c0.2,0.9,0.4,1.6,0.8,2.4c0.2,0.5,0.8,1.2,0.6,1.8s-0.9,1.3-1.4,1.7c-0.3,0.3-1,1-0.9,1.5
					c0,0.2,0.5,0.6,0.6,0.8c0.2,0.4,0.3,0.7,0.4,1.1c0.2,0.8,0.3,1.5,0.7,2.2c0.4,0.6,0.9,1,1.4,1.6c0.2,0.3,0.4,0.5,0.7,0.7
					c0.4,0.3,0.5,0.6,0.6,1.1c0.1,0.2,0.4,1.1-0.2,1c-0.1,0-0.3-0.4-0.4-0.4c-0.2-0.2-0.3-0.2-0.5-0.3c-1.2-0.7-2.5-1.2-3.5-2.2
					c-0.6-0.6-1.2-1.2-1.8-1.6c-0.3-0.2-0.8-0.3-1.1-0.6c-0.4-0.3-0.7-0.8-0.9-1.3c-0.3-0.6-0.5-1.4-0.4-2c0.2-0.7,0.8-1.2,0.9-1.9
					c0.1-0.6-0.2-1.5,0.1-2s1-0.8,1.4-1.2c0.5-0.7,0.7-1.6,1.2-2.3c0.2-0.3,0.5-0.5,0.9-0.5C253.8,182.7,254,182.9,254.3,183.2z"/>
				<path class="st8" d="M247.5,181.9c-0.4,0.7-0.8,1.2-0.4,2.1c0.2,0.5,0.7,0.8,1.2,1c0.4,0.2,0.5,0.2,0.9,0
					c0.2-0.2,0.7-0.4,0.8-0.7c0.2-0.3,0.2-1.8,0-2.1c-0.1-0.2-0.7-0.6-0.9-0.7c-0.3-0.1-1.4-0.1-1.2,0.5h-0.4V181.9z"/>
				<path class="st9" d="M210.1,199.7c0.5,0.8,1.1,1.7,1.9,2.2c0.4,0.3,1,0.3,1.4,0.5s0.7,0.3,1.2,0.4c0.7,0,1.4-0.3,2.1-0.4
					c0.7,0,1.6-0.2,1.7-1c0.2-0.8-0.7-1.3-1.3-1.5c-0.4-0.2-0.8-0.2-1.2-0.4s-0.8-0.3-1.3-0.5c-0.4-0.1-0.7-0.3-1.1-0.4
					c-0.4-0.1-0.8,0-1.2-0.1C211.7,198.5,210.6,198.4,210.1,199.7z"/>
				<path class="st9" d="M124.6,124.6c0-2.1-0.1-3.6,1.2-5.4c1-1.5,2.8-1.8,4.2-2.9c1.3-1,2.2-2.4,3.6-3.4c1-0.7,2.1-1,3.2-1.6
					c0.9-0.6,1.9-1,3-1.3c2-0.6,4.1-0.4,6.1-1c2.2-0.6,4.3-1.3,6.6-1.8c0.8-0.2,1.6-0.1,2.4-0.3c1-0.2,1.8-0.4,2.9-0.4
					s2.8-0.3,3.9,0.1c-0.1,0.5-1.1,0.8-1.5,0.9c-0.4,0.1-0.9,0-1.4,0.1c-0.3,0.1-0.4,0.3-0.7,0.4c-1.1,0.3-2.4-0.1-3.5,0.1
					c-1.2,0.2-2.5,0.3-3.7,0.6c-1.9,0.5-3.6,1.5-5.5,2.1c-1,0.3-2.1,0.5-3.1,0.8c-0.6,0.2-2.8,0.5-2.9,1.4c1.2,0.4,2.3-0.6,3.6-0.3
					c1.2,0.3,1.2,0.8,0.3,1.5c-1.3,0.9-2.1,2.3-3.2,3.5c-0.3,0.3-0.6,0.8-1.1,0.9c-0.5,0.1-1.1,0-1.6,0.2c-0.6,0.2-1.3,0.3-1.9,0.5
					c-0.8,0.3-1.2,0.8-1.9,1.3c-1.3,0.8-2.9,2.4-4.5,2.7C128,123.4,127.1,123.7,124.6,124.6z"/>
				<path class="st8" d="M164.8,105.6c0.7-0.3,2.9-1.7,4-0.9c0.6,0.4,0.4,1,0,1.3c-0.2,0.2-1.1,0.3-1.4,0.4
					c-0.7,0.1-1.2-0.1-1.8-0.4L164.8,105.6z"/>
			</g>
		</g>
		<path class="st10" d="M125.4,153.2c-2.5,0.7-2.4,11.3,2.7,13.7c5,2.5,8.9-2.6,8.9-6.9C137,155.6,128.7,152.3,125.4,153.2z"/>
	</g>
	<g class="st2">
		<g>
			
				<radialGradient id="SVGID_2_" cx="173.4422" cy="162.0734" r="197.9577" gradientTransform="matrix(0.995 -9.965619e-02 -9.965619e-02 -0.995 14.0689 413.2022)" gradientUnits="userSpaceOnUse">
				<stop  offset="0" style="stop-color:#B1F000"/>
				<stop  offset="0.9944" style="stop-color:#6A9A00"/>
			</radialGradient>
			<path class="st11" d="M75.5,213.6c0,0,8.1,12.6,52,15.9c44,3.3,105.7-6.9,123.3,49.6c0,0-99.8-10.3-124.1-20.1
				C102.4,249,75.5,213.6,75.5,213.6z"/>
			
				<radialGradient id="SVGID_3_" cx="177.8429" cy="167.4362" r="79.9341" gradientTransform="matrix(0.995 -9.965619e-02 -9.965619e-02 -0.995 14.0689 413.2022)" gradientUnits="userSpaceOnUse">
				<stop  offset="0" style="stop-color:#C2D800"/>
				<stop  offset="0.9944" style="stop-color:#6A9A00"/>
			</radialGradient>
			<path class="st12" d="M285.6,295.8c0,0-11.2,1.2-23.5,2.1c-3.4,0.2-6.8,0.5-10.1,0.7c-0.5,0-1,0.1-1.4,0c-0.9,0.1-2,0.1-3.1,0.2
				l-0.1,0c-17.7,1.8-57.2,10.6-114.4-13.9c-35.5-15.2-51.8-54.8-56.3-67.4c-0.7-1.9-1-3.2-1.2-3.7c0-0.1,0-0.2,0-0.2
				c0.2,0.3,0.5,0.4,0.8,0.7c5.8,5.6,12.8,9.2,20.8,11.6c0.2,0.1,0.3,0.1,0.5,0.1c0.4,0.2,0.7,0.2,1,0.3c0.8,0.2,1.8,0.5,2.7,0.7
				c0.2,0.1,0.3,0.1,0.4,0.1c0.1,0,0.1,0,0.1,0l0,0c28.4,6.9,66.8,1.1,102.9,11.3c26.7,7.5,38.4,22.5,44,35.3
				c4.7,10.8,5,20,6.2,21.9c0.7,1.1,3.4,1.4,6.6,1c8.5-0.7,21.8-4.7,21.8-4.7L285.6,295.8z"/>
			<path class="st13" d="M285.6,295.8c0,0-18.1,1.9-33.7,2.8c1.1-3.8,0.3-14.9-3.1-24.6c4.7,10.8,5,20,6.2,21.9
				c2.7,3.9,28.5-3.7,28.5-3.7L285.6,295.8z"/>
			<g>
				<g>
					<path class="st14" d="M113.8,273.5c-14.6-20.1-19.7-48.1-19.7-48.4l0.4,0c0,0.3,5,28.1,19.6,48.2L113.8,273.5z"/>
				</g>
				<g>
					<path class="st14" d="M132.9,285.1c-19.3-28.5-20.5-55.5-20.6-55.8l0.4,0c0,0.3,1.2,27.1,20.5,55.6L132.9,285.1z"/>
				</g>
				<g>
					<path class="st14" d="M161,295.1c-14.9-18.9-24.4-62.9-24.5-63.4l0.4,0c0.1,0.4,9.7,44.3,24.4,63.2L161,295.1z"/>
				</g>
				<g>
					<path class="st14" d="M168,296.8c-13.9-20.2-19.8-64.8-19.9-65.1l0.4,0c0,0.5,6,44.8,19.8,65L168,296.8z"/>
				</g>
				<g>
					<path class="st14" d="M197,301.4c-8.7-16.1-23.1-67.8-23.2-68.3l0.4-0.1c0.1,0.5,14.6,52.2,23.2,68.3L197,301.4z"/>
				</g>
				<g>
					<path class="st14" d="M220.9,301.7c-4.9-14.6-11.5-61.1-11.6-61.6l0.4,0c0,0.5,6.7,47,11.6,61.5L220.9,301.7z"/>
				</g>
				<g>
					<path class="st14" d="M231.7,300.8c-3.5-16.2-0.1-48.3,0-48.6l0.4,0.1c-0.1,0.3-3.4,32.4,0,48.5L231.7,300.8z"/>
				</g>
				<g>
					<path class="st14" d="M243.4,299.6c-3-14.8-1.3-36.7-1.2-36.9l0.4,0.1c0,0.2-1.7,22.1,1.2,36.8L243.4,299.6z"/>
				</g>
			</g>
			<path class="st15" d="M178.3,233.7c0,0,6.4,40,26.2,68.1l16.6-0.2c0,0-9.1-39-11.6-61.6L178.3,233.7z"/>
			<path class="st15" d="M95.6,225.6c0,0,2.9,27.1,20.7,49.1c0,0,8,6.7,15.8,10c0,0-15.3-21-20.8-55.4L95.6,225.6z"/>
			<path class="st16" d="M125.2,230.6c0,0,29.3,0.8,45.9,2.7c21.5,2.5,52.3,6.8,69.2,26.8c0,0-13.4-19.6-46.6-24.8
				C160.6,230.2,125.2,230.6,125.2,230.6z"/>
			<path class="st17" d="M262,297.9c-3.4,0.2-6.8,0.5-10.1,0.7c-0.5,0-1,0.1-1.4,0c-0.9,0.1-2,0.1-3.1,0.2l-0.1,0
				c-17.7,1.8-57.2,10.6-114.4-13.9c-35.5-15.2-51.8-54.8-56.3-67.4c-0.7-1.9-1-3.2-1.2-3.7c0-0.1,0-0.2,0-0.2
				c0.2,0.3,0.5,0.4,0.8,0.7c0.3,0.4,0.8,0.6,1.1,1c6.6,5.8,14.7,9,19.7,10.6c0.2,0.1,0.3,0.1,0.5,0.1c0.4,0.2,0.7,0.2,1,0.3
				c1.1,0.4,2.1,0.6,2.7,0.7c0.2,0.1,0.3,0.1,0.4,0.1c0.1,0,0.1,0,0.1,0l0,0c0,0-4.2,10.8,8.6,31.5c12.8,20.7,76.7,42.9,107.6,38.9
				c30.9-3.9,30.9-23.8,30.9-23.8c4.7,10.8,5,20,6.2,21.9c0.7,1.1,3.4,1.4,6.6,1C261.8,297.2,261.9,297.6,262,297.9z"/>
			
				<radialGradient id="SVGID_4_" cx="170.866" cy="152.3151" r="206.1482" gradientTransform="matrix(0.995 -9.965619e-02 -9.965619e-02 -0.995 14.0689 413.2022)" gradientUnits="userSpaceOnUse">
				<stop  offset="0" style="stop-color:#B1F000"/>
				<stop  offset="0.9944" style="stop-color:#6A9A00"/>
			</radialGradient>
			<path class="st18" d="M247.3,298.8c-17.7,1.8-57.2,10.6-114.4-13.9c-35.5-15.2-51.8-54.8-56.3-67.4c3.5,9.8,13.6,38.6,45.3,59.8
				C163.5,305,224.8,301.9,247.3,298.8z"/>
			<path class="st16" d="M139,244c0,0,6.7,27,14.5,39C153.5,283,145.8,274.4,139,244z"/>
			<path class="st16" d="M174.7,237.5c0,0,8.4,33.2,18.6,56.6C193.4,294.2,179.4,265.1,174.7,237.5z"/>
			<path class="st16" d="M209.6,241.7c0,0,1.1,29.5,10.5,57.7C220.1,299.4,212.5,270.1,209.6,241.7z"/>
			<path class="st16" d="M122.9,269.4c0,0-11.5-27-11-39C111.8,230.4,110.4,245,122.9,269.4z"/>
		</g>
		<g>
			
				<radialGradient id="SVGID_5_" cx="190.6147" cy="258.4368" r="4.063" gradientTransform="matrix(0.995 -9.965619e-02 -0.1011 -1.0097 26.5156 537.4767)" gradientUnits="userSpaceOnUse">
				<stop  offset="0" style="stop-color:#F3F300"/>
				<stop  offset="0.5168" style="stop-color:#81D300"/>
				<stop  offset="0.8911" style="stop-color:#1C8D0B"/>
			</radialGradient>
			<path class="st19" d="M192.3,255.1c0.2,1.6-1,2.9-2.5,3.1c-1.6,0.2-2.9-1-3.1-2.5c-0.2-1.6,1-2.9,2.5-3.1
				C190.8,252.4,192.1,253.6,192.3,255.1z"/>
			<path class="st20" d="M186.9,254.7c0,0,0.5-1.9,2.3-2c1.7-0.2,2.7,1.2,2.7,1.2s-1.1-1.3-2.9-1
				C187.3,253.3,186.9,254.7,186.9,254.7z"/>
			<g>
				
					<linearGradient id="SVGID_6_" gradientUnits="userSpaceOnUse" x1="190.2858" y1="253.1628" x2="190.2858" y2="259.3539" gradientTransform="matrix(0.995 -9.965619e-02 9.965619e-02 0.995 -25.3818 19.3046)">
					<stop  offset="0" style="stop-color:#ABC200"/>
					<stop  offset="0.9944" style="stop-color:#0A6D04"/>
				</linearGradient>
				<path class="st21" d="M189.8,258.5c-1.7,0.2-3.2-1.1-3.4-2.8c-0.2-1.7,1.1-3.2,2.8-3.4s3.2,1.1,3.4,2.8
					C192.8,256.8,191.5,258.3,189.8,258.5z M189.2,252.6c-1.5,0.1-2.7,1.6-2.5,3.1c0.1,1.5,1.6,2.7,3.1,2.5c1.5-0.1,2.7-1.6,2.5-3.1
					C192.1,253.6,190.8,252.4,189.2,252.6z"/>
			</g>
			<path class="st20" d="M187.5,257.3c0,0,1-1.8,2.6-2c1.6-0.2,2,1.1,2,1.1S190.7,259.6,187.5,257.3z"/>
			<path class="st10" d="M189.3,252.6l0.3,0.6c0,0,1,0,1.6,0.3l0-0.3C191.2,253.2,190.3,252.5,189.3,252.6z"/>
			<path class="st10" d="M190.6,257.9l-0.2-0.3c0,0,0.9-0.5,1.3-1.1l0.4,0.3C192,256.7,191.5,257.6,190.6,257.9z"/>
		</g>
		<g>
			
				<radialGradient id="SVGID_7_" cx="202.9618" cy="265.295" r="4.0631" gradientTransform="matrix(0.995 -9.965619e-02 -0.1011 -1.0097 26.5156 537.4767)" gradientUnits="userSpaceOnUse">
				<stop  offset="0" style="stop-color:#F3F300"/>
				<stop  offset="0.5168" style="stop-color:#81D300"/>
				<stop  offset="0.8911" style="stop-color:#1C8D0B"/>
			</radialGradient>
			<path class="st22" d="M203.9,247c0.2,1.6-1,2.9-2.5,3.1c-1.6,0.2-2.9-1-3.1-2.5c-0.2-1.6,1-2.9,2.5-3.1
				C202.4,244.3,203.8,245.4,203.9,247z"/>
			<path class="st20" d="M198.5,246.6c0,0,0.5-1.9,2.3-2c1.7-0.2,2.7,1.2,2.7,1.2s-1.1-1.3-2.9-1
				C198.8,245.1,198.5,246.6,198.5,246.6z"/>
			<g>
				
					<linearGradient id="SVGID_8_" gradientUnits="userSpaceOnUse" x1="202.6858" y1="246.3224" x2="202.6858" y2="252.5136" gradientTransform="matrix(0.995 -9.965619e-02 9.965619e-02 0.995 -25.3818 19.3046)">
					<stop  offset="0" style="stop-color:#ABC200"/>
					<stop  offset="0.9944" style="stop-color:#0A6D04"/>
				</linearGradient>
				<path class="st23" d="M201.5,250.4c-1.7,0.2-3.2-1.1-3.4-2.8c-0.2-1.7,1.1-3.2,2.8-3.4c1.7-0.2,3.2,1.1,3.4,2.8
					C204.4,248.6,203.1,250.2,201.5,250.4z M200.9,244.5c-1.5,0.1-2.7,1.6-2.5,3.1c0.1,1.5,1.6,2.7,3.1,2.5c1.5-0.1,2.7-1.6,2.5-3.1
					C203.8,245.4,202.4,244.3,200.9,244.5z"/>
			</g>
			<path class="st20" d="M199,249.2c0,0,1-1.8,2.6-2c1.6-0.2,2,1.1,2,1.1S202.3,251.4,199,249.2z"/>
			<path class="st10" d="M201,244.5l0.3,0.6c0,0,1,0,1.6,0.3l0-0.3C202.7,245.1,202,244.4,201,244.5z"/>
			<path class="st10" d="M202.2,249.7l-0.2-0.3c0,0,0.9-0.5,1.3-1.1l0.4,0.3C203.6,248.5,203.2,249.4,202.2,249.7z"/>
		</g>
		<g>
			
				<radialGradient id="SVGID_9_" cx="223.0043" cy="229.9993" r="7.1949" gradientTransform="matrix(0.995 -9.965619e-02 -0.1011 -1.0097 26.5156 537.4767)" gradientUnits="userSpaceOnUse">
				<stop  offset="0" style="stop-color:#F3F300"/>
				<stop  offset="0.5168" style="stop-color:#81D300"/>
				<stop  offset="0.8911" style="stop-color:#1C8D0B"/>
			</radialGradient>
			<circle class="st24" cx="224.2" cy="279.2" r="5"/>
			<path class="st20" d="M219.6,278.1c0,0,1-3.3,4.1-3.6c3.1-0.3,4.8,2.1,4.8,2.1s-1.9-2.3-5.1-1.7
				C220.3,275.5,219.6,278.1,219.6,278.1z"/>
			<g>
				
					<linearGradient id="SVGID_10_" gradientUnits="userSpaceOnUse" x1="222.4858" y1="277.982" x2="222.4858" y2="288.9455" gradientTransform="matrix(0.995 -9.965619e-02 9.965619e-02 0.995 -25.3818 19.3046)">
					<stop  offset="0" style="stop-color:#ABC200"/>
					<stop  offset="0.9944" style="stop-color:#0A6D04"/>
				</linearGradient>
				<path class="st25" d="M224.8,284.7c-3,0.3-5.7-1.9-6-4.9c-0.3-3,1.9-5.7,4.9-6c3-0.3,5.7,1.9,6,4.9
					C230,281.8,227.8,284.4,224.8,284.7z M223.8,274.3c-2.7,0.3-4.8,2.7-4.5,5.5c0.3,2.7,2.7,4.8,5.5,4.5c2.7-0.3,4.8-2.7,4.5-5.5
					C229,276,226.4,274.1,223.8,274.3z"/>
			</g>
			<path class="st20" d="M220.6,282.6c0,0,1.8-3.2,4.7-3.5s3.5,2.1,3.5,2.1S226.3,286.6,220.6,282.6z"/>
			<path class="st10" d="M224,274.3l0.4,1.1c0,0,1.8,0,2.9,0.6l-0.2-0.6C227.1,275.4,225.7,274,224,274.3z"/>
			<path class="st10" d="M226.1,283.6l-0.3-0.5c0,0,1.4-0.8,2.2-1.9l0.6,0.4C228.6,281.6,227.7,283,226.1,283.6z"/>
		</g>
		<g>
			
				<radialGradient id="SVGID_11_" cx="106.3099" cy="274.6246" r="4.0631" gradientTransform="matrix(0.995 -9.965619e-02 -0.1011 -1.0097 26.5156 537.4767)" gradientUnits="userSpaceOnUse">
				<stop  offset="0" style="stop-color:#F3F300"/>
				<stop  offset="0.5168" style="stop-color:#81D300"/>
				<stop  offset="0.8911" style="stop-color:#1C8D0B"/>
			</radialGradient>
			<circle class="st26" cx="104" cy="247.4" r="2.8"/>
			<path class="st20" d="M101.4,246.8c0,0,0.5-1.9,2.3-2c1.7-0.2,2.7,1.2,2.7,1.2s-1.1-1.3-2.9-1
				C101.8,245.4,101.4,246.8,101.4,246.8z"/>
			<g>
				
					<linearGradient id="SVGID_12_" gradientUnits="userSpaceOnUse" x1="105.9858" y1="236.7902" x2="105.9858" y2="242.9814" gradientTransform="matrix(0.995 -9.965619e-02 9.965619e-02 0.995 -25.3818 19.3046)">
					<stop  offset="0" style="stop-color:#ABC200"/>
					<stop  offset="0.9944" style="stop-color:#0A6D04"/>
				</linearGradient>
				<path class="st27" d="M104.3,250.5c-1.7,0.2-3.2-1.1-3.4-2.8c-0.2-1.7,1.1-3.2,2.8-3.4c1.7-0.2,3.2,1.1,3.4,2.8
					C107.2,248.8,106,250.4,104.3,250.5z M103.7,244.7c-1.5,0.1-2.7,1.6-2.5,3.1s1.6,2.7,3.1,2.5c1.5-0.1,2.7-1.6,2.5-3.1
					C106.6,245.7,105.3,244.5,103.7,244.7z"/>
			</g>
			<path class="st20" d="M102,249.4c0,0,1-1.8,2.6-2c1.6-0.2,2,1.1,2,1.1S105.2,251.5,102,249.4z"/>
			<path class="st10" d="M103.8,244.7l0.3,0.6c0,0,1,0,1.6,0.3l0-0.3C105.7,245.3,104.8,244.6,103.8,244.7z"/>
			<path class="st10" d="M105,249.9l-0.2-0.3c0,0,0.9-0.5,1.3-1.1l0.4,0.3C106.4,248.8,106,249.6,105,249.9z"/>
		</g>
		<g>
			
				<radialGradient id="SVGID_13_" cx="185.3165" cy="251.2029" r="1.4287" gradientTransform="matrix(0.995 -9.965619e-02 -0.1011 -1.0097 26.5156 537.4767)" gradientUnits="userSpaceOnUse">
				<stop  offset="0" style="stop-color:#F3F300"/>
				<stop  offset="0.5168" style="stop-color:#81D300"/>
				<stop  offset="0.8911" style="stop-color:#1C8D0B"/>
			</radialGradient>
			<circle class="st28" cx="185.3" cy="264.6" r="1"/>
			<path class="st20" d="M184.4,264.4c0,0,0.2-0.6,0.8-0.7c0.6-0.1,0.9,0.4,0.9,0.4s-0.3-0.5-1-0.3
				C184.5,263.9,184.4,264.4,184.4,264.4z"/>
			<g>
				
					<linearGradient id="SVGID_14_" gradientUnits="userSpaceOnUse" x1="185.1858" y1="264.0294" x2="185.1858" y2="266.2064" gradientTransform="matrix(0.995 -9.965619e-02 9.965619e-02 0.995 -25.3818 19.3046)">
					<stop  offset="0" style="stop-color:#ABC200"/>
					<stop  offset="0.9944" style="stop-color:#0A6D04"/>
				</linearGradient>
				<path class="st29" d="M185.4,265.7c-0.6,0.1-1.1-0.4-1.2-1c-0.1-0.6,0.4-1.1,1-1.2c0.6-0.1,1.1,0.4,1.2,1
					C186.5,265.1,186,265.7,185.4,265.7z M185.2,263.6c-0.5,0-1,0.5-0.9,1.1c0,0.5,0.5,1,1.1,0.9c0.5,0,1-0.5,0.9-1.1
					C186.2,263.9,185.8,263.6,185.2,263.6z"/>
			</g>
			<path class="st20" d="M184.6,265.3c0,0,0.3-0.6,0.9-0.7c0.6-0.1,0.7,0.4,0.7,0.4S185.7,266.1,184.6,265.3z"/>
			<path class="st10" d="M185.3,263.6l0.1,0.2c0,0,0.4,0,0.6,0.1l0-0.1C185.9,263.9,185.6,263.6,185.3,263.6z"/>
			<path class="st10" d="M185.7,265.5L185.7,265.5c-0.1-0.1,0.2-0.2,0.4-0.4l0.1,0.1C186.1,265,186.1,265.4,185.7,265.5z"/>
		</g>
		<g>
			
				<radialGradient id="SVGID_15_" cx="231.7286" cy="231.9788" r="1.4287" gradientTransform="matrix(0.995 -9.965619e-02 -0.1011 -1.0097 26.5156 537.4767)" gradientUnits="userSpaceOnUse">
				<stop  offset="0" style="stop-color:#F3F300"/>
				<stop  offset="0.5168" style="stop-color:#81D300"/>
				<stop  offset="0.8911" style="stop-color:#1C8D0B"/>
			</radialGradient>
			<path class="st30" d="M234.4,279.3c0,0.5-0.3,1-0.9,1.1c-0.5,0-1-0.3-1.1-0.9c-0.1-0.6,0.3-1,0.9-1.1S234.3,278.7,234.4,279.3z"
				/>
			<path class="st20" d="M232.5,279.2c0,0,0.2-0.6,0.8-0.7c0.6-0.1,0.9,0.4,0.9,0.4s-0.3-0.5-1-0.3
				C232.6,278.7,232.5,279.2,232.5,279.2z"/>
			<g>
				
					<linearGradient id="SVGID_16_" gradientUnits="userSpaceOnUse" x1="231.5858" y1="283.5208" x2="231.5858" y2="285.6979" gradientTransform="matrix(0.995 -9.965619e-02 9.965619e-02 0.995 -25.3818 19.3046)">
					<stop  offset="0" style="stop-color:#ABC200"/>
					<stop  offset="0.9944" style="stop-color:#0A6D04"/>
				</linearGradient>
				<path class="st31" d="M233.5,280.5c-0.6,0.1-1.1-0.4-1.2-1c-0.1-0.6,0.4-1.1,1-1.2c0.6-0.1,1.1,0.4,1.2,1
					S234.1,280.4,233.5,280.5z M233.3,278.4c-0.5,0-1,0.5-0.9,1.1c0,0.5,0.5,1,1.1,0.9c0.5,0,1-0.5,0.9-1.1
					C234.3,278.7,233.9,278.4,233.3,278.4z"/>
			</g>
			<path class="st20" d="M232.7,280.1c0,0,0.3-0.6,0.9-0.7c0.6-0.1,0.7,0.4,0.7,0.4S233.9,280.9,232.7,280.1z"/>
			<path class="st10" d="M233.4,278.4l0.1,0.2c0,0,0.4,0,0.6,0.1l0-0.1C234,278.6,233.7,278.4,233.4,278.4z"/>
			<path class="st10" d="M233.8,280.3L233.8,280.3c-0.1-0.1,0.2-0.2,0.4-0.4l0.1,0.1C234.4,279.8,234.2,280.1,233.8,280.3z"/>
		</g>
	</g>
</g>
<g id="Bubbles" class="st0">
	<g class="st2">
		
			<radialGradient id="SVGID_17_" cx="293.9695" cy="434.8462" r="9.7256" gradientTransform="matrix(1 0 0 -1.0148 0 520.7645)" gradientUnits="userSpaceOnUse">
			<stop  offset="0" style="stop-color:#F3F3F7"/>
			<stop  offset="0.5168" style="stop-color:#81ACE2"/>
			<stop  offset="0.8911" style="stop-color:#4B63D3"/>
		</radialGradient>
		<path class="st32" d="M300,74.3c0,3.7-3,6.7-6.7,6.7s-6.7-3-6.7-6.7s3-6.7,6.7-6.7C297,67.6,300,70.6,300,74.3z"/>
		<path class="st10" d="M287.2,72.1c0,0,1.7-4.3,5.9-4.3s6.3,3.5,6.3,3.5s-2.3-3.4-6.6-3C288.4,68.7,287.2,72.1,287.2,72.1z"/>
		<g>
			
				<linearGradient id="SVGID_18_" gradientUnits="userSpaceOnUse" x1="293.2889" y1="314.5423" x2="293.2889" y2="328.5619" gradientTransform="matrix(1 0 0 -1 0 395.8683)">
				<stop  offset="0" style="stop-color:#BFC2F4"/>
				<stop  offset="0.9944" style="stop-color:#4860C4"/>
			</linearGradient>
			<path class="st33" d="M293.3,81.3c-3.9,0-7-3.1-7-7s3.1-7,7-7s7,3.1,7,7S297.1,81.3,293.3,81.3z M293.3,67.9
				c-3.5,0-6.4,2.9-6.4,6.4s2.9,6.4,6.4,6.4s6.4-2.9,6.4-6.4S296.8,67.9,293.3,67.9z"/>
		</g>
		<path class="st34" d="M287.9,78.3c0,0,2.8-4,6.8-4c3.9,0,4.5,3.2,4.5,3.2S295,84.4,287.9,78.3z"/>
		<path class="st10" d="M293.5,67.6l0.4,1.5c0,0,2.4,0.3,3.8,1.2l-0.1-0.8C297.6,69.5,295.9,67.5,293.5,67.6z"/>
		<path class="st10" d="M295.1,80.3l-0.4-0.6c0,0,2.1-0.9,3.3-2.4l0.9,0.7C298.8,78,297.5,79.8,295.1,80.3z"/>
	</g>
	<g class="st2">
		
			<radialGradient id="SVGID_19_" cx="225.7482" cy="416.3412" r="5.8909" gradientTransform="matrix(1 0 0 -1.0148 0 520.7645)" gradientUnits="userSpaceOnUse">
			<stop  offset="0" style="stop-color:#F3F3F7"/>
			<stop  offset="0.5168" style="stop-color:#81ACE2"/>
			<stop  offset="0.8911" style="stop-color:#4B63D3"/>
		</radialGradient>
		<path class="st35" d="M229.4,95.1c0,2.2-1.8,4.1-4.1,4.1c-2.2,0-4.1-1.8-4.1-4.1c0-2.2,1.8-4.1,4.1-4.1
			C227.6,91.1,229.4,92.9,229.4,95.1z"/>
		<path class="st10" d="M221.6,93.8c0,0,1-2.6,3.6-2.6c2.5,0,3.8,2.1,3.8,2.1s-1.4-2-4-1.8C222.4,91.7,221.6,93.8,221.6,93.8z"/>
		<g>
			
				<linearGradient id="SVGID_20_" gradientUnits="userSpaceOnUse" x1="225.2889" y1="296.377" x2="225.2889" y2="305.0952" gradientTransform="matrix(1 0 0 -1 0 395.8683)">
				<stop  offset="0" style="stop-color:#BFC2F4"/>
				<stop  offset="0.9944" style="stop-color:#4860C4"/>
			</linearGradient>
			<path class="st36" d="M225.3,99.5c-2.4,0-4.4-2-4.4-4.4s2-4.4,4.4-4.4s4.4,2,4.4,4.4S227.7,99.5,225.3,99.5z M225.3,91.3
				c-2.1,0-3.8,1.7-3.8,3.8c0,2.1,1.7,3.8,3.8,3.8s3.8-1.7,3.8-3.8S227.4,91.3,225.3,91.3z"/>
		</g>
		<path class="st34" d="M222.1,97.6c0,0,1.7-2.4,4.1-2.4c2.4,0,2.7,2,2.7,2S226.4,101.2,222.1,97.6z"/>
		<path class="st10" d="M225.5,91.1l0.2,0.9c0,0,1.5,0.2,2.3,0.7v-0.5C228,92.2,226.9,91,225.5,91.1z"/>
		<path class="st10" d="M226.5,98.8l-0.3-0.4c0,0,1.2-0.6,2-1.4l0.5,0.4C228.7,97.4,227.9,98.5,226.5,98.8z"/>
	</g>
	<g class="st2">
		
			<radialGradient id="SVGID_21_" cx="43.0698" cy="194.7146" r="5.8909" gradientTransform="matrix(1 0 0 -1.0148 0 520.7645)" gradientUnits="userSpaceOnUse">
			<stop  offset="0" style="stop-color:#F3F3F7"/>
			<stop  offset="0.5168" style="stop-color:#81ACE2"/>
			<stop  offset="0.8911" style="stop-color:#4B63D3"/>
		</radialGradient>
		<path class="st37" d="M46.7,320c0,2.2-1.8,4.1-4.1,4.1s-4.1-1.8-4.1-4.1c0-2.2,1.8-4.1,4.1-4.1S46.7,317.8,46.7,320z"/>
		<path class="st10" d="M39,318.7c0,0,1-2.6,3.6-2.6c2.5,0,3.8,2.1,3.8,2.1s-1.4-2-4-1.8C39.7,316.6,39,318.7,39,318.7z"/>
		<g>
			
				<linearGradient id="SVGID_22_" gradientUnits="userSpaceOnUse" x1="42.5889" y1="71.4617" x2="42.5889" y2="80.1799" gradientTransform="matrix(1 0 0 -1 0 395.8683)">
				<stop  offset="0" style="stop-color:#BFC2F4"/>
				<stop  offset="0.9944" style="stop-color:#4860C4"/>
			</linearGradient>
			<path class="st38" d="M42.6,324.4c-2.4,0-4.4-2-4.4-4.4s2-4.4,4.4-4.4s4.4,2,4.4,4.4C47,322.4,45,324.4,42.6,324.4z M42.6,316.2
				c-2.1,0-3.8,1.7-3.8,3.8c0,2.1,1.7,3.8,3.8,3.8c2.1,0,3.8-1.7,3.8-3.8C46.4,317.9,44.7,316.2,42.6,316.2z"/>
		</g>
		<path class="st34" d="M39.4,322.5c0,0,1.7-2.4,4.1-2.4s2.7,2,2.7,2S43.7,326.1,39.4,322.5z"/>
		<path class="st10" d="M42.8,316l0.2,0.9c0,0,1.5,0.2,2.3,0.7v-0.5C45.3,317.1,44.3,315.9,42.8,316z"/>
		<path class="st10" d="M43.8,323.7l-0.3-0.4c0,0,1.2-0.6,2-1.4l0.5,0.4C46,322.3,45.2,323.4,43.8,323.7z"/>
	</g>
	<g class="st2">
		
			<radialGradient id="SVGID_23_" cx="306.018" cy="368.5334" r="7.1502" gradientTransform="matrix(1 0 0 -1.0148 0 520.7645)" gradientUnits="userSpaceOnUse">
			<stop  offset="0" style="stop-color:#F3F3F7"/>
			<stop  offset="0.5168" style="stop-color:#81ACE2"/>
			<stop  offset="0.8911" style="stop-color:#4B63D3"/>
		</radialGradient>
		<path class="st39" d="M310.4,143c0,2.7-2.2,4.9-4.9,4.9s-4.9-2.2-4.9-4.9s2.2-4.9,4.9-4.9C308.2,138,310.4,140.2,310.4,143z"/>
		<path class="st10" d="M301,141.3c0,0,1.3-3.1,4.3-3.1s4.6,2.6,4.6,2.6s-1.7-2.5-4.9-2.2C301.9,138.8,301,141.3,301,141.3z"/>
		<g>
			
				<linearGradient id="SVGID_24_" gradientUnits="userSpaceOnUse" x1="305.4889" y1="247.6617" x2="305.4889" y2="258.1211" gradientTransform="matrix(1 0 0 -1 0 395.8683)">
				<stop  offset="0" style="stop-color:#BFC2F4"/>
				<stop  offset="0.9944" style="stop-color:#4860C4"/>
			</linearGradient>
			<path class="st40" d="M305.5,148.2c-2.9,0-5.2-2.3-5.2-5.2s2.3-5.2,5.2-5.2s5.2,2.3,5.2,5.2S308.4,148.2,305.5,148.2z
				 M305.5,138.3c-2.6,0-4.7,2.1-4.7,4.7s2.1,4.7,4.7,4.7c2.6,0,4.7-2.1,4.7-4.7S308.1,138.3,305.5,138.3z"/>
		</g>
		<path class="st34" d="M301.5,145.9c0,0,2.1-3,5-3s3.3,2.4,3.3,2.4S306.8,150.4,301.5,145.9z"/>
		<path class="st10" d="M305.7,138l0.3,1.1c0,0,1.8,0.2,2.8,0.9l-0.1-0.6C308.7,139.4,307.5,138,305.7,138z"/>
		<path class="st10" d="M306.9,147.4l-0.3-0.5c0,0,1.5-0.7,2.4-1.7l0.6,0.5C309.6,145.7,308.6,147,306.9,147.4z"/>
	</g>
	<g class="st2">
		
			<radialGradient id="SVGID_25_" cx="290.4501" cy="300.3476" r="4.0631" gradientTransform="matrix(1 0 0 -1.0148 0 520.7645)" gradientUnits="userSpaceOnUse">
			<stop  offset="0" style="stop-color:#F3F3F7"/>
			<stop  offset="0.5168" style="stop-color:#81ACE2"/>
			<stop  offset="0.8911" style="stop-color:#4B63D3"/>
		</radialGradient>
		<path class="st41" d="M293,213.8c0,1.6-1.3,2.8-2.8,2.8c-1.6,0-2.8-1.3-2.8-2.8c0-1.6,1.3-2.8,2.8-2.8
			C291.7,211,293,212.3,293,213.8z"/>
		<path class="st10" d="M287.6,212.9c0,0,0.7-1.8,2.5-1.8c1.7,0,2.6,1.5,2.6,1.5s-1-1.4-2.8-1.3
			C288.1,211.4,287.6,212.9,287.6,212.9z"/>
		<g>
			
				<linearGradient id="SVGID_26_" gradientUnits="userSpaceOnUse" x1="290.1889" y1="178.9617" x2="290.1889" y2="185.1529" gradientTransform="matrix(1 0 0 -1 0 395.8683)">
				<stop  offset="0" style="stop-color:#BFC2F4"/>
				<stop  offset="0.9944" style="stop-color:#4860C4"/>
			</linearGradient>
			<path class="st42" d="M290.2,216.9c-1.7,0-3.1-1.4-3.1-3.1c0-1.7,1.4-3.1,3.1-3.1c1.7,0,3.1,1.4,3.1,3.1S291.9,216.9,290.2,216.9
				z M290.2,211.3c-1.4,0-2.5,1.1-2.5,2.5s1.1,2.5,2.5,2.5s2.5-1.1,2.5-2.5S291.5,211.3,290.2,211.3z"/>
		</g>
		<path class="st34" d="M287.9,215.5c0,0,1.2-1.7,2.8-1.7s1.9,1.3,1.9,1.3S290.9,218,287.9,215.5z"/>
		<path class="st10" d="M290.3,211l0.2,0.6c0,0,1,0.1,1.6,0.5v-0.3C292,211.8,291.3,211,290.3,211z"/>
		<path class="st10" d="M290.9,216.3l-0.2-0.3c0,0,0.9-0.4,1.4-1l0.4,0.3C292.5,215.3,291.9,216.1,290.9,216.3z"/>
	</g>
	<g class="st2">
		
			<radialGradient id="SVGID_27_" cx="24.2363" cy="206.2704" r="4.063" gradientTransform="matrix(1 0 0 -1.0148 0 520.7645)" gradientUnits="userSpaceOnUse">
			<stop  offset="0" style="stop-color:#F3F3F7"/>
			<stop  offset="0.5168" style="stop-color:#81ACE2"/>
			<stop  offset="0.8911" style="stop-color:#4B63D3"/>
		</radialGradient>
		<path class="st43" d="M26.8,309.3c0,1.6-1.3,2.8-2.8,2.8s-2.8-1.3-2.8-2.8c0-1.6,1.3-2.8,2.8-2.8S26.8,307.7,26.8,309.3z"/>
		<path class="st10" d="M21.4,308.4c0,0,0.7-1.8,2.5-1.8s2.6,1.5,2.6,1.5s-1-1.4-2.8-1.3C21.9,306.9,21.4,308.4,21.4,308.4z"/>
		<g>
			
				<linearGradient id="SVGID_28_" gradientUnits="userSpaceOnUse" x1="23.8889" y1="83.4898" x2="23.8889" y2="89.681" gradientTransform="matrix(1 0 0 -1 0 395.8683)">
				<stop  offset="0" style="stop-color:#BFC2F4"/>
				<stop  offset="0.9944" style="stop-color:#4860C4"/>
			</linearGradient>
			<path class="st44" d="M23.9,312.4c-1.7,0-3.1-1.4-3.1-3.1s1.4-3.1,3.1-3.1s3.1,1.4,3.1,3.1S25.7,312.4,23.9,312.4z M23.9,306.8
				c-1.4,0-2.5,1.1-2.5,2.5s1.1,2.5,2.5,2.5s2.5-1.1,2.5-2.5C26.5,307.9,25.3,306.8,23.9,306.8z"/>
		</g>
		<path class="st34" d="M21.7,311c0,0,1.2-1.7,2.8-1.7s1.9,1.3,1.9,1.3S24.7,313.5,21.7,311z"/>
		<path class="st10" d="M24.1,306.5l0.2,0.6c0,0,1,0.1,1.6,0.5v-0.3C25.8,307.3,25.1,306.4,24.1,306.5z"/>
		<path class="st10" d="M24.7,311.8l-0.2-0.3c0,0,0.9-0.4,1.4-1l0.4,0.3C26.3,310.8,25.7,311.6,24.7,311.8z"/>
	</g>
	<g class="st2">
		
			<radialGradient id="SVGID_29_" cx="337.7838" cy="333.9272" r="3.7289" gradientTransform="matrix(1 0 0 -1.0148 0 520.7645)" gradientUnits="userSpaceOnUse">
			<stop  offset="0" style="stop-color:#F3F3F7"/>
			<stop  offset="0.5168" style="stop-color:#81ACE2"/>
			<stop  offset="0.8911" style="stop-color:#4B63D3"/>
		</radialGradient>
		<path class="st45" d="M340.1,179.9c0,1.4-1.2,2.6-2.6,2.6c-1.4,0-2.6-1.2-2.6-2.6c0-1.4,1.2-2.6,2.6-2.6S340.1,178.5,340.1,179.9z
			"/>
		<path class="st10" d="M335.2,179.1c0,0,0.7-1.6,2.3-1.6s2.4,1.3,2.4,1.3s-0.9-1.3-2.5-1.2C335.6,177.7,335.2,179.1,335.2,179.1z"
			/>
		<g>
			
				<linearGradient id="SVGID_30_" gradientUnits="userSpaceOnUse" x1="337.4889" y1="213.113" x2="337.4889" y2="218.7951" gradientTransform="matrix(1 0 0 -1 0 395.8683)">
				<stop  offset="0" style="stop-color:#BFC2F4"/>
				<stop  offset="0.9944" style="stop-color:#4860C4"/>
			</linearGradient>
			<path class="st46" d="M337.5,182.7c-1.6,0-2.8-1.3-2.8-2.8s1.3-2.8,2.8-2.8c1.6,0,2.8,1.3,2.8,2.8S339.1,182.7,337.5,182.7z
				 M337.5,177.6c-1.3,0-2.3,1-2.3,2.3s1,2.3,2.3,2.3s2.3-1,2.3-2.3S338.8,177.6,337.5,177.6z"/>
		</g>
		<path class="st34" d="M335.5,181.5c0,0,1.1-1.5,2.6-1.5s1.7,1.2,1.7,1.2S338.2,183.8,335.5,181.5z"/>
		<path class="st10" d="M337.6,177.3l0.1,0.6c0,0,0.9,0.1,1.5,0.4V178C339.2,178.1,338.5,177.3,337.6,177.3z"/>
		<path class="st10" d="M338.2,182.2L338,182c0,0,0.8-0.4,1.3-0.9l0.3,0.3C339.7,181.3,339.2,182,338.2,182.2z"/>
	</g>
	<g class="st2">
		
			<radialGradient id="SVGID_31_" cx="46.1854" cy="374.4924" r="4.0631" gradientTransform="matrix(1 0 0 -1.0148 0 520.7645)" gradientUnits="userSpaceOnUse">
			<stop  offset="0" style="stop-color:#F3F3F7"/>
			<stop  offset="0.5168" style="stop-color:#81ACE2"/>
			<stop  offset="0.8911" style="stop-color:#4B63D3"/>
		</radialGradient>
		<circle class="st47" cx="45.9" cy="138.6" r="2.8"/>
		<path class="st10" d="M43.4,137.6c0,0,0.7-1.8,2.5-1.8c1.7,0,2.6,1.5,2.6,1.5s-1-1.4-2.8-1.3C43.9,136.2,43.4,137.6,43.4,137.6z"
			/>
		<g>
			
				<linearGradient id="SVGID_32_" gradientUnits="userSpaceOnUse" x1="45.8889" y1="254.2009" x2="45.8889" y2="260.3928" gradientTransform="matrix(1 0 0 -1 0 395.8683)">
				<stop  offset="0" style="stop-color:#BFC2F4"/>
				<stop  offset="0.9944" style="stop-color:#4860C4"/>
			</linearGradient>
			<path class="st48" d="M45.9,141.7c-1.7,0-3.1-1.4-3.1-3.1c0-1.7,1.4-3.1,3.1-3.1s3.1,1.4,3.1,3.1C49,140.3,47.6,141.7,45.9,141.7
				z M45.9,136c-1.4,0-2.5,1.1-2.5,2.5s1.1,2.5,2.5,2.5s2.5-1.1,2.5-2.5C48.4,137.2,47.3,136,45.9,136z"/>
		</g>
		<path class="st34" d="M43.6,140.3c0,0,1.2-1.7,2.8-1.7s1.9,1.3,1.9,1.3S46.6,142.8,43.6,140.3z"/>
		<path class="st10" d="M46,135.8l0.2,0.6c0,0,1,0.1,1.6,0.5v-0.3C47.7,136.5,47,135.7,46,135.8z"/>
		<path class="st10" d="M46.7,141.1l-0.2-0.3c0,0,0.9-0.4,1.4-1l0.4,0.3C48.2,140.1,47.7,140.9,46.7,141.1z"/>
	</g>
	<g class="st2">
		
			<radialGradient id="SVGID_33_" cx="26.6763" cy="360.7521" r="6.4482" gradientTransform="matrix(1 0 0 -1.0148 0 520.7645)" gradientUnits="userSpaceOnUse">
			<stop  offset="0" style="stop-color:#F3F3F7"/>
			<stop  offset="0.5168" style="stop-color:#81ACE2"/>
			<stop  offset="0.8911" style="stop-color:#4B63D3"/>
		</radialGradient>
		<circle class="st49" cx="26.2" cy="151.2" r="4.5"/>
		<path class="st10" d="M22.2,149.8c0,0,1.1-2.8,3.9-2.8s4.2,2.3,4.2,2.3s-1.5-2.2-4.4-2C23,147.5,22.2,149.8,22.2,149.8z"/>
		<g>
			
				<linearGradient id="SVGID_34_" gradientUnits="userSpaceOnUse" x1="26.1889" y1="239.7069" x2="26.1889" y2="249.5335" gradientTransform="matrix(1 0 0 -1 0 395.8683)">
				<stop  offset="0" style="stop-color:#BFC2F4"/>
				<stop  offset="0.9944" style="stop-color:#4860C4"/>
			</linearGradient>
			<path class="st50" d="M26.2,156.2c-2.7,0-4.9-2.2-4.9-4.9s2.2-4.9,4.9-4.9c2.7,0,4.9,2.2,4.9,4.9S28.9,156.2,26.2,156.2z
				 M26.2,147.2c-2.2,0-4,1.8-4,4s1.8,4,4,4s4-1.8,4-4S28.4,147.2,26.2,147.2z"/>
		</g>
		<path class="st34" d="M22.6,153.9c0,0,1.9-2.7,4.5-2.7s3,2.1,3,2.1S27.4,157.9,22.6,153.9z"/>
		<path class="st10" d="M26.4,146.8l0.3,1c0,0,1.6,0.2,2.5,0.8v-0.5C29.1,148,28,146.7,26.4,146.8z"/>
		<path class="st10" d="M27.5,155.2l-0.3-0.4c0,0,1.4-0.6,2.2-1.6l0.6,0.5C29.9,153.7,29,154.9,27.5,155.2z"/>
	</g>
</g>
<g id="leaf">
	<g>
		<polygon class="st13" points="295.8,211.3 295.5,206.3 297.3,206.5 298.2,211.7 		"/>
		<path class="st13" d="M319.6,175.1c0,0-23.4,3.4-30.3,15.1c-6.9,11.7,6.3,16,6.3,16S304.6,185.3,319.6,175.1z"/>
		
			<radialGradient id="SVGID_35_" cx="278.7499" cy="91.0847" r="27.5176" gradientTransform="matrix(0.9984 -5.620000e-02 -5.620000e-02 -0.9984 13.8035 270.5298)" gradientUnits="userSpaceOnUse">
			<stop  offset="0" style="stop-color:#C2D800"/>
			<stop  offset="0.9944" style="stop-color:#6A9A00"/>
		</radialGradient>
		<path class="st51" d="M295.5,206.3c0,0-4-30.9-21.6-55.3c0,0,16.8,10.9,24.6,25.3C306.4,190.6,295.5,206.3,295.5,206.3z"/>
		
			<radialGradient id="SVGID_36_" cx="295.261" cy="70.7938" r="16.9129" gradientTransform="matrix(0.9984 -5.620000e-02 -5.620000e-02 -0.9984 13.8035 270.5298)" gradientUnits="userSpaceOnUse">
			<stop  offset="0" style="stop-color:#C2D800"/>
			<stop  offset="0.9944" style="stop-color:#6A9A00"/>
		</radialGradient>
		<path class="st52" d="M295.5,206.3c0,0-7.6-4.1-3.2-15.5c4.4-11.5,27.2-15.6,27.2-15.6s-19.2,19.8-22.2,31.3L295.5,206.3z"/>
		<g>
			<g>
				
					<rect x="295.5" y="189.9" transform="matrix(0.8748 -0.4844 0.4844 0.8748 -58.2242 167.8188)" class="st14" width="0.2" height="13.4"/>
			</g>
			<g>
				<polygon class="st14" points="300.4,199.6 300.2,199.6 297.1,184.5 297.2,184.5 				"/>
			</g>
			<g>
				<polygon class="st14" points="305.7,191.8 305.5,191.8 304.8,179.8 305,179.8 				"/>
			</g>
			<g>
				<polygon class="st14" points="312,183.7 311.8,183.6 314.1,176.4 314.3,176.4 				"/>
			</g>
			<g>
				<polygon class="st14" points="288.5,178.9 288.3,178.8 293.3,168.5 293.5,168.6 				"/>
			</g>
			<g>
				<polygon class="st14" points="285.4,171.2 285.2,171.1 287.2,161.8 287.4,161.8 				"/>
			</g>
			<g>
				<polygon class="st14" points="281.8,163.6 281.6,163.6 282.2,157.2 282.3,157.3 				"/>
			</g>
			<g>
				<polygon class="st14" points="298.7,176.3 291.1,186.7 290.9,186.5 298.5,176.1 				"/>
			</g>
		</g>
		<path class="st53" d="M297.3,206.5c0,0,3.2-12.4,22.3-31.3C319.6,175.1,303.7,191.3,297.3,206.5z"/>
	</g>
	<g>
		<polygon class="st13" points="153.1,97.6 161.1,101.4 161.9,99.6 153.8,96.3 		"/>
		
			<radialGradient id="SVGID_37_" cx="142.6107" cy="489.8825" r="22.2052" gradientTransform="matrix(0.4328 -0.9015 -0.9015 -0.4328 502.1125 423.6011)" gradientUnits="userSpaceOnUse">
			<stop  offset="0" style="stop-color:#C2D800"/>
			<stop  offset="0.9944" style="stop-color:#6A9A00"/>
		</radialGradient>
		<path class="st54" d="M153.8,96.3c0,0,2.2-8.5-8.2-14.5c-10.4-6-28.6,1.1-37.9,6c0,0,16.1,6.7,29.2,12.1c9.7,4,16.3-2.3,16.3-2.3
			L153.8,96.3z"/>
		<g>
			<polygon class="st14" points="147.8,93 140.4,101 140.3,100.9 147.7,92.9 			"/>
		</g>
		<g>
			<polygon class="st14" points="141.1,90.3 133.1,98.4 133,98.3 140.9,90.2 			"/>
		</g>
		<g>
			<polygon class="st14" points="133.2,88 125.9,95.4 125.7,95.3 133.1,87.8 			"/>
		</g>
		<g>
			<polygon class="st14" points="125,86.8 118.8,92.5 118.6,92.3 124.9,86.6 			"/>
		</g>
		<g>
			<polygon class="st14" points="119.9,87.1 113.3,90.6 113.2,90.4 119.8,86.9 			"/>
		</g>
		<g>
			
				<rect x="116.8" y="83.4" transform="matrix(0.5333 -0.8459 0.8459 0.5333 -17.5962 138.6735)" class="st14" width="0.2" height="3.8"/>
		</g>
		<g>
			
				<rect x="126.6" y="79.7" transform="matrix(0.6127 -0.7903 0.7903 0.6127 -17.6296 132.8451)" class="st14" width="0.2" height="9.4"/>
		</g>
		<g>
			
				<rect x="138" y="79.2" transform="matrix(0.9649 -0.2625 0.2625 0.9649 -17.3104 39.2176)" class="st14" width="0.2" height="10.3"/>
		</g>
		<g>
			
				<rect x="143.6" y="80.3" transform="matrix(0.9768 -0.2142 0.2142 0.9768 -15.0567 32.7821)" class="st14" width="0.2" height="11.2"/>
		</g>
		<g>
			<polygon class="st14" points="150.5,94 150.3,94 146.5,82.4 146.7,82.4 			"/>
		</g>
		<path class="st53" d="M107.7,87.8c0,0,25.9-4.7,46.1,8.5C153.8,96.3,135.7,82.4,107.7,87.8z"/>
	</g>
	<g>
		<polygon class="st13" points="106.9,310.3 116.5,313.5 115.2,315.7 106.3,311.4 		"/>
		
			<radialGradient id="SVGID_38_" cx="42.62" cy="288.4138" r="20.226" gradientTransform="matrix(-0.486 0.817 -1.1945 -0.4018 435.0714 378.6058)" gradientUnits="userSpaceOnUse">
			<stop  offset="0" style="stop-color:#C2D800"/>
			<stop  offset="0.9944" style="stop-color:#6A9A00"/>
		</radialGradient>
		<path class="st55" d="M106.3,311.4c0,0-5.6,5.8-19.1,2.1c-13.5-3.7-21.6-19.3-24.7-27.8c0,0,18.6,7.1,33.6,12.9
			c11.1,4.3,10.9,11.8,10.9,11.8L106.3,311.4z"/>
		<g>
			<polygon class="st14" points="98.7,309.2 98.4,309.2 99.5,300.3 99.9,300.3 			"/>
		</g>
		<g>
			<polygon class="st14" points="91.1,306.2 90.8,306.2 91.5,296.9 91.9,296.9 			"/>
		</g>
		<g>
			<polygon class="st14" points="82.8,302.3 82.5,302.2 83.2,293.7 83.5,293.7 			"/>
		</g>
		<g>
			<polygon class="st14" points="75.4,297.6 75,297.5 75,290.5 75.4,290.6 			"/>
		</g>
		<g>
			<polygon class="st14" points="71.2,294.1 69.5,288.4 69.8,288.4 71.6,294 			"/>
		</g>
		<g>
			<polygon class="st14" points="70.2,293.7 65.4,292.5 65.4,292.3 70.3,293.5 			"/>
		</g>
		<g>
			<polygon class="st14" points="80,300.9 69.1,299 69.2,298.8 80.1,300.7 			"/>
		</g>
		<g>
			<polygon class="st14" points="78.3,309 78.1,308.8 88.9,305.5 89.1,305.7 			"/>
		</g>
		<g>
			<polygon class="st14" points="83.7,312.3 83.5,312.1 94.9,308.1 95.1,308.3 			"/>
		</g>
		<g>
			<polygon class="st14" points="88.6,314 88.5,313.8 101.6,310.3 101.7,310.5 			"/>
		</g>
		<path class="st53" d="M62.5,285.7c0,0,16.4,19.3,43.8,25.7C106.3,311.4,79.9,306.8,62.5,285.7z"/>
	</g>
	<g>
		<polygon class="st13" points="62.6,248.1 57.6,242.7 58.9,241.5 64.3,246.5 		"/>
		
			<radialGradient id="SVGID_39_" cx="16.8182" cy="193.1735" r="21.6952" gradientTransform="matrix(0.7294 -0.6841 -0.6841 -0.7294 169.3755 358.8127)" gradientUnits="userSpaceOnUse">
			<stop  offset="0" style="stop-color:#C2D800"/>
			<stop  offset="0.9944" style="stop-color:#6A9A00"/>
		</radialGradient>
		<path class="st56" d="M58.5,243.8c0,0-9.6,3.2-15.7-6.2c-7.4-11.4,10-40.4,10-40.4l8.5,46.7L58.5,243.8z"/>
		<g>
			<polygon class="st14" points="54,208.6 53.9,208.7 50.2,201.8 50.4,201.7 			"/>
		</g>
		<g>
			
				<rect x="51.3" y="205.1" transform="matrix(0.8329 -0.5534 0.5534 0.8329 -108.2668 63.7463)" class="st14" width="0.2" height="12.2"/>
		</g>
		<g>
			
				<rect x="48.4" y="211.7" transform="matrix(0.633 -0.7742 0.7742 0.633 -149.5881 116.8953)" class="st14" width="0.2" height="9"/>
		</g>
		<g>
			<polygon class="st14" points="51.5,226.8 42.4,220.8 42.5,220.6 51.6,226.7 			"/>
		</g>
		<g>
			<polygon class="st14" points="52.6,231.7 41.1,227.8 41.1,227.7 52.7,231.5 			"/>
		</g>
		<g>
			<polygon class="st14" points="56.3,236.8 42.3,236.6 42.3,236.4 56.4,236.6 			"/>
		</g>
		<g>
			
				<rect x="47.4" y="241.1" transform="matrix(0.9892 -0.1467 0.1467 0.9892 -34.8075 10.389)" class="st14" width="11.2" height="0.2"/>
		</g>
		<path class="st57" d="M61.3,243.7c0,0-5.8-3.4-10.1-11.1c-4.3-7.7,3.5-20.8,1.6-35.5L61.3,243.7z"/>
		<g>
			
				<rect x="55.7" y="230" transform="matrix(0.4916 -0.8708 0.8708 0.4916 -176.406 168.1365)" class="st58" width="0.2" height="10.3"/>
		</g>
		<g>
			<polygon class="st58" points="59,231.1 50.2,222.8 50.3,222.7 59.1,231 			"/>
		</g>
		<g>
			<polygon class="st58" points="57.7,223.5 57.6,223.7 51.2,216.8 51.4,216.7 			"/>
		</g>
	</g>
	<g>
		<polygon class="st13" points="63.2,53.8 67.1,46.4 69,47.4 65.6,55 		"/>
		
			<radialGradient id="SVGID_40_" cx="131.8657" cy="47.4084" r="24.7873" gradientTransform="matrix(0.8839 0.4677 0.4677 -0.8839 -35.3461 4.3503)" gradientUnits="userSpaceOnUse">
			<stop  offset="0" style="stop-color:#C2D800"/>
			<stop  offset="0.9944" style="stop-color:#6A9A00"/>
		</radialGradient>
		<path class="st59" d="M66.4,47.8c0,0-7-9.2,0.9-19.3c9.6-12.2,47.4-4.2,47.4-4.2L67.4,50.8L66.4,47.8z"/>
		<g>
			
				<rect x="101.2" y="26.4" transform="matrix(0.6846 -0.7289 0.7289 0.6846 13.9998 85.4504)" class="st14" width="9" height="0.2"/>
		</g>
		<g>
			
				<rect x="92.1" y="27.9" transform="matrix(0.6079 -0.794 0.794 0.6079 16.5488 89.6114)" class="st14" width="13.9" height="0.2"/>
		</g>
		<g>
			
				<rect x="87.3" y="26.4" transform="matrix(0.3473 -0.9378 0.9378 0.3473 35.4292 103.9721)" class="st14" width="10.2" height="0.2"/>
		</g>
		<g>
			<polygon class="st14" points="82.1,33.9 85.2,21.9 85.5,21.9 82.3,34 			"/>
		</g>
		<g>
			<polygon class="st14" points="77.3,36.9 77.1,23.1 77.3,23.1 77.5,36.9 			"/>
		</g>
		<g>
			<polygon class="st14" points="73.1,42.9 68.1,27.6 68.3,27.5 73.4,42.8 			"/>
		</g>
		<g>
			<rect x="67" y="34.5" transform="matrix(0.8879 -0.46 0.46 0.8879 -11.2947 35.4687)" class="st14" width="0.2" height="12.9"/>
		</g>
		<path class="st57" d="M67.5,50.8c0,0,1.6-7.5,8.3-15c6.7-7.5,23.8-4,39-11.5L67.5,50.8z"/>
		<g>
			
				<rect x="68.8" y="41.4" transform="matrix(0.1821 -0.9833 0.9833 0.1821 20.278 107.4767)" class="st58" width="11.8" height="0.2"/>
		</g>
		<g>
			<polygon class="st58" points="80.2,43.6 85.9,31 86.1,31.1 80.4,43.7 			"/>
		</g>
		<g>
			<polygon class="st58" points="88,39.5 87.8,39.4 92.8,29.9 93,30 			"/>
		</g>
	</g>
	<g>
		
			<radialGradient id="SVGID_41_" cx="269.3262" cy="246.8006" r="38.4521" gradientTransform="matrix(0.9323 -0.3616 -0.3616 -0.9323 100.9936 417.4927)" gradientUnits="userSpaceOnUse">
			<stop  offset="0" style="stop-color:#B1F000"/>
			<stop  offset="0.9944" style="stop-color:#6A9A00"/>
		</radialGradient>
		<path class="st60" d="M254,86l-1.9,15.2l-2.2,0.4l6.1,3.9l7.9-4.1l-1.8-0.1l1.4-8.5l3.3,2.6l4.6,3.6l5.9-8l-12.6-9.3L254,86z"/>
		<polygon class="st61" points="264.8,81.8 263.6,92.9 271.5,99.1 277.4,91.1 		"/>
		
			<radialGradient id="SVGID_42_" cx="269.3252" cy="246.8011" r="38.4532" gradientTransform="matrix(0.9323 -0.3616 -0.3616 -0.9323 100.9936 417.4927)" gradientUnits="userSpaceOnUse">
			<stop  offset="0" style="stop-color:#B1F000"/>
			<stop  offset="0.9944" style="stop-color:#6A9A00"/>
		</radialGradient>
		<path class="st62" d="M258.4,127.6l13.4-5.2l0.8,1.6l0.8-7.7l-5.6-5.4l0.5,2l-8.5,3l0.7-4.2l1-4.6l-9.8-1.3l-2.2,14.3L258.4,127.6
			z"/>
		<polygon class="st61" points="249.6,120.1 259.9,115.9 261.6,107.1 251.7,105.8 		"/>
		
			<radialGradient id="SVGID_43_" cx="269.3255" cy="246.799" r="38.4514" gradientTransform="matrix(0.9323 -0.3616 -0.3616 -0.9323 100.9936 417.4927)" gradientUnits="userSpaceOnUse">
			<stop  offset="0" style="stop-color:#B1F000"/>
			<stop  offset="0.9944" style="stop-color:#6A9A00"/>
		</radialGradient>
		<path class="st63" d="M292.9,104l-11.7-9.6l1.6-2.2l-7.5,3.2l-2.1,8.6l1.9-1.7l6.9,6.1l-4,1.4l-5.5,2l3.6,9.2l14.6-5.7L292.9,104z
			"/>
		<polygon class="st61" points="290.7,115.4 282,108.5 272.5,111.9 276.1,121.1 		"/>
	</g>
	<g>
		
			<radialGradient id="SVGID_44_" cx="247.694" cy="14.0327" r="38.4512" gradientTransform="matrix(0.9819 0.1895 0.1895 -0.9819 36.4449 220.6803)" gradientUnits="userSpaceOnUse">
			<stop  offset="0" style="stop-color:#B1F000"/>
			<stop  offset="0.9944" style="stop-color:#6A9A00"/>
		</radialGradient>
		<path class="st64" d="M300.4,281.7l-4.8-14.4l2.5-1L290,265l-6.3,6.2l2.5-0.4l2.6,8.8l-4.1-0.9l-5.7-1.3l-1.8,9.8l15.4,2.9
			L300.4,281.7z"/>
		<polygon class="st61" points="292.4,290.2 288.8,279.7 278.9,277.5 277.1,287.3 		"/>
	</g>
	<g>
		
			<radialGradient id="SVGID_45_" cx="209.3627" cy="576.5393" r="38.4516" gradientTransform="matrix(-0.9463 -0.3232 -0.3232 0.9463 471.834 -310.7668)" gradientUnits="userSpaceOnUse">
			<stop  offset="0" style="stop-color:#B1F000"/>
			<stop  offset="0.9944" style="stop-color:#6A9A00"/>
		</radialGradient>
		<path class="st65" d="M73.3,137.1l2.8,14.9l-2.6,0.6l7.9,2.4l7.1-5.2h-2.6l-1.4-9.1l4,1.5l5.5,2.1l3.2-9.4l-14.8-5L73.3,137.1z"/>
		<polygon class="st61" points="82.3,129.8 84.5,140.7 93.9,144.3 97.1,134.9 		"/>
	</g>
</g>
</svg>
