<?xml version="1.0" encoding="utf-8"?>
<!-- Generator: Adobe Illustrator 25.0.1, SVG Export Plug-In . SVG Version: 6.00 Build 0)  -->
<svg version="1.1" id="Layer_1" xmlns="http://www.w3.org/2000/svg" xmlns:xlink="http://www.w3.org/1999/xlink" x="0px" y="0px"
	 viewBox="0 0 447.9 290" style="enable-background:new 0 0 447.9 290;" xml:space="preserve">
<style type="text/css">
	.st0{fill:#FFFFFF;}
	.st1{fill:#D8DEE8;}
	.st2{fill:url(#SVGID_1_);}
	.st3{fill:url(#SVGID_2_);}
	.st4{fill:#88B737;}
	.st5{fill:#95C83D;}
</style>
<g>
	<g>
		
			<ellipse transform="matrix(0.9997 -2.579745e-02 2.579745e-02 0.9997 -2.0936 5.3191)" class="st0" cx="205.1" cy="83.8" rx="66.9" ry="13.2"/>
		<path class="st0" d="M138.3,85.5c0,0-2.7,14.3-2.7,14.4S275,96.3,275,96.3l-3-14.2L138.3,85.5z"/>
	</g>
	
		<ellipse transform="matrix(0.9997 -2.579745e-02 2.579745e-02 0.9997 -2.4651 5.3291)" class="st1" cx="205.3" cy="98.2" rx="69.7" ry="13.7"/>
	
		<linearGradient id="SVGID_1_" gradientUnits="userSpaceOnUse" x1="2664.0681" y1="280.4297" x2="2660.606" y2="319.5003" gradientTransform="matrix(0.9997 -2.590000e-02 -2.590000e-02 -0.9997 -2458.0542 501.1097)">
		<stop  offset="0" style="stop-color:#D8DEE8"/>
		<stop  offset="1" style="stop-color:#FFFFFF"/>
	</linearGradient>
	<path class="st2" d="M255.8,249c0.2,7.6-20.5,14.4-46.2,15c-25.7,0.7-46.7-5-46.9-12.6s20.5-14.4,46.2-15
		C234.6,235.7,255.6,241.3,255.8,249z"/>
	
		<linearGradient id="SVGID_2_" gradientUnits="userSpaceOnUse" x1="2664.5671" y1="280.489" x2="2661.1045" y2="319.5657" gradientTransform="matrix(0.9997 -2.590000e-02 -2.590000e-02 -0.9997 -2458.0542 501.1097)">
		<stop  offset="0" style="stop-color:#D8DEE8"/>
		<stop  offset="1" style="stop-color:#FFFFFF"/>
	</linearGradient>
	<polygon class="st3" points="255.5,237.2 162.3,239.6 162.6,250.9 255.8,248.5 	"/>
	<g>
		
			<ellipse transform="matrix(0.9997 -2.579751e-02 2.579751e-02 0.9997 -6.1092 5.469)" class="st4" cx="208.9" cy="239.5" rx="50.3" ry="14.9"/>
		
			<ellipse transform="matrix(0.9997 -2.579747e-02 2.579747e-02 0.9997 -2.4651 5.3291)" class="st4" cx="205.3" cy="98.2" rx="63" ry="11.7"/>
		<polygon class="st4" points="142.2,99.9 158.7,240.8 259.2,238.2 268.3,96.6 		"/>
	</g>
	<g>
		<path class="st5" d="M268.3,96.6c-0.2-6.5-28.5-11-63.3-10.1c-12.1,0.3-23.4,1.2-32.9,2.6c-1.4,4.6-2,9.4-1.7,14.4
			c2.1,28.7,36.6,37.4,49.2,64.2c7.7,16.3,8.6,42.5-17.5,86.8c2.4,0,4.8,0,7.2,0c27.7-0.7,50.1-8,49.9-16.2L268.3,96.6L268.3,96.6z"
			/>
	</g>
</g>
<g>
	<path class="st0" d="M206.7,126.8c-10.6-2.6-21,8-23.9,17.7c-0.8,2.6-1,5-0.9,7.1c-1.2,4.2-1.5,7.7-1.5,8.1c0,0.5,0.3,0.9,0.8,1
		c0,0,0,0,0.1,0c0.5,0,0.9-0.4,0.9-0.8c0-0.2,1.4-15.9,9.3-20.3c7.9-4.4,19.5,0.9,19.6,0.9c0,0-19.9-8-24.3,9.1
		c0.8-0.6,1.7-1.2,2.8-1.6c5.9-2.3,10.4,2.1,17.9,1.2c3.2-0.4,7.7-1.8,12.8-6.7C218.3,134.8,213.3,128.5,206.7,126.8z"/>
	<path class="st0" d="M242.6,180.3c7.3-8.1,2.9-22.3-4.3-29.4c-1.9-1.9-4-3.2-5.9-4.1c-3.2-3-6.1-4.9-6.4-5.1
		c-0.4-0.3-1-0.1-1.2,0.3c0,0,0,0,0,0.1c-0.2,0.4-0.1,0.9,0.3,1.2c0.1,0.1,13.4,8.7,13.5,17.8s-10,16.8-10.1,16.8
		c0,0,16.5-13.8,3.4-25.7c0.2,1,0.2,2.1,0.1,3.2c-0.8,6.3-6.7,8.2-9.5,15.3c-1.2,3-2.1,7.7-0.2,14.5
		C230.1,186.8,238.1,185.3,242.6,180.3z"/>
	<path class="st0" d="M179.9,186.7c4.9,9.7,19.8,10.7,29,6.6c2.5-1.1,4.4-2.6,6-4c3.9-1.9,6.8-4,7.1-4.1c0.4-0.3,0.5-0.9,0.2-1.3
		c0,0,0,0,0-0.1c-0.3-0.4-0.8-0.4-1.2-0.1c-0.1,0.1-13,9.4-21.5,6.2s-12-15.3-12.1-15.5c0,0,6.9,20.3,22.8,12.5c-1-0.2-2-0.5-3-1.1
		c-5.6-3-5.2-9.2-10.8-14.3c-2.4-2.2-6.4-4.7-13.4-5.4C178.3,172.6,176.8,180.6,179.9,186.7z"/>
</g>
</svg>
