<?xml version="1.0" encoding="utf-8"?>
<!-- Generator: Adobe Illustrator 25.0.1, SVG Export Plug-In . SVG Version: 6.00 Build 0)  -->
<svg version="1.1" id="Layer_1" xmlns="http://www.w3.org/2000/svg" xmlns:xlink="http://www.w3.org/1999/xlink" x="0px" y="0px"
	 viewBox="0 0 447.9 290" style="enable-background:new 0 0 447.9 290;" xml:space="preserve">
<style type="text/css">
	.st0{fill:#65C4B5;}
</style>
<g>
	<g>
		<g>
			<path class="st0" d="M118.1,237.3c-9.2,0-17.5-4.7-22.1-12.7c-4.7-8-4.7-17.6-0.1-25.6l43.1-75.5c1.8-3.1,5.7-4.2,8.8-2.4
				c3.1,1.8,4.2,5.7,2.4,8.8l-43.1,75.5c-2.3,4-2.3,8.8,0.1,12.7c2.3,4,6.4,6.3,11,6.3c0,0,0,0,0.1,0l36.4-0.2
				c3.6,0,6.5,2.9,6.5,6.4c0,3.6-2.9,6.5-6.4,6.5l-36.4,0.2C118.2,237.3,118.2,237.3,118.1,237.3z"/>
		</g>
	</g>
	<g>
		<g>
			<path class="st0" d="M205.2,236.8c-3.5,0-6.4-2.9-6.4-6.4c0-3.6,2.9-6.5,6.4-6.5l87-0.5c4.6,0,8.7-2.4,11-6.4s2.3-8.8-0.1-12.7
				l-11.4-19.5c-1.8-3.1-0.8-7,2.3-8.8c3.1-1.8,7-0.8,8.8,2.3l11.4,19.5c4.7,8,4.7,17.6,0.1,25.6s-12.9,12.9-22.1,12.9L205.2,236.8
				L205.2,236.8z"/>
		</g>
	</g>
	<g>
		<g>
			<path class="st0" d="M275.7,151.2c-2.2,0-4.4-1.1-5.6-3.2l-54.8-93.8c-2.3-4-6.4-6.3-11-6.3c0,0,0,0-0.1,0c-4.6,0-8.7,2.4-11,6.4
				l-27.6,48.5c-1.8,3.1-5.7,4.2-8.8,2.4c-3.1-1.8-4.2-5.7-2.4-8.8L182,47.9c4.6-8,12.9-12.9,22.1-12.9h0.1
				c9.2,0,17.5,4.7,22.1,12.7l54.8,93.8c1.8,3.1,0.8,7-2.3,8.8C277.9,150.9,276.8,151.2,275.7,151.2z"/>
		</g>
	</g>
	<g>
		<g>
			<path class="st0" d="M279.7,157.7c-1.1,0-2.2-0.3-3.1-0.8l-20.4-11.3c-3.1-1.7-4.2-5.7-2.5-8.8s5.7-4.2,8.8-2.5l10.6,5.9
				l-0.2-12.2c-0.1-3.6,2.8-6.5,6.3-6.5c3.6,0,6.5,2.8,6.5,6.3l0.4,23.3c0,2.3-1.2,4.5-3.1,5.6C282,157.4,280.9,157.7,279.7,157.7z"
				/>
		</g>
	</g>
	<g>
		<g>
			<path class="st0" d="M213.7,246.9c-1.1,0-2.3-0.3-3.3-0.9l-20-12.1c-2-1.2-3.2-3.3-3.1-5.6c0-2.3,1.3-4.4,3.3-5.5l20.4-11.2
				c3.1-1.7,7-0.6,8.8,2.5s0.6,7-2.5,8.8l-10.7,5.9l10.4,6.3c3.1,1.9,4,5.8,2.2,8.9C218,245.8,215.8,246.9,213.7,246.9z"/>
		</g>
	</g>
	<g>
		<g>
			<path class="st0" d="M146.3,155.8c-3.4,0-6.2-2.6-6.4-6l-0.8-12.1l-10.1,6.7c-3,2-7,1.2-8.9-1.8c-2-3-1.2-7,1.8-8.9l19.4-12.9
				c1.9-1.3,4.4-1.4,6.4-0.4c2.1,1,3.4,3.1,3.6,5.4l1.5,23.3c0.2,3.6-2.5,6.6-6,6.8C146.5,155.8,146.4,155.8,146.3,155.8z"/>
		</g>
	</g>
</g>
</svg>
