<?xml version="1.0" encoding="utf-8"?>
<!-- Generator: Adobe Illustrator 25.0.1, SVG Export Plug-In . SVG Version: 6.00 Build 0)  -->
<svg version="1.1" id="Layer_1" xmlns="http://www.w3.org/2000/svg" xmlns:xlink="http://www.w3.org/1999/xlink" x="0px" y="0px"
	 viewBox="0 0 100 100" style="enable-background:new 0 0 100 100;" xml:space="preserve">
<style type="text/css">
	.st0{fill:#FFFFFF;}
</style>
<path class="st0" d="M47.9,61.9c0.6,1.1,1.1,2,1.6,2.8c0.7,1.3,0.5,1.9-0.7,2.7c-1.1,0.6-2.2,1.3-3.3,1.9c1.4,2.4,2.8,4.8,4.1,7.2
	c1,1.6,1.4,3.4,0.7,5.2c-0.8,2.3-2.4,3.7-4.8,4c-2.6,0.3-4.7-0.7-6-3c-1.7-2.8-3.3-5.7-4.9-8.5c-0.6-1.1-1.3-2.1-1.8-3.2
	c-0.4-0.7-0.8-0.8-1.6-0.6c-6.9,1.9-13.4-3.3-13-10.5c0.2-3.8,2.1-6.6,5.4-8.4c3.8-2.2,7.5-4.3,11.3-6.5c0.6-0.3,1.1-0.8,1.6-1.4
	c6-7.6,12-15.3,18.1-23c0.2-0.3,0.5-0.6,0.7-0.9c2.1-2.5,5.6-2.3,7.3,0.6c1.7,2.7,3.2,5.5,4.8,8.3c0.4,0.8,0.9,1,1.8,0.9
	c1.4-0.2,2.8-0.3,4.2-0.2c0.6,0,1.4,0.4,1.7,0.9c1,1.4,1.8,3,2.7,4.5c0.4,0.7,0.4,1.4-0.1,2.1c-0.8,1.1-1.5,2.3-2.3,3.4
	c-0.5,0.7-0.6,1.3-0.1,2.1c1.4,2.2,2.6,4.5,3.9,6.7c2.1,3.7,0.7,6.6-3.5,7.4c-7.6,1.5-15.3,3-22.9,4.5
	C51.3,61.2,49.7,61.5,47.9,61.9z M55.1,24.9c-0.2,0.2-0.3,0.3-0.4,0.3C49.5,31.8,44.3,38.4,39.1,45c-0.5,0.6-0.3,1,0,1.6
	c2.2,3.8,4.5,7.6,6.6,11.5c0.5,0.9,1,1,2,0.9c6-1.2,12-2.4,17.9-3.5c2.1-0.4,4.1-0.8,6.4-1.3C66.3,44.3,60.7,34.6,55.1,24.9z
	 M36.2,47.6c-4.1,2.4-8,4.6-11.9,7c-1.9,1.2-2.9,3-3.1,5.3c-0.3,2.8,0.7,5.1,3.1,6.7c2.4,1.7,5.1,1.9,7.7,0.5
	c3.8-2.1,7.5-4.3,11.2-6.4c0.1-0.1,0.2-0.2,0.4-0.4C41.1,56,38.7,51.8,36.2,47.6z M77.4,52.1c-0.4-0.7-0.5-1.2-0.8-1.6
	c-5.4-9.4-10.8-18.8-16.3-28.2c-0.2-0.3-0.3-0.6-0.6-0.9c-0.6-0.6-1.3-0.8-2-0.2c-0.6,0.5-0.9,1-0.4,1.9
	c5.7,9.8,11.4,19.7,17.1,29.6c0.4,0.6,0.8,1,1.5,0.7C76.5,53.1,76.9,52.6,77.4,52.1z M34.9,68.7c2.5,4.4,5,8.7,7.6,12.9
	c0.4,0.6,1.4,1,2.2,1.2c1.1,0.2,2.1-0.4,2.6-1.4c0.7-1.1,0.5-2.2-0.1-3.2c-2.3-3.9-4.5-7.9-6.8-11.8c-0.1-0.2-0.3-0.4-0.5-0.6
	C38.2,66.8,36.6,67.7,34.9,68.7z M69.6,32.5c1.2,2,2.3,3.9,3.5,6c0.4-1.3,2-1.9,1.4-3.3C73.2,32.2,72.9,32,69.6,32.5z M42.5,64.3
	c0.5,0.9,1,1.7,1.5,2.5c0.9-0.5,1.7-1,2.5-1.5c-0.5-0.9-1-1.7-1.5-2.5C44.2,63.4,43.4,63.8,42.5,64.3z"/>
<path class="st0" d="M93.4,22.7c-0.2,0.2-0.5,0.8-0.9,1.1c-2.6,1.5-5.2,3-7.9,4.4c-0.8,0.5-1.6,0.3-2.1-0.5c-0.5-0.8-0.1-1.6,0.7-2
	c2.6-1.5,5.3-3,8-4.4C92.2,20.6,93.3,21.2,93.4,22.7z"/>
<path class="st0" d="M76.4,23.3c-1.3-0.1-2-0.6-1.8-1.5c0.4-2.1,1-4.2,1.6-6.2c0.2-0.8,1-1,1.7-0.7c0.8,0.3,1.1,0.9,0.9,1.7
	c-0.5,1.9-0.9,3.8-1.5,5.7C77.2,22.6,76.6,23,76.4,23.3z"/>
<path class="st0" d="M91.4,37.3c0,1.3-0.7,2-1.6,1.8c-2-0.5-4-1-6-1.6c-0.8-0.2-1.1-0.9-0.9-1.7c0.3-0.8,0.9-1.2,1.7-1
	c1.9,0.5,3.8,0.9,5.7,1.5C90.8,36.5,91.1,37.1,91.4,37.3z"/>
<path class="st0" d="M28.8,64.9c-1.9-0.1-3.1-0.7-4-2c-0.5-0.7-0.5-1.5,0.3-2.1c0.7-0.5,1.4-0.4,2,0.3c0.8,1.1,1.7,1,2.8,0.3
	c0.7-0.4,1.3-0.9,2.1-1.1c0.5-0.1,1.4,0.1,1.7,0.5c0.3,0.3,0.3,1.4,0,1.6C32.1,63.7,30.5,64.7,28.8,64.9z"/>
<path class="st0" d="M37.5,60.1c-0.8,0-1.3-0.5-1.4-1.4c0-0.8,0.4-1.4,1.3-1.5c0.8-0.1,1.6,0.6,1.6,1.4
	C39.1,59.4,38.4,60.1,37.5,60.1z"/>
</svg>
