<?xml version="1.0" encoding="utf-8"?>
<!-- Generator: Adobe Illustrator 25.0.1, SVG Export Plug-In . SVG Version: 6.00 Build 0)  -->
<svg version="1.1" id="Layer_1" xmlns="http://www.w3.org/2000/svg" xmlns:xlink="http://www.w3.org/1999/xlink" x="0px" y="0px"
	 viewBox="0 0 100 100" style="enable-background:new 0 0 100 100;" xml:space="preserve">
<style type="text/css">
	.st0{fill:#FFFFFF;}
</style>
<path class="st0" d="M26.5,30.5c0-1.1,0-2.1,0-3.1c0-1.8,1-2.7,2.7-2.7c0.8,0,1.6-0.1,2.4,0c0.8,0.2,1.6,0.5,2.1,1
	c0.5,0.5,0.9,0.4,1.2,0c0.4-0.4,0.7-1,0.9-1.5c0.9-2.5,2.7-3.8,5.4-3.8c1.3,0,2.6-0.2,3.7,0.7c0.1,0.1,0.5,0,0.7-0.1
	c1.7-1.1,3.4-0.8,5,0.5c1.9-1.7,4.3-1,6.5-1.1c1.1,0,1.9-0.2,2.8-0.9c1.6-1.4,3.5-1.5,5.5-0.7c0.5,0.2,1,0.4,1.5,0.5
	c0.8,0.1,1.6,0.1,1.3-1.1c-0.1-0.2,0-0.5,0.1-0.7c0.8-1.7,2.1-3,3.7-3.7c0.6-0.3,1.6,0,2.2,0.4c1.5,1.3,2.9,2.8,4.3,4.3
	c0.9,0.9,0.8,2.2,0,3.2c-0.7,0.8-1.4,1.6-2.2,2.2c-0.7,0.5-1.6,0.6-2.7,0.9c-0.8,1.9,1.7,3.5,0.8,5.6c0.4,0.1,0.7,0.2,1,0.3
	c2.2,0.7,3.7,2.6,3.8,4.9c0.1,2.2-1.3,4.2-3.3,5c-0.9,0.3-1.1,0.8-1.1,1.6c0,1-0.2,2.1-0.2,3.1c0,0.7-0.4,1.3-1.1,1.2
	c-0.8,0-1-0.6-1-1.4c0.1-1.3,0.2-2.7,0.3-4.1c-15.1,0-30.1,0-45.3,0c0.8,10.3,1.6,20.6,2.4,30.9c13.5,0,27,0,40.5,0
	c0.1-1.8,0.3-3.5,0.4-5.3c0.4-5.5,0.8-11.1,1.3-16.6c0-0.5,0.4-1.1,0.8-1.4c0.6-0.4,1.3,0.4,1.2,1.4c-0.2,2.5-0.4,4.9-0.6,7.4
	c-0.5,6.3-1,12.7-1.5,19c-0.4,5.3-4.4,8.9-9.7,8.9c-8.2,0-16.4,0-24.6,0c-5.3,0-9.3-3.6-9.7-8.9C26.9,65.2,26,53.6,25.1,42
	c0-0.5-0.1-0.9-0.7-1.2c-2.6-1-4-3.3-3.6-5.8c0.4-2.6,2.4-4.3,5.2-4.5C26.1,30.6,26.2,30.6,26.5,30.5z M29.8,74.5
	c0,0.8,0,1.5,0.1,2.2c0.4,3.8,3.1,6.6,6.9,6.9c1.1,0.1,2.2,0.1,3.4,0.1c7.3,0,14.5,0,21.8,0c5.1,0,8.6-4.1,7.8-9.1
	C56.5,74.5,43.2,74.5,29.8,74.5z M49.8,39c7.6,0,15.3,0,22.9,0c0.5,0,1,0,1.5-0.1c1.5-0.2,2.6-1.5,2.6-3c0-1.6-1-2.8-2.5-3.1
	c-0.5-0.1-1-0.1-1.6-0.1c-15.3,0-30.6,0-45.8,0c-0.5,0-1.1,0-1.6,0.1c-1.5,0.3-2.6,1.5-2.5,3.1c0,1.9,1.4,3.1,3.5,3.1
	C34.2,39,42,39,49.8,39z M68.9,30.6c0.6,0,1.1,0,1.7,0c1.6,0,2-0.5,1.4-2.1c-0.1-0.3-0.3-0.6-0.4-0.9c-0.5-1.2-0.7-2.4-0.1-3.6
	c0.4-0.8,0.3-1.3-0.4-1.8c-0.4-0.3-0.6-0.7-1-0.9c-0.3-0.2-0.8-0.3-1-0.2c-1.5,0.7-3,0.6-4.4-0.2c-1.5-0.8-2.7-0.5-4,0.7
	c-0.3,0.3-0.6,0.6-0.9,0.9c-0.8,0.7-0.8,1.4,0,2.1c1.3,1.3,2.7,2.6,3.9,4C65.2,30.2,66.7,31.1,68.9,30.6z M34.4,30.5
	c3.2,0,6.3,0,9.4,0c0-2.4,0-4.7,0-7c0-0.3-0.4-0.7-0.7-0.9c-2.2-0.8-4.5,0.3-5.3,2.5c-0.4,1.2-1.1,2.3-2.2,2.7
	C34.1,28.3,34.2,29.3,34.4,30.5z M49.4,30.5c0-2.2,0.1-4.4,0-6.5c0-0.9-0.7-1.4-1.6-1.4c-0.9,0-1.7,0.5-1.7,1.4
	c-0.1,2.1,0,4.3,0,6.5C47.2,30.5,48.3,30.5,49.4,30.5z M74.7,22.8c0.7-0.8,1.4-1.5,1.9-2.2c0.1-0.2,0.1-0.7-0.1-0.9
	c-1.1-1.1-2.2-2.3-3.3-3.3c-0.2-0.2-0.7-0.4-0.8-0.3c-0.7,0.6-1.3,1.2-1.9,1.9c-0.1,0.1,0,0.5,0.1,0.6
	C71.8,19.9,73.1,21.2,74.7,22.8z M62.8,30.6c-1.6-1.6-2.9-3.1-4.4-4.4c-0.4-0.3-1.3-0.4-1.8-0.2c-0.5,0.2-0.8,0.9-0.9,1.5
	c-0.1,1,1.9,3.1,2.9,3.1C59.9,30.6,61.2,30.6,62.8,30.6z M57.3,23c-0.1-0.1-0.2-0.2-0.2-0.4c-1.3,0-2.6-0.1-3.9,0.1
	c-0.6,0.1-1.4,0.8-1.4,1.3c-0.2,1.2-0.1,2.6-0.1,3.8c0.1,0.1,0.2,0.2,0.3,0.2c0.5-0.4,1.3-0.6,1.5-1.1c0.5-1.7,1.4-2.8,3.2-3.3
	C56.9,23.6,57.1,23.2,57.3,23z M28.7,30.5c1.2,0,2.3,0,3.5,0c0-1,0-2,0-3c0-0.2-0.4-0.6-0.6-0.7c-2.6-0.4-2.8-0.2-2.8,2.4
	C28.7,29.6,28.7,30,28.7,30.5z M54.7,30.6c-1-1.1-1.9-1.1-2.7,0C52.9,30.6,53.8,30.6,54.7,30.6z"/>
</svg>
