<?xml version="1.0" encoding="utf-8"?>
<!-- Generator: Adobe Illustrator 25.0.1, SVG Export Plug-In . SVG Version: 6.00 Build 0)  -->
<svg version="1.1" id="Layer_1" xmlns="http://www.w3.org/2000/svg" xmlns:xlink="http://www.w3.org/1999/xlink" x="0px" y="0px"
	 viewBox="0 0 296.4 315" style="enable-background:new 0 0 296.4 315;" xml:space="preserve">
<style type="text/css">
	.st0{fill:#7D9E3E;}
	.st1{fill:#A4CD39;}
	.st2{fill:#DACCB6;}
	.st3{fill:#C3DCE8;}
	.st4{fill:#325A9B;}
	.st5{fill:#0C415D;}
	.st6{fill:#88B737;}
	.st7{fill:#95C83D;}
	.st8{fill:#FFFAF3;}
	.st9{fill:#EBE3D9;}
	.st10{fill:#022F49;}
	.st11{fill:#95475C;}
	.st12{fill:#1D5C7A;}
	.st13{fill:#F9B18E;}
	.st14{fill:#EB857B;}
	.st15{fill:#7C4550;}
	.st16{fill:#FFFFFF;}
</style>
<g>
	<g>
		<path class="st0" d="M112.6,99.2c0.1,1,0.1,1.9,0.2,2.8c0.1,2.8,0,4.8,0,4.9c0,0,0,0,0,0L93.6,122c0,0,0,0,0,0
			c-0.2,0-2.1-0.4-4.8-1.1c-0.8-0.2-1.8-0.5-2.7-0.8c-5.1-1.6-11.3-4.4-13.5-8.5c-0.7-1.3-0.9-2.3-0.9-3.1c0-0.4,0.1-0.8,0.2-1.1
			c1.1-2.8,6.5-2.5,7.4-3.4c1.3-1.2-6.3-6.2-13.1-8.5c-6.4-2.2-13.1-6.6-11.2-11.6c0.1-0.2,0.1-0.4,0.2-0.5c0.1-0.2,0.2-0.3,0.3-0.5
			c3.3-5.4,9.8-0.4,11.1-2.8c1.3-2.4-20.4-17.6-11.1-25c0.1-0.1,0.3-0.2,0.5-0.3c0.1-0.1,0.3-0.3,0.4-0.4
			c9.3-7.3,19.1,17.3,21.7,16.6c2.6-0.7-0.7-8.2,5.3-10.1c0.2-0.1,0.4-0.1,0.5-0.2c0.2,0,0.4-0.1,0.6-0.1c5.3-0.7,8.1,6.8,8.7,13.6
			c0.6,7.2,3.8,15.7,5.2,14.8c1.1-0.7,2-6,5-6.4c0.4,0,0.7,0,1.2,0.1c0.8,0.2,1.7,0.7,2.8,1.6C110.9,87.2,112.2,93.9,112.6,99.2z"/>
	</g>
	<g>
		<path class="st1" d="M56.4,54.3l47.2,59.8l-0.9,0.7L55.5,55c0.1-0.1,0.3-0.2,0.5-0.3C56.1,54.5,56.2,54.4,56.4,54.3z"/>
	</g>
	<g>
		<path class="st1" d="M83.3,88.7l-0.1,0.6l-0.1,0.6l-0.2,0l-28.1-5.4l0.2-0.6c0.1-0.2,0.1-0.4,0.2-0.5l26.6,5.1l0.9,0.2L83.3,88.7z
			"/>
	</g>
	<g>
		<path class="st1" d="M102.7,113.2l-0.1,0.6l-0.1,0.6l-0.2,0l-30.6-5.8c0-0.4,0.1-0.8,0.2-1.1l29.3,5.6l0.9,0.2L102.7,113.2z"/>
	</g>
	<g>
		<path class="st1" d="M85.1,60.5L83.8,89l0,0.2l-0.6,0l-0.6,0l0-0.7l0-0.9l1.2-27c0.2,0,0.4-0.1,0.6-0.1L85.1,60.5z"/>
	</g>
	<g>
		<path class="st1" d="M104.6,82.5l-1.4,31.1l0,0.2l-0.6,0l-0.6,0l0-0.7l0-0.9l1.4-29.8C103.8,82.4,104.2,82.4,104.6,82.5z"/>
	</g>
</g>
<g>
	<g>
		<path class="st0" d="M241.4,80.4c-0.1,0.5-0.2,0.9-0.3,1.4c-1.4,6-3.6,12.5-7,18.7c-0.1,0.1-0.2,0.3-0.2,0.4
			c-0.2,0.3-0.3,0.6-0.5,0.9c-11.9,19.3-39.6,15.7-43.7,15.1c-0.3-0.1-0.5-0.1-0.5-0.1s-0.2-0.3-0.5-1c-1.6-3.4-5.9-15.6,1.8-29.3
			c0.3-0.5,0.6-1.1,1-1.6c3.6-5.6,9.2-11.4,18-17c0.4-0.3,0.9-0.5,1.3-0.8c7.9-4.8,18.2-9.3,31.5-13.2c0.2,0,0.3-0.1,0.5-0.1
			c0,0,0.1,0.5,0.2,1.5C243.2,58.9,243.8,68.9,241.4,80.4z"/>
	</g>
	<g>
		<path class="st1" d="M242.9,55.3c-5,5.5-13.1,14.4-21.8,24.1c-0.4,0.4-0.8,0.9-1.2,1.3c-4.5,5.1-9.1,10.3-13.4,15.4
			c-0.4,0.4-0.7,0.8-1.1,1.3c-6.2,7.2-11.8,14.1-15.8,19.5c-0.3-0.1-0.5-0.1-0.5-0.1s-0.2-0.3-0.5-1c2.1-2.9,4.7-6.1,7.6-9.6
			c0.4-0.4,0.7-0.9,1.1-1.3c4.6-5.6,9.8-11.7,15.1-17.7c0.4-0.5,0.8-0.9,1.2-1.4c11.2-12.7,22.5-25.2,28.6-31.9
			c0.2,0,0.3-0.1,0.5-0.1C242.7,53.7,242.8,54.3,242.9,55.3z"/>
	</g>
	<g>
		<path class="st1" d="M241.4,80.4c-0.1,0.5-0.2,0.9-0.3,1.4l-21.2-1.1l-0.3,0l0.1-1.4l1.5,0.1L241.4,80.4z"/>
	</g>
	<g>
		<path class="st1" d="M213.8,87.2l-1.4,0.2l0-0.3l-2.9-19.2c0.4-0.3,0.9-0.5,1.3-0.8l2.9,18.6L213.8,87.2z"/>
	</g>
	<g>
		<path class="st1" d="M234.1,100.5c-0.1,0.1-0.2,0.3-0.2,0.4c-0.2,0.3-0.3,0.6-0.5,0.9l-27.9-4.4l-0.4-0.1l0.2-1.4l1.2,0.2
			L234.1,100.5z"/>
	</g>
	<g>
		<path class="st1" d="M197.6,105.9l-1.4,0.4l0-0.1l-5.8-19.6c0.3-0.5,0.6-1.1,1-1.6l5.9,20L197.6,105.9z"/>
	</g>
</g>
<g>
	<g>
		<path class="st1" d="M135,91.2c-16.5-20.5-24.4-36.2-22.9-45.7c0.1-0.4-0.2-0.8-0.6-0.8c-0.4-0.1-0.7,0.2-0.8,0.6
			c-0.9,5.8,1.4,13.8,7,23.6c4.1,7.2,9.9,15.4,17.3,24.5V91.2z"/>
	</g>
	<path class="st0" d="M113.5,59.8c0,0-4.8,3.5-10.5-5.2C103,54.6,111.8,51.3,113.5,59.8z"/>
	<path class="st0" d="M116.2,64.4c0,0-3.7-4.6,4.6-10.9C120.8,53.6,124.5,62.3,116.2,64.4z"/>
	<path class="st0" d="M111.4,49.9c0,0-5-3.1,0.8-11.8C112.1,38.1,118.5,45.1,111.4,49.9z"/>
	<path class="st0" d="M121.4,74c0,0-3.3,4.9-11.6-1.4C109.8,72.6,117,66.6,121.4,74z"/>
	<path class="st0" d="M124.9,78.3c0,0-4.4-3.9,2.7-11.5C127.6,66.8,132.7,74.7,124.9,78.3z"/>
	<path class="st0" d="M129.1,84.6c0,0-3.2,5-11.7-1.1C117.4,83.5,124.5,77.3,129.1,84.6z"/>
</g>
<path class="st2" d="M90,98.5C90,98.5,90,98.5,90,98.5L90,98.5C90,98.5,90,98.5,90,98.5z"/>
<path class="st2" d="M90.7,97.8c-0.4,0.4-0.6,0.6-0.7,0.7C90.2,98.2,90.4,98,90.7,97.8z"/>
<g>
	<g>
		<g>
			<g>
				<g>
					<g>
						<g>
							<path class="st3" d="M177.2,88.8l0.1-0.3c0,0,1.1-2.7,0.9-4.7c-0.2-2-1.3-3.2-1.2-3.6c0.1-0.1,0.2-0.2,0.2-0.3c0,0,0,0,0-0.1
								c0,0,0,0,0-0.1c0.1-0.2,0-0.3-0.1-0.5l0.3-0.9c-0.1,0.2-0.5,0.3-1,0.2c-0.2-0.1-0.4-0.2-0.7-0.3c-0.3-0.1-0.5-0.1-0.7-0.2
								c-0.5-0.3-0.8-0.5-0.7-0.7l-0.3,0.9c-0.2,0.1-0.3,0.2-0.3,0.4c0,0,0,0,0,0.1c0,0,0,0,0,0.1c0,0.1,0,0.2,0,0.4h0
								c-0.1,0.4-1.7,0.7-3,2.2c-1.3,1.5-2.1,4.3-2.1,4.3l-0.1,0.3c-0.1,0.4-0.1,0.8,0.1,1.2l-2.9,8.9c-0.2,0.2-0.4,0.4-0.5,0.7l0,0
								v0c0,0,0,0,0,0.1c0,0.1-0.1,0.2-0.1,0.3l-1,4.3c0,0-0.3,1.8,0.2,2l0,0l0.1,0c0,0,0.2,0.1,0.5,0c0,0,0.2-0.1,0.2,0.2
								c0,0.3,0,0.5,0,0.5s0,0.7,0.5,1.1c0,0,0,0,0.1,0c0.5,0.3,0.8,0.4,0.8,0.4s0.3,0.2,0.6,0.2c0.1,0,0.3-0.1,0.4-0.2
								c0.4-0.4,1-0.9,1.1-1c0.1-0.1,0.1-0.1,0.3,0.2l0.4,0.8c0,0,0,0.1,0.1,0.1c0.1,0.1,0.4,0.3,0.8,0c0.7-0.4,0.7-0.4,0.7-0.4
								s0.6-0.4,0.9-1.1l1.8-4.4c0.1-0.1,0.1-0.2,0.1-0.3c0.1-0.3,0.1-0.6,0-0.9c0-0.1,0-0.1,0-0.2c0,0,0-0.1,0-0.1l2.9-8.7
								C176.8,89.5,177.1,89.2,177.2,88.8z M165.4,96.6C165.4,96.6,165.4,96.6,165.4,96.6c0-0.1,0-0.1,0.1-0.1
								C165.4,96.5,165.4,96.6,165.4,96.6z M170,88.7L170,88.7c0-0.1,0-0.1,0-0.1c0.3,0.3,0.7,0.5,1.2,0.7c0,0,0,0.1,0,0.1
								C170.7,89.2,170.3,88.9,170,88.7z M173.7,90.1c-0.5-0.1-1-0.2-1.6-0.4c-0.3-0.1-0.5-0.2-0.8-0.3c0,0,0-0.1,0-0.1
								c0.3,0.1,0.5,0.2,0.8,0.3c0.5,0.2,1.1,0.3,1.6,0.3L173.7,90.1z M173.5,99.3C173.5,99.3,173.5,99.3,173.5,99.3
								C173.5,99.2,173.5,99.2,173.5,99.3C173.5,99.2,173.5,99.2,173.5,99.3z M176.9,87.5c-0.1-0.1-0.2-0.3-0.3-0.4
								c0.2-0.5,0.4-1,0.6-1.5c0.2-1,0.1-2.3-0.1-3.5c0.2,0.3,0.5,0.8,0.7,1.5C178,84.9,177.5,86.3,176.9,87.5z"/>
						</g>
					</g>
				</g>
			</g>
		</g>
		<path class="st4" d="M177.7,78.7c-0.1,0.2-0.3,0.3-0.4,0.2l-2.9-1c-0.2-0.1-0.3-0.3-0.2-0.4l0.3-1c0.1-0.2,0.3-0.3,0.4-0.2l2.9,1
			c0.2,0.1,0.3,0.3,0.2,0.4L177.7,78.7z"/>
	</g>
	<g>
		<g>
			<g>
				<g>
					<g>
						<g>
							<path class="st3" d="M167.9,83.2l0-0.5c0,0,0.1-4.3-1.1-7c-1.2-2.7-3.4-3.7-3.4-4.3c0.1-0.2,0.2-0.4,0.2-0.5c0,0,0-0.1,0-0.1
								c0,0,0-0.1,0-0.1c0-0.3-0.1-0.5-0.4-0.7l0-1.3c0,0.3-0.5,0.6-1.3,0.8c-0.3-0.1-0.7-0.1-1.1-0.1c-0.4,0-0.8,0.1-1.1,0.2
								c-0.8-0.1-1.3-0.4-1.4-0.7l0,1.4c-0.2,0.2-0.3,0.4-0.3,0.7c0,0,0,0.1,0,0.1c0,0,0,0.1,0,0.1c0,0.2,0.1,0.3,0.2,0.5l0,0
								c0,0.6-2,1.8-3,4.6c-1,2.8-0.7,7-0.7,7l0,0.5c0,0.6,0.3,1.1,0.7,1.6l0.5,13.8c-0.2,0.4-0.4,0.8-0.4,1.2l0,0v0
								c0,0,0,0.1,0,0.1c0,0.2,0,0.3,0.1,0.5l0.8,6.4c0,0,0.5,2.7,1.3,2.7l0.1,0l0.2,0c0,0,0.4,0,0.6-0.3c0,0,0.3-0.2,0.4,0.2
								c0.1,0.4,0.3,0.7,0.3,0.7s0.4,1,1.2,1.2c0,0,0.1,0,0.1,0c0.9,0.2,1.3,0.2,1.3,0.2s0.5,0.1,0.9-0.1c0.2-0.1,0.3-0.2,0.5-0.4
								c0.4-0.7,1-1.8,1-1.9c0-0.1,0.2-0.1,0.5,0.1l0.9,0.9c0,0,0.1,0.1,0.2,0.2c0.2,0.1,0.6,0.2,1.1-0.4c0.7-0.9,0.7-0.9,0.7-0.9
								s0.6-0.9,0.6-2l0.3-7c0-0.2,0-0.3,0-0.5c0-0.4-0.2-0.8-0.4-1.2c0-0.1-0.1-0.1-0.1-0.2c0,0-0.1-0.1-0.1-0.1l-0.4-13.5
								C167.7,84.4,167.9,83.8,167.9,83.2z M155.5,100C155.5,100,155.5,100,155.5,100c0-0.1,0-0.2,0-0.2
								C155.5,99.9,155.5,100,155.5,100z M157.9,86.7l0-0.1c0,0,0-0.1,0-0.1c0.6,0.2,1.3,0.3,2,0.4c0,0.1,0,0.1,0,0.2
								C159.1,87,158.5,86.9,157.9,86.7z M163.7,86.8c-0.7,0.1-1.5,0.2-2.4,0.3c-0.4,0-0.9,0-1.2,0c0-0.1,0-0.1,0-0.2
								c0.4,0,0.9,0,1.3,0c0.8,0,1.6-0.1,2.4-0.3L163.7,86.8z M168,99.6C168,99.6,168,99.6,168,99.6C168,99.6,168,99.5,168,99.6
								C168,99.5,168,99.6,168,99.6z M166.8,81.5c-0.2-0.1-0.4-0.3-0.6-0.4c0.1-0.8,0.1-1.6,0-2.4c-0.2-1.4-1-3.3-1.9-4.8
								c0.5,0.3,1.1,0.8,1.7,1.7C167,77.5,167.1,79.5,166.8,81.5z"/>
						</g>
					</g>
				</g>
			</g>
		</g>
		<path class="st4" d="M163.5,69c0,0.3-0.2,0.5-0.5,0.5l-4.6,0.2c-0.3,0-0.5-0.2-0.5-0.5l-0.1-1.5c0-0.3,0.2-0.5,0.5-0.5l4.6-0.2
			c0.3,0,0.5,0.2,0.5,0.5L163.5,69z"/>
	</g>
	<g>
		<g>
			<g>
				<g>
					<g>
						<g>
							<path class="st3" d="M154.2,87.7l0.1-0.4c0,0,0.8-3.4,0.3-5.7c-0.5-2.3-2.1-3.5-2-4c0.1-0.1,0.2-0.2,0.2-0.4c0,0,0-0.1,0-0.1
								c0,0,0-0.1,0-0.1c0-0.2,0-0.4-0.2-0.6l0.2-1.1c0,0.2-0.5,0.4-1.1,0.4c-0.3-0.1-0.5-0.2-0.9-0.3c-0.3-0.1-0.6-0.1-0.9-0.1
								c-0.6-0.2-1-0.5-1-0.8l-0.2,1.1c-0.2,0.1-0.3,0.3-0.3,0.5c0,0,0,0.1,0,0.1c0,0,0,0.1,0,0.1c0,0.1,0,0.3,0.1,0.4l0,0
								c-0.1,0.5-1.9,1.1-3.2,3.1c-1.3,2-1.7,5.5-1.7,5.5l-0.1,0.4c-0.1,0.5,0,0.9,0.3,1.4l-1.9,11c-0.3,0.3-0.4,0.6-0.5,0.9l0,0v0
								c0,0,0,0.1,0,0.1c0,0.1,0,0.3,0,0.4l-0.5,5.2c0,0,0,2.2,0.6,2.3l0.1,0l0.1,0c0,0,0.3,0.1,0.5-0.1c0,0,0.2-0.1,0.3,0.2
								c0,0.3,0.1,0.6,0.1,0.6s0.2,0.9,0.8,1.2c0,0,0.1,0,0.1,0c0.7,0.3,1,0.3,1,0.3s0.4,0.2,0.7,0.1c0.2,0,0.3-0.1,0.4-0.3
								c0.4-0.5,1.1-1.2,1.1-1.3c0.1-0.1,0.1-0.1,0.3,0.2l0.6,0.9c0,0,0,0.1,0.1,0.2c0.2,0.1,0.5,0.3,0.9-0.1
								c0.7-0.6,0.7-0.6,0.7-0.6s0.6-0.6,0.8-1.5l1.4-5.5c0.1-0.1,0.1-0.3,0.1-0.4c0.1-0.3,0-0.7-0.1-1c0-0.1,0-0.1,0-0.2
								c0,0,0-0.1,0-0.1l2-10.8C153.8,88.6,154.1,88.1,154.2,87.7z M141.5,98.9C141.5,98.9,141.5,98.9,141.5,98.9c0-0.1,0-0.1,0-0.2
								C141.6,98.8,141.6,98.9,141.5,98.9z M145.7,88.8L145.7,88.8c0-0.1,0-0.1,0-0.2c0.5,0.2,1,0.5,1.5,0.6c0,0,0,0.1,0,0.1
								C146.6,89.2,146.1,89,145.7,88.8z M150.2,89.8c-0.6,0-1.2-0.1-2-0.2c-0.4-0.1-0.7-0.1-1-0.2c0,0,0-0.1,0-0.1
								c0.3,0.1,0.7,0.2,1,0.2c0.7,0.1,1.3,0.2,1.9,0.1L150.2,89.8z M151.6,100.7C151.6,100.7,151.6,100.7,151.6,100.7
								C151.6,100.6,151.6,100.6,151.6,100.7C151.6,100.6,151.6,100.6,151.6,100.7z M153.6,86.2c-0.1-0.1-0.2-0.3-0.4-0.4
								c0.2-0.6,0.3-1.3,0.4-1.9c0.1-1.2-0.2-2.8-0.7-4.1c0.3,0.3,0.8,0.8,1.1,1.6C154.4,83,154.2,84.6,153.6,86.2z"/>
						</g>
					</g>
				</g>
			</g>
		</g>
		<path class="st4" d="M153.1,75.7c0,0.2-0.2,0.4-0.5,0.3l-3.6-0.6c-0.2,0-0.4-0.2-0.3-0.5l0.2-1.2c0-0.2,0.2-0.4,0.5-0.3l3.6,0.6
			c0.2,0,0.4,0.3,0.3,0.5L153.1,75.7z"/>
	</g>
	<g>
		<g>
			<g>
				<g>
					<g>
						<g>
							<path class="st3" d="M142.5,85.3l-0.1-0.5c0,0-0.6-4.7-2.3-7.4c-1.7-2.7-4.3-3.5-4.4-4.2c0.1-0.2,0.1-0.4,0.1-0.6
								c0,0,0-0.1,0-0.1c0,0,0-0.1,0-0.1c0-0.3-0.2-0.5-0.5-0.7l-0.3-1.5c0.1,0.3-0.5,0.7-1.3,1c-0.4,0-0.8,0-1.2,0.1
								c-0.4,0.1-0.8,0.2-1.2,0.4c-0.9,0-1.5-0.2-1.6-0.5l0.3,1.5c-0.2,0.2-0.3,0.5-0.2,0.8c0,0,0,0.1,0,0.1c0,0,0,0.1,0,0.1
								c0,0.2,0.1,0.4,0.3,0.5c0,0,0,0,0,0c0.1,0.6-1.9,2.3-2.6,5.5c-0.7,3.2,0.4,7.8,0.4,7.8l0.1,0.5c0.1,0.6,0.5,1.2,1,1.7l2.7,15
								c-0.2,0.5-0.3,0.9-0.2,1.4h0l0,0c0,0,0,0.1,0,0.1c0,0.2,0.1,0.4,0.1,0.5l1.8,6.8c0,0,1,2.8,1.8,2.7l0.1,0l0.2,0
								c0,0,0.4-0.1,0.6-0.4c0,0,0.2-0.3,0.4,0.1c0.2,0.4,0.4,0.7,0.4,0.7s0.6,1,1.6,1.2c0,0,0.1,0,0.1,0c1,0,1.4,0,1.4,0
								s0.5,0,1-0.2c0.2-0.1,0.3-0.3,0.4-0.5c0.3-0.9,0.8-2.1,0.8-2.2c0-0.1,0.2-0.2,0.5,0.1l1.1,0.8c0,0,0.1,0.1,0.2,0.1
								c0.3,0.1,0.7,0.1,1.2-0.6c0.7-1.1,0.7-1.1,0.7-1.1s0.5-1.1,0.4-2.3l-0.7-7.6c0-0.2,0-0.4,0-0.6c-0.1-0.5-0.3-0.9-0.7-1.3
								c0-0.1-0.1-0.1-0.1-0.2c0,0-0.1-0.1-0.1-0.1l-2.5-14.7C142.4,86.7,142.6,86,142.5,85.3z M131.6,105.6
								C131.6,105.6,131.6,105.6,131.6,105.6c0-0.1,0-0.2,0-0.3C131.5,105.4,131.5,105.5,131.6,105.6z M132.1,90.7l0-0.1
								c0,0,0-0.1,0-0.1c0.7,0.1,1.4,0.1,2.2,0.1c0,0.1,0,0.1,0.1,0.2C133.5,90.9,132.8,90.8,132.1,90.7z M138.4,90
								c-0.7,0.3-1.6,0.5-2.6,0.7c-0.5,0.1-0.9,0.1-1.4,0.2c0-0.1,0-0.1-0.1-0.2c0.5,0,0.9-0.1,1.4-0.2c0.9-0.2,1.8-0.4,2.5-0.7
								L138.4,90z M145.2,103.2C145.2,103.2,145.2,103.2,145.2,103.2c0,0,0-0.1,0-0.1C145.1,103.1,145.1,103.1,145.2,103.2z
								 M141.1,83.7c-0.2-0.1-0.4-0.2-0.7-0.3c-0.1-0.9-0.2-1.8-0.3-2.6c-0.4-1.5-1.6-3.4-2.8-4.9c0.6,0.2,1.4,0.7,2.1,1.6
								C140.6,79.3,141,81.5,141.1,83.7z"/>
						</g>
					</g>
				</g>
			</g>
		</g>
		<path class="st4" d="M135.5,70.6c0.1,0.3-0.1,0.6-0.4,0.6l-4.9,0.9c-0.3,0.1-0.6-0.1-0.6-0.5l-0.3-1.6c-0.1-0.3,0.1-0.6,0.5-0.6
			l4.9-0.9c0.3-0.1,0.6,0.1,0.6,0.5L135.5,70.6z"/>
	</g>
</g>
<g>
	<g>
		<g>
			<g>
				<g>
					<g>
						<path class="st3" d="M106.1,88.5l-0.3,0.1c0,0-2.7,1-4.1,2.4c-1.4,1.4-1.5,3-1.9,3.2c-0.1,0-0.3,0-0.4,0c0,0,0,0-0.1,0
							c0,0,0,0-0.1,0c-0.2,0.1-0.3,0.2-0.3,0.4l-0.8,0.4c0.2-0.1,0.5,0.2,0.8,0.6c0,0.2,0.1,0.5,0.2,0.7c0.1,0.2,0.2,0.5,0.4,0.7
							c0.1,0.5,0.1,0.9-0.1,1l0.9-0.4c0.2,0.1,0.3,0.1,0.5,0c0,0,0,0,0.1,0c0,0,0,0,0.1,0c0.1,0,0.2-0.1,0.3-0.2v0
							c0.4-0.2,1.6,0.8,3.6,0.8c2,0,4.6-1.3,4.6-1.3l0.3-0.1c0.4-0.2,0.6-0.4,0.8-0.8l8.5-3.7c0.3,0.1,0.6,0,0.9-0.1l0,0v0
							c0,0,0,0,0.1,0c0.1,0,0.2-0.1,0.3-0.2l3.8-2c0,0,1.5-1,1.3-1.5l0,0l0-0.1c0,0-0.1-0.2-0.3-0.3c0,0-0.2-0.1,0-0.3
							c0.2-0.2,0.4-0.4,0.4-0.4s0.5-0.5,0.5-1.1c0,0,0,0,0-0.1c-0.1-0.6-0.2-0.8-0.2-0.8s-0.1-0.3-0.3-0.5c-0.1-0.1-0.2-0.2-0.4-0.2
							c-0.6-0.1-1.3-0.2-1.4-0.2c-0.1,0-0.1-0.1,0-0.3l0.3-0.8c0,0,0-0.1,0.1-0.2c0-0.2,0-0.4-0.5-0.6c-0.8-0.2-0.8-0.2-0.8-0.2
							s-0.7-0.1-1.4,0.1l-4.4,1.5c-0.1,0-0.2,0.1-0.3,0.1c-0.3,0.1-0.5,0.3-0.6,0.6c0,0-0.1,0.1-0.1,0.1c0,0,0,0.1,0,0.1l-8.4,3.6
							C106.9,88.3,106.5,88.3,106.1,88.5z M119.7,92.1C119.7,92.1,119.7,92.1,119.7,92.1c-0.1,0-0.1,0-0.1,0.1
							C119.6,92.2,119.7,92.1,119.7,92.1z M110.8,93.9L110.8,93.9c-0.1,0-0.1,0.1-0.1,0.1c0-0.4-0.1-0.9-0.3-1.3c0,0,0.1,0,0.1-0.1
							C110.7,93,110.8,93.5,110.8,93.9z M109.4,90.3c0.3,0.4,0.5,0.9,0.8,1.4c0.1,0.3,0.2,0.5,0.3,0.8c0,0-0.1,0-0.1,0.1
							c-0.1-0.3-0.2-0.5-0.3-0.8c-0.2-0.5-0.5-1-0.8-1.4L109.4,90.3z M116.3,84.4C116.3,84.4,116.3,84.4,116.3,84.4
							C116.3,84.4,116.3,84.4,116.3,84.4C116.3,84.4,116.3,84.4,116.3,84.4z M105.4,89.6c0,0.1-0.1,0.3-0.1,0.4
							c-0.5,0.2-1,0.3-1.5,0.6c-0.9,0.5-1.8,1.4-2.5,2.3c0-0.4,0.2-0.9,0.6-1.5C102.8,90.5,104,89.9,105.4,89.6z"/>
					</g>
				</g>
			</g>
		</g>
	</g>
	<path class="st4" d="M98.3,94.8c0.2-0.1,0.4,0,0.4,0.2l1.2,2.8c0.1,0.2,0,0.4-0.2,0.4l-0.9,0.4c-0.2,0.1-0.4,0-0.4-0.2l-1.2-2.8
		c-0.1-0.2,0-0.4,0.2-0.4L98.3,94.8z"/>
</g>
<g>
	<g>
		<g>
			<g>
				<g>
					<g>
						<path class="st3" d="M209.9,94.9l0.4-0.1c0,0,3.4-0.9,5.2-2.5c1.8-1.5,2.1-3.5,2.6-3.6c0.2,0.1,0.3,0.1,0.5,0c0,0,0,0,0.1,0
							c0,0,0.1,0,0.1,0c0.2-0.1,0.4-0.2,0.4-0.4l1-0.3c-0.2,0.1-0.6-0.3-0.9-0.8c0-0.3-0.1-0.6-0.2-0.9c-0.1-0.3-0.2-0.6-0.4-0.8
							c-0.1-0.6,0-1.1,0.2-1.2l-1.1,0.4c-0.2-0.1-0.4-0.1-0.6-0.1c0,0-0.1,0-0.1,0c0,0-0.1,0-0.1,0c-0.1,0-0.3,0.1-0.3,0.3v0
							c-0.5,0.2-1.9-1.1-4.2-1.3c-2.4-0.2-5.6,1.1-5.6,1.1l-0.4,0.1c-0.5,0.1-0.8,0.5-1.1,0.9L194.8,89c-0.4-0.1-0.7-0.1-1,0l0,0
							l0,0c0,0-0.1,0-0.1,0c-0.1,0-0.3,0.1-0.4,0.2l-4.8,2c0,0-2,1-1.8,1.6l0,0.1l0,0.1c0,0,0.1,0.3,0.4,0.4c0,0,0.2,0.2-0.1,0.3
							c-0.3,0.2-0.5,0.4-0.5,0.4s-0.7,0.6-0.7,1.2c0,0,0,0.1,0,0.1c0.1,0.7,0.2,1,0.2,1s0,0.4,0.3,0.7c0.1,0.1,0.2,0.2,0.4,0.3
							c0.7,0.1,1.6,0.4,1.7,0.4c0.1,0,0.1,0.1,0,0.4L188,99c0,0-0.1,0.1-0.1,0.2c-0.1,0.2,0,0.5,0.6,0.8c0.9,0.4,0.9,0.4,0.9,0.4
							s0.8,0.2,1.7,0l5.5-1.3c0.1,0,0.3,0,0.4-0.1c0.3-0.1,0.6-0.3,0.8-0.6c0,0,0.1-0.1,0.1-0.1c0,0,0-0.1,0.1-0.1l10.4-3.3
							C209,95,209.5,95.1,209.9,94.9z M194.1,89.1C194.1,89,194.1,89,194.1,89.1c0.1,0,0.1,0,0.2-0.1C194.2,89,194.1,89,194.1,89.1z
							 M204.9,87.9L204.9,87.9c0.1,0,0.1-0.1,0.1-0.1c0,0.5,0,1.1,0.2,1.6c0,0-0.1,0-0.1,0.1C205,89,204.9,88.4,204.9,87.9z
							 M206.2,92.4c-0.3-0.5-0.5-1.1-0.8-1.8c-0.1-0.3-0.2-0.7-0.3-1c0,0,0.1,0,0.1-0.1c0.1,0.3,0.2,0.7,0.3,1
							c0.2,0.6,0.5,1.2,0.8,1.8L206.2,92.4z M197.2,98.7C197.2,98.7,197.2,98.7,197.2,98.7C197.3,98.7,197.3,98.7,197.2,98.7
							C197.3,98.7,197.3,98.7,197.2,98.7z M211,93.7c0.1-0.2,0.1-0.3,0.2-0.5c0.6-0.1,1.3-0.3,1.9-0.5c1.1-0.5,2.3-1.5,3.3-2.5
							c-0.1,0.4-0.4,1.1-0.9,1.7C214.2,92.9,212.6,93.5,211,93.7z"/>
					</g>
				</g>
			</g>
		</g>
	</g>
	<path class="st4" d="M220,88.3c-0.2,0.1-0.4,0-0.5-0.3l-1.1-3.5c-0.1-0.2,0-0.4,0.3-0.5l1.2-0.4c0.2-0.1,0.4,0,0.5,0.3l1.1,3.5
		c0.1,0.2,0,0.4-0.3,0.5L220,88.3z"/>
</g>
<g>
	<g>
		<path class="st5" d="M224.2,154c0,0-6.4,6.3-9.4,8.4c0,0-1.8-0.4-5.7-1.5v5.8c2.5,1,4.9,1.8,6.5,1.8c0,0,5.8-3.5,10.1-8L224.2,154
			z"/>
	</g>
</g>
<g>
	<g>
		<g>
			<g>
				<g>
					<g>
						<path class="st3" d="M193.3,94l-0.1-0.5c0,0-0.6-4.7-2.3-7.4c-1.7-2.7-4.3-3.5-4.4-4.2c0.1-0.2,0.1-0.4,0.1-0.6
							c0,0,0-0.1,0-0.1c0,0,0-0.1,0-0.1c0-0.3-0.2-0.5-0.5-0.7l-0.3-1.5c0.1,0.3-0.5,0.7-1.3,1c-0.4,0-0.8,0-1.2,0.1
							c-0.4,0.1-0.8,0.2-1.2,0.4c-0.9,0-1.5-0.2-1.6-0.5l0.3,1.5c-0.2,0.2-0.3,0.5-0.2,0.8c0,0,0,0.1,0,0.1c0,0,0,0.1,0,0.1
							c0,0.2,0.1,0.4,0.3,0.5c0,0,0,0,0,0c0.1,0.6-1.9,2.3-2.6,5.5c-0.7,3.2,0.4,7.8,0.4,7.8l0.1,0.5c0.1,0.6,0.5,1.2,1,1.7l2.7,15
							c-0.2,0.5-0.3,0.9-0.2,1.4h0l0,0c0,0,0,0.1,0,0.1c0,0.2,0.1,0.4,0.1,0.5l1.8,6.8c0,0,1,2.8,1.8,2.7l0.1,0l0.2,0
							c0,0,0.4-0.1,0.6-0.4c0,0,0.2-0.3,0.4,0.1c0.2,0.4,0.4,0.7,0.4,0.7s0.6,1,1.6,1.2c0,0,0.1,0,0.1,0c1,0,1.4,0,1.4,0
							s0.5,0,1-0.2c0.2-0.1,0.3-0.3,0.4-0.5c0.3-0.9,0.8-2.1,0.8-2.2c0-0.1,0.2-0.2,0.5,0.1l1.1,0.8c0,0,0.1,0.1,0.2,0.1
							c0.3,0.1,0.7,0.1,1.2-0.6c0.7-1.1,0.7-1.1,0.7-1.1s0.5-1.1,0.4-2.3l-0.7-7.6c0-0.2,0-0.4,0-0.6c-0.1-0.5-0.3-0.9-0.7-1.3
							c0-0.1-0.1-0.1-0.1-0.2c0,0-0.1-0.1-0.1-0.1L192.9,96C193.3,95.4,193.4,94.7,193.3,94z M182.4,114.3
							C182.4,114.3,182.4,114.3,182.4,114.3c0-0.1,0-0.2,0-0.3C182.4,114.1,182.4,114.2,182.4,114.3z M182.9,99.4l0-0.1
							c0,0,0-0.1,0-0.1c0.7,0.1,1.4,0.1,2.2,0.1c0,0.1,0,0.1,0.1,0.2C184.3,99.6,183.6,99.5,182.9,99.4z M189.3,98.6
							c-0.7,0.3-1.6,0.5-2.6,0.7c-0.5,0.1-0.9,0.1-1.4,0.2c0-0.1,0-0.1-0.1-0.2c0.5,0,0.9-0.1,1.4-0.2c0.9-0.2,1.8-0.4,2.5-0.7
							L189.3,98.6z M196,111.8C196,111.9,196,111.9,196,111.8c0,0,0-0.1,0-0.1C196,111.8,196,111.8,196,111.8z M191.9,92.4
							c-0.2-0.1-0.4-0.2-0.7-0.3c-0.1-0.9-0.2-1.8-0.3-2.6c-0.4-1.5-1.6-3.4-2.8-4.9c0.6,0.2,1.4,0.7,2.1,1.6
							C191.4,88,191.9,90.2,191.9,92.4z"/>
					</g>
				</g>
			</g>
		</g>
	</g>
	<path class="st4" d="M186.3,79.3c0.1,0.3-0.1,0.6-0.4,0.6l-4.9,0.9c-0.3,0.1-0.6-0.1-0.6-0.5l-0.3-1.6c-0.1-0.3,0.1-0.6,0.5-0.6
		l4.9-0.9c0.3-0.1,0.6,0.1,0.6,0.5L186.3,79.3z"/>
</g>
<g>
	<g>
		<path class="st0" d="M107.1,138.2c0.2,0.5,0.3,0.7,0.3,0.7s-0.1,0.1-0.2,0.3c-1.6,2.5-13.2,19.7-29.6,16.8c-0.2,0-0.5-0.1-0.8-0.1
			c-0.1,0-0.2,0-0.3-0.1c-5.1-1.1-9.7-3-13.7-5.2c-0.3-0.2-0.6-0.3-0.9-0.5c-7.6-4.3-12.8-9.5-14.6-11.5c-0.5-0.5-0.8-0.8-0.8-0.8
			c0.1-0.1,0.2-0.1,0.3-0.2c8.7-5.4,16.2-8.9,22.7-10.9c0.4-0.1,0.7-0.2,1.1-0.3c7.4-2.2,13.3-2.5,18.2-1.7c0.5,0.1,0.9,0.2,1.4,0.3
			C101.3,127.3,105.9,135.6,107.1,138.2z"/>
	</g>
	<g>
		<path class="st1" d="M107.1,138.2c0.2,0.5,0.3,0.7,0.3,0.7s-0.1,0.1-0.2,0.3c-5-0.4-11.5-0.7-18.5-0.8c-0.4,0-0.8,0-1.2,0
			c-4.9-0.1-10.1-0.1-15.1-0.1c-0.4,0-0.9,0-1.3,0c-9.6,0-18.5,0.2-23.9,0.3c-0.5-0.5-0.8-0.8-0.8-0.8c0.1-0.1,0.2-0.1,0.3-0.2
			c6.7-0.1,19.1-0.3,31.6-0.3c0.5,0,0.9,0,1.4,0l0,0c5.9,0,11.8,0.1,17.1,0.3c0.4,0,0.8,0,1.3,0
			C101.4,137.8,104.4,137.9,107.1,138.2z"/>
	</g>
	<g>
		<path class="st1" d="M72.6,138.1l-0.2,0.2l-9.7,12.2c-0.3-0.2-0.6-0.3-0.9-0.5l9.3-11.7l0.7-0.8L72.6,138.1z"/>
	</g>
	<g>
		<path class="st1" d="M79.8,137.5l-0.8,0.7l-0.7-0.9l-8.9-10.7c0.4-0.1,0.7-0.2,1.1-0.3l9.2,11l0,0L79.8,137.5z"/>
	</g>
	<g>
		<path class="st1" d="M88.9,138.2l-0.2,0.2L77.5,156c-0.2,0-0.5-0.1-0.8-0.1c-0.1,0-0.2,0-0.3-0.1l11-17.4l0.5-0.8L88.9,138.2z"/>
	</g>
	<g>
		<path class="st1" d="M90,124.9l8,12.8l0.1,0.1l-0.9,0.5l-0.4-0.7l-8.2-13C89.1,124.7,89.6,124.8,90,124.9z"/>
	</g>
</g>
<g>
	<g>
		<path class="st0" d="M198.2,221.8c-1-0.2-1.9-0.4-2.8-0.7c-2.7-0.7-4.6-1.4-4.8-1.5c0,0,0,0,0,0l-9-22.9c0,0,0,0,0,0
			c0.1-0.1,1-1.9,2.5-4.3c0.5-0.7,1-1.5,1.6-2.4c3.1-4.5,7.6-9.6,12.2-10.5c1.4-0.3,2.5-0.2,3.3,0c0.4,0.1,0.8,0.3,1,0.5
			c2.4,1.9,0.5,7,1.1,8.2c0.8,1.6,7.8-4.2,12.1-10.2c4-5.6,10.2-10.7,14.5-7.4c0.2,0.1,0.3,0.2,0.4,0.4c0.1,0.1,0.3,0.3,0.4,0.4
			c4.2,4.8-2.5,9.6-0.5,11.6c1.9,1.9,23-14.6,27.4-3.5c0.1,0.2,0.1,0.4,0.2,0.5c0.1,0.2,0.2,0.4,0.2,0.5
			c4.3,11.1-22.3,13.5-22.4,16.2c-0.1,2.8,8.1,1.7,8.3,8.1c0,0.2,0,0.4,0,0.6c0,0.2,0,0.4-0.1,0.6c-0.9,5.3-8.9,5.8-15.7,4.4
			c-7.2-1.5-16.3-0.9-15.8,0.7c0.4,1.2,5.2,3.7,4.8,6.7c-0.1,0.4-0.2,0.7-0.4,1.1c-0.4,0.7-1.2,1.5-2.4,2.2
			C210.3,223.7,203.5,223,198.2,221.8z"/>
	</g>
	<g>
		<path class="st1" d="M258.1,180.5l-71.7,28.2l-0.4-1.1l71.7-28.2c0.1,0.2,0.1,0.4,0.2,0.5C257.9,180.2,258,180.4,258.1,180.5z"/>
	</g>
	<g>
		<path class="st1" d="M216.9,196.6l-0.5-0.3l-0.5-0.3l0.1-0.2l13.4-25.6l0.5,0.3c0.2,0.1,0.3,0.2,0.4,0.4l-12.7,24.2l-0.4,0.8
			L216.9,196.6z"/>
	</g>
	<g>
		<path class="st1" d="M187.5,208.2l-0.5-0.3l-0.5-0.3l0.1-0.2l14.6-27.9c0.4,0.1,0.8,0.3,1,0.5l-14,26.7l-0.4,0.8L187.5,208.2z"/>
	</g>
	<g>
		<path class="st1" d="M243.7,206.5l-27.3-9.6l-0.2-0.1l0.2-0.5l0.2-0.5l0.6,0.2l0.8,0.3l25.8,9.1c0,0.2,0,0.4-0.1,0.6L243.7,206.5z
			"/>
	</g>
	<g>
		<path class="st1" d="M216.7,219L187,208.5l-0.2-0.1l0.2-0.5l0.2-0.5l0.6,0.2l0.8,0.3l28.4,10C217,218.2,216.9,218.6,216.7,219z"/>
	</g>
</g>
<g>
	<g>
		<path class="st0" d="M121.7,206c0.1,0.7,0.1,1.1,0.1,1.1s-0.1,0.1-0.4,0.3c-3.2,2.8-25.8,21.4-47,10.9c-0.3-0.2-0.6-0.3-1-0.5
			c-0.1-0.1-0.3-0.2-0.4-0.2c-6.5-3.6-12-8-16.6-12.6c-0.4-0.4-0.7-0.7-1-1.1c-8.5-8.9-13.6-18-15.3-21.4c-0.5-0.9-0.7-1.4-0.7-1.4
			c0.2,0,0.3-0.1,0.5-0.1c14-3.9,25.6-5.6,35.2-5.8c0.5,0,1.1,0,1.6,0c10.9,0,19.1,2,25.4,5c0.6,0.3,1.2,0.6,1.8,0.9
			C118.3,188.9,121.1,202.1,121.7,206z"/>
	</g>
	<g>
		<path class="st1" d="M121.7,206c0.1,0.7,0.1,1.1,0.1,1.1s-0.1,0.1-0.4,0.3c-6.6-2.5-15.3-5.5-24.8-8.5c-0.5-0.2-1.1-0.3-1.6-0.5
			c-6.7-2.1-13.7-4.2-20.4-6.2c-0.6-0.2-1.2-0.4-1.8-0.5c-13-3.8-25.2-7.2-32.6-9.2c-0.5-0.9-0.7-1.4-0.7-1.4c0.2,0,0.3-0.1,0.5-0.1
			c9.2,2.5,26.1,7.2,43,12.3c0.6,0.2,1.2,0.4,1.8,0.6l0,0c8,2.4,16,4.9,23.2,7.3c0.6,0.2,1.1,0.4,1.7,0.6
			C114.1,203.2,118.2,204.7,121.7,206z"/>
	</g>
	<g>
		<path class="st1" d="M74.9,192.1l-0.3,0.2l-18.1,12.7c-0.4-0.4-0.7-0.7-1-1.1l17.3-12.2l1.3-0.9L74.9,192.1z"/>
	</g>
	<g>
		<path class="st1" d="M84.9,194.1l-1.3,0.6l-0.6-1.4l-7.8-18.1c0.5,0,1.1,0,1.6,0l8.1,18.6l0,0L84.9,194.1z"/>
	</g>
	<g>
		<path class="st1" d="M97,198.7l-0.3,0.3l-22.2,19.4c-0.3-0.2-0.6-0.3-1-0.5c-0.1-0.1-0.3-0.2-0.4-0.2l22-19.2l1-0.9L97,198.7z"/>
	</g>
	<g>
		<path class="st1" d="M103.9,181.1l5.8,20.6l0,0.1l-1.4,0.4l-0.3-1.1l-5.9-20.9C102.7,180.5,103.3,180.8,103.9,181.1z"/>
	</g>
</g>
<g>
	<g>
		<path class="st1" d="M252.7,101.6c-0.4-0.2-0.8,0-0.9,0.4c-3.9,8.8-19.3,17.6-44.5,25.6l-0.6,1.7c11-3.5,20.3-7.1,27.6-10.8
			c10-5.1,16.3-10.4,18.7-15.8C253.2,102.1,253.1,101.7,252.7,101.6z"/>
	</g>
	<path class="st0" d="M242.9,113c0,0,2.1,5.5,11.6,1.4C254.5,114.5,248.9,106.9,242.9,113z"/>
	<path class="st0" d="M238.1,115.4c0,0,5.6-1.8,2.1-11.6C240.2,103.8,232.4,109,238.1,115.4z"/>
	<path class="st0" d="M250,105.9c0,0,5.9,0.2,5.8-10.3C255.8,95.7,246.8,98,250,105.9z"/>
	<path class="st0" d="M228.6,120.4c0,0,0.1,5.9,10.4,5.3C239,125.8,236.3,116.7,228.6,120.4z"/>
	<path class="st0" d="M223.3,122.1c0,0,5.8-0.8,4-11.1C227.4,111,218.8,114.8,223.3,122.1z"/>
	<path class="st0" d="M216.3,125.1c0,0,0,5.9,10.3,5.5C226.7,130.6,224.1,121.6,216.3,125.1z"/>
</g>
<g>
	<g>
		<path class="st6" d="M193.9,251.1h-17.8V102.3h41.1l-13.4,139.7C203.2,247.2,199,251.1,193.9,251.1z"/>
		<path class="st7" d="M221.1,102.3H84.3c-1.5,0-2.7-1.2-2.7-2.7v-6.7c0-1.5,1.2-2.7,2.7-2.7h136.8c1.5,0,2.7,1.2,2.7,2.7v6.7
			C223.8,101.1,222.6,102.3,221.1,102.3z"/>
		<path class="st7" d="M202.9,102.3l-0.3,3.8l-12.9,145h-79.7c-5.2,0-9.6-4-10-9.2L88.6,115l-1.1-12.7H202.9z"/>
		<polygon class="st6" points="202.9,102.3 202.3,107.4 88.3,111.2 87.5,102.3 		"/>
		<g>
			<path class="st8" d="M116.7,170.8l-4.3-2.5l13.9-0.2l7.2,12.3l-4.3-2.3l-5.7,10.1c-1.4,2.5-2.2,5.3-2.3,8.1c0,0.1,0,0.2,0,0.3
				l-7.8-13.5C113.3,183.2,109.9,177.3,116.7,170.8z"/>
			<path class="st8" d="M155.2,203.9l-0.1,4.9l-6.9-12.1l7.3-12.2l0,4.9l11.7,0.2c2.9,0,5.7-0.6,8.2-1.9c0.1,0,0.2-0.1,0.3-0.2
				l-8.1,13.4C167.6,200.9,164.1,206.7,155.2,203.9z"/>
			<path class="st9" d="M165.1,154.2l3.8-2.2l-6.8,12.1l-14.2,0l4.2-2.6l-5.6-9.6c0,0,2.1-5.4,7.9-6.5
				C160.4,144.2,165.1,154.2,165.1,154.2z"/>
			<path class="st9" d="M142.7,189.3v14.4h-12.6c0,0-5.5-0.1-6.4-6.4c-0.7-5.2,2.2-8,2.2-8H142.7z"/>
			<path class="st9" d="M158.6,173l12.4-7.3l6.4,10.8c0,0,1.5,5.4-3.5,9.2c-4.1,3.1-6.7,1.8-6.7,1.8L158.6,173z"/>
			<path class="st8" d="M123,159.4l6.5-11.3c0,0,2.1-3.4,5.3-3.4h15.2c0,0-3.1,2.4-6.3,7.4c-3.2,5.1-8.1,14.4-8.1,14.4L123,159.4z"
				/>
		</g>
	</g>
</g>
<g>
	<g>
		<g>
			<g>
				<g>
					<g>
						<path class="st3" d="M106.2,90.8l0-0.6c0,0,0.6-4.9-0.6-8.2c-1.1-3.2-3.5-4.6-3.5-5.3c0.2-0.2,0.3-0.4,0.3-0.6
							c0,0,0-0.1,0-0.1c0,0,0-0.1,0-0.1c0-0.3-0.1-0.6-0.4-0.8l0.1-1.5c0,0.4-0.7,0.6-1.6,0.7c-0.4-0.1-0.8-0.2-1.3-0.2
							c-0.5,0-0.9,0-1.3,0.1c-0.9-0.2-1.5-0.6-1.5-0.9l-0.1,1.6c-0.2,0.2-0.4,0.5-0.4,0.7c0,0,0,0.1,0,0.1c0,0,0,0.1,0,0.1
							c0,0.2,0,0.4,0.2,0.6l0,0c0,0.7-2.5,1.9-4,4.9c-1.5,3.1-1.5,8-1.5,8l0,0.6c0,0.7,0.2,1.3,0.6,1.9l-0.9,16
							c-0.3,0.4-0.5,0.9-0.5,1.4l0,0l0,0c0,0,0,0.1,0,0.1c0,0.2,0,0.4,0,0.6l0.2,7.4c0,0,0.3,3.1,1.2,3.2l0.1,0l0.2,0
							c0,0,0.4,0,0.7-0.3c0,0,0.3-0.2,0.4,0.3c0.1,0.5,0.3,0.8,0.3,0.8s0.4,1.2,1.3,1.6c0,0,0.1,0,0.1,0c1,0.3,1.4,0.3,1.4,0.3
							s0.5,0.2,1,0c0.2-0.1,0.4-0.2,0.6-0.5c0.5-0.8,1.3-1.9,1.4-2c0.1-0.1,0.2-0.1,0.5,0.2l0.9,1.1c0,0,0.1,0.1,0.2,0.2
							c0.2,0.2,0.7,0.3,1.3-0.3c1-1,1-1,1-1s0.8-1,0.9-2.2l1.1-8c0.1-0.2,0.1-0.4,0.1-0.6c0-0.5-0.1-1-0.4-1.4
							c0-0.1-0.1-0.2-0.1-0.3c0,0-0.1-0.1-0.1-0.1l1-15.6C105.8,92.2,106.2,91.5,106.2,90.8z M90.1,108.9
							C90.1,108.8,90.1,108.8,90.1,108.9c0-0.1,0-0.2,0-0.3C90.1,108.7,90.1,108.8,90.1,108.9z M94.3,93.8l0-0.1c0,0,0-0.1,0-0.1
							c0.7,0.3,1.4,0.5,2.3,0.6c0,0.1,0,0.1,0,0.2C95.7,94.3,94.9,94,94.3,93.8z M100.9,94.5c-0.8,0.1-1.7,0.1-2.8,0.1
							c-0.5,0-1-0.1-1.4-0.2c0-0.1,0-0.1,0-0.2c0.5,0.1,1,0.1,1.5,0.2c1,0.1,1.9,0,2.8-0.1L100.9,94.5z M104.6,109.7
							C104.6,109.7,104.6,109.7,104.6,109.7c0,0,0-0.1,0-0.1C104.6,109.6,104.6,109.6,104.6,109.7z M105.1,88.8
							c-0.2-0.2-0.4-0.3-0.6-0.5c0.2-0.9,0.3-1.8,0.3-2.8c0-1.7-0.8-3.9-1.6-5.7c0.5,0.4,1.2,1,1.8,2.1
							C105.8,84.1,105.7,86.5,105.1,88.8z"/>
					</g>
				</g>
			</g>
		</g>
	</g>
	<path class="st4" d="M102.6,74c0,0.3-0.3,0.6-0.6,0.6l-5.3-0.3c-0.3,0-0.6-0.3-0.6-0.6l0.1-1.8c0-0.3,0.3-0.6,0.6-0.5l5.3,0.3
		c0.3,0,0.6,0.3,0.6,0.6L102.6,74z"/>
</g>
<g>
	<g>
		<g>
			<g>
				<g>
					<g>
						<path class="st3" d="M211.4,160.8l0-0.6c0,0,0.1-5-1.3-8.1c-1.4-3.1-3.9-4.3-4-5c0.1-0.2,0.2-0.4,0.2-0.6c0,0,0-0.1,0-0.1
							c0,0,0-0.1,0-0.1c0-0.3-0.1-0.6-0.4-0.8l-0.1-1.5c0,0.4-0.6,0.7-1.5,0.9c-0.4-0.1-0.8-0.1-1.3-0.1c-0.5,0-0.9,0.1-1.3,0.2
							c-0.9-0.1-1.6-0.4-1.6-0.8l0.1,1.6c-0.2,0.2-0.3,0.5-0.3,0.8c0,0,0,0.1,0,0.1c0,0,0,0.1,0,0.1c0,0.2,0.1,0.4,0.2,0.6l0,0
							c0,0.7-2.3,2.1-3.5,5.3c-1.2,3.2-0.7,8.1-0.7,8.1l0,0.6c0,0.7,0.3,1.3,0.8,1.9l0.6,16c-0.3,0.5-0.4,0.9-0.4,1.4l0,0l0,0
							c0,0,0,0.1,0,0.1c0,0.2,0,0.4,0.1,0.6l0.9,7.4c0,0,0.6,3.1,1.5,3.1l0.1,0l0.2,0c0,0,0.4,0,0.7-0.3c0,0,0.3-0.2,0.4,0.2
							c0.1,0.4,0.3,0.8,0.3,0.8s0.5,1.2,1.4,1.4c0,0,0.1,0,0.1,0c1,0.2,1.5,0.2,1.5,0.2s0.6,0.1,1-0.1c0.2-0.1,0.4-0.2,0.5-0.5
							c0.5-0.9,1.1-2,1.1-2.2c0-0.1,0.2-0.2,0.5,0.2l1,1c0,0,0.1,0.1,0.2,0.2c0.3,0.2,0.7,0.2,1.3-0.5c0.9-1.1,0.9-1.1,0.9-1.1
							s0.7-1.1,0.7-2.3l0.3-8.1c0-0.2,0.1-0.4,0-0.6c0-0.5-0.2-1-0.5-1.4c0-0.1-0.1-0.2-0.1-0.2c0,0-0.1-0.1-0.1-0.1l-0.5-15.6
							C211.1,162.2,211.4,161.5,211.4,160.8z M197.1,180.3C197.1,180.3,197.1,180.3,197.1,180.3c0-0.1,0-0.2,0-0.3
							C197.1,180.1,197.1,180.2,197.1,180.3z M199.8,164.9l0-0.1c0,0,0-0.1,0-0.1c0.7,0.2,1.5,0.4,2.3,0.4c0,0.1,0,0.1,0,0.2
							C201.2,165.3,200.5,165.1,199.8,164.9z M206.5,165c-0.8,0.2-1.7,0.3-2.8,0.3c-0.5,0-1,0-1.4,0c0-0.1,0-0.1,0-0.2
							c0.5,0,1,0,1.5,0c1,0,1.9-0.2,2.7-0.4L206.5,165z M211.6,179.7C211.6,179.8,211.6,179.8,211.6,179.7c0,0,0-0.1,0-0.1
							C211.6,179.7,211.6,179.7,211.6,179.7z M210.1,158.9c-0.2-0.2-0.4-0.3-0.6-0.5c0.1-0.9,0.1-1.9,0-2.8
							c-0.2-1.7-1.2-3.8-2.2-5.5c0.6,0.3,1.3,0.9,2,2C210.3,154.2,210.4,156.6,210.1,158.9z"/>
					</g>
				</g>
			</g>
		</g>
	</g>
	<path class="st4" d="M206.2,144.4c0,0.3-0.2,0.6-0.6,0.6l-5.3,0.2c-0.3,0-0.6-0.2-0.6-0.6l-0.1-1.8c0-0.3,0.2-0.6,0.6-0.6l5.3-0.2
		c0.3,0,0.6,0.2,0.6,0.6L206.2,144.4z"/>
</g>
<g>
	<g>
		<g>
			<g>
				<path class="st10" d="M225.1,256.2l-4.4,0l-2.8-33.9l3.2-31.1l11.9-1.1l-7.2,35.4C227.9,233.8,226.2,244.3,225.1,256.2z"/>
			</g>
		</g>
	</g>
	<path class="st11" d="M225.3,256c0,0,0.3,0.4,0.3,1.1c0,0.8-0.1,3.4-0.1,3.4l-12.9,0c0,0,0-2,1.6-3.1c1.6-1.1,4.1,0,6.5-1.7
		C220.7,255.7,221.3,256.3,225.3,256z"/>
</g>
<g>
	<g>
		<g>
			<path class="st5" d="M249.3,256c-0.8-9.2-4.8-27.7-7.4-31.7l0-34.6l-11.6,2.8l3.5,32l11.1,31.3
				C246.1,256.5,247.7,256.3,249.3,256z"/>
		</g>
	</g>
	<path class="st11" d="M249.3,256c0,0,0.3,0.4,0.3,1.2c0,0.8,0,3.4,0,3.4l-12.9,0c0,0,0-2,1.6-3.1c1.6-1.1,4.1,0,6.5-1.7
		C244.8,255.7,245.3,256.3,249.3,256z"/>
</g>
<g>
	<g>
		<g>
			<path class="st12" d="M219.7,192.4c0.6,1,2.5,1.7,4.2,2.1c0.1,0,0.2,0.1,0.3,0.1c0.3,0.1,0.6,0.1,0.8,0.2
				c2.7,0.5,5.5,0.7,8.3,0.7c0.5,0,1.1,0,1.6-0.1c0.1,0,0.2,0,0.3,0c2.9-0.4,6.1-1.7,7.7-3.3l-2.3-10.5l4.5-26.1l-6-2.1l-0.3-0.1
				l-1.3-0.5l-1.5-0.5l-5.9,1l-1,0.1l-0.4,0l-4.5,0.6L219.7,192.4z"/>
		</g>
	</g>
</g>
<g>
	<g>
		<path class="st10" d="M225.9,134.6c0,0-1.6,0.8-1.4,3.5c0.2,2.7,1.2,3.1,1.2,3.1S227.9,135.6,225.9,134.6z"/>
	</g>
	<g>
		<path class="st13" d="M231.1,147.8l-0.2,3.4l-0.1,2c1.7,1.7,5.1-0.4,5.1-0.4l1-4.9c-0.8-0.7-3.2-0.5-4.6-0.3
			C231.5,147.7,231.1,147.8,231.1,147.8z"/>
	</g>
	<g>
		<path class="st14" d="M231.1,147.8l-0.2,3.4c2.3-0.2,4.6-3.1,4.6-3.1l-3.2-0.4C231.5,147.7,231.1,147.8,231.1,147.8z"/>
	</g>
	<g>
		<path class="st10" d="M226,136c0,0-3.4-2.1-2-5c1.4-2.8,5.5-0.2,9.6,0.6c6.2,1.1,7.6,3.7,7,7c-0.6,3.4-1.1,7.9-2.9,9.4
			c-1.7,1.5-2.5-1-3-3.2C234.2,142.6,230.1,135.5,226,136z"/>
	</g>
	<g>
		<g>
			<path class="st13" d="M225.3,138.9c0,0.1,0,0.2,0,0.3c-0.2,2.1-0.2,4.7-0.1,6.8c0.1,2.2,2,4,4.3,3.8c2.7-0.2,6-0.6,7.7-1.4
				c0.5-0.2,0.8-0.5,0.9-0.8c0.2-0.7,0.4-1.8,0.6-2.9c0.5-3.4,0.8-7.7,0.8-7.7c-2.7-4.3-11.7-3.9-13.4-1.2
				C225.7,136.5,225.4,137.6,225.3,138.9z"/>
		</g>
	</g>
	<g>
		<path class="st10" d="M239,141.6c0,0-1.3-1.1-2.7,0.4l-0.9-0.1c0,0,0.3-1.9,0-3c-0.3-1.1-2.1-1.3-2.2-2.5c0,0-4.4,1.1-7.2-0.4
			c-2.8-1.5,6.8-5.3,10.8-2.4C240.8,136.6,240.1,138.5,239,141.6z"/>
	</g>
	<g>
		<path class="st10" d="M237.1,148.4c0.5-0.2,0.8-0.5,0.9-0.8c0.2-0.7,0.4-1.8,0.6-2.9l-2.5,1.3C236.1,146,235.9,147.7,237.1,148.4z
			"/>
	</g>
	<g>
		<g>
			<path class="st13" d="M236.4,142c0,0,1.6-1.5,2.7-0.4c1.2,1.3-0.3,4.8-2.9,4.4L236.4,142z"/>
		</g>
	</g>
</g>
<g>
	<g>
		<path class="st5" d="M245.1,155.4c0,0,2.6,4.2,0.4,9c-2.2,4.8-13.1,11.6-13.1,11.6l-20.6,2.3l-0.9-3.7c0,0,6.7-1.7,8.8-2.1
			c2.1-0.4,7.2-1.8,10.9-2.3C230.6,170.2,240.4,158.7,245.1,155.4z"/>
	</g>
	<path class="st13" d="M210.9,174.6c0,0-1.3-1.2-2.4-1.5c-1.1-0.3-2.2-0.1-3.3,0c-1.1,0-0.8,0.9,0.2,1.1c1,0.2,2.1,0.3,1.9,0.6
		c-0.2,0.3-4.7,0.9-5.5,1.8c-0.8,0.9,3.1,0.2,3.1,0.2s-3.7,1-3.8,1.7c-0.2,0.7,3.7-0.4,3.7-0.4s-2.8,0.8-2.6,1.4
		c0.2,0.4,2.4-0.2,3.6-0.5c0,0-2.7,0.9-2.3,1.2c0.5,0.5,5.6-0.3,8.4-2.1C211.7,177,211.3,175.9,210.9,174.6z"/>
</g>
<g>
	<g>
		<g>
			<path class="st10" d="M72.5,199.4h4.4l2.8-33.8l-3.1-31l-11.9-1.1l7.1,35.3C69.8,177,71.5,187.4,72.5,199.4z"/>
		</g>
	</g>
	<path class="st15" d="M72.4,199.1c0,0-0.3,0.4-0.3,1.1c0,0.8,0.1,3.4,0.1,3.4h12.9c0,0,0-2-1.6-3.1c-1.6-1.1-4.1,0-6.5-1.7
		C77,198.8,76.3,199.4,72.4,199.1z"/>
</g>
<g>
	<g>
		<g>
			<path class="st5" d="M51.2,199.1c0.8-9.2,4.8-27.6,7.4-31.5l0-34.5l11.6,2.8l-3.5,31.9l-11.1,31.2
				C54.3,199.6,52.8,199.4,51.2,199.1z"/>
		</g>
	</g>
	<path class="st15" d="M51.2,199.1c0,0-0.3,0.4-0.3,1.2c0,0.8,0,3.4,0,3.4h12.8c0,0,0-2-1.6-3.1c-1.6-1.1-4.1,0-6.5-1.7
		C55.6,198.8,55.1,199.4,51.2,199.1z"/>
</g>
<g>
	<g>
		<g>
			<path class="st12" d="M77.5,113l0.1,23.9c-11.6,4.1-19.8-1.3-19.8-1.3l3.6-19.8l-4.4-16.6l3-1.5l0.6-0.3h0l1.3-0.7l4.2-2.1
				l8.3,1.1l1.2,0.1l0.7,0.1l0.9,0.1c-0.4,2.7-0.1,6,0.2,9.4c0.6,1.3,1.1,2.8,1.2,4.2c0,1.2-0.4,2.1-0.9,2.8c0,0,0,0,0,0
				c0,0-0.1,0.1-0.1,0.1L77.5,113z"/>
		</g>
	</g>
	<g>
		<g>
			<path class="st5" d="M77.5,112.6l0,0.4c-1.1,0.3-3.6,0.9-6.8,0.9c-1.5,0-3.2-0.1-4.9-0.5c-0.1,0-0.2-0.2-0.2-0.3
				c0-0.1,0.2-0.2,0.3-0.2c5.6,1.1,10.3-0.1,11.7-0.4C77.5,112.5,77.5,112.6,77.5,112.6z"/>
		</g>
	</g>
</g>
<g>
	<g>
		<g>
			<path class="st10" d="M74.5,78.5c0,0,1.4,1.3,1.6,3c0.2,1.7-0.6,2.9-0.6,2.9L74.5,78.5z"/>
		</g>
	</g>
	<path class="st10" d="M73.9,80c-2.8,1.5-8.2,1.1-8.2,1.1c-4.2,1.1-2.2,10.5-2.2,10.5c-1.4-0.2-2.3-1.3-2.9-2.6
		c-0.3,2.4-0.8,4.7-1.5,6.2c-2.3,4.9-7.2,2.1-7.2,2.1c6,0.1,4.8-6.3,1.1-10.9c-3.7-4.6-0.6-12.2,3.5-12.4c4-0.2,4.7,3.5,4.7,3.7
		c0,0,0,0,0,0c0.2,0.5,0.3,0.8,0.3,0.8c1.3-1.6,7.8-4.3,10.8-3.6C75.2,75.5,76.2,78.8,73.9,80z"/>
	<g>
		<g>
			<path class="st16" d="M61.5,78.5c0,0-1.8,1.5-2.3,4.5c-0.4,0.1-0.7,0.1-1,0.1c0.1-0.9,0.7-4.3,3-5.4
				C61.4,78.1,61.5,78.5,61.5,78.5z"/>
		</g>
	</g>
	<g>
		<g>
			<path class="st13" d="M69.9,92.2l0.1,3.1l0,1.4c-1.7,1.5-4.8-0.1-4.8-0.1l-0.6-5c0.8-0.6,2.9,0.1,4.2,0.4
				C69.4,92,69.9,92.2,69.9,92.2z"/>
		</g>
	</g>
	<g>
		<g>
			<path class="st14" d="M69.9,92.2l0.1,3.1c-2.1-0.3-4.1-3.1-4.1-3.1l3-0.2C69.4,92,69.9,92.2,69.9,92.2z"/>
		</g>
	</g>
	<g>
		<g>
			<path class="st13" d="M73.4,92.8c-3.7,2-8.3-0.2-9.7-1.1c-0.3-0.2-0.4-0.3-0.4-0.3s-0.2-0.8-0.4-1.9c-0.2-1.2-0.4-2.8-0.4-4.3
				c0-1.8,0.3-3.5,1.4-4.3l10.8-2c0,0,0,0.1,0.1,0.4C75.2,81.4,77.3,90.7,73.4,92.8z"/>
		</g>
	</g>
	<g>
		<g>
			<path class="st10" d="M63.6,91.8c-0.3-0.2-0.4-0.3-0.4-0.3s-0.2-0.8-0.4-1.9l0.9,0.3C63.6,89.9,64.3,91,63.6,91.8z"/>
		</g>
	</g>
	<g>
		<g>
			<g>
				<path class="st13" d="M64,86.2c0,0-1.5-1.6-2.5-0.4c-1.2,1.4,0.2,5.1,3,4.6L64,86.2z"/>
			</g>
		</g>
	</g>
	<g>
		<g>
			<path class="st10" d="M74.7,79.5c-1.1,0.5-5.7,2.4-9.1,2c0,0,0,0.3,0.1,0.7l0,0c0,0,0,0,0,0c0,0,0,0,0,0.1
				c0.1,0.6,0.4,3.7,0.2,5.5c-0.2,1.9,0.2,3.5,1,3.6c0,0-0.6,0.3-1.3-0.8c-0.6-1.2-1.1-3.7-1.1-3.7c-0.4-0.5-1.1-1.6-2.2-1.4
				c0-1.8,0.3-3.5,1.4-4.2l10.8-2C74.6,79.1,74.6,79.2,74.7,79.5z"/>
		</g>
	</g>
</g>
<path class="st5" d="M80.8,98.8c-1.7-1.4-3.8-2.7-3.8-2.7c-0.9,3.3-0.1,5.5-0.1,5.5s1.9,2.2,3.9,3V98.8z"/>
<g>
	<g>
		<path class="st5" d="M60.3,99c3.6,2.1,10.3,6.9,13.5,8.8c0,0,3-0.5,6.3-1.1c3.1-0.5,12.2-2.8,12.2-2.8l1.3,3.6
			c0,0-15.7,7.2-22,6.2c-3.1-0.5-6-3.2-8.4-4.6c-2.6-1.5-4.8-3.4-6.7-5.6c-0.2-0.2-0.3-0.4-0.3-0.4C54.6,100.5,57.6,97.5,60.3,99z"
			/>
	</g>
	<path class="st13" d="M92.3,104c0,0,0.3-1.5,0.9-2.5c0.6-1,1.7-1.5,2.6-2.2c0.9-0.7,1.2,0.2,0.5,1c-0.6,0.8-1.4,1.6-1,1.7
		c0.4,0.1,4.2-2.3,5.4-2.2c1.2,0.1-2.2,2.1-2.2,2.1s3.5-1.6,4-1.2c0.6,0.4-3.1,2.1-3.1,2.1s2.7-1.2,2.9-0.6c0.2,0.4-2,1.4-3,1.9
		c0,0,2.7-1.1,2.6-0.5c-0.1,0.7-4.9,3.5-8.3,3.9L92.3,104z"/>
</g>
<g>
	<g>
		<g>
			<g>
				<path class="st8" d="M67.5,205.3l-13.8,53.9c-0.1,0.5,0.2,0.9,0.6,0.9c0.5,0,1-0.4,1.1-0.9l13.8-53.9H67.5z"/>
			</g>
		</g>
		<g>
			<g>
				<path class="st8" d="M44.9,205.3l-13.8,53.9c-0.1,0.5,0.2,0.9,0.6,0.9c0.5,0,1-0.4,1.1-0.9l13.8-53.9H44.9z"/>
			</g>
		</g>
		<g>
			<g>
				<path class="st8" d="M42.6,217.8h22.5c0.5,0,1-0.4,1.1-0.9c0.1-0.5-0.2-0.9-0.6-0.9H43.1c-0.5,0-1,0.4-1.1,0.9
					C41.9,217.4,42.2,217.8,42.6,217.8z"/>
			</g>
			<g>
				<path class="st8" d="M39.9,228.5h22.5c0.5,0,1-0.4,1.1-0.9c0.1-0.5-0.2-0.9-0.6-0.9H40.3c-0.5,0-1,0.4-1.1,0.9
					C39.1,228.2,39.4,228.5,39.9,228.5z"/>
			</g>
			<g>
				<path class="st8" d="M37.1,239.3h22.5c0.5,0,1-0.4,1.1-0.9c0.1-0.5-0.2-0.9-0.6-0.9H37.6c-0.5,0-1,0.4-1.1,0.9
					C36.4,238.9,36.7,239.3,37.1,239.3z"/>
			</g>
			<g>
				<path class="st8" d="M34.4,250.1h22.5c0.5,0,1-0.4,1.1-0.9c0.1-0.5-0.2-0.9-0.6-0.9H34.8c-0.5,0-1,0.4-1.1,0.9
					C33.6,249.7,33.9,250.1,34.4,250.1z"/>
			</g>
		</g>
	</g>
	<g>
		<g>
			<g>
				<path class="st8" d="M67.9,205.3h-1.7L80,259.3c0.1,0.5,0.6,0.9,1.1,0.9c0.5,0,0.8-0.4,0.6-0.9L67.9,205.3z"/>
			</g>
		</g>
		<g>
			<g>
				<g>
					<path class="st8" d="M104.2,259.3l-13.8-53.9h-1.7l13.8,53.9c0.1,0.5,0.6,0.9,1.1,0.9C104.1,260.1,104.4,259.7,104.2,259.3z"/>
				</g>
			</g>
		</g>
		<g>
			<path class="st8" d="M91,207H43.8c-0.3,0-0.5-0.2-0.5-0.5v-2.4c0-0.3,0.2-0.5,0.5-0.5H91c0.3,0,0.5,0.2,0.5,0.5v2.4
				C91.4,206.8,91.2,207,91,207z"/>
			<g>
				<path class="st8" d="M92.7,217.8H70.2c-0.5,0-1-0.4-1.1-0.9c-0.1-0.5,0.2-0.9,0.6-0.9h22.5c0.5,0,1,0.4,1.1,0.9
					C93.5,217.4,93.2,217.8,92.7,217.8z"/>
			</g>
			<g>
				<path class="st8" d="M95.5,228.5H73c-0.5,0-1-0.4-1.1-0.9c-0.1-0.5,0.2-0.9,0.6-0.9h22.5c0.5,0,1,0.4,1.1,0.9
					C96.3,228.2,96,228.5,95.5,228.5z"/>
			</g>
			<g>
				<path class="st8" d="M98.2,239.3H75.7c-0.5,0-1-0.4-1.1-0.9c-0.1-0.5,0.2-0.9,0.6-0.9h22.5c0.5,0,1,0.4,1.1,0.9
					C99,238.9,98.7,239.3,98.2,239.3z"/>
			</g>
			<g>
				<path class="st8" d="M101,250.1H78.5c-0.5,0-1-0.4-1.1-0.9c-0.1-0.5,0.2-0.9,0.6-0.9h22.5c0.5,0,1,0.4,1.1,0.9
					C101.8,249.7,101.5,250.1,101,250.1z"/>
			</g>
		</g>
	</g>
</g>
</svg>
