<?xml version="1.0" encoding="utf-8"?>
<!-- Generator: Adobe Illustrator 25.0.1, SVG Export Plug-In . SVG Version: 6.00 Build 0)  -->
<svg version="1.1" id="Layer_1" xmlns="http://www.w3.org/2000/svg" xmlns:xlink="http://www.w3.org/1999/xlink" x="0px" y="0px"
	 viewBox="0 0 100 100" style="enable-background:new 0 0 100 100;" xml:space="preserve">
<style type="text/css">
	.st0{fill:#FFFFFF;}
</style>
<path class="st0" d="M15.9,79.9c-0.6-0.6-1.1-1-1.6-1.5c0.4-0.4,0.6-0.7,0.9-1.1c12.2-13.3,24.4-26.5,36.5-39.8c0.7-0.7,1.4-1,2.3-1
	c5.2,0,10.3,0,15.5,0c0.7,0,1.1-0.2,1.5-0.8c2.9-4.2,5.8-8.4,8.7-12.6c0.6-0.9,1.2-1.5,2.6-0.6c-0.7-2-1.3-3.8-1.9-5.6
	c-0.1-0.2-0.4-0.3-0.6-0.3c-2.2,0.2-4.4,0.4-6.9,0.7c0.8,0.6,1.4,1,1.9,1.5c0.7,0.5,0.9,1.2,0.4,1.9c-2.5,3.6-5,7.2-7.6,10.8
	c-0.3,0.4-1.1,0.7-1.6,0.7c-5.3,0-10.5,0-15.8,0c-0.7,0-1.2,0.2-1.7,0.8C38,44.3,27.4,55.7,16.8,67.1c-0.3,0.3-0.6,0.6-0.9,0.9
	c-0.5-0.5-1-1-1.6-1.5c2.2-2.3,4.3-4.6,6.4-6.9c8.9-9.6,17.8-19.2,26.6-28.8c0.6-0.7,1.3-1,2.2-1c4.9,0,9.9,0,14.8,0.1
	c1.3,0,2-0.3,2.7-1.4c1.9-2.8,3.9-5.6,5.9-8.5c-1.1-0.8-2.2-1.6-3.2-2.5c-0.4-0.3-0.8-1-0.7-1.4c0.1-0.4,0.9-0.8,1.4-0.8
	c3.3-0.4,6.7-0.7,10-1.1c1.1-0.1,1.7,0.2,2.1,1.3c1,3,2,6,3,9c0.2,0.6,0.4,1.4-0.3,1.7c-0.5,0.2-1.2,0-1.7-0.2
	c-0.7-0.3-1.3-0.8-2-1.3c-0.3,0.4-0.5,0.7-0.7,1c-1.5,2.1-2.9,4.3-4.4,6.3c-0.5,0.7-0.6,1.2,0,1.9c2.7,3.8,5.3,7.6,8,11.4
	c1.1,1.6,1.3,3.1,0.3,4.8c-1.7,3.2-3.2,6.6-4.9,9.8c-2.2,4.1-3.8,8.3-4.6,12.9c-0.4,2.1-1,4.1-1.4,6.2c-0.2,0.9-0.3,1.8-0.3,2.7
	c0,1.3,0,2.7,0,4.1c-0.8,0-1.5,0-2.2,0c0-1.1,0-2.1,0-3.2c-4.5,0-8.9,0-13.4,0c0,1,0,2.1,0,3.2c-0.8,0-1.5,0-2.2,0
	c-0.3-2.8,0-5.5,0.6-8.2c0.8-3.9,1.6-7.8,2.4-11.9c-2.1,0-4.1,0-6.1,0c-0.9,0-1.7,0-2.6,0c-2.3,0-3.4-1-3.9-3.2
	c-0.8-3.9-1.5-7.8-2.3-11.7c0-0.2-0.1-0.4-0.2-0.9C34.3,60,25.1,69.9,15.9,79.9z M58,80.2c4.4,0,8.8,0,13.2,0c0.7-3,1.3-5.9,2-8.8
	c0.7-2.6,1.2-5.3,2.3-7.7c2.2-5,4.8-9.8,7.3-14.6c0.5-0.9,0.4-1.6-0.2-2.4c-1-1.3-1.9-2.7-2.8-4c-1.7-2.5-3.5-5-5.3-7.7
	c-0.5,0.7-0.8,1.2-1.3,1.7c-0.6,0.7-0.5,1.2,0,1.9c1.8,2.6,3.5,5.3,5.3,7.9c0.6,0.9,0.6,1.6,0,2.4c-2.2,3.1-4.4,6.1-6.5,9.3
	c-0.9,1.4-1.9,2.1-3.5,1.8c-0.2,0-0.5,0.1-1,0.1c-0.6,5.1-1.1,10.3-1.7,15.5c-0.4,0-1.1,0-1.8,0c-0.6-5.3,0.8-10.4,1.4-15.6
	c-0.5,0-0.9,0-1.4,0c-3.7,0-7.5,0-11.2,0c-1.1,0-1.6-0.4-1.9-1.4c-0.7-2.6-1.6-5.1-2.3-7.7c-0.5-1.6-1-3.1-1.5-4.8
	c-0.9,0.8-1.6,1.4-1.3,2.6c0.9,4.3,1.8,8.7,2.6,13.1c0.2,1.1,0.7,1.5,1.8,1.5c3,0,6,0,9.1,0c1.8,0,2.1,0.3,1.8,2.1
	c-0.3,1.4-0.6,2.8-0.8,4.2C59.3,73.2,58.7,76.7,58,80.2z M70.5,55.7c0.1,0,0.2,0.1,0.3,0.1c1.7-2.4,3.4-4.9,5.1-7.3
	c0.4-0.6,0.4-1,0-1.6c-1.7-2.4-3.3-4.9-4.9-7.4c-0.4-0.6-0.8-0.8-1.5-0.8c-5,0-9.9,0-14.9,0c-0.5,0-1.2,0.3-1.6,0.7
	c-1.2,1.2-2.4,2.6-3.6,3.8c-0.6,0.6-0.7,1.1-0.4,1.9c1.1,3.3,2.1,6.7,3.1,10.1c0.8,2.5,0.8,2.5,3.4,2.5c2.7,0,5.4,0,8.2,0
	c0-0.2,0.1-0.4,0.1-0.5c0-0.2-0.1-0.3-0.1-0.6c-0.4,0-0.7,0-0.9,0c-2.5-0.2-4.4-2-4.5-4.6c-0.1-2.5,0-5,0-7.5c0-0.9,0.4-1.4,1.4-1.4
	c2.6,0,5.2,0,7.7,0c1.8,0,3.1,1.4,3.2,3.1c0,0.5,0,1,0,1.6C70.6,50.6,70.5,53.2,70.5,55.7z M68.3,57.8c0-1.2-0.1-2.4,0-3.5
	c0.3-2-0.4-3.4-2.2-4.3c-0.7-0.3-1.2-1-1.9-1.1c-1.2-0.2-2.4-0.1-3.7-0.1c-0.5,3.8-0.2,5.9,3.8,5.6c1.3-0.1,1.6,0.3,1.6,1.7
	c0,0.5,0,1.1,0,1.6C66.9,57.8,67.5,57.8,68.3,57.8z M60.5,46.7c2.8-0.1,5.6-0.5,7.6,2.1c0.1-0.6,0.2-0.9,0.2-1.3
	c0-1.7-0.2-1.9-1.9-1.9c-1.8,0-3.6,0-5.5,0c-0.1,0-0.2,0.1-0.4,0.1C60.5,45.9,60.5,46.2,60.5,46.7z"/>
<path class="st0" d="M32.7,29.8c-0.9-0.9-1.8-1.5-2.4-2.3c-0.3-0.4-0.6-1.1-0.5-1.4c0.1-0.4,0.8-0.7,1.3-0.7c2.8-0.1,5.5,0,8.3,0
	c1,0,1.5,0.4,1.5,1.4c0,2.8,0,5.6,0,8.4c0,0.4-0.3,1.1-0.7,1.2c-0.3,0.1-1-0.1-1.4-0.4c-0.6-0.5-1.1-1.2-1.7-1.9
	c-6.8,7.1-13.4,14.1-20,21.1c-0.6-0.5-1.1-1-1.6-1.5c0.4-0.4,0.7-0.8,1.1-1.2c6.3-6.6,12.6-13.3,18.9-19.9c1.4-1.4,1.4-1.4,3.1-0.2
	c0-1.6,0-3.2,0-4.8c-1.6,0-3.1,0-4.9,0c0.4,0.4,0.7,0.7,1,1c0.9,0.9,0.9,1.3,0,2.3c-3.8,3.8-7.6,7.6-11.4,11.4
	c-1.7,1.7-3.3,3.3-5.1,5.1c-0.5-0.6-0.9-1.1-1.4-1.8C21.9,40.6,27.2,35.3,32.7,29.8z"/>
</svg>
